%TF.GenerationSoftware,KiCad,Pcbnew,6.0.10-86aedd382b~118~ubuntu22.04.1*%
%TF.CreationDate,2023-01-16T15:09:45-06:00*%
%TF.ProjectId,badge,62616467-652e-46b6-9963-61645f706362,rev?*%
%TF.SameCoordinates,Original*%
%TF.FileFunction,Drillmap*%
%TF.FilePolarity,Positive*%
%FSLAX45Y45*%
G04 Gerber Fmt 4.5, Leading zero omitted, Abs format (unit mm)*
G04 Created by KiCad (PCBNEW 6.0.10-86aedd382b~118~ubuntu22.04.1) date 2023-01-16 15:09:45*
%MOMM*%
%LPD*%
G01*
G04 APERTURE LIST*
%ADD10C,0.050000*%
%ADD11C,0.200000*%
%ADD12C,0.300000*%
G04 APERTURE END LIST*
D10*
X5080000Y-10668000D02*
X18288000Y-10668000D01*
X4778813Y-10179908D02*
G75*
G03*
X5080000Y-10668000I301377J-151002D01*
G01*
X23622000Y-5842000D02*
X6604000Y-5842000D01*
X23622000Y-5842000D02*
X23622000Y-5842000D01*
X18288000Y-10668000D02*
X23784261Y-6316291D01*
X6604000Y-5842000D02*
X4778811Y-10179908D01*
X23784261Y-6316291D02*
G75*
G03*
X23622000Y-5842000I-162081J209451D01*
G01*
D11*
D12*
X4528000Y-6088000D02*
X4828000Y-6388000D01*
X4828000Y-6088000D02*
X4528000Y-6388000D01*
X4528000Y-9288000D02*
X4828000Y-9588000D01*
X4828000Y-9288000D02*
X4528000Y-9588000D01*
X5798000Y-10152000D02*
X6098000Y-10452000D01*
X6098000Y-10152000D02*
X5798000Y-10452000D01*
X5798000Y-13352000D02*
X6098000Y-13652000D01*
X6098000Y-13352000D02*
X5798000Y-13652000D01*
X11028000Y-6088000D02*
X11328000Y-6388000D01*
X11328000Y-6088000D02*
X11028000Y-6388000D01*
X11028000Y-9288000D02*
X11328000Y-9588000D01*
X11328000Y-9288000D02*
X11028000Y-9588000D01*
X11386000Y-10152000D02*
X11686000Y-10452000D01*
X11686000Y-10152000D02*
X11386000Y-10452000D01*
X11386000Y-13352000D02*
X11686000Y-13652000D01*
X11686000Y-13352000D02*
X11386000Y-13652000D01*
X12298000Y-10152000D02*
X12598000Y-10452000D01*
X12598000Y-10152000D02*
X12298000Y-10452000D01*
X12298000Y-13352000D02*
X12598000Y-13652000D01*
X12598000Y-13352000D02*
X12298000Y-13652000D01*
X17886000Y-10152000D02*
X18186000Y-10452000D01*
X18186000Y-10152000D02*
X17886000Y-10452000D01*
X17886000Y-13352000D02*
X18186000Y-13652000D01*
X18186000Y-13352000D02*
X17886000Y-13652000D01*
X19006000Y-6088000D02*
X19306000Y-6388000D01*
X19306000Y-6088000D02*
X19006000Y-6388000D01*
X19006000Y-9288000D02*
X19306000Y-9588000D01*
X19306000Y-9288000D02*
X19006000Y-9588000D01*
X25506000Y-6088000D02*
X25806000Y-6388000D01*
X25806000Y-6088000D02*
X25506000Y-6388000D01*
X25506000Y-9288000D02*
X25806000Y-9588000D01*
X25806000Y-9288000D02*
X25506000Y-9588000D01*
D11*
X4998219Y-10980976D02*
X4998219Y-10780976D01*
X5045838Y-10780976D01*
X5074409Y-10790500D01*
X5093457Y-10809548D01*
X5102981Y-10828595D01*
X5112505Y-10866690D01*
X5112505Y-10895262D01*
X5102981Y-10933357D01*
X5093457Y-10952405D01*
X5074409Y-10971452D01*
X5045838Y-10980976D01*
X4998219Y-10980976D01*
X5198219Y-10980976D02*
X5198219Y-10847643D01*
X5198219Y-10885738D02*
X5207743Y-10866690D01*
X5217267Y-10857167D01*
X5236314Y-10847643D01*
X5255362Y-10847643D01*
X5322028Y-10980976D02*
X5322028Y-10847643D01*
X5322028Y-10780976D02*
X5312505Y-10790500D01*
X5322028Y-10800024D01*
X5331552Y-10790500D01*
X5322028Y-10780976D01*
X5322028Y-10800024D01*
X5445838Y-10980976D02*
X5426790Y-10971452D01*
X5417267Y-10952405D01*
X5417267Y-10780976D01*
X5550600Y-10980976D02*
X5531552Y-10971452D01*
X5522028Y-10952405D01*
X5522028Y-10780976D01*
X5779171Y-10980976D02*
X5779171Y-10780976D01*
X5845838Y-10923833D01*
X5912505Y-10780976D01*
X5912505Y-10980976D01*
X6093457Y-10980976D02*
X6093457Y-10876214D01*
X6083933Y-10857167D01*
X6064886Y-10847643D01*
X6026790Y-10847643D01*
X6007743Y-10857167D01*
X6093457Y-10971452D02*
X6074409Y-10980976D01*
X6026790Y-10980976D01*
X6007743Y-10971452D01*
X5998219Y-10952405D01*
X5998219Y-10933357D01*
X6007743Y-10914310D01*
X6026790Y-10904786D01*
X6074409Y-10904786D01*
X6093457Y-10895262D01*
X6188695Y-10847643D02*
X6188695Y-11047643D01*
X6188695Y-10857167D02*
X6207743Y-10847643D01*
X6245838Y-10847643D01*
X6264886Y-10857167D01*
X6274409Y-10866690D01*
X6283933Y-10885738D01*
X6283933Y-10942881D01*
X6274409Y-10961929D01*
X6264886Y-10971452D01*
X6245838Y-10980976D01*
X6207743Y-10980976D01*
X6188695Y-10971452D01*
X6369647Y-10961929D02*
X6379171Y-10971452D01*
X6369647Y-10980976D01*
X6360124Y-10971452D01*
X6369647Y-10961929D01*
X6369647Y-10980976D01*
X6369647Y-10857167D02*
X6379171Y-10866690D01*
X6369647Y-10876214D01*
X6360124Y-10866690D01*
X6369647Y-10857167D01*
X6369647Y-10876214D01*
X4540600Y-11210500D02*
X4740600Y-11410500D01*
X4740600Y-11210500D02*
X4540600Y-11410500D01*
X4979171Y-11200976D02*
X5102981Y-11200976D01*
X5036314Y-11277167D01*
X5064886Y-11277167D01*
X5083933Y-11286690D01*
X5093457Y-11296214D01*
X5102981Y-11315262D01*
X5102981Y-11362881D01*
X5093457Y-11381928D01*
X5083933Y-11391452D01*
X5064886Y-11400976D01*
X5007743Y-11400976D01*
X4988695Y-11391452D01*
X4979171Y-11381928D01*
X5188695Y-11381928D02*
X5198219Y-11391452D01*
X5188695Y-11400976D01*
X5179171Y-11391452D01*
X5188695Y-11381928D01*
X5188695Y-11400976D01*
X5322028Y-11200976D02*
X5341076Y-11200976D01*
X5360124Y-11210500D01*
X5369648Y-11220024D01*
X5379171Y-11239071D01*
X5388695Y-11277167D01*
X5388695Y-11324786D01*
X5379171Y-11362881D01*
X5369648Y-11381928D01*
X5360124Y-11391452D01*
X5341076Y-11400976D01*
X5322028Y-11400976D01*
X5302981Y-11391452D01*
X5293457Y-11381928D01*
X5283933Y-11362881D01*
X5274409Y-11324786D01*
X5274409Y-11277167D01*
X5283933Y-11239071D01*
X5293457Y-11220024D01*
X5302981Y-11210500D01*
X5322028Y-11200976D01*
X5512505Y-11200976D02*
X5531552Y-11200976D01*
X5550600Y-11210500D01*
X5560124Y-11220024D01*
X5569648Y-11239071D01*
X5579171Y-11277167D01*
X5579171Y-11324786D01*
X5569648Y-11362881D01*
X5560124Y-11381928D01*
X5550600Y-11391452D01*
X5531552Y-11400976D01*
X5512505Y-11400976D01*
X5493457Y-11391452D01*
X5483933Y-11381928D01*
X5474409Y-11362881D01*
X5464886Y-11324786D01*
X5464886Y-11277167D01*
X5474409Y-11239071D01*
X5483933Y-11220024D01*
X5493457Y-11210500D01*
X5512505Y-11200976D01*
X5702981Y-11200976D02*
X5722028Y-11200976D01*
X5741076Y-11210500D01*
X5750600Y-11220024D01*
X5760124Y-11239071D01*
X5769647Y-11277167D01*
X5769647Y-11324786D01*
X5760124Y-11362881D01*
X5750600Y-11381928D01*
X5741076Y-11391452D01*
X5722028Y-11400976D01*
X5702981Y-11400976D01*
X5683933Y-11391452D01*
X5674409Y-11381928D01*
X5664886Y-11362881D01*
X5655362Y-11324786D01*
X5655362Y-11277167D01*
X5664886Y-11239071D01*
X5674409Y-11220024D01*
X5683933Y-11210500D01*
X5702981Y-11200976D01*
X5855362Y-11400976D02*
X5855362Y-11267643D01*
X5855362Y-11286690D02*
X5864886Y-11277167D01*
X5883933Y-11267643D01*
X5912505Y-11267643D01*
X5931552Y-11277167D01*
X5941076Y-11296214D01*
X5941076Y-11400976D01*
X5941076Y-11296214D02*
X5950600Y-11277167D01*
X5969647Y-11267643D01*
X5998219Y-11267643D01*
X6017266Y-11277167D01*
X6026790Y-11296214D01*
X6026790Y-11400976D01*
X6122028Y-11400976D02*
X6122028Y-11267643D01*
X6122028Y-11286690D02*
X6131552Y-11277167D01*
X6150600Y-11267643D01*
X6179171Y-11267643D01*
X6198219Y-11277167D01*
X6207743Y-11296214D01*
X6207743Y-11400976D01*
X6207743Y-11296214D02*
X6217266Y-11277167D01*
X6236314Y-11267643D01*
X6264886Y-11267643D01*
X6283933Y-11277167D01*
X6293457Y-11296214D01*
X6293457Y-11400976D01*
X6683933Y-11191452D02*
X6512505Y-11448595D01*
X6941076Y-11200976D02*
X6960124Y-11200976D01*
X6979171Y-11210500D01*
X6988695Y-11220024D01*
X6998219Y-11239071D01*
X7007743Y-11277167D01*
X7007743Y-11324786D01*
X6998219Y-11362881D01*
X6988695Y-11381928D01*
X6979171Y-11391452D01*
X6960124Y-11400976D01*
X6941076Y-11400976D01*
X6922028Y-11391452D01*
X6912505Y-11381928D01*
X6902981Y-11362881D01*
X6893457Y-11324786D01*
X6893457Y-11277167D01*
X6902981Y-11239071D01*
X6912505Y-11220024D01*
X6922028Y-11210500D01*
X6941076Y-11200976D01*
X7093457Y-11381928D02*
X7102981Y-11391452D01*
X7093457Y-11400976D01*
X7083933Y-11391452D01*
X7093457Y-11381928D01*
X7093457Y-11400976D01*
X7293457Y-11400976D02*
X7179171Y-11400976D01*
X7236314Y-11400976D02*
X7236314Y-11200976D01*
X7217266Y-11229548D01*
X7198219Y-11248595D01*
X7179171Y-11258119D01*
X7483933Y-11400976D02*
X7369647Y-11400976D01*
X7426790Y-11400976D02*
X7426790Y-11200976D01*
X7407743Y-11229548D01*
X7388695Y-11248595D01*
X7369647Y-11258119D01*
X7598219Y-11286690D02*
X7579171Y-11277167D01*
X7569647Y-11267643D01*
X7560124Y-11248595D01*
X7560124Y-11239071D01*
X7569647Y-11220024D01*
X7579171Y-11210500D01*
X7598219Y-11200976D01*
X7636314Y-11200976D01*
X7655362Y-11210500D01*
X7664886Y-11220024D01*
X7674409Y-11239071D01*
X7674409Y-11248595D01*
X7664886Y-11267643D01*
X7655362Y-11277167D01*
X7636314Y-11286690D01*
X7598219Y-11286690D01*
X7579171Y-11296214D01*
X7569647Y-11305738D01*
X7560124Y-11324786D01*
X7560124Y-11362881D01*
X7569647Y-11381928D01*
X7579171Y-11391452D01*
X7598219Y-11400976D01*
X7636314Y-11400976D01*
X7655362Y-11391452D01*
X7664886Y-11381928D01*
X7674409Y-11362881D01*
X7674409Y-11324786D01*
X7664886Y-11305738D01*
X7655362Y-11296214D01*
X7636314Y-11286690D01*
X7864886Y-11400976D02*
X7750600Y-11400976D01*
X7807743Y-11400976D02*
X7807743Y-11200976D01*
X7788695Y-11229548D01*
X7769647Y-11248595D01*
X7750600Y-11258119D01*
X7941076Y-11200976D02*
X7941076Y-11239071D01*
X8017266Y-11200976D02*
X8017266Y-11239071D01*
X8312505Y-11477167D02*
X8302981Y-11467643D01*
X8283933Y-11439071D01*
X8274409Y-11420024D01*
X8264886Y-11391452D01*
X8255362Y-11343833D01*
X8255362Y-11305738D01*
X8264886Y-11258119D01*
X8274409Y-11229548D01*
X8283933Y-11210500D01*
X8302981Y-11181929D01*
X8312505Y-11172405D01*
X8493457Y-11400976D02*
X8379171Y-11400976D01*
X8436314Y-11400976D02*
X8436314Y-11200976D01*
X8417267Y-11229548D01*
X8398219Y-11248595D01*
X8379171Y-11258119D01*
X8664886Y-11200976D02*
X8626790Y-11200976D01*
X8607743Y-11210500D01*
X8598219Y-11220024D01*
X8579171Y-11248595D01*
X8569648Y-11286690D01*
X8569648Y-11362881D01*
X8579171Y-11381928D01*
X8588695Y-11391452D01*
X8607743Y-11400976D01*
X8645838Y-11400976D01*
X8664886Y-11391452D01*
X8674409Y-11381928D01*
X8683933Y-11362881D01*
X8683933Y-11315262D01*
X8674409Y-11296214D01*
X8664886Y-11286690D01*
X8645838Y-11277167D01*
X8607743Y-11277167D01*
X8588695Y-11286690D01*
X8579171Y-11296214D01*
X8569648Y-11315262D01*
X8922028Y-11400976D02*
X8922028Y-11200976D01*
X9007743Y-11400976D02*
X9007743Y-11296214D01*
X8998219Y-11277167D01*
X8979171Y-11267643D01*
X8950600Y-11267643D01*
X8931552Y-11277167D01*
X8922028Y-11286690D01*
X9131552Y-11400976D02*
X9112505Y-11391452D01*
X9102981Y-11381928D01*
X9093457Y-11362881D01*
X9093457Y-11305738D01*
X9102981Y-11286690D01*
X9112505Y-11277167D01*
X9131552Y-11267643D01*
X9160124Y-11267643D01*
X9179171Y-11277167D01*
X9188695Y-11286690D01*
X9198219Y-11305738D01*
X9198219Y-11362881D01*
X9188695Y-11381928D01*
X9179171Y-11391452D01*
X9160124Y-11400976D01*
X9131552Y-11400976D01*
X9312505Y-11400976D02*
X9293457Y-11391452D01*
X9283933Y-11372405D01*
X9283933Y-11200976D01*
X9464886Y-11391452D02*
X9445838Y-11400976D01*
X9407743Y-11400976D01*
X9388695Y-11391452D01*
X9379171Y-11372405D01*
X9379171Y-11296214D01*
X9388695Y-11277167D01*
X9407743Y-11267643D01*
X9445838Y-11267643D01*
X9464886Y-11277167D01*
X9474409Y-11296214D01*
X9474409Y-11315262D01*
X9379171Y-11334309D01*
X9550600Y-11391452D02*
X9569648Y-11400976D01*
X9607743Y-11400976D01*
X9626790Y-11391452D01*
X9636314Y-11372405D01*
X9636314Y-11362881D01*
X9626790Y-11343833D01*
X9607743Y-11334309D01*
X9579171Y-11334309D01*
X9560124Y-11324786D01*
X9550600Y-11305738D01*
X9550600Y-11296214D01*
X9560124Y-11277167D01*
X9579171Y-11267643D01*
X9607743Y-11267643D01*
X9626790Y-11277167D01*
X9702981Y-11477167D02*
X9712505Y-11467643D01*
X9731552Y-11439071D01*
X9741076Y-11420024D01*
X9750600Y-11391452D01*
X9760124Y-11343833D01*
X9760124Y-11305738D01*
X9750600Y-11258119D01*
X9741076Y-11229548D01*
X9731552Y-11210500D01*
X9712505Y-11181929D01*
X9702981Y-11172405D01*
X10064886Y-11477167D02*
X10055362Y-11467643D01*
X10036314Y-11439071D01*
X10026790Y-11420024D01*
X10017267Y-11391452D01*
X10007743Y-11343833D01*
X10007743Y-11305738D01*
X10017267Y-11258119D01*
X10026790Y-11229548D01*
X10036314Y-11210500D01*
X10055362Y-11181929D01*
X10064886Y-11172405D01*
X10141076Y-11267643D02*
X10141076Y-11400976D01*
X10141076Y-11286690D02*
X10150600Y-11277167D01*
X10169648Y-11267643D01*
X10198219Y-11267643D01*
X10217267Y-11277167D01*
X10226790Y-11296214D01*
X10226790Y-11400976D01*
X10350600Y-11400976D02*
X10331552Y-11391452D01*
X10322028Y-11381928D01*
X10312505Y-11362881D01*
X10312505Y-11305738D01*
X10322028Y-11286690D01*
X10331552Y-11277167D01*
X10350600Y-11267643D01*
X10379171Y-11267643D01*
X10398219Y-11277167D01*
X10407743Y-11286690D01*
X10417267Y-11305738D01*
X10417267Y-11362881D01*
X10407743Y-11381928D01*
X10398219Y-11391452D01*
X10379171Y-11400976D01*
X10350600Y-11400976D01*
X10474409Y-11267643D02*
X10550600Y-11267643D01*
X10502981Y-11200976D02*
X10502981Y-11372405D01*
X10512505Y-11391452D01*
X10531552Y-11400976D01*
X10550600Y-11400976D01*
X10769648Y-11267643D02*
X10769648Y-11467643D01*
X10769648Y-11277167D02*
X10788695Y-11267643D01*
X10826790Y-11267643D01*
X10845838Y-11277167D01*
X10855362Y-11286690D01*
X10864886Y-11305738D01*
X10864886Y-11362881D01*
X10855362Y-11381928D01*
X10845838Y-11391452D01*
X10826790Y-11400976D01*
X10788695Y-11400976D01*
X10769648Y-11391452D01*
X10979171Y-11400976D02*
X10960124Y-11391452D01*
X10950600Y-11372405D01*
X10950600Y-11200976D01*
X11141076Y-11400976D02*
X11141076Y-11296214D01*
X11131552Y-11277167D01*
X11112505Y-11267643D01*
X11074409Y-11267643D01*
X11055362Y-11277167D01*
X11141076Y-11391452D02*
X11122028Y-11400976D01*
X11074409Y-11400976D01*
X11055362Y-11391452D01*
X11045838Y-11372405D01*
X11045838Y-11353357D01*
X11055362Y-11334309D01*
X11074409Y-11324786D01*
X11122028Y-11324786D01*
X11141076Y-11315262D01*
X11207743Y-11267643D02*
X11283933Y-11267643D01*
X11236314Y-11200976D02*
X11236314Y-11372405D01*
X11245838Y-11391452D01*
X11264886Y-11400976D01*
X11283933Y-11400976D01*
X11426790Y-11391452D02*
X11407743Y-11400976D01*
X11369647Y-11400976D01*
X11350600Y-11391452D01*
X11341076Y-11372405D01*
X11341076Y-11296214D01*
X11350600Y-11277167D01*
X11369647Y-11267643D01*
X11407743Y-11267643D01*
X11426790Y-11277167D01*
X11436314Y-11296214D01*
X11436314Y-11315262D01*
X11341076Y-11334309D01*
X11607743Y-11400976D02*
X11607743Y-11200976D01*
X11607743Y-11391452D02*
X11588695Y-11400976D01*
X11550600Y-11400976D01*
X11531552Y-11391452D01*
X11522028Y-11381928D01*
X11512505Y-11362881D01*
X11512505Y-11305738D01*
X11522028Y-11286690D01*
X11531552Y-11277167D01*
X11550600Y-11267643D01*
X11588695Y-11267643D01*
X11607743Y-11277167D01*
X11683933Y-11477167D02*
X11693457Y-11467643D01*
X11712505Y-11439071D01*
X11722028Y-11420024D01*
X11731552Y-11391452D01*
X11741076Y-11343833D01*
X11741076Y-11305738D01*
X11731552Y-11258119D01*
X11722028Y-11229548D01*
X11712505Y-11210500D01*
X11693457Y-11181929D01*
X11683933Y-11172405D01*
M02*
