M48
; DRILL file {KiCad 6.0.10-86aedd382b~118~ubuntu22.04.1} date Fri 27 Jan 2023 10:34:47 AM CST
; FORMAT={-:-/ absolute / metric / decimal}
; #@! TF.CreationDate,2023-01-27T10:34:47-06:00
; #@! TF.GenerationSoftware,Kicad,Pcbnew,6.0.10-86aedd382b~118~ubuntu22.04.1
; #@! TF.FileFunction,NonPlated,1,2,NPTH
FMAT,2
METRIC
; #@! TA.AperFunction,NonPlated,NPTH,ComponentDrill
T1C3.000
%
G90
G05
T1
X53.57Y-95.07
X56.359Y-63.192
X68.58Y-62.23
X115.36Y-103.02
X115.36Y-135.02
X118.323Y-100.735
X121.112Y-68.857
X180.36Y-103.02
X180.36Y-135.02
X228.6Y-62.23
T1
G00X134.62Y-62.0
M15
G01X134.62Y-65.0
M16
G05
G00X134.62Y-84.86
M15
G01X134.62Y-87.86
M16
G05
G00X140.74Y-95.25
M15
G01X143.74Y-95.25
M16
G05
G00X178.84Y-95.25
M15
G01X181.84Y-95.25
M16
G05
G00X187.96Y-62.0
M15
G01X187.96Y-65.0
M16
G05
G00X187.96Y-84.86
M15
G01X187.96Y-87.86
M16
G05
T0
M30
