%TF.GenerationSoftware,KiCad,Pcbnew,6.0.9-8da3e8f707~117~ubuntu22.04.1*%
%TF.CreationDate,2022-12-07T11:08:29-06:00*%
%TF.ProjectId,badge,62616467-652e-46b6-9963-61645f706362,rev?*%
%TF.SameCoordinates,Original*%
%TF.FileFunction,Drillmap*%
%TF.FilePolarity,Positive*%
%FSLAX45Y45*%
G04 Gerber Fmt 4.5, Leading zero omitted, Abs format (unit mm)*
G04 Created by KiCad (PCBNEW 6.0.9-8da3e8f707~117~ubuntu22.04.1) date 2022-12-07 11:08:29*
%MOMM*%
%LPD*%
G01*
G04 APERTURE LIST*
%ADD10C,0.050000*%
%ADD11C,0.200000*%
%ADD12C,0.076200*%
%ADD13C,0.270000*%
G04 APERTURE END LIST*
D10*
X5080000Y-10668000D02*
X18288000Y-10668000D01*
X4778813Y-10179908D02*
G75*
G03*
X5080000Y-10668000I301377J-151002D01*
G01*
X23622000Y-5842000D02*
X6604000Y-5842000D01*
X23622000Y-5842000D02*
X23622000Y-5842000D01*
X18288000Y-10668000D02*
X23784261Y-6316291D01*
X6604000Y-5842000D02*
X4778811Y-10179908D01*
X23784261Y-6316291D02*
G75*
G03*
X23622000Y-5842000I-162081J209451D01*
G01*
D11*
D12*
X4639900Y-6199900D02*
X4716100Y-6276100D01*
X4716100Y-6199900D02*
X4639900Y-6276100D01*
X4639900Y-9399900D02*
X4716100Y-9476100D01*
X4716100Y-9399900D02*
X4639900Y-9476100D01*
X5909900Y-13463900D02*
X5986100Y-13540100D01*
X5986100Y-13463900D02*
X5909900Y-13540100D01*
X11497900Y-13463900D02*
X11574100Y-13540100D01*
X11574100Y-13463900D02*
X11497900Y-13540100D01*
X12409900Y-13463900D02*
X12486100Y-13540100D01*
X12486100Y-13463900D02*
X12409900Y-13540100D01*
X17997900Y-13463900D02*
X18074100Y-13540100D01*
X18074100Y-13463900D02*
X17997900Y-13540100D01*
X25617900Y-6199900D02*
X25694100Y-6276100D01*
X25694100Y-6199900D02*
X25617900Y-6276100D01*
X25617900Y-9399900D02*
X25694100Y-9476100D01*
X25694100Y-9399900D02*
X25617900Y-9476100D01*
D13*
X6083000Y-10302000D02*
G75*
G03*
X6083000Y-10302000I-135000J0D01*
G01*
X11313000Y-6238000D02*
G75*
G03*
X11313000Y-6238000I-135000J0D01*
G01*
X11313000Y-9438000D02*
G75*
G03*
X11313000Y-9438000I-135000J0D01*
G01*
X11671000Y-10302000D02*
G75*
G03*
X11671000Y-10302000I-135000J0D01*
G01*
X12583000Y-10302000D02*
G75*
G03*
X12583000Y-10302000I-135000J0D01*
G01*
X18171000Y-10302000D02*
G75*
G03*
X18171000Y-10302000I-135000J0D01*
G01*
X19291000Y-6238000D02*
G75*
G03*
X19291000Y-6238000I-135000J0D01*
G01*
X19291000Y-9438000D02*
G75*
G03*
X19291000Y-9438000I-135000J0D01*
G01*
D11*
X4998219Y-10980976D02*
X4998219Y-10780976D01*
X5045838Y-10780976D01*
X5074409Y-10790500D01*
X5093457Y-10809548D01*
X5102981Y-10828595D01*
X5112505Y-10866690D01*
X5112505Y-10895262D01*
X5102981Y-10933357D01*
X5093457Y-10952405D01*
X5074409Y-10971452D01*
X5045838Y-10980976D01*
X4998219Y-10980976D01*
X5198219Y-10980976D02*
X5198219Y-10847643D01*
X5198219Y-10885738D02*
X5207743Y-10866690D01*
X5217267Y-10857167D01*
X5236314Y-10847643D01*
X5255362Y-10847643D01*
X5322028Y-10980976D02*
X5322028Y-10847643D01*
X5322028Y-10780976D02*
X5312505Y-10790500D01*
X5322028Y-10800024D01*
X5331552Y-10790500D01*
X5322028Y-10780976D01*
X5322028Y-10800024D01*
X5445838Y-10980976D02*
X5426790Y-10971452D01*
X5417267Y-10952405D01*
X5417267Y-10780976D01*
X5550600Y-10980976D02*
X5531552Y-10971452D01*
X5522028Y-10952405D01*
X5522028Y-10780976D01*
X5779171Y-10980976D02*
X5779171Y-10780976D01*
X5845838Y-10923833D01*
X5912505Y-10780976D01*
X5912505Y-10980976D01*
X6093457Y-10980976D02*
X6093457Y-10876214D01*
X6083933Y-10857167D01*
X6064886Y-10847643D01*
X6026790Y-10847643D01*
X6007743Y-10857167D01*
X6093457Y-10971452D02*
X6074409Y-10980976D01*
X6026790Y-10980976D01*
X6007743Y-10971452D01*
X5998219Y-10952405D01*
X5998219Y-10933357D01*
X6007743Y-10914310D01*
X6026790Y-10904786D01*
X6074409Y-10904786D01*
X6093457Y-10895262D01*
X6188695Y-10847643D02*
X6188695Y-11047643D01*
X6188695Y-10857167D02*
X6207743Y-10847643D01*
X6245838Y-10847643D01*
X6264886Y-10857167D01*
X6274409Y-10866690D01*
X6283933Y-10885738D01*
X6283933Y-10942881D01*
X6274409Y-10961929D01*
X6264886Y-10971452D01*
X6245838Y-10980976D01*
X6207743Y-10980976D01*
X6188695Y-10971452D01*
X6369647Y-10961929D02*
X6379171Y-10971452D01*
X6369647Y-10980976D01*
X6360124Y-10971452D01*
X6369647Y-10961929D01*
X6369647Y-10980976D01*
X6369647Y-10857167D02*
X6379171Y-10866690D01*
X6369647Y-10876214D01*
X6360124Y-10866690D01*
X6369647Y-10857167D01*
X6369647Y-10876214D01*
D12*
X4664400Y-11272400D02*
X4740600Y-11348600D01*
X4740600Y-11272400D02*
X4664400Y-11348600D01*
D11*
X5036314Y-11200976D02*
X5055362Y-11200976D01*
X5074409Y-11210500D01*
X5083933Y-11220024D01*
X5093457Y-11239071D01*
X5102981Y-11277167D01*
X5102981Y-11324786D01*
X5093457Y-11362881D01*
X5083933Y-11381928D01*
X5074409Y-11391452D01*
X5055362Y-11400976D01*
X5036314Y-11400976D01*
X5017267Y-11391452D01*
X5007743Y-11381928D01*
X4998219Y-11362881D01*
X4988695Y-11324786D01*
X4988695Y-11277167D01*
X4998219Y-11239071D01*
X5007743Y-11220024D01*
X5017267Y-11210500D01*
X5036314Y-11200976D01*
X5188695Y-11381928D02*
X5198219Y-11391452D01*
X5188695Y-11400976D01*
X5179171Y-11391452D01*
X5188695Y-11381928D01*
X5188695Y-11400976D01*
X5264886Y-11200976D02*
X5398219Y-11200976D01*
X5312505Y-11400976D01*
X5560124Y-11200976D02*
X5522028Y-11200976D01*
X5502981Y-11210500D01*
X5493457Y-11220024D01*
X5474409Y-11248595D01*
X5464886Y-11286690D01*
X5464886Y-11362881D01*
X5474409Y-11381928D01*
X5483933Y-11391452D01*
X5502981Y-11400976D01*
X5541076Y-11400976D01*
X5560124Y-11391452D01*
X5569648Y-11381928D01*
X5579171Y-11362881D01*
X5579171Y-11315262D01*
X5569648Y-11296214D01*
X5560124Y-11286690D01*
X5541076Y-11277167D01*
X5502981Y-11277167D01*
X5483933Y-11286690D01*
X5474409Y-11296214D01*
X5464886Y-11315262D01*
X5655362Y-11220024D02*
X5664886Y-11210500D01*
X5683933Y-11200976D01*
X5731552Y-11200976D01*
X5750600Y-11210500D01*
X5760124Y-11220024D01*
X5769647Y-11239071D01*
X5769647Y-11258119D01*
X5760124Y-11286690D01*
X5645838Y-11400976D01*
X5769647Y-11400976D01*
X5855362Y-11400976D02*
X5855362Y-11267643D01*
X5855362Y-11286690D02*
X5864886Y-11277167D01*
X5883933Y-11267643D01*
X5912505Y-11267643D01*
X5931552Y-11277167D01*
X5941076Y-11296214D01*
X5941076Y-11400976D01*
X5941076Y-11296214D02*
X5950600Y-11277167D01*
X5969647Y-11267643D01*
X5998219Y-11267643D01*
X6017266Y-11277167D01*
X6026790Y-11296214D01*
X6026790Y-11400976D01*
X6122028Y-11400976D02*
X6122028Y-11267643D01*
X6122028Y-11286690D02*
X6131552Y-11277167D01*
X6150600Y-11267643D01*
X6179171Y-11267643D01*
X6198219Y-11277167D01*
X6207743Y-11296214D01*
X6207743Y-11400976D01*
X6207743Y-11296214D02*
X6217266Y-11277167D01*
X6236314Y-11267643D01*
X6264886Y-11267643D01*
X6283933Y-11277167D01*
X6293457Y-11296214D01*
X6293457Y-11400976D01*
X6683933Y-11191452D02*
X6512505Y-11448595D01*
X6941076Y-11200976D02*
X6960124Y-11200976D01*
X6979171Y-11210500D01*
X6988695Y-11220024D01*
X6998219Y-11239071D01*
X7007743Y-11277167D01*
X7007743Y-11324786D01*
X6998219Y-11362881D01*
X6988695Y-11381928D01*
X6979171Y-11391452D01*
X6960124Y-11400976D01*
X6941076Y-11400976D01*
X6922028Y-11391452D01*
X6912505Y-11381928D01*
X6902981Y-11362881D01*
X6893457Y-11324786D01*
X6893457Y-11277167D01*
X6902981Y-11239071D01*
X6912505Y-11220024D01*
X6922028Y-11210500D01*
X6941076Y-11200976D01*
X7093457Y-11381928D02*
X7102981Y-11391452D01*
X7093457Y-11400976D01*
X7083933Y-11391452D01*
X7093457Y-11381928D01*
X7093457Y-11400976D01*
X7226790Y-11200976D02*
X7245838Y-11200976D01*
X7264886Y-11210500D01*
X7274409Y-11220024D01*
X7283933Y-11239071D01*
X7293457Y-11277167D01*
X7293457Y-11324786D01*
X7283933Y-11362881D01*
X7274409Y-11381928D01*
X7264886Y-11391452D01*
X7245838Y-11400976D01*
X7226790Y-11400976D01*
X7207743Y-11391452D01*
X7198219Y-11381928D01*
X7188695Y-11362881D01*
X7179171Y-11324786D01*
X7179171Y-11277167D01*
X7188695Y-11239071D01*
X7198219Y-11220024D01*
X7207743Y-11210500D01*
X7226790Y-11200976D01*
X7360124Y-11200976D02*
X7483933Y-11200976D01*
X7417266Y-11277167D01*
X7445838Y-11277167D01*
X7464886Y-11286690D01*
X7474409Y-11296214D01*
X7483933Y-11315262D01*
X7483933Y-11362881D01*
X7474409Y-11381928D01*
X7464886Y-11391452D01*
X7445838Y-11400976D01*
X7388695Y-11400976D01*
X7369647Y-11391452D01*
X7360124Y-11381928D01*
X7607743Y-11200976D02*
X7626790Y-11200976D01*
X7645838Y-11210500D01*
X7655362Y-11220024D01*
X7664886Y-11239071D01*
X7674409Y-11277167D01*
X7674409Y-11324786D01*
X7664886Y-11362881D01*
X7655362Y-11381928D01*
X7645838Y-11391452D01*
X7626790Y-11400976D01*
X7607743Y-11400976D01*
X7588695Y-11391452D01*
X7579171Y-11381928D01*
X7569647Y-11362881D01*
X7560124Y-11324786D01*
X7560124Y-11277167D01*
X7569647Y-11239071D01*
X7579171Y-11220024D01*
X7588695Y-11210500D01*
X7607743Y-11200976D01*
X7798219Y-11200976D02*
X7817266Y-11200976D01*
X7836314Y-11210500D01*
X7845838Y-11220024D01*
X7855362Y-11239071D01*
X7864886Y-11277167D01*
X7864886Y-11324786D01*
X7855362Y-11362881D01*
X7845838Y-11381928D01*
X7836314Y-11391452D01*
X7817266Y-11400976D01*
X7798219Y-11400976D01*
X7779171Y-11391452D01*
X7769647Y-11381928D01*
X7760124Y-11362881D01*
X7750600Y-11324786D01*
X7750600Y-11277167D01*
X7760124Y-11239071D01*
X7769647Y-11220024D01*
X7779171Y-11210500D01*
X7798219Y-11200976D01*
X7941076Y-11200976D02*
X7941076Y-11239071D01*
X8017266Y-11200976D02*
X8017266Y-11239071D01*
X8312505Y-11477167D02*
X8302981Y-11467643D01*
X8283933Y-11439071D01*
X8274409Y-11420024D01*
X8264886Y-11391452D01*
X8255362Y-11343833D01*
X8255362Y-11305738D01*
X8264886Y-11258119D01*
X8274409Y-11229548D01*
X8283933Y-11210500D01*
X8302981Y-11181929D01*
X8312505Y-11172405D01*
X8417267Y-11286690D02*
X8398219Y-11277167D01*
X8388695Y-11267643D01*
X8379171Y-11248595D01*
X8379171Y-11239071D01*
X8388695Y-11220024D01*
X8398219Y-11210500D01*
X8417267Y-11200976D01*
X8455362Y-11200976D01*
X8474409Y-11210500D01*
X8483933Y-11220024D01*
X8493457Y-11239071D01*
X8493457Y-11248595D01*
X8483933Y-11267643D01*
X8474409Y-11277167D01*
X8455362Y-11286690D01*
X8417267Y-11286690D01*
X8398219Y-11296214D01*
X8388695Y-11305738D01*
X8379171Y-11324786D01*
X8379171Y-11362881D01*
X8388695Y-11381928D01*
X8398219Y-11391452D01*
X8417267Y-11400976D01*
X8455362Y-11400976D01*
X8474409Y-11391452D01*
X8483933Y-11381928D01*
X8493457Y-11362881D01*
X8493457Y-11324786D01*
X8483933Y-11305738D01*
X8474409Y-11296214D01*
X8455362Y-11286690D01*
X8731552Y-11400976D02*
X8731552Y-11200976D01*
X8817267Y-11400976D02*
X8817267Y-11296214D01*
X8807743Y-11277167D01*
X8788695Y-11267643D01*
X8760124Y-11267643D01*
X8741076Y-11277167D01*
X8731552Y-11286690D01*
X8941076Y-11400976D02*
X8922028Y-11391452D01*
X8912505Y-11381928D01*
X8902981Y-11362881D01*
X8902981Y-11305738D01*
X8912505Y-11286690D01*
X8922028Y-11277167D01*
X8941076Y-11267643D01*
X8969648Y-11267643D01*
X8988695Y-11277167D01*
X8998219Y-11286690D01*
X9007743Y-11305738D01*
X9007743Y-11362881D01*
X8998219Y-11381928D01*
X8988695Y-11391452D01*
X8969648Y-11400976D01*
X8941076Y-11400976D01*
X9122028Y-11400976D02*
X9102981Y-11391452D01*
X9093457Y-11372405D01*
X9093457Y-11200976D01*
X9274409Y-11391452D02*
X9255362Y-11400976D01*
X9217267Y-11400976D01*
X9198219Y-11391452D01*
X9188695Y-11372405D01*
X9188695Y-11296214D01*
X9198219Y-11277167D01*
X9217267Y-11267643D01*
X9255362Y-11267643D01*
X9274409Y-11277167D01*
X9283933Y-11296214D01*
X9283933Y-11315262D01*
X9188695Y-11334309D01*
X9360124Y-11391452D02*
X9379171Y-11400976D01*
X9417267Y-11400976D01*
X9436314Y-11391452D01*
X9445838Y-11372405D01*
X9445838Y-11362881D01*
X9436314Y-11343833D01*
X9417267Y-11334309D01*
X9388695Y-11334309D01*
X9369648Y-11324786D01*
X9360124Y-11305738D01*
X9360124Y-11296214D01*
X9369648Y-11277167D01*
X9388695Y-11267643D01*
X9417267Y-11267643D01*
X9436314Y-11277167D01*
X9512505Y-11477167D02*
X9522028Y-11467643D01*
X9541076Y-11439071D01*
X9550600Y-11420024D01*
X9560124Y-11391452D01*
X9569648Y-11343833D01*
X9569648Y-11305738D01*
X9560124Y-11258119D01*
X9550600Y-11229548D01*
X9541076Y-11210500D01*
X9522028Y-11181929D01*
X9512505Y-11172405D01*
X9874409Y-11477167D02*
X9864886Y-11467643D01*
X9845838Y-11439071D01*
X9836314Y-11420024D01*
X9826790Y-11391452D01*
X9817267Y-11343833D01*
X9817267Y-11305738D01*
X9826790Y-11258119D01*
X9836314Y-11229548D01*
X9845838Y-11210500D01*
X9864886Y-11181929D01*
X9874409Y-11172405D01*
X9950600Y-11267643D02*
X9950600Y-11400976D01*
X9950600Y-11286690D02*
X9960124Y-11277167D01*
X9979171Y-11267643D01*
X10007743Y-11267643D01*
X10026790Y-11277167D01*
X10036314Y-11296214D01*
X10036314Y-11400976D01*
X10160124Y-11400976D02*
X10141076Y-11391452D01*
X10131552Y-11381928D01*
X10122028Y-11362881D01*
X10122028Y-11305738D01*
X10131552Y-11286690D01*
X10141076Y-11277167D01*
X10160124Y-11267643D01*
X10188695Y-11267643D01*
X10207743Y-11277167D01*
X10217267Y-11286690D01*
X10226790Y-11305738D01*
X10226790Y-11362881D01*
X10217267Y-11381928D01*
X10207743Y-11391452D01*
X10188695Y-11400976D01*
X10160124Y-11400976D01*
X10283933Y-11267643D02*
X10360124Y-11267643D01*
X10312505Y-11200976D02*
X10312505Y-11372405D01*
X10322028Y-11391452D01*
X10341076Y-11400976D01*
X10360124Y-11400976D01*
X10579171Y-11267643D02*
X10579171Y-11467643D01*
X10579171Y-11277167D02*
X10598219Y-11267643D01*
X10636314Y-11267643D01*
X10655362Y-11277167D01*
X10664886Y-11286690D01*
X10674409Y-11305738D01*
X10674409Y-11362881D01*
X10664886Y-11381928D01*
X10655362Y-11391452D01*
X10636314Y-11400976D01*
X10598219Y-11400976D01*
X10579171Y-11391452D01*
X10788695Y-11400976D02*
X10769648Y-11391452D01*
X10760124Y-11372405D01*
X10760124Y-11200976D01*
X10950600Y-11400976D02*
X10950600Y-11296214D01*
X10941076Y-11277167D01*
X10922028Y-11267643D01*
X10883933Y-11267643D01*
X10864886Y-11277167D01*
X10950600Y-11391452D02*
X10931552Y-11400976D01*
X10883933Y-11400976D01*
X10864886Y-11391452D01*
X10855362Y-11372405D01*
X10855362Y-11353357D01*
X10864886Y-11334309D01*
X10883933Y-11324786D01*
X10931552Y-11324786D01*
X10950600Y-11315262D01*
X11017267Y-11267643D02*
X11093457Y-11267643D01*
X11045838Y-11200976D02*
X11045838Y-11372405D01*
X11055362Y-11391452D01*
X11074409Y-11400976D01*
X11093457Y-11400976D01*
X11236314Y-11391452D02*
X11217266Y-11400976D01*
X11179171Y-11400976D01*
X11160124Y-11391452D01*
X11150600Y-11372405D01*
X11150600Y-11296214D01*
X11160124Y-11277167D01*
X11179171Y-11267643D01*
X11217266Y-11267643D01*
X11236314Y-11277167D01*
X11245838Y-11296214D01*
X11245838Y-11315262D01*
X11150600Y-11334309D01*
X11417266Y-11400976D02*
X11417266Y-11200976D01*
X11417266Y-11391452D02*
X11398219Y-11400976D01*
X11360124Y-11400976D01*
X11341076Y-11391452D01*
X11331552Y-11381928D01*
X11322028Y-11362881D01*
X11322028Y-11305738D01*
X11331552Y-11286690D01*
X11341076Y-11277167D01*
X11360124Y-11267643D01*
X11398219Y-11267643D01*
X11417266Y-11277167D01*
X11493457Y-11477167D02*
X11502981Y-11467643D01*
X11522028Y-11439071D01*
X11531552Y-11420024D01*
X11541076Y-11391452D01*
X11550600Y-11343833D01*
X11550600Y-11305738D01*
X11541076Y-11258119D01*
X11531552Y-11229548D01*
X11522028Y-11210500D01*
X11502981Y-11181929D01*
X11493457Y-11172405D01*
X4740600Y-11574500D02*
G75*
G03*
X4740600Y-11574500I-100000J0D01*
G01*
X4988695Y-11484024D02*
X4998219Y-11474500D01*
X5017267Y-11464976D01*
X5064886Y-11464976D01*
X5083933Y-11474500D01*
X5093457Y-11484024D01*
X5102981Y-11503071D01*
X5102981Y-11522119D01*
X5093457Y-11550690D01*
X4979171Y-11664976D01*
X5102981Y-11664976D01*
X5188695Y-11645928D02*
X5198219Y-11655452D01*
X5188695Y-11664976D01*
X5179171Y-11655452D01*
X5188695Y-11645928D01*
X5188695Y-11664976D01*
X5264886Y-11464976D02*
X5398219Y-11464976D01*
X5312505Y-11664976D01*
X5512505Y-11464976D02*
X5531552Y-11464976D01*
X5550600Y-11474500D01*
X5560124Y-11484024D01*
X5569648Y-11503071D01*
X5579171Y-11541167D01*
X5579171Y-11588786D01*
X5569648Y-11626881D01*
X5560124Y-11645928D01*
X5550600Y-11655452D01*
X5531552Y-11664976D01*
X5512505Y-11664976D01*
X5493457Y-11655452D01*
X5483933Y-11645928D01*
X5474409Y-11626881D01*
X5464886Y-11588786D01*
X5464886Y-11541167D01*
X5474409Y-11503071D01*
X5483933Y-11484024D01*
X5493457Y-11474500D01*
X5512505Y-11464976D01*
X5702981Y-11464976D02*
X5722028Y-11464976D01*
X5741076Y-11474500D01*
X5750600Y-11484024D01*
X5760124Y-11503071D01*
X5769647Y-11541167D01*
X5769647Y-11588786D01*
X5760124Y-11626881D01*
X5750600Y-11645928D01*
X5741076Y-11655452D01*
X5722028Y-11664976D01*
X5702981Y-11664976D01*
X5683933Y-11655452D01*
X5674409Y-11645928D01*
X5664886Y-11626881D01*
X5655362Y-11588786D01*
X5655362Y-11541167D01*
X5664886Y-11503071D01*
X5674409Y-11484024D01*
X5683933Y-11474500D01*
X5702981Y-11464976D01*
X5855362Y-11664976D02*
X5855362Y-11531643D01*
X5855362Y-11550690D02*
X5864886Y-11541167D01*
X5883933Y-11531643D01*
X5912505Y-11531643D01*
X5931552Y-11541167D01*
X5941076Y-11560214D01*
X5941076Y-11664976D01*
X5941076Y-11560214D02*
X5950600Y-11541167D01*
X5969647Y-11531643D01*
X5998219Y-11531643D01*
X6017266Y-11541167D01*
X6026790Y-11560214D01*
X6026790Y-11664976D01*
X6122028Y-11664976D02*
X6122028Y-11531643D01*
X6122028Y-11550690D02*
X6131552Y-11541167D01*
X6150600Y-11531643D01*
X6179171Y-11531643D01*
X6198219Y-11541167D01*
X6207743Y-11560214D01*
X6207743Y-11664976D01*
X6207743Y-11560214D02*
X6217266Y-11541167D01*
X6236314Y-11531643D01*
X6264886Y-11531643D01*
X6283933Y-11541167D01*
X6293457Y-11560214D01*
X6293457Y-11664976D01*
X6683933Y-11455452D02*
X6512505Y-11712595D01*
X6941076Y-11464976D02*
X6960124Y-11464976D01*
X6979171Y-11474500D01*
X6988695Y-11484024D01*
X6998219Y-11503071D01*
X7007743Y-11541167D01*
X7007743Y-11588786D01*
X6998219Y-11626881D01*
X6988695Y-11645928D01*
X6979171Y-11655452D01*
X6960124Y-11664976D01*
X6941076Y-11664976D01*
X6922028Y-11655452D01*
X6912505Y-11645928D01*
X6902981Y-11626881D01*
X6893457Y-11588786D01*
X6893457Y-11541167D01*
X6902981Y-11503071D01*
X6912505Y-11484024D01*
X6922028Y-11474500D01*
X6941076Y-11464976D01*
X7093457Y-11645928D02*
X7102981Y-11655452D01*
X7093457Y-11664976D01*
X7083933Y-11655452D01*
X7093457Y-11645928D01*
X7093457Y-11664976D01*
X7293457Y-11664976D02*
X7179171Y-11664976D01*
X7236314Y-11664976D02*
X7236314Y-11464976D01*
X7217266Y-11493548D01*
X7198219Y-11512595D01*
X7179171Y-11522119D01*
X7417266Y-11464976D02*
X7436314Y-11464976D01*
X7455362Y-11474500D01*
X7464886Y-11484024D01*
X7474409Y-11503071D01*
X7483933Y-11541167D01*
X7483933Y-11588786D01*
X7474409Y-11626881D01*
X7464886Y-11645928D01*
X7455362Y-11655452D01*
X7436314Y-11664976D01*
X7417266Y-11664976D01*
X7398219Y-11655452D01*
X7388695Y-11645928D01*
X7379171Y-11626881D01*
X7369647Y-11588786D01*
X7369647Y-11541167D01*
X7379171Y-11503071D01*
X7388695Y-11484024D01*
X7398219Y-11474500D01*
X7417266Y-11464976D01*
X7655362Y-11464976D02*
X7617266Y-11464976D01*
X7598219Y-11474500D01*
X7588695Y-11484024D01*
X7569647Y-11512595D01*
X7560124Y-11550690D01*
X7560124Y-11626881D01*
X7569647Y-11645928D01*
X7579171Y-11655452D01*
X7598219Y-11664976D01*
X7636314Y-11664976D01*
X7655362Y-11655452D01*
X7664886Y-11645928D01*
X7674409Y-11626881D01*
X7674409Y-11579262D01*
X7664886Y-11560214D01*
X7655362Y-11550690D01*
X7636314Y-11541167D01*
X7598219Y-11541167D01*
X7579171Y-11550690D01*
X7569647Y-11560214D01*
X7560124Y-11579262D01*
X7741076Y-11464976D02*
X7864886Y-11464976D01*
X7798219Y-11541167D01*
X7826790Y-11541167D01*
X7845838Y-11550690D01*
X7855362Y-11560214D01*
X7864886Y-11579262D01*
X7864886Y-11626881D01*
X7855362Y-11645928D01*
X7845838Y-11655452D01*
X7826790Y-11664976D01*
X7769647Y-11664976D01*
X7750600Y-11655452D01*
X7741076Y-11645928D01*
X7941076Y-11464976D02*
X7941076Y-11503071D01*
X8017266Y-11464976D02*
X8017266Y-11503071D01*
X8312505Y-11741167D02*
X8302981Y-11731643D01*
X8283933Y-11703071D01*
X8274409Y-11684024D01*
X8264886Y-11655452D01*
X8255362Y-11607833D01*
X8255362Y-11569738D01*
X8264886Y-11522119D01*
X8274409Y-11493548D01*
X8283933Y-11474500D01*
X8302981Y-11445928D01*
X8312505Y-11436405D01*
X8417267Y-11550690D02*
X8398219Y-11541167D01*
X8388695Y-11531643D01*
X8379171Y-11512595D01*
X8379171Y-11503071D01*
X8388695Y-11484024D01*
X8398219Y-11474500D01*
X8417267Y-11464976D01*
X8455362Y-11464976D01*
X8474409Y-11474500D01*
X8483933Y-11484024D01*
X8493457Y-11503071D01*
X8493457Y-11512595D01*
X8483933Y-11531643D01*
X8474409Y-11541167D01*
X8455362Y-11550690D01*
X8417267Y-11550690D01*
X8398219Y-11560214D01*
X8388695Y-11569738D01*
X8379171Y-11588786D01*
X8379171Y-11626881D01*
X8388695Y-11645928D01*
X8398219Y-11655452D01*
X8417267Y-11664976D01*
X8455362Y-11664976D01*
X8474409Y-11655452D01*
X8483933Y-11645928D01*
X8493457Y-11626881D01*
X8493457Y-11588786D01*
X8483933Y-11569738D01*
X8474409Y-11560214D01*
X8455362Y-11550690D01*
X8731552Y-11664976D02*
X8731552Y-11464976D01*
X8817267Y-11664976D02*
X8817267Y-11560214D01*
X8807743Y-11541167D01*
X8788695Y-11531643D01*
X8760124Y-11531643D01*
X8741076Y-11541167D01*
X8731552Y-11550690D01*
X8941076Y-11664976D02*
X8922028Y-11655452D01*
X8912505Y-11645928D01*
X8902981Y-11626881D01*
X8902981Y-11569738D01*
X8912505Y-11550690D01*
X8922028Y-11541167D01*
X8941076Y-11531643D01*
X8969648Y-11531643D01*
X8988695Y-11541167D01*
X8998219Y-11550690D01*
X9007743Y-11569738D01*
X9007743Y-11626881D01*
X8998219Y-11645928D01*
X8988695Y-11655452D01*
X8969648Y-11664976D01*
X8941076Y-11664976D01*
X9122028Y-11664976D02*
X9102981Y-11655452D01*
X9093457Y-11636405D01*
X9093457Y-11464976D01*
X9274409Y-11655452D02*
X9255362Y-11664976D01*
X9217267Y-11664976D01*
X9198219Y-11655452D01*
X9188695Y-11636405D01*
X9188695Y-11560214D01*
X9198219Y-11541167D01*
X9217267Y-11531643D01*
X9255362Y-11531643D01*
X9274409Y-11541167D01*
X9283933Y-11560214D01*
X9283933Y-11579262D01*
X9188695Y-11598309D01*
X9360124Y-11655452D02*
X9379171Y-11664976D01*
X9417267Y-11664976D01*
X9436314Y-11655452D01*
X9445838Y-11636405D01*
X9445838Y-11626881D01*
X9436314Y-11607833D01*
X9417267Y-11598309D01*
X9388695Y-11598309D01*
X9369648Y-11588786D01*
X9360124Y-11569738D01*
X9360124Y-11560214D01*
X9369648Y-11541167D01*
X9388695Y-11531643D01*
X9417267Y-11531643D01*
X9436314Y-11541167D01*
X9512505Y-11741167D02*
X9522028Y-11731643D01*
X9541076Y-11703071D01*
X9550600Y-11684024D01*
X9560124Y-11655452D01*
X9569648Y-11607833D01*
X9569648Y-11569738D01*
X9560124Y-11522119D01*
X9550600Y-11493548D01*
X9541076Y-11474500D01*
X9522028Y-11445928D01*
X9512505Y-11436405D01*
X9874409Y-11741167D02*
X9864886Y-11731643D01*
X9845838Y-11703071D01*
X9836314Y-11684024D01*
X9826790Y-11655452D01*
X9817267Y-11607833D01*
X9817267Y-11569738D01*
X9826790Y-11522119D01*
X9836314Y-11493548D01*
X9845838Y-11474500D01*
X9864886Y-11445928D01*
X9874409Y-11436405D01*
X9950600Y-11531643D02*
X9950600Y-11664976D01*
X9950600Y-11550690D02*
X9960124Y-11541167D01*
X9979171Y-11531643D01*
X10007743Y-11531643D01*
X10026790Y-11541167D01*
X10036314Y-11560214D01*
X10036314Y-11664976D01*
X10160124Y-11664976D02*
X10141076Y-11655452D01*
X10131552Y-11645928D01*
X10122028Y-11626881D01*
X10122028Y-11569738D01*
X10131552Y-11550690D01*
X10141076Y-11541167D01*
X10160124Y-11531643D01*
X10188695Y-11531643D01*
X10207743Y-11541167D01*
X10217267Y-11550690D01*
X10226790Y-11569738D01*
X10226790Y-11626881D01*
X10217267Y-11645928D01*
X10207743Y-11655452D01*
X10188695Y-11664976D01*
X10160124Y-11664976D01*
X10283933Y-11531643D02*
X10360124Y-11531643D01*
X10312505Y-11464976D02*
X10312505Y-11636405D01*
X10322028Y-11655452D01*
X10341076Y-11664976D01*
X10360124Y-11664976D01*
X10579171Y-11531643D02*
X10579171Y-11731643D01*
X10579171Y-11541167D02*
X10598219Y-11531643D01*
X10636314Y-11531643D01*
X10655362Y-11541167D01*
X10664886Y-11550690D01*
X10674409Y-11569738D01*
X10674409Y-11626881D01*
X10664886Y-11645928D01*
X10655362Y-11655452D01*
X10636314Y-11664976D01*
X10598219Y-11664976D01*
X10579171Y-11655452D01*
X10788695Y-11664976D02*
X10769648Y-11655452D01*
X10760124Y-11636405D01*
X10760124Y-11464976D01*
X10950600Y-11664976D02*
X10950600Y-11560214D01*
X10941076Y-11541167D01*
X10922028Y-11531643D01*
X10883933Y-11531643D01*
X10864886Y-11541167D01*
X10950600Y-11655452D02*
X10931552Y-11664976D01*
X10883933Y-11664976D01*
X10864886Y-11655452D01*
X10855362Y-11636405D01*
X10855362Y-11617357D01*
X10864886Y-11598309D01*
X10883933Y-11588786D01*
X10931552Y-11588786D01*
X10950600Y-11579262D01*
X11017267Y-11531643D02*
X11093457Y-11531643D01*
X11045838Y-11464976D02*
X11045838Y-11636405D01*
X11055362Y-11655452D01*
X11074409Y-11664976D01*
X11093457Y-11664976D01*
X11236314Y-11655452D02*
X11217266Y-11664976D01*
X11179171Y-11664976D01*
X11160124Y-11655452D01*
X11150600Y-11636405D01*
X11150600Y-11560214D01*
X11160124Y-11541167D01*
X11179171Y-11531643D01*
X11217266Y-11531643D01*
X11236314Y-11541167D01*
X11245838Y-11560214D01*
X11245838Y-11579262D01*
X11150600Y-11598309D01*
X11417266Y-11664976D02*
X11417266Y-11464976D01*
X11417266Y-11655452D02*
X11398219Y-11664976D01*
X11360124Y-11664976D01*
X11341076Y-11655452D01*
X11331552Y-11645928D01*
X11322028Y-11626881D01*
X11322028Y-11569738D01*
X11331552Y-11550690D01*
X11341076Y-11541167D01*
X11360124Y-11531643D01*
X11398219Y-11531643D01*
X11417266Y-11541167D01*
X11493457Y-11741167D02*
X11502981Y-11731643D01*
X11522028Y-11703071D01*
X11531552Y-11684024D01*
X11541076Y-11655452D01*
X11550600Y-11607833D01*
X11550600Y-11569738D01*
X11541076Y-11522119D01*
X11531552Y-11493548D01*
X11522028Y-11474500D01*
X11502981Y-11445928D01*
X11493457Y-11436405D01*
M02*
