%TF.GenerationSoftware,KiCad,Pcbnew,7.0.5-7.0.5~ubuntu22.04.1*%
%TF.CreationDate,2023-06-25T16:10:42-05:00*%
%TF.ProjectId,badge,62616467-652e-46b6-9963-61645f706362,rev?*%
%TF.SameCoordinates,Original*%
%TF.FileFunction,Legend,Top*%
%TF.FilePolarity,Positive*%
%FSLAX46Y46*%
G04 Gerber Fmt 4.6, Leading zero omitted, Abs format (unit mm)*
G04 Created by KiCad (PCBNEW 7.0.5-7.0.5~ubuntu22.04.1) date 2023-06-25 16:10:42*
%MOMM*%
%LPD*%
G01*
G04 APERTURE LIST*
G04 Aperture macros list*
%AMRoundRect*
0 Rectangle with rounded corners*
0 $1 Rounding radius*
0 $2 $3 $4 $5 $6 $7 $8 $9 X,Y pos of 4 corners*
0 Add a 4 corners polygon primitive as box body*
4,1,4,$2,$3,$4,$5,$6,$7,$8,$9,$2,$3,0*
0 Add four circle primitives for the rounded corners*
1,1,$1+$1,$2,$3*
1,1,$1+$1,$4,$5*
1,1,$1+$1,$6,$7*
1,1,$1+$1,$8,$9*
0 Add four rect primitives between the rounded corners*
20,1,$1+$1,$2,$3,$4,$5,0*
20,1,$1+$1,$4,$5,$6,$7,0*
20,1,$1+$1,$6,$7,$8,$9,0*
20,1,$1+$1,$8,$9,$2,$3,0*%
%AMRotRect*
0 Rectangle, with rotation*
0 The origin of the aperture is its center*
0 $1 length*
0 $2 width*
0 $3 Rotation angle, in degrees counterclockwise*
0 Add horizontal line*
21,1,$1,$2,0,0,$3*%
G04 Aperture macros list end*
%ADD10C,1.000000*%
%ADD11C,0.150000*%
%ADD12C,0.100000*%
%ADD13C,0.120000*%
%ADD14RoundRect,0.357142X1.142858X-0.642858X1.142858X0.642858X-1.142858X0.642858X-1.142858X-0.642858X0*%
%ADD15R,1.000000X0.700000*%
%ADD16R,1.000000X0.500000*%
%ADD17R,1.800000X1.800000*%
%ADD18C,1.800000*%
%ADD19C,3.000000*%
%ADD20RoundRect,0.250000X-0.600000X0.600000X-0.600000X-0.600000X0.600000X-0.600000X0.600000X0.600000X0*%
%ADD21C,1.700000*%
%ADD22O,3.000000X6.000000*%
%ADD23R,1.700000X1.700000*%
%ADD24O,6.000000X3.000000*%
%ADD25RoundRect,0.357142X-1.142858X0.642858X-1.142858X-0.642858X1.142858X-0.642858X1.142858X0.642858X0*%
%ADD26RotRect,1.700000X1.700000X355.000000*%
%ADD27C,1.500000*%
%ADD28R,2.000000X1.905000*%
%ADD29O,2.000000X1.905000*%
%ADD30RoundRect,1.250000X1.250000X1.250000X-1.250000X1.250000X-1.250000X-1.250000X1.250000X-1.250000X0*%
%ADD31RoundRect,0.750000X0.750000X-0.750000X0.750000X0.750000X-0.750000X0.750000X-0.750000X-0.750000X0*%
G04 APERTURE END LIST*
D10*
G36*
X137156785Y-72474494D02*
G01*
X137268670Y-72432477D01*
X137376161Y-72389464D01*
X137479258Y-72345440D01*
X137577962Y-72300392D01*
X137762195Y-72207170D01*
X137928866Y-72109688D01*
X138077982Y-72007838D01*
X138209550Y-71901510D01*
X138323575Y-71790595D01*
X138420064Y-71674985D01*
X138499024Y-71554571D01*
X138560460Y-71429243D01*
X138604380Y-71298894D01*
X138630790Y-71163412D01*
X138639695Y-71022691D01*
X138631104Y-70876621D01*
X138605021Y-70725093D01*
X138585422Y-70647248D01*
X138561454Y-70567997D01*
X138458151Y-70642023D01*
X138344467Y-70718646D01*
X138220083Y-70797456D01*
X138084681Y-70878046D01*
X137988134Y-70932560D01*
X137886454Y-70987562D01*
X137779548Y-71042931D01*
X137667320Y-71098547D01*
X137549676Y-71154288D01*
X137426522Y-71210034D01*
X137297764Y-71265662D01*
X137163308Y-71321053D01*
X137023058Y-71376086D01*
X136876921Y-71430638D01*
X136765404Y-71471195D01*
X136655556Y-71509590D01*
X136547198Y-71545990D01*
X136440149Y-71580562D01*
X136334230Y-71613474D01*
X136229260Y-71644894D01*
X136125061Y-71674988D01*
X136021452Y-71703926D01*
X135815284Y-71758998D01*
X135609319Y-71811449D01*
X135402117Y-71862621D01*
X135297603Y-71888146D01*
X135192240Y-71913853D01*
X135085849Y-71939910D01*
X134978249Y-71966485D01*
X134869261Y-71993744D01*
X134758705Y-72021856D01*
X134646401Y-72050988D01*
X134532169Y-72081308D01*
X134415830Y-72112983D01*
X134297203Y-72146180D01*
X134176108Y-72181067D01*
X134052367Y-72217811D01*
X133925798Y-72256581D01*
X133796222Y-72297543D01*
X133663460Y-72340864D01*
X133527331Y-72386714D01*
X133387656Y-72435258D01*
X133244254Y-72486665D01*
X132910556Y-72612510D01*
X132592838Y-72741130D01*
X132290841Y-72872344D01*
X132004308Y-73005966D01*
X131732979Y-73141813D01*
X131476596Y-73279702D01*
X131234901Y-73419450D01*
X131007635Y-73560873D01*
X130794540Y-73703787D01*
X130595358Y-73848009D01*
X130409830Y-73993356D01*
X130237698Y-74139643D01*
X130078704Y-74286688D01*
X129932588Y-74434306D01*
X129799093Y-74582315D01*
X129677960Y-74730531D01*
X129568931Y-74878770D01*
X129471747Y-75026849D01*
X129386151Y-75174584D01*
X129311883Y-75321792D01*
X129248685Y-75468289D01*
X129196299Y-75613892D01*
X129154466Y-75758418D01*
X129122929Y-75901682D01*
X129101428Y-76043501D01*
X129089705Y-76183692D01*
X129087502Y-76322072D01*
X129094561Y-76458456D01*
X129110622Y-76592661D01*
X129135428Y-76724504D01*
X129168721Y-76853801D01*
X129210241Y-76980369D01*
X129239293Y-77055091D01*
X129303528Y-77191436D01*
X129375618Y-77310843D01*
X129455177Y-77413942D01*
X129541818Y-77501365D01*
X129635156Y-77573741D01*
X129734804Y-77631703D01*
X129840377Y-77675880D01*
X129951488Y-77706904D01*
X130067752Y-77725406D01*
X130188782Y-77732016D01*
X130314192Y-77727366D01*
X130443597Y-77712087D01*
X130576610Y-77686808D01*
X130712845Y-77652162D01*
X130851917Y-77608779D01*
X130922396Y-77584008D01*
X130833531Y-77535437D01*
X130757967Y-77484469D01*
X130679775Y-77419052D01*
X130620153Y-77358461D01*
X130560274Y-77286395D01*
X130500663Y-77201420D01*
X130441843Y-77102100D01*
X130403327Y-77027210D01*
X130365552Y-76944882D01*
X130328671Y-76854691D01*
X130310615Y-76806514D01*
X130260563Y-76658876D01*
X130219358Y-76515409D01*
X130186901Y-76376009D01*
X130163095Y-76240571D01*
X130147843Y-76108992D01*
X130141047Y-75981168D01*
X130142609Y-75856995D01*
X130152433Y-75736369D01*
X130170420Y-75619187D01*
X130196474Y-75505344D01*
X130230496Y-75394737D01*
X130272390Y-75287261D01*
X130322057Y-75182813D01*
X130379401Y-75081290D01*
X130444323Y-74982586D01*
X130516727Y-74886599D01*
X130596514Y-74793224D01*
X130683588Y-74702358D01*
X130777851Y-74613896D01*
X130879205Y-74527735D01*
X130987553Y-74443771D01*
X131102797Y-74361900D01*
X131224840Y-74282018D01*
X131353584Y-74204022D01*
X131488933Y-74127807D01*
X131630787Y-74053270D01*
X131779051Y-73980306D01*
X131933626Y-73908812D01*
X132094416Y-73838685D01*
X132261321Y-73769819D01*
X132434246Y-73702112D01*
X132613092Y-73635459D01*
X132719764Y-73597867D01*
X132826790Y-73562284D01*
X132934212Y-73528202D01*
X133042071Y-73495113D01*
X133150407Y-73462508D01*
X133186632Y-73451659D01*
X133666015Y-81249377D01*
X135256542Y-80670473D01*
X134771293Y-73076586D01*
X134933001Y-73040936D01*
X135093664Y-73005912D01*
X135253146Y-72971324D01*
X135411310Y-72936982D01*
X135568019Y-72902694D01*
X135723138Y-72868269D01*
X135876528Y-72833516D01*
X136028055Y-72798245D01*
X136177582Y-72762265D01*
X136324971Y-72725384D01*
X136470087Y-72687411D01*
X136612793Y-72648156D01*
X136752952Y-72607428D01*
X136890428Y-72565035D01*
X137025085Y-72520788D01*
X137156785Y-72474494D01*
G37*
G36*
X140309071Y-73027519D02*
G01*
X140441923Y-73043123D01*
X140569153Y-73072276D01*
X140689946Y-73115973D01*
X140803488Y-73175212D01*
X140908964Y-73250990D01*
X141005561Y-73344303D01*
X141092466Y-73456148D01*
X141168862Y-73587522D01*
X141202866Y-73660844D01*
X141233938Y-73739422D01*
X141269964Y-73850898D01*
X141297151Y-73962880D01*
X141315576Y-74075295D01*
X141325319Y-74188070D01*
X141326460Y-74301133D01*
X141319078Y-74414411D01*
X141303252Y-74527831D01*
X141279062Y-74641320D01*
X141246587Y-74754807D01*
X141205905Y-74868219D01*
X141157097Y-74981482D01*
X141100242Y-75094524D01*
X141035419Y-75207273D01*
X140962707Y-75319655D01*
X140882186Y-75431599D01*
X140793934Y-75543031D01*
X140698032Y-75653879D01*
X140594559Y-75764070D01*
X140483593Y-75873532D01*
X140365215Y-75982191D01*
X140239503Y-76089976D01*
X140106537Y-76196814D01*
X139966396Y-76302631D01*
X139819160Y-76407356D01*
X139664907Y-76510915D01*
X139503718Y-76613237D01*
X139335670Y-76714248D01*
X139160845Y-76813875D01*
X138979320Y-76912047D01*
X138791176Y-77008690D01*
X138596491Y-77103731D01*
X138395345Y-77197099D01*
X138397906Y-77208418D01*
X138417590Y-77285464D01*
X138443155Y-77369697D01*
X138470934Y-77451175D01*
X138499820Y-77531275D01*
X138551246Y-77660217D01*
X138607560Y-77777102D01*
X138669177Y-77881884D01*
X138736510Y-77974515D01*
X138809975Y-78054948D01*
X138889986Y-78123136D01*
X138976956Y-78179033D01*
X139071300Y-78222589D01*
X139173431Y-78253760D01*
X139283765Y-78272496D01*
X139402716Y-78278752D01*
X139530697Y-78272479D01*
X139668123Y-78253631D01*
X139815407Y-78222160D01*
X139972965Y-78178020D01*
X140141211Y-78121163D01*
X140226420Y-78089053D01*
X140395266Y-78018722D01*
X140561641Y-77940148D01*
X140725097Y-77853212D01*
X140885184Y-77757797D01*
X141041453Y-77653788D01*
X141193457Y-77541067D01*
X141340745Y-77419516D01*
X141482870Y-77289020D01*
X141619382Y-77149462D01*
X141685394Y-77076247D01*
X141749834Y-77000724D01*
X141812646Y-76922876D01*
X141873775Y-76842689D01*
X141933164Y-76760149D01*
X141990757Y-76675241D01*
X142046498Y-76587951D01*
X142100332Y-76498263D01*
X142152201Y-76406164D01*
X142202050Y-76311639D01*
X142249823Y-76214672D01*
X142295463Y-76115250D01*
X142338915Y-76013357D01*
X142803449Y-75844280D01*
X142764742Y-75968080D01*
X142721766Y-76092463D01*
X142674581Y-76217245D01*
X142623245Y-76342239D01*
X142567816Y-76467259D01*
X142508352Y-76592119D01*
X142444913Y-76716633D01*
X142377556Y-76840615D01*
X142306340Y-76963878D01*
X142231323Y-77086237D01*
X142152564Y-77207505D01*
X142070121Y-77327496D01*
X141984053Y-77446024D01*
X141894418Y-77562903D01*
X141801274Y-77677948D01*
X141704681Y-77790971D01*
X141604695Y-77901786D01*
X141501377Y-78010208D01*
X141394783Y-78116050D01*
X141284973Y-78219127D01*
X141172005Y-78319251D01*
X141055937Y-78416238D01*
X140936829Y-78509900D01*
X140814737Y-78600052D01*
X140689722Y-78686508D01*
X140561840Y-78769081D01*
X140431151Y-78847586D01*
X140297713Y-78921836D01*
X140161584Y-78991645D01*
X140022823Y-79056827D01*
X139881488Y-79117195D01*
X139737638Y-79172565D01*
X139632805Y-79209146D01*
X139527636Y-79242661D01*
X139422287Y-79272998D01*
X139316910Y-79300043D01*
X139211659Y-79323684D01*
X139106688Y-79343808D01*
X139002151Y-79360303D01*
X138794994Y-79381953D01*
X138591417Y-79387733D01*
X138392649Y-79376742D01*
X138199922Y-79348078D01*
X138106207Y-79326836D01*
X138014464Y-79300839D01*
X137924845Y-79269972D01*
X137837505Y-79234124D01*
X137752598Y-79193181D01*
X137670276Y-79147031D01*
X137590695Y-79095562D01*
X137514007Y-79038660D01*
X137440366Y-78976213D01*
X137369926Y-78908108D01*
X137302841Y-78834232D01*
X137239265Y-78754474D01*
X137179350Y-78668720D01*
X137123252Y-78576857D01*
X137071123Y-78478773D01*
X137023118Y-78374355D01*
X136979390Y-78263490D01*
X136940123Y-78146429D01*
X136904272Y-78020149D01*
X136872216Y-77885308D01*
X136844330Y-77742567D01*
X136820993Y-77592584D01*
X136802583Y-77436018D01*
X136789477Y-77273528D01*
X136782053Y-77105774D01*
X136780687Y-76933414D01*
X136785759Y-76757108D01*
X136797645Y-76577514D01*
X136816722Y-76395292D01*
X136830454Y-76300371D01*
X138290146Y-76300371D01*
X138292682Y-76416429D01*
X138298229Y-76531448D01*
X138306747Y-76645168D01*
X138318195Y-76757327D01*
X138460408Y-76684747D01*
X138598213Y-76610378D01*
X138731536Y-76534302D01*
X138860301Y-76456602D01*
X138984434Y-76377359D01*
X139103859Y-76296655D01*
X139218503Y-76214573D01*
X139328290Y-76131195D01*
X139433145Y-76046602D01*
X139532993Y-75960876D01*
X139627760Y-75874101D01*
X139717372Y-75786357D01*
X139801752Y-75697727D01*
X139880826Y-75608293D01*
X139954519Y-75518137D01*
X140022757Y-75427342D01*
X140085465Y-75335988D01*
X140142568Y-75244158D01*
X140193990Y-75151935D01*
X140239658Y-75059400D01*
X140279496Y-74966636D01*
X140313429Y-74873724D01*
X140341383Y-74780746D01*
X140363283Y-74687785D01*
X140379054Y-74594923D01*
X140388621Y-74502241D01*
X140391909Y-74409822D01*
X140388844Y-74317748D01*
X140379350Y-74226101D01*
X140363354Y-74134963D01*
X140340779Y-74044416D01*
X140311551Y-73954542D01*
X140294200Y-73909694D01*
X140253543Y-73824992D01*
X140202521Y-73750106D01*
X140138223Y-73688824D01*
X140057740Y-73644934D01*
X139958162Y-73622225D01*
X139836580Y-73624484D01*
X139729202Y-73644844D01*
X139606581Y-73682977D01*
X139414196Y-73768667D01*
X139238241Y-73878248D01*
X139156324Y-73941348D01*
X139078393Y-74009642D01*
X139004407Y-74082870D01*
X138934326Y-74160771D01*
X138868109Y-74243087D01*
X138805715Y-74329558D01*
X138747105Y-74419923D01*
X138692236Y-74513924D01*
X138641069Y-74611300D01*
X138593563Y-74711792D01*
X138549678Y-74815139D01*
X138509372Y-74921083D01*
X138472606Y-75029363D01*
X138439338Y-75139720D01*
X138409528Y-75251894D01*
X138383135Y-75365626D01*
X138360119Y-75480654D01*
X138340440Y-75596721D01*
X138324056Y-75713566D01*
X138310926Y-75830929D01*
X138301011Y-75948551D01*
X138294270Y-76066171D01*
X138290662Y-76183531D01*
X138290146Y-76300371D01*
X136830454Y-76300371D01*
X136843369Y-76211101D01*
X136877964Y-76025599D01*
X136920883Y-75839447D01*
X136972504Y-75653303D01*
X137033204Y-75467825D01*
X137103363Y-75283674D01*
X137183356Y-75101509D01*
X137273561Y-74921987D01*
X137374357Y-74745769D01*
X137486120Y-74573514D01*
X137609228Y-74405880D01*
X137744059Y-74243526D01*
X137890991Y-74087113D01*
X138050400Y-73937298D01*
X138222665Y-73794742D01*
X138408163Y-73660102D01*
X138607271Y-73534038D01*
X138820368Y-73417210D01*
X139047830Y-73310276D01*
X139290036Y-73213895D01*
X139439456Y-73162575D01*
X139588953Y-73117826D01*
X139737710Y-73080643D01*
X139884914Y-73052024D01*
X140029752Y-73032966D01*
X140171409Y-73024465D01*
X140309071Y-73027519D01*
G37*
G36*
X142049473Y-72209542D02*
G01*
X142439157Y-78056214D01*
X143888304Y-77528768D01*
X143646533Y-73761665D01*
X143689383Y-73599337D01*
X143736283Y-73444648D01*
X143787303Y-73297622D01*
X143842516Y-73158281D01*
X143901991Y-73026648D01*
X143965800Y-72902746D01*
X144034015Y-72786597D01*
X144106706Y-72678225D01*
X144183944Y-72577653D01*
X144265801Y-72484902D01*
X144352348Y-72399997D01*
X144443655Y-72322959D01*
X144539795Y-72253812D01*
X144640838Y-72192579D01*
X144746855Y-72139282D01*
X144857918Y-72093945D01*
X144989626Y-72052862D01*
X145108349Y-72029783D01*
X145214864Y-72023779D01*
X145339237Y-72040724D01*
X145445134Y-72084162D01*
X145534399Y-72151887D01*
X145591542Y-72217292D01*
X145641143Y-72294185D01*
X145683982Y-72381638D01*
X145709168Y-72445346D01*
X145754360Y-72593770D01*
X145772641Y-72673134D01*
X145788330Y-72755661D01*
X145801641Y-72841149D01*
X145812789Y-72929396D01*
X145821987Y-73020197D01*
X145829451Y-73113351D01*
X145835393Y-73208655D01*
X145840029Y-73305906D01*
X145843571Y-73404901D01*
X145846235Y-73505437D01*
X145848234Y-73607311D01*
X145849783Y-73710321D01*
X145851096Y-73814264D01*
X145852386Y-73918936D01*
X145853868Y-74024136D01*
X145855756Y-74129660D01*
X145858264Y-74235306D01*
X145861607Y-74340871D01*
X145865997Y-74446151D01*
X145871650Y-74550945D01*
X145878780Y-74655048D01*
X145887601Y-74758260D01*
X145898326Y-74860376D01*
X145911170Y-74961193D01*
X145926347Y-75060510D01*
X145944071Y-75158123D01*
X145964557Y-75253829D01*
X145988018Y-75347426D01*
X146014668Y-75438711D01*
X146044722Y-75527481D01*
X146094842Y-75650838D01*
X146152818Y-75766416D01*
X146218790Y-75873583D01*
X146292895Y-75971707D01*
X146375273Y-76060155D01*
X146466061Y-76138297D01*
X146565399Y-76205498D01*
X146673424Y-76261128D01*
X146790275Y-76304554D01*
X146916091Y-76335143D01*
X147051010Y-76352265D01*
X147195170Y-76355285D01*
X147348710Y-76343574D01*
X147511769Y-76316497D01*
X147684485Y-76273423D01*
X147866996Y-76213721D01*
X147981322Y-76169353D01*
X148100975Y-76115965D01*
X148224696Y-76051661D01*
X148351226Y-75974543D01*
X148479303Y-75882716D01*
X148607670Y-75774285D01*
X148735065Y-75647353D01*
X148860231Y-75500024D01*
X148921583Y-75418118D01*
X148981905Y-75330402D01*
X149041040Y-75236639D01*
X149098830Y-75136592D01*
X149155118Y-75030023D01*
X149209746Y-74916696D01*
X149262556Y-74796374D01*
X149313392Y-74668820D01*
X149362095Y-74533797D01*
X149408509Y-74391067D01*
X149452476Y-74240394D01*
X149493838Y-74081541D01*
X149532437Y-73914271D01*
X149568118Y-73738346D01*
X149600721Y-73553530D01*
X149630090Y-73359586D01*
X149094865Y-73554392D01*
X149078349Y-73640078D01*
X149061055Y-73723593D01*
X149024113Y-73884098D01*
X148983997Y-74035883D01*
X148940666Y-74178924D01*
X148894076Y-74313197D01*
X148844185Y-74438678D01*
X148790952Y-74555343D01*
X148734333Y-74663166D01*
X148674286Y-74762125D01*
X148610770Y-74852195D01*
X148543741Y-74933351D01*
X148473158Y-75005570D01*
X148360526Y-75097088D01*
X148239659Y-75168361D01*
X148154435Y-75204588D01*
X148032786Y-75237395D01*
X147926342Y-75243031D01*
X147812604Y-75215585D01*
X147735415Y-75169014D01*
X147669026Y-75103210D01*
X147612080Y-75020615D01*
X147574752Y-74949120D01*
X147541402Y-74870584D01*
X147531070Y-74843020D01*
X147503851Y-74762039D01*
X147479933Y-74678260D01*
X147459088Y-74591852D01*
X147441091Y-74502982D01*
X147425714Y-74411819D01*
X147412730Y-74318529D01*
X147401914Y-74223281D01*
X147393036Y-74126243D01*
X147385872Y-74027582D01*
X147380194Y-73927466D01*
X147375775Y-73826064D01*
X147372389Y-73723542D01*
X147369808Y-73620070D01*
X147367805Y-73515814D01*
X147366155Y-73410943D01*
X147364630Y-73305624D01*
X147363003Y-73200026D01*
X147361047Y-73094316D01*
X147358536Y-72988661D01*
X147355242Y-72883231D01*
X147350939Y-72778192D01*
X147345400Y-72673713D01*
X147338399Y-72569961D01*
X147329707Y-72467104D01*
X147319099Y-72365311D01*
X147306348Y-72264748D01*
X147291227Y-72165584D01*
X147273508Y-72067987D01*
X147252965Y-71972124D01*
X147229372Y-71878164D01*
X147202501Y-71786273D01*
X147172126Y-71696621D01*
X147124733Y-71578416D01*
X147070157Y-71466113D01*
X147007856Y-71360660D01*
X146937287Y-71263007D01*
X146857907Y-71174105D01*
X146769176Y-71094902D01*
X146670550Y-71026349D01*
X146561487Y-70969396D01*
X146441445Y-70924991D01*
X146309883Y-70894085D01*
X146166257Y-70877627D01*
X146010025Y-70876567D01*
X145840646Y-70891855D01*
X145657576Y-70924440D01*
X145460274Y-70975272D01*
X145356117Y-71007827D01*
X145248198Y-71045301D01*
X145101462Y-71102377D01*
X144999709Y-71146837D01*
X144895411Y-71197221D01*
X144789079Y-71254210D01*
X144681227Y-71318485D01*
X144572365Y-71390729D01*
X144463005Y-71471623D01*
X144353660Y-71561849D01*
X144244842Y-71662089D01*
X144137063Y-71773024D01*
X144030834Y-71895336D01*
X143926667Y-72029707D01*
X143825075Y-72176819D01*
X143726570Y-72337353D01*
X143678635Y-72422866D01*
X143631663Y-72511991D01*
X143585719Y-72604812D01*
X143511242Y-71677501D01*
X142049473Y-72209542D01*
G37*
G36*
X148805423Y-69750577D02*
G01*
X149195108Y-75597250D01*
X150644254Y-75069803D01*
X150402484Y-71302700D01*
X150445334Y-71140372D01*
X150492234Y-70985683D01*
X150543254Y-70838657D01*
X150598466Y-70699316D01*
X150657942Y-70567683D01*
X150721751Y-70443781D01*
X150789965Y-70327632D01*
X150862656Y-70219260D01*
X150939895Y-70118688D01*
X151021752Y-70025937D01*
X151108298Y-69941032D01*
X151199606Y-69863994D01*
X151295746Y-69794847D01*
X151396788Y-69733614D01*
X151502806Y-69680317D01*
X151613868Y-69634980D01*
X151745577Y-69593897D01*
X151864300Y-69570819D01*
X151970814Y-69564814D01*
X152095188Y-69581759D01*
X152201085Y-69625198D01*
X152290350Y-69692922D01*
X152347492Y-69758327D01*
X152397094Y-69835220D01*
X152439933Y-69922673D01*
X152465119Y-69986381D01*
X152510311Y-70134805D01*
X152528591Y-70214169D01*
X152544280Y-70296696D01*
X152557592Y-70382184D01*
X152568739Y-70470431D01*
X152577938Y-70561232D01*
X152585401Y-70654386D01*
X152591344Y-70749690D01*
X152595979Y-70846941D01*
X152599522Y-70945936D01*
X152602186Y-71046472D01*
X152604185Y-71148346D01*
X152605734Y-71251356D01*
X152607046Y-71355299D01*
X152608336Y-71459971D01*
X152609818Y-71565171D01*
X152611707Y-71670696D01*
X152614215Y-71776341D01*
X152617557Y-71881906D01*
X152621948Y-71987186D01*
X152627601Y-72091980D01*
X152634731Y-72196084D01*
X152643551Y-72299295D01*
X152654276Y-72401411D01*
X152667121Y-72502228D01*
X152682298Y-72601545D01*
X152700022Y-72699158D01*
X152720508Y-72794865D01*
X152743969Y-72888461D01*
X152770619Y-72979746D01*
X152800673Y-73068516D01*
X152850792Y-73191873D01*
X152908769Y-73307451D01*
X152974740Y-73414618D01*
X153048846Y-73512742D01*
X153131223Y-73601190D01*
X153222012Y-73679332D01*
X153321349Y-73746533D01*
X153429374Y-73802163D01*
X153546226Y-73845589D01*
X153672041Y-73876178D01*
X153806960Y-73893300D01*
X153951121Y-73896320D01*
X154104661Y-73884609D01*
X154267720Y-73857532D01*
X154440436Y-73814458D01*
X154622947Y-73754756D01*
X154737272Y-73710389D01*
X154856926Y-73657000D01*
X154980647Y-73592696D01*
X155107176Y-73515578D01*
X155235254Y-73423752D01*
X155363620Y-73315320D01*
X155491016Y-73188388D01*
X155616181Y-73041059D01*
X155677534Y-72959154D01*
X155737856Y-72871438D01*
X155796991Y-72777674D01*
X155854781Y-72677627D01*
X155911069Y-72571058D01*
X155965696Y-72457732D01*
X156018507Y-72337410D01*
X156069342Y-72209855D01*
X156118046Y-72074832D01*
X156164460Y-71932102D01*
X156208426Y-71781429D01*
X156249788Y-71622576D01*
X156288388Y-71455306D01*
X156324068Y-71279381D01*
X156356672Y-71094566D01*
X156386041Y-70900622D01*
X155850816Y-71095427D01*
X155834299Y-71181113D01*
X155817005Y-71264628D01*
X155780064Y-71425133D01*
X155739948Y-71576918D01*
X155696616Y-71719959D01*
X155650026Y-71854232D01*
X155600136Y-71979713D01*
X155546902Y-72096378D01*
X155490283Y-72204201D01*
X155430237Y-72303160D01*
X155366721Y-72393230D01*
X155299692Y-72474387D01*
X155229109Y-72546605D01*
X155116477Y-72638123D01*
X154995609Y-72709396D01*
X154910385Y-72745623D01*
X154788736Y-72778430D01*
X154682292Y-72784066D01*
X154568555Y-72756620D01*
X154491366Y-72710049D01*
X154424977Y-72644245D01*
X154368031Y-72561650D01*
X154330703Y-72490155D01*
X154297353Y-72411620D01*
X154287021Y-72384055D01*
X154259802Y-72303074D01*
X154235883Y-72219295D01*
X154215039Y-72132887D01*
X154197042Y-72044018D01*
X154181665Y-71952854D01*
X154168681Y-71859564D01*
X154157864Y-71764316D01*
X154148987Y-71667278D01*
X154141823Y-71568617D01*
X154136145Y-71468501D01*
X154131726Y-71367099D01*
X154128339Y-71264577D01*
X154125758Y-71161105D01*
X154123756Y-71056849D01*
X154122106Y-70951978D01*
X154120580Y-70846660D01*
X154118953Y-70741061D01*
X154116997Y-70635351D01*
X154114486Y-70529697D01*
X154111193Y-70424266D01*
X154106890Y-70319227D01*
X154101351Y-70214748D01*
X154094349Y-70110996D01*
X154085658Y-70008139D01*
X154075050Y-69906346D01*
X154062299Y-69805783D01*
X154047177Y-69706619D01*
X154029459Y-69609022D01*
X154008916Y-69513159D01*
X153985323Y-69419199D01*
X153958452Y-69327308D01*
X153928077Y-69237656D01*
X153880684Y-69119451D01*
X153826108Y-69007148D01*
X153763807Y-68901695D01*
X153693237Y-68804042D01*
X153613858Y-68715140D01*
X153525126Y-68635937D01*
X153426500Y-68567385D01*
X153317438Y-68510431D01*
X153197396Y-68466026D01*
X153065833Y-68435120D01*
X152922207Y-68418662D01*
X152765976Y-68417602D01*
X152596596Y-68432890D01*
X152413527Y-68465475D01*
X152216225Y-68516307D01*
X152112068Y-68548862D01*
X152004149Y-68586336D01*
X151857412Y-68643412D01*
X151755659Y-68687873D01*
X151651361Y-68738256D01*
X151545030Y-68795245D01*
X151437177Y-68859520D01*
X151328315Y-68931764D01*
X151218956Y-69012658D01*
X151109611Y-69102884D01*
X151000793Y-69203124D01*
X150893013Y-69314059D01*
X150786784Y-69436371D01*
X150682618Y-69570742D01*
X150581026Y-69717854D01*
X150482521Y-69878388D01*
X150434585Y-69963901D01*
X150387614Y-70053026D01*
X150341670Y-70145847D01*
X150267193Y-69218536D01*
X148805423Y-69750577D01*
G37*
G36*
X159142924Y-66172557D02*
G01*
X159275777Y-66188161D01*
X159403007Y-66217314D01*
X159523799Y-66261011D01*
X159637341Y-66320250D01*
X159742817Y-66396028D01*
X159839415Y-66489341D01*
X159926319Y-66601186D01*
X160002716Y-66732560D01*
X160036719Y-66805882D01*
X160067791Y-66884460D01*
X160103818Y-66995936D01*
X160131004Y-67107918D01*
X160149429Y-67220333D01*
X160159173Y-67333108D01*
X160160314Y-67446171D01*
X160152932Y-67559449D01*
X160137106Y-67672869D01*
X160112915Y-67786358D01*
X160080440Y-67899845D01*
X160039758Y-68013257D01*
X159990950Y-68126520D01*
X159934095Y-68239562D01*
X159869272Y-68352311D01*
X159796560Y-68464693D01*
X159716039Y-68576637D01*
X159627788Y-68688069D01*
X159531886Y-68798917D01*
X159428412Y-68909108D01*
X159317447Y-69018570D01*
X159199068Y-69127229D01*
X159073357Y-69235014D01*
X158940391Y-69341852D01*
X158800250Y-69447669D01*
X158653013Y-69552394D01*
X158498761Y-69655953D01*
X158337571Y-69758275D01*
X158169524Y-69859286D01*
X157994698Y-69958913D01*
X157813173Y-70057085D01*
X157625029Y-70153728D01*
X157430344Y-70248769D01*
X157229198Y-70342137D01*
X157231759Y-70353456D01*
X157251443Y-70430502D01*
X157277008Y-70514735D01*
X157304788Y-70596213D01*
X157333674Y-70676313D01*
X157385099Y-70805255D01*
X157441413Y-70922140D01*
X157503030Y-71026922D01*
X157570364Y-71119553D01*
X157643829Y-71199986D01*
X157723839Y-71268174D01*
X157810809Y-71324071D01*
X157905153Y-71367627D01*
X158007285Y-71398798D01*
X158117619Y-71417534D01*
X158236569Y-71423790D01*
X158364550Y-71417517D01*
X158501976Y-71398669D01*
X158649261Y-71367198D01*
X158806819Y-71323058D01*
X158975064Y-71266201D01*
X159060273Y-71234091D01*
X159229119Y-71163760D01*
X159395495Y-71085186D01*
X159558950Y-70998250D01*
X159719037Y-70902835D01*
X159875306Y-70798826D01*
X160027310Y-70686105D01*
X160174598Y-70564554D01*
X160316723Y-70434058D01*
X160453236Y-70294500D01*
X160519247Y-70221285D01*
X160583687Y-70145762D01*
X160646499Y-70067914D01*
X160707628Y-69987727D01*
X160767017Y-69905187D01*
X160824610Y-69820279D01*
X160880352Y-69732989D01*
X160934185Y-69643301D01*
X160986054Y-69551202D01*
X161035903Y-69456677D01*
X161083676Y-69359710D01*
X161129316Y-69260288D01*
X161172768Y-69158395D01*
X161637303Y-68989319D01*
X161598595Y-69113118D01*
X161555620Y-69237501D01*
X161508434Y-69362283D01*
X161457098Y-69487277D01*
X161401669Y-69612297D01*
X161342205Y-69737157D01*
X161278766Y-69861671D01*
X161211409Y-69985653D01*
X161140193Y-70108916D01*
X161065176Y-70231275D01*
X160986417Y-70352543D01*
X160903975Y-70472534D01*
X160817906Y-70591062D01*
X160728271Y-70707941D01*
X160635128Y-70822986D01*
X160538534Y-70936009D01*
X160438549Y-71046824D01*
X160335230Y-71155246D01*
X160228636Y-71261088D01*
X160118826Y-71364165D01*
X160005858Y-71464289D01*
X159889791Y-71561276D01*
X159770682Y-71654938D01*
X159648591Y-71745090D01*
X159523575Y-71831546D01*
X159395693Y-71914119D01*
X159265004Y-71992624D01*
X159131566Y-72066874D01*
X158995437Y-72136683D01*
X158856676Y-72201865D01*
X158715342Y-72262233D01*
X158571492Y-72317603D01*
X158466658Y-72354184D01*
X158361490Y-72387699D01*
X158256140Y-72418036D01*
X158150763Y-72445081D01*
X158045512Y-72468722D01*
X157940541Y-72488846D01*
X157836005Y-72505341D01*
X157628847Y-72526991D01*
X157425270Y-72532771D01*
X157226503Y-72521780D01*
X157033775Y-72493116D01*
X156940061Y-72471874D01*
X156848317Y-72445877D01*
X156758699Y-72415010D01*
X156671359Y-72379162D01*
X156586451Y-72338219D01*
X156504130Y-72292069D01*
X156424548Y-72240600D01*
X156347860Y-72183698D01*
X156274219Y-72121251D01*
X156203779Y-72053146D01*
X156136694Y-71979271D01*
X156073118Y-71899512D01*
X156013204Y-71813758D01*
X155957105Y-71721895D01*
X155904977Y-71623811D01*
X155856971Y-71519393D01*
X155813243Y-71408528D01*
X155773976Y-71291467D01*
X155738126Y-71165187D01*
X155706069Y-71030346D01*
X155678183Y-70887605D01*
X155654847Y-70737622D01*
X155636436Y-70581056D01*
X155623330Y-70418566D01*
X155615906Y-70250812D01*
X155614541Y-70078452D01*
X155619612Y-69902146D01*
X155631498Y-69722552D01*
X155650576Y-69540330D01*
X155664308Y-69445409D01*
X157123999Y-69445409D01*
X157126535Y-69561467D01*
X157132082Y-69676486D01*
X157140600Y-69790206D01*
X157152048Y-69902365D01*
X157294261Y-69829785D01*
X157432066Y-69755416D01*
X157565389Y-69679340D01*
X157694154Y-69601640D01*
X157818287Y-69522397D01*
X157937712Y-69441693D01*
X158052356Y-69359611D01*
X158162143Y-69276233D01*
X158266998Y-69191640D01*
X158366847Y-69105914D01*
X158461614Y-69019139D01*
X158551225Y-68931395D01*
X158635605Y-68842765D01*
X158714679Y-68753331D01*
X158788373Y-68663175D01*
X158856611Y-68572380D01*
X158919318Y-68481026D01*
X158976421Y-68389196D01*
X159027843Y-68296973D01*
X159073511Y-68204438D01*
X159113349Y-68111674D01*
X159147282Y-68018762D01*
X159175236Y-67925784D01*
X159197136Y-67832823D01*
X159212907Y-67739961D01*
X159222474Y-67647279D01*
X159225763Y-67554860D01*
X159222697Y-67462786D01*
X159213204Y-67371139D01*
X159197207Y-67280001D01*
X159174632Y-67189454D01*
X159145405Y-67099580D01*
X159128054Y-67054732D01*
X159087397Y-66970030D01*
X159036374Y-66895144D01*
X158972076Y-66833862D01*
X158891593Y-66789972D01*
X158792016Y-66767263D01*
X158670433Y-66769522D01*
X158563055Y-66789882D01*
X158440435Y-66828015D01*
X158248049Y-66913705D01*
X158072095Y-67023286D01*
X157990178Y-67086386D01*
X157912246Y-67154680D01*
X157838261Y-67227908D01*
X157768179Y-67305809D01*
X157701962Y-67388125D01*
X157639569Y-67474596D01*
X157580958Y-67564961D01*
X157526089Y-67658962D01*
X157474922Y-67756338D01*
X157427417Y-67856830D01*
X157383531Y-67960177D01*
X157343225Y-68066121D01*
X157306459Y-68174401D01*
X157273191Y-68284758D01*
X157243381Y-68396932D01*
X157216989Y-68510664D01*
X157193973Y-68625692D01*
X157174293Y-68741759D01*
X157157909Y-68858604D01*
X157144779Y-68975967D01*
X157134864Y-69093589D01*
X157128123Y-69211209D01*
X157124515Y-69328569D01*
X157123999Y-69445409D01*
X155664308Y-69445409D01*
X155677223Y-69356139D01*
X155711817Y-69170637D01*
X155754736Y-68984485D01*
X155806357Y-68798341D01*
X155867058Y-68612863D01*
X155937216Y-68428712D01*
X156017209Y-68246547D01*
X156107414Y-68067025D01*
X156208210Y-67890807D01*
X156319973Y-67718552D01*
X156443081Y-67550918D01*
X156577913Y-67388564D01*
X156724844Y-67232151D01*
X156884253Y-67082336D01*
X157056518Y-66939780D01*
X157242016Y-66805140D01*
X157441124Y-66679076D01*
X157654221Y-66562248D01*
X157881683Y-66455314D01*
X158123889Y-66358933D01*
X158273310Y-66307613D01*
X158422806Y-66262864D01*
X158571563Y-66225681D01*
X158718768Y-66197062D01*
X158863605Y-66178004D01*
X159005262Y-66169503D01*
X159142924Y-66172557D01*
G37*
G36*
X163538401Y-64401179D02*
G01*
X163641026Y-64628427D01*
X163739006Y-64843368D01*
X163832479Y-65046476D01*
X163921584Y-65238223D01*
X164006462Y-65419083D01*
X164087251Y-65589531D01*
X164164092Y-65750039D01*
X164237122Y-65901081D01*
X164306482Y-66043130D01*
X164372312Y-66176661D01*
X164434750Y-66302146D01*
X164493935Y-66420060D01*
X164550008Y-66530875D01*
X164603107Y-66635066D01*
X164653372Y-66733105D01*
X164700943Y-66825467D01*
X164745958Y-66912625D01*
X164788557Y-66995053D01*
X164828880Y-67073223D01*
X164867066Y-67147610D01*
X164903254Y-67218688D01*
X164970193Y-67352807D01*
X165030814Y-67479370D01*
X165086231Y-67602164D01*
X165137560Y-67724978D01*
X165185914Y-67851601D01*
X165198474Y-67887312D01*
X165224789Y-67970779D01*
X165247383Y-68053324D01*
X165266829Y-68133564D01*
X165285935Y-68220668D01*
X165343477Y-68168112D01*
X165429188Y-68088057D01*
X165513924Y-68006916D01*
X165597400Y-67925108D01*
X165679332Y-67843058D01*
X165759435Y-67761187D01*
X165837424Y-67679917D01*
X165913016Y-67599671D01*
X165985925Y-67520870D01*
X166055867Y-67443938D01*
X166122558Y-67369295D01*
X166730997Y-67147841D01*
X166643075Y-67286673D01*
X166553515Y-67421548D01*
X166462495Y-67552573D01*
X166370194Y-67679859D01*
X166276790Y-67803513D01*
X166182459Y-67923646D01*
X166087380Y-68040365D01*
X165991731Y-68153779D01*
X165895689Y-68263999D01*
X165799433Y-68371131D01*
X165703140Y-68475286D01*
X165606988Y-68576572D01*
X165511155Y-68675099D01*
X165415819Y-68770974D01*
X165321157Y-68864307D01*
X165227348Y-68955207D01*
X165175617Y-69098355D01*
X165112077Y-69235750D01*
X165037703Y-69367317D01*
X164953475Y-69492980D01*
X164860369Y-69612663D01*
X164759363Y-69726290D01*
X164651435Y-69833787D01*
X164537563Y-69935077D01*
X164418723Y-70030085D01*
X164295894Y-70118736D01*
X164170054Y-70200953D01*
X164042180Y-70276661D01*
X163913249Y-70345784D01*
X163784240Y-70408248D01*
X163656129Y-70463975D01*
X163529895Y-70512892D01*
X163393377Y-70560268D01*
X163260280Y-70601879D01*
X163130620Y-70637880D01*
X163004411Y-70668426D01*
X162881666Y-70693670D01*
X162762400Y-70713767D01*
X162646627Y-70728871D01*
X162534362Y-70739137D01*
X162425619Y-70744718D01*
X162320412Y-70745770D01*
X162120664Y-70734901D01*
X161935232Y-70707765D01*
X161764231Y-70665596D01*
X161607774Y-70609629D01*
X161465977Y-70541099D01*
X161338953Y-70461239D01*
X161226817Y-70371286D01*
X161129683Y-70272473D01*
X161047665Y-70166035D01*
X160980878Y-70053207D01*
X160929437Y-69935223D01*
X160914186Y-69889929D01*
X160890867Y-69799325D01*
X160876721Y-69708979D01*
X160871266Y-69619220D01*
X160874020Y-69530381D01*
X160881628Y-69466780D01*
X161559484Y-69466780D01*
X161595987Y-69555913D01*
X161637827Y-69637318D01*
X161685000Y-69710867D01*
X161737501Y-69776432D01*
X161826229Y-69859523D01*
X161926916Y-69923922D01*
X162039543Y-69969192D01*
X162164094Y-69994898D01*
X162300552Y-70000603D01*
X162448898Y-69985872D01*
X162554392Y-69964483D01*
X162665158Y-69933689D01*
X162781189Y-69893360D01*
X162915595Y-69840618D01*
X163042004Y-69782958D01*
X163159878Y-69720303D01*
X163268676Y-69652575D01*
X163367859Y-69579696D01*
X163456889Y-69501587D01*
X163535226Y-69418173D01*
X163602330Y-69329373D01*
X163657663Y-69235111D01*
X163700685Y-69135309D01*
X163730857Y-69029889D01*
X163747639Y-68918773D01*
X163750493Y-68801883D01*
X163738878Y-68679142D01*
X163712256Y-68550471D01*
X163670088Y-68415793D01*
X163650199Y-68362472D01*
X163609218Y-68260224D01*
X163565996Y-68161585D01*
X163519773Y-68063853D01*
X163469787Y-67964326D01*
X163415276Y-67860302D01*
X163355480Y-67749080D01*
X163289636Y-67627956D01*
X163216984Y-67494231D01*
X163177866Y-67421799D01*
X163136761Y-67345202D01*
X163093573Y-67264104D01*
X163048207Y-67178167D01*
X163000568Y-67087053D01*
X162950561Y-66990425D01*
X162898090Y-66887944D01*
X162843060Y-66779273D01*
X162785376Y-66664074D01*
X162724944Y-66542010D01*
X162661667Y-66412743D01*
X162595450Y-66275935D01*
X162526199Y-66131248D01*
X162453818Y-65978345D01*
X162378213Y-65816887D01*
X162379967Y-65898621D01*
X162380862Y-65980127D01*
X162380902Y-66061434D01*
X162380093Y-66142570D01*
X162378439Y-66223567D01*
X162372616Y-66385257D01*
X162363474Y-66546738D01*
X162351052Y-66708247D01*
X162335390Y-66870018D01*
X162316527Y-67032288D01*
X162294503Y-67195290D01*
X162282318Y-67277140D01*
X162269357Y-67359261D01*
X162255626Y-67441684D01*
X162241130Y-67524436D01*
X162225872Y-67607549D01*
X162209860Y-67691051D01*
X162193096Y-67774971D01*
X162175587Y-67859340D01*
X162157337Y-67944186D01*
X162138351Y-68029539D01*
X162118635Y-68115428D01*
X162098192Y-68201883D01*
X162077029Y-68288934D01*
X162055149Y-68376609D01*
X162032558Y-68464938D01*
X162133785Y-68492424D01*
X162214908Y-68537735D01*
X162276130Y-68593379D01*
X162327361Y-68665379D01*
X162360836Y-68738450D01*
X162385706Y-68831951D01*
X162392678Y-68922920D01*
X162383485Y-69010561D01*
X162359857Y-69094081D01*
X162308895Y-69197656D01*
X162239458Y-69290605D01*
X162155651Y-69371045D01*
X162061579Y-69437092D01*
X161961348Y-69486861D01*
X161855724Y-69516273D01*
X161741662Y-69523724D01*
X161643540Y-69504890D01*
X161559484Y-69466780D01*
X160881628Y-69466780D01*
X160884498Y-69442791D01*
X160902220Y-69356782D01*
X160926702Y-69272685D01*
X160957461Y-69190831D01*
X161014315Y-69072979D01*
X161082579Y-68962035D01*
X161160625Y-68859117D01*
X161246822Y-68765341D01*
X161339543Y-68681826D01*
X161379161Y-68556882D01*
X161417136Y-68432551D01*
X161453507Y-68308820D01*
X161488314Y-68185675D01*
X161521596Y-68063106D01*
X161553393Y-67941098D01*
X161583744Y-67819641D01*
X161612689Y-67698721D01*
X161640267Y-67578325D01*
X161666517Y-67458443D01*
X161691480Y-67339060D01*
X161715194Y-67220165D01*
X161737698Y-67101745D01*
X161759033Y-66983788D01*
X161779238Y-66866281D01*
X161798352Y-66749211D01*
X161816414Y-66632567D01*
X161833465Y-66516336D01*
X161849543Y-66400505D01*
X161864688Y-66285063D01*
X161878939Y-66169995D01*
X161892336Y-66055291D01*
X161904919Y-65940938D01*
X161916726Y-65826922D01*
X161927797Y-65713232D01*
X161938172Y-65599856D01*
X161947890Y-65486780D01*
X161956991Y-65373993D01*
X161965513Y-65261481D01*
X161973497Y-65149233D01*
X161980982Y-65037236D01*
X161988007Y-64925477D01*
X163430990Y-64161150D01*
X163538401Y-64401179D01*
G37*
G36*
X168486706Y-62600143D02*
G01*
X168589331Y-62827392D01*
X168687310Y-63042333D01*
X168780783Y-63245440D01*
X168869889Y-63437187D01*
X168954767Y-63618048D01*
X169035556Y-63788495D01*
X169112396Y-63949003D01*
X169185427Y-64100045D01*
X169254787Y-64242094D01*
X169320616Y-64375625D01*
X169383054Y-64501111D01*
X169442240Y-64619024D01*
X169498312Y-64729839D01*
X169551412Y-64834030D01*
X169601677Y-64932070D01*
X169649248Y-65024432D01*
X169694263Y-65111590D01*
X169736862Y-65194017D01*
X169777185Y-65272188D01*
X169815370Y-65346575D01*
X169851558Y-65417652D01*
X169918498Y-65551771D01*
X169979119Y-65678334D01*
X170034536Y-65801128D01*
X170085864Y-65923943D01*
X170134219Y-66050565D01*
X170146778Y-66086276D01*
X170173094Y-66169743D01*
X170195688Y-66252289D01*
X170215134Y-66332529D01*
X170234239Y-66419633D01*
X170291782Y-66367076D01*
X170377493Y-66287022D01*
X170462229Y-66205880D01*
X170545705Y-66124073D01*
X170627637Y-66042023D01*
X170707740Y-65960151D01*
X170785729Y-65878882D01*
X170861320Y-65798635D01*
X170934229Y-65719835D01*
X171004172Y-65642902D01*
X171070862Y-65568260D01*
X171679302Y-65346806D01*
X171591379Y-65485638D01*
X171501819Y-65620512D01*
X171410800Y-65751538D01*
X171318499Y-65878823D01*
X171225094Y-66002478D01*
X171130763Y-66122610D01*
X171035685Y-66239329D01*
X170940035Y-66352744D01*
X170843994Y-66462963D01*
X170747738Y-66570096D01*
X170651445Y-66674251D01*
X170555293Y-66775537D01*
X170459460Y-66874063D01*
X170364123Y-66969938D01*
X170269462Y-67063271D01*
X170175652Y-67154171D01*
X170123922Y-67297319D01*
X170060381Y-67434715D01*
X169986008Y-67566281D01*
X169901779Y-67691944D01*
X169808673Y-67811627D01*
X169707668Y-67925255D01*
X169599740Y-68032752D01*
X169485867Y-68134042D01*
X169367028Y-68229050D01*
X169244199Y-68317700D01*
X169118359Y-68399917D01*
X168990484Y-68475625D01*
X168861554Y-68544749D01*
X168732544Y-68607212D01*
X168604434Y-68662940D01*
X168478200Y-68711856D01*
X168341681Y-68759232D01*
X168208585Y-68800843D01*
X168078925Y-68836845D01*
X167952715Y-68867390D01*
X167829970Y-68892634D01*
X167710704Y-68912731D01*
X167594932Y-68927835D01*
X167482667Y-68938101D01*
X167373924Y-68943682D01*
X167268717Y-68944734D01*
X167068969Y-68933865D01*
X166883537Y-68906729D01*
X166712535Y-68864560D01*
X166556079Y-68808593D01*
X166414281Y-68740063D01*
X166287257Y-68660204D01*
X166175121Y-68570250D01*
X166077987Y-68471437D01*
X165995970Y-68365000D01*
X165929183Y-68252171D01*
X165877741Y-68134187D01*
X165862491Y-68088893D01*
X165839172Y-67998290D01*
X165825026Y-67907943D01*
X165819571Y-67818185D01*
X165822324Y-67729345D01*
X165829933Y-67665745D01*
X166507789Y-67665745D01*
X166544291Y-67754877D01*
X166586132Y-67836282D01*
X166633305Y-67909832D01*
X166685805Y-67975396D01*
X166774534Y-68058488D01*
X166875220Y-68122886D01*
X166987848Y-68168156D01*
X167112399Y-68193862D01*
X167248856Y-68199567D01*
X167397203Y-68184837D01*
X167502697Y-68163448D01*
X167613462Y-68132654D01*
X167729494Y-68092325D01*
X167863900Y-68039582D01*
X167990309Y-67981923D01*
X168108182Y-67919267D01*
X168216980Y-67851539D01*
X168316164Y-67778660D01*
X168405194Y-67700552D01*
X168483530Y-67617137D01*
X168550635Y-67528338D01*
X168605968Y-67434076D01*
X168648990Y-67334274D01*
X168679161Y-67228854D01*
X168695944Y-67117738D01*
X168698797Y-67000848D01*
X168687183Y-66878106D01*
X168660561Y-66749435D01*
X168618392Y-66614757D01*
X168598504Y-66561436D01*
X168557522Y-66459189D01*
X168514301Y-66360550D01*
X168468078Y-66262818D01*
X168418091Y-66163291D01*
X168363581Y-66059267D01*
X168303784Y-65948044D01*
X168237940Y-65826921D01*
X168165288Y-65693196D01*
X168126171Y-65620763D01*
X168085066Y-65544166D01*
X168041878Y-65463069D01*
X167996512Y-65377132D01*
X167948873Y-65286018D01*
X167898865Y-65189389D01*
X167846394Y-65086908D01*
X167791365Y-64978237D01*
X167733681Y-64863039D01*
X167673248Y-64740975D01*
X167609971Y-64611707D01*
X167543755Y-64474899D01*
X167474504Y-64330212D01*
X167402123Y-64177309D01*
X167326517Y-64015852D01*
X167328272Y-64097586D01*
X167329167Y-64179091D01*
X167329207Y-64260398D01*
X167328397Y-64341535D01*
X167326743Y-64422531D01*
X167320921Y-64584221D01*
X167311779Y-64745703D01*
X167299357Y-64907211D01*
X167283694Y-65068983D01*
X167264831Y-65231252D01*
X167242807Y-65394255D01*
X167230622Y-65476104D01*
X167217662Y-65558226D01*
X167203931Y-65640648D01*
X167189434Y-65723401D01*
X167174177Y-65806513D01*
X167158164Y-65890015D01*
X167141401Y-65973936D01*
X167123892Y-66058304D01*
X167105642Y-66143150D01*
X167086656Y-66228503D01*
X167066939Y-66314393D01*
X167046497Y-66400848D01*
X167025333Y-66487898D01*
X167003454Y-66575573D01*
X166980863Y-66663902D01*
X167082090Y-66691388D01*
X167163213Y-66736700D01*
X167224435Y-66792343D01*
X167275665Y-66864343D01*
X167309141Y-66937414D01*
X167334011Y-67030915D01*
X167340983Y-67121884D01*
X167331789Y-67209526D01*
X167308162Y-67293046D01*
X167257200Y-67396620D01*
X167187763Y-67489569D01*
X167103955Y-67570009D01*
X167009884Y-67636056D01*
X166909653Y-67685825D01*
X166804028Y-67715237D01*
X166689967Y-67722688D01*
X166591844Y-67703855D01*
X166507789Y-67665745D01*
X165829933Y-67665745D01*
X165832803Y-67641755D01*
X165850524Y-67555746D01*
X165875006Y-67471649D01*
X165905766Y-67389795D01*
X165962620Y-67271943D01*
X166030884Y-67160999D01*
X166108929Y-67058081D01*
X166195127Y-66964306D01*
X166287848Y-66880790D01*
X166327466Y-66755847D01*
X166365440Y-66631515D01*
X166401811Y-66507784D01*
X166436618Y-66384640D01*
X166469901Y-66262070D01*
X166501698Y-66140063D01*
X166532049Y-66018605D01*
X166560994Y-65897685D01*
X166588572Y-65777290D01*
X166614822Y-65657407D01*
X166639784Y-65538024D01*
X166663498Y-65419129D01*
X166686003Y-65300709D01*
X166707338Y-65182752D01*
X166727542Y-65065245D01*
X166746656Y-64948176D01*
X166764719Y-64831532D01*
X166781769Y-64715301D01*
X166797847Y-64599470D01*
X166812992Y-64484027D01*
X166827244Y-64368960D01*
X166840641Y-64254256D01*
X166853223Y-64139902D01*
X166865031Y-64025887D01*
X166876102Y-63912197D01*
X166886477Y-63798820D01*
X166896195Y-63685744D01*
X166905296Y-63572957D01*
X166913818Y-63460446D01*
X166921802Y-63348197D01*
X166929287Y-63236200D01*
X166936312Y-63124442D01*
X168379295Y-62360114D01*
X168486706Y-62600143D01*
G37*
G36*
X174361485Y-60633453D02*
G01*
X174494338Y-60649058D01*
X174621568Y-60678210D01*
X174742361Y-60721908D01*
X174855902Y-60781147D01*
X174961379Y-60856925D01*
X175057976Y-60950237D01*
X175144880Y-61062083D01*
X175221277Y-61193457D01*
X175255281Y-61266779D01*
X175286352Y-61345357D01*
X175322379Y-61456833D01*
X175349565Y-61568815D01*
X175367990Y-61681230D01*
X175377734Y-61794005D01*
X175378875Y-61907067D01*
X175371493Y-62020345D01*
X175355667Y-62133765D01*
X175331477Y-62247255D01*
X175299001Y-62360742D01*
X175258320Y-62474153D01*
X175209512Y-62587416D01*
X175152656Y-62700459D01*
X175087833Y-62813207D01*
X175015121Y-62925590D01*
X174934600Y-63037533D01*
X174846349Y-63148965D01*
X174750447Y-63259813D01*
X174646974Y-63370005D01*
X174536008Y-63479466D01*
X174417630Y-63588126D01*
X174291918Y-63695911D01*
X174158952Y-63802748D01*
X174018811Y-63908566D01*
X173871575Y-64013291D01*
X173717322Y-64116850D01*
X173556132Y-64219171D01*
X173388085Y-64320182D01*
X173213259Y-64419810D01*
X173031735Y-64517981D01*
X172843590Y-64614624D01*
X172648905Y-64709666D01*
X172447759Y-64803034D01*
X172450321Y-64814352D01*
X172470004Y-64891399D01*
X172495570Y-64975632D01*
X172523349Y-65057110D01*
X172552235Y-65137210D01*
X172603660Y-65266151D01*
X172659974Y-65383036D01*
X172721591Y-65487818D01*
X172788925Y-65580449D01*
X172862390Y-65660883D01*
X172942400Y-65729071D01*
X173029370Y-65784967D01*
X173123714Y-65828524D01*
X173225846Y-65859694D01*
X173336180Y-65878431D01*
X173455130Y-65884686D01*
X173583111Y-65878414D01*
X173720537Y-65859566D01*
X173867822Y-65828095D01*
X174025380Y-65783955D01*
X174193625Y-65727097D01*
X174278835Y-65694987D01*
X174447681Y-65624657D01*
X174614056Y-65546082D01*
X174777511Y-65459146D01*
X174937598Y-65363732D01*
X175093868Y-65259723D01*
X175245871Y-65147001D01*
X175393160Y-65025451D01*
X175535285Y-64894955D01*
X175671797Y-64755396D01*
X175737808Y-64682182D01*
X175802248Y-64606658D01*
X175865061Y-64528810D01*
X175926189Y-64448624D01*
X175985578Y-64366084D01*
X176043172Y-64281176D01*
X176098913Y-64193886D01*
X176152746Y-64104198D01*
X176204615Y-64012099D01*
X176254464Y-63917573D01*
X176302237Y-63820607D01*
X176347878Y-63721184D01*
X176391329Y-63619292D01*
X176855864Y-63450215D01*
X176817157Y-63574014D01*
X176774181Y-63698398D01*
X176726996Y-63823179D01*
X176675659Y-63948174D01*
X176620230Y-64073194D01*
X176560767Y-64198054D01*
X176497327Y-64322568D01*
X176429970Y-64446549D01*
X176358754Y-64569813D01*
X176283738Y-64692171D01*
X176204979Y-64813439D01*
X176122536Y-64933430D01*
X176036468Y-65051959D01*
X175946833Y-65168838D01*
X175853689Y-65283882D01*
X175757095Y-65396905D01*
X175657110Y-65507721D01*
X175553791Y-65616143D01*
X175447198Y-65721985D01*
X175337388Y-65825061D01*
X175224420Y-65925186D01*
X175108352Y-66022173D01*
X174989243Y-66115835D01*
X174867152Y-66205987D01*
X174742136Y-66292443D01*
X174614255Y-66375016D01*
X174483565Y-66453521D01*
X174350127Y-66527771D01*
X174213999Y-66597579D01*
X174075238Y-66662761D01*
X173933903Y-66723130D01*
X173790053Y-66778500D01*
X173685219Y-66815081D01*
X173580051Y-66848596D01*
X173474701Y-66878933D01*
X173369324Y-66905978D01*
X173264073Y-66929619D01*
X173159103Y-66949743D01*
X173054566Y-66966238D01*
X172847409Y-66987888D01*
X172643831Y-66993668D01*
X172445064Y-66982677D01*
X172252336Y-66954012D01*
X172158622Y-66932771D01*
X172066879Y-66906773D01*
X171977260Y-66875907D01*
X171889920Y-66840058D01*
X171805013Y-66799116D01*
X171722691Y-66752966D01*
X171643109Y-66701496D01*
X171566421Y-66644594D01*
X171492781Y-66582147D01*
X171422341Y-66514042D01*
X171355256Y-66440167D01*
X171291679Y-66360409D01*
X171231765Y-66274654D01*
X171175667Y-66182791D01*
X171123538Y-66084707D01*
X171075533Y-65980289D01*
X171031805Y-65869425D01*
X170992538Y-65752364D01*
X170956687Y-65626083D01*
X170924630Y-65491243D01*
X170896745Y-65348502D01*
X170873408Y-65198518D01*
X170854998Y-65041952D01*
X170841892Y-64879463D01*
X170834467Y-64711709D01*
X170833102Y-64539349D01*
X170838173Y-64363042D01*
X170850059Y-64183449D01*
X170869137Y-64001227D01*
X170882869Y-63906305D01*
X172342560Y-63906305D01*
X172345096Y-64022364D01*
X172350644Y-64137383D01*
X172359161Y-64251102D01*
X172370609Y-64363262D01*
X172512822Y-64290682D01*
X172650628Y-64216313D01*
X172783950Y-64140237D01*
X172912715Y-64062537D01*
X173036848Y-63983294D01*
X173156274Y-63902590D01*
X173270917Y-63820508D01*
X173380704Y-63737129D01*
X173485559Y-63652536D01*
X173585408Y-63566811D01*
X173680175Y-63480035D01*
X173769786Y-63392292D01*
X173854166Y-63303662D01*
X173933240Y-63214228D01*
X174006934Y-63124072D01*
X174075172Y-63033276D01*
X174137880Y-62941922D01*
X174194982Y-62850093D01*
X174246405Y-62757870D01*
X174292072Y-62665335D01*
X174331910Y-62572570D01*
X174365844Y-62479658D01*
X174393798Y-62386681D01*
X174415698Y-62293720D01*
X174431469Y-62200857D01*
X174441036Y-62108176D01*
X174444324Y-62015757D01*
X174441259Y-61923683D01*
X174431765Y-61832036D01*
X174415768Y-61740898D01*
X174393194Y-61650350D01*
X174363966Y-61560476D01*
X174346615Y-61515628D01*
X174305958Y-61430926D01*
X174254935Y-61356040D01*
X174190638Y-61294758D01*
X174110155Y-61250869D01*
X174010577Y-61228160D01*
X173888994Y-61230419D01*
X173781616Y-61250778D01*
X173658996Y-61288911D01*
X173466611Y-61374602D01*
X173290656Y-61484183D01*
X173208739Y-61547283D01*
X173130808Y-61615577D01*
X173056822Y-61688804D01*
X172986741Y-61766706D01*
X172920524Y-61849022D01*
X172858130Y-61935493D01*
X172799519Y-62025858D01*
X172744651Y-62119859D01*
X172693484Y-62217235D01*
X172645978Y-62317726D01*
X172602092Y-62421074D01*
X172561787Y-62527018D01*
X172525020Y-62635298D01*
X172491752Y-62745655D01*
X172461943Y-62857829D01*
X172435550Y-62971560D01*
X172412534Y-63086589D01*
X172392854Y-63202656D01*
X172376470Y-63319501D01*
X172363341Y-63436864D01*
X172353426Y-63554485D01*
X172346684Y-63672106D01*
X172343076Y-63789466D01*
X172342560Y-63906305D01*
X170882869Y-63906305D01*
X170895784Y-63817036D01*
X170930378Y-63631534D01*
X170973297Y-63445382D01*
X171024918Y-63259237D01*
X171085619Y-63073760D01*
X171155777Y-62889609D01*
X171235770Y-62707443D01*
X171325976Y-62527922D01*
X171426771Y-62351704D01*
X171538534Y-62179448D01*
X171661643Y-62011814D01*
X171796474Y-61849461D01*
X171943405Y-61693048D01*
X172102815Y-61543233D01*
X172275079Y-61400676D01*
X172460577Y-61266037D01*
X172659686Y-61139973D01*
X172872782Y-61023144D01*
X173100245Y-60916210D01*
X173342450Y-60819829D01*
X173491871Y-60768510D01*
X173641367Y-60723760D01*
X173790125Y-60686578D01*
X173937329Y-60657959D01*
X174082167Y-60638901D01*
X174223823Y-60630400D01*
X174361485Y-60633453D01*
G37*
G36*
X179683437Y-58696421D02*
G01*
X179816290Y-58712026D01*
X179943520Y-58741178D01*
X180064313Y-58784876D01*
X180177854Y-58844115D01*
X180283331Y-58919892D01*
X180379928Y-59013205D01*
X180466832Y-59125050D01*
X180543229Y-59256425D01*
X180577233Y-59329747D01*
X180608305Y-59408325D01*
X180644331Y-59519801D01*
X180671517Y-59631783D01*
X180689943Y-59744197D01*
X180699686Y-59856973D01*
X180700827Y-59970035D01*
X180693445Y-60083313D01*
X180677619Y-60196733D01*
X180653429Y-60310223D01*
X180620953Y-60423710D01*
X180580272Y-60537121D01*
X180531464Y-60650384D01*
X180474609Y-60763426D01*
X180409785Y-60876175D01*
X180337073Y-60988558D01*
X180256552Y-61100501D01*
X180168301Y-61211933D01*
X180072399Y-61322781D01*
X179968926Y-61432972D01*
X179857960Y-61542434D01*
X179739582Y-61651094D01*
X179613870Y-61758879D01*
X179480904Y-61865716D01*
X179340763Y-61971534D01*
X179193527Y-62076258D01*
X179039274Y-62179818D01*
X178878084Y-62282139D01*
X178710037Y-62383150D01*
X178535211Y-62482778D01*
X178353687Y-62580949D01*
X178165542Y-62677592D01*
X177970857Y-62772634D01*
X177769711Y-62866001D01*
X177772273Y-62877320D01*
X177791956Y-62954367D01*
X177817522Y-63038600D01*
X177845301Y-63120078D01*
X177874187Y-63200178D01*
X177925613Y-63329119D01*
X177981927Y-63446004D01*
X178043543Y-63550786D01*
X178110877Y-63643417D01*
X178184342Y-63723851D01*
X178264352Y-63792039D01*
X178351322Y-63847935D01*
X178445666Y-63891492D01*
X178547798Y-63922662D01*
X178658132Y-63941399D01*
X178777082Y-63947654D01*
X178905063Y-63941381D01*
X179042489Y-63922533D01*
X179189774Y-63891063D01*
X179347332Y-63846922D01*
X179515577Y-63790065D01*
X179633751Y-63744674D01*
X179749605Y-63695403D01*
X179863002Y-63642354D01*
X179973809Y-63585627D01*
X180081889Y-63525323D01*
X180187109Y-63461544D01*
X180289334Y-63394389D01*
X180388427Y-63323961D01*
X180484255Y-63250359D01*
X180576682Y-63173685D01*
X180665573Y-63094040D01*
X180750794Y-63011525D01*
X180832209Y-62926240D01*
X180909683Y-62838286D01*
X180983082Y-62747765D01*
X181052270Y-62654777D01*
X181061542Y-62758647D01*
X181064830Y-62859753D01*
X181062279Y-62958141D01*
X181054038Y-63053858D01*
X181040255Y-63146953D01*
X181021076Y-63237472D01*
X180996649Y-63325463D01*
X180967122Y-63410971D01*
X180932642Y-63494046D01*
X180849415Y-63653081D01*
X180748148Y-63802946D01*
X180630021Y-63944018D01*
X180496214Y-64076674D01*
X180347908Y-64201293D01*
X180186282Y-64318251D01*
X180012518Y-64427927D01*
X179827795Y-64530697D01*
X179731692Y-64579611D01*
X179633293Y-64626940D01*
X179532745Y-64672732D01*
X179430194Y-64717033D01*
X179325789Y-64759891D01*
X179219677Y-64801354D01*
X179112005Y-64841467D01*
X179007172Y-64878049D01*
X178902003Y-64911564D01*
X178796653Y-64941900D01*
X178691276Y-64968945D01*
X178586026Y-64992586D01*
X178481055Y-65012711D01*
X178376518Y-65029205D01*
X178169361Y-65050856D01*
X177965784Y-65056636D01*
X177767016Y-65045644D01*
X177574289Y-65016980D01*
X177480574Y-64995739D01*
X177388831Y-64969741D01*
X177299212Y-64938874D01*
X177211872Y-64903026D01*
X177126965Y-64862083D01*
X177044643Y-64815934D01*
X176965062Y-64764464D01*
X176888373Y-64707562D01*
X176814733Y-64645115D01*
X176744293Y-64577010D01*
X176677208Y-64503135D01*
X176613631Y-64423377D01*
X176553717Y-64337622D01*
X176497619Y-64245759D01*
X176445490Y-64147675D01*
X176397485Y-64043257D01*
X176353757Y-63932393D01*
X176314490Y-63815331D01*
X176278639Y-63689051D01*
X176246582Y-63554211D01*
X176218697Y-63411469D01*
X176195360Y-63261486D01*
X176176950Y-63104920D01*
X176163844Y-62942431D01*
X176156419Y-62774676D01*
X176155054Y-62602317D01*
X176160126Y-62426010D01*
X176172011Y-62246417D01*
X176191089Y-62064195D01*
X176204821Y-61969273D01*
X177664512Y-61969273D01*
X177667049Y-62085332D01*
X177672596Y-62200351D01*
X177681114Y-62314070D01*
X177692561Y-62426230D01*
X177834775Y-62353650D01*
X177972580Y-62279281D01*
X178105902Y-62203205D01*
X178234668Y-62125504D01*
X178358800Y-62046261D01*
X178478226Y-61965558D01*
X178592870Y-61883476D01*
X178702656Y-61800097D01*
X178807511Y-61715504D01*
X178907360Y-61629779D01*
X179002127Y-61543003D01*
X179091738Y-61455260D01*
X179176118Y-61366630D01*
X179255193Y-61277196D01*
X179328886Y-61187040D01*
X179397124Y-61096244D01*
X179459832Y-61004890D01*
X179516934Y-60913061D01*
X179568357Y-60820838D01*
X179614024Y-60728303D01*
X179653862Y-60635538D01*
X179687796Y-60542626D01*
X179715750Y-60449648D01*
X179737650Y-60356688D01*
X179753421Y-60263825D01*
X179762988Y-60171144D01*
X179766276Y-60078725D01*
X179763211Y-59986651D01*
X179753717Y-59895004D01*
X179737720Y-59803865D01*
X179715146Y-59713318D01*
X179685918Y-59623444D01*
X179668567Y-59578596D01*
X179627910Y-59493894D01*
X179576888Y-59419008D01*
X179512590Y-59357726D01*
X179432107Y-59313837D01*
X179332529Y-59291127D01*
X179210946Y-59293387D01*
X179103568Y-59313746D01*
X178980948Y-59351879D01*
X178788563Y-59437569D01*
X178612608Y-59547151D01*
X178530691Y-59610251D01*
X178452760Y-59678545D01*
X178378774Y-59751772D01*
X178308693Y-59829674D01*
X178242476Y-59911990D01*
X178180082Y-59998460D01*
X178121471Y-60088826D01*
X178066603Y-60182827D01*
X178015436Y-60280202D01*
X177967930Y-60380694D01*
X177924045Y-60484042D01*
X177883739Y-60589985D01*
X177846972Y-60698266D01*
X177813705Y-60808623D01*
X177783895Y-60920797D01*
X177757502Y-61034528D01*
X177734486Y-61149557D01*
X177714806Y-61265624D01*
X177698422Y-61382468D01*
X177685293Y-61499832D01*
X177675378Y-61617453D01*
X177668637Y-61735074D01*
X177665028Y-61852434D01*
X177664512Y-61969273D01*
X176204821Y-61969273D01*
X176217736Y-61880003D01*
X176252330Y-61694502D01*
X176295249Y-61508350D01*
X176346870Y-61322205D01*
X176407571Y-61136728D01*
X176477729Y-60952577D01*
X176557722Y-60770411D01*
X176647928Y-60590890D01*
X176748723Y-60414672D01*
X176860487Y-60242416D01*
X176983595Y-60074782D01*
X177118426Y-59912429D01*
X177265357Y-59756015D01*
X177424767Y-59606201D01*
X177597031Y-59463644D01*
X177782529Y-59329004D01*
X177981638Y-59202941D01*
X178194734Y-59086112D01*
X178422197Y-58979178D01*
X178664402Y-58882797D01*
X178813823Y-58831478D01*
X178963319Y-58786728D01*
X179112077Y-58749546D01*
X179259281Y-58720927D01*
X179404119Y-58701869D01*
X179545776Y-58693368D01*
X179683437Y-58696421D01*
G37*
G36*
X132939924Y-93716066D02*
G01*
X132897720Y-93820795D01*
X132853746Y-93923227D01*
X132807949Y-94023388D01*
X132760275Y-94121304D01*
X132710671Y-94217001D01*
X132659084Y-94310506D01*
X132605461Y-94401845D01*
X132549748Y-94491044D01*
X132491892Y-94578129D01*
X132431839Y-94663127D01*
X132369537Y-94746064D01*
X132304932Y-94826966D01*
X132237971Y-94905859D01*
X132168601Y-94982770D01*
X132096768Y-95057724D01*
X132022419Y-95130749D01*
X131945501Y-95201870D01*
X131865961Y-95271114D01*
X131783745Y-95338506D01*
X131698800Y-95404073D01*
X131611072Y-95467842D01*
X131520509Y-95529838D01*
X131427058Y-95590088D01*
X131330664Y-95648618D01*
X131231275Y-95705454D01*
X131128837Y-95760623D01*
X131023298Y-95814150D01*
X130914603Y-95866063D01*
X130802700Y-95916387D01*
X130687535Y-95965148D01*
X130569056Y-96012372D01*
X130447208Y-96058087D01*
X130266718Y-96120728D01*
X130093873Y-96174603D01*
X129928479Y-96219964D01*
X129770340Y-96257065D01*
X129619260Y-96286158D01*
X129475044Y-96307495D01*
X129337497Y-96321330D01*
X129206422Y-96327916D01*
X129081626Y-96327505D01*
X128962912Y-96320349D01*
X128850084Y-96306702D01*
X128742948Y-96286817D01*
X128641308Y-96260945D01*
X128544969Y-96229340D01*
X128453735Y-96192255D01*
X128367411Y-96149942D01*
X128285801Y-96102654D01*
X128208710Y-96050643D01*
X128135942Y-95994163D01*
X128067303Y-95933467D01*
X128002596Y-95868806D01*
X127941626Y-95800434D01*
X127884199Y-95728603D01*
X127830117Y-95653567D01*
X127779187Y-95575577D01*
X127731212Y-95494887D01*
X127685998Y-95411750D01*
X127643348Y-95326417D01*
X127603067Y-95239143D01*
X127564961Y-95150179D01*
X127528832Y-95059778D01*
X127494487Y-94968194D01*
X127425233Y-94765691D01*
X127362437Y-94556618D01*
X127306267Y-94341664D01*
X127256895Y-94121517D01*
X127214490Y-93896866D01*
X127179223Y-93668401D01*
X127151263Y-93436810D01*
X127130781Y-93202782D01*
X127117947Y-92967006D01*
X127112931Y-92730171D01*
X127115903Y-92492966D01*
X127127034Y-92256080D01*
X127146493Y-92020201D01*
X127174450Y-91786018D01*
X127211076Y-91554221D01*
X127256541Y-91325499D01*
X127311014Y-91100539D01*
X127374666Y-90880032D01*
X127447668Y-90664665D01*
X127530189Y-90455129D01*
X127622399Y-90252111D01*
X127724468Y-90056301D01*
X127836567Y-89868388D01*
X127958866Y-89689060D01*
X128091534Y-89519006D01*
X128234742Y-89358916D01*
X128388661Y-89209478D01*
X128553459Y-89071381D01*
X128729308Y-88945314D01*
X128916377Y-88831966D01*
X129114837Y-88732026D01*
X129324857Y-88646182D01*
X129447331Y-88604816D01*
X129565609Y-88571377D01*
X129679460Y-88545915D01*
X129788657Y-88528479D01*
X129892970Y-88519120D01*
X130039781Y-88520334D01*
X130174316Y-88540000D01*
X130295802Y-88578287D01*
X130403466Y-88635363D01*
X130496534Y-88711395D01*
X130550091Y-88772699D01*
X130596588Y-88842552D01*
X130635797Y-88921004D01*
X130652597Y-88963471D01*
X130683606Y-89061482D01*
X130706297Y-89160872D01*
X130721173Y-89260932D01*
X130728739Y-89360951D01*
X130729498Y-89460219D01*
X130723954Y-89558025D01*
X130712610Y-89653660D01*
X130695971Y-89746412D01*
X130674539Y-89835572D01*
X130648820Y-89920430D01*
X130603301Y-90038095D01*
X130550968Y-90142085D01*
X130493519Y-90230001D01*
X130432656Y-90299446D01*
X130540197Y-90330455D01*
X130641036Y-90341371D01*
X130748960Y-90339752D01*
X130861050Y-90326565D01*
X130974387Y-90302778D01*
X131086049Y-90269358D01*
X131107924Y-90261603D01*
X131239014Y-90208397D01*
X131356130Y-90149637D01*
X131459713Y-90085685D01*
X131550204Y-90016900D01*
X131628045Y-89943643D01*
X131693675Y-89866274D01*
X131747536Y-89785153D01*
X131790070Y-89700641D01*
X131821717Y-89613098D01*
X131842919Y-89522884D01*
X131854116Y-89430360D01*
X131855749Y-89335886D01*
X131848260Y-89239822D01*
X131832090Y-89142529D01*
X131807680Y-89044366D01*
X131775470Y-88945695D01*
X131737527Y-88851123D01*
X131694836Y-88762538D01*
X131647538Y-88679836D01*
X131595770Y-88602912D01*
X131539673Y-88531663D01*
X131479384Y-88465983D01*
X131415044Y-88405769D01*
X131346790Y-88350917D01*
X131274762Y-88301322D01*
X131199100Y-88256880D01*
X131037425Y-88183037D01*
X130862879Y-88128554D01*
X130676572Y-88092598D01*
X130479617Y-88074333D01*
X130377494Y-88071575D01*
X130273126Y-88072926D01*
X130166652Y-88078284D01*
X130058211Y-88087543D01*
X129947941Y-88100599D01*
X129835983Y-88117349D01*
X129722474Y-88137687D01*
X129607554Y-88161510D01*
X129491363Y-88188713D01*
X129374038Y-88219192D01*
X129255719Y-88252842D01*
X129136545Y-88289560D01*
X129016654Y-88329242D01*
X128896187Y-88371782D01*
X128542779Y-88512127D01*
X128212081Y-88666911D01*
X127903476Y-88835268D01*
X127616346Y-89016332D01*
X127350072Y-89209237D01*
X127104039Y-89413118D01*
X126877627Y-89627110D01*
X126670220Y-89850346D01*
X126481199Y-90081961D01*
X126309948Y-90321089D01*
X126155847Y-90566866D01*
X126018281Y-90818424D01*
X125896630Y-91074899D01*
X125790278Y-91335424D01*
X125698606Y-91599135D01*
X125620997Y-91865165D01*
X125556834Y-92132650D01*
X125505499Y-92400722D01*
X125466373Y-92668518D01*
X125438840Y-92935170D01*
X125422282Y-93199814D01*
X125416081Y-93461584D01*
X125419619Y-93719614D01*
X125432280Y-93973038D01*
X125453444Y-94220992D01*
X125482495Y-94462608D01*
X125518814Y-94697023D01*
X125561785Y-94923369D01*
X125610789Y-95140782D01*
X125665210Y-95348396D01*
X125724428Y-95545344D01*
X125787827Y-95730763D01*
X125851616Y-95896151D01*
X125919535Y-96053253D01*
X125991551Y-96202133D01*
X126067631Y-96342856D01*
X126147740Y-96475485D01*
X126231845Y-96600086D01*
X126319913Y-96716723D01*
X126411909Y-96825460D01*
X126507801Y-96926361D01*
X126607554Y-97019491D01*
X126711136Y-97104915D01*
X126818511Y-97182696D01*
X126929648Y-97252900D01*
X127044511Y-97315590D01*
X127163068Y-97370831D01*
X127285284Y-97418687D01*
X127411127Y-97459223D01*
X127540563Y-97492503D01*
X127673557Y-97518591D01*
X127810077Y-97537553D01*
X127950088Y-97549452D01*
X128093558Y-97554352D01*
X128240452Y-97552319D01*
X128390737Y-97543416D01*
X128544379Y-97527708D01*
X128701344Y-97505259D01*
X128861600Y-97476134D01*
X129025112Y-97440398D01*
X129191846Y-97398113D01*
X129361770Y-97349346D01*
X129534849Y-97294160D01*
X129711051Y-97232620D01*
X129877065Y-97169897D01*
X130041272Y-97103251D01*
X130203507Y-97032767D01*
X130363606Y-96958530D01*
X130521404Y-96880623D01*
X130676737Y-96799132D01*
X130829440Y-96714141D01*
X130979349Y-96625735D01*
X131126300Y-96533999D01*
X131270127Y-96439016D01*
X131410666Y-96340872D01*
X131547754Y-96239652D01*
X131681225Y-96135439D01*
X131810915Y-96028319D01*
X131936659Y-95918376D01*
X132058293Y-95805694D01*
X132175653Y-95690359D01*
X132288574Y-95572455D01*
X132396891Y-95452067D01*
X132500441Y-95329278D01*
X132599058Y-95204175D01*
X132692578Y-95076841D01*
X132780837Y-94947360D01*
X132863670Y-94815819D01*
X132940913Y-94682301D01*
X133012401Y-94546890D01*
X133077970Y-94409672D01*
X133137455Y-94270731D01*
X133190692Y-94130152D01*
X133237517Y-93988019D01*
X133277764Y-93844417D01*
X133311270Y-93699430D01*
X132939924Y-93716066D01*
G37*
G36*
X137897955Y-93834882D02*
G01*
X138073942Y-93717727D01*
X138239059Y-93599868D01*
X138393407Y-93480360D01*
X138537087Y-93358259D01*
X138670199Y-93232622D01*
X138792843Y-93102504D01*
X138905120Y-92966961D01*
X139007129Y-92825048D01*
X139098971Y-92675822D01*
X139180746Y-92518338D01*
X139217890Y-92436204D01*
X139252555Y-92351652D01*
X139284753Y-92264563D01*
X139314497Y-92174820D01*
X139341800Y-92082304D01*
X139366674Y-91986898D01*
X139389132Y-91888483D01*
X139409185Y-91786941D01*
X139426848Y-91682155D01*
X139442131Y-91574006D01*
X139455048Y-91462376D01*
X139465612Y-91347148D01*
X140003361Y-91151423D01*
X139988810Y-91311627D01*
X139970971Y-91465626D01*
X139949845Y-91613632D01*
X139925436Y-91755857D01*
X139897746Y-91892513D01*
X139866776Y-92023811D01*
X139832530Y-92149964D01*
X139795009Y-92271185D01*
X139754217Y-92387684D01*
X139710154Y-92499674D01*
X139662824Y-92607366D01*
X139612228Y-92710974D01*
X139558370Y-92810708D01*
X139501251Y-92906781D01*
X139440873Y-92999406D01*
X139377240Y-93088792D01*
X139310352Y-93175154D01*
X139240214Y-93258703D01*
X139166826Y-93339650D01*
X139090191Y-93418208D01*
X139010311Y-93494589D01*
X138927190Y-93569005D01*
X138840828Y-93641668D01*
X138751228Y-93712789D01*
X138658394Y-93782581D01*
X138562326Y-93851256D01*
X138463027Y-93919026D01*
X138360500Y-93986103D01*
X138254747Y-94052698D01*
X138145769Y-94119024D01*
X138033570Y-94185293D01*
X137918152Y-94251717D01*
X137962036Y-94961435D01*
X137969137Y-95108253D01*
X137972907Y-95248764D01*
X137973364Y-95383145D01*
X137970526Y-95511572D01*
X137964410Y-95634220D01*
X137955033Y-95751264D01*
X137942412Y-95862881D01*
X137926566Y-95969246D01*
X137907510Y-96070534D01*
X137885264Y-96166922D01*
X137859843Y-96258586D01*
X137831265Y-96345700D01*
X137764710Y-96506983D01*
X137685736Y-96652177D01*
X137594482Y-96782689D01*
X137491087Y-96899922D01*
X137375690Y-97005283D01*
X137248429Y-97100178D01*
X137109444Y-97186010D01*
X136958873Y-97264187D01*
X136796855Y-97336113D01*
X136623528Y-97403194D01*
X136458888Y-97459595D01*
X136296801Y-97507866D01*
X136137976Y-97547518D01*
X135983122Y-97578061D01*
X135832951Y-97599005D01*
X135688170Y-97609860D01*
X135549490Y-97610137D01*
X135417620Y-97599345D01*
X135293271Y-97576996D01*
X135177151Y-97542599D01*
X135069970Y-97495664D01*
X134972438Y-97435701D01*
X134885265Y-97362222D01*
X134809160Y-97274736D01*
X134744832Y-97172753D01*
X134692992Y-97055784D01*
X134662749Y-96928817D01*
X134660664Y-96795652D01*
X134671562Y-96732975D01*
X135232698Y-96732975D01*
X135255171Y-96840771D01*
X135272161Y-96880657D01*
X135317562Y-96951400D01*
X135377529Y-97009044D01*
X135471755Y-97060745D01*
X135585936Y-97087516D01*
X135690602Y-97089318D01*
X135806247Y-97072309D01*
X135932073Y-97035219D01*
X135980916Y-97015891D01*
X136111953Y-96945352D01*
X136221092Y-96856591D01*
X136310058Y-96750387D01*
X136359014Y-96670279D01*
X136400282Y-96582997D01*
X136434375Y-96488771D01*
X136461803Y-96387834D01*
X136483078Y-96280415D01*
X136498711Y-96166747D01*
X136509213Y-96047061D01*
X136515096Y-95921587D01*
X136516871Y-95790557D01*
X136515049Y-95654202D01*
X136510143Y-95512754D01*
X136494178Y-95154680D01*
X136406139Y-95221125D01*
X136321276Y-95286971D01*
X136161084Y-95416747D01*
X136013604Y-95543778D01*
X135878841Y-95667835D01*
X135756800Y-95788687D01*
X135647484Y-95906104D01*
X135550898Y-96019857D01*
X135467046Y-96129715D01*
X135395933Y-96235448D01*
X135337562Y-96336827D01*
X135291939Y-96433621D01*
X135259066Y-96525600D01*
X135238948Y-96612534D01*
X135232698Y-96732975D01*
X134671562Y-96732975D01*
X134684752Y-96657115D01*
X134733027Y-96514034D01*
X134803502Y-96367234D01*
X134894191Y-96217542D01*
X135003110Y-96065784D01*
X135063784Y-95989389D01*
X135128271Y-95912787D01*
X135196322Y-95836081D01*
X135267689Y-95759376D01*
X135342123Y-95682774D01*
X135419377Y-95606379D01*
X135499203Y-95530294D01*
X135581351Y-95454622D01*
X135665574Y-95379466D01*
X135751624Y-95304930D01*
X135839252Y-95231118D01*
X135928210Y-95158131D01*
X136018249Y-95086075D01*
X136109122Y-95015051D01*
X136200581Y-94945164D01*
X136292377Y-94876516D01*
X136384261Y-94809212D01*
X136475986Y-94743353D01*
X136422226Y-94014357D01*
X136391068Y-94068592D01*
X136326071Y-94173441D01*
X136257669Y-94273478D01*
X136186061Y-94368721D01*
X136111445Y-94459189D01*
X136034022Y-94544900D01*
X135953991Y-94625875D01*
X135871552Y-94702130D01*
X135786903Y-94773685D01*
X135700245Y-94840560D01*
X135611777Y-94902772D01*
X135521698Y-94960340D01*
X135383997Y-95038026D01*
X135243794Y-95105371D01*
X135101762Y-95162435D01*
X135020219Y-95190342D01*
X134856749Y-95235780D01*
X134693554Y-95267358D01*
X134531577Y-95285046D01*
X134371762Y-95288815D01*
X134215054Y-95278634D01*
X134062396Y-95254474D01*
X133914733Y-95216305D01*
X133773008Y-95164097D01*
X133638165Y-95097820D01*
X133511150Y-95017445D01*
X133392905Y-94922941D01*
X133284374Y-94814278D01*
X133186502Y-94691427D01*
X133141858Y-94624672D01*
X133100233Y-94554358D01*
X133061744Y-94480482D01*
X133026510Y-94403041D01*
X132994649Y-94322030D01*
X132983157Y-94289442D01*
X132956951Y-94205968D01*
X132934382Y-94119579D01*
X132915494Y-94030214D01*
X132900329Y-93937810D01*
X132888929Y-93842302D01*
X132881337Y-93743628D01*
X132614246Y-89946233D01*
X134076016Y-89414192D01*
X134346597Y-93441124D01*
X134347716Y-93481325D01*
X134355674Y-93570622D01*
X134370092Y-93653986D01*
X134389701Y-93731879D01*
X134416841Y-93814791D01*
X134431722Y-93853073D01*
X134483227Y-93956497D01*
X134544256Y-94043214D01*
X134613820Y-94113769D01*
X134690931Y-94168707D01*
X134774598Y-94208573D01*
X134894646Y-94239224D01*
X135022248Y-94245340D01*
X135155060Y-94228215D01*
X135290740Y-94189139D01*
X135393377Y-94146137D01*
X135495238Y-94092253D01*
X135595407Y-94028015D01*
X135692969Y-93953945D01*
X135787010Y-93870570D01*
X135876616Y-93778413D01*
X135960871Y-93678000D01*
X136038861Y-93569855D01*
X136109671Y-93454504D01*
X136172387Y-93332470D01*
X136226093Y-93204279D01*
X136269876Y-93070456D01*
X136302821Y-92931525D01*
X136324013Y-92788012D01*
X136332536Y-92640440D01*
X136327478Y-92489335D01*
X136057862Y-88692859D01*
X137507008Y-88165413D01*
X137897955Y-93834882D01*
G37*
G36*
X140673656Y-87478620D02*
G01*
X140733163Y-87404443D01*
X140824909Y-87297250D01*
X140920194Y-87195054D01*
X141019641Y-87097977D01*
X141123875Y-87006141D01*
X141233520Y-86919669D01*
X141349199Y-86838683D01*
X141471537Y-86763306D01*
X141601157Y-86693659D01*
X141738685Y-86629866D01*
X141884743Y-86572048D01*
X141970752Y-86541553D01*
X142145741Y-86484980D01*
X142323755Y-86436068D01*
X142503670Y-86396941D01*
X142684361Y-86369722D01*
X142864705Y-86356535D01*
X143043577Y-86359506D01*
X143219853Y-86380757D01*
X143392409Y-86422413D01*
X143560121Y-86486597D01*
X143641809Y-86527801D01*
X143721864Y-86575434D01*
X143800146Y-86629761D01*
X143876515Y-86691048D01*
X143950830Y-86759559D01*
X144022950Y-86835562D01*
X144092734Y-86919320D01*
X144160043Y-87011101D01*
X144224736Y-87111168D01*
X144286672Y-87219788D01*
X144345711Y-87337227D01*
X144401712Y-87463749D01*
X144454534Y-87599620D01*
X144506579Y-87757440D01*
X144549817Y-87920385D01*
X144584252Y-88087958D01*
X144609886Y-88259666D01*
X144626725Y-88435011D01*
X144634771Y-88613501D01*
X144634027Y-88794639D01*
X144624498Y-88977930D01*
X144606187Y-89162879D01*
X144579098Y-89348992D01*
X144543234Y-89535772D01*
X144498598Y-89722726D01*
X144445194Y-89909357D01*
X144383026Y-90095171D01*
X144312097Y-90279672D01*
X144232411Y-90462366D01*
X144143971Y-90642758D01*
X144046782Y-90820351D01*
X143940845Y-90994652D01*
X143826166Y-91165164D01*
X143702747Y-91331394D01*
X143570592Y-91492845D01*
X143429705Y-91649023D01*
X143280089Y-91799432D01*
X143121748Y-91943578D01*
X142954685Y-92080966D01*
X142778904Y-92211099D01*
X142594408Y-92333484D01*
X142401202Y-92447625D01*
X142199287Y-92553026D01*
X141988669Y-92649194D01*
X141769350Y-92735632D01*
X141581747Y-92800316D01*
X141399750Y-92855316D01*
X141223687Y-92899833D01*
X141053889Y-92933073D01*
X140890687Y-92954239D01*
X140734409Y-92962534D01*
X140585386Y-92957162D01*
X140443949Y-92937327D01*
X140310426Y-92902233D01*
X140185148Y-92851083D01*
X140068446Y-92783081D01*
X139960649Y-92697431D01*
X139862086Y-92593336D01*
X139773089Y-92470000D01*
X139732280Y-92400867D01*
X139693987Y-92326626D01*
X139658250Y-92247177D01*
X139625110Y-92162419D01*
X139617183Y-92140250D01*
X139587317Y-92048952D01*
X139560381Y-91953762D01*
X139536353Y-91855076D01*
X139515209Y-91753293D01*
X139501232Y-91675163D01*
X139488855Y-91595683D01*
X139478068Y-91515021D01*
X139468864Y-91433345D01*
X139461231Y-91350822D01*
X139244275Y-88020310D01*
X140739296Y-88020310D01*
X140908447Y-91140139D01*
X140909514Y-91155474D01*
X140916824Y-91244576D01*
X140926400Y-91329083D01*
X140939232Y-91409541D01*
X140956311Y-91486493D01*
X140982924Y-91572566D01*
X141024832Y-91667455D01*
X141076415Y-91748601D01*
X141137542Y-91815918D01*
X141208083Y-91869319D01*
X141316557Y-91918725D01*
X141441227Y-91943036D01*
X141545171Y-91944676D01*
X141657922Y-91931999D01*
X141779348Y-91904918D01*
X141909320Y-91863347D01*
X142027633Y-91815519D01*
X142141133Y-91760121D01*
X142249793Y-91697482D01*
X142353584Y-91627929D01*
X142452476Y-91551788D01*
X142546442Y-91469386D01*
X142635453Y-91381052D01*
X142719480Y-91287111D01*
X142798495Y-91187892D01*
X142872470Y-91083721D01*
X142941375Y-90974926D01*
X143005182Y-90861833D01*
X143063863Y-90744771D01*
X143117389Y-90624065D01*
X143165732Y-90500044D01*
X143208863Y-90373034D01*
X143246753Y-90243362D01*
X143279373Y-90111356D01*
X143306697Y-89977343D01*
X143328693Y-89841650D01*
X143345336Y-89704605D01*
X143356594Y-89566533D01*
X143362441Y-89427764D01*
X143362848Y-89288623D01*
X143357785Y-89149438D01*
X143347225Y-89010536D01*
X143331139Y-88872244D01*
X143309498Y-88734889D01*
X143282274Y-88598799D01*
X143249438Y-88464301D01*
X143210962Y-88331722D01*
X143166817Y-88201389D01*
X143108736Y-88054514D01*
X143045324Y-87918388D01*
X142976675Y-87793258D01*
X142902882Y-87679368D01*
X142824041Y-87576966D01*
X142740243Y-87486298D01*
X142651583Y-87407609D01*
X142558155Y-87341145D01*
X142460052Y-87287154D01*
X142357369Y-87245880D01*
X142250198Y-87217570D01*
X142138635Y-87202470D01*
X142022771Y-87200827D01*
X141902702Y-87212885D01*
X141778521Y-87238892D01*
X141650322Y-87279094D01*
X141581076Y-87306248D01*
X141481755Y-87352418D01*
X141387369Y-87404886D01*
X141297330Y-87463393D01*
X141211049Y-87527680D01*
X141127936Y-87597489D01*
X141047404Y-87672561D01*
X140968862Y-87752638D01*
X140891723Y-87837461D01*
X140815397Y-87926771D01*
X140739296Y-88020310D01*
X139244275Y-88020310D01*
X139071695Y-85371017D01*
X140491288Y-84683822D01*
X140673656Y-87478620D01*
G37*
G36*
X148808923Y-84236375D02*
G01*
X148941776Y-84251979D01*
X149069006Y-84281132D01*
X149189799Y-84324829D01*
X149303340Y-84384068D01*
X149408817Y-84459846D01*
X149505414Y-84553159D01*
X149592318Y-84665004D01*
X149668715Y-84796378D01*
X149702719Y-84869700D01*
X149733790Y-84948278D01*
X149769817Y-85059755D01*
X149797003Y-85171736D01*
X149815428Y-85284151D01*
X149825172Y-85396926D01*
X149826313Y-85509989D01*
X149818931Y-85623267D01*
X149803105Y-85736687D01*
X149778915Y-85850177D01*
X149746439Y-85963664D01*
X149705758Y-86077075D01*
X149656950Y-86190338D01*
X149600095Y-86303380D01*
X149535271Y-86416129D01*
X149462559Y-86528511D01*
X149382038Y-86640455D01*
X149293787Y-86751887D01*
X149197885Y-86862735D01*
X149094412Y-86972926D01*
X148983446Y-87082388D01*
X148865068Y-87191047D01*
X148739356Y-87298832D01*
X148606390Y-87405670D01*
X148466249Y-87511487D01*
X148319013Y-87616212D01*
X148164760Y-87719772D01*
X148003570Y-87822093D01*
X147835523Y-87923104D01*
X147660697Y-88022731D01*
X147479173Y-88120903D01*
X147291028Y-88217546D01*
X147096343Y-88312587D01*
X146895197Y-88405955D01*
X146897759Y-88417274D01*
X146917442Y-88494321D01*
X146943008Y-88578553D01*
X146970787Y-88660031D01*
X146999673Y-88740131D01*
X147051098Y-88869073D01*
X147107412Y-88985958D01*
X147169029Y-89090740D01*
X147236363Y-89183371D01*
X147309828Y-89263804D01*
X147389838Y-89331993D01*
X147476808Y-89387889D01*
X147571152Y-89431446D01*
X147673284Y-89462616D01*
X147783618Y-89481352D01*
X147902568Y-89487608D01*
X148030549Y-89481335D01*
X148167975Y-89462487D01*
X148315260Y-89431016D01*
X148472818Y-89386876D01*
X148641063Y-89330019D01*
X148726273Y-89297909D01*
X148895119Y-89227579D01*
X149061494Y-89149004D01*
X149224949Y-89062068D01*
X149385036Y-88966654D01*
X149541306Y-88862644D01*
X149693309Y-88749923D01*
X149840598Y-88628372D01*
X149982723Y-88497876D01*
X150119235Y-88358318D01*
X150185246Y-88285104D01*
X150249686Y-88209580D01*
X150312499Y-88131732D01*
X150373627Y-88051545D01*
X150433016Y-87969005D01*
X150490610Y-87884097D01*
X150546351Y-87796807D01*
X150600184Y-87707120D01*
X150652054Y-87615020D01*
X150701903Y-87520495D01*
X150749675Y-87423528D01*
X150795316Y-87324106D01*
X150838767Y-87222213D01*
X151303302Y-87053137D01*
X151264595Y-87176936D01*
X151221619Y-87301319D01*
X151174434Y-87426101D01*
X151123098Y-87551095D01*
X151067668Y-87676115D01*
X151008205Y-87800975D01*
X150944765Y-87925489D01*
X150877408Y-88049471D01*
X150806192Y-88172734D01*
X150731176Y-88295093D01*
X150652417Y-88416361D01*
X150569974Y-88536352D01*
X150483906Y-88654880D01*
X150394271Y-88771760D01*
X150301127Y-88886804D01*
X150204533Y-88999827D01*
X150104548Y-89110642D01*
X150001229Y-89219064D01*
X149894636Y-89324906D01*
X149784826Y-89427983D01*
X149671858Y-89528107D01*
X149555790Y-89625094D01*
X149436681Y-89718756D01*
X149314590Y-89808909D01*
X149189574Y-89895364D01*
X149061693Y-89977938D01*
X148931004Y-90056442D01*
X148797565Y-90130692D01*
X148661437Y-90200501D01*
X148522676Y-90265683D01*
X148381341Y-90326052D01*
X148237491Y-90381421D01*
X148132657Y-90418002D01*
X148027489Y-90451518D01*
X147922139Y-90481854D01*
X147816762Y-90508899D01*
X147711512Y-90532540D01*
X147606541Y-90552664D01*
X147502004Y-90569159D01*
X147294847Y-90590809D01*
X147091269Y-90596590D01*
X146892502Y-90585598D01*
X146699775Y-90556934D01*
X146606060Y-90535692D01*
X146514317Y-90509695D01*
X146424698Y-90478828D01*
X146337358Y-90442980D01*
X146252451Y-90402037D01*
X146170129Y-90355887D01*
X146090548Y-90304418D01*
X146013859Y-90247516D01*
X145940219Y-90185069D01*
X145869779Y-90116964D01*
X145802694Y-90043089D01*
X145739117Y-89963330D01*
X145679203Y-89877576D01*
X145623105Y-89785713D01*
X145570976Y-89687629D01*
X145522971Y-89583211D01*
X145479243Y-89472346D01*
X145439976Y-89355285D01*
X145404125Y-89229005D01*
X145372068Y-89094164D01*
X145344183Y-88951423D01*
X145320846Y-88801440D01*
X145302436Y-88644874D01*
X145289330Y-88482384D01*
X145281905Y-88314630D01*
X145280540Y-88142270D01*
X145285611Y-87965964D01*
X145297497Y-87786370D01*
X145316575Y-87604148D01*
X145330307Y-87509227D01*
X146789998Y-87509227D01*
X146792534Y-87625286D01*
X146798082Y-87740305D01*
X146806600Y-87854024D01*
X146818047Y-87966183D01*
X146960261Y-87893603D01*
X147098066Y-87819234D01*
X147231388Y-87743159D01*
X147360154Y-87665458D01*
X147484286Y-87586215D01*
X147603712Y-87505511D01*
X147718356Y-87423429D01*
X147828142Y-87340051D01*
X147932997Y-87255458D01*
X148032846Y-87169732D01*
X148127613Y-87082957D01*
X148217224Y-86995213D01*
X148301604Y-86906583D01*
X148380679Y-86817149D01*
X148454372Y-86726994D01*
X148522610Y-86636198D01*
X148585318Y-86544844D01*
X148642420Y-86453014D01*
X148693843Y-86360791D01*
X148739510Y-86268256D01*
X148779348Y-86175492D01*
X148813282Y-86082580D01*
X148841236Y-85989602D01*
X148863136Y-85896641D01*
X148878907Y-85803779D01*
X148888474Y-85711097D01*
X148891762Y-85618678D01*
X148888697Y-85526604D01*
X148879203Y-85434957D01*
X148863206Y-85343819D01*
X148840632Y-85253272D01*
X148811404Y-85163398D01*
X148794053Y-85118550D01*
X148753396Y-85033848D01*
X148702374Y-84958962D01*
X148638076Y-84897680D01*
X148557593Y-84853790D01*
X148458015Y-84831081D01*
X148336432Y-84833341D01*
X148229054Y-84853700D01*
X148106434Y-84891833D01*
X147914049Y-84977523D01*
X147738094Y-85087104D01*
X147656177Y-85150205D01*
X147578246Y-85218498D01*
X147504260Y-85291726D01*
X147434179Y-85369628D01*
X147367962Y-85451944D01*
X147305568Y-85538414D01*
X147246957Y-85628780D01*
X147192089Y-85722780D01*
X147140922Y-85820156D01*
X147093416Y-85920648D01*
X147049531Y-86023995D01*
X147009225Y-86129939D01*
X146972458Y-86238219D01*
X146939191Y-86348576D01*
X146909381Y-86460750D01*
X146882988Y-86574482D01*
X146859972Y-86689511D01*
X146840292Y-86805577D01*
X146823908Y-86922422D01*
X146810779Y-87039785D01*
X146800864Y-87157407D01*
X146794123Y-87275028D01*
X146790514Y-87392387D01*
X146789998Y-87509227D01*
X145330307Y-87509227D01*
X145343222Y-87419957D01*
X145377816Y-87234456D01*
X145420735Y-87048303D01*
X145472356Y-86862159D01*
X145533057Y-86676682D01*
X145603215Y-86492531D01*
X145683208Y-86310365D01*
X145773414Y-86130843D01*
X145874209Y-85954625D01*
X145985972Y-85782370D01*
X146109081Y-85614736D01*
X146243912Y-85452383D01*
X146390843Y-85295969D01*
X146550253Y-85146154D01*
X146722517Y-85003598D01*
X146908015Y-84868958D01*
X147107124Y-84742894D01*
X147320220Y-84626066D01*
X147547683Y-84519132D01*
X147789888Y-84422751D01*
X147939309Y-84371431D01*
X148088805Y-84326682D01*
X148237563Y-84289499D01*
X148384767Y-84260880D01*
X148529605Y-84241822D01*
X148671262Y-84233321D01*
X148808923Y-84236375D01*
G37*
G36*
X150549326Y-83418398D02*
G01*
X150939010Y-89265071D01*
X152388156Y-88737624D01*
X152109185Y-84420559D01*
X152204184Y-84318070D01*
X152303147Y-84212814D01*
X152405700Y-84106678D01*
X152511468Y-84001543D01*
X152620077Y-83899294D01*
X152731153Y-83801816D01*
X152844321Y-83710991D01*
X152959206Y-83628704D01*
X153075434Y-83556839D01*
X153192631Y-83497279D01*
X153271116Y-83465339D01*
X153380212Y-83432930D01*
X153502061Y-83417487D01*
X153603538Y-83425030D01*
X153712724Y-83452240D01*
X153815439Y-83481806D01*
X153925770Y-83495082D01*
X154057809Y-83473426D01*
X154088061Y-83463262D01*
X154196920Y-83415396D01*
X154318892Y-83344093D01*
X154412045Y-83275792D01*
X154501232Y-83195222D01*
X154581591Y-83102773D01*
X154648262Y-82998839D01*
X154696382Y-82883810D01*
X154715757Y-82801154D01*
X154723286Y-82713857D01*
X154717529Y-82622036D01*
X154697047Y-82525806D01*
X154680833Y-82476075D01*
X154646228Y-82400345D01*
X154600471Y-82333832D01*
X154521569Y-82261014D01*
X154421539Y-82208253D01*
X154299636Y-82177647D01*
X154193407Y-82170494D01*
X154074142Y-82177869D01*
X153941527Y-82200656D01*
X153795249Y-82239742D01*
X153689984Y-82275292D01*
X153545176Y-82334145D01*
X153408640Y-82401723D01*
X153279875Y-82477371D01*
X153158378Y-82560434D01*
X153043647Y-82650258D01*
X152935180Y-82746187D01*
X152832474Y-82847567D01*
X152735028Y-82953743D01*
X152642339Y-83064060D01*
X152553905Y-83177863D01*
X152469223Y-83294497D01*
X152387793Y-83413308D01*
X152309110Y-83533641D01*
X152232674Y-83654840D01*
X152157982Y-83776252D01*
X152084532Y-83897220D01*
X152011095Y-82886357D01*
X150549326Y-83418398D01*
G37*
G36*
X158061818Y-80697042D02*
G01*
X158164443Y-80924290D01*
X158262423Y-81139231D01*
X158355895Y-81342338D01*
X158445001Y-81534085D01*
X158529879Y-81714946D01*
X158610668Y-81885393D01*
X158687508Y-82045901D01*
X158760539Y-82196943D01*
X158829899Y-82338993D01*
X158895729Y-82472524D01*
X158958166Y-82598009D01*
X159017352Y-82715922D01*
X159073425Y-82826738D01*
X159126524Y-82930929D01*
X159176789Y-83028968D01*
X159224360Y-83121330D01*
X159269375Y-83208488D01*
X159311974Y-83290915D01*
X159352297Y-83369086D01*
X159390483Y-83443473D01*
X159426670Y-83514550D01*
X159493610Y-83648670D01*
X159554231Y-83775232D01*
X159609648Y-83898027D01*
X159660976Y-84020841D01*
X159709331Y-84147464D01*
X159721891Y-84183174D01*
X159748206Y-84266642D01*
X159770800Y-84349187D01*
X159790246Y-84429427D01*
X159809352Y-84516531D01*
X159866894Y-84463974D01*
X159952605Y-84383920D01*
X160037341Y-84302778D01*
X160120817Y-84220971D01*
X160202749Y-84138921D01*
X160282852Y-84057050D01*
X160360841Y-83975780D01*
X160436433Y-83895534D01*
X160509342Y-83816733D01*
X160579284Y-83739800D01*
X160645975Y-83665158D01*
X161254414Y-83443704D01*
X161166491Y-83582536D01*
X161076932Y-83717410D01*
X160985912Y-83848436D01*
X160893611Y-83975721D01*
X160800206Y-84099376D01*
X160705876Y-84219508D01*
X160610797Y-84336227D01*
X160515148Y-84449642D01*
X160419106Y-84559861D01*
X160322850Y-84666994D01*
X160226557Y-84771149D01*
X160130405Y-84872435D01*
X160034572Y-84970961D01*
X159939236Y-85066837D01*
X159844574Y-85160170D01*
X159750765Y-85251069D01*
X159699034Y-85394218D01*
X159635494Y-85531613D01*
X159561120Y-85663180D01*
X159476892Y-85788842D01*
X159383786Y-85908525D01*
X159282780Y-86022153D01*
X159174852Y-86129650D01*
X159060979Y-86230940D01*
X158942140Y-86325948D01*
X158819311Y-86414599D01*
X158693471Y-86496816D01*
X158565597Y-86572524D01*
X158436666Y-86641647D01*
X158307656Y-86704111D01*
X158179546Y-86759838D01*
X158053312Y-86808754D01*
X157916794Y-86856130D01*
X157783697Y-86897742D01*
X157654037Y-86933743D01*
X157527827Y-86964289D01*
X157405083Y-86989533D01*
X157285817Y-87009630D01*
X157170044Y-87024734D01*
X157057779Y-87034999D01*
X156949036Y-87040581D01*
X156843829Y-87041632D01*
X156644081Y-87030764D01*
X156458649Y-87003628D01*
X156287647Y-86961459D01*
X156131191Y-86905492D01*
X155989393Y-86836961D01*
X155862370Y-86757102D01*
X155750233Y-86667149D01*
X155653099Y-86568336D01*
X155571082Y-86461898D01*
X155504295Y-86349070D01*
X155452853Y-86231086D01*
X155437603Y-86185791D01*
X155414284Y-86095188D01*
X155400138Y-86004842D01*
X155394683Y-85915083D01*
X155397436Y-85826243D01*
X155405045Y-85762643D01*
X156082901Y-85762643D01*
X156119404Y-85851775D01*
X156161244Y-85933181D01*
X156208417Y-86006730D01*
X156260917Y-86072294D01*
X156349646Y-86155386D01*
X156450332Y-86219785D01*
X156562960Y-86265055D01*
X156687511Y-86290760D01*
X156823968Y-86296466D01*
X156972315Y-86281735D01*
X157077809Y-86260346D01*
X157188575Y-86229552D01*
X157304606Y-86189223D01*
X157439012Y-86136481D01*
X157565421Y-86078821D01*
X157683294Y-86016166D01*
X157792092Y-85948438D01*
X157891276Y-85875558D01*
X157980306Y-85797450D01*
X158058643Y-85714035D01*
X158125747Y-85625236D01*
X158181080Y-85530974D01*
X158224102Y-85431172D01*
X158254274Y-85325752D01*
X158271056Y-85214636D01*
X158273909Y-85097746D01*
X158262295Y-84975005D01*
X158235673Y-84846334D01*
X158193504Y-84711656D01*
X158173616Y-84658334D01*
X158132635Y-84556087D01*
X158089413Y-84457448D01*
X158043190Y-84359716D01*
X157993204Y-84260189D01*
X157938693Y-84156165D01*
X157878896Y-84044942D01*
X157813053Y-83923819D01*
X157740400Y-83790094D01*
X157701283Y-83717661D01*
X157660178Y-83641065D01*
X157616990Y-83559967D01*
X157571624Y-83474030D01*
X157523985Y-83382916D01*
X157473978Y-83286288D01*
X157421507Y-83183807D01*
X157366477Y-83075136D01*
X157308793Y-82959937D01*
X157248360Y-82837873D01*
X157185083Y-82708606D01*
X157118867Y-82571798D01*
X157049616Y-82427111D01*
X156977235Y-82274207D01*
X156901630Y-82112750D01*
X156903384Y-82194484D01*
X156904279Y-82275990D01*
X156904319Y-82357296D01*
X156903510Y-82438433D01*
X156901855Y-82519430D01*
X156896033Y-82681119D01*
X156886891Y-82842601D01*
X156874469Y-83004110D01*
X156858806Y-83165881D01*
X156839943Y-83328150D01*
X156817919Y-83491153D01*
X156805734Y-83573003D01*
X156792774Y-83655124D01*
X156779043Y-83737546D01*
X156764546Y-83820299D01*
X156749289Y-83903412D01*
X156733277Y-83986914D01*
X156716513Y-84070834D01*
X156699004Y-84155203D01*
X156680754Y-84240049D01*
X156661768Y-84325402D01*
X156642052Y-84411291D01*
X156621609Y-84497746D01*
X156600445Y-84584797D01*
X156578566Y-84672471D01*
X156555975Y-84760800D01*
X156657202Y-84788286D01*
X156738325Y-84833598D01*
X156799547Y-84889242D01*
X156850778Y-84961242D01*
X156884253Y-85034313D01*
X156909123Y-85127814D01*
X156916095Y-85218782D01*
X156906901Y-85306424D01*
X156883274Y-85389944D01*
X156832312Y-85493518D01*
X156762875Y-85586468D01*
X156679068Y-85666908D01*
X156584996Y-85732954D01*
X156484765Y-85782724D01*
X156379141Y-85812136D01*
X156265079Y-85819586D01*
X156166957Y-85800753D01*
X156082901Y-85762643D01*
X155405045Y-85762643D01*
X155407915Y-85738654D01*
X155425637Y-85652645D01*
X155450118Y-85568548D01*
X155480878Y-85486693D01*
X155537732Y-85368841D01*
X155605996Y-85257898D01*
X155684041Y-85154980D01*
X155770239Y-85061204D01*
X155862960Y-84977688D01*
X155902578Y-84852745D01*
X155940552Y-84728414D01*
X155976924Y-84604682D01*
X156011731Y-84481538D01*
X156045013Y-84358968D01*
X156076810Y-84236961D01*
X156107161Y-84115504D01*
X156136106Y-83994583D01*
X156163684Y-83874188D01*
X156189934Y-83754306D01*
X156214897Y-83634923D01*
X156238610Y-83516028D01*
X156261115Y-83397608D01*
X156282450Y-83279651D01*
X156302655Y-83162143D01*
X156321768Y-83045074D01*
X156339831Y-82928430D01*
X156356881Y-82812199D01*
X156372960Y-82696368D01*
X156388105Y-82580925D01*
X156402356Y-82465858D01*
X156415753Y-82351154D01*
X156428336Y-82236800D01*
X156440143Y-82122785D01*
X156451214Y-82009095D01*
X156461589Y-81895719D01*
X156471307Y-81782643D01*
X156480408Y-81669855D01*
X156488930Y-81557344D01*
X156496914Y-81445096D01*
X156504399Y-81333099D01*
X156511424Y-81221340D01*
X157954407Y-80457013D01*
X158061818Y-80697042D01*
G37*
G36*
X163936597Y-78730352D02*
G01*
X164069450Y-78745956D01*
X164196680Y-78775109D01*
X164317473Y-78818806D01*
X164431014Y-78878045D01*
X164536491Y-78953823D01*
X164633088Y-79047136D01*
X164719992Y-79158981D01*
X164796389Y-79290355D01*
X164830393Y-79363677D01*
X164861465Y-79442255D01*
X164897491Y-79553732D01*
X164924677Y-79665713D01*
X164943103Y-79778128D01*
X164952846Y-79890903D01*
X164953987Y-80003966D01*
X164946605Y-80117244D01*
X164930779Y-80230664D01*
X164906589Y-80344154D01*
X164874113Y-80457640D01*
X164833432Y-80571052D01*
X164784624Y-80684315D01*
X164727769Y-80797357D01*
X164662945Y-80910106D01*
X164590234Y-81022488D01*
X164509712Y-81134432D01*
X164421461Y-81245864D01*
X164325559Y-81356712D01*
X164222086Y-81466903D01*
X164111120Y-81576365D01*
X163992742Y-81685024D01*
X163867030Y-81792809D01*
X163734064Y-81899647D01*
X163593923Y-82005464D01*
X163446687Y-82110189D01*
X163292434Y-82213748D01*
X163131244Y-82316070D01*
X162963197Y-82417081D01*
X162788372Y-82516708D01*
X162606847Y-82614880D01*
X162418702Y-82711523D01*
X162224018Y-82806564D01*
X162022872Y-82899932D01*
X162025433Y-82911251D01*
X162045117Y-82988298D01*
X162070682Y-83072530D01*
X162098461Y-83154008D01*
X162127347Y-83234108D01*
X162178773Y-83363050D01*
X162235087Y-83479935D01*
X162296703Y-83584717D01*
X162364037Y-83677348D01*
X162437502Y-83757781D01*
X162517513Y-83825970D01*
X162604483Y-83881866D01*
X162698826Y-83925423D01*
X162800958Y-83956593D01*
X162911292Y-83975329D01*
X163030243Y-83981585D01*
X163158224Y-83975312D01*
X163295649Y-83956464D01*
X163442934Y-83924993D01*
X163600492Y-83880853D01*
X163768738Y-83823996D01*
X163853947Y-83791886D01*
X164022793Y-83721555D01*
X164189168Y-83642981D01*
X164352623Y-83556045D01*
X164512710Y-83460630D01*
X164668980Y-83356621D01*
X164820983Y-83243900D01*
X164968272Y-83122349D01*
X165110397Y-82991853D01*
X165246909Y-82852295D01*
X165312920Y-82779080D01*
X165377360Y-82703557D01*
X165440173Y-82625709D01*
X165501301Y-82545522D01*
X165560691Y-82462982D01*
X165618284Y-82378074D01*
X165674025Y-82290784D01*
X165727858Y-82201096D01*
X165779728Y-82108997D01*
X165829577Y-82014472D01*
X165877349Y-81917505D01*
X165922990Y-81818083D01*
X165966442Y-81716190D01*
X166430976Y-81547114D01*
X166392269Y-81670913D01*
X166349293Y-81795296D01*
X166302108Y-81920078D01*
X166250772Y-82045072D01*
X166195342Y-82170092D01*
X166135879Y-82294952D01*
X166072439Y-82419466D01*
X166005083Y-82543448D01*
X165933867Y-82666711D01*
X165858850Y-82789070D01*
X165780091Y-82910338D01*
X165697648Y-83030329D01*
X165611580Y-83148857D01*
X165521945Y-83265737D01*
X165428801Y-83380781D01*
X165332208Y-83493804D01*
X165232222Y-83604619D01*
X165128903Y-83713041D01*
X165022310Y-83818883D01*
X164912500Y-83921960D01*
X164799532Y-84022084D01*
X164683464Y-84119071D01*
X164564356Y-84212733D01*
X164442264Y-84302886D01*
X164317248Y-84389341D01*
X164189367Y-84471915D01*
X164058678Y-84550419D01*
X163925240Y-84624669D01*
X163789111Y-84694478D01*
X163650350Y-84759660D01*
X163509015Y-84820028D01*
X163365165Y-84875398D01*
X163260332Y-84911979D01*
X163155163Y-84945494D01*
X163049813Y-84975831D01*
X162944436Y-85002876D01*
X162839186Y-85026517D01*
X162734215Y-85046641D01*
X162629678Y-85063136D01*
X162422521Y-85084786D01*
X162218944Y-85090566D01*
X162020176Y-85079575D01*
X161827449Y-85050911D01*
X161733734Y-85029669D01*
X161641991Y-85003672D01*
X161552372Y-84972805D01*
X161465032Y-84936957D01*
X161380125Y-84896014D01*
X161297803Y-84849864D01*
X161218222Y-84798395D01*
X161141534Y-84741493D01*
X161067893Y-84679046D01*
X160997453Y-84610941D01*
X160930368Y-84537066D01*
X160866791Y-84457307D01*
X160806877Y-84371553D01*
X160750779Y-84279690D01*
X160698650Y-84181606D01*
X160650645Y-84077188D01*
X160606917Y-83966323D01*
X160567650Y-83849262D01*
X160531799Y-83722982D01*
X160499742Y-83588141D01*
X160471857Y-83445400D01*
X160448520Y-83295417D01*
X160430110Y-83138851D01*
X160417004Y-82976361D01*
X160409579Y-82808607D01*
X160408214Y-82636247D01*
X160413286Y-82459941D01*
X160425171Y-82280347D01*
X160444249Y-82098125D01*
X160457981Y-82003204D01*
X161917673Y-82003204D01*
X161920209Y-82119263D01*
X161925756Y-82234281D01*
X161934274Y-82348001D01*
X161945722Y-82460160D01*
X162087935Y-82387580D01*
X162225740Y-82313211D01*
X162359063Y-82237135D01*
X162487828Y-82159435D01*
X162611960Y-82080192D01*
X162731386Y-81999488D01*
X162846030Y-81917406D01*
X162955816Y-81834028D01*
X163060671Y-81749435D01*
X163160520Y-81663709D01*
X163255287Y-81576934D01*
X163344898Y-81489190D01*
X163429278Y-81400560D01*
X163508353Y-81311126D01*
X163582046Y-81220970D01*
X163650284Y-81130175D01*
X163712992Y-81038821D01*
X163770094Y-80946991D01*
X163821517Y-80854768D01*
X163867185Y-80762233D01*
X163907022Y-80669469D01*
X163940956Y-80576557D01*
X163968910Y-80483579D01*
X163990810Y-80390618D01*
X164006581Y-80297756D01*
X164016148Y-80205074D01*
X164019436Y-80112655D01*
X164016371Y-80020581D01*
X164006877Y-79928934D01*
X163990881Y-79837796D01*
X163968306Y-79747249D01*
X163939078Y-79657375D01*
X163921727Y-79612527D01*
X163881070Y-79527825D01*
X163830048Y-79452939D01*
X163765750Y-79391657D01*
X163685267Y-79347767D01*
X163585689Y-79325058D01*
X163464106Y-79327317D01*
X163356728Y-79347677D01*
X163234108Y-79385810D01*
X163041723Y-79471500D01*
X162865768Y-79581081D01*
X162783851Y-79644181D01*
X162705920Y-79712475D01*
X162631934Y-79785703D01*
X162561853Y-79863604D01*
X162495636Y-79945920D01*
X162433242Y-80032391D01*
X162374631Y-80122756D01*
X162319763Y-80216757D01*
X162268596Y-80314133D01*
X162221090Y-80414625D01*
X162177205Y-80517972D01*
X162136899Y-80623916D01*
X162100133Y-80732196D01*
X162066865Y-80842553D01*
X162037055Y-80954727D01*
X162010662Y-81068459D01*
X161987646Y-81183488D01*
X161967967Y-81299554D01*
X161951582Y-81416399D01*
X161938453Y-81533762D01*
X161928538Y-81651384D01*
X161921797Y-81769005D01*
X161918188Y-81886364D01*
X161917673Y-82003204D01*
X160457981Y-82003204D01*
X160470896Y-81913934D01*
X160505491Y-81728433D01*
X160548409Y-81542280D01*
X160600030Y-81356136D01*
X160660731Y-81170659D01*
X160730889Y-80986507D01*
X160810882Y-80804342D01*
X160901088Y-80624820D01*
X161001883Y-80448602D01*
X161113647Y-80276347D01*
X161236755Y-80108713D01*
X161371586Y-79946360D01*
X161518517Y-79789946D01*
X161677927Y-79640131D01*
X161850192Y-79497575D01*
X162035689Y-79362935D01*
X162234798Y-79236871D01*
X162447894Y-79120043D01*
X162675357Y-79013109D01*
X162917562Y-78916728D01*
X163066983Y-78865408D01*
X163216479Y-78820659D01*
X163365237Y-78783476D01*
X163512441Y-78754857D01*
X163657279Y-78735799D01*
X163798936Y-78727298D01*
X163936597Y-78730352D01*
G37*
G36*
X169206008Y-78511805D02*
G01*
X169293713Y-78561013D01*
X169387731Y-78593804D01*
X169489411Y-78608292D01*
X169600099Y-78602586D01*
X169721145Y-78574799D01*
X169764028Y-78560303D01*
X169892970Y-78501714D01*
X170003061Y-78427851D01*
X170094581Y-78340379D01*
X170167813Y-78240963D01*
X170223037Y-78131270D01*
X170260535Y-78012965D01*
X170275825Y-77930133D01*
X170283444Y-77844708D01*
X170283477Y-77757183D01*
X170276006Y-77668052D01*
X170261115Y-77577808D01*
X170238887Y-77486944D01*
X170209406Y-77395956D01*
X170157986Y-77274130D01*
X170097267Y-77165396D01*
X170027346Y-77069631D01*
X169948322Y-76986709D01*
X169860291Y-76916508D01*
X169763351Y-76858904D01*
X169657599Y-76813773D01*
X169543132Y-76780991D01*
X169420048Y-76760434D01*
X169288444Y-76751979D01*
X169148417Y-76755502D01*
X169000065Y-76770879D01*
X168843485Y-76797986D01*
X168678775Y-76836700D01*
X168506032Y-76886897D01*
X168325352Y-76948453D01*
X168071565Y-77049026D01*
X167833471Y-77159758D01*
X167610657Y-77280008D01*
X167402705Y-77409131D01*
X167209199Y-77546486D01*
X167029723Y-77691428D01*
X166863861Y-77843315D01*
X166711196Y-78001504D01*
X166571312Y-78165350D01*
X166443793Y-78334213D01*
X166328222Y-78507447D01*
X166224184Y-78684411D01*
X166131262Y-78864461D01*
X166049040Y-79046954D01*
X165977102Y-79231246D01*
X165915031Y-79416696D01*
X165862410Y-79602659D01*
X165818825Y-79788492D01*
X165783859Y-79973553D01*
X165757094Y-80157199D01*
X165738116Y-80338786D01*
X165726508Y-80517671D01*
X165721853Y-80693211D01*
X165723736Y-80864763D01*
X165731740Y-81031684D01*
X165745448Y-81193330D01*
X165764445Y-81349060D01*
X165788315Y-81498229D01*
X165816640Y-81640194D01*
X165849006Y-81774313D01*
X165884995Y-81899942D01*
X165924191Y-82016438D01*
X165968344Y-82128471D01*
X166016748Y-82233983D01*
X166069249Y-82333092D01*
X166125695Y-82425910D01*
X166185934Y-82512555D01*
X166249811Y-82593139D01*
X166317174Y-82667780D01*
X166387871Y-82736591D01*
X166461749Y-82799688D01*
X166538654Y-82857186D01*
X166618433Y-82909200D01*
X166700935Y-82955844D01*
X166786005Y-82997234D01*
X166873492Y-83033485D01*
X166963241Y-83064712D01*
X167055101Y-83091031D01*
X167148919Y-83112555D01*
X167341815Y-83141681D01*
X167540706Y-83153012D01*
X167744369Y-83147468D01*
X167951581Y-83125969D01*
X168056136Y-83109524D01*
X168161120Y-83089436D01*
X168266379Y-83065819D01*
X168371762Y-83038788D01*
X168477114Y-83008459D01*
X168582284Y-82974947D01*
X168687117Y-82938366D01*
X168830888Y-82883025D01*
X168971989Y-82822740D01*
X169110373Y-82757693D01*
X169245991Y-82688066D01*
X169378793Y-82614040D01*
X169508731Y-82535797D01*
X169635755Y-82453520D01*
X169759817Y-82367390D01*
X169880867Y-82277589D01*
X169998857Y-82184299D01*
X170113739Y-82087702D01*
X170225461Y-81987981D01*
X170333977Y-81885316D01*
X170439237Y-81779890D01*
X170541191Y-81671884D01*
X170639791Y-81561481D01*
X170734989Y-81448863D01*
X170826734Y-81334211D01*
X170914979Y-81217707D01*
X170999673Y-81099534D01*
X171080769Y-80979873D01*
X171158217Y-80858906D01*
X171231968Y-80736815D01*
X171301974Y-80613782D01*
X171368185Y-80489989D01*
X171430552Y-80365618D01*
X171489026Y-80240851D01*
X171543559Y-80115869D01*
X171594102Y-79990854D01*
X171640605Y-79865990D01*
X171683019Y-79741456D01*
X171721296Y-79617436D01*
X171231515Y-79795702D01*
X171197258Y-79890234D01*
X171160640Y-79982894D01*
X171121690Y-80073677D01*
X171080435Y-80162584D01*
X171036904Y-80249610D01*
X170991127Y-80334755D01*
X170943131Y-80418017D01*
X170892945Y-80499392D01*
X170840598Y-80578880D01*
X170786119Y-80656479D01*
X170670875Y-80805998D01*
X170547444Y-80947935D01*
X170416054Y-81082272D01*
X170276933Y-81208994D01*
X170130311Y-81328084D01*
X169976415Y-81439526D01*
X169815474Y-81543304D01*
X169647717Y-81639401D01*
X169473373Y-81727802D01*
X169292670Y-81808491D01*
X169105837Y-81881450D01*
X168934962Y-81939378D01*
X168775169Y-81984637D01*
X168626004Y-82017237D01*
X168487015Y-82037187D01*
X168357749Y-82044498D01*
X168237753Y-82039178D01*
X168126574Y-82021237D01*
X168023758Y-81990685D01*
X167928853Y-81947531D01*
X167841406Y-81891785D01*
X167760963Y-81823456D01*
X167687072Y-81742553D01*
X167619279Y-81649088D01*
X167557132Y-81543068D01*
X167500178Y-81424503D01*
X167447963Y-81293404D01*
X167409443Y-81179690D01*
X167374766Y-81060916D01*
X167344026Y-80937554D01*
X167317317Y-80810077D01*
X167294733Y-80678956D01*
X167276366Y-80544662D01*
X167262312Y-80407668D01*
X167252664Y-80268446D01*
X167247515Y-80127467D01*
X167246960Y-79985204D01*
X167251091Y-79842128D01*
X167260003Y-79698711D01*
X167273790Y-79555425D01*
X167292545Y-79412743D01*
X167316362Y-79271134D01*
X167345335Y-79131073D01*
X167379557Y-78993030D01*
X167419123Y-78857478D01*
X167464125Y-78724888D01*
X167514658Y-78595732D01*
X167570816Y-78470482D01*
X167632692Y-78349610D01*
X167700380Y-78233588D01*
X167773974Y-78122888D01*
X167853567Y-78017982D01*
X167939253Y-77919341D01*
X168031126Y-77827437D01*
X168129281Y-77742742D01*
X168233809Y-77665729D01*
X168344806Y-77596869D01*
X168462364Y-77536633D01*
X168586579Y-77485495D01*
X168704692Y-77447820D01*
X168814626Y-77423299D01*
X168948106Y-77410031D01*
X169066140Y-77417662D01*
X169168214Y-77444773D01*
X169253809Y-77489943D01*
X169322409Y-77551753D01*
X169373496Y-77628782D01*
X169392312Y-77672560D01*
X169417107Y-77767486D01*
X169426533Y-77846800D01*
X169428175Y-77930989D01*
X169422098Y-78018180D01*
X169408369Y-78106497D01*
X169387056Y-78194065D01*
X169358224Y-78279011D01*
X169308203Y-78384952D01*
X169245094Y-78478453D01*
X169208681Y-78519150D01*
X169206008Y-78511805D01*
G37*
G36*
X174381976Y-74744022D02*
G01*
X174651592Y-78540499D01*
X174656651Y-78691603D01*
X174648127Y-78839175D01*
X174626935Y-78982689D01*
X174593991Y-79121619D01*
X174550208Y-79255442D01*
X174496501Y-79383633D01*
X174433785Y-79505667D01*
X174362975Y-79621018D01*
X174284985Y-79729163D01*
X174200730Y-79829576D01*
X174111125Y-79921733D01*
X174017083Y-80005108D01*
X173919521Y-80079178D01*
X173819352Y-80143417D01*
X173717492Y-80197300D01*
X173614854Y-80240302D01*
X173479175Y-80279378D01*
X173346362Y-80296504D01*
X173218760Y-80290387D01*
X173098712Y-80259736D01*
X173015045Y-80219870D01*
X172937935Y-80164932D01*
X172868370Y-80094377D01*
X172807341Y-80007660D01*
X172755836Y-79904236D01*
X172740956Y-79865954D01*
X172713816Y-79783042D01*
X172694206Y-79705149D01*
X172679788Y-79621785D01*
X172671830Y-79532488D01*
X172670711Y-79492287D01*
X172400130Y-75465355D01*
X170938360Y-75997396D01*
X171205452Y-79794791D01*
X171213043Y-79893465D01*
X171224443Y-79988973D01*
X171239608Y-80081377D01*
X171258496Y-80170742D01*
X171281065Y-80257131D01*
X171307272Y-80340605D01*
X171318763Y-80373193D01*
X171350625Y-80454204D01*
X171385859Y-80531645D01*
X171424347Y-80605521D01*
X171465973Y-80675835D01*
X171510617Y-80742590D01*
X171608488Y-80865441D01*
X171717019Y-80974104D01*
X171835264Y-81068608D01*
X171962280Y-81148983D01*
X172097122Y-81215260D01*
X172238847Y-81267468D01*
X172386510Y-81305637D01*
X172539168Y-81329797D01*
X172695876Y-81339978D01*
X172855691Y-81336209D01*
X173017668Y-81318521D01*
X173180864Y-81286943D01*
X173344334Y-81241505D01*
X173425876Y-81213599D01*
X173547665Y-81165199D01*
X173668465Y-81108904D01*
X173787816Y-81044718D01*
X173905260Y-80972643D01*
X174020335Y-80892682D01*
X174132584Y-80804838D01*
X174241545Y-80709113D01*
X174346759Y-80605511D01*
X174447768Y-80494034D01*
X174544110Y-80374685D01*
X174635326Y-80247466D01*
X174720957Y-80112382D01*
X174800543Y-79969434D01*
X174873624Y-79818625D01*
X174939741Y-79659959D01*
X174970044Y-79577680D01*
X174998434Y-79493437D01*
X175063560Y-79616949D01*
X175134005Y-79727436D01*
X175209493Y-79825221D01*
X175289747Y-79910623D01*
X175374489Y-79983961D01*
X175463442Y-80045558D01*
X175556329Y-80095731D01*
X175652873Y-80134803D01*
X175752797Y-80163092D01*
X175855824Y-80180919D01*
X175961676Y-80188605D01*
X176070076Y-80186469D01*
X176180747Y-80174832D01*
X176293412Y-80154013D01*
X176407794Y-80124334D01*
X176523616Y-80086113D01*
X176645480Y-80038862D01*
X176771697Y-79982686D01*
X176901073Y-79915697D01*
X177032416Y-79836011D01*
X177164531Y-79741740D01*
X177296225Y-79630997D01*
X177426306Y-79501897D01*
X177553579Y-79352551D01*
X177615789Y-79269697D01*
X177676850Y-79181075D01*
X177736613Y-79086447D01*
X177794928Y-78985580D01*
X177851646Y-78878236D01*
X177906617Y-78764181D01*
X177959693Y-78643178D01*
X178010725Y-78514991D01*
X178059563Y-78379384D01*
X178106059Y-78236123D01*
X178150062Y-78084970D01*
X178191424Y-77925690D01*
X178229995Y-77758048D01*
X178265627Y-77581807D01*
X178298171Y-77396732D01*
X178327476Y-77202586D01*
X177789726Y-77398311D01*
X177758809Y-77560454D01*
X177723774Y-77716149D01*
X177684692Y-77865123D01*
X177641637Y-78007104D01*
X177594680Y-78141817D01*
X177543894Y-78268990D01*
X177489351Y-78388351D01*
X177431124Y-78499625D01*
X177369285Y-78602540D01*
X177303907Y-78696823D01*
X177235060Y-78782200D01*
X177162819Y-78858400D01*
X177048250Y-78954892D01*
X176926449Y-79029198D01*
X176841350Y-79065954D01*
X176714536Y-79100126D01*
X176604051Y-79106351D01*
X176508685Y-79088017D01*
X176427225Y-79048516D01*
X176358459Y-78991236D01*
X176301175Y-78919567D01*
X176254161Y-78836899D01*
X176216204Y-78746621D01*
X176189018Y-78665234D01*
X176165813Y-78582235D01*
X176146720Y-78499244D01*
X176131871Y-78417878D01*
X176119837Y-78324663D01*
X176114327Y-78238914D01*
X175843746Y-74211982D01*
X174381976Y-74744022D01*
G37*
G36*
X177502438Y-73608267D02*
G01*
X177892122Y-79454940D01*
X179341269Y-78927494D01*
X179062297Y-74610429D01*
X179157296Y-74507939D01*
X179256259Y-74402684D01*
X179358812Y-74296547D01*
X179464580Y-74191412D01*
X179573190Y-74089164D01*
X179684265Y-73991685D01*
X179797433Y-73900861D01*
X179912318Y-73818574D01*
X180028546Y-73746708D01*
X180145743Y-73687149D01*
X180224228Y-73655209D01*
X180333324Y-73622800D01*
X180455174Y-73607357D01*
X180556650Y-73614900D01*
X180665836Y-73642110D01*
X180768551Y-73671675D01*
X180878883Y-73684952D01*
X181010921Y-73663295D01*
X181041173Y-73653131D01*
X181150032Y-73605266D01*
X181272004Y-73533962D01*
X181365157Y-73465661D01*
X181454344Y-73385091D01*
X181534703Y-73292643D01*
X181601374Y-73188708D01*
X181649494Y-73073679D01*
X181668869Y-72991023D01*
X181676398Y-72903726D01*
X181670641Y-72811905D01*
X181650159Y-72715676D01*
X181633945Y-72665944D01*
X181599340Y-72590214D01*
X181553583Y-72523701D01*
X181474682Y-72450883D01*
X181374652Y-72398122D01*
X181252748Y-72367516D01*
X181146519Y-72360363D01*
X181027254Y-72367738D01*
X180894640Y-72390526D01*
X180748361Y-72429612D01*
X180643096Y-72465161D01*
X180498288Y-72524014D01*
X180361753Y-72591592D01*
X180232987Y-72667240D01*
X180111490Y-72750303D01*
X179996759Y-72840127D01*
X179888292Y-72936056D01*
X179785586Y-73037436D01*
X179688140Y-73143612D01*
X179595451Y-73253929D01*
X179507017Y-73367732D01*
X179422336Y-73484367D01*
X179340905Y-73603177D01*
X179262223Y-73723510D01*
X179185787Y-73844710D01*
X179111095Y-73966121D01*
X179037645Y-74087090D01*
X178964207Y-73076227D01*
X177502438Y-73608267D01*
G37*
G36*
X181939131Y-70275906D02*
G01*
X181988902Y-70379044D01*
X182057257Y-70469140D01*
X182142304Y-70545650D01*
X182242148Y-70608030D01*
X182354893Y-70655735D01*
X182478647Y-70688221D01*
X182611515Y-70704945D01*
X182751602Y-70705361D01*
X182897015Y-70688927D01*
X183045860Y-70655097D01*
X183146060Y-70622611D01*
X183287296Y-70562310D01*
X183417479Y-70489063D01*
X183535133Y-70404641D01*
X183638782Y-70310815D01*
X183726949Y-70209355D01*
X183798160Y-70102033D01*
X183850938Y-69990619D01*
X183883809Y-69876884D01*
X183895295Y-69762598D01*
X183883922Y-69649532D01*
X183862911Y-69575708D01*
X183813231Y-69475110D01*
X183743207Y-69386529D01*
X183655208Y-69310645D01*
X183551601Y-69248138D01*
X183434753Y-69199688D01*
X183307034Y-69165976D01*
X183170809Y-69147681D01*
X183028448Y-69145484D01*
X182882319Y-69160065D01*
X182734788Y-69192105D01*
X182636824Y-69223499D01*
X182492658Y-69285473D01*
X182361891Y-69360547D01*
X182245526Y-69446813D01*
X182144565Y-69542365D01*
X182060009Y-69645295D01*
X181992862Y-69753698D01*
X181944125Y-69865666D01*
X181914801Y-69979293D01*
X181905892Y-70092672D01*
X181918399Y-70203896D01*
X181939131Y-70275906D01*
G37*
G36*
X182375003Y-71834799D02*
G01*
X182642094Y-75632194D01*
X182648450Y-75712371D01*
X182656159Y-75793125D01*
X182665357Y-75874160D01*
X182676174Y-75955181D01*
X182688745Y-76035893D01*
X182703203Y-76116000D01*
X182719679Y-76195208D01*
X182738307Y-76273221D01*
X182759220Y-76349745D01*
X182782551Y-76424485D01*
X182799513Y-76473174D01*
X182846195Y-76590010D01*
X182899491Y-76701036D01*
X182959716Y-76805416D01*
X183027185Y-76902314D01*
X183102213Y-76990892D01*
X183185117Y-77070314D01*
X183276210Y-77139743D01*
X183375810Y-77198344D01*
X183484230Y-77245278D01*
X183601786Y-77279709D01*
X183728794Y-77300801D01*
X183865569Y-77307717D01*
X184012426Y-77299621D01*
X184169680Y-77275675D01*
X184337647Y-77235044D01*
X184516643Y-77176890D01*
X184638478Y-77129649D01*
X184764615Y-77073501D01*
X184893867Y-77006558D01*
X185025048Y-76926931D01*
X185156972Y-76832729D01*
X185288453Y-76722064D01*
X185418306Y-76593047D01*
X185545343Y-76443787D01*
X185607435Y-76360976D01*
X185668379Y-76272396D01*
X185728027Y-76177811D01*
X185786229Y-76076984D01*
X185842838Y-75969680D01*
X185897705Y-75855663D01*
X185950682Y-75734695D01*
X186001622Y-75606542D01*
X186050375Y-75470967D01*
X186096794Y-75327733D01*
X186140730Y-75176605D01*
X186182034Y-75017346D01*
X186220560Y-74849720D01*
X186256158Y-74673492D01*
X186288680Y-74488424D01*
X186317978Y-74294282D01*
X185782753Y-74489087D01*
X185751835Y-74651230D01*
X185716795Y-74806927D01*
X185677702Y-74955906D01*
X185634624Y-75097894D01*
X185587629Y-75232621D01*
X185536787Y-75359815D01*
X185482167Y-75479204D01*
X185423836Y-75590516D01*
X185361863Y-75693480D01*
X185296317Y-75787823D01*
X185227267Y-75873275D01*
X185154781Y-75949564D01*
X185039760Y-76046220D01*
X184917395Y-76120731D01*
X184831853Y-76157649D01*
X184705146Y-76191781D01*
X184594948Y-76197902D01*
X184499986Y-76179422D01*
X184418990Y-76139752D01*
X184350687Y-76082303D01*
X184293807Y-76010487D01*
X184247079Y-75927715D01*
X184209231Y-75837398D01*
X184181879Y-75756070D01*
X184158254Y-75673225D01*
X184138603Y-75590437D01*
X184123172Y-75509282D01*
X184110572Y-75416273D01*
X184104829Y-75330609D01*
X183836773Y-71302758D01*
X182375003Y-71834799D01*
G37*
G36*
X185056696Y-71276690D02*
G01*
X185533854Y-71103019D01*
X185766937Y-74492765D01*
X185775414Y-74585142D01*
X185786081Y-74684179D01*
X185799427Y-74788186D01*
X185811491Y-74868437D01*
X185825546Y-74949821D01*
X185841798Y-75031624D01*
X185860455Y-75113135D01*
X185881724Y-75193640D01*
X185905812Y-75272427D01*
X185923539Y-75323645D01*
X185968216Y-75435526D01*
X186019836Y-75543235D01*
X186078828Y-75645701D01*
X186145624Y-75741855D01*
X186220656Y-75830626D01*
X186304353Y-75910942D01*
X186397149Y-75981733D01*
X186499473Y-76041929D01*
X186611758Y-76090458D01*
X186734433Y-76126251D01*
X186867931Y-76148235D01*
X187012682Y-76155342D01*
X187169117Y-76146499D01*
X187337669Y-76120636D01*
X187518767Y-76076682D01*
X187712844Y-76013568D01*
X187847736Y-75958969D01*
X187985767Y-75891371D01*
X188126016Y-75809825D01*
X188267566Y-75713384D01*
X188409498Y-75601099D01*
X188550892Y-75472022D01*
X188621100Y-75400891D01*
X188690830Y-75325206D01*
X188759966Y-75244849D01*
X188828394Y-75159702D01*
X188895998Y-75069647D01*
X188962664Y-74974564D01*
X189028276Y-74874335D01*
X189092721Y-74768842D01*
X189155883Y-74657966D01*
X189217647Y-74541589D01*
X189277899Y-74419592D01*
X189336524Y-74291856D01*
X189393406Y-74158265D01*
X189448432Y-74018697D01*
X189501485Y-73873037D01*
X189552452Y-73721164D01*
X189601217Y-73562960D01*
X189647666Y-73398307D01*
X189691683Y-73227086D01*
X189733155Y-73049180D01*
X189197930Y-73243985D01*
X189177425Y-73327877D01*
X189155650Y-73410287D01*
X189108382Y-73570501D01*
X189056317Y-73724303D01*
X188999649Y-73871371D01*
X188938569Y-74011382D01*
X188873271Y-74144013D01*
X188803946Y-74268941D01*
X188730787Y-74385844D01*
X188653986Y-74494399D01*
X188573736Y-74594282D01*
X188490229Y-74685172D01*
X188403658Y-74766744D01*
X188314215Y-74838677D01*
X188222092Y-74900647D01*
X188127483Y-74952331D01*
X188030578Y-74993408D01*
X187914362Y-75028528D01*
X187809595Y-75046015D01*
X187686730Y-75044568D01*
X187581858Y-75018175D01*
X187493630Y-74970495D01*
X187420696Y-74905186D01*
X187361709Y-74825907D01*
X187315319Y-74736317D01*
X187296426Y-74688798D01*
X187273581Y-74610724D01*
X187258279Y-74528276D01*
X187248612Y-74444482D01*
X187242671Y-74362368D01*
X187237774Y-74270311D01*
X187232196Y-74190261D01*
X186980476Y-70576491D01*
X188108992Y-70165745D01*
X188075652Y-69759932D01*
X186962283Y-70165165D01*
X186840656Y-68346343D01*
X185391435Y-69046402D01*
X185500514Y-70697206D01*
X185023356Y-70870877D01*
X185056696Y-71276690D01*
G37*
G36*
X194261625Y-74470061D02*
G01*
X194268725Y-74616878D01*
X194272495Y-74757390D01*
X194272953Y-74891771D01*
X194270114Y-75020198D01*
X194263998Y-75142845D01*
X194254621Y-75259890D01*
X194242001Y-75371506D01*
X194226154Y-75477871D01*
X194207099Y-75579160D01*
X194184852Y-75675548D01*
X194159431Y-75767211D01*
X194130854Y-75854325D01*
X194064298Y-76015609D01*
X193985324Y-76160803D01*
X193894070Y-76291314D01*
X193790675Y-76408548D01*
X193675278Y-76513909D01*
X193548017Y-76608803D01*
X193409032Y-76694636D01*
X193258461Y-76772813D01*
X193096443Y-76844739D01*
X192923117Y-76911820D01*
X192758476Y-76968221D01*
X192596389Y-77016492D01*
X192437564Y-77056144D01*
X192282711Y-77086687D01*
X192132539Y-77107631D01*
X191987758Y-77118486D01*
X191849078Y-77118763D01*
X191717209Y-77107971D01*
X191592859Y-77085622D01*
X191476739Y-77051224D01*
X191369558Y-77004289D01*
X191272027Y-76944327D01*
X191184853Y-76870848D01*
X191108748Y-76783362D01*
X191044420Y-76681379D01*
X190992580Y-76564410D01*
X190962337Y-76437442D01*
X190960253Y-76304277D01*
X190971151Y-76241600D01*
X191532286Y-76241600D01*
X191554759Y-76349396D01*
X191571749Y-76389283D01*
X191617151Y-76460026D01*
X191677117Y-76517669D01*
X191771343Y-76569370D01*
X191885524Y-76596142D01*
X191990191Y-76597944D01*
X192105835Y-76580934D01*
X192231661Y-76543845D01*
X192280505Y-76524517D01*
X192411541Y-76453978D01*
X192520680Y-76365217D01*
X192609646Y-76259012D01*
X192658602Y-76178905D01*
X192699871Y-76091622D01*
X192733963Y-75997397D01*
X192761391Y-75896459D01*
X192782666Y-75789041D01*
X192798299Y-75675373D01*
X192808801Y-75555687D01*
X192814684Y-75430213D01*
X192816459Y-75299183D01*
X192814638Y-75162828D01*
X192809731Y-75021380D01*
X192793766Y-74663305D01*
X192705727Y-74729751D01*
X192620865Y-74795596D01*
X192460672Y-74925373D01*
X192313192Y-75052404D01*
X192178429Y-75176461D01*
X192056388Y-75297313D01*
X191947072Y-75414730D01*
X191850486Y-75528483D01*
X191766635Y-75638341D01*
X191695521Y-75744074D01*
X191637151Y-75845452D01*
X191591527Y-75942246D01*
X191558654Y-76034226D01*
X191538537Y-76121160D01*
X191532286Y-76241600D01*
X190971151Y-76241600D01*
X190984340Y-76165741D01*
X191032615Y-76022660D01*
X191103090Y-75875860D01*
X191193779Y-75726168D01*
X191302698Y-75574410D01*
X191363372Y-75498014D01*
X191427859Y-75421412D01*
X191495910Y-75344707D01*
X191567277Y-75268002D01*
X191641711Y-75191400D01*
X191718966Y-75115005D01*
X191798791Y-75038919D01*
X191880939Y-74963247D01*
X191965162Y-74888092D01*
X192051212Y-74813556D01*
X192138840Y-74739743D01*
X192227798Y-74666757D01*
X192317837Y-74594700D01*
X192408711Y-74523677D01*
X192500169Y-74453790D01*
X192591965Y-74385142D01*
X192683849Y-74317837D01*
X192775574Y-74251979D01*
X192721814Y-73522983D01*
X192690656Y-73577218D01*
X192625660Y-73682067D01*
X192557258Y-73782104D01*
X192485649Y-73877347D01*
X192411033Y-73967814D01*
X192333610Y-74053526D01*
X192253579Y-74134500D01*
X192171140Y-74210756D01*
X192086491Y-74282311D01*
X191999833Y-74349185D01*
X191911365Y-74411397D01*
X191821287Y-74468966D01*
X191683585Y-74546652D01*
X191543382Y-74613996D01*
X191401350Y-74671061D01*
X191319808Y-74698968D01*
X191156338Y-74744406D01*
X190993142Y-74775983D01*
X190831165Y-74793672D01*
X190671350Y-74797440D01*
X190514642Y-74787260D01*
X190361984Y-74763100D01*
X190214321Y-74724931D01*
X190072596Y-74672723D01*
X189937754Y-74606446D01*
X189810738Y-74526070D01*
X189692493Y-74431566D01*
X189583962Y-74322904D01*
X189486090Y-74200053D01*
X189441447Y-74133297D01*
X189399821Y-74062984D01*
X189361333Y-73989108D01*
X189326099Y-73911667D01*
X189294237Y-73830656D01*
X189282746Y-73798068D01*
X189256539Y-73714593D01*
X189233970Y-73628205D01*
X189215082Y-73538840D01*
X189199917Y-73446435D01*
X189188517Y-73350927D01*
X189180926Y-73252254D01*
X188913834Y-69454859D01*
X190375604Y-68922818D01*
X190646185Y-72949750D01*
X190647304Y-72989951D01*
X190655262Y-73079248D01*
X190669680Y-73162612D01*
X190689290Y-73240504D01*
X190716429Y-73323417D01*
X190731310Y-73361698D01*
X190782815Y-73465123D01*
X190843844Y-73551840D01*
X190913409Y-73622395D01*
X190990519Y-73677332D01*
X191074186Y-73717198D01*
X191194234Y-73747849D01*
X191321836Y-73753966D01*
X191454649Y-73736841D01*
X191590328Y-73697765D01*
X191692966Y-73654762D01*
X191794826Y-73600879D01*
X191894995Y-73536640D01*
X191992557Y-73462571D01*
X192086599Y-73379195D01*
X192176204Y-73287039D01*
X192260459Y-73186626D01*
X192338449Y-73078481D01*
X192409259Y-72963129D01*
X192471975Y-72841096D01*
X192525682Y-72712905D01*
X192569465Y-72579082D01*
X192602409Y-72440151D01*
X192623601Y-72296638D01*
X192632125Y-72149066D01*
X192627066Y-71997961D01*
X192357450Y-68201485D01*
X193806597Y-67674039D01*
X194261625Y-74470061D01*
G37*
D11*
%TO.C,R9*%
X70137104Y-75467058D02*
X69660913Y-75800391D01*
X70137104Y-76038486D02*
X69137104Y-76038486D01*
X69137104Y-76038486D02*
X69137104Y-75657534D01*
X69137104Y-75657534D02*
X69184723Y-75562296D01*
X69184723Y-75562296D02*
X69232342Y-75514677D01*
X69232342Y-75514677D02*
X69327580Y-75467058D01*
X69327580Y-75467058D02*
X69470437Y-75467058D01*
X69470437Y-75467058D02*
X69565675Y-75514677D01*
X69565675Y-75514677D02*
X69613294Y-75562296D01*
X69613294Y-75562296D02*
X69660913Y-75657534D01*
X69660913Y-75657534D02*
X69660913Y-76038486D01*
X70137104Y-74990867D02*
X70137104Y-74800391D01*
X70137104Y-74800391D02*
X70089485Y-74705153D01*
X70089485Y-74705153D02*
X70041865Y-74657534D01*
X70041865Y-74657534D02*
X69899008Y-74562296D01*
X69899008Y-74562296D02*
X69708532Y-74514677D01*
X69708532Y-74514677D02*
X69327580Y-74514677D01*
X69327580Y-74514677D02*
X69232342Y-74562296D01*
X69232342Y-74562296D02*
X69184723Y-74609915D01*
X69184723Y-74609915D02*
X69137104Y-74705153D01*
X69137104Y-74705153D02*
X69137104Y-74895629D01*
X69137104Y-74895629D02*
X69184723Y-74990867D01*
X69184723Y-74990867D02*
X69232342Y-75038486D01*
X69232342Y-75038486D02*
X69327580Y-75086105D01*
X69327580Y-75086105D02*
X69565675Y-75086105D01*
X69565675Y-75086105D02*
X69660913Y-75038486D01*
X69660913Y-75038486D02*
X69708532Y-74990867D01*
X69708532Y-74990867D02*
X69756151Y-74895629D01*
X69756151Y-74895629D02*
X69756151Y-74705153D01*
X69756151Y-74705153D02*
X69708532Y-74609915D01*
X69708532Y-74609915D02*
X69660913Y-74562296D01*
X69660913Y-74562296D02*
X69565675Y-74514677D01*
%TO.C,D2*%
X116101905Y-66494819D02*
X116101905Y-65494819D01*
X116101905Y-65494819D02*
X116340000Y-65494819D01*
X116340000Y-65494819D02*
X116482857Y-65542438D01*
X116482857Y-65542438D02*
X116578095Y-65637676D01*
X116578095Y-65637676D02*
X116625714Y-65732914D01*
X116625714Y-65732914D02*
X116673333Y-65923390D01*
X116673333Y-65923390D02*
X116673333Y-66066247D01*
X116673333Y-66066247D02*
X116625714Y-66256723D01*
X116625714Y-66256723D02*
X116578095Y-66351961D01*
X116578095Y-66351961D02*
X116482857Y-66447200D01*
X116482857Y-66447200D02*
X116340000Y-66494819D01*
X116340000Y-66494819D02*
X116101905Y-66494819D01*
X117054286Y-65590057D02*
X117101905Y-65542438D01*
X117101905Y-65542438D02*
X117197143Y-65494819D01*
X117197143Y-65494819D02*
X117435238Y-65494819D01*
X117435238Y-65494819D02*
X117530476Y-65542438D01*
X117530476Y-65542438D02*
X117578095Y-65590057D01*
X117578095Y-65590057D02*
X117625714Y-65685295D01*
X117625714Y-65685295D02*
X117625714Y-65780533D01*
X117625714Y-65780533D02*
X117578095Y-65923390D01*
X117578095Y-65923390D02*
X117006667Y-66494819D01*
X117006667Y-66494819D02*
X117625714Y-66494819D01*
D12*
X115282857Y-62964895D02*
X114997143Y-62964895D01*
X115140000Y-62964895D02*
X115140000Y-62164895D01*
X115140000Y-62164895D02*
X115092381Y-62279180D01*
X115092381Y-62279180D02*
X115044762Y-62355371D01*
X115044762Y-62355371D02*
X114997143Y-62393466D01*
D11*
%TO.C,D1*%
X52601905Y-104594819D02*
X52601905Y-103594819D01*
X52601905Y-103594819D02*
X52840000Y-103594819D01*
X52840000Y-103594819D02*
X52982857Y-103642438D01*
X52982857Y-103642438D02*
X53078095Y-103737676D01*
X53078095Y-103737676D02*
X53125714Y-103832914D01*
X53125714Y-103832914D02*
X53173333Y-104023390D01*
X53173333Y-104023390D02*
X53173333Y-104166247D01*
X53173333Y-104166247D02*
X53125714Y-104356723D01*
X53125714Y-104356723D02*
X53078095Y-104451961D01*
X53078095Y-104451961D02*
X52982857Y-104547200D01*
X52982857Y-104547200D02*
X52840000Y-104594819D01*
X52840000Y-104594819D02*
X52601905Y-104594819D01*
X54125714Y-104594819D02*
X53554286Y-104594819D01*
X53840000Y-104594819D02*
X53840000Y-103594819D01*
X53840000Y-103594819D02*
X53744762Y-103737676D01*
X53744762Y-103737676D02*
X53649524Y-103832914D01*
X53649524Y-103832914D02*
X53554286Y-103880533D01*
D12*
X51782857Y-101064895D02*
X51497143Y-101064895D01*
X51640000Y-101064895D02*
X51640000Y-100264895D01*
X51640000Y-100264895D02*
X51592381Y-100379180D01*
X51592381Y-100379180D02*
X51544762Y-100455371D01*
X51544762Y-100455371D02*
X51497143Y-100493466D01*
D11*
%TO.C,REF\u002A\u002A*%
X239966666Y-61414819D02*
X239633333Y-60938628D01*
X239395238Y-61414819D02*
X239395238Y-60414819D01*
X239395238Y-60414819D02*
X239776190Y-60414819D01*
X239776190Y-60414819D02*
X239871428Y-60462438D01*
X239871428Y-60462438D02*
X239919047Y-60510057D01*
X239919047Y-60510057D02*
X239966666Y-60605295D01*
X239966666Y-60605295D02*
X239966666Y-60748152D01*
X239966666Y-60748152D02*
X239919047Y-60843390D01*
X239919047Y-60843390D02*
X239871428Y-60891009D01*
X239871428Y-60891009D02*
X239776190Y-60938628D01*
X239776190Y-60938628D02*
X239395238Y-60938628D01*
X240395238Y-60891009D02*
X240728571Y-60891009D01*
X240871428Y-61414819D02*
X240395238Y-61414819D01*
X240395238Y-61414819D02*
X240395238Y-60414819D01*
X240395238Y-60414819D02*
X240871428Y-60414819D01*
X241633333Y-60891009D02*
X241300000Y-60891009D01*
X241300000Y-61414819D02*
X241300000Y-60414819D01*
X241300000Y-60414819D02*
X241776190Y-60414819D01*
X242300000Y-60414819D02*
X242300000Y-60652914D01*
X242061905Y-60557676D02*
X242300000Y-60652914D01*
X242300000Y-60652914D02*
X242538095Y-60557676D01*
X242157143Y-60843390D02*
X242300000Y-60652914D01*
X242300000Y-60652914D02*
X242442857Y-60843390D01*
X243061905Y-60414819D02*
X243061905Y-60652914D01*
X242823810Y-60557676D02*
X243061905Y-60652914D01*
X243061905Y-60652914D02*
X243300000Y-60557676D01*
X242919048Y-60843390D02*
X243061905Y-60652914D01*
X243061905Y-60652914D02*
X243204762Y-60843390D01*
%TO.C,D4*%
X156241905Y-104594819D02*
X156241905Y-103594819D01*
X156241905Y-103594819D02*
X156480000Y-103594819D01*
X156480000Y-103594819D02*
X156622857Y-103642438D01*
X156622857Y-103642438D02*
X156718095Y-103737676D01*
X156718095Y-103737676D02*
X156765714Y-103832914D01*
X156765714Y-103832914D02*
X156813333Y-104023390D01*
X156813333Y-104023390D02*
X156813333Y-104166247D01*
X156813333Y-104166247D02*
X156765714Y-104356723D01*
X156765714Y-104356723D02*
X156718095Y-104451961D01*
X156718095Y-104451961D02*
X156622857Y-104547200D01*
X156622857Y-104547200D02*
X156480000Y-104594819D01*
X156480000Y-104594819D02*
X156241905Y-104594819D01*
X157670476Y-103928152D02*
X157670476Y-104594819D01*
X157432381Y-103547200D02*
X157194286Y-104261485D01*
X157194286Y-104261485D02*
X157813333Y-104261485D01*
D12*
X158462857Y-103604895D02*
X158177143Y-103604895D01*
X158320000Y-103604895D02*
X158320000Y-102804895D01*
X158320000Y-102804895D02*
X158272381Y-102919180D01*
X158272381Y-102919180D02*
X158224762Y-102995371D01*
X158224762Y-102995371D02*
X158177143Y-103033466D01*
D11*
%TO.C,D5*%
X186086210Y-81734819D02*
X186086210Y-80734819D01*
X186086210Y-80734819D02*
X186324305Y-80734819D01*
X186324305Y-80734819D02*
X186467162Y-80782438D01*
X186467162Y-80782438D02*
X186562400Y-80877676D01*
X186562400Y-80877676D02*
X186610019Y-80972914D01*
X186610019Y-80972914D02*
X186657638Y-81163390D01*
X186657638Y-81163390D02*
X186657638Y-81306247D01*
X186657638Y-81306247D02*
X186610019Y-81496723D01*
X186610019Y-81496723D02*
X186562400Y-81591961D01*
X186562400Y-81591961D02*
X186467162Y-81687200D01*
X186467162Y-81687200D02*
X186324305Y-81734819D01*
X186324305Y-81734819D02*
X186086210Y-81734819D01*
X187562400Y-80734819D02*
X187086210Y-80734819D01*
X187086210Y-80734819D02*
X187038591Y-81211009D01*
X187038591Y-81211009D02*
X187086210Y-81163390D01*
X187086210Y-81163390D02*
X187181448Y-81115771D01*
X187181448Y-81115771D02*
X187419543Y-81115771D01*
X187419543Y-81115771D02*
X187514781Y-81163390D01*
X187514781Y-81163390D02*
X187562400Y-81211009D01*
X187562400Y-81211009D02*
X187610019Y-81306247D01*
X187610019Y-81306247D02*
X187610019Y-81544342D01*
X187610019Y-81544342D02*
X187562400Y-81639580D01*
X187562400Y-81639580D02*
X187514781Y-81687200D01*
X187514781Y-81687200D02*
X187419543Y-81734819D01*
X187419543Y-81734819D02*
X187181448Y-81734819D01*
X187181448Y-81734819D02*
X187086210Y-81687200D01*
X187086210Y-81687200D02*
X187038591Y-81639580D01*
D12*
X185167162Y-78207258D02*
X184881448Y-78207258D01*
X185024305Y-78207258D02*
X185024305Y-77407258D01*
X185024305Y-77407258D02*
X184976686Y-77521543D01*
X184976686Y-77521543D02*
X184929067Y-77597734D01*
X184929067Y-77597734D02*
X184881448Y-77635829D01*
D11*
%TO.C,REF\u002A\u002A*%
X49466666Y-89354819D02*
X49133333Y-88878628D01*
X48895238Y-89354819D02*
X48895238Y-88354819D01*
X48895238Y-88354819D02*
X49276190Y-88354819D01*
X49276190Y-88354819D02*
X49371428Y-88402438D01*
X49371428Y-88402438D02*
X49419047Y-88450057D01*
X49419047Y-88450057D02*
X49466666Y-88545295D01*
X49466666Y-88545295D02*
X49466666Y-88688152D01*
X49466666Y-88688152D02*
X49419047Y-88783390D01*
X49419047Y-88783390D02*
X49371428Y-88831009D01*
X49371428Y-88831009D02*
X49276190Y-88878628D01*
X49276190Y-88878628D02*
X48895238Y-88878628D01*
X49895238Y-88831009D02*
X50228571Y-88831009D01*
X50371428Y-89354819D02*
X49895238Y-89354819D01*
X49895238Y-89354819D02*
X49895238Y-88354819D01*
X49895238Y-88354819D02*
X50371428Y-88354819D01*
X51133333Y-88831009D02*
X50800000Y-88831009D01*
X50800000Y-89354819D02*
X50800000Y-88354819D01*
X50800000Y-88354819D02*
X51276190Y-88354819D01*
X51800000Y-88354819D02*
X51800000Y-88592914D01*
X51561905Y-88497676D02*
X51800000Y-88592914D01*
X51800000Y-88592914D02*
X52038095Y-88497676D01*
X51657143Y-88783390D02*
X51800000Y-88592914D01*
X51800000Y-88592914D02*
X51942857Y-88783390D01*
X52561905Y-88354819D02*
X52561905Y-88592914D01*
X52323810Y-88497676D02*
X52561905Y-88592914D01*
X52561905Y-88592914D02*
X52800000Y-88497676D01*
X52419048Y-88783390D02*
X52561905Y-88592914D01*
X52561905Y-88592914D02*
X52704762Y-88783390D01*
%TO.C,R10*%
X66630629Y-75918321D02*
X66154438Y-76251654D01*
X66630629Y-76489749D02*
X65630629Y-76489749D01*
X65630629Y-76489749D02*
X65630629Y-76108797D01*
X65630629Y-76108797D02*
X65678248Y-76013559D01*
X65678248Y-76013559D02*
X65725867Y-75965940D01*
X65725867Y-75965940D02*
X65821105Y-75918321D01*
X65821105Y-75918321D02*
X65963962Y-75918321D01*
X65963962Y-75918321D02*
X66059200Y-75965940D01*
X66059200Y-75965940D02*
X66106819Y-76013559D01*
X66106819Y-76013559D02*
X66154438Y-76108797D01*
X66154438Y-76108797D02*
X66154438Y-76489749D01*
X66630629Y-74965940D02*
X66630629Y-75537368D01*
X66630629Y-75251654D02*
X65630629Y-75251654D01*
X65630629Y-75251654D02*
X65773486Y-75346892D01*
X65773486Y-75346892D02*
X65868724Y-75442130D01*
X65868724Y-75442130D02*
X65916343Y-75537368D01*
X65630629Y-74346892D02*
X65630629Y-74251654D01*
X65630629Y-74251654D02*
X65678248Y-74156416D01*
X65678248Y-74156416D02*
X65725867Y-74108797D01*
X65725867Y-74108797D02*
X65821105Y-74061178D01*
X65821105Y-74061178D02*
X66011581Y-74013559D01*
X66011581Y-74013559D02*
X66249676Y-74013559D01*
X66249676Y-74013559D02*
X66440152Y-74061178D01*
X66440152Y-74061178D02*
X66535390Y-74108797D01*
X66535390Y-74108797D02*
X66583010Y-74156416D01*
X66583010Y-74156416D02*
X66630629Y-74251654D01*
X66630629Y-74251654D02*
X66630629Y-74346892D01*
X66630629Y-74346892D02*
X66583010Y-74442130D01*
X66583010Y-74442130D02*
X66535390Y-74489749D01*
X66535390Y-74489749D02*
X66440152Y-74537368D01*
X66440152Y-74537368D02*
X66249676Y-74584987D01*
X66249676Y-74584987D02*
X66011581Y-74584987D01*
X66011581Y-74584987D02*
X65821105Y-74537368D01*
X65821105Y-74537368D02*
X65725867Y-74489749D01*
X65725867Y-74489749D02*
X65678248Y-74442130D01*
X65678248Y-74442130D02*
X65630629Y-74346892D01*
%TO.C,D3*%
X126261905Y-76654819D02*
X126261905Y-75654819D01*
X126261905Y-75654819D02*
X126500000Y-75654819D01*
X126500000Y-75654819D02*
X126642857Y-75702438D01*
X126642857Y-75702438D02*
X126738095Y-75797676D01*
X126738095Y-75797676D02*
X126785714Y-75892914D01*
X126785714Y-75892914D02*
X126833333Y-76083390D01*
X126833333Y-76083390D02*
X126833333Y-76226247D01*
X126833333Y-76226247D02*
X126785714Y-76416723D01*
X126785714Y-76416723D02*
X126738095Y-76511961D01*
X126738095Y-76511961D02*
X126642857Y-76607200D01*
X126642857Y-76607200D02*
X126500000Y-76654819D01*
X126500000Y-76654819D02*
X126261905Y-76654819D01*
X127166667Y-75654819D02*
X127785714Y-75654819D01*
X127785714Y-75654819D02*
X127452381Y-76035771D01*
X127452381Y-76035771D02*
X127595238Y-76035771D01*
X127595238Y-76035771D02*
X127690476Y-76083390D01*
X127690476Y-76083390D02*
X127738095Y-76131009D01*
X127738095Y-76131009D02*
X127785714Y-76226247D01*
X127785714Y-76226247D02*
X127785714Y-76464342D01*
X127785714Y-76464342D02*
X127738095Y-76559580D01*
X127738095Y-76559580D02*
X127690476Y-76607200D01*
X127690476Y-76607200D02*
X127595238Y-76654819D01*
X127595238Y-76654819D02*
X127309524Y-76654819D01*
X127309524Y-76654819D02*
X127214286Y-76607200D01*
X127214286Y-76607200D02*
X127166667Y-76559580D01*
D12*
X125442857Y-73124895D02*
X125157143Y-73124895D01*
X125300000Y-73124895D02*
X125300000Y-72324895D01*
X125300000Y-72324895D02*
X125252381Y-72439180D01*
X125252381Y-72439180D02*
X125204762Y-72515371D01*
X125204762Y-72515371D02*
X125157143Y-72553466D01*
D13*
%TO.C,R9*%
X68320000Y-76827064D02*
X68320000Y-73772936D01*
X71040000Y-76827064D02*
X71040000Y-73772936D01*
%TO.C,D2*%
X115640000Y-64900000D02*
X116340000Y-64900000D01*
%TO.C,D6*%
X117835000Y-87650000D02*
X120925000Y-87650000D01*
X119380462Y-82100001D02*
G75*
G03*
X117835170Y-87649999I-462J-2989999D01*
G01*
X120924830Y-87650000D02*
G75*
G03*
X119379538Y-82100000I-1544830J2560000D01*
G01*
X121880000Y-85090000D02*
G75*
G03*
X121880000Y-85090000I-2500000J0D01*
G01*
%TO.C,D1*%
X52140000Y-103000000D02*
X52840000Y-103000000D01*
%TO.C,J1*%
X213860000Y-56280000D02*
X212860000Y-56280000D01*
X212860000Y-56280000D02*
X213360000Y-57280000D01*
X213360000Y-57280000D02*
X213860000Y-56280000D01*
X218570000Y-57670000D02*
X218570000Y-66790000D01*
X212870000Y-57670000D02*
X212870000Y-58980000D01*
X203070000Y-57670000D02*
X218570000Y-57670000D01*
X217270000Y-58980000D02*
X217270000Y-65480000D01*
X212870000Y-58980000D02*
X217270000Y-58980000D01*
X208770000Y-58980000D02*
X208770000Y-57670000D01*
X208770000Y-58980000D02*
X208770000Y-58980000D01*
X204370000Y-58980000D02*
X208770000Y-58980000D01*
X217270000Y-65480000D02*
X204370000Y-65480000D01*
X204370000Y-65480000D02*
X204370000Y-58980000D01*
X218570000Y-66790000D02*
X203070000Y-66790000D01*
X203070000Y-66790000D02*
X203070000Y-57670000D01*
X109720000Y-56280000D02*
X108720000Y-56280000D01*
X108720000Y-56280000D02*
X109220000Y-57280000D01*
X109220000Y-57280000D02*
X109720000Y-56280000D01*
X114430000Y-57670000D02*
X114430000Y-66790000D01*
X108730000Y-57670000D02*
X108730000Y-58980000D01*
X98930000Y-57670000D02*
X114430000Y-57670000D01*
X113130000Y-58980000D02*
X113130000Y-65480000D01*
X108730000Y-58980000D02*
X113130000Y-58980000D01*
X104630000Y-58980000D02*
X104630000Y-57670000D01*
X104630000Y-58980000D02*
X104630000Y-58980000D01*
X100230000Y-58980000D02*
X104630000Y-58980000D01*
X113130000Y-65480000D02*
X100230000Y-65480000D01*
X100230000Y-65480000D02*
X100230000Y-58980000D01*
X114430000Y-66790000D02*
X98930000Y-66790000D01*
X98930000Y-66790000D02*
X98930000Y-57670000D01*
%TO.C,D4*%
X158820000Y-105540000D02*
X159520000Y-105540000D01*
%TO.C,D5*%
X185524305Y-80142363D02*
X186224305Y-80142363D01*
%TO.C,J1*%
X173220000Y-94380000D02*
X172220000Y-94380000D01*
X172220000Y-94380000D02*
X172720000Y-95380000D01*
X172720000Y-95380000D02*
X173220000Y-94380000D01*
X177930000Y-95770000D02*
X177930000Y-104890000D01*
X172230000Y-95770000D02*
X172230000Y-97080000D01*
X162430000Y-95770000D02*
X177930000Y-95770000D01*
X176630000Y-97080000D02*
X176630000Y-103580000D01*
X172230000Y-97080000D02*
X176630000Y-97080000D01*
X168130000Y-97080000D02*
X168130000Y-95770000D01*
X168130000Y-97080000D02*
X168130000Y-97080000D01*
X163730000Y-97080000D02*
X168130000Y-97080000D01*
X176630000Y-103580000D02*
X163730000Y-103580000D01*
X163730000Y-103580000D02*
X163730000Y-97080000D01*
X177930000Y-104890000D02*
X162430000Y-104890000D01*
X162430000Y-104890000D02*
X162430000Y-95770000D01*
%TO.C,R10*%
X67530000Y-73772936D02*
X67530000Y-76827064D01*
X64810000Y-73772936D02*
X64810000Y-76827064D01*
%TO.C,D3*%
X125800000Y-75060000D02*
X126500000Y-75060000D01*
%TO.C,J1*%
X71620000Y-94380000D02*
X70620000Y-94380000D01*
X70620000Y-94380000D02*
X71120000Y-95380000D01*
X71120000Y-95380000D02*
X71620000Y-94380000D01*
X76330000Y-95770000D02*
X76330000Y-104890000D01*
X70630000Y-95770000D02*
X70630000Y-97080000D01*
X60830000Y-95770000D02*
X76330000Y-95770000D01*
X75030000Y-97080000D02*
X75030000Y-103580000D01*
X70630000Y-97080000D02*
X75030000Y-97080000D01*
X66530000Y-97080000D02*
X66530000Y-95770000D01*
X66530000Y-97080000D02*
X66530000Y-97080000D01*
X62130000Y-97080000D02*
X66530000Y-97080000D01*
X75030000Y-103580000D02*
X62130000Y-103580000D01*
X62130000Y-103580000D02*
X62130000Y-97080000D01*
X76330000Y-104890000D02*
X60830000Y-104890000D01*
X60830000Y-104890000D02*
X60830000Y-95770000D01*
%TD*%
%LPC*%
D14*
%TO.C,R9*%
X69680000Y-77700000D03*
X69680000Y-72900000D03*
%TD*%
D15*
%TO.C,D2*%
X115890000Y-62500000D03*
D16*
X115890000Y-63500000D03*
D15*
X115890000Y-64500000D03*
X117790000Y-64500000D03*
D16*
X117790000Y-63500000D03*
D15*
X117790000Y-62500000D03*
%TD*%
D17*
%TO.C,D6*%
X119380000Y-86360000D03*
D18*
X119380000Y-83820000D03*
%TD*%
D15*
%TO.C,D1*%
X52390000Y-100600000D03*
D16*
X52390000Y-101600000D03*
D15*
X52390000Y-102600000D03*
X54290000Y-102600000D03*
D16*
X54290000Y-101600000D03*
D15*
X54290000Y-100600000D03*
%TD*%
D19*
%TO.C,hole1*%
X68580000Y-62230000D03*
%TD*%
%TO.C,REF\u002A\u002A*%
X236220000Y-60960000D03*
%TD*%
D20*
%TO.C,J1*%
X213360000Y-60960000D03*
D21*
X213360000Y-63500000D03*
X210820000Y-60960000D03*
X210820000Y-63500000D03*
X208280000Y-60960000D03*
X208280000Y-63500000D03*
%TD*%
D22*
%TO.C,bb1*%
X187960000Y-63500000D03*
%TD*%
D20*
%TO.C,J1*%
X109220000Y-60960000D03*
D21*
X109220000Y-63500000D03*
X106680000Y-60960000D03*
X106680000Y-63500000D03*
X104140000Y-60960000D03*
X104140000Y-63500000D03*
%TD*%
D22*
%TO.C,bb2*%
X187960000Y-86360000D03*
%TD*%
D15*
%TO.C,D4*%
X159070000Y-103140000D03*
D16*
X159070000Y-104140000D03*
D15*
X159070000Y-105140000D03*
X160970000Y-105140000D03*
D16*
X160970000Y-104140000D03*
D15*
X160970000Y-103140000D03*
%TD*%
D19*
%TO.C,U2*%
X114960000Y-103520000D03*
X114960000Y-136020000D03*
X180760000Y-103520000D03*
X180760000Y-136020000D03*
D23*
X137160000Y-102600000D03*
D21*
X139700000Y-102600000D03*
X142240000Y-102600000D03*
X144780000Y-102600000D03*
X147320000Y-102600000D03*
X149860000Y-102600000D03*
X152400000Y-102600000D03*
X154940000Y-102600000D03*
%TD*%
D15*
%TO.C,D5*%
X185774305Y-77742363D03*
D16*
X185774305Y-78742363D03*
D15*
X185774305Y-79742363D03*
X187674305Y-79742363D03*
D16*
X187674305Y-78742363D03*
D15*
X187674305Y-77742363D03*
%TD*%
D19*
%TO.C,REF\u002A\u002A*%
X55880000Y-88900000D03*
%TD*%
D20*
%TO.C,J1*%
X172720000Y-99060000D03*
D21*
X172720000Y-101600000D03*
X170180000Y-99060000D03*
X170180000Y-101600000D03*
X167640000Y-99060000D03*
X167640000Y-101600000D03*
%TD*%
D22*
%TO.C,bb5*%
X134620000Y-86360000D03*
%TD*%
%TO.C,bb6*%
X134620000Y-63500000D03*
%TD*%
D24*
%TO.C,bb4*%
X142240000Y-95250000D03*
%TD*%
D19*
%TO.C,hole2*%
X228600000Y-62230000D03*
%TD*%
D25*
%TO.C,R10*%
X66170000Y-72900000D03*
X66170000Y-77700000D03*
%TD*%
D15*
%TO.C,D3*%
X126050000Y-72660000D03*
D16*
X126050000Y-73660000D03*
D15*
X126050000Y-74660000D03*
X127950000Y-74660000D03*
D16*
X127950000Y-73660000D03*
D15*
X127950000Y-72660000D03*
%TD*%
D20*
%TO.C,J1*%
X71120000Y-99060000D03*
D21*
X71120000Y-101600000D03*
X68580000Y-99060000D03*
X68580000Y-101600000D03*
X66040000Y-99060000D03*
X66040000Y-101600000D03*
%TD*%
D24*
%TO.C,bb3*%
X180340000Y-95250000D03*
%TD*%
D19*
%TO.C,U2*%
X56004294Y-62658587D03*
X53171733Y-95034914D03*
X121553906Y-68393435D03*
X118721344Y-100769762D03*
D26*
X78200000Y-63676945D03*
D21*
X80730335Y-63898321D03*
X83260669Y-64119696D03*
X85791004Y-64341072D03*
X88321338Y-64562447D03*
X90851673Y-64783823D03*
X93382007Y-65005199D03*
X95912342Y-65226574D03*
%TD*%
D27*
%TO.C,R2*%
X132080000Y-60953212D03*
X128680000Y-60953212D03*
%TD*%
D28*
%TO.C,U3*%
X107885000Y-88900000D03*
D29*
X107885000Y-86360000D03*
X107885000Y-83820000D03*
%TD*%
D30*
%TO.C,U1*%
X70470010Y-86659629D03*
D31*
X66169266Y-79714877D03*
X69679266Y-79714877D03*
%TD*%
%LPD*%
M02*
