M48
; DRILL file {KiCad 6.0.10-86aedd382b~118~ubuntu22.04.1} date Fri 27 Jan 2023 10:34:47 AM CST
; FORMAT={-:-/ absolute / metric / decimal}
; #@! TF.CreationDate,2023-01-27T10:34:47-06:00
; #@! TF.GenerationSoftware,Kicad,Pcbnew,6.0.10-86aedd382b~118~ubuntu22.04.1
; #@! TF.FileFunction,Plated,1,2,PTH
FMAT,2
METRIC
; #@! TA.AperFunction,Plated,PTH,ViaDrill
T1C0.400
; #@! TA.AperFunction,Plated,PTH,ComponentDrill
T2C0.800
; #@! TA.AperFunction,Plated,PTH,ComponentDrill
T3C0.900
; #@! TA.AperFunction,Plated,PTH,ComponentDrill
T4C1.000
; #@! TA.AperFunction,Plated,PTH,ComponentDrill
T5C1.100
; #@! TA.AperFunction,Plated,PTH,ComponentDrill
T6C2.500
%
G90
G05
T1
X52.39Y-102.6
X54.34Y-102.6
X64.12Y-73.976
X66.04Y-88.9
X66.66Y-75.476
X69.2Y-73.976
X69.2Y-94.539
X71.74Y-73.976
X74.28Y-73.976
X76.2Y-99.06
X76.2Y-101.6
X76.82Y-73.976
X78.74Y-86.36
X83.82Y-73.66
X83.82Y-86.36
X83.82Y-88.9
X86.19Y-80.18
X86.19Y-83.305
X86.36Y-88.9
X88.9Y-96.52
X91.44Y-86.36
X96.35Y-80.18
X96.35Y-83.305
X96.52Y-68.58
X101.6Y-66.04
X102.62Y-71.08
X110.822Y-90.49
X110.822Y-91.941
X111.76Y-66.04
X111.76Y-68.58
X115.89Y-64.5
X117.79Y-64.5
X123.95Y-88.94
X124.46Y-78.74
X126.07Y-74.64
X127.95Y-74.66
X129.44Y-101.7
X132.08Y-91.44
X132.08Y-101.6
X157.48Y-101.6
X159.07Y-105.14
X160.396Y-86.166
X160.97Y-105.14
X162.56Y-101.6
X165.1Y-88.9
X170.18Y-93.98
X172.72Y-91.3
X172.72Y-93.98
X172.72Y-96.46
X175.26Y-91.44
X185.774Y-79.742
X187.674Y-79.742
X193.04Y-83.82
X197.84Y-83.82
X197.84Y-88.9
T2
X128.68Y-60.953
X132.08Y-60.953
T3
X119.38Y-83.82
X119.38Y-86.36
T4
X66.04Y-99.06
X66.04Y-101.6
X68.58Y-99.06
X68.58Y-101.6
X71.12Y-99.06
X71.12Y-101.6
X78.2Y-63.677
X80.73Y-63.898
X83.261Y-64.12
X85.791Y-64.341
X88.321Y-64.562
X90.852Y-64.784
X93.382Y-65.005
X95.912Y-65.227
X104.14Y-60.96
X104.14Y-63.5
X106.68Y-60.96
X106.68Y-63.5
X109.22Y-60.96
X109.22Y-63.5
X137.16Y-101.6
X139.7Y-101.6
X142.24Y-101.6
X144.78Y-101.6
X147.32Y-101.6
X149.86Y-101.6
X152.4Y-101.6
X154.94Y-101.6
X167.64Y-99.06
X167.64Y-101.6
X170.18Y-99.06
X170.18Y-101.6
X172.72Y-99.06
X172.72Y-101.6
X208.28Y-60.96
X208.28Y-63.5
X210.82Y-60.96
X210.82Y-63.5
X213.36Y-60.96
X213.36Y-63.5
T5
X107.885Y-83.82
X107.885Y-86.36
X107.885Y-88.9
T6
X66.169Y-79.715
X69.679Y-79.715
X70.47Y-86.66
T0
M30
