%TF.GenerationSoftware,KiCad,Pcbnew,6.0.9-8da3e8f707~117~ubuntu22.04.1*%
%TF.CreationDate,2022-12-07T09:55:44-06:00*%
%TF.ProjectId,badge,62616467-652e-46b6-9963-61645f706362,rev?*%
%TF.SameCoordinates,Original*%
%TF.FileFunction,Soldermask,Bot*%
%TF.FilePolarity,Negative*%
%FSLAX46Y46*%
G04 Gerber Fmt 4.6, Leading zero omitted, Abs format (unit mm)*
G04 Created by KiCad (PCBNEW 6.0.9-8da3e8f707~117~ubuntu22.04.1) date 2022-12-07 09:55:44*
%MOMM*%
%LPD*%
G01*
G04 APERTURE LIST*
G04 Aperture macros list*
%AMRoundRect*
0 Rectangle with rounded corners*
0 $1 Rounding radius*
0 $2 $3 $4 $5 $6 $7 $8 $9 X,Y pos of 4 corners*
0 Add a 4 corners polygon primitive as box body*
4,1,4,$2,$3,$4,$5,$6,$7,$8,$9,$2,$3,0*
0 Add four circle primitives for the rounded corners*
1,1,$1+$1,$2,$3*
1,1,$1+$1,$4,$5*
1,1,$1+$1,$6,$7*
1,1,$1+$1,$8,$9*
0 Add four rect primitives between the rounded corners*
20,1,$1+$1,$2,$3,$4,$5,0*
20,1,$1+$1,$4,$5,$6,$7,0*
20,1,$1+$1,$6,$7,$8,$9,0*
20,1,$1+$1,$8,$9,$2,$3,0*%
G04 Aperture macros list end*
%ADD10RoundRect,0.249999X0.450001X1.075001X-0.450001X1.075001X-0.450001X-1.075001X0.450001X-1.075001X0*%
%ADD11RoundRect,0.250000X-0.600000X0.600000X-0.600000X-0.600000X0.600000X-0.600000X0.600000X0.600000X0*%
%ADD12C,1.700000*%
%ADD13RoundRect,0.750000X-0.750000X-3.250000X0.750000X-3.250000X0.750000X3.250000X-0.750000X3.250000X0*%
%ADD14C,2.700000*%
%ADD15C,0.001000*%
%ADD16R,1.700000X1.700000*%
%ADD17RoundRect,0.750000X3.250000X-0.750000X3.250000X0.750000X-3.250000X0.750000X-3.250000X-0.750000X0*%
%ADD18RoundRect,0.249999X1.075001X-0.450001X1.075001X0.450001X-1.075001X0.450001X-1.075001X-0.450001X0*%
%ADD19RoundRect,0.249999X-1.075001X0.450001X-1.075001X-0.450001X1.075001X-0.450001X1.075001X0.450001X0*%
%ADD20RoundRect,0.250000X0.650000X-0.412500X0.650000X0.412500X-0.650000X0.412500X-0.650000X-0.412500X0*%
%ADD21R,1.800000X1.800000*%
%ADD22C,1.800000*%
%ADD23C,1.500000*%
%ADD24RoundRect,0.250000X-1.500000X0.250000X-1.500000X-0.250000X1.500000X-0.250000X1.500000X0.250000X0*%
%ADD25RoundRect,0.250001X-1.449999X0.499999X-1.449999X-0.499999X1.449999X-0.499999X1.449999X0.499999X0*%
%ADD26RoundRect,0.300000X0.650000X-0.300000X0.650000X0.300000X-0.650000X0.300000X-0.650000X-0.300000X0*%
%ADD27RoundRect,0.249999X-0.450001X-1.075001X0.450001X-1.075001X0.450001X1.075001X-0.450001X1.075001X0*%
%ADD28RoundRect,0.150000X-0.587500X-0.150000X0.587500X-0.150000X0.587500X0.150000X-0.587500X0.150000X0*%
%ADD29RoundRect,0.300000X-0.650000X0.300000X-0.650000X-0.300000X0.650000X-0.300000X0.650000X0.300000X0*%
%ADD30R,2.000000X1.905000*%
%ADD31O,2.000000X1.905000*%
%ADD32R,1.100000X1.800000*%
%ADD33RoundRect,0.100000X0.637500X0.100000X-0.637500X0.100000X-0.637500X-0.100000X0.637500X-0.100000X0*%
%ADD34RoundRect,0.375000X-0.375000X1.125000X-0.375000X-1.125000X0.375000X-1.125000X0.375000X1.125000X0*%
%ADD35RoundRect,0.750000X0.750000X-0.750000X0.750000X0.750000X-0.750000X0.750000X-0.750000X-0.750000X0*%
%ADD36C,1.143000*%
%ADD37RoundRect,1.250000X1.250000X1.250000X-1.250000X1.250000X-1.250000X-1.250000X1.250000X-1.250000X0*%
G04 APERTURE END LIST*
D10*
%TO.C,R6*%
X197840000Y-76200000D03*
X193040000Y-76200000D03*
%TD*%
D11*
%TO.C,J1*%
X200660000Y-60960000D03*
D12*
X200660000Y-63500000D03*
X198120000Y-60960000D03*
X198120000Y-63500000D03*
X195580000Y-60960000D03*
X195580000Y-63500000D03*
%TD*%
D13*
%TO.C,REF\u002A\u002A*%
X187960000Y-63500000D03*
%TD*%
D11*
%TO.C,J1*%
X93980000Y-60960000D03*
D12*
X93980000Y-63500000D03*
X91440000Y-60960000D03*
X91440000Y-63500000D03*
X88900000Y-60960000D03*
X88900000Y-63500000D03*
%TD*%
D13*
%TO.C,REF\u002A\u002A*%
X187960000Y-86360000D03*
%TD*%
D14*
%TO.C,U2*%
X115360000Y-103020000D03*
X180360000Y-103020000D03*
D15*
X115360000Y-135020000D03*
X180360000Y-135020000D03*
D16*
X137160000Y-101600000D03*
D12*
X139700000Y-101600000D03*
X142240000Y-101600000D03*
X144780000Y-101600000D03*
X147320000Y-101600000D03*
X149860000Y-101600000D03*
X152400000Y-101600000D03*
X154940000Y-101600000D03*
%TD*%
D11*
%TO.C,J1*%
X172720000Y-99060000D03*
D12*
X172720000Y-101600000D03*
X170180000Y-99060000D03*
X170180000Y-101600000D03*
X167640000Y-99060000D03*
X167640000Y-101600000D03*
%TD*%
D13*
%TO.C,REF\u002A\u002A*%
X134620000Y-86360000D03*
%TD*%
D14*
%TO.C,U2*%
X124480000Y-103020000D03*
D15*
X59480000Y-135020000D03*
X124480000Y-135020000D03*
D14*
X59480000Y-103020000D03*
D16*
X81280000Y-101600000D03*
D12*
X83820000Y-101600000D03*
X86360000Y-101600000D03*
X88900000Y-101600000D03*
X91440000Y-101600000D03*
X93980000Y-101600000D03*
X96520000Y-101600000D03*
X99060000Y-101600000D03*
%TD*%
D13*
%TO.C,REF\u002A\u002A*%
X134620000Y-63500000D03*
%TD*%
D17*
%TO.C,REF\u002A\u002A*%
X142240000Y-95250000D03*
%TD*%
D14*
%TO.C,U2*%
X191560000Y-94380000D03*
D15*
X256560000Y-94380000D03*
X256560000Y-62380000D03*
D14*
X191560000Y-62380000D03*
D16*
X213360000Y-60960000D03*
D12*
X215900000Y-60960000D03*
X218440000Y-60960000D03*
X220980000Y-60960000D03*
X223520000Y-60960000D03*
X226060000Y-60960000D03*
X228600000Y-60960000D03*
X231140000Y-60960000D03*
%TD*%
D14*
%TO.C,U2*%
X111780000Y-62380000D03*
X111780000Y-94380000D03*
D15*
X46780000Y-62380000D03*
X46780000Y-94380000D03*
D16*
X68580000Y-60960000D03*
D12*
X71120000Y-60960000D03*
X73660000Y-60960000D03*
X76200000Y-60960000D03*
X78740000Y-60960000D03*
X81280000Y-60960000D03*
X83820000Y-60960000D03*
X86360000Y-60960000D03*
%TD*%
D17*
%TO.C,REF\u002A\u002A*%
X180340000Y-95250000D03*
%TD*%
D18*
%TO.C,R3*%
X129540000Y-73520000D03*
X129540000Y-68720000D03*
%TD*%
D19*
%TO.C,R11*%
X116840000Y-89040000D03*
X116840000Y-93840000D03*
%TD*%
D20*
%TO.C,C1*%
X96520000Y-76785000D03*
X96520000Y-73660000D03*
%TD*%
D21*
%TO.C,D6*%
X119380000Y-86360000D03*
D22*
X119380000Y-83820000D03*
%TD*%
D23*
%TO.C,R2*%
X121920000Y-60960000D03*
X125320000Y-60960000D03*
%TD*%
D24*
%TO.C,BT1*%
X108660000Y-70120000D03*
X108660000Y-72120000D03*
D25*
X114410000Y-67770000D03*
X114410000Y-74470000D03*
%TD*%
D26*
%TO.C,SW1*%
X107190000Y-66000000D03*
X107190000Y-63500000D03*
X107190000Y-61000000D03*
X101090000Y-66000000D03*
X101090000Y-63500000D03*
X101090000Y-61000000D03*
%TD*%
D27*
%TO.C,R4*%
X193040000Y-88900000D03*
X197840000Y-88900000D03*
%TD*%
D28*
%TO.C,Q1*%
X110822500Y-89850000D03*
X110822500Y-87950000D03*
X112697500Y-88900000D03*
%TD*%
D29*
%TO.C,SW3*%
X123950000Y-88940000D03*
X123950000Y-91440000D03*
X123950000Y-93940000D03*
X130050000Y-88940000D03*
X130050000Y-91440000D03*
X130050000Y-93940000D03*
%TD*%
D30*
%TO.C,U3*%
X107885000Y-83820000D03*
D31*
X107885000Y-81280000D03*
X107885000Y-78740000D03*
%TD*%
D32*
%TO.C,SW2*%
X132685044Y-59738914D03*
X132685044Y-65938914D03*
X128985044Y-65938914D03*
X128985044Y-59738914D03*
%TD*%
D33*
%TO.C,U4*%
X94302500Y-76790000D03*
X94302500Y-77440000D03*
X94302500Y-78090000D03*
X94302500Y-78740000D03*
X94302500Y-79390000D03*
X94302500Y-80040000D03*
X94302500Y-80690000D03*
X88577500Y-80690000D03*
X88577500Y-80040000D03*
X88577500Y-79390000D03*
X88577500Y-78740000D03*
X88577500Y-78090000D03*
X88577500Y-77440000D03*
X88577500Y-76790000D03*
%TD*%
D20*
%TO.C,C2*%
X86360000Y-76785000D03*
X86360000Y-73660000D03*
%TD*%
D34*
%TO.C,U1*%
X61580490Y-75975780D03*
X64120490Y-75975780D03*
X66660490Y-75975780D03*
X69200490Y-75975780D03*
X71740490Y-75975780D03*
X74280490Y-75975780D03*
X76820490Y-75975780D03*
X76820490Y-92140340D03*
X74280490Y-92140340D03*
X71740490Y-92140340D03*
X69200490Y-92140340D03*
X66660490Y-92140340D03*
X64120490Y-92140340D03*
X61580490Y-92140340D03*
D35*
X69679266Y-79714877D03*
X66169266Y-79714877D03*
D36*
X60630123Y-82841463D03*
X60630123Y-85381463D03*
X63170123Y-82841463D03*
X63170123Y-85381463D03*
X65710310Y-82841463D03*
X65710310Y-85381463D03*
D37*
X70470010Y-86659629D03*
%TD*%
D18*
%TO.C,R1*%
X121920000Y-73520000D03*
X121920000Y-68720000D03*
%TD*%
D27*
%TO.C,R5*%
X193040000Y-83820000D03*
X197840000Y-83820000D03*
%TD*%
%TO.C,R7*%
X193040000Y-71120000D03*
X197840000Y-71120000D03*
%TD*%
M02*
