%TF.GenerationSoftware,KiCad,Pcbnew,6.0.10-86aedd382b~118~ubuntu22.04.1*%
%TF.CreationDate,2023-01-30T16:02:00-06:00*%
%TF.ProjectId,badge,62616467-652e-46b6-9963-61645f706362,rev?*%
%TF.SameCoordinates,Original*%
%TF.FileFunction,Legend,Top*%
%TF.FilePolarity,Positive*%
%FSLAX46Y46*%
G04 Gerber Fmt 4.6, Leading zero omitted, Abs format (unit mm)*
G04 Created by KiCad (PCBNEW 6.0.10-86aedd382b~118~ubuntu22.04.1) date 2023-01-30 16:02:00*
%MOMM*%
%LPD*%
G01*
G04 APERTURE LIST*
G04 Aperture macros list*
%AMRoundRect*
0 Rectangle with rounded corners*
0 $1 Rounding radius*
0 $2 $3 $4 $5 $6 $7 $8 $9 X,Y pos of 4 corners*
0 Add a 4 corners polygon primitive as box body*
4,1,4,$2,$3,$4,$5,$6,$7,$8,$9,$2,$3,0*
0 Add four circle primitives for the rounded corners*
1,1,$1+$1,$2,$3*
1,1,$1+$1,$4,$5*
1,1,$1+$1,$6,$7*
1,1,$1+$1,$8,$9*
0 Add four rect primitives between the rounded corners*
20,1,$1+$1,$2,$3,$4,$5,0*
20,1,$1+$1,$4,$5,$6,$7,0*
20,1,$1+$1,$6,$7,$8,$9,0*
20,1,$1+$1,$8,$9,$2,$3,0*%
%AMRotRect*
0 Rectangle, with rotation*
0 The origin of the aperture is its center*
0 $1 length*
0 $2 width*
0 $3 Rotation angle, in degrees counterclockwise*
0 Add horizontal line*
21,1,$1,$2,0,0,$3*%
G04 Aperture macros list end*
%ADD10C,0.500000*%
%ADD11C,0.150000*%
%ADD12C,0.100000*%
%ADD13C,0.120000*%
%ADD14RoundRect,0.357142X1.142858X-0.642858X1.142858X0.642858X-1.142858X0.642858X-1.142858X-0.642858X0*%
%ADD15R,1.000000X0.700000*%
%ADD16R,1.000000X0.500000*%
%ADD17C,3.000000*%
%ADD18RoundRect,0.250000X-0.600000X0.600000X-0.600000X-0.600000X0.600000X-0.600000X0.600000X0.600000X0*%
%ADD19C,1.700000*%
%ADD20O,3.000000X6.000000*%
%ADD21R,1.700000X1.700000*%
%ADD22O,6.000000X3.000000*%
%ADD23RoundRect,0.357142X-1.142858X0.642858X-1.142858X-0.642858X1.142858X-0.642858X1.142858X0.642858X0*%
%ADD24RotRect,1.700000X1.700000X355.000000*%
%ADD25R,1.800000X1.800000*%
%ADD26C,1.800000*%
%ADD27C,1.500000*%
%ADD28R,2.000000X1.905000*%
%ADD29O,2.000000X1.905000*%
%ADD30RoundRect,0.750000X0.750000X-0.750000X0.750000X0.750000X-0.750000X0.750000X-0.750000X-0.750000X0*%
%ADD31RoundRect,1.250000X1.250000X1.250000X-1.250000X1.250000X-1.250000X-1.250000X1.250000X-1.250000X0*%
G04 APERTURE END LIST*
D10*
X136099761Y-67062142D02*
X140671190Y-67062142D01*
X138010476Y-70062142D02*
X138385476Y-67062142D01*
X146028333Y-69919285D02*
X145248571Y-70062142D01*
X143724761Y-70062142D01*
X142980714Y-69919285D01*
X142635476Y-69633571D01*
X142778333Y-68490714D01*
X143195000Y-68205000D01*
X143974761Y-68062142D01*
X145498571Y-68062142D01*
X146242619Y-68205000D01*
X146587857Y-68490714D01*
X146552142Y-68776428D01*
X142706904Y-69062142D01*
X150070000Y-68062142D02*
X149820000Y-70062142D01*
X150034285Y-68347857D02*
X150433095Y-68205000D01*
X151212857Y-68062142D01*
X152355714Y-68062142D01*
X153099761Y-68205000D01*
X153445000Y-68490714D01*
X153248571Y-70062142D01*
X157308095Y-68062142D02*
X157058095Y-70062142D01*
X157272380Y-68347857D02*
X157671190Y-68205000D01*
X158450952Y-68062142D01*
X159593809Y-68062142D01*
X160337857Y-68205000D01*
X160683095Y-68490714D01*
X160486666Y-70062142D01*
X167361666Y-69919285D02*
X166581904Y-70062142D01*
X165058095Y-70062142D01*
X164314047Y-69919285D01*
X163968809Y-69633571D01*
X164111666Y-68490714D01*
X164528333Y-68205000D01*
X165308095Y-68062142D01*
X166831904Y-68062142D01*
X167575952Y-68205000D01*
X167921190Y-68490714D01*
X167885476Y-68776428D01*
X164040238Y-69062142D01*
X170790238Y-69919285D02*
X171534285Y-70062142D01*
X173058095Y-70062142D01*
X173837857Y-69919285D01*
X174254523Y-69633571D01*
X174272380Y-69490714D01*
X173927142Y-69205000D01*
X173183095Y-69062142D01*
X172040238Y-69062142D01*
X171296190Y-68919285D01*
X170950952Y-68633571D01*
X170968809Y-68490714D01*
X171385476Y-68205000D01*
X172165238Y-68062142D01*
X173308095Y-68062142D01*
X174052142Y-68205000D01*
X177266428Y-69919285D02*
X178010476Y-70062142D01*
X179534285Y-70062142D01*
X180314047Y-69919285D01*
X180730714Y-69633571D01*
X180748571Y-69490714D01*
X180403333Y-69205000D01*
X179659285Y-69062142D01*
X178516428Y-69062142D01*
X177772380Y-68919285D01*
X177427142Y-68633571D01*
X177445000Y-68490714D01*
X177861666Y-68205000D01*
X178641428Y-68062142D01*
X179784285Y-68062142D01*
X180528333Y-68205000D01*
X187171190Y-69919285D02*
X186391428Y-70062142D01*
X184867619Y-70062142D01*
X184123571Y-69919285D01*
X183778333Y-69633571D01*
X183921190Y-68490714D01*
X184337857Y-68205000D01*
X185117619Y-68062142D01*
X186641428Y-68062142D01*
X187385476Y-68205000D01*
X187730714Y-68490714D01*
X187695000Y-68776428D01*
X183849761Y-69062142D01*
X194028333Y-69919285D02*
X193248571Y-70062142D01*
X191724761Y-70062142D01*
X190980714Y-69919285D01*
X190635476Y-69633571D01*
X190778333Y-68490714D01*
X191195000Y-68205000D01*
X191974761Y-68062142D01*
X193498571Y-68062142D01*
X194242619Y-68205000D01*
X194587857Y-68490714D01*
X194552142Y-68776428D01*
X190706904Y-69062142D01*
X141474761Y-74606428D02*
X141075952Y-74749285D01*
X139915238Y-74892142D01*
X139153333Y-74892142D01*
X138028333Y-74749285D01*
X137302142Y-74463571D01*
X136956904Y-74177857D01*
X136647380Y-73606428D01*
X136700952Y-73177857D01*
X137153333Y-72606428D01*
X137570000Y-72320714D01*
X138367619Y-72035000D01*
X139528333Y-71892142D01*
X140290238Y-71892142D01*
X141415238Y-72035000D01*
X141778333Y-72177857D01*
X144355714Y-72892142D02*
X146010476Y-74892142D01*
X148165238Y-72892142D02*
X146010476Y-74892142D01*
X145159285Y-75606428D01*
X144760476Y-75749285D01*
X143980714Y-75892142D01*
X150962857Y-74892142D02*
X151337857Y-71892142D01*
X151195000Y-73035000D02*
X151974761Y-72892142D01*
X153498571Y-72892142D01*
X154242619Y-73035000D01*
X154605714Y-73177857D01*
X154950952Y-73463571D01*
X154843809Y-74320714D01*
X154427142Y-74606428D01*
X154028333Y-74749285D01*
X153248571Y-74892142D01*
X151724761Y-74892142D01*
X150980714Y-74749285D01*
X161266428Y-74749285D02*
X160486666Y-74892142D01*
X158962857Y-74892142D01*
X158218809Y-74749285D01*
X157873571Y-74463571D01*
X158016428Y-73320714D01*
X158433095Y-73035000D01*
X159212857Y-72892142D01*
X160736666Y-72892142D01*
X161480714Y-73035000D01*
X161825952Y-73320714D01*
X161790238Y-73606428D01*
X157945000Y-73892142D01*
X165058095Y-74892142D02*
X165308095Y-72892142D01*
X165236666Y-73463571D02*
X165653333Y-73177857D01*
X166052142Y-73035000D01*
X166831904Y-72892142D01*
X167593809Y-72892142D01*
X169647380Y-74749285D02*
X170391428Y-74892142D01*
X171915238Y-74892142D01*
X172695000Y-74749285D01*
X173111666Y-74463571D01*
X173129523Y-74320714D01*
X172784285Y-74035000D01*
X172040238Y-73892142D01*
X170897380Y-73892142D01*
X170153333Y-73749285D01*
X169808095Y-73463571D01*
X169825952Y-73320714D01*
X170242619Y-73035000D01*
X171022380Y-72892142D01*
X172165238Y-72892142D01*
X172909285Y-73035000D01*
X179552142Y-74749285D02*
X178772380Y-74892142D01*
X177248571Y-74892142D01*
X176504523Y-74749285D01*
X176159285Y-74463571D01*
X176302142Y-73320714D01*
X176718809Y-73035000D01*
X177498571Y-72892142D01*
X179022380Y-72892142D01*
X179766428Y-73035000D01*
X180111666Y-73320714D01*
X180075952Y-73606428D01*
X176230714Y-73892142D01*
X186790238Y-74749285D02*
X186010476Y-74892142D01*
X184486666Y-74892142D01*
X183742619Y-74749285D01*
X183379523Y-74606428D01*
X183034285Y-74320714D01*
X183141428Y-73463571D01*
X183558095Y-73177857D01*
X183956904Y-73035000D01*
X184736666Y-72892142D01*
X186260476Y-72892142D01*
X187004523Y-73035000D01*
X193879523Y-72892142D02*
X193629523Y-74892142D01*
X190450952Y-72892142D02*
X190254523Y-74463571D01*
X190599761Y-74749285D01*
X191343809Y-74892142D01*
X192486666Y-74892142D01*
X193266428Y-74749285D01*
X193665238Y-74606428D01*
X197439047Y-74892142D02*
X197689047Y-72892142D01*
X197617619Y-73463571D02*
X198034285Y-73177857D01*
X198433095Y-73035000D01*
X199212857Y-72892142D01*
X199974761Y-72892142D01*
X202391428Y-74892142D02*
X202641428Y-72892142D01*
X202766428Y-71892142D02*
X202367619Y-72035000D01*
X202730714Y-72177857D01*
X203129523Y-72035000D01*
X202766428Y-71892142D01*
X202730714Y-72177857D01*
X205308095Y-72892142D02*
X208355714Y-72892142D01*
X206575952Y-71892142D02*
X206254523Y-74463571D01*
X206599761Y-74749285D01*
X207343809Y-74892142D01*
X208105714Y-74892142D01*
X210260476Y-72892142D02*
X211915238Y-74892142D01*
X214070000Y-72892142D02*
X211915238Y-74892142D01*
X211064047Y-75606428D01*
X210665238Y-75749285D01*
X209885476Y-75892142D01*
D11*
%TO.C,R9*%
X70134665Y-75467058D02*
X69658475Y-75800392D01*
X70134665Y-76038487D02*
X69134665Y-76038487D01*
X69134665Y-75657534D01*
X69182285Y-75562296D01*
X69229904Y-75514677D01*
X69325142Y-75467058D01*
X69467999Y-75467058D01*
X69563237Y-75514677D01*
X69610856Y-75562296D01*
X69658475Y-75657534D01*
X69658475Y-76038487D01*
X70134665Y-74990868D02*
X70134665Y-74800392D01*
X70087046Y-74705153D01*
X70039427Y-74657534D01*
X69896570Y-74562296D01*
X69706094Y-74514677D01*
X69325142Y-74514677D01*
X69229904Y-74562296D01*
X69182285Y-74609915D01*
X69134665Y-74705153D01*
X69134665Y-74895630D01*
X69182285Y-74990868D01*
X69229904Y-75038487D01*
X69325142Y-75086106D01*
X69563237Y-75086106D01*
X69658475Y-75038487D01*
X69706094Y-74990868D01*
X69753713Y-74895630D01*
X69753713Y-74705153D01*
X69706094Y-74609915D01*
X69658475Y-74562296D01*
X69563237Y-74514677D01*
%TO.C,D2*%
X116101904Y-66492380D02*
X116101904Y-65492380D01*
X116340000Y-65492380D01*
X116482857Y-65540000D01*
X116578095Y-65635238D01*
X116625714Y-65730476D01*
X116673333Y-65920952D01*
X116673333Y-66063809D01*
X116625714Y-66254285D01*
X116578095Y-66349523D01*
X116482857Y-66444761D01*
X116340000Y-66492380D01*
X116101904Y-66492380D01*
X117054285Y-65587619D02*
X117101904Y-65540000D01*
X117197142Y-65492380D01*
X117435238Y-65492380D01*
X117530476Y-65540000D01*
X117578095Y-65587619D01*
X117625714Y-65682857D01*
X117625714Y-65778095D01*
X117578095Y-65920952D01*
X117006666Y-66492380D01*
X117625714Y-66492380D01*
D12*
X115311428Y-62871428D02*
X114968571Y-62871428D01*
X115140000Y-62871428D02*
X115140000Y-62271428D01*
X115082857Y-62357142D01*
X115025714Y-62414285D01*
X114968571Y-62442857D01*
D11*
%TO.C,D1*%
X52601904Y-104592380D02*
X52601904Y-103592380D01*
X52840000Y-103592380D01*
X52982857Y-103640000D01*
X53078095Y-103735238D01*
X53125714Y-103830476D01*
X53173333Y-104020952D01*
X53173333Y-104163809D01*
X53125714Y-104354285D01*
X53078095Y-104449523D01*
X52982857Y-104544761D01*
X52840000Y-104592380D01*
X52601904Y-104592380D01*
X54125714Y-104592380D02*
X53554285Y-104592380D01*
X53840000Y-104592380D02*
X53840000Y-103592380D01*
X53744761Y-103735238D01*
X53649523Y-103830476D01*
X53554285Y-103878095D01*
D12*
X51811428Y-100971428D02*
X51468571Y-100971428D01*
X51640000Y-100971428D02*
X51640000Y-100371428D01*
X51582857Y-100457142D01*
X51525714Y-100514285D01*
X51468571Y-100542857D01*
D11*
%TO.C,D4*%
X156241904Y-104592380D02*
X156241904Y-103592380D01*
X156480000Y-103592380D01*
X156622857Y-103640000D01*
X156718095Y-103735238D01*
X156765714Y-103830476D01*
X156813333Y-104020952D01*
X156813333Y-104163809D01*
X156765714Y-104354285D01*
X156718095Y-104449523D01*
X156622857Y-104544761D01*
X156480000Y-104592380D01*
X156241904Y-104592380D01*
X157670476Y-103925714D02*
X157670476Y-104592380D01*
X157432380Y-103544761D02*
X157194285Y-104259047D01*
X157813333Y-104259047D01*
D12*
X158491428Y-103511428D02*
X158148571Y-103511428D01*
X158320000Y-103511428D02*
X158320000Y-102911428D01*
X158262857Y-102997142D01*
X158205714Y-103054285D01*
X158148571Y-103082857D01*
D11*
%TO.C,D5*%
X186086209Y-81732380D02*
X186086209Y-80732380D01*
X186324305Y-80732380D01*
X186467162Y-80780000D01*
X186562400Y-80875238D01*
X186610019Y-80970476D01*
X186657638Y-81160952D01*
X186657638Y-81303809D01*
X186610019Y-81494285D01*
X186562400Y-81589523D01*
X186467162Y-81684761D01*
X186324305Y-81732380D01*
X186086209Y-81732380D01*
X187562400Y-80732380D02*
X187086209Y-80732380D01*
X187038590Y-81208571D01*
X187086209Y-81160952D01*
X187181447Y-81113333D01*
X187419543Y-81113333D01*
X187514781Y-81160952D01*
X187562400Y-81208571D01*
X187610019Y-81303809D01*
X187610019Y-81541904D01*
X187562400Y-81637142D01*
X187514781Y-81684761D01*
X187419543Y-81732380D01*
X187181447Y-81732380D01*
X187086209Y-81684761D01*
X187038590Y-81637142D01*
D12*
X185195733Y-78113791D02*
X184852876Y-78113791D01*
X185024305Y-78113791D02*
X185024305Y-77513791D01*
X184967162Y-77599505D01*
X184910019Y-77656648D01*
X184852876Y-77685220D01*
D11*
%TO.C,D3*%
X126261904Y-76652380D02*
X126261904Y-75652380D01*
X126500000Y-75652380D01*
X126642857Y-75700000D01*
X126738095Y-75795238D01*
X126785714Y-75890476D01*
X126833333Y-76080952D01*
X126833333Y-76223809D01*
X126785714Y-76414285D01*
X126738095Y-76509523D01*
X126642857Y-76604761D01*
X126500000Y-76652380D01*
X126261904Y-76652380D01*
X127166666Y-75652380D02*
X127785714Y-75652380D01*
X127452380Y-76033333D01*
X127595238Y-76033333D01*
X127690476Y-76080952D01*
X127738095Y-76128571D01*
X127785714Y-76223809D01*
X127785714Y-76461904D01*
X127738095Y-76557142D01*
X127690476Y-76604761D01*
X127595238Y-76652380D01*
X127309523Y-76652380D01*
X127214285Y-76604761D01*
X127166666Y-76557142D01*
%TO.C,R10*%
X66628190Y-75918321D02*
X66152000Y-76251654D01*
X66628190Y-76489749D02*
X65628190Y-76489749D01*
X65628190Y-76108797D01*
X65675810Y-76013559D01*
X65723429Y-75965940D01*
X65818667Y-75918321D01*
X65961524Y-75918321D01*
X66056762Y-75965940D01*
X66104381Y-76013559D01*
X66152000Y-76108797D01*
X66152000Y-76489749D01*
X66628190Y-74965940D02*
X66628190Y-75537368D01*
X66628190Y-75251654D02*
X65628190Y-75251654D01*
X65771048Y-75346892D01*
X65866286Y-75442130D01*
X65913905Y-75537368D01*
X65628190Y-74346892D02*
X65628190Y-74251654D01*
X65675810Y-74156416D01*
X65723429Y-74108797D01*
X65818667Y-74061178D01*
X66009143Y-74013559D01*
X66247238Y-74013559D01*
X66437714Y-74061178D01*
X66532952Y-74108797D01*
X66580571Y-74156416D01*
X66628190Y-74251654D01*
X66628190Y-74346892D01*
X66580571Y-74442130D01*
X66532952Y-74489749D01*
X66437714Y-74537368D01*
X66247238Y-74584987D01*
X66009143Y-74584987D01*
X65818667Y-74537368D01*
X65723429Y-74489749D01*
X65675810Y-74442130D01*
X65628190Y-74346892D01*
D13*
%TO.C,R9*%
X68320000Y-76827064D02*
X68320000Y-73772936D01*
X71040000Y-76827064D02*
X71040000Y-73772936D01*
%TO.C,D2*%
X115640000Y-64900000D02*
X116340000Y-64900000D01*
%TO.C,D1*%
X52140000Y-103000000D02*
X52840000Y-103000000D01*
%TO.C,J1*%
X217270000Y-58980000D02*
X217270000Y-65480000D01*
X213860000Y-56280000D02*
X212860000Y-56280000D01*
X204370000Y-58980000D02*
X208770000Y-58980000D01*
X212870000Y-58980000D02*
X217270000Y-58980000D01*
X218570000Y-66790000D02*
X203070000Y-66790000D01*
X203070000Y-57670000D02*
X218570000Y-57670000D01*
X212870000Y-57670000D02*
X212870000Y-58980000D01*
X218570000Y-57670000D02*
X218570000Y-66790000D01*
X212860000Y-56280000D02*
X213360000Y-57280000D01*
X208770000Y-58980000D02*
X208770000Y-58980000D01*
X213360000Y-57280000D02*
X213860000Y-56280000D01*
X203070000Y-66790000D02*
X203070000Y-57670000D01*
X204370000Y-65480000D02*
X204370000Y-58980000D01*
X208770000Y-58980000D02*
X208770000Y-57670000D01*
X217270000Y-65480000D02*
X204370000Y-65480000D01*
X98930000Y-66790000D02*
X98930000Y-57670000D01*
X113130000Y-58980000D02*
X113130000Y-65480000D01*
X100230000Y-58980000D02*
X104630000Y-58980000D01*
X108720000Y-56280000D02*
X109220000Y-57280000D01*
X114430000Y-66790000D02*
X98930000Y-66790000D01*
X104630000Y-58980000D02*
X104630000Y-57670000D01*
X100230000Y-65480000D02*
X100230000Y-58980000D01*
X109720000Y-56280000D02*
X108720000Y-56280000D01*
X98930000Y-57670000D02*
X114430000Y-57670000D01*
X104630000Y-58980000D02*
X104630000Y-58980000D01*
X108730000Y-58980000D02*
X113130000Y-58980000D01*
X109220000Y-57280000D02*
X109720000Y-56280000D01*
X113130000Y-65480000D02*
X100230000Y-65480000D01*
X114430000Y-57670000D02*
X114430000Y-66790000D01*
X108730000Y-57670000D02*
X108730000Y-58980000D01*
%TO.C,D4*%
X158820000Y-105540000D02*
X159520000Y-105540000D01*
%TO.C,D5*%
X185524305Y-80142363D02*
X186224305Y-80142363D01*
%TO.C,J1*%
X176630000Y-103580000D02*
X163730000Y-103580000D01*
X172720000Y-95380000D02*
X173220000Y-94380000D01*
X177930000Y-95770000D02*
X177930000Y-104890000D01*
X163730000Y-103580000D02*
X163730000Y-97080000D01*
X162430000Y-95770000D02*
X177930000Y-95770000D01*
X172220000Y-94380000D02*
X172720000Y-95380000D01*
X168130000Y-97080000D02*
X168130000Y-95770000D01*
X163730000Y-97080000D02*
X168130000Y-97080000D01*
X176630000Y-97080000D02*
X176630000Y-103580000D01*
X168130000Y-97080000D02*
X168130000Y-97080000D01*
X177930000Y-104890000D02*
X162430000Y-104890000D01*
X173220000Y-94380000D02*
X172220000Y-94380000D01*
X172230000Y-95770000D02*
X172230000Y-97080000D01*
X162430000Y-104890000D02*
X162430000Y-95770000D01*
X172230000Y-97080000D02*
X176630000Y-97080000D01*
%TO.C,D3*%
X125800000Y-75060000D02*
X126500000Y-75060000D01*
%TO.C,R10*%
X67530000Y-73772936D02*
X67530000Y-76827064D01*
X64810000Y-73772936D02*
X64810000Y-76827064D01*
%TO.C,J1*%
X70630000Y-97080000D02*
X75030000Y-97080000D01*
X75030000Y-103580000D02*
X62130000Y-103580000D01*
X76330000Y-104890000D02*
X60830000Y-104890000D01*
X66530000Y-97080000D02*
X66530000Y-95770000D01*
X70620000Y-94380000D02*
X71120000Y-95380000D01*
X71120000Y-95380000D02*
X71620000Y-94380000D01*
X62130000Y-97080000D02*
X66530000Y-97080000D01*
X71620000Y-94380000D02*
X70620000Y-94380000D01*
X62130000Y-103580000D02*
X62130000Y-97080000D01*
X60830000Y-95770000D02*
X76330000Y-95770000D01*
X75030000Y-97080000D02*
X75030000Y-103580000D01*
X76330000Y-95770000D02*
X76330000Y-104890000D01*
X70630000Y-95770000D02*
X70630000Y-97080000D01*
X60830000Y-104890000D02*
X60830000Y-95770000D01*
X66530000Y-97080000D02*
X66530000Y-97080000D01*
%TD*%
%LPC*%
D14*
%TO.C,R9*%
X69680000Y-77700000D03*
X69680000Y-72900000D03*
%TD*%
D15*
%TO.C,D2*%
X115890000Y-62500000D03*
D16*
X115890000Y-63500000D03*
D15*
X115890000Y-64500000D03*
X117790000Y-64500000D03*
D16*
X117790000Y-63500000D03*
D15*
X117790000Y-62500000D03*
%TD*%
%TO.C,D1*%
X52390000Y-100600000D03*
D16*
X52390000Y-101600000D03*
D15*
X52390000Y-102600000D03*
X54290000Y-102600000D03*
D16*
X54290000Y-101600000D03*
D15*
X54290000Y-100600000D03*
%TD*%
D17*
%TO.C,hole1*%
X68580000Y-62230000D03*
%TD*%
D18*
%TO.C,J1*%
X213360000Y-60960000D03*
D19*
X213360000Y-63500000D03*
X210820000Y-60960000D03*
X210820000Y-63500000D03*
X208280000Y-60960000D03*
X208280000Y-63500000D03*
%TD*%
D20*
%TO.C,bb1*%
X187960000Y-63500000D03*
%TD*%
D18*
%TO.C,J1*%
X109220000Y-60960000D03*
D19*
X109220000Y-63500000D03*
X106680000Y-60960000D03*
X106680000Y-63500000D03*
X104140000Y-60960000D03*
X104140000Y-63500000D03*
%TD*%
D20*
%TO.C,bb2*%
X187960000Y-86360000D03*
%TD*%
D15*
%TO.C,D4*%
X159070000Y-103140000D03*
D16*
X159070000Y-104140000D03*
D15*
X159070000Y-105140000D03*
X160970000Y-105140000D03*
D16*
X160970000Y-104140000D03*
D15*
X160970000Y-103140000D03*
%TD*%
D17*
%TO.C,U2*%
X115360000Y-103020000D03*
X180360000Y-103020000D03*
X115360000Y-135020000D03*
X180360000Y-135020000D03*
D21*
X137160000Y-101600000D03*
D19*
X139700000Y-101600000D03*
X142240000Y-101600000D03*
X144780000Y-101600000D03*
X147320000Y-101600000D03*
X149860000Y-101600000D03*
X152400000Y-101600000D03*
X154940000Y-101600000D03*
%TD*%
D15*
%TO.C,D5*%
X185774305Y-77742363D03*
D16*
X185774305Y-78742363D03*
D15*
X185774305Y-79742363D03*
X187674305Y-79742363D03*
D16*
X187674305Y-78742363D03*
D15*
X187674305Y-77742363D03*
%TD*%
D18*
%TO.C,J1*%
X172720000Y-99060000D03*
D19*
X172720000Y-101600000D03*
X170180000Y-99060000D03*
X170180000Y-101600000D03*
X167640000Y-99060000D03*
X167640000Y-101600000D03*
%TD*%
D20*
%TO.C,bb5*%
X134620000Y-86360000D03*
%TD*%
D15*
%TO.C,D3*%
X126050000Y-72660000D03*
D16*
X126050000Y-73660000D03*
D15*
X126050000Y-74660000D03*
X127950000Y-74660000D03*
D16*
X127950000Y-73660000D03*
D15*
X127950000Y-72660000D03*
%TD*%
D20*
%TO.C,bb6*%
X134620000Y-63500000D03*
%TD*%
D22*
%TO.C,bb4*%
X142240000Y-95250000D03*
%TD*%
D17*
%TO.C,hole2*%
X228600000Y-62230000D03*
%TD*%
D23*
%TO.C,R10*%
X66170000Y-72900000D03*
X66170000Y-77700000D03*
%TD*%
D18*
%TO.C,J1*%
X71120000Y-99060000D03*
D19*
X71120000Y-101600000D03*
X68580000Y-99060000D03*
X68580000Y-101600000D03*
X66040000Y-99060000D03*
X66040000Y-101600000D03*
%TD*%
D22*
%TO.C,bb3*%
X180340000Y-95250000D03*
%TD*%
D17*
%TO.C,U2*%
X56359194Y-63191546D03*
X118322866Y-100734900D03*
X121111850Y-68856670D03*
X53570211Y-95069777D03*
D24*
X78200000Y-63676945D03*
D19*
X80730335Y-63898321D03*
X83260669Y-64119696D03*
X85791004Y-64341072D03*
X88321338Y-64562447D03*
X90851673Y-64783823D03*
X93382007Y-65005199D03*
X95912342Y-65226574D03*
%TD*%
D25*
%TO.C,D6*%
X119380000Y-86360000D03*
D26*
X119380000Y-83820000D03*
%TD*%
D27*
%TO.C,R2*%
X132080000Y-60953212D03*
X128680000Y-60953212D03*
%TD*%
D28*
%TO.C,U3*%
X107885000Y-88900000D03*
D29*
X107885000Y-86360000D03*
X107885000Y-83820000D03*
%TD*%
D30*
%TO.C,U1*%
X69679266Y-79714877D03*
X66169266Y-79714877D03*
D31*
X70470010Y-86659629D03*
%TD*%
M02*
