M48
; DRILL file {KiCad 7.0.5-7.0.5~ubuntu22.04.1} date Sun 25 Jun 2023 03:20:42 PM CDT
; FORMAT={-:-/ absolute / metric / decimal}
; #@! TF.CreationDate,2023-06-25T15:20:42-05:00
; #@! TF.GenerationSoftware,Kicad,Pcbnew,7.0.5-7.0.5~ubuntu22.04.1
; #@! TF.FileFunction,Plated,1,2,PTH
FMAT,2
METRIC
; #@! TA.AperFunction,Plated,PTH,ViaDrill
T1C0.400
; #@! TA.AperFunction,Plated,PTH,ViaDrill
T2C0.600
; #@! TA.AperFunction,Plated,PTH,ComponentDrill
T3C0.800
; #@! TA.AperFunction,Plated,PTH,ComponentDrill
T4C0.900
; #@! TA.AperFunction,Plated,PTH,ComponentDrill
T5C1.000
; #@! TA.AperFunction,Plated,PTH,ComponentDrill
T6C1.100
; #@! TA.AperFunction,Plated,PTH,ComponentDrill
T7C2.500
%
G90
G05
T1
X50.8Y-99.06
X50.8Y-104.14
X52.39Y-102.6
X53.34Y-91.44
X54.34Y-102.6
X58.42Y-81.28
X58.42Y-99.06
X58.42Y-101.6
X63.5Y-68.58
X64.12Y-73.976
X66.04Y-63.5
X66.04Y-104.14
X66.66Y-75.476
X69.2Y-73.976
X69.2Y-93.98
X71.12Y-60.96
X71.12Y-96.52
X71.74Y-73.976
X74.28Y-73.976
X76.025Y-81.105
X76.2Y-88.9
X76.2Y-101.6
X76.82Y-73.976
X76.82Y-94.6
X78.74Y-60.96
X78.74Y-86.36
X81.28Y-73.66
X81.28Y-86.36
X81.28Y-96.52
X81.28Y-104.14
X83.82Y-60.96
X83.82Y-73.66
X83.82Y-90.93
X86.19Y-80.18
X86.36Y-66.04
X86.36Y-76.2
X86.36Y-88.9
X88.9Y-66.04
X91.44Y-93.98
X93.063Y-85.91
X96.35Y-80.18
X96.52Y-60.96
X96.52Y-88.9
X104.14Y-66.04
X109.22Y-78.74
X109.22Y-96.52
X109.22Y-104.14
X110.822Y-90.49
X111.76Y-66.04
X115.89Y-64.5
X116.84Y-66.04
X116.84Y-76.2
X117.79Y-64.5
X121.92Y-96.52
X121.92Y-104.14
X122.27Y-60.61
X123.95Y-88.94
X124.46Y-66.04
X124.46Y-68.58
X124.46Y-76.438
X126.07Y-74.64
X127.0Y-101.6
X127.95Y-74.66
X129.54Y-86.36
X129.54Y-101.6
X132.08Y-91.44
X134.62Y-76.2
X134.62Y-78.74
X137.16Y-60.96
X137.16Y-71.12
X139.7Y-76.2
X152.4Y-60.96
X152.4Y-71.12
X152.4Y-76.2
X152.646Y-91.686
X159.07Y-105.14
X160.02Y-86.36
X160.97Y-105.14
X162.56Y-86.36
X162.56Y-91.44
X165.1Y-88.9
X165.1Y-104.14
X170.18Y-60.96
X170.18Y-71.12
X170.18Y-76.2
X170.18Y-91.44
X170.18Y-93.98
X172.72Y-91.3
X172.72Y-93.98
X172.72Y-96.46
X177.8Y-91.44
X177.8Y-104.14
X182.88Y-78.74
X182.88Y-81.28
X185.42Y-60.96
X185.42Y-71.12
X185.42Y-76.2
X185.42Y-91.44
X185.42Y-101.6
X185.774Y-79.742
X187.674Y-79.742
X190.5Y-96.52
X195.58Y-78.74
X195.58Y-83.82
X195.58Y-91.44
X197.84Y-83.82
X197.84Y-88.9
X200.66Y-86.36
X205.74Y-81.28
X210.82Y-76.2
X215.9Y-71.12
X220.98Y-66.04
X226.06Y-60.96
T2
X66.04Y-91.44
X86.19Y-83.305
X96.35Y-83.305
X96.52Y-71.08
X99.06Y-68.58
X102.62Y-71.08
X132.08Y-101.6
X157.48Y-101.6
X162.56Y-101.6
X193.04Y-83.82
T3
X128.68Y-60.953
X132.08Y-60.953
T4
X119.38Y-83.82
X119.38Y-86.36
T5
X66.04Y-99.06
X66.04Y-101.6
X68.58Y-99.06
X68.58Y-101.6
X71.12Y-99.06
X71.12Y-101.6
X78.2Y-63.677
X80.73Y-63.898
X83.261Y-64.12
X85.791Y-64.341
X88.321Y-64.562
X90.852Y-64.784
X93.382Y-65.005
X95.912Y-65.227
X104.14Y-60.96
X104.14Y-63.5
X106.68Y-60.96
X106.68Y-63.5
X109.22Y-60.96
X109.22Y-63.5
X137.16Y-102.6
X139.7Y-102.6
X142.24Y-102.6
X144.78Y-102.6
X147.32Y-102.6
X149.86Y-102.6
X152.4Y-102.6
X154.94Y-102.6
X167.64Y-99.06
X167.64Y-101.6
X170.18Y-99.06
X170.18Y-101.6
X172.72Y-99.06
X172.72Y-101.6
X208.28Y-60.96
X208.28Y-63.5
X210.82Y-60.96
X210.82Y-63.5
X213.36Y-60.96
X213.36Y-63.5
T6
X107.885Y-83.82
X107.885Y-86.36
X107.885Y-88.9
T7
X66.169Y-79.715
X69.679Y-79.715
X70.47Y-86.66
T0
M30
