%TF.GenerationSoftware,KiCad,Pcbnew,6.0.10-86aedd382b~118~ubuntu22.04.1*%
%TF.CreationDate,2023-01-27T10:34:44-06:00*%
%TF.ProjectId,badge,62616467-652e-46b6-9963-61645f706362,rev?*%
%TF.SameCoordinates,Original*%
%TF.FileFunction,Legend,Bot*%
%TF.FilePolarity,Positive*%
%FSLAX46Y46*%
G04 Gerber Fmt 4.6, Leading zero omitted, Abs format (unit mm)*
G04 Created by KiCad (PCBNEW 6.0.10-86aedd382b~118~ubuntu22.04.1) date 2023-01-27 10:34:44*
%MOMM*%
%LPD*%
G01*
G04 APERTURE LIST*
G04 Aperture macros list*
%AMRoundRect*
0 Rectangle with rounded corners*
0 $1 Rounding radius*
0 $2 $3 $4 $5 $6 $7 $8 $9 X,Y pos of 4 corners*
0 Add a 4 corners polygon primitive as box body*
4,1,4,$2,$3,$4,$5,$6,$7,$8,$9,$2,$3,0*
0 Add four circle primitives for the rounded corners*
1,1,$1+$1,$2,$3*
1,1,$1+$1,$4,$5*
1,1,$1+$1,$6,$7*
1,1,$1+$1,$8,$9*
0 Add four rect primitives between the rounded corners*
20,1,$1+$1,$2,$3,$4,$5,0*
20,1,$1+$1,$4,$5,$6,$7,0*
20,1,$1+$1,$6,$7,$8,$9,0*
20,1,$1+$1,$8,$9,$2,$3,0*%
%AMRotRect*
0 Rectangle, with rotation*
0 The origin of the aperture is its center*
0 $1 length*
0 $2 width*
0 $3 Rotation angle, in degrees counterclockwise*
0 Add horizontal line*
21,1,$1,$2,0,0,$3*%
G04 Aperture macros list end*
%ADD10C,0.150000*%
%ADD11C,0.300000*%
%ADD12C,0.101600*%
%ADD13C,0.120000*%
%ADD14C,0.010000*%
%ADD15C,0.050000*%
%ADD16C,0.381000*%
%ADD17C,0.066040*%
%ADD18C,0.127000*%
%ADD19C,0.254000*%
%ADD20C,1.700000*%
%ADD21RoundRect,0.250000X-0.600000X0.600000X-0.600000X-0.600000X0.600000X-0.600000X0.600000X0.600000X0*%
%ADD22C,3.000000*%
%ADD23RotRect,1.700000X1.700000X355.000000*%
%ADD24RoundRect,0.250000X0.412500X0.650000X-0.412500X0.650000X-0.412500X-0.650000X0.412500X-0.650000X0*%
%ADD25O,3.000000X6.000000*%
%ADD26R,1.700000X1.700000*%
%ADD27O,6.000000X3.000000*%
%ADD28RoundRect,0.249999X1.075001X-0.450001X1.075001X0.450001X-1.075001X0.450001X-1.075001X-0.450001X0*%
%ADD29RoundRect,0.249999X-1.075001X0.450001X-1.075001X-0.450001X1.075001X-0.450001X1.075001X0.450001X0*%
%ADD30RoundRect,0.250000X0.650000X-0.412500X0.650000X0.412500X-0.650000X0.412500X-0.650000X-0.412500X0*%
%ADD31R,1.800000X1.800000*%
%ADD32C,1.800000*%
%ADD33C,1.500000*%
%ADD34RoundRect,0.250000X-1.500000X0.250000X-1.500000X-0.250000X1.500000X-0.250000X1.500000X0.250000X0*%
%ADD35RoundRect,0.250001X-1.449999X0.499999X-1.449999X-0.499999X1.449999X-0.499999X1.449999X0.499999X0*%
%ADD36RoundRect,0.300000X0.650000X-0.300000X0.650000X0.300000X-0.650000X0.300000X-0.650000X-0.300000X0*%
%ADD37RoundRect,0.249999X0.450001X1.075001X-0.450001X1.075001X-0.450001X-1.075001X0.450001X-1.075001X0*%
%ADD38RoundRect,0.249999X-0.450001X-1.075001X0.450001X-1.075001X0.450001X1.075001X-0.450001X1.075001X0*%
%ADD39RoundRect,0.150000X-0.587500X-0.150000X0.587500X-0.150000X0.587500X0.150000X-0.587500X0.150000X0*%
%ADD40RoundRect,0.300000X-0.650000X0.300000X-0.650000X-0.300000X0.650000X-0.300000X0.650000X0.300000X0*%
%ADD41R,2.000000X1.905000*%
%ADD42O,2.000000X1.905000*%
%ADD43R,1.800000X1.100000*%
%ADD44RoundRect,0.100000X0.637500X0.100000X-0.637500X0.100000X-0.637500X-0.100000X0.637500X-0.100000X0*%
%ADD45RoundRect,0.375000X-0.375000X1.625000X-0.375000X-1.625000X0.375000X-1.625000X0.375000X1.625000X0*%
%ADD46RoundRect,0.750000X0.750000X-0.750000X0.750000X0.750000X-0.750000X0.750000X-0.750000X-0.750000X0*%
%ADD47RoundRect,1.250000X1.250000X1.250000X-1.250000X1.250000X-1.250000X-1.250000X1.250000X-1.250000X0*%
G04 APERTURE END LIST*
D10*
X99964761Y-59864761D02*
X99583809Y-59864761D01*
X99393333Y-59960000D01*
X99202857Y-60150476D01*
X99107619Y-60531428D01*
X99107619Y-61198095D01*
X99202857Y-61579047D01*
X99393333Y-61769523D01*
X99583809Y-61864761D01*
X99964761Y-61864761D01*
X100155238Y-61769523D01*
X100345714Y-61579047D01*
X100440952Y-61198095D01*
X100440952Y-60531428D01*
X100345714Y-60150476D01*
X100155238Y-59960000D01*
X99964761Y-59864761D01*
X97583809Y-60817142D02*
X98250476Y-60817142D01*
X98250476Y-61864761D02*
X98250476Y-59864761D01*
X97298095Y-59864761D01*
X95869523Y-60817142D02*
X96536190Y-60817142D01*
X96536190Y-61864761D02*
X96536190Y-59864761D01*
X95583809Y-59864761D01*
D11*
X73584285Y-66718571D02*
X73584285Y-65218571D01*
X73584285Y-66647142D02*
X73727142Y-66718571D01*
X74012857Y-66718571D01*
X74155714Y-66647142D01*
X74227142Y-66575714D01*
X74298571Y-66432857D01*
X74298571Y-66004285D01*
X74227142Y-65861428D01*
X74155714Y-65790000D01*
X74012857Y-65718571D01*
X73727142Y-65718571D01*
X73584285Y-65790000D01*
X72227142Y-66647142D02*
X72370000Y-66718571D01*
X72655714Y-66718571D01*
X72798571Y-66647142D01*
X72870000Y-66575714D01*
X72941428Y-66432857D01*
X72941428Y-66004285D01*
X72870000Y-65861428D01*
X72798571Y-65790000D01*
X72655714Y-65718571D01*
X72370000Y-65718571D01*
X72227142Y-65790000D01*
X70941428Y-65218571D02*
X71227142Y-65218571D01*
X71370000Y-65290000D01*
X71441428Y-65361428D01*
X71584285Y-65575714D01*
X71655714Y-65861428D01*
X71655714Y-66432857D01*
X71584285Y-66575714D01*
X71512857Y-66647142D01*
X71370000Y-66718571D01*
X71084285Y-66718571D01*
X70941428Y-66647142D01*
X70870000Y-66575714D01*
X70798571Y-66432857D01*
X70798571Y-66075714D01*
X70870000Y-65932857D01*
X70941428Y-65861428D01*
X71084285Y-65790000D01*
X71370000Y-65790000D01*
X71512857Y-65861428D01*
X71584285Y-65932857D01*
X71655714Y-66075714D01*
X69370000Y-66718571D02*
X70227142Y-66718571D01*
X69798571Y-66718571D02*
X69798571Y-65218571D01*
X69941428Y-65432857D01*
X70084285Y-65575714D01*
X70227142Y-65647142D01*
X68012857Y-65218571D02*
X68727142Y-65218571D01*
X68798571Y-65932857D01*
X68727142Y-65861428D01*
X68584285Y-65790000D01*
X68227142Y-65790000D01*
X68084285Y-65861428D01*
X68012857Y-65932857D01*
X67941428Y-66075714D01*
X67941428Y-66432857D01*
X68012857Y-66575714D01*
X68084285Y-66647142D01*
X68227142Y-66718571D01*
X68584285Y-66718571D01*
X68727142Y-66647142D01*
X68798571Y-66575714D01*
X73691428Y-67901428D02*
X73620000Y-67830000D01*
X73477142Y-67758571D01*
X73120000Y-67758571D01*
X72977142Y-67830000D01*
X72905714Y-67901428D01*
X72834285Y-68044285D01*
X72834285Y-68187142D01*
X72905714Y-68401428D01*
X73762857Y-69258571D01*
X72834285Y-69258571D01*
X71905714Y-67758571D02*
X71762857Y-67758571D01*
X71620000Y-67830000D01*
X71548571Y-67901428D01*
X71477142Y-68044285D01*
X71405714Y-68330000D01*
X71405714Y-68687142D01*
X71477142Y-68972857D01*
X71548571Y-69115714D01*
X71620000Y-69187142D01*
X71762857Y-69258571D01*
X71905714Y-69258571D01*
X72048571Y-69187142D01*
X72120000Y-69115714D01*
X72191428Y-68972857D01*
X72262857Y-68687142D01*
X72262857Y-68330000D01*
X72191428Y-68044285D01*
X72120000Y-67901428D01*
X72048571Y-67830000D01*
X71905714Y-67758571D01*
X70834285Y-67901428D02*
X70762857Y-67830000D01*
X70620000Y-67758571D01*
X70262857Y-67758571D01*
X70120000Y-67830000D01*
X70048571Y-67901428D01*
X69977142Y-68044285D01*
X69977142Y-68187142D01*
X70048571Y-68401428D01*
X70905714Y-69258571D01*
X69977142Y-69258571D01*
X69477142Y-67758571D02*
X68548571Y-67758571D01*
X69048571Y-68330000D01*
X68834285Y-68330000D01*
X68691428Y-68401428D01*
X68620000Y-68472857D01*
X68548571Y-68615714D01*
X68548571Y-68972857D01*
X68620000Y-69115714D01*
X68691428Y-69187142D01*
X68834285Y-69258571D01*
X69262857Y-69258571D01*
X69405714Y-69187142D01*
X69477142Y-69115714D01*
X154248571Y-85538571D02*
X154248571Y-86610000D01*
X154320000Y-86824285D01*
X154462857Y-86967142D01*
X154677142Y-87038571D01*
X154820000Y-87038571D01*
X152820000Y-87038571D02*
X153534285Y-87038571D01*
X153534285Y-85538571D01*
X151462857Y-86895714D02*
X151534285Y-86967142D01*
X151748571Y-87038571D01*
X151891428Y-87038571D01*
X152105714Y-86967142D01*
X152248571Y-86824285D01*
X152320000Y-86681428D01*
X152391428Y-86395714D01*
X152391428Y-86181428D01*
X152320000Y-85895714D01*
X152248571Y-85752857D01*
X152105714Y-85610000D01*
X151891428Y-85538571D01*
X151748571Y-85538571D01*
X151534285Y-85610000D01*
X151462857Y-85681428D01*
X150391428Y-85538571D02*
X150391428Y-86610000D01*
X150462857Y-86824285D01*
X150605714Y-86967142D01*
X150820000Y-87038571D01*
X150962857Y-87038571D01*
X148962857Y-87038571D02*
X149677142Y-87038571D01*
X149677142Y-85538571D01*
X147605714Y-86895714D02*
X147677142Y-86967142D01*
X147891428Y-87038571D01*
X148034285Y-87038571D01*
X148248571Y-86967142D01*
X148391428Y-86824285D01*
X148462857Y-86681428D01*
X148534285Y-86395714D01*
X148534285Y-86181428D01*
X148462857Y-85895714D01*
X148391428Y-85752857D01*
X148248571Y-85610000D01*
X148034285Y-85538571D01*
X147891428Y-85538571D01*
X147677142Y-85610000D01*
X147605714Y-85681428D01*
X146534285Y-85538571D02*
X146534285Y-86610000D01*
X146605714Y-86824285D01*
X146748571Y-86967142D01*
X146962857Y-87038571D01*
X147105714Y-87038571D01*
X145105714Y-87038571D02*
X145820000Y-87038571D01*
X145820000Y-85538571D01*
X143748571Y-86895714D02*
X143820000Y-86967142D01*
X144034285Y-87038571D01*
X144177142Y-87038571D01*
X144391428Y-86967142D01*
X144534285Y-86824285D01*
X144605714Y-86681428D01*
X144677142Y-86395714D01*
X144677142Y-86181428D01*
X144605714Y-85895714D01*
X144534285Y-85752857D01*
X144391428Y-85610000D01*
X144177142Y-85538571D01*
X144034285Y-85538571D01*
X143820000Y-85610000D01*
X143748571Y-85681428D01*
X142677142Y-85538571D02*
X142677142Y-86610000D01*
X142748571Y-86824285D01*
X142891428Y-86967142D01*
X143105714Y-87038571D01*
X143248571Y-87038571D01*
X141248571Y-87038571D02*
X141962857Y-87038571D01*
X141962857Y-85538571D01*
X139891428Y-86895714D02*
X139962857Y-86967142D01*
X140177142Y-87038571D01*
X140320000Y-87038571D01*
X140534285Y-86967142D01*
X140677142Y-86824285D01*
X140748571Y-86681428D01*
X140820000Y-86395714D01*
X140820000Y-86181428D01*
X140748571Y-85895714D01*
X140677142Y-85752857D01*
X140534285Y-85610000D01*
X140320000Y-85538571D01*
X140177142Y-85538571D01*
X139962857Y-85610000D01*
X139891428Y-85681428D01*
D10*
X99298095Y-64944761D02*
X98917142Y-64944761D01*
X98726666Y-65040000D01*
X98536190Y-65230476D01*
X98440952Y-65611428D01*
X98440952Y-66278095D01*
X98536190Y-66659047D01*
X98726666Y-66849523D01*
X98917142Y-66944761D01*
X99298095Y-66944761D01*
X99488571Y-66849523D01*
X99679047Y-66659047D01*
X99774285Y-66278095D01*
X99774285Y-65611428D01*
X99679047Y-65230476D01*
X99488571Y-65040000D01*
X99298095Y-64944761D01*
X97583809Y-66944761D02*
X97583809Y-64944761D01*
X96440952Y-66944761D01*
X96440952Y-64944761D01*
X128047619Y-98512380D02*
X128523809Y-98512380D01*
X128523809Y-97512380D01*
X127714285Y-97988571D02*
X127380952Y-97988571D01*
X127238095Y-98512380D02*
X127714285Y-98512380D01*
X127714285Y-97512380D01*
X127238095Y-97512380D01*
X126809523Y-98512380D02*
X126809523Y-97512380D01*
X126571428Y-97512380D01*
X126428571Y-97560000D01*
X126333333Y-97655238D01*
X126285714Y-97750476D01*
X126238095Y-97940952D01*
X126238095Y-98083809D01*
X126285714Y-98274285D01*
X126333333Y-98369523D01*
X126428571Y-98464761D01*
X126571428Y-98512380D01*
X126809523Y-98512380D01*
X125857142Y-98464761D02*
X125761904Y-98512380D01*
X125571428Y-98512380D01*
X125476190Y-98464761D01*
X125428571Y-98369523D01*
X125428571Y-98321904D01*
X125476190Y-98226666D01*
X125571428Y-98179047D01*
X125714285Y-98179047D01*
X125809523Y-98131428D01*
X125857142Y-98036190D01*
X125857142Y-97988571D01*
X125809523Y-97893333D01*
X125714285Y-97845714D01*
X125571428Y-97845714D01*
X125476190Y-97893333D01*
X128857142Y-82800714D02*
X128857142Y-83467380D01*
X129285714Y-82800714D02*
X129285714Y-83324523D01*
X129238095Y-83419761D01*
X129142857Y-83467380D01*
X129000000Y-83467380D01*
X128904761Y-83419761D01*
X128857142Y-83372142D01*
X128380952Y-82800714D02*
X128380952Y-83800714D01*
X128380952Y-82848333D02*
X128285714Y-82800714D01*
X128095238Y-82800714D01*
X128000000Y-82848333D01*
X127952380Y-82895952D01*
X127904761Y-82991190D01*
X127904761Y-83276904D01*
X127952380Y-83372142D01*
X128000000Y-83419761D01*
X128095238Y-83467380D01*
X128285714Y-83467380D01*
X128380952Y-83419761D01*
X127047619Y-83467380D02*
X127047619Y-82467380D01*
X127047619Y-83419761D02*
X127142857Y-83467380D01*
X127333333Y-83467380D01*
X127428571Y-83419761D01*
X127476190Y-83372142D01*
X127523809Y-83276904D01*
X127523809Y-82991190D01*
X127476190Y-82895952D01*
X127428571Y-82848333D01*
X127333333Y-82800714D01*
X127142857Y-82800714D01*
X127047619Y-82848333D01*
X126142857Y-83467380D02*
X126142857Y-82943571D01*
X126190476Y-82848333D01*
X126285714Y-82800714D01*
X126476190Y-82800714D01*
X126571428Y-82848333D01*
X126142857Y-83419761D02*
X126238095Y-83467380D01*
X126476190Y-83467380D01*
X126571428Y-83419761D01*
X126619047Y-83324523D01*
X126619047Y-83229285D01*
X126571428Y-83134047D01*
X126476190Y-83086428D01*
X126238095Y-83086428D01*
X126142857Y-83038809D01*
X125809523Y-82800714D02*
X125428571Y-82800714D01*
X125666666Y-82467380D02*
X125666666Y-83324523D01*
X125619047Y-83419761D01*
X125523809Y-83467380D01*
X125428571Y-83467380D01*
X124714285Y-83419761D02*
X124809523Y-83467380D01*
X125000000Y-83467380D01*
X125095238Y-83419761D01*
X125142857Y-83324523D01*
X125142857Y-82943571D01*
X125095238Y-82848333D01*
X125000000Y-82800714D01*
X124809523Y-82800714D01*
X124714285Y-82848333D01*
X124666666Y-82943571D01*
X124666666Y-83038809D01*
X125142857Y-83134047D01*
X128976190Y-85077380D02*
X128976190Y-84077380D01*
X128976190Y-85029761D02*
X129071428Y-85077380D01*
X129261904Y-85077380D01*
X129357142Y-85029761D01*
X129404761Y-84982142D01*
X129452380Y-84886904D01*
X129452380Y-84601190D01*
X129404761Y-84505952D01*
X129357142Y-84458333D01*
X129261904Y-84410714D01*
X129071428Y-84410714D01*
X128976190Y-84458333D01*
X128500000Y-85077380D02*
X128500000Y-84410714D01*
X128500000Y-84077380D02*
X128547619Y-84125000D01*
X128500000Y-84172619D01*
X128452380Y-84125000D01*
X128500000Y-84077380D01*
X128500000Y-84172619D01*
X128071428Y-85029761D02*
X127976190Y-85077380D01*
X127785714Y-85077380D01*
X127690476Y-85029761D01*
X127642857Y-84934523D01*
X127642857Y-84886904D01*
X127690476Y-84791666D01*
X127785714Y-84744047D01*
X127928571Y-84744047D01*
X128023809Y-84696428D01*
X128071428Y-84601190D01*
X128071428Y-84553571D01*
X128023809Y-84458333D01*
X127928571Y-84410714D01*
X127785714Y-84410714D01*
X127690476Y-84458333D01*
X127214285Y-84410714D02*
X127214285Y-85410714D01*
X127214285Y-84458333D02*
X127119047Y-84410714D01*
X126928571Y-84410714D01*
X126833333Y-84458333D01*
X126785714Y-84505952D01*
X126738095Y-84601190D01*
X126738095Y-84886904D01*
X126785714Y-84982142D01*
X126833333Y-85029761D01*
X126928571Y-85077380D01*
X127119047Y-85077380D01*
X127214285Y-85029761D01*
X126166666Y-85077380D02*
X126261904Y-85029761D01*
X126309523Y-84934523D01*
X126309523Y-84077380D01*
X125357142Y-85077380D02*
X125357142Y-84553571D01*
X125404761Y-84458333D01*
X125500000Y-84410714D01*
X125690476Y-84410714D01*
X125785714Y-84458333D01*
X125357142Y-85029761D02*
X125452380Y-85077380D01*
X125690476Y-85077380D01*
X125785714Y-85029761D01*
X125833333Y-84934523D01*
X125833333Y-84839285D01*
X125785714Y-84744047D01*
X125690476Y-84696428D01*
X125452380Y-84696428D01*
X125357142Y-84648809D01*
X124976190Y-84410714D02*
X124738095Y-85077380D01*
X124500000Y-84410714D02*
X124738095Y-85077380D01*
X124833333Y-85315476D01*
X124880952Y-85363095D01*
X124976190Y-85410714D01*
%TO.C,C3*%
X127166666Y-74817142D02*
X127214285Y-74864761D01*
X127357142Y-74912380D01*
X127452380Y-74912380D01*
X127595238Y-74864761D01*
X127690476Y-74769523D01*
X127738095Y-74674285D01*
X127785714Y-74483809D01*
X127785714Y-74340952D01*
X127738095Y-74150476D01*
X127690476Y-74055238D01*
X127595238Y-73960000D01*
X127452380Y-73912380D01*
X127357142Y-73912380D01*
X127214285Y-73960000D01*
X127166666Y-74007619D01*
X126833333Y-73912380D02*
X126214285Y-73912380D01*
X126547619Y-74293333D01*
X126404761Y-74293333D01*
X126309523Y-74340952D01*
X126261904Y-74388571D01*
X126214285Y-74483809D01*
X126214285Y-74721904D01*
X126261904Y-74817142D01*
X126309523Y-74864761D01*
X126404761Y-74912380D01*
X126690476Y-74912380D01*
X126785714Y-74864761D01*
X126833333Y-74817142D01*
%TO.C,R3*%
X127452380Y-69940397D02*
X126976190Y-69607064D01*
X127452380Y-69368968D02*
X126452380Y-69368968D01*
X126452380Y-69749921D01*
X126500000Y-69845159D01*
X126547619Y-69892778D01*
X126642857Y-69940397D01*
X126785714Y-69940397D01*
X126880952Y-69892778D01*
X126928571Y-69845159D01*
X126976190Y-69749921D01*
X126976190Y-69368968D01*
X126452380Y-70273730D02*
X126452380Y-70892778D01*
X126833333Y-70559444D01*
X126833333Y-70702302D01*
X126880952Y-70797540D01*
X126928571Y-70845159D01*
X127023809Y-70892778D01*
X127261904Y-70892778D01*
X127357142Y-70845159D01*
X127404761Y-70797540D01*
X127452380Y-70702302D01*
X127452380Y-70416587D01*
X127404761Y-70321349D01*
X127357142Y-70273730D01*
%TO.C,R11*%
X119832380Y-90797142D02*
X119356190Y-90463809D01*
X119832380Y-90225714D02*
X118832380Y-90225714D01*
X118832380Y-90606666D01*
X118880000Y-90701904D01*
X118927619Y-90749523D01*
X119022857Y-90797142D01*
X119165714Y-90797142D01*
X119260952Y-90749523D01*
X119308571Y-90701904D01*
X119356190Y-90606666D01*
X119356190Y-90225714D01*
X119832380Y-91749523D02*
X119832380Y-91178095D01*
X119832380Y-91463809D02*
X118832380Y-91463809D01*
X118975238Y-91368571D01*
X119070476Y-91273333D01*
X119118095Y-91178095D01*
X119832380Y-92701904D02*
X119832380Y-92130476D01*
X119832380Y-92416190D02*
X118832380Y-92416190D01*
X118975238Y-92320952D01*
X119070476Y-92225714D01*
X119118095Y-92130476D01*
%TO.C,C41*%
X94452857Y-82099642D02*
X94500476Y-82147261D01*
X94643333Y-82194880D01*
X94738571Y-82194880D01*
X94881428Y-82147261D01*
X94976666Y-82052023D01*
X95024285Y-81956785D01*
X95071904Y-81766309D01*
X95071904Y-81623452D01*
X95024285Y-81432976D01*
X94976666Y-81337738D01*
X94881428Y-81242500D01*
X94738571Y-81194880D01*
X94643333Y-81194880D01*
X94500476Y-81242500D01*
X94452857Y-81290119D01*
X93595714Y-81528214D02*
X93595714Y-82194880D01*
X93833809Y-81147261D02*
X94071904Y-81861547D01*
X93452857Y-81861547D01*
X92548095Y-82194880D02*
X93119523Y-82194880D01*
X92833809Y-82194880D02*
X92833809Y-81194880D01*
X92929047Y-81337738D01*
X93024285Y-81432976D01*
X93119523Y-81480595D01*
%TO.C,C1*%
X53506666Y-101107142D02*
X53554285Y-101154761D01*
X53697142Y-101202380D01*
X53792380Y-101202380D01*
X53935238Y-101154761D01*
X54030476Y-101059523D01*
X54078095Y-100964285D01*
X54125714Y-100773809D01*
X54125714Y-100630952D01*
X54078095Y-100440476D01*
X54030476Y-100345238D01*
X53935238Y-100250000D01*
X53792380Y-100202380D01*
X53697142Y-100202380D01*
X53554285Y-100250000D01*
X53506666Y-100297619D01*
X52554285Y-101202380D02*
X53125714Y-101202380D01*
X52840000Y-101202380D02*
X52840000Y-100202380D01*
X52935238Y-100345238D01*
X53030476Y-100440476D01*
X53125714Y-100488095D01*
%TO.C,C4*%
X160186666Y-102847142D02*
X160234285Y-102894761D01*
X160377142Y-102942380D01*
X160472380Y-102942380D01*
X160615238Y-102894761D01*
X160710476Y-102799523D01*
X160758095Y-102704285D01*
X160805714Y-102513809D01*
X160805714Y-102370952D01*
X160758095Y-102180476D01*
X160710476Y-102085238D01*
X160615238Y-101990000D01*
X160472380Y-101942380D01*
X160377142Y-101942380D01*
X160234285Y-101990000D01*
X160186666Y-102037619D01*
X159329523Y-102275714D02*
X159329523Y-102942380D01*
X159567619Y-101894761D02*
X159805714Y-102609047D01*
X159186666Y-102609047D01*
%TO.C,R2*%
X130571666Y-59255592D02*
X130905000Y-58779402D01*
X131143095Y-59255592D02*
X131143095Y-58255592D01*
X130762142Y-58255592D01*
X130666904Y-58303212D01*
X130619285Y-58350831D01*
X130571666Y-58446069D01*
X130571666Y-58588926D01*
X130619285Y-58684164D01*
X130666904Y-58731783D01*
X130762142Y-58779402D01*
X131143095Y-58779402D01*
X130190714Y-58350831D02*
X130143095Y-58303212D01*
X130047857Y-58255592D01*
X129809761Y-58255592D01*
X129714523Y-58303212D01*
X129666904Y-58350831D01*
X129619285Y-58446069D01*
X129619285Y-58541307D01*
X129666904Y-58684164D01*
X130238333Y-59255592D01*
X129619285Y-59255592D01*
%TO.C,BT1*%
X104102785Y-75414285D02*
X104150404Y-75557142D01*
X104198023Y-75604761D01*
X104293261Y-75652380D01*
X104436118Y-75652380D01*
X104531356Y-75604761D01*
X104578975Y-75557142D01*
X104626594Y-75461904D01*
X104626594Y-75080952D01*
X103626594Y-75080952D01*
X103626594Y-75414285D01*
X103674214Y-75509523D01*
X103721833Y-75557142D01*
X103817071Y-75604761D01*
X103912309Y-75604761D01*
X104007547Y-75557142D01*
X104055166Y-75509523D01*
X104102785Y-75414285D01*
X104102785Y-75080952D01*
X103626594Y-75938095D02*
X103626594Y-76509523D01*
X104626594Y-76223809D02*
X103626594Y-76223809D01*
X104626594Y-77366666D02*
X104626594Y-76795238D01*
X104626594Y-77080952D02*
X103626594Y-77080952D01*
X103769452Y-76985714D01*
X103864690Y-76890476D01*
X103912309Y-76795238D01*
%TO.C,C2*%
X117006666Y-62357142D02*
X117054285Y-62404761D01*
X117197142Y-62452380D01*
X117292380Y-62452380D01*
X117435238Y-62404761D01*
X117530476Y-62309523D01*
X117578095Y-62214285D01*
X117625714Y-62023809D01*
X117625714Y-61880952D01*
X117578095Y-61690476D01*
X117530476Y-61595238D01*
X117435238Y-61500000D01*
X117292380Y-61452380D01*
X117197142Y-61452380D01*
X117054285Y-61500000D01*
X117006666Y-61547619D01*
X116625714Y-61547619D02*
X116578095Y-61500000D01*
X116482857Y-61452380D01*
X116244761Y-61452380D01*
X116149523Y-61500000D01*
X116101904Y-61547619D01*
X116054285Y-61642857D01*
X116054285Y-61738095D01*
X116101904Y-61880952D01*
X116673333Y-62452380D01*
X116054285Y-62452380D01*
%TO.C,SW1*%
X99974761Y-69746666D02*
X100022380Y-69889523D01*
X100022380Y-70127619D01*
X99974761Y-70222857D01*
X99927142Y-70270476D01*
X99831904Y-70318095D01*
X99736666Y-70318095D01*
X99641428Y-70270476D01*
X99593809Y-70222857D01*
X99546190Y-70127619D01*
X99498571Y-69937142D01*
X99450952Y-69841904D01*
X99403333Y-69794285D01*
X99308095Y-69746666D01*
X99212857Y-69746666D01*
X99117619Y-69794285D01*
X99070000Y-69841904D01*
X99022380Y-69937142D01*
X99022380Y-70175238D01*
X99070000Y-70318095D01*
X99022380Y-70651428D02*
X100022380Y-70889523D01*
X99308095Y-71080000D01*
X100022380Y-71270476D01*
X99022380Y-71508571D01*
X100022380Y-72413333D02*
X100022380Y-71841904D01*
X100022380Y-72127619D02*
X99022380Y-72127619D01*
X99165238Y-72032380D01*
X99260476Y-71937142D01*
X99308095Y-71841904D01*
%TO.C,R6*%
X195606666Y-79152380D02*
X195940000Y-78676190D01*
X196178095Y-79152380D02*
X196178095Y-78152380D01*
X195797142Y-78152380D01*
X195701904Y-78200000D01*
X195654285Y-78247619D01*
X195606666Y-78342857D01*
X195606666Y-78485714D01*
X195654285Y-78580952D01*
X195701904Y-78628571D01*
X195797142Y-78676190D01*
X196178095Y-78676190D01*
X194749523Y-78152380D02*
X194940000Y-78152380D01*
X195035238Y-78200000D01*
X195082857Y-78247619D01*
X195178095Y-78390476D01*
X195225714Y-78580952D01*
X195225714Y-78961904D01*
X195178095Y-79057142D01*
X195130476Y-79104761D01*
X195035238Y-79152380D01*
X194844761Y-79152380D01*
X194749523Y-79104761D01*
X194701904Y-79057142D01*
X194654285Y-78961904D01*
X194654285Y-78723809D01*
X194701904Y-78628571D01*
X194749523Y-78580952D01*
X194844761Y-78533333D01*
X195035238Y-78533333D01*
X195130476Y-78580952D01*
X195178095Y-78628571D01*
X195225714Y-78723809D01*
D11*
%TO.C,CC*%
X173139047Y-64689574D02*
X173243809Y-64794336D01*
X173558095Y-64899098D01*
X173767619Y-64899098D01*
X174081904Y-64794336D01*
X174291428Y-64584812D01*
X174396190Y-64375288D01*
X174500952Y-63956240D01*
X174500952Y-63641955D01*
X174396190Y-63222907D01*
X174291428Y-63013383D01*
X174081904Y-62803860D01*
X173767619Y-62699098D01*
X173558095Y-62699098D01*
X173243809Y-62803860D01*
X173139047Y-62908621D01*
X170939047Y-64689574D02*
X171043809Y-64794336D01*
X171358095Y-64899098D01*
X171567619Y-64899098D01*
X171881904Y-64794336D01*
X172091428Y-64584812D01*
X172196190Y-64375288D01*
X172300952Y-63956240D01*
X172300952Y-63641955D01*
X172196190Y-63222907D01*
X172091428Y-63013383D01*
X171881904Y-62803860D01*
X171567619Y-62699098D01*
X171358095Y-62699098D01*
X171043809Y-62803860D01*
X170939047Y-62908621D01*
D10*
%TO.C,R4*%
X195606666Y-89352380D02*
X195940000Y-88876190D01*
X196178095Y-89352380D02*
X196178095Y-88352380D01*
X195797142Y-88352380D01*
X195701904Y-88400000D01*
X195654285Y-88447619D01*
X195606666Y-88542857D01*
X195606666Y-88685714D01*
X195654285Y-88780952D01*
X195701904Y-88828571D01*
X195797142Y-88876190D01*
X196178095Y-88876190D01*
X194749523Y-88685714D02*
X194749523Y-89352380D01*
X194987619Y-88304761D02*
X195225714Y-89019047D01*
X194606666Y-89019047D01*
%TO.C,Q1*%
X111855238Y-94387619D02*
X111950476Y-94340000D01*
X112045714Y-94244761D01*
X112188571Y-94101904D01*
X112283809Y-94054285D01*
X112379047Y-94054285D01*
X112331428Y-94292380D02*
X112426666Y-94244761D01*
X112521904Y-94149523D01*
X112569523Y-93959047D01*
X112569523Y-93625714D01*
X112521904Y-93435238D01*
X112426666Y-93340000D01*
X112331428Y-93292380D01*
X112140952Y-93292380D01*
X112045714Y-93340000D01*
X111950476Y-93435238D01*
X111902857Y-93625714D01*
X111902857Y-93959047D01*
X111950476Y-94149523D01*
X112045714Y-94244761D01*
X112140952Y-94292380D01*
X112331428Y-94292380D01*
X110950476Y-94292380D02*
X111521904Y-94292380D01*
X111236190Y-94292380D02*
X111236190Y-93292380D01*
X111331428Y-93435238D01*
X111426666Y-93530476D01*
X111521904Y-93578095D01*
%TO.C,SW3*%
X127404761Y-90106666D02*
X127452380Y-90249523D01*
X127452380Y-90487619D01*
X127404761Y-90582857D01*
X127357142Y-90630476D01*
X127261904Y-90678095D01*
X127166666Y-90678095D01*
X127071428Y-90630476D01*
X127023809Y-90582857D01*
X126976190Y-90487619D01*
X126928571Y-90297142D01*
X126880952Y-90201904D01*
X126833333Y-90154285D01*
X126738095Y-90106666D01*
X126642857Y-90106666D01*
X126547619Y-90154285D01*
X126500000Y-90201904D01*
X126452380Y-90297142D01*
X126452380Y-90535238D01*
X126500000Y-90678095D01*
X126452380Y-91011428D02*
X127452380Y-91249523D01*
X126738095Y-91440000D01*
X127452380Y-91630476D01*
X126452380Y-91868571D01*
X126452380Y-92154285D02*
X126452380Y-92773333D01*
X126833333Y-92440000D01*
X126833333Y-92582857D01*
X126880952Y-92678095D01*
X126928571Y-92725714D01*
X127023809Y-92773333D01*
X127261904Y-92773333D01*
X127357142Y-92725714D01*
X127404761Y-92678095D01*
X127452380Y-92582857D01*
X127452380Y-92297142D01*
X127404761Y-92201904D01*
X127357142Y-92154285D01*
%TO.C,U3*%
X103592380Y-85598095D02*
X104401904Y-85598095D01*
X104497142Y-85645714D01*
X104544761Y-85693333D01*
X104592380Y-85788571D01*
X104592380Y-85979047D01*
X104544761Y-86074285D01*
X104497142Y-86121904D01*
X104401904Y-86169523D01*
X103592380Y-86169523D01*
X103592380Y-86550476D02*
X103592380Y-87169523D01*
X103973333Y-86836190D01*
X103973333Y-86979047D01*
X104020952Y-87074285D01*
X104068571Y-87121904D01*
X104163809Y-87169523D01*
X104401904Y-87169523D01*
X104497142Y-87121904D01*
X104544761Y-87074285D01*
X104592380Y-86979047D01*
X104592380Y-86693333D01*
X104544761Y-86598095D01*
X104497142Y-86550476D01*
%TO.C,C5*%
X186890971Y-78249505D02*
X186938590Y-78297124D01*
X187081447Y-78344743D01*
X187176685Y-78344743D01*
X187319543Y-78297124D01*
X187414781Y-78201886D01*
X187462400Y-78106648D01*
X187510019Y-77916172D01*
X187510019Y-77773315D01*
X187462400Y-77582839D01*
X187414781Y-77487601D01*
X187319543Y-77392363D01*
X187176685Y-77344743D01*
X187081447Y-77344743D01*
X186938590Y-77392363D01*
X186890971Y-77439982D01*
X185986209Y-77344743D02*
X186462400Y-77344743D01*
X186510019Y-77820934D01*
X186462400Y-77773315D01*
X186367162Y-77725696D01*
X186129066Y-77725696D01*
X186033828Y-77773315D01*
X185986209Y-77820934D01*
X185938590Y-77916172D01*
X185938590Y-78154267D01*
X185986209Y-78249505D01*
X186033828Y-78297124D01*
X186129066Y-78344743D01*
X186367162Y-78344743D01*
X186462400Y-78297124D01*
X186510019Y-78249505D01*
%TO.C,SW2*%
X125793333Y-64159805D02*
X125650476Y-64207424D01*
X125412380Y-64207424D01*
X125317142Y-64159805D01*
X125269523Y-64112186D01*
X125221904Y-64016948D01*
X125221904Y-63921710D01*
X125269523Y-63826472D01*
X125317142Y-63778853D01*
X125412380Y-63731234D01*
X125602857Y-63683615D01*
X125698095Y-63635996D01*
X125745714Y-63588377D01*
X125793333Y-63493139D01*
X125793333Y-63397901D01*
X125745714Y-63302663D01*
X125698095Y-63255044D01*
X125602857Y-63207424D01*
X125364761Y-63207424D01*
X125221904Y-63255044D01*
X124888571Y-63207424D02*
X124650476Y-64207424D01*
X124460000Y-63493139D01*
X124269523Y-64207424D01*
X124031428Y-63207424D01*
X123698095Y-63302663D02*
X123650476Y-63255044D01*
X123555238Y-63207424D01*
X123317142Y-63207424D01*
X123221904Y-63255044D01*
X123174285Y-63302663D01*
X123126666Y-63397901D01*
X123126666Y-63493139D01*
X123174285Y-63635996D01*
X123745714Y-64207424D01*
X123126666Y-64207424D01*
%TO.C,U4*%
X92031904Y-84712380D02*
X92031904Y-85521904D01*
X91984285Y-85617142D01*
X91936666Y-85664761D01*
X91841428Y-85712380D01*
X91650952Y-85712380D01*
X91555714Y-85664761D01*
X91508095Y-85617142D01*
X91460476Y-85521904D01*
X91460476Y-84712380D01*
X90555714Y-85045714D02*
X90555714Y-85712380D01*
X90793809Y-84664761D02*
X91031904Y-85379047D01*
X90412857Y-85379047D01*
%TO.C,C42*%
X89372857Y-82099642D02*
X89420476Y-82147261D01*
X89563333Y-82194880D01*
X89658571Y-82194880D01*
X89801428Y-82147261D01*
X89896666Y-82052023D01*
X89944285Y-81956785D01*
X89991904Y-81766309D01*
X89991904Y-81623452D01*
X89944285Y-81432976D01*
X89896666Y-81337738D01*
X89801428Y-81242500D01*
X89658571Y-81194880D01*
X89563333Y-81194880D01*
X89420476Y-81242500D01*
X89372857Y-81290119D01*
X88515714Y-81528214D02*
X88515714Y-82194880D01*
X88753809Y-81147261D02*
X88991904Y-81861547D01*
X88372857Y-81861547D01*
X88039523Y-81290119D02*
X87991904Y-81242500D01*
X87896666Y-81194880D01*
X87658571Y-81194880D01*
X87563333Y-81242500D01*
X87515714Y-81290119D01*
X87468095Y-81385357D01*
X87468095Y-81480595D01*
X87515714Y-81623452D01*
X88087142Y-82194880D01*
X87468095Y-82194880D01*
D12*
%TO.C,U1*%
X73173166Y-80602666D02*
X73892833Y-80602666D01*
X73977500Y-80645000D01*
X74019833Y-80687333D01*
X74062166Y-80772000D01*
X74062166Y-80941333D01*
X74019833Y-81026000D01*
X73977500Y-81068333D01*
X73892833Y-81110666D01*
X73173166Y-81110666D01*
X74062166Y-81999666D02*
X74062166Y-81491666D01*
X74062166Y-81745666D02*
X73173166Y-81745666D01*
X73300166Y-81661000D01*
X73384833Y-81576333D01*
X73427166Y-81491666D01*
D10*
%TO.C,R1*%
X132532380Y-69940397D02*
X132056190Y-69607064D01*
X132532380Y-69368968D02*
X131532380Y-69368968D01*
X131532380Y-69749921D01*
X131580000Y-69845159D01*
X131627619Y-69892778D01*
X131722857Y-69940397D01*
X131865714Y-69940397D01*
X131960952Y-69892778D01*
X132008571Y-69845159D01*
X132056190Y-69749921D01*
X132056190Y-69368968D01*
X132532380Y-70892778D02*
X132532380Y-70321349D01*
X132532380Y-70607064D02*
X131532380Y-70607064D01*
X131675238Y-70511825D01*
X131770476Y-70416587D01*
X131818095Y-70321349D01*
%TO.C,R5*%
X195606666Y-84272380D02*
X195940000Y-83796190D01*
X196178095Y-84272380D02*
X196178095Y-83272380D01*
X195797142Y-83272380D01*
X195701904Y-83320000D01*
X195654285Y-83367619D01*
X195606666Y-83462857D01*
X195606666Y-83605714D01*
X195654285Y-83700952D01*
X195701904Y-83748571D01*
X195797142Y-83796190D01*
X196178095Y-83796190D01*
X194701904Y-83272380D02*
X195178095Y-83272380D01*
X195225714Y-83748571D01*
X195178095Y-83700952D01*
X195082857Y-83653333D01*
X194844761Y-83653333D01*
X194749523Y-83700952D01*
X194701904Y-83748571D01*
X194654285Y-83843809D01*
X194654285Y-84081904D01*
X194701904Y-84177142D01*
X194749523Y-84224761D01*
X194844761Y-84272380D01*
X195082857Y-84272380D01*
X195178095Y-84224761D01*
X195225714Y-84177142D01*
%TO.C,R7*%
X195466666Y-74112380D02*
X195800000Y-73636190D01*
X196038095Y-74112380D02*
X196038095Y-73112380D01*
X195657142Y-73112380D01*
X195561904Y-73160000D01*
X195514285Y-73207619D01*
X195466666Y-73302857D01*
X195466666Y-73445714D01*
X195514285Y-73540952D01*
X195561904Y-73588571D01*
X195657142Y-73636190D01*
X196038095Y-73636190D01*
X195133333Y-73112380D02*
X194466666Y-73112380D01*
X194895238Y-74112380D01*
D13*
%TO.C,C3*%
X127711252Y-74550000D02*
X126288748Y-74550000D01*
X127711252Y-76370000D02*
X126288748Y-76370000D01*
%TO.C,R3*%
X128360000Y-71634128D02*
X128360000Y-68580000D01*
X125640000Y-71634128D02*
X125640000Y-68580000D01*
%TO.C,R11*%
X118020000Y-89912936D02*
X118020000Y-92967064D01*
X120740000Y-89912936D02*
X120740000Y-92967064D01*
%TO.C,C41*%
X97260000Y-82453752D02*
X97260000Y-81031248D01*
X95440000Y-82453752D02*
X95440000Y-81031248D01*
%TO.C,D6*%
X120925000Y-87650000D02*
X117835000Y-87650000D01*
X119380462Y-82100000D02*
G75*
G03*
X117835170Y-87650000I-462J-2990000D01*
G01*
X120924830Y-87650000D02*
G75*
G03*
X119379538Y-82100000I-1544830J2560000D01*
G01*
X121880000Y-85090000D02*
G75*
G03*
X121880000Y-85090000I-2500000J0D01*
G01*
%TO.C,C1*%
X54051252Y-101690000D02*
X52628748Y-101690000D01*
X54051252Y-103510000D02*
X52628748Y-103510000D01*
%TO.C,C4*%
X160731252Y-103430000D02*
X159308748Y-103430000D01*
X160731252Y-105250000D02*
X159308748Y-105250000D01*
%TO.C,OSHW*%
G36*
X183051252Y-66316860D02*
G01*
X183051651Y-66349199D01*
X183052929Y-66457315D01*
X183053185Y-66540046D01*
X183051634Y-66600286D01*
X183047490Y-66640933D01*
X183039964Y-66664883D01*
X183028271Y-66675031D01*
X183011624Y-66674274D01*
X182989236Y-66665508D01*
X182960321Y-66651629D01*
X182954142Y-66648668D01*
X182928413Y-66634171D01*
X182914976Y-66616925D01*
X182909834Y-66588168D01*
X182908990Y-66539143D01*
X182908952Y-66451117D01*
X182818276Y-66451117D01*
X182762498Y-66448675D01*
X182718640Y-66438768D01*
X182682218Y-66418746D01*
X182679503Y-66416789D01*
X182642546Y-66383729D01*
X182616826Y-66343791D01*
X182600606Y-66291517D01*
X182592148Y-66221448D01*
X182590083Y-66142290D01*
X182734857Y-66142290D01*
X182734882Y-66155557D01*
X182736261Y-66215444D01*
X182740687Y-66254592D01*
X182749461Y-66280013D01*
X182763886Y-66298717D01*
X182764784Y-66299610D01*
X182800237Y-66323812D01*
X182834596Y-66321427D01*
X182873403Y-66292120D01*
X182882895Y-66282104D01*
X182896876Y-66261568D01*
X182904760Y-66234857D01*
X182908245Y-66194359D01*
X182909029Y-66132463D01*
X182908350Y-66094990D01*
X182900983Y-66026840D01*
X182884168Y-65982190D01*
X182856234Y-65957786D01*
X182815509Y-65950374D01*
X182798350Y-65951954D01*
X182768660Y-65967626D01*
X182749031Y-66002551D01*
X182738188Y-66059761D01*
X182734857Y-66142290D01*
X182590083Y-66142290D01*
X182589714Y-66128127D01*
X182590253Y-66060029D01*
X182592707Y-66008447D01*
X182598158Y-65972676D01*
X182607686Y-65945875D01*
X182622371Y-65921198D01*
X182635852Y-65902340D01*
X182684799Y-65851428D01*
X182740256Y-65823778D01*
X182809928Y-65815025D01*
X182889664Y-65823750D01*
X182958595Y-65855045D01*
X183013113Y-65910241D01*
X183017223Y-65916084D01*
X183026808Y-65931613D01*
X183034151Y-65949358D01*
X183039612Y-65973150D01*
X183043550Y-66006818D01*
X183046323Y-66054193D01*
X183048292Y-66119105D01*
X183048528Y-66132463D01*
X183049815Y-66205384D01*
X183051252Y-66316860D01*
G37*
D14*
X183051252Y-66316860D02*
X183051651Y-66349199D01*
X183052929Y-66457315D01*
X183053185Y-66540046D01*
X183051634Y-66600286D01*
X183047490Y-66640933D01*
X183039964Y-66664883D01*
X183028271Y-66675031D01*
X183011624Y-66674274D01*
X182989236Y-66665508D01*
X182960321Y-66651629D01*
X182954142Y-66648668D01*
X182928413Y-66634171D01*
X182914976Y-66616925D01*
X182909834Y-66588168D01*
X182908990Y-66539143D01*
X182908952Y-66451117D01*
X182818276Y-66451117D01*
X182762498Y-66448675D01*
X182718640Y-66438768D01*
X182682218Y-66418746D01*
X182679503Y-66416789D01*
X182642546Y-66383729D01*
X182616826Y-66343791D01*
X182600606Y-66291517D01*
X182592148Y-66221448D01*
X182590083Y-66142290D01*
X182734857Y-66142290D01*
X182734882Y-66155557D01*
X182736261Y-66215444D01*
X182740687Y-66254592D01*
X182749461Y-66280013D01*
X182763886Y-66298717D01*
X182764784Y-66299610D01*
X182800237Y-66323812D01*
X182834596Y-66321427D01*
X182873403Y-66292120D01*
X182882895Y-66282104D01*
X182896876Y-66261568D01*
X182904760Y-66234857D01*
X182908245Y-66194359D01*
X182909029Y-66132463D01*
X182908350Y-66094990D01*
X182900983Y-66026840D01*
X182884168Y-65982190D01*
X182856234Y-65957786D01*
X182815509Y-65950374D01*
X182798350Y-65951954D01*
X182768660Y-65967626D01*
X182749031Y-66002551D01*
X182738188Y-66059761D01*
X182734857Y-66142290D01*
X182590083Y-66142290D01*
X182589714Y-66128127D01*
X182590253Y-66060029D01*
X182592707Y-66008447D01*
X182598158Y-65972676D01*
X182607686Y-65945875D01*
X182622371Y-65921198D01*
X182635852Y-65902340D01*
X182684799Y-65851428D01*
X182740256Y-65823778D01*
X182809928Y-65815025D01*
X182889664Y-65823750D01*
X182958595Y-65855045D01*
X183013113Y-65910241D01*
X183017223Y-65916084D01*
X183026808Y-65931613D01*
X183034151Y-65949358D01*
X183039612Y-65973150D01*
X183043550Y-66006818D01*
X183046323Y-66054193D01*
X183048292Y-66119105D01*
X183048528Y-66132463D01*
X183049815Y-66205384D01*
X183051252Y-66316860D01*
G36*
X183605701Y-66154795D02*
G01*
X183604914Y-66224979D01*
X183602210Y-66273882D01*
X183596606Y-66308038D01*
X183587119Y-66333984D01*
X183572768Y-66358257D01*
X183569237Y-66363293D01*
X183531878Y-66403003D01*
X183489311Y-66432952D01*
X183467452Y-66442670D01*
X183388908Y-66458880D01*
X183311231Y-66448395D01*
X183239645Y-66412567D01*
X183179374Y-66352747D01*
X183174286Y-66344733D01*
X183157730Y-66298202D01*
X183146573Y-66233412D01*
X183141160Y-66158587D01*
X183141768Y-66089373D01*
X183288248Y-66089373D01*
X183289402Y-66185259D01*
X183289866Y-66191429D01*
X183296629Y-66244338D01*
X183308671Y-66277889D01*
X183329005Y-66300876D01*
X183363097Y-66322408D01*
X183396814Y-66323540D01*
X183431543Y-66298717D01*
X183437584Y-66292185D01*
X183449417Y-66272639D01*
X183456404Y-66244246D01*
X183459727Y-66200290D01*
X183460571Y-66134052D01*
X183459125Y-66072010D01*
X183451907Y-66012902D01*
X183437006Y-65975546D01*
X183412636Y-65956012D01*
X183377008Y-65950374D01*
X183363440Y-65951495D01*
X183325430Y-65972054D01*
X183300312Y-66018159D01*
X183288248Y-66089373D01*
X183141768Y-66089373D01*
X183141833Y-66081956D01*
X183148937Y-66011742D01*
X183162815Y-65956172D01*
X183180649Y-65919161D01*
X183230855Y-65861593D01*
X183298885Y-65825822D01*
X183382158Y-65813525D01*
X183404398Y-65814191D01*
X183469891Y-65827807D01*
X183523687Y-65862109D01*
X183573057Y-65921198D01*
X183575995Y-65925582D01*
X183589287Y-65949159D01*
X183597932Y-65975809D01*
X183602904Y-66012019D01*
X183605174Y-66064273D01*
X183605678Y-66134052D01*
X183605714Y-66139060D01*
X183605701Y-66154795D01*
G37*
X183605701Y-66154795D02*
X183604914Y-66224979D01*
X183602210Y-66273882D01*
X183596606Y-66308038D01*
X183587119Y-66333984D01*
X183572768Y-66358257D01*
X183569237Y-66363293D01*
X183531878Y-66403003D01*
X183489311Y-66432952D01*
X183467452Y-66442670D01*
X183388908Y-66458880D01*
X183311231Y-66448395D01*
X183239645Y-66412567D01*
X183179374Y-66352747D01*
X183174286Y-66344733D01*
X183157730Y-66298202D01*
X183146573Y-66233412D01*
X183141160Y-66158587D01*
X183141768Y-66089373D01*
X183288248Y-66089373D01*
X183289402Y-66185259D01*
X183289866Y-66191429D01*
X183296629Y-66244338D01*
X183308671Y-66277889D01*
X183329005Y-66300876D01*
X183363097Y-66322408D01*
X183396814Y-66323540D01*
X183431543Y-66298717D01*
X183437584Y-66292185D01*
X183449417Y-66272639D01*
X183456404Y-66244246D01*
X183459727Y-66200290D01*
X183460571Y-66134052D01*
X183459125Y-66072010D01*
X183451907Y-66012902D01*
X183437006Y-65975546D01*
X183412636Y-65956012D01*
X183377008Y-65950374D01*
X183363440Y-65951495D01*
X183325430Y-65972054D01*
X183300312Y-66018159D01*
X183288248Y-66089373D01*
X183141768Y-66089373D01*
X183141833Y-66081956D01*
X183148937Y-66011742D01*
X183162815Y-65956172D01*
X183180649Y-65919161D01*
X183230855Y-65861593D01*
X183298885Y-65825822D01*
X183382158Y-65813525D01*
X183404398Y-65814191D01*
X183469891Y-65827807D01*
X183523687Y-65862109D01*
X183573057Y-65921198D01*
X183575995Y-65925582D01*
X183589287Y-65949159D01*
X183597932Y-65975809D01*
X183602904Y-66012019D01*
X183605174Y-66064273D01*
X183605678Y-66134052D01*
X183605714Y-66139060D01*
X183605701Y-66154795D01*
G36*
X181018543Y-65653304D02*
G01*
X181065714Y-65673202D01*
X181065714Y-66070369D01*
X181065519Y-66173358D01*
X181064998Y-66266001D01*
X181064199Y-66344560D01*
X181063172Y-66405299D01*
X181061963Y-66444483D01*
X181060623Y-66458374D01*
X181060099Y-66458328D01*
X181042287Y-66453280D01*
X181009823Y-66442440D01*
X180964114Y-66426506D01*
X180964114Y-66222033D01*
X180963824Y-66141692D01*
X180962474Y-66083422D01*
X180959369Y-66043769D01*
X180953812Y-66017478D01*
X180945107Y-65999296D01*
X180932556Y-65983967D01*
X180923999Y-65975815D01*
X180877728Y-65953235D01*
X180826728Y-65955235D01*
X180779993Y-65981933D01*
X180773189Y-65988558D01*
X180762293Y-66002316D01*
X180754836Y-66020502D01*
X180750169Y-66048037D01*
X180747642Y-66089841D01*
X180746602Y-66150833D01*
X180746400Y-66235933D01*
X180746303Y-66279094D01*
X180745674Y-66350084D01*
X180744556Y-66406936D01*
X180743063Y-66444688D01*
X180741309Y-66458374D01*
X180740785Y-66458328D01*
X180722973Y-66453280D01*
X180690509Y-66442440D01*
X180644800Y-66426506D01*
X180644823Y-66221097D01*
X180644857Y-66202811D01*
X180646778Y-66107486D01*
X180652678Y-66035403D01*
X180664001Y-65981673D01*
X180682187Y-65941409D01*
X180708679Y-65909721D01*
X180744918Y-65881721D01*
X180780263Y-65864193D01*
X180836773Y-65850645D01*
X180892356Y-65849875D01*
X180935086Y-65863055D01*
X180938298Y-65864875D01*
X180948205Y-65864680D01*
X180954975Y-65849432D01*
X180959861Y-65814473D01*
X180964114Y-65755149D01*
X180971371Y-65633407D01*
X181018543Y-65653304D01*
G37*
X181018543Y-65653304D02*
X181065714Y-65673202D01*
X181065714Y-66070369D01*
X181065519Y-66173358D01*
X181064998Y-66266001D01*
X181064199Y-66344560D01*
X181063172Y-66405299D01*
X181061963Y-66444483D01*
X181060623Y-66458374D01*
X181060099Y-66458328D01*
X181042287Y-66453280D01*
X181009823Y-66442440D01*
X180964114Y-66426506D01*
X180964114Y-66222033D01*
X180963824Y-66141692D01*
X180962474Y-66083422D01*
X180959369Y-66043769D01*
X180953812Y-66017478D01*
X180945107Y-65999296D01*
X180932556Y-65983967D01*
X180923999Y-65975815D01*
X180877728Y-65953235D01*
X180826728Y-65955235D01*
X180779993Y-65981933D01*
X180773189Y-65988558D01*
X180762293Y-66002316D01*
X180754836Y-66020502D01*
X180750169Y-66048037D01*
X180747642Y-66089841D01*
X180746602Y-66150833D01*
X180746400Y-66235933D01*
X180746303Y-66279094D01*
X180745674Y-66350084D01*
X180744556Y-66406936D01*
X180743063Y-66444688D01*
X180741309Y-66458374D01*
X180740785Y-66458328D01*
X180722973Y-66453280D01*
X180690509Y-66442440D01*
X180644800Y-66426506D01*
X180644823Y-66221097D01*
X180644857Y-66202811D01*
X180646778Y-66107486D01*
X180652678Y-66035403D01*
X180664001Y-65981673D01*
X180682187Y-65941409D01*
X180708679Y-65909721D01*
X180744918Y-65881721D01*
X180780263Y-65864193D01*
X180836773Y-65850645D01*
X180892356Y-65849875D01*
X180935086Y-65863055D01*
X180938298Y-65864875D01*
X180948205Y-65864680D01*
X180954975Y-65849432D01*
X180959861Y-65814473D01*
X180964114Y-65755149D01*
X180971371Y-65633407D01*
X181018543Y-65653304D01*
G36*
X181771020Y-65821682D02*
G01*
X181838810Y-65853540D01*
X181894366Y-65908630D01*
X181905881Y-65925876D01*
X181915432Y-65945422D01*
X181922206Y-65970058D01*
X181926819Y-66004571D01*
X181929888Y-66053749D01*
X181932029Y-66122379D01*
X181933859Y-66215249D01*
X181938404Y-66472867D01*
X181900225Y-66458351D01*
X181865268Y-66445016D01*
X181839097Y-66432183D01*
X181822013Y-66415640D01*
X181812086Y-66390325D01*
X181807386Y-66351176D01*
X181805982Y-66293128D01*
X181805943Y-66211121D01*
X181805744Y-66145755D01*
X181804559Y-66083033D01*
X181801729Y-66040194D01*
X181796609Y-66012080D01*
X181788553Y-65993535D01*
X181776914Y-65979403D01*
X181748303Y-65959460D01*
X181700239Y-65951943D01*
X181652688Y-65970939D01*
X181649550Y-65973371D01*
X181639769Y-65984608D01*
X181632553Y-66002630D01*
X181627299Y-66031886D01*
X181623402Y-66076822D01*
X181620256Y-66141888D01*
X181617257Y-66231530D01*
X181610000Y-66471557D01*
X181548314Y-66443904D01*
X181486629Y-66416251D01*
X181486629Y-66197106D01*
X181486884Y-66137571D01*
X181489086Y-66054752D01*
X181494661Y-65993087D01*
X181504941Y-65947608D01*
X181521258Y-65913344D01*
X181544943Y-65885326D01*
X181577328Y-65858583D01*
X181623907Y-65831640D01*
X181697287Y-65814051D01*
X181771020Y-65821682D01*
G37*
X181771020Y-65821682D02*
X181838810Y-65853540D01*
X181894366Y-65908630D01*
X181905881Y-65925876D01*
X181915432Y-65945422D01*
X181922206Y-65970058D01*
X181926819Y-66004571D01*
X181929888Y-66053749D01*
X181932029Y-66122379D01*
X181933859Y-66215249D01*
X181938404Y-66472867D01*
X181900225Y-66458351D01*
X181865268Y-66445016D01*
X181839097Y-66432183D01*
X181822013Y-66415640D01*
X181812086Y-66390325D01*
X181807386Y-66351176D01*
X181805982Y-66293128D01*
X181805943Y-66211121D01*
X181805744Y-66145755D01*
X181804559Y-66083033D01*
X181801729Y-66040194D01*
X181796609Y-66012080D01*
X181788553Y-65993535D01*
X181776914Y-65979403D01*
X181748303Y-65959460D01*
X181700239Y-65951943D01*
X181652688Y-65970939D01*
X181649550Y-65973371D01*
X181639769Y-65984608D01*
X181632553Y-66002630D01*
X181627299Y-66031886D01*
X181623402Y-66076822D01*
X181620256Y-66141888D01*
X181617257Y-66231530D01*
X181610000Y-66471557D01*
X181548314Y-66443904D01*
X181486629Y-66416251D01*
X181486629Y-66197106D01*
X181486884Y-66137571D01*
X181489086Y-66054752D01*
X181494661Y-65993087D01*
X181504941Y-65947608D01*
X181521258Y-65913344D01*
X181544943Y-65885326D01*
X181577328Y-65858583D01*
X181623907Y-65831640D01*
X181697287Y-65814051D01*
X181771020Y-65821682D01*
G36*
X177822829Y-65854957D02*
G01*
X177882753Y-65877215D01*
X177907673Y-65893940D01*
X177932910Y-65917903D01*
X177950912Y-65948386D01*
X177962858Y-65989883D01*
X177969930Y-66046892D01*
X177973308Y-66123907D01*
X177974171Y-66225425D01*
X177974002Y-66277887D01*
X177973153Y-66349575D01*
X177971711Y-66406785D01*
X177969814Y-66444669D01*
X177967597Y-66458374D01*
X177953172Y-66453841D01*
X177924054Y-66441530D01*
X177923181Y-66441132D01*
X177908060Y-66433216D01*
X177897891Y-66422355D01*
X177891691Y-66403331D01*
X177888478Y-66370929D01*
X177887270Y-66319931D01*
X177887086Y-66245121D01*
X177886714Y-66197664D01*
X177882750Y-66108475D01*
X177873673Y-66043147D01*
X177858524Y-65998253D01*
X177836345Y-65970367D01*
X177806175Y-65956063D01*
X177801990Y-65955066D01*
X177745480Y-65954287D01*
X177701410Y-65979604D01*
X177670972Y-66030362D01*
X177665544Y-66045035D01*
X177653171Y-66077509D01*
X177646905Y-66092432D01*
X177634036Y-66090376D01*
X177605933Y-66079217D01*
X177579721Y-66060787D01*
X177567771Y-66025958D01*
X177571336Y-66001011D01*
X177593235Y-65950407D01*
X177628644Y-65902988D01*
X177670052Y-65870194D01*
X177687400Y-65862612D01*
X177753089Y-65849936D01*
X177822829Y-65854957D01*
G37*
X177822829Y-65854957D02*
X177882753Y-65877215D01*
X177907673Y-65893940D01*
X177932910Y-65917903D01*
X177950912Y-65948386D01*
X177962858Y-65989883D01*
X177969930Y-66046892D01*
X177973308Y-66123907D01*
X177974171Y-66225425D01*
X177974002Y-66277887D01*
X177973153Y-66349575D01*
X177971711Y-66406785D01*
X177969814Y-66444669D01*
X177967597Y-66458374D01*
X177953172Y-66453841D01*
X177924054Y-66441530D01*
X177923181Y-66441132D01*
X177908060Y-66433216D01*
X177897891Y-66422355D01*
X177891691Y-66403331D01*
X177888478Y-66370929D01*
X177887270Y-66319931D01*
X177887086Y-66245121D01*
X177886714Y-66197664D01*
X177882750Y-66108475D01*
X177873673Y-66043147D01*
X177858524Y-65998253D01*
X177836345Y-65970367D01*
X177806175Y-65956063D01*
X177801990Y-65955066D01*
X177745480Y-65954287D01*
X177701410Y-65979604D01*
X177670972Y-66030362D01*
X177665544Y-66045035D01*
X177653171Y-66077509D01*
X177646905Y-66092432D01*
X177634036Y-66090376D01*
X177605933Y-66079217D01*
X177579721Y-66060787D01*
X177567771Y-66025958D01*
X177571336Y-66001011D01*
X177593235Y-65950407D01*
X177628644Y-65902988D01*
X177670052Y-65870194D01*
X177687400Y-65862612D01*
X177753089Y-65849936D01*
X177822829Y-65854957D01*
G36*
X179569537Y-66210173D02*
G01*
X179561345Y-66287322D01*
X179543519Y-66345136D01*
X179513975Y-66389282D01*
X179470625Y-66425428D01*
X179429332Y-66446323D01*
X179359987Y-66457950D01*
X179290736Y-66445237D01*
X179228145Y-66409805D01*
X179178779Y-66353278D01*
X179172818Y-66342855D01*
X179164945Y-66324593D01*
X179159106Y-66301289D01*
X179154999Y-66268945D01*
X179152325Y-66223564D01*
X179150781Y-66161147D01*
X179150734Y-66155608D01*
X179251429Y-66155608D01*
X179251772Y-66208437D01*
X179253942Y-66256222D01*
X179259307Y-66287069D01*
X179269217Y-66307795D01*
X179285021Y-66325216D01*
X179288724Y-66328565D01*
X179336299Y-66353279D01*
X179386635Y-66350750D01*
X179433517Y-66321148D01*
X179447477Y-66305813D01*
X179459160Y-66285482D01*
X179465686Y-66257374D01*
X179468524Y-66214410D01*
X179469143Y-66149507D01*
X179468837Y-66099982D01*
X179466722Y-66051642D01*
X179461390Y-66020447D01*
X179451460Y-65999507D01*
X179435550Y-65981933D01*
X179426204Y-65974019D01*
X179377776Y-65952703D01*
X179327040Y-65956058D01*
X179282987Y-65983967D01*
X179273504Y-65995033D01*
X179261939Y-66015869D01*
X179255252Y-66044966D01*
X179252173Y-66089241D01*
X179251429Y-66155608D01*
X179150734Y-66155608D01*
X179150067Y-66077697D01*
X179149883Y-65969218D01*
X179149829Y-65632461D01*
X179197000Y-65652222D01*
X179209472Y-65657630D01*
X179229324Y-65669845D01*
X179240687Y-65688342D01*
X179246933Y-65720689D01*
X179251429Y-65774453D01*
X179255535Y-65822726D01*
X179260963Y-65854417D01*
X179268739Y-65866243D01*
X179280457Y-65863072D01*
X179310318Y-65851927D01*
X179363684Y-65849164D01*
X179421093Y-65859485D01*
X179470625Y-65881721D01*
X179497876Y-65902303D01*
X179532865Y-65942460D01*
X179555274Y-65993946D01*
X179567190Y-66062428D01*
X179570542Y-66149507D01*
X179570698Y-66153574D01*
X179569537Y-66210173D01*
G37*
X179569537Y-66210173D02*
X179561345Y-66287322D01*
X179543519Y-66345136D01*
X179513975Y-66389282D01*
X179470625Y-66425428D01*
X179429332Y-66446323D01*
X179359987Y-66457950D01*
X179290736Y-66445237D01*
X179228145Y-66409805D01*
X179178779Y-66353278D01*
X179172818Y-66342855D01*
X179164945Y-66324593D01*
X179159106Y-66301289D01*
X179154999Y-66268945D01*
X179152325Y-66223564D01*
X179150781Y-66161147D01*
X179150734Y-66155608D01*
X179251429Y-66155608D01*
X179251772Y-66208437D01*
X179253942Y-66256222D01*
X179259307Y-66287069D01*
X179269217Y-66307795D01*
X179285021Y-66325216D01*
X179288724Y-66328565D01*
X179336299Y-66353279D01*
X179386635Y-66350750D01*
X179433517Y-66321148D01*
X179447477Y-66305813D01*
X179459160Y-66285482D01*
X179465686Y-66257374D01*
X179468524Y-66214410D01*
X179469143Y-66149507D01*
X179468837Y-66099982D01*
X179466722Y-66051642D01*
X179461390Y-66020447D01*
X179451460Y-65999507D01*
X179435550Y-65981933D01*
X179426204Y-65974019D01*
X179377776Y-65952703D01*
X179327040Y-65956058D01*
X179282987Y-65983967D01*
X179273504Y-65995033D01*
X179261939Y-66015869D01*
X179255252Y-66044966D01*
X179252173Y-66089241D01*
X179251429Y-66155608D01*
X179150734Y-66155608D01*
X179150067Y-66077697D01*
X179149883Y-65969218D01*
X179149829Y-65632461D01*
X179197000Y-65652222D01*
X179209472Y-65657630D01*
X179229324Y-65669845D01*
X179240687Y-65688342D01*
X179246933Y-65720689D01*
X179251429Y-65774453D01*
X179255535Y-65822726D01*
X179260963Y-65854417D01*
X179268739Y-65866243D01*
X179280457Y-65863072D01*
X179310318Y-65851927D01*
X179363684Y-65849164D01*
X179421093Y-65859485D01*
X179470625Y-65881721D01*
X179497876Y-65902303D01*
X179532865Y-65942460D01*
X179555274Y-65993946D01*
X179567190Y-66062428D01*
X179570542Y-66149507D01*
X179570698Y-66153574D01*
X179569537Y-66210173D01*
G36*
X180453933Y-61146231D02*
G01*
X180529856Y-61146725D01*
X180584491Y-61147995D01*
X180621500Y-61150407D01*
X180644547Y-61154327D01*
X180657296Y-61160122D01*
X180663411Y-61168159D01*
X180666556Y-61178803D01*
X180666646Y-61179185D01*
X180671814Y-61204207D01*
X180681209Y-61252541D01*
X180693867Y-61319120D01*
X180708825Y-61398874D01*
X180725119Y-61486735D01*
X180726448Y-61493924D01*
X180742691Y-61579200D01*
X180757805Y-61654102D01*
X180770808Y-61714079D01*
X180780715Y-61754577D01*
X180786544Y-61771044D01*
X180786575Y-61771070D01*
X180804943Y-61780180D01*
X180842640Y-61795317D01*
X180891543Y-61813218D01*
X180894297Y-61814190D01*
X180956817Y-61837819D01*
X181029543Y-61867455D01*
X181097294Y-61896922D01*
X181208703Y-61947486D01*
X181455399Y-61779020D01*
X181472775Y-61767171D01*
X181547202Y-61716807D01*
X181613614Y-61672472D01*
X181668039Y-61636776D01*
X181706506Y-61612331D01*
X181725042Y-61601749D01*
X181737743Y-61604175D01*
X181766579Y-61622970D01*
X181811143Y-61660190D01*
X181872670Y-61716880D01*
X181952398Y-61794087D01*
X181959532Y-61801115D01*
X182022796Y-61864082D01*
X182078990Y-61921128D01*
X182124677Y-61968677D01*
X182156414Y-62003157D01*
X182170764Y-62020991D01*
X182170810Y-62021077D01*
X182172633Y-62034655D01*
X182165910Y-62056680D01*
X182148946Y-62090164D01*
X182120044Y-62138121D01*
X182077508Y-62203564D01*
X182019644Y-62289505D01*
X182009783Y-62304011D01*
X181959913Y-62377495D01*
X181915905Y-62442547D01*
X181880380Y-62495277D01*
X181855959Y-62531796D01*
X181845264Y-62548216D01*
X181844458Y-62551694D01*
X181849518Y-62577645D01*
X181864677Y-62620019D01*
X181887463Y-62671588D01*
X181918429Y-62739030D01*
X181953004Y-62819055D01*
X181982366Y-62891489D01*
X181989645Y-62910237D01*
X182008710Y-62958106D01*
X182022715Y-62991456D01*
X182029041Y-63003974D01*
X182036025Y-63004910D01*
X182067413Y-63010321D01*
X182118787Y-63019666D01*
X182184802Y-63031929D01*
X182260113Y-63046092D01*
X182339375Y-63061140D01*
X182417243Y-63076055D01*
X182488370Y-63089821D01*
X182547412Y-63101422D01*
X182589022Y-63109840D01*
X182607857Y-63114059D01*
X182610980Y-63115249D01*
X182618591Y-63121665D01*
X182624254Y-63135325D01*
X182628251Y-63159859D01*
X182630866Y-63198898D01*
X182632384Y-63256073D01*
X182633086Y-63335014D01*
X182633257Y-63439352D01*
X182633257Y-63756659D01*
X182557057Y-63771699D01*
X182547840Y-63773502D01*
X182498891Y-63782840D01*
X182431205Y-63795529D01*
X182352478Y-63810133D01*
X182270400Y-63825215D01*
X182238078Y-63831282D01*
X182165855Y-63846041D01*
X182105666Y-63859997D01*
X182063040Y-63871812D01*
X182043510Y-63880147D01*
X182034660Y-63893765D01*
X182018548Y-63929798D01*
X182002065Y-63976432D01*
X181996263Y-63993894D01*
X181974906Y-64051218D01*
X181947359Y-64119061D01*
X181918107Y-64186215D01*
X181902463Y-64221290D01*
X181880174Y-64273682D01*
X181864857Y-64312918D01*
X181859162Y-64332423D01*
X181859478Y-64333896D01*
X181870281Y-64354589D01*
X181894638Y-64394525D01*
X181930081Y-64449832D01*
X181974136Y-64516641D01*
X182024332Y-64591080D01*
X182189501Y-64833483D01*
X181972503Y-65050843D01*
X181951516Y-65071759D01*
X181887342Y-65134365D01*
X181829990Y-65188355D01*
X181782820Y-65230686D01*
X181749192Y-65258317D01*
X181732467Y-65268203D01*
X181714303Y-65260681D01*
X181676265Y-65239087D01*
X181622726Y-65206011D01*
X181557884Y-65164051D01*
X181485940Y-65115803D01*
X181415275Y-65068151D01*
X181351526Y-65026188D01*
X181299513Y-64993025D01*
X181263279Y-64971238D01*
X181246867Y-64963403D01*
X181245905Y-64963474D01*
X181224103Y-64971198D01*
X181185440Y-64989183D01*
X181137612Y-65013873D01*
X181137110Y-65014144D01*
X181073587Y-65045959D01*
X181030060Y-65061502D01*
X181003052Y-65061545D01*
X180989090Y-65046860D01*
X180983180Y-65032404D01*
X180967229Y-64993691D01*
X180942660Y-64934176D01*
X180910779Y-64857025D01*
X180872893Y-64765401D01*
X180830310Y-64662467D01*
X180784337Y-64551386D01*
X180742667Y-64450332D01*
X180700268Y-64346640D01*
X180662756Y-64253979D01*
X180631388Y-64175502D01*
X180607425Y-64114360D01*
X180592123Y-64073703D01*
X180586743Y-64056685D01*
X180597018Y-64041079D01*
X180625563Y-64015022D01*
X180665971Y-63984747D01*
X180762979Y-63905544D01*
X180849793Y-63804335D01*
X180913322Y-63692976D01*
X180953177Y-63574753D01*
X180968965Y-63452955D01*
X180960296Y-63330870D01*
X180926778Y-63211785D01*
X180868021Y-63098989D01*
X180783632Y-62995771D01*
X180739631Y-62955573D01*
X180634211Y-62884498D01*
X180521410Y-62838161D01*
X180404525Y-62815459D01*
X180286853Y-62815288D01*
X180171690Y-62836547D01*
X180062335Y-62878130D01*
X179962083Y-62938936D01*
X179874233Y-63017861D01*
X179802080Y-63113801D01*
X179748922Y-63225655D01*
X179718057Y-63352317D01*
X179712392Y-63413367D01*
X179720185Y-63545636D01*
X179755284Y-63671126D01*
X179816649Y-63787619D01*
X179903243Y-63892899D01*
X180014029Y-63984747D01*
X180052931Y-64013790D01*
X180082104Y-64040132D01*
X180093257Y-64056660D01*
X180088810Y-64071069D01*
X180074378Y-64109675D01*
X180051173Y-64169061D01*
X180020452Y-64246075D01*
X179983474Y-64337563D01*
X179941496Y-64440376D01*
X179895778Y-64551362D01*
X179854178Y-64651932D01*
X179811222Y-64755807D01*
X179772829Y-64848679D01*
X179740305Y-64927385D01*
X179714958Y-64988759D01*
X179698095Y-65029639D01*
X179691025Y-65046860D01*
X179690943Y-65047064D01*
X179676798Y-65061605D01*
X179649659Y-65061439D01*
X179606023Y-65045787D01*
X179542388Y-65013873D01*
X179537379Y-65011186D01*
X179490125Y-64987010D01*
X179452811Y-64969897D01*
X179433133Y-64963403D01*
X179417005Y-64971078D01*
X179380959Y-64992731D01*
X179329092Y-65025788D01*
X179265445Y-65067670D01*
X179194060Y-65115803D01*
X179123724Y-65162991D01*
X179058670Y-65205127D01*
X179004820Y-65238438D01*
X178966374Y-65260329D01*
X178947534Y-65268203D01*
X178944325Y-65267203D01*
X178921954Y-65251444D01*
X178883733Y-65218893D01*
X178833021Y-65172593D01*
X178773181Y-65115586D01*
X178707571Y-65050918D01*
X178490648Y-64833632D01*
X178659601Y-64585113D01*
X178828553Y-64336593D01*
X178777183Y-64225455D01*
X178777031Y-64225126D01*
X178746183Y-64154278D01*
X178714661Y-64075383D01*
X178689266Y-64005460D01*
X178685423Y-63994182D01*
X178666047Y-63941827D01*
X178648574Y-63901143D01*
X178636388Y-63880147D01*
X178631426Y-63877182D01*
X178601634Y-63867235D01*
X178551047Y-63854365D01*
X178485194Y-63839913D01*
X178409600Y-63825215D01*
X178386957Y-63821070D01*
X178305038Y-63805976D01*
X178228600Y-63791759D01*
X178165337Y-63779855D01*
X178122943Y-63771699D01*
X178046743Y-63756659D01*
X178046743Y-63439352D01*
X178046760Y-63400336D01*
X178047082Y-63305152D01*
X178048033Y-63234115D01*
X178049896Y-63183594D01*
X178052955Y-63149958D01*
X178057494Y-63129578D01*
X178063795Y-63118822D01*
X178072143Y-63114059D01*
X178080224Y-63112130D01*
X178113172Y-63105305D01*
X178165736Y-63094882D01*
X178232569Y-63081878D01*
X178308328Y-63067309D01*
X178387665Y-63052193D01*
X178465237Y-63037545D01*
X178535698Y-63024383D01*
X178593702Y-63013723D01*
X178633904Y-63006581D01*
X178650959Y-63003974D01*
X178652112Y-63002401D01*
X178661385Y-62981979D01*
X178677432Y-62942905D01*
X178697635Y-62891489D01*
X178725672Y-62822213D01*
X178760186Y-62742150D01*
X178792538Y-62671588D01*
X178799952Y-62655749D01*
X178820755Y-62606153D01*
X178833219Y-62567898D01*
X178834863Y-62548216D01*
X178834015Y-62546822D01*
X178820548Y-62526280D01*
X178793850Y-62486376D01*
X178756539Y-62431000D01*
X178711234Y-62364037D01*
X178660552Y-62289377D01*
X178603445Y-62204552D01*
X178560607Y-62138660D01*
X178531460Y-62090338D01*
X178514317Y-62056593D01*
X178507495Y-62034432D01*
X178509306Y-62020862D01*
X178509915Y-62019844D01*
X178526297Y-62000070D01*
X178559695Y-61964035D01*
X178606671Y-61915311D01*
X178663786Y-61857472D01*
X178727603Y-61794087D01*
X178793802Y-61729765D01*
X178858648Y-61669307D01*
X178906299Y-61628515D01*
X178937990Y-61606344D01*
X178954958Y-61601749D01*
X178957175Y-61602781D01*
X178980524Y-61616697D01*
X179022912Y-61643890D01*
X179080369Y-61681749D01*
X179148923Y-61727663D01*
X179224601Y-61779020D01*
X179471298Y-61947486D01*
X179582706Y-61896922D01*
X179585943Y-61895457D01*
X179654343Y-61865825D01*
X179726907Y-61836353D01*
X179788457Y-61813218D01*
X179788729Y-61813122D01*
X179837595Y-61795227D01*
X179875212Y-61780113D01*
X179893457Y-61771044D01*
X179893752Y-61770715D01*
X179899946Y-61752142D01*
X179910139Y-61709905D01*
X179923348Y-61648556D01*
X179938590Y-61572649D01*
X179954881Y-61486735D01*
X179955449Y-61483656D01*
X179971713Y-61395988D01*
X179986608Y-61316601D01*
X179999171Y-61250561D01*
X180008438Y-61202939D01*
X180013444Y-61178803D01*
X180013764Y-61177465D01*
X180017060Y-61167133D01*
X180023738Y-61159366D01*
X180037462Y-61153800D01*
X180061895Y-61150067D01*
X180100702Y-61147802D01*
X180157546Y-61146638D01*
X180236090Y-61146208D01*
X180340000Y-61146146D01*
X180353056Y-61146146D01*
X180453933Y-61146231D01*
G37*
X180453933Y-61146231D02*
X180529856Y-61146725D01*
X180584491Y-61147995D01*
X180621500Y-61150407D01*
X180644547Y-61154327D01*
X180657296Y-61160122D01*
X180663411Y-61168159D01*
X180666556Y-61178803D01*
X180666646Y-61179185D01*
X180671814Y-61204207D01*
X180681209Y-61252541D01*
X180693867Y-61319120D01*
X180708825Y-61398874D01*
X180725119Y-61486735D01*
X180726448Y-61493924D01*
X180742691Y-61579200D01*
X180757805Y-61654102D01*
X180770808Y-61714079D01*
X180780715Y-61754577D01*
X180786544Y-61771044D01*
X180786575Y-61771070D01*
X180804943Y-61780180D01*
X180842640Y-61795317D01*
X180891543Y-61813218D01*
X180894297Y-61814190D01*
X180956817Y-61837819D01*
X181029543Y-61867455D01*
X181097294Y-61896922D01*
X181208703Y-61947486D01*
X181455399Y-61779020D01*
X181472775Y-61767171D01*
X181547202Y-61716807D01*
X181613614Y-61672472D01*
X181668039Y-61636776D01*
X181706506Y-61612331D01*
X181725042Y-61601749D01*
X181737743Y-61604175D01*
X181766579Y-61622970D01*
X181811143Y-61660190D01*
X181872670Y-61716880D01*
X181952398Y-61794087D01*
X181959532Y-61801115D01*
X182022796Y-61864082D01*
X182078990Y-61921128D01*
X182124677Y-61968677D01*
X182156414Y-62003157D01*
X182170764Y-62020991D01*
X182170810Y-62021077D01*
X182172633Y-62034655D01*
X182165910Y-62056680D01*
X182148946Y-62090164D01*
X182120044Y-62138121D01*
X182077508Y-62203564D01*
X182019644Y-62289505D01*
X182009783Y-62304011D01*
X181959913Y-62377495D01*
X181915905Y-62442547D01*
X181880380Y-62495277D01*
X181855959Y-62531796D01*
X181845264Y-62548216D01*
X181844458Y-62551694D01*
X181849518Y-62577645D01*
X181864677Y-62620019D01*
X181887463Y-62671588D01*
X181918429Y-62739030D01*
X181953004Y-62819055D01*
X181982366Y-62891489D01*
X181989645Y-62910237D01*
X182008710Y-62958106D01*
X182022715Y-62991456D01*
X182029041Y-63003974D01*
X182036025Y-63004910D01*
X182067413Y-63010321D01*
X182118787Y-63019666D01*
X182184802Y-63031929D01*
X182260113Y-63046092D01*
X182339375Y-63061140D01*
X182417243Y-63076055D01*
X182488370Y-63089821D01*
X182547412Y-63101422D01*
X182589022Y-63109840D01*
X182607857Y-63114059D01*
X182610980Y-63115249D01*
X182618591Y-63121665D01*
X182624254Y-63135325D01*
X182628251Y-63159859D01*
X182630866Y-63198898D01*
X182632384Y-63256073D01*
X182633086Y-63335014D01*
X182633257Y-63439352D01*
X182633257Y-63756659D01*
X182557057Y-63771699D01*
X182547840Y-63773502D01*
X182498891Y-63782840D01*
X182431205Y-63795529D01*
X182352478Y-63810133D01*
X182270400Y-63825215D01*
X182238078Y-63831282D01*
X182165855Y-63846041D01*
X182105666Y-63859997D01*
X182063040Y-63871812D01*
X182043510Y-63880147D01*
X182034660Y-63893765D01*
X182018548Y-63929798D01*
X182002065Y-63976432D01*
X181996263Y-63993894D01*
X181974906Y-64051218D01*
X181947359Y-64119061D01*
X181918107Y-64186215D01*
X181902463Y-64221290D01*
X181880174Y-64273682D01*
X181864857Y-64312918D01*
X181859162Y-64332423D01*
X181859478Y-64333896D01*
X181870281Y-64354589D01*
X181894638Y-64394525D01*
X181930081Y-64449832D01*
X181974136Y-64516641D01*
X182024332Y-64591080D01*
X182189501Y-64833483D01*
X181972503Y-65050843D01*
X181951516Y-65071759D01*
X181887342Y-65134365D01*
X181829990Y-65188355D01*
X181782820Y-65230686D01*
X181749192Y-65258317D01*
X181732467Y-65268203D01*
X181714303Y-65260681D01*
X181676265Y-65239087D01*
X181622726Y-65206011D01*
X181557884Y-65164051D01*
X181485940Y-65115803D01*
X181415275Y-65068151D01*
X181351526Y-65026188D01*
X181299513Y-64993025D01*
X181263279Y-64971238D01*
X181246867Y-64963403D01*
X181245905Y-64963474D01*
X181224103Y-64971198D01*
X181185440Y-64989183D01*
X181137612Y-65013873D01*
X181137110Y-65014144D01*
X181073587Y-65045959D01*
X181030060Y-65061502D01*
X181003052Y-65061545D01*
X180989090Y-65046860D01*
X180983180Y-65032404D01*
X180967229Y-64993691D01*
X180942660Y-64934176D01*
X180910779Y-64857025D01*
X180872893Y-64765401D01*
X180830310Y-64662467D01*
X180784337Y-64551386D01*
X180742667Y-64450332D01*
X180700268Y-64346640D01*
X180662756Y-64253979D01*
X180631388Y-64175502D01*
X180607425Y-64114360D01*
X180592123Y-64073703D01*
X180586743Y-64056685D01*
X180597018Y-64041079D01*
X180625563Y-64015022D01*
X180665971Y-63984747D01*
X180762979Y-63905544D01*
X180849793Y-63804335D01*
X180913322Y-63692976D01*
X180953177Y-63574753D01*
X180968965Y-63452955D01*
X180960296Y-63330870D01*
X180926778Y-63211785D01*
X180868021Y-63098989D01*
X180783632Y-62995771D01*
X180739631Y-62955573D01*
X180634211Y-62884498D01*
X180521410Y-62838161D01*
X180404525Y-62815459D01*
X180286853Y-62815288D01*
X180171690Y-62836547D01*
X180062335Y-62878130D01*
X179962083Y-62938936D01*
X179874233Y-63017861D01*
X179802080Y-63113801D01*
X179748922Y-63225655D01*
X179718057Y-63352317D01*
X179712392Y-63413367D01*
X179720185Y-63545636D01*
X179755284Y-63671126D01*
X179816649Y-63787619D01*
X179903243Y-63892899D01*
X180014029Y-63984747D01*
X180052931Y-64013790D01*
X180082104Y-64040132D01*
X180093257Y-64056660D01*
X180088810Y-64071069D01*
X180074378Y-64109675D01*
X180051173Y-64169061D01*
X180020452Y-64246075D01*
X179983474Y-64337563D01*
X179941496Y-64440376D01*
X179895778Y-64551362D01*
X179854178Y-64651932D01*
X179811222Y-64755807D01*
X179772829Y-64848679D01*
X179740305Y-64927385D01*
X179714958Y-64988759D01*
X179698095Y-65029639D01*
X179691025Y-65046860D01*
X179690943Y-65047064D01*
X179676798Y-65061605D01*
X179649659Y-65061439D01*
X179606023Y-65045787D01*
X179542388Y-65013873D01*
X179537379Y-65011186D01*
X179490125Y-64987010D01*
X179452811Y-64969897D01*
X179433133Y-64963403D01*
X179417005Y-64971078D01*
X179380959Y-64992731D01*
X179329092Y-65025788D01*
X179265445Y-65067670D01*
X179194060Y-65115803D01*
X179123724Y-65162991D01*
X179058670Y-65205127D01*
X179004820Y-65238438D01*
X178966374Y-65260329D01*
X178947534Y-65268203D01*
X178944325Y-65267203D01*
X178921954Y-65251444D01*
X178883733Y-65218893D01*
X178833021Y-65172593D01*
X178773181Y-65115586D01*
X178707571Y-65050918D01*
X178490648Y-64833632D01*
X178659601Y-64585113D01*
X178828553Y-64336593D01*
X178777183Y-64225455D01*
X178777031Y-64225126D01*
X178746183Y-64154278D01*
X178714661Y-64075383D01*
X178689266Y-64005460D01*
X178685423Y-63994182D01*
X178666047Y-63941827D01*
X178648574Y-63901143D01*
X178636388Y-63880147D01*
X178631426Y-63877182D01*
X178601634Y-63867235D01*
X178551047Y-63854365D01*
X178485194Y-63839913D01*
X178409600Y-63825215D01*
X178386957Y-63821070D01*
X178305038Y-63805976D01*
X178228600Y-63791759D01*
X178165337Y-63779855D01*
X178122943Y-63771699D01*
X178046743Y-63756659D01*
X178046743Y-63439352D01*
X178046760Y-63400336D01*
X178047082Y-63305152D01*
X178048033Y-63234115D01*
X178049896Y-63183594D01*
X178052955Y-63149958D01*
X178057494Y-63129578D01*
X178063795Y-63118822D01*
X178072143Y-63114059D01*
X178080224Y-63112130D01*
X178113172Y-63105305D01*
X178165736Y-63094882D01*
X178232569Y-63081878D01*
X178308328Y-63067309D01*
X178387665Y-63052193D01*
X178465237Y-63037545D01*
X178535698Y-63024383D01*
X178593702Y-63013723D01*
X178633904Y-63006581D01*
X178650959Y-63003974D01*
X178652112Y-63002401D01*
X178661385Y-62981979D01*
X178677432Y-62942905D01*
X178697635Y-62891489D01*
X178725672Y-62822213D01*
X178760186Y-62742150D01*
X178792538Y-62671588D01*
X178799952Y-62655749D01*
X178820755Y-62606153D01*
X178833219Y-62567898D01*
X178834863Y-62548216D01*
X178834015Y-62546822D01*
X178820548Y-62526280D01*
X178793850Y-62486376D01*
X178756539Y-62431000D01*
X178711234Y-62364037D01*
X178660552Y-62289377D01*
X178603445Y-62204552D01*
X178560607Y-62138660D01*
X178531460Y-62090338D01*
X178514317Y-62056593D01*
X178507495Y-62034432D01*
X178509306Y-62020862D01*
X178509915Y-62019844D01*
X178526297Y-62000070D01*
X178559695Y-61964035D01*
X178606671Y-61915311D01*
X178663786Y-61857472D01*
X178727603Y-61794087D01*
X178793802Y-61729765D01*
X178858648Y-61669307D01*
X178906299Y-61628515D01*
X178937990Y-61606344D01*
X178954958Y-61601749D01*
X178957175Y-61602781D01*
X178980524Y-61616697D01*
X179022912Y-61643890D01*
X179080369Y-61681749D01*
X179148923Y-61727663D01*
X179224601Y-61779020D01*
X179471298Y-61947486D01*
X179582706Y-61896922D01*
X179585943Y-61895457D01*
X179654343Y-61865825D01*
X179726907Y-61836353D01*
X179788457Y-61813218D01*
X179788729Y-61813122D01*
X179837595Y-61795227D01*
X179875212Y-61780113D01*
X179893457Y-61771044D01*
X179893752Y-61770715D01*
X179899946Y-61752142D01*
X179910139Y-61709905D01*
X179923348Y-61648556D01*
X179938590Y-61572649D01*
X179954881Y-61486735D01*
X179955449Y-61483656D01*
X179971713Y-61395988D01*
X179986608Y-61316601D01*
X179999171Y-61250561D01*
X180008438Y-61202939D01*
X180013444Y-61178803D01*
X180013764Y-61177465D01*
X180017060Y-61167133D01*
X180023738Y-61159366D01*
X180037462Y-61153800D01*
X180061895Y-61150067D01*
X180100702Y-61147802D01*
X180157546Y-61146638D01*
X180236090Y-61146208D01*
X180340000Y-61146146D01*
X180353056Y-61146146D01*
X180453933Y-61146231D01*
G36*
X182497684Y-66207938D02*
G01*
X182495078Y-66231247D01*
X182475660Y-66314212D01*
X182440573Y-66377308D01*
X182387212Y-66425668D01*
X182384196Y-66427664D01*
X182316362Y-66456045D01*
X182245535Y-66458571D01*
X182177289Y-66436957D01*
X182117196Y-66392922D01*
X182070829Y-66328182D01*
X182070050Y-66326621D01*
X182054643Y-66286418D01*
X182043357Y-66240726D01*
X182037370Y-66197832D01*
X182037861Y-66166020D01*
X182046007Y-66153574D01*
X182053244Y-66154331D01*
X182087851Y-66168095D01*
X182127078Y-66193406D01*
X182160448Y-66222705D01*
X182177483Y-66248432D01*
X182195192Y-66283331D01*
X182231485Y-66315072D01*
X182273630Y-66327746D01*
X182289077Y-66324081D01*
X182319569Y-66305634D01*
X182346128Y-66280026D01*
X182357486Y-66256794D01*
X182357482Y-66256708D01*
X182344596Y-66246039D01*
X182310241Y-66226793D01*
X182259593Y-66201673D01*
X182197829Y-66173384D01*
X182197489Y-66173234D01*
X182130388Y-66143358D01*
X182085411Y-66121833D01*
X182058145Y-66105297D01*
X182044178Y-66090391D01*
X182039097Y-66073753D01*
X182038490Y-66052022D01*
X182042712Y-66010873D01*
X182186000Y-66010873D01*
X182200791Y-66023809D01*
X182237644Y-66043193D01*
X182238725Y-66043741D01*
X182282205Y-66064447D01*
X182321102Y-66080965D01*
X182345778Y-66087953D01*
X182355676Y-66078613D01*
X182357486Y-66046608D01*
X182349966Y-66006775D01*
X182323897Y-65970577D01*
X182286154Y-65951810D01*
X182244077Y-65953705D01*
X182205005Y-65979492D01*
X182189647Y-65997311D01*
X182186000Y-66010873D01*
X182042712Y-66010873D01*
X182043833Y-65999946D01*
X182070251Y-65929195D01*
X182114473Y-65873595D01*
X182171697Y-65835099D01*
X182237120Y-65815657D01*
X182305937Y-65817219D01*
X182373347Y-65841738D01*
X182434544Y-65891162D01*
X182468450Y-65940072D01*
X182492806Y-66009887D01*
X182496767Y-66046608D01*
X182502299Y-66097915D01*
X182497684Y-66207938D01*
G37*
X182497684Y-66207938D02*
X182495078Y-66231247D01*
X182475660Y-66314212D01*
X182440573Y-66377308D01*
X182387212Y-66425668D01*
X182384196Y-66427664D01*
X182316362Y-66456045D01*
X182245535Y-66458571D01*
X182177289Y-66436957D01*
X182117196Y-66392922D01*
X182070829Y-66328182D01*
X182070050Y-66326621D01*
X182054643Y-66286418D01*
X182043357Y-66240726D01*
X182037370Y-66197832D01*
X182037861Y-66166020D01*
X182046007Y-66153574D01*
X182053244Y-66154331D01*
X182087851Y-66168095D01*
X182127078Y-66193406D01*
X182160448Y-66222705D01*
X182177483Y-66248432D01*
X182195192Y-66283331D01*
X182231485Y-66315072D01*
X182273630Y-66327746D01*
X182289077Y-66324081D01*
X182319569Y-66305634D01*
X182346128Y-66280026D01*
X182357486Y-66256794D01*
X182357482Y-66256708D01*
X182344596Y-66246039D01*
X182310241Y-66226793D01*
X182259593Y-66201673D01*
X182197829Y-66173384D01*
X182197489Y-66173234D01*
X182130388Y-66143358D01*
X182085411Y-66121833D01*
X182058145Y-66105297D01*
X182044178Y-66090391D01*
X182039097Y-66073753D01*
X182038490Y-66052022D01*
X182042712Y-66010873D01*
X182186000Y-66010873D01*
X182200791Y-66023809D01*
X182237644Y-66043193D01*
X182238725Y-66043741D01*
X182282205Y-66064447D01*
X182321102Y-66080965D01*
X182345778Y-66087953D01*
X182355676Y-66078613D01*
X182357486Y-66046608D01*
X182349966Y-66006775D01*
X182323897Y-65970577D01*
X182286154Y-65951810D01*
X182244077Y-65953705D01*
X182205005Y-65979492D01*
X182189647Y-65997311D01*
X182186000Y-66010873D01*
X182042712Y-66010873D01*
X182043833Y-65999946D01*
X182070251Y-65929195D01*
X182114473Y-65873595D01*
X182171697Y-65835099D01*
X182237120Y-65815657D01*
X182305937Y-65817219D01*
X182373347Y-65841738D01*
X182434544Y-65891162D01*
X182468450Y-65940072D01*
X182492806Y-66009887D01*
X182496767Y-66046608D01*
X182502299Y-66097915D01*
X182497684Y-66207938D01*
G36*
X179947691Y-65870327D02*
G01*
X179952273Y-65872863D01*
X179989704Y-65901917D01*
X180023170Y-65939270D01*
X180029007Y-65947712D01*
X180040165Y-65967413D01*
X180048136Y-65990795D01*
X180053618Y-66022927D01*
X180057307Y-66068879D01*
X180059899Y-66133719D01*
X180062092Y-66222517D01*
X180062402Y-66237529D01*
X180063400Y-66334859D01*
X180061994Y-66403794D01*
X180058164Y-66444808D01*
X180051889Y-66458374D01*
X180032898Y-66454312D01*
X180000638Y-66442004D01*
X179993041Y-66438405D01*
X179981176Y-66430258D01*
X179972994Y-66416864D01*
X179967643Y-66393468D01*
X179964269Y-66355315D01*
X179962019Y-66297650D01*
X179960040Y-66215717D01*
X179959498Y-66191767D01*
X179957403Y-66116126D01*
X179954683Y-66063188D01*
X179950515Y-66027935D01*
X179944079Y-66005347D01*
X179934550Y-65990404D01*
X179921106Y-65978087D01*
X179881305Y-65956494D01*
X179832341Y-65952336D01*
X179788529Y-65968859D01*
X179757008Y-66003070D01*
X179744914Y-66051974D01*
X179744578Y-66065267D01*
X179737972Y-66089332D01*
X179718470Y-66093004D01*
X179680283Y-66078673D01*
X179671438Y-66074077D01*
X179647534Y-66047046D01*
X179647061Y-66006854D01*
X179669836Y-65951269D01*
X179690727Y-65920977D01*
X179744142Y-65877944D01*
X179810074Y-65853615D01*
X179880574Y-65850303D01*
X179947691Y-65870327D01*
G37*
X179947691Y-65870327D02*
X179952273Y-65872863D01*
X179989704Y-65901917D01*
X180023170Y-65939270D01*
X180029007Y-65947712D01*
X180040165Y-65967413D01*
X180048136Y-65990795D01*
X180053618Y-66022927D01*
X180057307Y-66068879D01*
X180059899Y-66133719D01*
X180062092Y-66222517D01*
X180062402Y-66237529D01*
X180063400Y-66334859D01*
X180061994Y-66403794D01*
X180058164Y-66444808D01*
X180051889Y-66458374D01*
X180032898Y-66454312D01*
X180000638Y-66442004D01*
X179993041Y-66438405D01*
X179981176Y-66430258D01*
X179972994Y-66416864D01*
X179967643Y-66393468D01*
X179964269Y-66355315D01*
X179962019Y-66297650D01*
X179960040Y-66215717D01*
X179959498Y-66191767D01*
X179957403Y-66116126D01*
X179954683Y-66063188D01*
X179950515Y-66027935D01*
X179944079Y-66005347D01*
X179934550Y-65990404D01*
X179921106Y-65978087D01*
X179881305Y-65956494D01*
X179832341Y-65952336D01*
X179788529Y-65968859D01*
X179757008Y-66003070D01*
X179744914Y-66051974D01*
X179744578Y-66065267D01*
X179737972Y-66089332D01*
X179718470Y-66093004D01*
X179680283Y-66078673D01*
X179671438Y-66074077D01*
X179647534Y-66047046D01*
X179647061Y-66006854D01*
X179669836Y-65951269D01*
X179690727Y-65920977D01*
X179744142Y-65877944D01*
X179810074Y-65853615D01*
X179880574Y-65850303D01*
X179947691Y-65870327D01*
G36*
X178993941Y-65853142D02*
G01*
X179025774Y-65865618D01*
X179062743Y-65882462D01*
X179062743Y-66369056D01*
X179016812Y-66414987D01*
X179006320Y-66425287D01*
X178977255Y-66448180D01*
X178947943Y-66455595D01*
X178904326Y-66452181D01*
X178886568Y-66449974D01*
X178840767Y-66445305D01*
X178808743Y-66443445D01*
X178799244Y-66443729D01*
X178760274Y-66446808D01*
X178713160Y-66452181D01*
X178698085Y-66454028D01*
X178660110Y-66454753D01*
X178632325Y-66443289D01*
X178600674Y-66414987D01*
X178554743Y-66369056D01*
X178554743Y-66108915D01*
X178555101Y-66032040D01*
X178556216Y-65958746D01*
X178557952Y-65900710D01*
X178560167Y-65862523D01*
X178562721Y-65848774D01*
X178563256Y-65848811D01*
X178581808Y-65855653D01*
X178613153Y-65870728D01*
X178655608Y-65892682D01*
X178659604Y-66121100D01*
X178663600Y-66349517D01*
X178750686Y-66349517D01*
X178754657Y-66099146D01*
X178755916Y-66031087D01*
X178757718Y-65958342D01*
X178759671Y-65900590D01*
X178761612Y-65862508D01*
X178763377Y-65848774D01*
X178763885Y-65848822D01*
X178781482Y-65853875D01*
X178813834Y-65864709D01*
X178859543Y-65880643D01*
X178859765Y-66100566D01*
X178859988Y-66138769D01*
X178861531Y-66213006D01*
X178864292Y-66275005D01*
X178867977Y-66319168D01*
X178872292Y-66339901D01*
X178887732Y-66350991D01*
X178919241Y-66354416D01*
X178953886Y-66349517D01*
X178957857Y-66099146D01*
X178959278Y-66035523D01*
X178962225Y-65960216D01*
X178966079Y-65901146D01*
X178970542Y-65862578D01*
X178975317Y-65848774D01*
X178993941Y-65853142D01*
G37*
X178993941Y-65853142D02*
X179025774Y-65865618D01*
X179062743Y-65882462D01*
X179062743Y-66369056D01*
X179016812Y-66414987D01*
X179006320Y-66425287D01*
X178977255Y-66448180D01*
X178947943Y-66455595D01*
X178904326Y-66452181D01*
X178886568Y-66449974D01*
X178840767Y-66445305D01*
X178808743Y-66443445D01*
X178799244Y-66443729D01*
X178760274Y-66446808D01*
X178713160Y-66452181D01*
X178698085Y-66454028D01*
X178660110Y-66454753D01*
X178632325Y-66443289D01*
X178600674Y-66414987D01*
X178554743Y-66369056D01*
X178554743Y-66108915D01*
X178555101Y-66032040D01*
X178556216Y-65958746D01*
X178557952Y-65900710D01*
X178560167Y-65862523D01*
X178562721Y-65848774D01*
X178563256Y-65848811D01*
X178581808Y-65855653D01*
X178613153Y-65870728D01*
X178655608Y-65892682D01*
X178659604Y-66121100D01*
X178663600Y-66349517D01*
X178750686Y-66349517D01*
X178754657Y-66099146D01*
X178755916Y-66031087D01*
X178757718Y-65958342D01*
X178759671Y-65900590D01*
X178761612Y-65862508D01*
X178763377Y-65848774D01*
X178763885Y-65848822D01*
X178781482Y-65853875D01*
X178813834Y-65864709D01*
X178859543Y-65880643D01*
X178859765Y-66100566D01*
X178859988Y-66138769D01*
X178861531Y-66213006D01*
X178864292Y-66275005D01*
X178867977Y-66319168D01*
X178872292Y-66339901D01*
X178887732Y-66350991D01*
X178919241Y-66354416D01*
X178953886Y-66349517D01*
X178957857Y-66099146D01*
X178959278Y-66035523D01*
X178962225Y-65960216D01*
X178966079Y-65901146D01*
X178970542Y-65862578D01*
X178975317Y-65848774D01*
X178993941Y-65853142D01*
G36*
X177480307Y-66195165D02*
G01*
X177476762Y-66271381D01*
X177467483Y-66327154D01*
X177450375Y-66368473D01*
X177423344Y-66401327D01*
X177384292Y-66431706D01*
X177359445Y-66445520D01*
X177319615Y-66454825D01*
X177263665Y-66454090D01*
X177232385Y-66451143D01*
X177194653Y-66442143D01*
X177164494Y-66422580D01*
X177129408Y-66386127D01*
X177124720Y-66380803D01*
X177093177Y-66339829D01*
X177078128Y-66304143D01*
X177074286Y-66261826D01*
X177074286Y-66199639D01*
X177117742Y-66216042D01*
X177149424Y-66235216D01*
X177176962Y-66280207D01*
X177182711Y-66294612D01*
X177214855Y-66335406D01*
X177258611Y-66355941D01*
X177306254Y-66354095D01*
X177350057Y-66327746D01*
X177365111Y-66311315D01*
X177378763Y-66286527D01*
X177374493Y-66264004D01*
X177349916Y-66240824D01*
X177302651Y-66214062D01*
X177230314Y-66180794D01*
X177081543Y-66115676D01*
X177077595Y-66051168D01*
X177079079Y-66010080D01*
X177176010Y-66010080D01*
X177183368Y-66035517D01*
X177216848Y-66062674D01*
X177277614Y-66093574D01*
X177287669Y-66098050D01*
X177335751Y-66118877D01*
X177371726Y-66133525D01*
X177388444Y-66139060D01*
X177390977Y-66134986D01*
X177391993Y-66110107D01*
X177388369Y-66070117D01*
X177379242Y-66031012D01*
X177350773Y-65981744D01*
X177309678Y-65953982D01*
X177260590Y-65950224D01*
X177208144Y-65972969D01*
X177193609Y-65984341D01*
X177176010Y-66010080D01*
X177079079Y-66010080D01*
X177079338Y-66002924D01*
X177101281Y-65941956D01*
X177128979Y-65908357D01*
X177186405Y-65870826D01*
X177254527Y-65851866D01*
X177324947Y-65853367D01*
X177389267Y-65877215D01*
X177403426Y-65886373D01*
X177435904Y-65914709D01*
X177458116Y-65950555D01*
X177471804Y-65999244D01*
X177478715Y-66066109D01*
X177479628Y-66110107D01*
X177480590Y-66156482D01*
X177480307Y-66195165D01*
G37*
X177480307Y-66195165D02*
X177476762Y-66271381D01*
X177467483Y-66327154D01*
X177450375Y-66368473D01*
X177423344Y-66401327D01*
X177384292Y-66431706D01*
X177359445Y-66445520D01*
X177319615Y-66454825D01*
X177263665Y-66454090D01*
X177232385Y-66451143D01*
X177194653Y-66442143D01*
X177164494Y-66422580D01*
X177129408Y-66386127D01*
X177124720Y-66380803D01*
X177093177Y-66339829D01*
X177078128Y-66304143D01*
X177074286Y-66261826D01*
X177074286Y-66199639D01*
X177117742Y-66216042D01*
X177149424Y-66235216D01*
X177176962Y-66280207D01*
X177182711Y-66294612D01*
X177214855Y-66335406D01*
X177258611Y-66355941D01*
X177306254Y-66354095D01*
X177350057Y-66327746D01*
X177365111Y-66311315D01*
X177378763Y-66286527D01*
X177374493Y-66264004D01*
X177349916Y-66240824D01*
X177302651Y-66214062D01*
X177230314Y-66180794D01*
X177081543Y-66115676D01*
X177077595Y-66051168D01*
X177079079Y-66010080D01*
X177176010Y-66010080D01*
X177183368Y-66035517D01*
X177216848Y-66062674D01*
X177277614Y-66093574D01*
X177287669Y-66098050D01*
X177335751Y-66118877D01*
X177371726Y-66133525D01*
X177388444Y-66139060D01*
X177390977Y-66134986D01*
X177391993Y-66110107D01*
X177388369Y-66070117D01*
X177379242Y-66031012D01*
X177350773Y-65981744D01*
X177309678Y-65953982D01*
X177260590Y-65950224D01*
X177208144Y-65972969D01*
X177193609Y-65984341D01*
X177176010Y-66010080D01*
X177079079Y-66010080D01*
X177079338Y-66002924D01*
X177101281Y-65941956D01*
X177128979Y-65908357D01*
X177186405Y-65870826D01*
X177254527Y-65851866D01*
X177324947Y-65853367D01*
X177389267Y-65877215D01*
X177403426Y-65886373D01*
X177435904Y-65914709D01*
X177458116Y-65950555D01*
X177471804Y-65999244D01*
X177478715Y-66066109D01*
X177479628Y-66110107D01*
X177480590Y-66156482D01*
X177480307Y-66195165D01*
G36*
X178307495Y-65850080D02*
G01*
X178338599Y-65857981D01*
X178367559Y-65877677D01*
X178404831Y-65914344D01*
X178428801Y-65940238D01*
X178453770Y-65973857D01*
X178465031Y-66005366D01*
X178467657Y-66045345D01*
X178467657Y-66110777D01*
X178423035Y-66087702D01*
X178387673Y-66059584D01*
X178363451Y-66021708D01*
X178359291Y-66011411D01*
X178327594Y-65971497D01*
X178283554Y-65951484D01*
X178235531Y-65953432D01*
X178191886Y-65979403D01*
X178173420Y-66000495D01*
X178162663Y-66027479D01*
X178174178Y-66051494D01*
X178209981Y-66075651D01*
X178272090Y-66103059D01*
X178281515Y-66106845D01*
X178338058Y-66131619D01*
X178386580Y-66156049D01*
X178417451Y-66175346D01*
X178448371Y-66209813D01*
X178468927Y-66264817D01*
X178466744Y-66323843D01*
X178442424Y-66379705D01*
X178396568Y-66425215D01*
X178359438Y-66444587D01*
X178287711Y-66458152D01*
X178247852Y-66456322D01*
X178210953Y-66446428D01*
X178196797Y-66425666D01*
X178202091Y-66391473D01*
X178203631Y-66386952D01*
X178215842Y-66362976D01*
X178236174Y-66353902D01*
X178274908Y-66354509D01*
X178302257Y-66355334D01*
X178334257Y-66348252D01*
X178356182Y-66327079D01*
X178368670Y-66301012D01*
X178370062Y-66273705D01*
X178369998Y-66273545D01*
X178353807Y-66258790D01*
X178319155Y-66237317D01*
X178274321Y-66213318D01*
X178227582Y-66190985D01*
X178187217Y-66174512D01*
X178161504Y-66168089D01*
X178157679Y-66174378D01*
X178152864Y-66203975D01*
X178149566Y-66252307D01*
X178148343Y-66313232D01*
X178148058Y-66355402D01*
X178146718Y-66408513D01*
X178144528Y-66444885D01*
X178141769Y-66458374D01*
X178127344Y-66453841D01*
X178098226Y-66441530D01*
X178061257Y-66424686D01*
X178061257Y-66208581D01*
X178061493Y-66153187D01*
X178063729Y-66069067D01*
X178069423Y-66006660D01*
X178079903Y-65961218D01*
X178096497Y-65927993D01*
X178120531Y-65902238D01*
X178153333Y-65879204D01*
X178195124Y-65860195D01*
X178272287Y-65848774D01*
X178307495Y-65850080D01*
G37*
X178307495Y-65850080D02*
X178338599Y-65857981D01*
X178367559Y-65877677D01*
X178404831Y-65914344D01*
X178428801Y-65940238D01*
X178453770Y-65973857D01*
X178465031Y-66005366D01*
X178467657Y-66045345D01*
X178467657Y-66110777D01*
X178423035Y-66087702D01*
X178387673Y-66059584D01*
X178363451Y-66021708D01*
X178359291Y-66011411D01*
X178327594Y-65971497D01*
X178283554Y-65951484D01*
X178235531Y-65953432D01*
X178191886Y-65979403D01*
X178173420Y-66000495D01*
X178162663Y-66027479D01*
X178174178Y-66051494D01*
X178209981Y-66075651D01*
X178272090Y-66103059D01*
X178281515Y-66106845D01*
X178338058Y-66131619D01*
X178386580Y-66156049D01*
X178417451Y-66175346D01*
X178448371Y-66209813D01*
X178468927Y-66264817D01*
X178466744Y-66323843D01*
X178442424Y-66379705D01*
X178396568Y-66425215D01*
X178359438Y-66444587D01*
X178287711Y-66458152D01*
X178247852Y-66456322D01*
X178210953Y-66446428D01*
X178196797Y-66425666D01*
X178202091Y-66391473D01*
X178203631Y-66386952D01*
X178215842Y-66362976D01*
X178236174Y-66353902D01*
X178274908Y-66354509D01*
X178302257Y-66355334D01*
X178334257Y-66348252D01*
X178356182Y-66327079D01*
X178368670Y-66301012D01*
X178370062Y-66273705D01*
X178369998Y-66273545D01*
X178353807Y-66258790D01*
X178319155Y-66237317D01*
X178274321Y-66213318D01*
X178227582Y-66190985D01*
X178187217Y-66174512D01*
X178161504Y-66168089D01*
X178157679Y-66174378D01*
X178152864Y-66203975D01*
X178149566Y-66252307D01*
X178148343Y-66313232D01*
X178148058Y-66355402D01*
X178146718Y-66408513D01*
X178144528Y-66444885D01*
X178141769Y-66458374D01*
X178127344Y-66453841D01*
X178098226Y-66441530D01*
X178061257Y-66424686D01*
X178061257Y-66208581D01*
X178061493Y-66153187D01*
X178063729Y-66069067D01*
X178069423Y-66006660D01*
X178079903Y-65961218D01*
X178096497Y-65927993D01*
X178120531Y-65902238D01*
X178153333Y-65879204D01*
X178195124Y-65860195D01*
X178272287Y-65848774D01*
X178307495Y-65850080D01*
G36*
X180429483Y-65864429D02*
G01*
X180479376Y-65893521D01*
X180501325Y-65916187D01*
X180543504Y-65983942D01*
X180557714Y-66057810D01*
X180557714Y-66108630D01*
X180510999Y-66088988D01*
X180478692Y-66069168D01*
X180453231Y-66028020D01*
X180450616Y-66019535D01*
X180422478Y-65976311D01*
X180380067Y-65952963D01*
X180331370Y-65951960D01*
X180284373Y-65975774D01*
X180277357Y-65981916D01*
X180253893Y-66008605D01*
X180250019Y-66031874D01*
X180267768Y-66054722D01*
X180309179Y-66080147D01*
X180376286Y-66111148D01*
X180380824Y-66113112D01*
X180455322Y-66147850D01*
X180506203Y-66178623D01*
X180537525Y-66209348D01*
X180553343Y-66243942D01*
X180557714Y-66286322D01*
X180551986Y-66333306D01*
X180523062Y-66393445D01*
X180472178Y-66436648D01*
X180435374Y-66449619D01*
X180383434Y-66456716D01*
X180332999Y-66455200D01*
X180296983Y-66444492D01*
X180293158Y-66441826D01*
X180282998Y-66423197D01*
X180290048Y-66390365D01*
X180302297Y-66364595D01*
X180321939Y-66353866D01*
X180359191Y-66354399D01*
X180410908Y-66351322D01*
X180444701Y-66330072D01*
X180456114Y-66290737D01*
X180456104Y-66289607D01*
X180449187Y-66266773D01*
X180425659Y-66245823D01*
X180379914Y-66221675D01*
X180317704Y-66192601D01*
X180276499Y-66176785D01*
X180252712Y-66177804D01*
X180241597Y-66198697D01*
X180238408Y-66242501D01*
X180238400Y-66312253D01*
X180238044Y-66355312D01*
X180236413Y-66408486D01*
X180233761Y-66444882D01*
X180230422Y-66458374D01*
X180229530Y-66458283D01*
X180210237Y-66450970D01*
X180178284Y-66435538D01*
X180134124Y-66412702D01*
X180139371Y-66206938D01*
X180139736Y-66193292D01*
X180143904Y-66097511D01*
X180151268Y-66025322D01*
X180163330Y-65971918D01*
X180181593Y-65932493D01*
X180207560Y-65902240D01*
X180242733Y-65876353D01*
X180243384Y-65875947D01*
X180300256Y-65854828D01*
X180366033Y-65851260D01*
X180429483Y-65864429D01*
G37*
X180429483Y-65864429D02*
X180479376Y-65893521D01*
X180501325Y-65916187D01*
X180543504Y-65983942D01*
X180557714Y-66057810D01*
X180557714Y-66108630D01*
X180510999Y-66088988D01*
X180478692Y-66069168D01*
X180453231Y-66028020D01*
X180450616Y-66019535D01*
X180422478Y-65976311D01*
X180380067Y-65952963D01*
X180331370Y-65951960D01*
X180284373Y-65975774D01*
X180277357Y-65981916D01*
X180253893Y-66008605D01*
X180250019Y-66031874D01*
X180267768Y-66054722D01*
X180309179Y-66080147D01*
X180376286Y-66111148D01*
X180380824Y-66113112D01*
X180455322Y-66147850D01*
X180506203Y-66178623D01*
X180537525Y-66209348D01*
X180553343Y-66243942D01*
X180557714Y-66286322D01*
X180551986Y-66333306D01*
X180523062Y-66393445D01*
X180472178Y-66436648D01*
X180435374Y-66449619D01*
X180383434Y-66456716D01*
X180332999Y-66455200D01*
X180296983Y-66444492D01*
X180293158Y-66441826D01*
X180282998Y-66423197D01*
X180290048Y-66390365D01*
X180302297Y-66364595D01*
X180321939Y-66353866D01*
X180359191Y-66354399D01*
X180410908Y-66351322D01*
X180444701Y-66330072D01*
X180456114Y-66290737D01*
X180456104Y-66289607D01*
X180449187Y-66266773D01*
X180425659Y-66245823D01*
X180379914Y-66221675D01*
X180317704Y-66192601D01*
X180276499Y-66176785D01*
X180252712Y-66177804D01*
X180241597Y-66198697D01*
X180238408Y-66242501D01*
X180238400Y-66312253D01*
X180238044Y-66355312D01*
X180236413Y-66408486D01*
X180233761Y-66444882D01*
X180230422Y-66458374D01*
X180229530Y-66458283D01*
X180210237Y-66450970D01*
X180178284Y-66435538D01*
X180134124Y-66412702D01*
X180139371Y-66206938D01*
X180139736Y-66193292D01*
X180143904Y-66097511D01*
X180151268Y-66025322D01*
X180163330Y-65971918D01*
X180181593Y-65932493D01*
X180207560Y-65902240D01*
X180242733Y-65876353D01*
X180243384Y-65875947D01*
X180300256Y-65854828D01*
X180366033Y-65851260D01*
X180429483Y-65864429D01*
D13*
%TO.C,R2*%
X131930000Y-58803212D02*
X128880000Y-58803212D01*
X131930000Y-63103212D02*
X128880000Y-63103212D01*
X131930000Y-63103211D02*
G75*
G03*
X131908234Y-58787687I-1550000J2149999D01*
G01*
X128880000Y-58803212D02*
G75*
G03*
X128835487Y-63071461I1500000J-2150000D01*
G01*
D11*
%TO.C,CC-SA*%
X156968812Y-65477136D02*
X156728991Y-65377799D01*
X156968812Y-62330584D02*
X157221220Y-62269986D01*
X158649724Y-62734136D02*
X158818308Y-62931522D01*
X156728991Y-65377799D02*
X156507662Y-65242168D01*
X158452338Y-65242168D02*
X158231009Y-65377799D01*
X156507662Y-65242168D02*
X156310276Y-65073584D01*
X156310276Y-65073584D02*
X156141692Y-64876198D01*
X157738780Y-65537734D02*
X157480000Y-65558100D01*
X155846126Y-63645080D02*
X155906724Y-63392672D01*
X157991188Y-62330584D02*
X158231009Y-62429921D01*
X156507662Y-62565552D02*
X156728991Y-62429921D01*
X156728991Y-62429921D02*
X156968812Y-62330584D01*
X155906724Y-63392672D02*
X156006061Y-63152851D01*
X156310276Y-62734136D02*
X156507662Y-62565552D01*
X156006061Y-64654869D02*
X155906724Y-64415048D01*
X157991188Y-65477136D02*
X157738780Y-65537734D01*
X158231009Y-62429921D02*
X158452338Y-62565552D01*
X157221220Y-65537734D02*
X156968812Y-65477136D01*
X158953939Y-64654869D02*
X158818308Y-64876198D01*
X155846126Y-64162640D02*
X155825760Y-63903860D01*
X156141692Y-62931522D02*
X156310276Y-62734136D01*
X157480000Y-65558100D02*
X157221220Y-65537734D01*
X158231009Y-65377799D02*
X157991188Y-65477136D01*
X156006061Y-63152851D02*
X156141692Y-62931522D01*
X158649724Y-65073584D02*
X158452338Y-65242168D01*
X158818308Y-64876198D02*
X158649724Y-65073584D01*
X158452338Y-62565552D02*
X158649724Y-62734136D01*
X157738780Y-62269986D02*
X157991188Y-62330584D01*
X157480000Y-62249620D02*
X157738780Y-62269986D01*
X155906724Y-64415048D02*
X155846126Y-64162640D01*
X156141692Y-64876198D02*
X156006061Y-64654869D01*
X155825760Y-63903860D02*
X155846126Y-63645080D01*
X157221220Y-62269986D02*
X157480000Y-62249620D01*
X160020000Y-63903860D02*
G75*
G03*
X160020000Y-63903860I-2540000J0D01*
G01*
G36*
X158938241Y-63163523D02*
G01*
X158501896Y-63011545D01*
X158818308Y-62931522D01*
X159168194Y-62804571D01*
X158938241Y-63163523D01*
G37*
D15*
X158938241Y-63163523D02*
X158501896Y-63011545D01*
X158818308Y-62931522D01*
X159168194Y-62804571D01*
X158938241Y-63163523D01*
D13*
%TO.C,BT1*%
X108264214Y-73160000D02*
X108264214Y-74440000D01*
X108264214Y-74440000D02*
X105374214Y-74440000D01*
X106664214Y-73160000D02*
X108264214Y-73160000D01*
X114484214Y-73860000D02*
X114484214Y-78540000D01*
X110914214Y-80260000D02*
X106664214Y-80260000D01*
X106664214Y-80260000D02*
X106664214Y-79240000D01*
X106664214Y-79240000D02*
X108264214Y-79240000D01*
X106664214Y-72140000D02*
X106664214Y-73160000D01*
X110914214Y-72140000D02*
X106664214Y-72140000D01*
X108264214Y-79240000D02*
X108264214Y-77960000D01*
%TO.C,C2*%
X117551252Y-62940000D02*
X116128748Y-62940000D01*
X117551252Y-64760000D02*
X116128748Y-64760000D01*
%TO.C,SW1*%
X101480000Y-75690000D02*
X97660000Y-75690000D01*
X101480000Y-66470000D02*
X101480000Y-75690000D01*
X101480000Y-66470000D02*
X97660000Y-66470000D01*
X97660000Y-75690000D02*
X97660000Y-66470000D01*
%TO.C,R6*%
X196967064Y-80060000D02*
X193912936Y-80060000D01*
X196967064Y-77340000D02*
X193912936Y-77340000D01*
D11*
%TO.C,CC*%
X175260000Y-63903860D02*
G75*
G03*
X175260000Y-63903860I-2540000J0D01*
G01*
D13*
%TO.C,R4*%
X193912936Y-87540000D02*
X196967064Y-87540000D01*
X193912936Y-90260000D02*
X196967064Y-90260000D01*
%TO.C,Q1*%
X111760000Y-93000000D02*
X112410000Y-93000000D01*
X111760000Y-93000000D02*
X110085000Y-93000000D01*
X111760000Y-89880000D02*
X111110000Y-89880000D01*
X111760000Y-89880000D02*
X112410000Y-89880000D01*
%TO.C,SW3*%
X125090000Y-86830000D02*
X128910000Y-86830000D01*
X128910000Y-86830000D02*
X128910000Y-96050000D01*
X125090000Y-96050000D02*
X125090000Y-86830000D01*
X125090000Y-96050000D02*
X128910000Y-96050000D01*
D16*
%TO.C,CC-BY*%
X165100000Y-64203580D02*
X165100000Y-65504060D01*
X165399720Y-65704720D02*
X164899340Y-65704720D01*
X165900100Y-63804800D02*
X164599620Y-63804800D01*
X165000940Y-65704720D02*
X164800280Y-65704720D01*
X164800280Y-65704720D02*
X164800280Y-64104520D01*
X165900100Y-62903100D02*
X164398960Y-62903100D01*
X165100000Y-62003940D02*
X165100000Y-62402720D01*
X164398960Y-62903100D02*
X164398960Y-64104520D01*
X165801040Y-63202820D02*
X164500560Y-63202820D01*
X165900100Y-64104520D02*
X165900100Y-62903100D01*
X165399720Y-64203580D02*
X165399720Y-65704720D01*
X164398960Y-64104520D02*
X165900100Y-64104520D01*
X164599620Y-63505080D02*
X165801040Y-63505080D01*
D11*
X167640000Y-63903860D02*
G75*
G03*
X167640000Y-63903860I-2540000J0D01*
G01*
D16*
X165415666Y-62204600D02*
G75*
G03*
X165415666Y-62204600I-315666J0D01*
G01*
D13*
%TO.C,U3*%
X99015000Y-91480000D02*
X109256000Y-91480000D01*
X99015000Y-91480000D02*
X99015000Y-81240000D01*
X109256000Y-91480000D02*
X109256000Y-81240000D01*
X99015000Y-81240000D02*
X109256000Y-81240000D01*
%TO.C,C5*%
X187435557Y-78832363D02*
X186013053Y-78832363D01*
X187435557Y-80652363D02*
X186013053Y-80652363D01*
%TO.C,SW2*%
X125910000Y-65180000D02*
X123010000Y-65180000D01*
X125910000Y-65180000D02*
X126400000Y-64690000D01*
X127180000Y-63500000D02*
X127180000Y-61420000D01*
X121740000Y-63500000D02*
X121740000Y-61420000D01*
X125910000Y-59740000D02*
X123010000Y-59740000D01*
X123010000Y-59740000D02*
X122520000Y-60230000D01*
X123010000Y-65180000D02*
X122520000Y-64690000D01*
X125910000Y-59740000D02*
X126400000Y-60230000D01*
%TO.C,U4*%
X91270000Y-87870000D02*
X89070000Y-87870000D01*
X91270000Y-82650000D02*
X94870000Y-82650000D01*
X91270000Y-82650000D02*
X89070000Y-82650000D01*
X91270000Y-87870000D02*
X93470000Y-87870000D01*
%TO.C,C42*%
X87100000Y-82453752D02*
X87100000Y-81031248D01*
X85280000Y-82453752D02*
X85280000Y-81031248D01*
D17*
%TO.C,U1*%
X65349850Y-87461660D02*
X62680310Y-87461660D01*
D18*
X64628490Y-88536080D02*
X64628490Y-79536860D01*
D17*
X65349850Y-78825660D02*
X65349850Y-80603660D01*
X65349850Y-80603660D02*
X62680310Y-80603660D01*
X61283310Y-78825660D02*
X58616310Y-78825660D01*
X65349850Y-78825660D02*
X62680310Y-78825660D01*
X61918310Y-81492660D02*
X59378310Y-81492660D01*
X61283310Y-89239660D02*
X58616310Y-89239660D01*
D18*
X79698310Y-75142660D02*
X79698310Y-92940440D01*
X58700130Y-75813220D02*
X59370690Y-75142660D01*
D17*
X61918310Y-81492660D02*
X61918310Y-86572660D01*
X58616310Y-78825660D02*
X58616310Y-80603660D01*
X58616310Y-87461660D02*
X58616310Y-89239660D01*
D18*
X58700130Y-92940440D02*
X58700130Y-75813220D01*
D17*
X65349850Y-87461660D02*
X65349850Y-89239660D01*
X61283310Y-78825660D02*
X61283310Y-80603660D01*
X61283310Y-80603660D02*
X58616310Y-80603660D01*
D18*
X57275190Y-79541940D02*
X57275190Y-88536080D01*
D17*
X62680310Y-87461660D02*
X62680310Y-89239660D01*
X59378310Y-81492660D02*
X59378310Y-86572660D01*
D18*
X57275190Y-88536080D02*
X64628490Y-88536080D01*
X79698310Y-92940440D02*
X58700130Y-92940440D01*
D17*
X61918310Y-86572660D02*
X59378310Y-86572660D01*
X62680310Y-78825660D02*
X62680310Y-80603660D01*
D18*
X59370690Y-75142660D02*
X79698310Y-75142660D01*
D17*
X61283310Y-87461660D02*
X61283310Y-89239660D01*
X61283310Y-87461660D02*
X58616310Y-87461660D01*
D18*
X64628490Y-79536860D02*
X57275190Y-79536860D01*
D17*
X65349850Y-89239660D02*
X62680310Y-89239660D01*
D19*
X61664310Y-74253660D02*
G75*
G03*
X61664310Y-74253660I-127000J0D01*
G01*
D13*
%TO.C,R1*%
X133440000Y-71634128D02*
X133440000Y-68580000D01*
X130720000Y-71634128D02*
X130720000Y-68580000D01*
%TO.C,R5*%
X193912936Y-85180000D02*
X196967064Y-85180000D01*
X193912936Y-82460000D02*
X196967064Y-82460000D01*
%TO.C,R7*%
X196967064Y-75020000D02*
X193912936Y-75020000D01*
X196967064Y-72300000D02*
X193912936Y-72300000D01*
%TD*%
%LPC*%
D20*
%TO.C,J1*%
X104140000Y-63500000D03*
X104140000Y-60960000D03*
X106680000Y-63500000D03*
X106680000Y-60960000D03*
X109220000Y-63500000D03*
D21*
X109220000Y-60960000D03*
%TD*%
%TO.C,J1*%
X213360000Y-60960000D03*
D20*
X213360000Y-63500000D03*
X210820000Y-60960000D03*
X210820000Y-63500000D03*
X208280000Y-60960000D03*
X208280000Y-63500000D03*
%TD*%
D22*
%TO.C,U2*%
X56359194Y-63191546D03*
X121111850Y-68856670D03*
X53570211Y-95069777D03*
X118322866Y-100734900D03*
D23*
X78200000Y-63676945D03*
D20*
X80730335Y-63898321D03*
X83260669Y-64119696D03*
X85791004Y-64341072D03*
X88321338Y-64562447D03*
X90851673Y-64783823D03*
X93382007Y-65005199D03*
X95912342Y-65226574D03*
%TD*%
D24*
%TO.C,C3*%
X125437500Y-75460000D03*
X128562500Y-75460000D03*
%TD*%
D21*
%TO.C,J1*%
X71120000Y-99060000D03*
D20*
X71120000Y-101600000D03*
X68580000Y-99060000D03*
X68580000Y-101600000D03*
X66040000Y-99060000D03*
X66040000Y-101600000D03*
%TD*%
D22*
%TO.C,hole1*%
X68580000Y-62230000D03*
%TD*%
D25*
%TO.C,bb1*%
X187960000Y-63500000D03*
%TD*%
%TO.C,bb2*%
X187960000Y-86360000D03*
%TD*%
D22*
%TO.C,U2*%
X115360000Y-103020000D03*
X180360000Y-103020000D03*
X115360000Y-135020000D03*
X180360000Y-135020000D03*
D26*
X137160000Y-101600000D03*
D20*
X139700000Y-101600000D03*
X142240000Y-101600000D03*
X144780000Y-101600000D03*
X147320000Y-101600000D03*
X149860000Y-101600000D03*
X152400000Y-101600000D03*
X154940000Y-101600000D03*
%TD*%
D21*
%TO.C,J1*%
X172720000Y-99060000D03*
D20*
X172720000Y-101600000D03*
X170180000Y-99060000D03*
X170180000Y-101600000D03*
X167640000Y-99060000D03*
X167640000Y-101600000D03*
%TD*%
D25*
%TO.C,bb5*%
X134620000Y-86360000D03*
%TD*%
%TO.C,bb6*%
X134620000Y-63500000D03*
%TD*%
D27*
%TO.C,bb4*%
X142240000Y-95250000D03*
%TD*%
D22*
%TO.C,hole2*%
X228600000Y-62230000D03*
%TD*%
D27*
%TO.C,bb3*%
X180340000Y-95250000D03*
%TD*%
D28*
%TO.C,R3*%
X127000000Y-67707064D03*
X127000000Y-72507064D03*
%TD*%
D29*
%TO.C,R11*%
X119380000Y-89040000D03*
X119380000Y-93840000D03*
%TD*%
D30*
%TO.C,C41*%
X96350000Y-83305000D03*
X96350000Y-80180000D03*
%TD*%
D31*
%TO.C,D6*%
X119380000Y-86360000D03*
D32*
X119380000Y-83820000D03*
%TD*%
D24*
%TO.C,C1*%
X54902500Y-102600000D03*
X51777500Y-102600000D03*
%TD*%
%TO.C,C4*%
X161582500Y-104340000D03*
X158457500Y-104340000D03*
%TD*%
D33*
%TO.C,R2*%
X132080000Y-60953212D03*
X128680000Y-60953212D03*
%TD*%
D34*
%TO.C,BT1*%
X107124214Y-75200000D03*
X107124214Y-77200000D03*
D35*
X112874214Y-72850000D03*
X112874214Y-79550000D03*
%TD*%
D24*
%TO.C,C2*%
X118402500Y-63850000D03*
X115277500Y-63850000D03*
%TD*%
D36*
%TO.C,SW1*%
X102620000Y-73580000D03*
X102620000Y-71080000D03*
X102620000Y-68580000D03*
X96520000Y-73580000D03*
X96520000Y-71080000D03*
X96520000Y-68580000D03*
%TD*%
D37*
%TO.C,R6*%
X197840000Y-78700000D03*
X193040000Y-78700000D03*
%TD*%
D38*
%TO.C,R4*%
X193040000Y-88900000D03*
X197840000Y-88900000D03*
%TD*%
D39*
%TO.C,Q1*%
X110822500Y-92390000D03*
X110822500Y-90490000D03*
X112697500Y-91440000D03*
%TD*%
D40*
%TO.C,SW3*%
X123950000Y-88940000D03*
X123950000Y-91440000D03*
X123950000Y-93940000D03*
X130050000Y-88940000D03*
X130050000Y-91440000D03*
X130050000Y-93940000D03*
%TD*%
D41*
%TO.C,U3*%
X107885000Y-88900000D03*
D42*
X107885000Y-86360000D03*
X107885000Y-83820000D03*
%TD*%
D24*
%TO.C,C5*%
X188286805Y-79742363D03*
X185161805Y-79742363D03*
%TD*%
D43*
%TO.C,SW2*%
X121360000Y-60610000D03*
X127560000Y-60610000D03*
X127560000Y-64310000D03*
X121360000Y-64310000D03*
%TD*%
D44*
%TO.C,U4*%
X94132500Y-83310000D03*
X94132500Y-83960000D03*
X94132500Y-84610000D03*
X94132500Y-85260000D03*
X94132500Y-85910000D03*
X94132500Y-86560000D03*
X94132500Y-87210000D03*
X88407500Y-87210000D03*
X88407500Y-86560000D03*
X88407500Y-85910000D03*
X88407500Y-85260000D03*
X88407500Y-84610000D03*
X88407500Y-83960000D03*
X88407500Y-83310000D03*
%TD*%
D30*
%TO.C,C42*%
X86190000Y-83305000D03*
X86190000Y-80180000D03*
%TD*%
D45*
%TO.C,U1*%
X61580490Y-75475780D03*
X64120490Y-75475780D03*
X66660490Y-75475780D03*
X69200490Y-75475780D03*
X71740490Y-75475780D03*
X74280490Y-75475780D03*
X76820490Y-75475780D03*
X76820490Y-92640340D03*
X74280490Y-92640340D03*
X71740490Y-92640340D03*
X69200490Y-92640340D03*
X66660490Y-92640340D03*
X64120490Y-92640340D03*
X61580490Y-92640340D03*
D46*
X69679266Y-79714877D03*
X66169266Y-79714877D03*
D47*
X70470010Y-86659629D03*
%TD*%
D28*
%TO.C,R1*%
X132080000Y-67707064D03*
X132080000Y-72507064D03*
%TD*%
D38*
%TO.C,R5*%
X193040000Y-83820000D03*
X197840000Y-83820000D03*
%TD*%
D37*
%TO.C,R7*%
X197840000Y-73660000D03*
X193040000Y-73660000D03*
%TD*%
M02*
