%TF.GenerationSoftware,KiCad,Pcbnew,6.0.9-8da3e8f707~117~ubuntu22.04.1*%
%TF.CreationDate,2022-12-07T11:08:24-06:00*%
%TF.ProjectId,badge,62616467-652e-46b6-9963-61645f706362,rev?*%
%TF.SameCoordinates,Original*%
%TF.FileFunction,Paste,Top*%
%TF.FilePolarity,Positive*%
%FSLAX46Y46*%
G04 Gerber Fmt 4.6, Leading zero omitted, Abs format (unit mm)*
G04 Created by KiCad (PCBNEW 6.0.9-8da3e8f707~117~ubuntu22.04.1) date 2022-12-07 11:08:24*
%MOMM*%
%LPD*%
G01*
G04 APERTURE LIST*
G04 Aperture macros list*
%AMRoundRect*
0 Rectangle with rounded corners*
0 $1 Rounding radius*
0 $2 $3 $4 $5 $6 $7 $8 $9 X,Y pos of 4 corners*
0 Add a 4 corners polygon primitive as box body*
4,1,4,$2,$3,$4,$5,$6,$7,$8,$9,$2,$3,0*
0 Add four circle primitives for the rounded corners*
1,1,$1+$1,$2,$3*
1,1,$1+$1,$4,$5*
1,1,$1+$1,$6,$7*
1,1,$1+$1,$8,$9*
0 Add four rect primitives between the rounded corners*
20,1,$1+$1,$2,$3,$4,$5,0*
20,1,$1+$1,$4,$5,$6,$7,0*
20,1,$1+$1,$6,$7,$8,$9,0*
20,1,$1+$1,$8,$9,$2,$3,0*%
G04 Aperture macros list end*
%ADD10RoundRect,0.357142X1.142858X-0.642858X1.142858X0.642858X-1.142858X0.642858X-1.142858X-0.642858X0*%
%ADD11R,0.500000X0.900000*%
%ADD12R,0.800000X0.500000*%
%ADD13R,0.800000X0.300000*%
%ADD14R,0.500000X1.400000*%
%ADD15RoundRect,0.357142X-1.142858X0.642858X-1.142858X-0.642858X1.142858X-0.642858X1.142858X0.642858X0*%
G04 APERTURE END LIST*
D10*
%TO.C,R9*%
X69680000Y-77700000D03*
X69680000Y-72900000D03*
%TD*%
D11*
%TO.C,D2*%
X116840000Y-62670000D03*
D12*
X115990000Y-62600000D03*
D13*
X115990000Y-63500000D03*
D12*
X115990000Y-64400000D03*
X117690000Y-64400000D03*
D13*
X117690000Y-63500000D03*
D12*
X117690000Y-62600000D03*
D14*
X116840000Y-64090000D03*
%TD*%
D12*
%TO.C,D1*%
X52490000Y-100700000D03*
D11*
X53340000Y-100770000D03*
D13*
X52490000Y-101600000D03*
D12*
X52490000Y-102500000D03*
X54190000Y-102500000D03*
D13*
X54190000Y-101600000D03*
D14*
X53340000Y-102190000D03*
D12*
X54190000Y-100700000D03*
%TD*%
%TO.C,D4*%
X159170000Y-103240000D03*
D11*
X160020000Y-103310000D03*
D13*
X159170000Y-104140000D03*
D12*
X159170000Y-105040000D03*
X160870000Y-105040000D03*
D13*
X160870000Y-104140000D03*
D12*
X160870000Y-103240000D03*
D14*
X160020000Y-104730000D03*
%TD*%
D12*
%TO.C,D5*%
X187574305Y-77842363D03*
D14*
X186724305Y-79332363D03*
D13*
X187574305Y-78742363D03*
D12*
X187574305Y-79642363D03*
X185874305Y-79642363D03*
D13*
X185874305Y-78742363D03*
D12*
X185874305Y-77842363D03*
D11*
X186724305Y-77912363D03*
%TD*%
D12*
%TO.C,D3*%
X127850000Y-72760000D03*
D14*
X127000000Y-74250000D03*
D13*
X127850000Y-73660000D03*
D12*
X127850000Y-74560000D03*
X126150000Y-74560000D03*
D13*
X126150000Y-73660000D03*
D11*
X127000000Y-72830000D03*
D12*
X126150000Y-72760000D03*
%TD*%
D15*
%TO.C,R10*%
X66170000Y-72900000D03*
X66170000Y-77700000D03*
%TD*%
M02*
