%TF.GenerationSoftware,KiCad,Pcbnew,6.0.9-8da3e8f707~117~ubuntu22.04.1*%
%TF.CreationDate,2022-12-07T11:08:24-06:00*%
%TF.ProjectId,badge,62616467-652e-46b6-9963-61645f706362,rev?*%
%TF.SameCoordinates,Original*%
%TF.FileFunction,Soldermask,Top*%
%TF.FilePolarity,Negative*%
%FSLAX46Y46*%
G04 Gerber Fmt 4.6, Leading zero omitted, Abs format (unit mm)*
G04 Created by KiCad (PCBNEW 6.0.9-8da3e8f707~117~ubuntu22.04.1) date 2022-12-07 11:08:24*
%MOMM*%
%LPD*%
G01*
G04 APERTURE LIST*
G04 Aperture macros list*
%AMRoundRect*
0 Rectangle with rounded corners*
0 $1 Rounding radius*
0 $2 $3 $4 $5 $6 $7 $8 $9 X,Y pos of 4 corners*
0 Add a 4 corners polygon primitive as box body*
4,1,4,$2,$3,$4,$5,$6,$7,$8,$9,$2,$3,0*
0 Add four circle primitives for the rounded corners*
1,1,$1+$1,$2,$3*
1,1,$1+$1,$4,$5*
1,1,$1+$1,$6,$7*
1,1,$1+$1,$8,$9*
0 Add four rect primitives between the rounded corners*
20,1,$1+$1,$2,$3,$4,$5,0*
20,1,$1+$1,$4,$5,$6,$7,0*
20,1,$1+$1,$6,$7,$8,$9,0*
20,1,$1+$1,$8,$9,$2,$3,0*%
G04 Aperture macros list end*
%ADD10RoundRect,0.357142X1.142858X-0.642858X1.142858X0.642858X-1.142858X0.642858X-1.142858X-0.642858X0*%
%ADD11R,0.500000X0.900000*%
%ADD12R,0.800000X0.500000*%
%ADD13R,0.800000X0.300000*%
%ADD14R,0.500000X1.400000*%
%ADD15RoundRect,0.250000X-0.600000X0.600000X-0.600000X-0.600000X0.600000X-0.600000X0.600000X0.600000X0*%
%ADD16C,1.700000*%
%ADD17RoundRect,0.750000X-0.750000X-3.250000X0.750000X-3.250000X0.750000X3.250000X-0.750000X3.250000X0*%
%ADD18C,2.700000*%
%ADD19C,0.001000*%
%ADD20R,1.700000X1.700000*%
%ADD21RoundRect,0.750000X3.250000X-0.750000X3.250000X0.750000X-3.250000X0.750000X-3.250000X-0.750000X0*%
%ADD22RoundRect,0.357142X-1.142858X0.642858X-1.142858X-0.642858X1.142858X-0.642858X1.142858X0.642858X0*%
%ADD23R,1.800000X1.800000*%
%ADD24C,1.800000*%
%ADD25C,1.500000*%
%ADD26R,2.000000X1.905000*%
%ADD27O,2.000000X1.905000*%
%ADD28RoundRect,0.750000X0.750000X-0.750000X0.750000X0.750000X-0.750000X0.750000X-0.750000X-0.750000X0*%
%ADD29RoundRect,1.250000X1.250000X1.250000X-1.250000X1.250000X-1.250000X-1.250000X1.250000X-1.250000X0*%
G04 APERTURE END LIST*
D10*
%TO.C,R9*%
X69680000Y-77700000D03*
X69680000Y-72900000D03*
%TD*%
D11*
%TO.C,D2*%
X116840000Y-62670000D03*
D12*
X115990000Y-62600000D03*
D13*
X115990000Y-63500000D03*
D12*
X115990000Y-64400000D03*
X117690000Y-64400000D03*
D13*
X117690000Y-63500000D03*
D12*
X117690000Y-62600000D03*
D14*
X116840000Y-64090000D03*
%TD*%
D12*
%TO.C,D1*%
X52490000Y-100700000D03*
D11*
X53340000Y-100770000D03*
D13*
X52490000Y-101600000D03*
D12*
X52490000Y-102500000D03*
X54190000Y-102500000D03*
D13*
X54190000Y-101600000D03*
D14*
X53340000Y-102190000D03*
D12*
X54190000Y-100700000D03*
%TD*%
D15*
%TO.C,J1*%
X200660000Y-60960000D03*
D16*
X200660000Y-63500000D03*
X198120000Y-60960000D03*
X198120000Y-63500000D03*
X195580000Y-60960000D03*
X195580000Y-63500000D03*
%TD*%
D17*
%TO.C,REF\u002A\u002A*%
X187960000Y-63500000D03*
%TD*%
D15*
%TO.C,J1*%
X93980000Y-60960000D03*
D16*
X93980000Y-63500000D03*
X91440000Y-60960000D03*
X91440000Y-63500000D03*
X88900000Y-60960000D03*
X88900000Y-63500000D03*
%TD*%
D17*
%TO.C,REF\u002A\u002A*%
X187960000Y-86360000D03*
%TD*%
D12*
%TO.C,D4*%
X159170000Y-103240000D03*
D11*
X160020000Y-103310000D03*
D13*
X159170000Y-104140000D03*
D12*
X159170000Y-105040000D03*
X160870000Y-105040000D03*
D13*
X160870000Y-104140000D03*
D12*
X160870000Y-103240000D03*
D14*
X160020000Y-104730000D03*
%TD*%
D18*
%TO.C,U2*%
X115360000Y-103020000D03*
X180360000Y-103020000D03*
D19*
X115360000Y-135020000D03*
X180360000Y-135020000D03*
D20*
X137160000Y-101600000D03*
D16*
X139700000Y-101600000D03*
X142240000Y-101600000D03*
X144780000Y-101600000D03*
X147320000Y-101600000D03*
X149860000Y-101600000D03*
X152400000Y-101600000D03*
X154940000Y-101600000D03*
%TD*%
D12*
%TO.C,D5*%
X187574305Y-77842363D03*
D14*
X186724305Y-79332363D03*
D13*
X187574305Y-78742363D03*
D12*
X187574305Y-79642363D03*
X185874305Y-79642363D03*
D13*
X185874305Y-78742363D03*
D12*
X185874305Y-77842363D03*
D11*
X186724305Y-77912363D03*
%TD*%
D15*
%TO.C,J1*%
X172720000Y-99060000D03*
D16*
X172720000Y-101600000D03*
X170180000Y-99060000D03*
X170180000Y-101600000D03*
X167640000Y-99060000D03*
X167640000Y-101600000D03*
%TD*%
D17*
%TO.C,REF\u002A\u002A*%
X134620000Y-86360000D03*
%TD*%
D12*
%TO.C,D3*%
X127850000Y-72760000D03*
D14*
X127000000Y-74250000D03*
D13*
X127850000Y-73660000D03*
D12*
X127850000Y-74560000D03*
X126150000Y-74560000D03*
D13*
X126150000Y-73660000D03*
D11*
X127000000Y-72830000D03*
D12*
X126150000Y-72760000D03*
%TD*%
D18*
%TO.C,U2*%
X124480000Y-103020000D03*
D19*
X59480000Y-135020000D03*
X124480000Y-135020000D03*
D18*
X59480000Y-103020000D03*
D20*
X81280000Y-101600000D03*
D16*
X83820000Y-101600000D03*
X86360000Y-101600000D03*
X88900000Y-101600000D03*
X91440000Y-101600000D03*
X93980000Y-101600000D03*
X96520000Y-101600000D03*
X99060000Y-101600000D03*
%TD*%
D17*
%TO.C,REF\u002A\u002A*%
X134620000Y-63500000D03*
%TD*%
D21*
%TO.C,REF\u002A\u002A*%
X142240000Y-95250000D03*
%TD*%
D18*
%TO.C,U2*%
X191560000Y-94380000D03*
D19*
X256560000Y-94380000D03*
X256560000Y-62380000D03*
D18*
X191560000Y-62380000D03*
D20*
X213360000Y-60960000D03*
D16*
X215900000Y-60960000D03*
X218440000Y-60960000D03*
X220980000Y-60960000D03*
X223520000Y-60960000D03*
X226060000Y-60960000D03*
X228600000Y-60960000D03*
X231140000Y-60960000D03*
%TD*%
D18*
%TO.C,U2*%
X111780000Y-62380000D03*
X111780000Y-94380000D03*
D19*
X46780000Y-62380000D03*
X46780000Y-94380000D03*
D20*
X68580000Y-60960000D03*
D16*
X71120000Y-60960000D03*
X73660000Y-60960000D03*
X76200000Y-60960000D03*
X78740000Y-60960000D03*
X81280000Y-60960000D03*
X83820000Y-60960000D03*
X86360000Y-60960000D03*
%TD*%
D22*
%TO.C,R10*%
X66170000Y-72900000D03*
X66170000Y-77700000D03*
%TD*%
D21*
%TO.C,REF\u002A\u002A*%
X180340000Y-95250000D03*
%TD*%
D23*
%TO.C,D6*%
X119380000Y-86360000D03*
D24*
X119380000Y-83820000D03*
%TD*%
D25*
%TO.C,R2*%
X121920000Y-60960000D03*
X125320000Y-60960000D03*
%TD*%
D26*
%TO.C,U3*%
X107885000Y-83820000D03*
D27*
X107885000Y-81280000D03*
X107885000Y-78740000D03*
%TD*%
D28*
%TO.C,U1*%
X69679266Y-79714877D03*
X66169266Y-79714877D03*
D29*
X70470010Y-86659629D03*
%TD*%
M02*
