%TF.GenerationSoftware,KiCad,Pcbnew,6.0.10-86aedd382b~118~ubuntu22.04.1*%
%TF.CreationDate,2023-01-16T15:09:36-06:00*%
%TF.ProjectId,badge,62616467-652e-46b6-9963-61645f706362,rev?*%
%TF.SameCoordinates,Original*%
%TF.FileFunction,Legend,Top*%
%TF.FilePolarity,Positive*%
%FSLAX46Y46*%
G04 Gerber Fmt 4.6, Leading zero omitted, Abs format (unit mm)*
G04 Created by KiCad (PCBNEW 6.0.10-86aedd382b~118~ubuntu22.04.1) date 2023-01-16 15:09:36*
%MOMM*%
%LPD*%
G01*
G04 APERTURE LIST*
G04 Aperture macros list*
%AMRoundRect*
0 Rectangle with rounded corners*
0 $1 Rounding radius*
0 $2 $3 $4 $5 $6 $7 $8 $9 X,Y pos of 4 corners*
0 Add a 4 corners polygon primitive as box body*
4,1,4,$2,$3,$4,$5,$6,$7,$8,$9,$2,$3,0*
0 Add four circle primitives for the rounded corners*
1,1,$1+$1,$2,$3*
1,1,$1+$1,$4,$5*
1,1,$1+$1,$6,$7*
1,1,$1+$1,$8,$9*
0 Add four rect primitives between the rounded corners*
20,1,$1+$1,$2,$3,$4,$5,0*
20,1,$1+$1,$4,$5,$6,$7,0*
20,1,$1+$1,$6,$7,$8,$9,0*
20,1,$1+$1,$8,$9,$2,$3,0*%
G04 Aperture macros list end*
%ADD10C,0.150000*%
%ADD11C,0.100000*%
%ADD12C,0.120000*%
%ADD13RoundRect,0.357142X1.142858X-0.642858X1.142858X0.642858X-1.142858X0.642858X-1.142858X-0.642858X0*%
%ADD14R,1.000000X0.700000*%
%ADD15R,1.000000X0.500000*%
%ADD16RoundRect,0.250000X-0.600000X0.600000X-0.600000X-0.600000X0.600000X-0.600000X0.600000X0.600000X0*%
%ADD17C,1.700000*%
%ADD18RoundRect,0.750000X-0.750000X-3.250000X0.750000X-3.250000X0.750000X3.250000X-0.750000X3.250000X0*%
%ADD19C,3.000000*%
%ADD20R,1.700000X1.700000*%
%ADD21RoundRect,0.750000X3.250000X-0.750000X3.250000X0.750000X-3.250000X0.750000X-3.250000X-0.750000X0*%
%ADD22RoundRect,0.357142X-1.142858X0.642858X-1.142858X-0.642858X1.142858X-0.642858X1.142858X0.642858X0*%
%ADD23R,1.800000X1.800000*%
%ADD24C,1.800000*%
%ADD25C,1.500000*%
%ADD26R,2.000000X1.905000*%
%ADD27O,2.000000X1.905000*%
%ADD28RoundRect,0.750000X0.750000X-0.750000X0.750000X0.750000X-0.750000X0.750000X-0.750000X-0.750000X0*%
%ADD29RoundRect,1.250000X1.250000X1.250000X-1.250000X1.250000X-1.250000X-1.250000X1.250000X-1.250000X0*%
G04 APERTURE END LIST*
D10*
%TO.C,R9*%
X70134665Y-75467058D02*
X69658475Y-75800392D01*
X70134665Y-76038487D02*
X69134665Y-76038487D01*
X69134665Y-75657534D01*
X69182285Y-75562296D01*
X69229904Y-75514677D01*
X69325142Y-75467058D01*
X69467999Y-75467058D01*
X69563237Y-75514677D01*
X69610856Y-75562296D01*
X69658475Y-75657534D01*
X69658475Y-76038487D01*
X70134665Y-74990868D02*
X70134665Y-74800392D01*
X70087046Y-74705153D01*
X70039427Y-74657534D01*
X69896570Y-74562296D01*
X69706094Y-74514677D01*
X69325142Y-74514677D01*
X69229904Y-74562296D01*
X69182285Y-74609915D01*
X69134665Y-74705153D01*
X69134665Y-74895630D01*
X69182285Y-74990868D01*
X69229904Y-75038487D01*
X69325142Y-75086106D01*
X69563237Y-75086106D01*
X69658475Y-75038487D01*
X69706094Y-74990868D01*
X69753713Y-74895630D01*
X69753713Y-74705153D01*
X69706094Y-74609915D01*
X69658475Y-74562296D01*
X69563237Y-74514677D01*
%TO.C,D2*%
X116101904Y-66492380D02*
X116101904Y-65492380D01*
X116340000Y-65492380D01*
X116482857Y-65540000D01*
X116578095Y-65635238D01*
X116625714Y-65730476D01*
X116673333Y-65920952D01*
X116673333Y-66063809D01*
X116625714Y-66254285D01*
X116578095Y-66349523D01*
X116482857Y-66444761D01*
X116340000Y-66492380D01*
X116101904Y-66492380D01*
X117054285Y-65587619D02*
X117101904Y-65540000D01*
X117197142Y-65492380D01*
X117435238Y-65492380D01*
X117530476Y-65540000D01*
X117578095Y-65587619D01*
X117625714Y-65682857D01*
X117625714Y-65778095D01*
X117578095Y-65920952D01*
X117006666Y-66492380D01*
X117625714Y-66492380D01*
D11*
X115311428Y-62871428D02*
X114968571Y-62871428D01*
X115140000Y-62871428D02*
X115140000Y-62271428D01*
X115082857Y-62357142D01*
X115025714Y-62414285D01*
X114968571Y-62442857D01*
D10*
%TO.C,D1*%
X52601904Y-104592380D02*
X52601904Y-103592380D01*
X52840000Y-103592380D01*
X52982857Y-103640000D01*
X53078095Y-103735238D01*
X53125714Y-103830476D01*
X53173333Y-104020952D01*
X53173333Y-104163809D01*
X53125714Y-104354285D01*
X53078095Y-104449523D01*
X52982857Y-104544761D01*
X52840000Y-104592380D01*
X52601904Y-104592380D01*
X54125714Y-104592380D02*
X53554285Y-104592380D01*
X53840000Y-104592380D02*
X53840000Y-103592380D01*
X53744761Y-103735238D01*
X53649523Y-103830476D01*
X53554285Y-103878095D01*
D11*
X51811428Y-100971428D02*
X51468571Y-100971428D01*
X51640000Y-100971428D02*
X51640000Y-100371428D01*
X51582857Y-100457142D01*
X51525714Y-100514285D01*
X51468571Y-100542857D01*
D10*
%TO.C,D4*%
X156241904Y-104592380D02*
X156241904Y-103592380D01*
X156480000Y-103592380D01*
X156622857Y-103640000D01*
X156718095Y-103735238D01*
X156765714Y-103830476D01*
X156813333Y-104020952D01*
X156813333Y-104163809D01*
X156765714Y-104354285D01*
X156718095Y-104449523D01*
X156622857Y-104544761D01*
X156480000Y-104592380D01*
X156241904Y-104592380D01*
X157670476Y-103925714D02*
X157670476Y-104592380D01*
X157432380Y-103544761D02*
X157194285Y-104259047D01*
X157813333Y-104259047D01*
D11*
X158491428Y-103511428D02*
X158148571Y-103511428D01*
X158320000Y-103511428D02*
X158320000Y-102911428D01*
X158262857Y-102997142D01*
X158205714Y-103054285D01*
X158148571Y-103082857D01*
D10*
%TO.C,D5*%
X186086209Y-81732380D02*
X186086209Y-80732380D01*
X186324305Y-80732380D01*
X186467162Y-80780000D01*
X186562400Y-80875238D01*
X186610019Y-80970476D01*
X186657638Y-81160952D01*
X186657638Y-81303809D01*
X186610019Y-81494285D01*
X186562400Y-81589523D01*
X186467162Y-81684761D01*
X186324305Y-81732380D01*
X186086209Y-81732380D01*
X187562400Y-80732380D02*
X187086209Y-80732380D01*
X187038590Y-81208571D01*
X187086209Y-81160952D01*
X187181447Y-81113333D01*
X187419543Y-81113333D01*
X187514781Y-81160952D01*
X187562400Y-81208571D01*
X187610019Y-81303809D01*
X187610019Y-81541904D01*
X187562400Y-81637142D01*
X187514781Y-81684761D01*
X187419543Y-81732380D01*
X187181447Y-81732380D01*
X187086209Y-81684761D01*
X187038590Y-81637142D01*
D11*
X185195733Y-78113791D02*
X184852876Y-78113791D01*
X185024305Y-78113791D02*
X185024305Y-77513791D01*
X184967162Y-77599505D01*
X184910019Y-77656648D01*
X184852876Y-77685220D01*
D10*
%TO.C,D3*%
X126261904Y-76652380D02*
X126261904Y-75652380D01*
X126500000Y-75652380D01*
X126642857Y-75700000D01*
X126738095Y-75795238D01*
X126785714Y-75890476D01*
X126833333Y-76080952D01*
X126833333Y-76223809D01*
X126785714Y-76414285D01*
X126738095Y-76509523D01*
X126642857Y-76604761D01*
X126500000Y-76652380D01*
X126261904Y-76652380D01*
X127166666Y-75652380D02*
X127785714Y-75652380D01*
X127452380Y-76033333D01*
X127595238Y-76033333D01*
X127690476Y-76080952D01*
X127738095Y-76128571D01*
X127785714Y-76223809D01*
X127785714Y-76461904D01*
X127738095Y-76557142D01*
X127690476Y-76604761D01*
X127595238Y-76652380D01*
X127309523Y-76652380D01*
X127214285Y-76604761D01*
X127166666Y-76557142D01*
D11*
X125471428Y-73031428D02*
X125128571Y-73031428D01*
X125300000Y-73031428D02*
X125300000Y-72431428D01*
X125242857Y-72517142D01*
X125185714Y-72574285D01*
X125128571Y-72602857D01*
D10*
%TO.C,R10*%
X66628190Y-75918321D02*
X66152000Y-76251654D01*
X66628190Y-76489749D02*
X65628190Y-76489749D01*
X65628190Y-76108797D01*
X65675810Y-76013559D01*
X65723429Y-75965940D01*
X65818667Y-75918321D01*
X65961524Y-75918321D01*
X66056762Y-75965940D01*
X66104381Y-76013559D01*
X66152000Y-76108797D01*
X66152000Y-76489749D01*
X66628190Y-74965940D02*
X66628190Y-75537368D01*
X66628190Y-75251654D02*
X65628190Y-75251654D01*
X65771048Y-75346892D01*
X65866286Y-75442130D01*
X65913905Y-75537368D01*
X65628190Y-74346892D02*
X65628190Y-74251654D01*
X65675810Y-74156416D01*
X65723429Y-74108797D01*
X65818667Y-74061178D01*
X66009143Y-74013559D01*
X66247238Y-74013559D01*
X66437714Y-74061178D01*
X66532952Y-74108797D01*
X66580571Y-74156416D01*
X66628190Y-74251654D01*
X66628190Y-74346892D01*
X66580571Y-74442130D01*
X66532952Y-74489749D01*
X66437714Y-74537368D01*
X66247238Y-74584987D01*
X66009143Y-74584987D01*
X65818667Y-74537368D01*
X65723429Y-74489749D01*
X65675810Y-74442130D01*
X65628190Y-74346892D01*
D12*
%TO.C,R9*%
X68320000Y-76827064D02*
X68320000Y-73772936D01*
X71040000Y-76827064D02*
X71040000Y-73772936D01*
%TO.C,D2*%
X115640000Y-64900000D02*
X116340000Y-64900000D01*
%TO.C,D1*%
X52140000Y-103000000D02*
X52840000Y-103000000D01*
%TO.C,J1*%
X190370000Y-57670000D02*
X205870000Y-57670000D01*
X204570000Y-58980000D02*
X204570000Y-65480000D01*
X200170000Y-58980000D02*
X204570000Y-58980000D01*
X204570000Y-65480000D02*
X191670000Y-65480000D01*
X201160000Y-56280000D02*
X200160000Y-56280000D01*
X190370000Y-66790000D02*
X190370000Y-57670000D01*
X191670000Y-65480000D02*
X191670000Y-58980000D01*
X200160000Y-56280000D02*
X200660000Y-57280000D01*
X196070000Y-58980000D02*
X196070000Y-58980000D01*
X205870000Y-66790000D02*
X190370000Y-66790000D01*
X200170000Y-57670000D02*
X200170000Y-58980000D01*
X200660000Y-57280000D02*
X201160000Y-56280000D01*
X196070000Y-58980000D02*
X196070000Y-57670000D01*
X205870000Y-57670000D02*
X205870000Y-66790000D01*
X191670000Y-58980000D02*
X196070000Y-58980000D01*
X83690000Y-66790000D02*
X83690000Y-57670000D01*
X97890000Y-58980000D02*
X97890000Y-65480000D01*
X84990000Y-58980000D02*
X89390000Y-58980000D01*
X93480000Y-56280000D02*
X93980000Y-57280000D01*
X99190000Y-66790000D02*
X83690000Y-66790000D01*
X89390000Y-58980000D02*
X89390000Y-57670000D01*
X84990000Y-65480000D02*
X84990000Y-58980000D01*
X94480000Y-56280000D02*
X93480000Y-56280000D01*
X83690000Y-57670000D02*
X99190000Y-57670000D01*
X89390000Y-58980000D02*
X89390000Y-58980000D01*
X93490000Y-58980000D02*
X97890000Y-58980000D01*
X93980000Y-57280000D02*
X94480000Y-56280000D01*
X97890000Y-65480000D02*
X84990000Y-65480000D01*
X99190000Y-57670000D02*
X99190000Y-66790000D01*
X93490000Y-57670000D02*
X93490000Y-58980000D01*
%TO.C,D4*%
X158820000Y-105540000D02*
X159520000Y-105540000D01*
%TO.C,D5*%
X185524305Y-80142363D02*
X186224305Y-80142363D01*
%TO.C,J1*%
X176630000Y-103580000D02*
X163730000Y-103580000D01*
X172720000Y-95380000D02*
X173220000Y-94380000D01*
X177930000Y-95770000D02*
X177930000Y-104890000D01*
X163730000Y-103580000D02*
X163730000Y-97080000D01*
X162430000Y-95770000D02*
X177930000Y-95770000D01*
X172220000Y-94380000D02*
X172720000Y-95380000D01*
X168130000Y-97080000D02*
X168130000Y-95770000D01*
X163730000Y-97080000D02*
X168130000Y-97080000D01*
X176630000Y-97080000D02*
X176630000Y-103580000D01*
X168130000Y-97080000D02*
X168130000Y-97080000D01*
X177930000Y-104890000D02*
X162430000Y-104890000D01*
X173220000Y-94380000D02*
X172220000Y-94380000D01*
X172230000Y-95770000D02*
X172230000Y-97080000D01*
X162430000Y-104890000D02*
X162430000Y-95770000D01*
X172230000Y-97080000D02*
X176630000Y-97080000D01*
%TO.C,D3*%
X125800000Y-75060000D02*
X126500000Y-75060000D01*
%TO.C,R10*%
X67530000Y-73772936D02*
X67530000Y-76827064D01*
X64810000Y-73772936D02*
X64810000Y-76827064D01*
%TD*%
%LPC*%
D13*
%TO.C,R9*%
X69680000Y-77700000D03*
X69680000Y-72900000D03*
%TD*%
D14*
%TO.C,D2*%
X115890000Y-62500000D03*
D15*
X115890000Y-63500000D03*
D14*
X115890000Y-64500000D03*
X117790000Y-64500000D03*
D15*
X117790000Y-63500000D03*
D14*
X117790000Y-62500000D03*
%TD*%
%TO.C,D1*%
X52390000Y-100600000D03*
D15*
X52390000Y-101600000D03*
D14*
X52390000Y-102600000D03*
X54290000Y-102600000D03*
D15*
X54290000Y-101600000D03*
D14*
X54290000Y-100600000D03*
%TD*%
D16*
%TO.C,J1*%
X200660000Y-60960000D03*
D17*
X200660000Y-63500000D03*
X198120000Y-60960000D03*
X198120000Y-63500000D03*
X195580000Y-60960000D03*
X195580000Y-63500000D03*
%TD*%
D18*
%TO.C,REF\u002A\u002A*%
X187960000Y-63500000D03*
%TD*%
D16*
%TO.C,J1*%
X93980000Y-60960000D03*
D17*
X93980000Y-63500000D03*
X91440000Y-60960000D03*
X91440000Y-63500000D03*
X88900000Y-60960000D03*
X88900000Y-63500000D03*
%TD*%
D18*
%TO.C,REF\u002A\u002A*%
X187960000Y-86360000D03*
%TD*%
D14*
%TO.C,D4*%
X159070000Y-103140000D03*
D15*
X159070000Y-104140000D03*
D14*
X159070000Y-105140000D03*
X160970000Y-105140000D03*
D15*
X160970000Y-104140000D03*
D14*
X160970000Y-103140000D03*
%TD*%
D19*
%TO.C,U2*%
X115360000Y-103020000D03*
X180360000Y-103020000D03*
X115360000Y-135020000D03*
X180360000Y-135020000D03*
D20*
X137160000Y-101600000D03*
D17*
X139700000Y-101600000D03*
X142240000Y-101600000D03*
X144780000Y-101600000D03*
X147320000Y-101600000D03*
X149860000Y-101600000D03*
X152400000Y-101600000D03*
X154940000Y-101600000D03*
%TD*%
D14*
%TO.C,D5*%
X185774305Y-77742363D03*
D15*
X185774305Y-78742363D03*
D14*
X185774305Y-79742363D03*
X187674305Y-79742363D03*
D15*
X187674305Y-78742363D03*
D14*
X187674305Y-77742363D03*
%TD*%
D16*
%TO.C,J1*%
X172720000Y-99060000D03*
D17*
X172720000Y-101600000D03*
X170180000Y-99060000D03*
X170180000Y-101600000D03*
X167640000Y-99060000D03*
X167640000Y-101600000D03*
%TD*%
D18*
%TO.C,REF\u002A\u002A*%
X134620000Y-86360000D03*
%TD*%
D14*
%TO.C,D3*%
X126050000Y-72660000D03*
D15*
X126050000Y-73660000D03*
D14*
X126050000Y-74660000D03*
X127950000Y-74660000D03*
D15*
X127950000Y-73660000D03*
D14*
X127950000Y-72660000D03*
%TD*%
D19*
%TO.C,U2*%
X124480000Y-135020000D03*
X59480000Y-103020000D03*
X59480000Y-135020000D03*
X124480000Y-103020000D03*
D20*
X81280000Y-101600000D03*
D17*
X83820000Y-101600000D03*
X86360000Y-101600000D03*
X88900000Y-101600000D03*
X91440000Y-101600000D03*
X93980000Y-101600000D03*
X96520000Y-101600000D03*
X99060000Y-101600000D03*
%TD*%
D18*
%TO.C,REF\u002A\u002A*%
X134620000Y-63500000D03*
%TD*%
D21*
%TO.C,REF\u002A\u002A*%
X142240000Y-95250000D03*
%TD*%
D19*
%TO.C,U2*%
X256560000Y-94380000D03*
X191560000Y-94380000D03*
X191560000Y-62380000D03*
X256560000Y-62380000D03*
D20*
X213360000Y-60960000D03*
D17*
X215900000Y-60960000D03*
X218440000Y-60960000D03*
X220980000Y-60960000D03*
X223520000Y-60960000D03*
X226060000Y-60960000D03*
X228600000Y-60960000D03*
X231140000Y-60960000D03*
%TD*%
D19*
%TO.C,U2*%
X111780000Y-94380000D03*
X46780000Y-94380000D03*
X46780000Y-62380000D03*
X111780000Y-62380000D03*
D20*
X68580000Y-60960000D03*
D17*
X71120000Y-60960000D03*
X73660000Y-60960000D03*
X76200000Y-60960000D03*
X78740000Y-60960000D03*
X81280000Y-60960000D03*
X83820000Y-60960000D03*
X86360000Y-60960000D03*
%TD*%
D22*
%TO.C,R10*%
X66170000Y-72900000D03*
X66170000Y-77700000D03*
%TD*%
D21*
%TO.C,REF\u002A\u002A*%
X180340000Y-95250000D03*
%TD*%
D23*
%TO.C,D6*%
X119380000Y-86360000D03*
D24*
X119380000Y-83820000D03*
%TD*%
D25*
%TO.C,R2*%
X121920000Y-60960000D03*
X125320000Y-60960000D03*
%TD*%
D26*
%TO.C,U3*%
X107885000Y-83820000D03*
D27*
X107885000Y-81280000D03*
X107885000Y-78740000D03*
%TD*%
D28*
%TO.C,U1*%
X69679266Y-79714877D03*
X66169266Y-79714877D03*
D29*
X70470010Y-86659629D03*
%TD*%
M02*
