%TF.GenerationSoftware,KiCad,Pcbnew,7.0.5-7.0.5~ubuntu22.04.1*%
%TF.CreationDate,2023-06-25T16:10:41-05:00*%
%TF.ProjectId,badge,62616467-652e-46b6-9963-61645f706362,rev?*%
%TF.SameCoordinates,Original*%
%TF.FileFunction,Copper,L1,Top*%
%TF.FilePolarity,Positive*%
%FSLAX46Y46*%
G04 Gerber Fmt 4.6, Leading zero omitted, Abs format (unit mm)*
G04 Created by KiCad (PCBNEW 7.0.5-7.0.5~ubuntu22.04.1) date 2023-06-25 16:10:41*
%MOMM*%
%LPD*%
G01*
G04 APERTURE LIST*
G04 Aperture macros list*
%AMRoundRect*
0 Rectangle with rounded corners*
0 $1 Rounding radius*
0 $2 $3 $4 $5 $6 $7 $8 $9 X,Y pos of 4 corners*
0 Add a 4 corners polygon primitive as box body*
4,1,4,$2,$3,$4,$5,$6,$7,$8,$9,$2,$3,0*
0 Add four circle primitives for the rounded corners*
1,1,$1+$1,$2,$3*
1,1,$1+$1,$4,$5*
1,1,$1+$1,$6,$7*
1,1,$1+$1,$8,$9*
0 Add four rect primitives between the rounded corners*
20,1,$1+$1,$2,$3,$4,$5,0*
20,1,$1+$1,$4,$5,$6,$7,0*
20,1,$1+$1,$6,$7,$8,$9,0*
20,1,$1+$1,$8,$9,$2,$3,0*%
%AMRotRect*
0 Rectangle, with rotation*
0 The origin of the aperture is its center*
0 $1 length*
0 $2 width*
0 $3 Rotation angle, in degrees counterclockwise*
0 Add horizontal line*
21,1,$1,$2,0,0,$3*%
G04 Aperture macros list end*
%TA.AperFunction,SMDPad,CuDef*%
%ADD10RoundRect,0.357142X1.142858X-0.642858X1.142858X0.642858X-1.142858X0.642858X-1.142858X-0.642858X0*%
%TD*%
%TA.AperFunction,SMDPad,CuDef*%
%ADD11R,1.000000X0.700000*%
%TD*%
%TA.AperFunction,SMDPad,CuDef*%
%ADD12R,1.000000X0.500000*%
%TD*%
%TA.AperFunction,ComponentPad*%
%ADD13R,1.800000X1.800000*%
%TD*%
%TA.AperFunction,ComponentPad*%
%ADD14C,1.800000*%
%TD*%
%TA.AperFunction,SMDPad,CuDef*%
%ADD15C,1.000000*%
%TD*%
%TA.AperFunction,ComponentPad*%
%ADD16RoundRect,0.250000X-0.600000X0.600000X-0.600000X-0.600000X0.600000X-0.600000X0.600000X0.600000X0*%
%TD*%
%TA.AperFunction,ComponentPad*%
%ADD17C,1.700000*%
%TD*%
%TA.AperFunction,ComponentPad*%
%ADD18R,1.700000X1.700000*%
%TD*%
%TA.AperFunction,SMDPad,CuDef*%
%ADD19RoundRect,0.357142X-1.142858X0.642858X-1.142858X-0.642858X1.142858X-0.642858X1.142858X0.642858X0*%
%TD*%
%TA.AperFunction,ComponentPad*%
%ADD20RotRect,1.700000X1.700000X355.000000*%
%TD*%
%TA.AperFunction,ComponentPad*%
%ADD21C,1.500000*%
%TD*%
%TA.AperFunction,ComponentPad*%
%ADD22R,2.000000X1.905000*%
%TD*%
%TA.AperFunction,ComponentPad*%
%ADD23O,2.000000X1.905000*%
%TD*%
%TA.AperFunction,HeatsinkPad*%
%ADD24RoundRect,1.250000X1.250000X1.250000X-1.250000X1.250000X-1.250000X-1.250000X1.250000X-1.250000X0*%
%TD*%
%TA.AperFunction,ComponentPad*%
%ADD25RoundRect,0.750000X0.750000X-0.750000X0.750000X0.750000X-0.750000X0.750000X-0.750000X-0.750000X0*%
%TD*%
%TA.AperFunction,ViaPad*%
%ADD26C,1.000000*%
%TD*%
%TA.AperFunction,ViaPad*%
%ADD27C,0.800000*%
%TD*%
%TA.AperFunction,Conductor*%
%ADD28C,1.000000*%
%TD*%
%TA.AperFunction,Conductor*%
%ADD29C,0.500000*%
%TD*%
%TA.AperFunction,Conductor*%
%ADD30C,0.250000*%
%TD*%
%TA.AperFunction,Conductor*%
%ADD31C,0.800000*%
%TD*%
G04 APERTURE END LIST*
D10*
%TO.P,R9,1*%
%TO.N,/BAT+*%
X69680000Y-77700000D03*
%TO.P,R9,2*%
%TO.N,/Vmeasure*%
X69680000Y-72900000D03*
%TD*%
D11*
%TO.P,D2,1,DI*%
%TO.N,Net-(D1-DO)*%
X115890000Y-62500000D03*
D12*
%TO.P,D2,2,CI*%
%TO.N,Net-(D1-CO)*%
X115890000Y-63500000D03*
D11*
%TO.P,D2,3,GND*%
%TO.N,GND*%
X115890000Y-64500000D03*
%TO.P,D2,4,VCC*%
%TO.N,+5V*%
X117790000Y-64500000D03*
D12*
%TO.P,D2,5,CO*%
%TO.N,Net-(D2-CO)*%
X117790000Y-63500000D03*
D11*
%TO.P,D2,6,DO*%
%TO.N,Net-(D2-DO)*%
X117790000Y-62500000D03*
%TD*%
D13*
%TO.P,D6,1,K*%
%TO.N,Net-(D6-K)*%
X119380000Y-86360000D03*
D14*
%TO.P,D6,2,A*%
%TO.N,+5V*%
X119380000Y-83820000D03*
%TD*%
D11*
%TO.P,D1,1,DI*%
%TO.N,/ls_MOSI*%
X52390000Y-100600000D03*
D12*
%TO.P,D1,2,CI*%
%TO.N,/ls_SCLK*%
X52390000Y-101600000D03*
D11*
%TO.P,D1,3,GND*%
%TO.N,GND*%
X52390000Y-102600000D03*
%TO.P,D1,4,VCC*%
%TO.N,+5V*%
X54290000Y-102600000D03*
D12*
%TO.P,D1,5,CO*%
%TO.N,Net-(D1-CO)*%
X54290000Y-101600000D03*
D11*
%TO.P,D1,6,DO*%
%TO.N,Net-(D1-DO)*%
X54290000Y-100600000D03*
%TD*%
D15*
%TO.P,REF\u002A\u002A,*%
%TO.N,*%
X236220000Y-60960000D03*
%TD*%
D16*
%TO.P,J1,1,GPIO1*%
%TO.N,/GPIO1{slash}DC*%
X213360000Y-60960000D03*
D17*
%TO.P,J1,2,GPIO2*%
%TO.N,/GPIO2{slash}BUSY*%
X213360000Y-63500000D03*
%TO.P,J1,3,SDA*%
%TO.N,/SDA*%
X210820000Y-60960000D03*
%TO.P,J1,4,SCL*%
%TO.N,/SCL*%
X210820000Y-63500000D03*
%TO.P,J1,5,3V3*%
%TO.N,+3V3*%
X208280000Y-60960000D03*
%TO.P,J1,6,GND*%
%TO.N,GND*%
X208280000Y-63500000D03*
%TD*%
D16*
%TO.P,J1,1,GPIO1*%
%TO.N,/GPIO1{slash}DC*%
X109220000Y-60960000D03*
D17*
%TO.P,J1,2,GPIO2*%
%TO.N,/GPIO2{slash}BUSY*%
X109220000Y-63500000D03*
%TO.P,J1,3,SDA*%
%TO.N,/SDA*%
X106680000Y-60960000D03*
%TO.P,J1,4,SCL*%
%TO.N,/SCL*%
X106680000Y-63500000D03*
%TO.P,J1,5,3V3*%
%TO.N,+3V3*%
X104140000Y-60960000D03*
%TO.P,J1,6,GND*%
%TO.N,GND*%
X104140000Y-63500000D03*
%TD*%
D11*
%TO.P,D4,1,DI*%
%TO.N,Net-(D3-DO)*%
X159070000Y-103140000D03*
D12*
%TO.P,D4,2,CI*%
%TO.N,Net-(D3-CO)*%
X159070000Y-104140000D03*
D11*
%TO.P,D4,3,GND*%
%TO.N,GND*%
X159070000Y-105140000D03*
%TO.P,D4,4,VCC*%
%TO.N,+5V*%
X160970000Y-105140000D03*
D12*
%TO.P,D4,5,CO*%
%TO.N,Net-(D4-CO)*%
X160970000Y-104140000D03*
D11*
%TO.P,D4,6,DO*%
%TO.N,Net-(D4-DO)*%
X160970000Y-103140000D03*
%TD*%
D18*
%TO.P,U2,1,BUSY*%
%TO.N,/GPIO2{slash}BUSY*%
X137160000Y-102600000D03*
D17*
%TO.P,U2,2,~{RESET}*%
%TO.N,/RESET{slash}LED*%
X139700000Y-102600000D03*
%TO.P,U2,3,DATA/~{CMD}*%
%TO.N,/GPIO1{slash}DC*%
X142240000Y-102600000D03*
%TO.P,U2,4,~{CS}*%
%TO.N,/CS{slash}OE*%
X144780000Y-102600000D03*
%TO.P,U2,5,SCLK*%
%TO.N,/SCLK*%
X147320000Y-102600000D03*
%TO.P,U2,6,SDI/MOSI*%
%TO.N,/MOSI*%
X149860000Y-102600000D03*
%TO.P,U2,7,GND*%
%TO.N,GND*%
X152400000Y-102600000D03*
%TO.P,U2,8,VCC*%
%TO.N,/sw_+3V3*%
X154940000Y-102600000D03*
%TD*%
D11*
%TO.P,D5,1,DI*%
%TO.N,Net-(D4-DO)*%
X185774305Y-77742363D03*
D12*
%TO.P,D5,2,CI*%
%TO.N,Net-(D4-CO)*%
X185774305Y-78742363D03*
D11*
%TO.P,D5,3,GND*%
%TO.N,GND*%
X185774305Y-79742363D03*
%TO.P,D5,4,VCC*%
%TO.N,+5V*%
X187674305Y-79742363D03*
D12*
%TO.P,D5,5,CO*%
%TO.N,unconnected-(D5-CO-Pad5)*%
X187674305Y-78742363D03*
D11*
%TO.P,D5,6,DO*%
%TO.N,unconnected-(D5-DO-Pad6)*%
X187674305Y-77742363D03*
%TD*%
D15*
%TO.P,REF\u002A\u002A,*%
%TO.N,*%
X55880000Y-88900000D03*
%TD*%
D16*
%TO.P,J1,1,GPIO1*%
%TO.N,/GPIO1{slash}DC*%
X172720000Y-99060000D03*
D17*
%TO.P,J1,2,GPIO2*%
%TO.N,/GPIO2{slash}BUSY*%
X172720000Y-101600000D03*
%TO.P,J1,3,SDA*%
%TO.N,/SDA*%
X170180000Y-99060000D03*
%TO.P,J1,4,SCL*%
%TO.N,/SCL*%
X170180000Y-101600000D03*
%TO.P,J1,5,3V3*%
%TO.N,+3V3*%
X167640000Y-99060000D03*
%TO.P,J1,6,GND*%
%TO.N,GND*%
X167640000Y-101600000D03*
%TD*%
D19*
%TO.P,R10,1*%
%TO.N,/Vmeasure*%
X66170000Y-72900000D03*
%TO.P,R10,2*%
%TO.N,GND*%
X66170000Y-77700000D03*
%TD*%
D11*
%TO.P,D3,1,DI*%
%TO.N,Net-(D2-DO)*%
X126050000Y-72660000D03*
D12*
%TO.P,D3,2,CI*%
%TO.N,Net-(D2-CO)*%
X126050000Y-73660000D03*
D11*
%TO.P,D3,3,GND*%
%TO.N,GND*%
X126050000Y-74660000D03*
%TO.P,D3,4,VCC*%
%TO.N,+5V*%
X127950000Y-74660000D03*
D12*
%TO.P,D3,5,CO*%
%TO.N,Net-(D3-CO)*%
X127950000Y-73660000D03*
D11*
%TO.P,D3,6,DO*%
%TO.N,Net-(D3-DO)*%
X127950000Y-72660000D03*
%TD*%
D16*
%TO.P,J1,1,GPIO1*%
%TO.N,/GPIO1{slash}DC*%
X71120000Y-99060000D03*
D17*
%TO.P,J1,2,GPIO2*%
%TO.N,/GPIO2{slash}BUSY*%
X71120000Y-101600000D03*
%TO.P,J1,3,SDA*%
%TO.N,/SDA*%
X68580000Y-99060000D03*
%TO.P,J1,4,SCL*%
%TO.N,/SCL*%
X68580000Y-101600000D03*
%TO.P,J1,5,3V3*%
%TO.N,+3V3*%
X66040000Y-99060000D03*
%TO.P,J1,6,GND*%
%TO.N,GND*%
X66040000Y-101600000D03*
%TD*%
D20*
%TO.P,U2,1,BUSY*%
%TO.N,/GPIO2{slash}BUSY*%
X78200000Y-63676945D03*
D17*
%TO.P,U2,2,~{RESET}*%
%TO.N,/RESET{slash}LED*%
X80730335Y-63898321D03*
%TO.P,U2,3,DATA/~{CMD}*%
%TO.N,/GPIO1{slash}DC*%
X83260669Y-64119696D03*
%TO.P,U2,4,~{CS}*%
%TO.N,/CS{slash}OE*%
X85791004Y-64341072D03*
%TO.P,U2,5,SCLK*%
%TO.N,/SCLK*%
X88321338Y-64562447D03*
%TO.P,U2,6,SDI/MOSI*%
%TO.N,/MOSI*%
X90851673Y-64783823D03*
%TO.P,U2,7,GND*%
%TO.N,GND*%
X93382007Y-65005199D03*
%TO.P,U2,8,VCC*%
%TO.N,/sw_+3V3*%
X95912342Y-65226574D03*
%TD*%
D21*
%TO.P,R2,1*%
%TO.N,/Vdark*%
X132080000Y-60953212D03*
%TO.P,R2,2*%
%TO.N,GND*%
X128680000Y-60953212D03*
%TD*%
D22*
%TO.P,U3,1,OUT*%
%TO.N,+5V*%
X107885000Y-88900000D03*
D23*
%TO.P,U3,2,GND*%
%TO.N,GND*%
X107885000Y-86360000D03*
%TO.P,U3,3,IN*%
%TO.N,/sw_VBAT+*%
X107885000Y-83820000D03*
%TD*%
D24*
%TO.P,U1,GND*%
%TO.N,GND*%
X70470010Y-86659629D03*
D25*
%TO.P,U1,16,BAT-*%
X66169266Y-79714877D03*
%TO.P,U1,15,BAT+*%
%TO.N,/BAT+*%
X69679266Y-79714877D03*
%TD*%
D26*
%TO.N,+3V3*%
X193040000Y-83820000D03*
X96350000Y-83305000D03*
X66040000Y-91440000D03*
D27*
%TO.N,GND*%
X210820000Y-76200000D03*
X170180000Y-91440000D03*
X58420000Y-81280000D03*
X76024819Y-81104819D03*
X78740000Y-60960000D03*
X195580000Y-83820000D03*
X76200000Y-88900000D03*
X86190000Y-80180000D03*
X205740000Y-81280000D03*
X177800000Y-91440000D03*
X126069647Y-74640353D03*
X215900000Y-71120000D03*
X81280000Y-104140000D03*
X159070000Y-105140000D03*
D26*
X96520000Y-71080000D03*
D27*
X116840000Y-66040000D03*
X162560000Y-86360000D03*
X121920000Y-96520000D03*
X86360000Y-76200000D03*
X71120000Y-96520000D03*
X139700000Y-76200000D03*
X195580000Y-78740000D03*
X170180000Y-60960000D03*
X170180000Y-71120000D03*
X52390000Y-102600000D03*
X96350000Y-80180000D03*
X109220000Y-104140000D03*
X152400000Y-71120000D03*
X50800000Y-104140000D03*
X81280000Y-96520000D03*
X185420000Y-101600000D03*
X195580000Y-91440000D03*
X116840000Y-76200000D03*
X170180000Y-76200000D03*
X132080000Y-91440000D03*
X122270000Y-60610000D03*
X200660000Y-86360000D03*
X124460000Y-76437500D03*
X53340000Y-91440000D03*
X185774305Y-79742363D03*
X165100000Y-104140000D03*
X177800000Y-104140000D03*
X127000000Y-101600000D03*
X71120000Y-60960000D03*
X121920000Y-104140000D03*
X63500000Y-68580000D03*
X123950000Y-88940000D03*
X137160000Y-60960000D03*
X226060000Y-60960000D03*
X185420000Y-76200000D03*
X129540000Y-86360000D03*
X66040000Y-63500000D03*
X129540000Y-101600000D03*
X185420000Y-91440000D03*
X109220000Y-96520000D03*
X96520000Y-60960000D03*
X185420000Y-71120000D03*
X152646092Y-91686092D03*
X83820000Y-60960000D03*
X110822500Y-90490000D03*
X86360000Y-66040000D03*
X190500000Y-96520000D03*
X66040000Y-104140000D03*
X152400000Y-60960000D03*
X152400000Y-76200000D03*
X162560000Y-91440000D03*
X137160000Y-71120000D03*
X50800000Y-99060000D03*
X185420000Y-60960000D03*
X81280000Y-73660000D03*
X220980000Y-66040000D03*
X88900000Y-66040000D03*
X109220000Y-78740000D03*
X115890000Y-64500000D03*
%TO.N,/SCL*%
X74280490Y-73975780D03*
X172720000Y-91300240D03*
X165100000Y-88900000D03*
X197840000Y-88900000D03*
%TO.N,/SDA*%
X71740490Y-73975780D03*
X170180000Y-93980000D03*
X197840000Y-83820000D03*
X160020000Y-86360000D03*
%TO.N,/CS{slash}OE*%
X76820490Y-94600490D03*
%TO.N,/MOSI*%
X69200490Y-93980000D03*
X91440000Y-93980000D03*
%TO.N,+5V*%
X54340000Y-102600000D03*
X187674305Y-79742363D03*
D26*
X86190000Y-83305000D03*
D27*
X127950000Y-74660000D03*
D26*
X162560000Y-101600000D03*
D27*
X160970000Y-105140000D03*
X117790000Y-64500000D03*
D26*
X157480000Y-101600000D03*
D27*
%TO.N,/SCLK*%
X93062796Y-85910000D03*
X76200000Y-101600000D03*
X81280000Y-86360000D03*
%TO.N,/Vdark*%
X111760000Y-66040000D03*
X66660490Y-75475780D03*
%TO.N,/RESET{slash}LED*%
X78740000Y-86360000D03*
X96520000Y-88900000D03*
X76820490Y-73975780D03*
D26*
%TO.N,/BAT+*%
X102620000Y-71080000D03*
D27*
%TO.N,/GPIO2{slash}BUSY*%
X172720000Y-93980000D03*
%TO.N,/GPIO1{slash}DC*%
X172720000Y-96460500D03*
X64120490Y-73975780D03*
%TO.N,/MISO{slash}Vbutton1*%
X104140000Y-66040000D03*
X83820000Y-73660000D03*
%TO.N,Net-(D1-CO)*%
X58420000Y-101600000D03*
%TO.N,Net-(D1-DO)*%
X58420000Y-99060000D03*
%TO.N,Net-(D2-CO)*%
X124460000Y-68580000D03*
%TO.N,Net-(D2-DO)*%
X124460000Y-66040000D03*
%TO.N,Net-(D3-CO)*%
X134620000Y-78740000D03*
%TO.N,Net-(D3-DO)*%
X134620000Y-76200000D03*
%TO.N,Net-(D4-CO)*%
X182880000Y-81280000D03*
%TO.N,Net-(D4-DO)*%
X182880000Y-78740000D03*
%TO.N,/Vmeasure*%
X69200490Y-73975780D03*
D26*
%TO.N,/sw_+3V3*%
X132080000Y-101600000D03*
X99060000Y-68580000D03*
D27*
%TO.N,/ls_MOSI*%
X86360000Y-88900000D03*
%TO.N,/ls_SCLK*%
X83820000Y-90930500D03*
%TD*%
D28*
%TO.N,+3V3*%
X79039365Y-84505000D02*
X93295000Y-84505000D01*
X67100000Y-90380000D02*
X73164365Y-90380000D01*
X66040000Y-91440000D02*
X67100000Y-90380000D01*
X94495000Y-83305000D02*
X96350000Y-83305000D01*
X73164365Y-90380000D02*
X79039365Y-84505000D01*
X93295000Y-84505000D02*
X94495000Y-83305000D01*
X193040000Y-76200000D02*
X193040000Y-83820000D01*
X208280000Y-60960000D02*
X193040000Y-76200000D01*
%TO.N,GND*%
X175260000Y-93980000D02*
X175260000Y-101600000D01*
X169190000Y-103150000D02*
X167640000Y-101600000D01*
X153045634Y-106050000D02*
X153955634Y-105140000D01*
X153955634Y-105140000D02*
X159070000Y-105140000D01*
X110822500Y-90490000D02*
X110822500Y-87392500D01*
X125365999Y-105774001D02*
X129540000Y-101600000D01*
X129540000Y-101600000D02*
X133990000Y-106050000D01*
X52390000Y-102600000D02*
X53490000Y-103700000D01*
X109790000Y-86360000D02*
X107885000Y-86360000D01*
X70214001Y-105774001D02*
X125365999Y-105774001D01*
X123950000Y-76947500D02*
X123950000Y-88940000D01*
X93382007Y-65442007D02*
X93382007Y-65005199D01*
X104140000Y-63500000D02*
X94887206Y-63500000D01*
X76024819Y-81104819D02*
X70470010Y-86659629D01*
X94887206Y-63500000D02*
X93382007Y-65005199D01*
X96520000Y-68580000D02*
X93382007Y-65442007D01*
X66919266Y-79714877D02*
X66919266Y-83108885D01*
X66919266Y-83108885D02*
X70470010Y-86659629D01*
X177800000Y-91440000D02*
X175260000Y-93980000D01*
X129580000Y-88940000D02*
X123950000Y-88940000D01*
X76949639Y-80180000D02*
X76024819Y-81104819D01*
X66040000Y-101600000D02*
X70214001Y-105774001D01*
X96520000Y-71080000D02*
X96520000Y-68580000D01*
X96350000Y-80180000D02*
X86190000Y-80180000D01*
X63940000Y-103700000D02*
X66040000Y-101600000D01*
X86190000Y-80180000D02*
X76949639Y-80180000D01*
X132080000Y-91440000D02*
X129580000Y-88940000D01*
X133990000Y-106050000D02*
X153045634Y-106050000D01*
X124460000Y-76437500D02*
X123950000Y-76947500D01*
D29*
X65054389Y-78600000D02*
X66169266Y-79714877D01*
D28*
X53490000Y-103700000D02*
X63940000Y-103700000D01*
X110822500Y-87392500D02*
X109790000Y-86360000D01*
X173710000Y-103150000D02*
X169190000Y-103150000D01*
X175260000Y-101600000D02*
X173710000Y-103150000D01*
D30*
%TO.N,/SCL*%
X80641955Y-62325000D02*
X79555335Y-63411620D01*
X79555335Y-68700935D02*
X74280490Y-73975780D01*
X198565000Y-88175000D02*
X197840000Y-88900000D01*
X173405240Y-90615000D02*
X196125000Y-90615000D01*
X161534695Y-88900000D02*
X145819695Y-73185000D01*
X105505000Y-62325000D02*
X80641955Y-62325000D01*
X124688604Y-61825000D02*
X110368173Y-61825000D01*
X172720000Y-91300240D02*
X171355000Y-92665240D01*
X165100000Y-88900000D02*
X161534695Y-88900000D01*
X198565000Y-75755000D02*
X198565000Y-88175000D01*
X172720000Y-91300240D02*
X173405240Y-90615000D01*
X171355000Y-92665240D02*
X171355000Y-100425000D01*
X107855000Y-62325000D02*
X106680000Y-63500000D01*
X106680000Y-63500000D02*
X105505000Y-62325000D01*
X109868173Y-62325000D02*
X107855000Y-62325000D01*
X196125000Y-90615000D02*
X197840000Y-88900000D01*
X136048604Y-73185000D02*
X124688604Y-61825000D01*
X79555335Y-63411620D02*
X79555335Y-68700935D01*
X171355000Y-100425000D02*
X170180000Y-101600000D01*
X210820000Y-63500000D02*
X198565000Y-75755000D01*
X110368173Y-61825000D02*
X109868173Y-62325000D01*
X145819695Y-73185000D02*
X136048604Y-73185000D01*
%TO.N,/SDA*%
X101563299Y-61875000D02*
X103653299Y-59785000D01*
X103653299Y-59785000D02*
X105505000Y-59785000D01*
X124875000Y-61375000D02*
X111648173Y-61375000D01*
X209455000Y-64228604D02*
X209455000Y-62325000D01*
X197840000Y-75843604D02*
X209455000Y-64228604D01*
X209455000Y-62325000D02*
X210820000Y-60960000D01*
X76954152Y-62745848D02*
X77825000Y-61875000D01*
X170180000Y-92814935D02*
X172829935Y-90165000D01*
X170180000Y-93980000D02*
X170180000Y-99060000D01*
X110058173Y-59785000D02*
X107855000Y-59785000D01*
X197840000Y-83820000D02*
X197840000Y-75843604D01*
X146395000Y-72735000D02*
X136235000Y-72735000D01*
X105505000Y-59785000D02*
X106680000Y-60960000D01*
X170180000Y-93980000D02*
X170180000Y-92814935D01*
X172829935Y-90165000D02*
X195549695Y-90165000D01*
X111648173Y-61375000D02*
X110058173Y-59785000D01*
X195549695Y-90165000D02*
X197840000Y-87874695D01*
X160020000Y-86360000D02*
X146395000Y-72735000D01*
X77825000Y-61875000D02*
X101563299Y-61875000D01*
X107855000Y-59785000D02*
X106680000Y-60960000D01*
X76954152Y-68762118D02*
X76954152Y-62745848D01*
X136235000Y-72735000D02*
X124875000Y-61375000D01*
X71740490Y-73975780D02*
X76954152Y-68762118D01*
X197840000Y-87874695D02*
X197840000Y-83820000D01*
%TO.N,/CS{slash}OE*%
X142605000Y-100425000D02*
X144780000Y-102600000D01*
X79725899Y-97505899D02*
X131144590Y-97505899D01*
X76820490Y-94600490D02*
X79725899Y-97505899D01*
X131144590Y-97505899D02*
X134063691Y-100425000D01*
X134063691Y-100425000D02*
X142605000Y-100425000D01*
%TO.N,/MOSI*%
X147235000Y-99975000D02*
X149860000Y-102600000D01*
X134250087Y-99975000D02*
X147235000Y-99975000D01*
X71120000Y-93980000D02*
X69200490Y-93980000D01*
X78740000Y-93980000D02*
X78465000Y-93705000D01*
X128255087Y-93980000D02*
X134250087Y-99975000D01*
X71395000Y-93705000D02*
X71120000Y-93980000D01*
X78465000Y-93705000D02*
X71395000Y-93705000D01*
X91440000Y-93980000D02*
X78740000Y-93980000D01*
X91440000Y-93980000D02*
X128255087Y-93980000D01*
D29*
%TO.N,+5V*%
X185286668Y-82130000D02*
X175859568Y-82130000D01*
X68848408Y-93130000D02*
X59378408Y-102600000D01*
X134488259Y-99400000D02*
X128218259Y-93130000D01*
X59378408Y-102600000D02*
X54340000Y-102600000D01*
X127950000Y-74660000D02*
X127119647Y-75490353D01*
X162560000Y-95429568D02*
X162560000Y-104445723D01*
D28*
X115890000Y-84770000D02*
X116840000Y-83820000D01*
X86190000Y-83305000D02*
X87950000Y-83305000D01*
X116840000Y-83820000D02*
X119380000Y-83820000D01*
D29*
X119382853Y-75487500D02*
X119380000Y-75490353D01*
D28*
X106449226Y-88900000D02*
X107885000Y-88900000D01*
D29*
X175859568Y-82130000D02*
X162560000Y-95429568D01*
X155280000Y-99400000D02*
X134488259Y-99400000D01*
X119380000Y-66090000D02*
X117790000Y-64500000D01*
X127119647Y-75490353D02*
X124856355Y-75490353D01*
X157480000Y-101600000D02*
X155280000Y-99400000D01*
X128218259Y-93130000D02*
X68848408Y-93130000D01*
D28*
X99609226Y-82060000D02*
X106449226Y-88900000D01*
D29*
X124853502Y-75487500D02*
X119382853Y-75487500D01*
D28*
X115890000Y-93155000D02*
X115890000Y-84770000D01*
D29*
X161865723Y-105140000D02*
X160970000Y-105140000D01*
D28*
X89195000Y-82060000D02*
X99609226Y-82060000D01*
D29*
X119380000Y-83820000D02*
X119380000Y-66090000D01*
X187674305Y-79742363D02*
X185286668Y-82130000D01*
X162560000Y-104445723D02*
X161865723Y-105140000D01*
X124856355Y-75490353D02*
X124853502Y-75487500D01*
D28*
X87950000Y-83305000D02*
X89195000Y-82060000D01*
D30*
%TO.N,/SCLK*%
X82310000Y-85330000D02*
X92482796Y-85330000D01*
X145695000Y-104225000D02*
X135954502Y-104225000D01*
X135954502Y-104225000D02*
X130585401Y-98855899D01*
X147320000Y-102600000D02*
X145695000Y-104225000D01*
X130585401Y-98855899D02*
X78944101Y-98855899D01*
X78944101Y-98855899D02*
X76200000Y-101600000D01*
X81280000Y-86360000D02*
X82310000Y-85330000D01*
X92482796Y-85330000D02*
X93062796Y-85910000D01*
%TO.N,/Vdark*%
X83029525Y-75475780D02*
X66660490Y-75475780D01*
X106493274Y-66040000D02*
X98423274Y-74110000D01*
X98423274Y-74110000D02*
X84395305Y-74110000D01*
X84395305Y-74110000D02*
X83029525Y-75475780D01*
X111760000Y-66040000D02*
X106493274Y-66040000D01*
%TO.N,/RESET{slash}LED*%
X80730335Y-70065935D02*
X76820490Y-73975780D01*
X96520000Y-88900000D02*
X95795000Y-88175000D01*
X80555000Y-88175000D02*
X78740000Y-86360000D01*
X80730335Y-63898321D02*
X80730335Y-70065935D01*
X95795000Y-88175000D02*
X80555000Y-88175000D01*
D28*
%TO.N,/BAT+*%
X94960000Y-78740000D02*
X71120000Y-78740000D01*
X102620000Y-71080000D02*
X94960000Y-78740000D01*
D30*
%TO.N,/GPIO2{slash}BUSY*%
X137160000Y-102600000D02*
X135602295Y-102600000D01*
X173895000Y-95155000D02*
X173895000Y-100425000D01*
X130958194Y-97955899D02*
X75789406Y-97955899D01*
X173895000Y-100425000D02*
X172720000Y-101600000D01*
X75789406Y-97955899D02*
X72145305Y-101600000D01*
X172720000Y-93980000D02*
X173895000Y-95155000D01*
X135602295Y-102600000D02*
X130958194Y-97955899D01*
X72145305Y-101600000D02*
X71120000Y-101600000D01*
%TO.N,/GPIO1{slash}DC*%
X77248439Y-74700780D02*
X83260669Y-68688550D01*
X64120490Y-73975780D02*
X64845490Y-74700780D01*
X69945000Y-100235000D02*
X71120000Y-99060000D01*
X136140898Y-103775000D02*
X130771797Y-98405899D01*
X64845490Y-74700780D02*
X77248439Y-74700780D01*
X75975802Y-98405899D02*
X71606701Y-102775000D01*
X130771797Y-98405899D02*
X75975802Y-98405899D01*
X141065000Y-103775000D02*
X136140898Y-103775000D01*
X172720000Y-99060000D02*
X172720000Y-96460500D01*
X69945000Y-102086701D02*
X69945000Y-100235000D01*
X70633299Y-102775000D02*
X69945000Y-102086701D01*
X142240000Y-102600000D02*
X141065000Y-103775000D01*
X71606701Y-102775000D02*
X70633299Y-102775000D01*
X83260669Y-68688550D02*
X83260669Y-64119696D01*
%TO.N,/MISO{slash}Vbutton1*%
X104140000Y-66040000D02*
X104140000Y-67756878D01*
X98236878Y-73660000D02*
X83820000Y-73660000D01*
X104140000Y-67756878D02*
X98236878Y-73660000D01*
%TO.N,Net-(D1-CO)*%
X58955914Y-101600000D02*
X68000914Y-92555000D01*
X58420000Y-101600000D02*
X58955914Y-101600000D01*
X115390000Y-63500000D02*
X115990000Y-63500000D01*
X54190000Y-101600000D02*
X58420000Y-101600000D01*
X113950000Y-92555000D02*
X115065000Y-91440000D01*
X115065000Y-91440000D02*
X115065000Y-63825000D01*
X115065000Y-63825000D02*
X115390000Y-63500000D01*
X68000914Y-92555000D02*
X113950000Y-92555000D01*
%TO.N,Net-(D1-DO)*%
X113635000Y-92105000D02*
X114615000Y-91125000D01*
X61134518Y-98785000D02*
X67814518Y-92105000D01*
X58420000Y-99060000D02*
X56880000Y-100600000D01*
X58420000Y-99060000D02*
X58695000Y-98785000D01*
X67814518Y-92105000D02*
X113635000Y-92105000D01*
X114615000Y-63375000D02*
X115490000Y-62500000D01*
X58695000Y-98785000D02*
X61134518Y-98785000D01*
X114615000Y-91125000D02*
X114615000Y-63375000D01*
X115490000Y-62500000D02*
X115890000Y-62500000D01*
X56880000Y-100600000D02*
X54290000Y-100600000D01*
%TO.N,Net-(D2-CO)*%
X124460000Y-68580000D02*
X124460000Y-72570000D01*
X124397778Y-68580000D02*
X119317778Y-63500000D01*
X125550000Y-73660000D02*
X126050000Y-73660000D01*
X124460000Y-72570000D02*
X125550000Y-73660000D01*
X119317778Y-63500000D02*
X117790000Y-63500000D01*
X124460000Y-68580000D02*
X124397778Y-68580000D01*
%TO.N,Net-(D2-DO)*%
X120920000Y-62500000D02*
X117790000Y-62500000D01*
X124460000Y-66040000D02*
X120920000Y-62500000D01*
X125185000Y-71795000D02*
X126050000Y-72660000D01*
X124460000Y-66040000D02*
X125185000Y-66765000D01*
X125185000Y-66765000D02*
X125185000Y-71795000D01*
%TO.N,Net-(D3-CO)*%
X150101903Y-78740000D02*
X158620000Y-87258097D01*
X158620000Y-87258097D02*
X158620000Y-102090000D01*
X158205000Y-103775000D02*
X158570000Y-104140000D01*
X134620000Y-78740000D02*
X150101903Y-78740000D01*
X158570000Y-104140000D02*
X159170000Y-104140000D01*
X129540000Y-73660000D02*
X134620000Y-78740000D01*
X158205000Y-102505000D02*
X158205000Y-103775000D01*
X158620000Y-102090000D02*
X158205000Y-102505000D01*
X127850000Y-73660000D02*
X129540000Y-73660000D01*
%TO.N,Net-(D3-DO)*%
X159070000Y-87071701D02*
X159070000Y-103140000D01*
X150288299Y-78290000D02*
X159070000Y-87071701D01*
X134620000Y-76200000D02*
X134620000Y-76835000D01*
X136075000Y-78290000D02*
X150288299Y-78290000D01*
X134620000Y-76200000D02*
X132716396Y-76200000D01*
X134620000Y-76835000D02*
X136075000Y-78290000D01*
X132716396Y-76200000D02*
X129176396Y-72660000D01*
X129176396Y-72660000D02*
X127950000Y-72660000D01*
%TO.N,Net-(D4-CO)*%
X161420000Y-102090000D02*
X161420000Y-95756396D01*
X160870000Y-104140000D02*
X161470000Y-104140000D01*
X185417637Y-78742363D02*
X185874305Y-78742363D01*
X161470000Y-104140000D02*
X161795000Y-103815000D01*
X161795000Y-103815000D02*
X161795000Y-102465000D01*
X175896396Y-81280000D02*
X182880000Y-81280000D01*
X161795000Y-102465000D02*
X161420000Y-102090000D01*
X182880000Y-81280000D02*
X185417637Y-78742363D01*
X161420000Y-95756396D02*
X175896396Y-81280000D01*
%TO.N,Net-(D4-DO)*%
X184875274Y-77742363D02*
X183877637Y-78740000D01*
X180790000Y-80830000D02*
X175710000Y-80830000D01*
X175710000Y-80830000D02*
X160970000Y-95570000D01*
X183877637Y-78740000D02*
X182880000Y-78740000D01*
X160970000Y-95570000D02*
X160970000Y-103140000D01*
X185774305Y-77742363D02*
X184875274Y-77742363D01*
X182880000Y-78740000D02*
X180790000Y-80830000D01*
D28*
%TO.N,/Vmeasure*%
X66170000Y-72900000D02*
X69680000Y-72900000D01*
D30*
X69200490Y-73975780D02*
X69200490Y-73379510D01*
D31*
%TO.N,/sw_+3V3*%
X132080000Y-101600000D02*
X135430000Y-104950000D01*
D29*
X95912342Y-65432342D02*
X95912342Y-65226574D01*
D31*
X152590000Y-104950000D02*
X154940000Y-102600000D01*
X99060000Y-68580000D02*
X95912342Y-65432342D01*
X135430000Y-104950000D02*
X152590000Y-104950000D01*
D30*
%TO.N,/ls_MOSI*%
X58119695Y-98335000D02*
X56529695Y-99925000D01*
X86360000Y-90682652D02*
X85387652Y-91655000D01*
X86360000Y-88900000D02*
X86360000Y-90682652D01*
X60948122Y-98335000D02*
X58119695Y-98335000D01*
X67628122Y-91655000D02*
X60948122Y-98335000D01*
X85387652Y-91655000D02*
X67628122Y-91655000D01*
X53065000Y-99925000D02*
X52390000Y-100600000D01*
X56529695Y-99925000D02*
X53065000Y-99925000D01*
%TO.N,/ls_SCLK*%
X51890000Y-101600000D02*
X52240000Y-101600000D01*
X51565000Y-101275000D02*
X51890000Y-101600000D01*
X67441726Y-91205000D02*
X60761726Y-97885000D01*
X57933299Y-97885000D02*
X56343299Y-99475000D01*
X83820000Y-90930500D02*
X83545500Y-91205000D01*
X60761726Y-97885000D02*
X57933299Y-97885000D01*
X52013604Y-99475000D02*
X51565000Y-99923604D01*
X83545500Y-91205000D02*
X67441726Y-91205000D01*
X51565000Y-99923604D02*
X51565000Y-101275000D01*
X56343299Y-99475000D02*
X52013604Y-99475000D01*
%TD*%
%TA.AperFunction,Conductor*%
%TO.N,GND*%
G36*
X151940507Y-102809844D02*
G01*
X152018239Y-102930798D01*
X152126900Y-103024952D01*
X152257685Y-103084680D01*
X152272411Y-103086797D01*
X151634310Y-103724898D01*
X151654694Y-103740763D01*
X151654696Y-103740765D01*
X151772811Y-103804686D01*
X151823201Y-103854700D01*
X151838553Y-103924017D01*
X151813992Y-103990630D01*
X151757317Y-104033389D01*
X151712841Y-104041500D01*
X150548212Y-104041500D01*
X150480091Y-104021498D01*
X150433598Y-103967842D01*
X150423494Y-103897568D01*
X150452988Y-103832988D01*
X150488243Y-103804686D01*
X150495226Y-103800907D01*
X150605576Y-103741189D01*
X150783240Y-103602906D01*
X150935722Y-103437268D01*
X151024816Y-103300898D01*
X151078819Y-103254810D01*
X151149167Y-103245235D01*
X151213524Y-103275212D01*
X151235782Y-103300898D01*
X151276922Y-103363866D01*
X151915638Y-102725149D01*
X151940507Y-102809844D01*
G37*
%TD.AperFunction*%
%TA.AperFunction,Conductor*%
G36*
X67393225Y-99735669D02*
G01*
X67415480Y-99761353D01*
X67448607Y-99812058D01*
X67504275Y-99897265D01*
X67504279Y-99897270D01*
X67656762Y-100062908D01*
X67711331Y-100105381D01*
X67834424Y-100201189D01*
X67867680Y-100219186D01*
X67918071Y-100269200D01*
X67933423Y-100338516D01*
X67908862Y-100405129D01*
X67867680Y-100440813D01*
X67848501Y-100451193D01*
X67834426Y-100458810D01*
X67834424Y-100458811D01*
X67656762Y-100597091D01*
X67504279Y-100762729D01*
X67415183Y-100899102D01*
X67361179Y-100945190D01*
X67290831Y-100954765D01*
X67226474Y-100924788D01*
X67204218Y-100899102D01*
X67163077Y-100836132D01*
X67163075Y-100836132D01*
X66524360Y-101474846D01*
X66499493Y-101390156D01*
X66421761Y-101269202D01*
X66313100Y-101175048D01*
X66182315Y-101115320D01*
X66167587Y-101113202D01*
X66805689Y-100475100D01*
X66805688Y-100475099D01*
X66785306Y-100459235D01*
X66785294Y-100459227D01*
X66751792Y-100441097D01*
X66701402Y-100391084D01*
X66686050Y-100321767D01*
X66710611Y-100255154D01*
X66751790Y-100219472D01*
X66785576Y-100201189D01*
X66963240Y-100062906D01*
X67115722Y-99897268D01*
X67204518Y-99761354D01*
X67258520Y-99715268D01*
X67328868Y-99705692D01*
X67393225Y-99735669D01*
G37*
%TD.AperFunction*%
%TA.AperFunction,Conductor*%
G36*
X129293527Y-74313502D02*
G01*
X129314501Y-74330405D01*
X133672877Y-78688782D01*
X133706903Y-78751094D01*
X133709092Y-78764706D01*
X133726457Y-78929927D01*
X133756526Y-79022470D01*
X133785473Y-79111556D01*
X133785476Y-79111561D01*
X133880958Y-79276941D01*
X133880965Y-79276951D01*
X134008744Y-79418864D01*
X134008747Y-79418866D01*
X134163248Y-79531118D01*
X134337712Y-79608794D01*
X134524513Y-79648500D01*
X134715487Y-79648500D01*
X134902288Y-79608794D01*
X135076752Y-79531118D01*
X135231253Y-79418866D01*
X135234562Y-79415190D01*
X135295009Y-79377950D01*
X135328200Y-79373500D01*
X149787309Y-79373500D01*
X149855430Y-79393502D01*
X149876404Y-79410405D01*
X157949595Y-87483596D01*
X157983621Y-87545908D01*
X157986500Y-87572691D01*
X157986500Y-100529873D01*
X157966498Y-100597994D01*
X157912842Y-100644487D01*
X157842568Y-100654591D01*
X157823925Y-100650448D01*
X157700780Y-100613093D01*
X157677701Y-100606092D01*
X157633314Y-100601720D01*
X157590644Y-100597517D01*
X157524812Y-100570934D01*
X157513900Y-100561219D01*
X155861908Y-98909227D01*
X155849936Y-98895375D01*
X155845176Y-98888981D01*
X155835469Y-98875942D01*
X155834332Y-98874988D01*
X155795024Y-98842003D01*
X155790970Y-98838289D01*
X155785104Y-98832423D01*
X155785101Y-98832420D01*
X155775555Y-98824871D01*
X155759810Y-98812421D01*
X155758392Y-98811266D01*
X155699635Y-98761964D01*
X155693506Y-98757933D01*
X155693541Y-98757878D01*
X155687187Y-98753829D01*
X155687153Y-98753886D01*
X155680906Y-98750033D01*
X155611375Y-98717609D01*
X155609742Y-98716819D01*
X155541188Y-98682391D01*
X155541186Y-98682390D01*
X155541183Y-98682389D01*
X155534289Y-98679880D01*
X155534311Y-98679817D01*
X155527189Y-98677341D01*
X155527169Y-98677404D01*
X155520210Y-98675097D01*
X155445045Y-98659576D01*
X155443258Y-98659180D01*
X155368656Y-98641500D01*
X155361367Y-98640648D01*
X155361374Y-98640580D01*
X155353877Y-98639814D01*
X155353872Y-98639881D01*
X155346558Y-98639241D01*
X155269825Y-98641473D01*
X155267993Y-98641500D01*
X134854630Y-98641500D01*
X134786509Y-98621498D01*
X134765535Y-98604595D01*
X131542422Y-95381482D01*
X138985500Y-95381482D01*
X139024692Y-95641506D01*
X139024693Y-95641514D01*
X139102204Y-95892793D01*
X139216299Y-96129712D01*
X139216303Y-96129719D01*
X139349212Y-96324660D01*
X139364430Y-96346980D01*
X139364435Y-96346985D01*
X139543285Y-96539742D01*
X139543289Y-96539745D01*
X139543290Y-96539746D01*
X139748883Y-96703701D01*
X139748886Y-96703703D01*
X139976618Y-96835184D01*
X139976622Y-96835186D01*
X140207899Y-96925954D01*
X140221402Y-96931254D01*
X140477772Y-96989769D01*
X140674346Y-97004500D01*
X140674348Y-97004500D01*
X143805652Y-97004500D01*
X143805654Y-97004500D01*
X144002228Y-96989769D01*
X144258598Y-96931254D01*
X144412787Y-96870739D01*
X144503377Y-96835186D01*
X144503381Y-96835184D01*
X144503380Y-96835184D01*
X144503384Y-96835183D01*
X144731117Y-96703701D01*
X144936710Y-96539746D01*
X145115570Y-96346980D01*
X145263702Y-96129710D01*
X145377798Y-95892788D01*
X145455308Y-95641508D01*
X145494500Y-95381482D01*
X145494500Y-95118518D01*
X145455308Y-94858492D01*
X145377798Y-94607212D01*
X145263702Y-94370290D01*
X145263700Y-94370287D01*
X145263696Y-94370280D01*
X145115574Y-94153026D01*
X145115570Y-94153020D01*
X145068626Y-94102426D01*
X144936714Y-93960257D01*
X144903550Y-93933809D01*
X144731117Y-93796299D01*
X144731112Y-93796296D01*
X144731113Y-93796296D01*
X144503381Y-93664815D01*
X144503377Y-93664813D01*
X144258602Y-93568747D01*
X144258599Y-93568746D01*
X144002231Y-93510231D01*
X143884283Y-93501392D01*
X143805654Y-93495500D01*
X140674346Y-93495500D01*
X140608821Y-93500410D01*
X140477768Y-93510231D01*
X140221400Y-93568746D01*
X140221397Y-93568747D01*
X139976622Y-93664813D01*
X139976618Y-93664815D01*
X139748886Y-93796296D01*
X139543285Y-93960257D01*
X139364435Y-94153014D01*
X139364425Y-94153026D01*
X139216303Y-94370280D01*
X139216299Y-94370287D01*
X139102204Y-94607206D01*
X139102202Y-94607211D01*
X139102202Y-94607212D01*
X139098220Y-94620122D01*
X139024693Y-94858485D01*
X139024692Y-94858491D01*
X139024692Y-94858492D01*
X138985500Y-95118518D01*
X138985500Y-95381482D01*
X131542422Y-95381482D01*
X128800167Y-92639227D01*
X128788195Y-92625375D01*
X128776079Y-92609100D01*
X128773728Y-92605942D01*
X128766044Y-92599494D01*
X128733283Y-92572003D01*
X128729229Y-92568289D01*
X128723363Y-92562423D01*
X128723360Y-92562420D01*
X128713814Y-92554871D01*
X128698069Y-92542421D01*
X128696651Y-92541266D01*
X128637894Y-92491964D01*
X128631765Y-92487933D01*
X128631800Y-92487878D01*
X128625446Y-92483829D01*
X128625412Y-92483886D01*
X128619165Y-92480033D01*
X128549634Y-92447609D01*
X128548001Y-92446819D01*
X128479447Y-92412391D01*
X128479445Y-92412390D01*
X128479442Y-92412389D01*
X128472548Y-92409880D01*
X128472570Y-92409817D01*
X128465448Y-92407341D01*
X128465428Y-92407404D01*
X128458469Y-92405097D01*
X128383304Y-92389576D01*
X128381517Y-92389180D01*
X128306915Y-92371500D01*
X128299626Y-92370648D01*
X128299633Y-92370580D01*
X128292136Y-92369814D01*
X128292131Y-92369881D01*
X128284817Y-92369241D01*
X128208084Y-92371473D01*
X128206252Y-92371500D01*
X117024500Y-92371500D01*
X116956379Y-92351498D01*
X116909886Y-92297842D01*
X116898500Y-92245500D01*
X116898500Y-87925654D01*
X132865500Y-87925654D01*
X132869214Y-87975214D01*
X132880231Y-88122231D01*
X132938746Y-88378599D01*
X132938747Y-88378602D01*
X133034813Y-88623377D01*
X133034815Y-88623381D01*
X133166296Y-88851113D01*
X133166298Y-88851116D01*
X133166299Y-88851117D01*
X133192581Y-88884074D01*
X133330257Y-89056714D01*
X133428456Y-89147828D01*
X133523020Y-89235570D01*
X133523026Y-89235574D01*
X133740280Y-89383696D01*
X133740287Y-89383700D01*
X133740290Y-89383702D01*
X133977212Y-89497798D01*
X134195039Y-89564989D01*
X134228485Y-89575306D01*
X134228492Y-89575308D01*
X134488518Y-89614500D01*
X134488522Y-89614500D01*
X134751478Y-89614500D01*
X134751482Y-89614500D01*
X135011508Y-89575308D01*
X135262788Y-89497798D01*
X135499710Y-89383702D01*
X135504517Y-89380425D01*
X135541810Y-89354999D01*
X135716980Y-89235570D01*
X135909746Y-89056710D01*
X136073701Y-88851117D01*
X136205183Y-88623384D01*
X136208113Y-88615920D01*
X136253591Y-88500041D01*
X136301254Y-88378598D01*
X136359769Y-88122228D01*
X136374500Y-87925654D01*
X136374500Y-84794346D01*
X136359769Y-84597772D01*
X136301254Y-84341402D01*
X136261944Y-84241241D01*
X136205186Y-84096622D01*
X136205184Y-84096618D01*
X136073703Y-83868886D01*
X136034715Y-83819997D01*
X135909746Y-83663290D01*
X135909745Y-83663289D01*
X135909742Y-83663285D01*
X135745712Y-83511089D01*
X135716980Y-83484430D01*
X135705346Y-83476498D01*
X135499719Y-83336303D01*
X135499712Y-83336299D01*
X135262793Y-83222204D01*
X135262790Y-83222203D01*
X135262788Y-83222202D01*
X135144112Y-83185595D01*
X135011514Y-83144693D01*
X135011509Y-83144692D01*
X135011508Y-83144692D01*
X134751482Y-83105500D01*
X134488518Y-83105500D01*
X134228492Y-83144692D01*
X134228491Y-83144692D01*
X134228485Y-83144693D01*
X133977206Y-83222204D01*
X133740287Y-83336299D01*
X133740280Y-83336303D01*
X133523026Y-83484425D01*
X133523014Y-83484435D01*
X133330257Y-83663285D01*
X133166296Y-83868886D01*
X133034815Y-84096618D01*
X133034813Y-84096622D01*
X132938747Y-84341397D01*
X132938746Y-84341400D01*
X132880231Y-84597768D01*
X132880231Y-84597772D01*
X132865500Y-84794346D01*
X132865500Y-87925654D01*
X116898500Y-87925654D01*
X116898500Y-85239924D01*
X116918502Y-85171803D01*
X116935405Y-85150828D01*
X117220830Y-84865404D01*
X117283142Y-84831379D01*
X117309925Y-84828500D01*
X118096494Y-84828500D01*
X118164615Y-84848502D01*
X118211108Y-84902158D01*
X118221212Y-84972432D01*
X118191718Y-85037012D01*
X118172004Y-85055368D01*
X118116737Y-85096740D01*
X118029112Y-85213792D01*
X118029110Y-85213797D01*
X117978011Y-85350795D01*
X117978009Y-85350803D01*
X117971500Y-85411350D01*
X117971500Y-87308649D01*
X117978009Y-87369196D01*
X117978011Y-87369204D01*
X118029110Y-87506202D01*
X118029112Y-87506207D01*
X118116738Y-87623261D01*
X118233792Y-87710887D01*
X118233794Y-87710888D01*
X118233796Y-87710889D01*
X118292875Y-87732924D01*
X118370795Y-87761988D01*
X118370803Y-87761990D01*
X118431350Y-87768499D01*
X118431355Y-87768499D01*
X118431362Y-87768500D01*
X118431368Y-87768500D01*
X120328632Y-87768500D01*
X120328638Y-87768500D01*
X120328645Y-87768499D01*
X120328649Y-87768499D01*
X120389196Y-87761990D01*
X120389199Y-87761989D01*
X120389201Y-87761989D01*
X120526204Y-87710889D01*
X120539018Y-87701297D01*
X120643261Y-87623261D01*
X120730887Y-87506207D01*
X120730887Y-87506206D01*
X120730889Y-87506204D01*
X120781989Y-87369201D01*
X120782984Y-87359953D01*
X120788499Y-87308649D01*
X120788500Y-87308632D01*
X120788500Y-85411367D01*
X120788499Y-85411350D01*
X120781990Y-85350803D01*
X120781988Y-85350795D01*
X120730889Y-85213797D01*
X120730887Y-85213792D01*
X120643261Y-85096738D01*
X120526207Y-85009112D01*
X120526204Y-85009111D01*
X120458824Y-84983979D01*
X120401989Y-84941432D01*
X120377179Y-84874911D01*
X120392271Y-84805538D01*
X120410156Y-84780588D01*
X120495314Y-84688083D01*
X120622984Y-84492669D01*
X120716749Y-84278907D01*
X120774051Y-84052626D01*
X120793327Y-83820000D01*
X120774051Y-83587374D01*
X120764907Y-83551264D01*
X120716750Y-83361096D01*
X120716747Y-83361089D01*
X120715457Y-83358149D01*
X120622984Y-83147331D01*
X120595655Y-83105500D01*
X120495314Y-82951916D01*
X120337225Y-82780186D01*
X120337214Y-82780176D01*
X120187109Y-82663343D01*
X120145638Y-82605718D01*
X120138500Y-82563912D01*
X120138500Y-76372000D01*
X120158502Y-76303879D01*
X120212158Y-76257386D01*
X120264500Y-76246000D01*
X124740934Y-76246000D01*
X124760380Y-76248272D01*
X124760412Y-76248001D01*
X124767697Y-76248852D01*
X124767699Y-76248853D01*
X124767701Y-76248853D01*
X124774989Y-76249705D01*
X124774981Y-76249772D01*
X124782477Y-76250538D01*
X124782483Y-76250472D01*
X124789789Y-76251110D01*
X124789797Y-76251112D01*
X124836337Y-76249757D01*
X124866530Y-76248880D01*
X124868362Y-76248853D01*
X127055206Y-76248853D01*
X127073466Y-76250183D01*
X127078362Y-76250900D01*
X127097436Y-76253694D01*
X127130793Y-76250775D01*
X127150032Y-76249093D01*
X127155525Y-76248853D01*
X127163822Y-76248853D01*
X127163827Y-76248853D01*
X127185877Y-76246275D01*
X127195829Y-76245112D01*
X127197632Y-76244927D01*
X127274073Y-76238240D01*
X127274077Y-76238238D01*
X127281265Y-76236755D01*
X127281278Y-76236821D01*
X127288634Y-76235189D01*
X127288619Y-76235124D01*
X127295749Y-76233433D01*
X127295760Y-76233432D01*
X127367886Y-76207179D01*
X127369509Y-76206614D01*
X127442385Y-76182467D01*
X127442394Y-76182461D01*
X127449036Y-76179365D01*
X127449065Y-76179427D01*
X127455850Y-76176142D01*
X127455820Y-76176082D01*
X127462371Y-76172790D01*
X127462379Y-76172788D01*
X127526530Y-76130593D01*
X127527995Y-76129660D01*
X127593298Y-76089383D01*
X127593306Y-76089374D01*
X127599055Y-76084830D01*
X127599097Y-76084884D01*
X127604936Y-76080128D01*
X127604893Y-76080076D01*
X127610511Y-76075360D01*
X127610521Y-76075354D01*
X127663215Y-76019500D01*
X127664413Y-76018266D01*
X128106332Y-75576347D01*
X128168642Y-75542323D01*
X128168999Y-75542246D01*
X128232288Y-75528794D01*
X128232288Y-75528793D01*
X128232292Y-75528793D01*
X128238568Y-75526754D01*
X128238877Y-75527707D01*
X128282191Y-75518500D01*
X128498632Y-75518500D01*
X128498638Y-75518500D01*
X128498645Y-75518499D01*
X128498649Y-75518499D01*
X128559196Y-75511990D01*
X128559199Y-75511989D01*
X128559201Y-75511989D01*
X128696204Y-75460889D01*
X128745755Y-75423796D01*
X128813261Y-75373261D01*
X128900887Y-75256207D01*
X128900887Y-75256206D01*
X128900889Y-75256204D01*
X128951989Y-75119201D01*
X128953872Y-75101693D01*
X128958499Y-75058649D01*
X128958500Y-75058632D01*
X128958500Y-74419500D01*
X128978502Y-74351379D01*
X129032158Y-74304886D01*
X129084500Y-74293500D01*
X129225406Y-74293500D01*
X129293527Y-74313502D01*
G37*
%TD.AperFunction*%
%TA.AperFunction,Conductor*%
G36*
X75862706Y-94358502D02*
G01*
X75909199Y-94412158D01*
X75919894Y-94477669D01*
X75912466Y-94548352D01*
X75906986Y-94600490D01*
X75926947Y-94790417D01*
X75949064Y-94858485D01*
X75985963Y-94972046D01*
X75985966Y-94972051D01*
X76081448Y-95137431D01*
X76081455Y-95137441D01*
X76209234Y-95279354D01*
X76209237Y-95279356D01*
X76363738Y-95391608D01*
X76538202Y-95469284D01*
X76725003Y-95508990D01*
X76780896Y-95508990D01*
X76849017Y-95528992D01*
X76869991Y-95545895D01*
X78431399Y-97107304D01*
X78465425Y-97169616D01*
X78460360Y-97240432D01*
X78417813Y-97297267D01*
X78351293Y-97322078D01*
X78342304Y-97322399D01*
X75873259Y-97322399D01*
X75857417Y-97320649D01*
X75857390Y-97320943D01*
X75849497Y-97320197D01*
X75780430Y-97322368D01*
X75778451Y-97322399D01*
X75749550Y-97322399D01*
X75749546Y-97322399D01*
X75749536Y-97322400D01*
X75742585Y-97323278D01*
X75736673Y-97323743D01*
X75689519Y-97325225D01*
X75689517Y-97325226D01*
X75670062Y-97330877D01*
X75650709Y-97334885D01*
X75630617Y-97337423D01*
X75630610Y-97337424D01*
X75630609Y-97337425D01*
X75630607Y-97337425D01*
X75630606Y-97337426D01*
X75586745Y-97354791D01*
X75581130Y-97356714D01*
X75535813Y-97369881D01*
X75518370Y-97380196D01*
X75500624Y-97388889D01*
X75481788Y-97396347D01*
X75443615Y-97424080D01*
X75438654Y-97427339D01*
X75398044Y-97451357D01*
X75383717Y-97465683D01*
X75368691Y-97478516D01*
X75352301Y-97490424D01*
X75352299Y-97490426D01*
X75322214Y-97526791D01*
X75318218Y-97531182D01*
X72236306Y-100613093D01*
X72173994Y-100647119D01*
X72103179Y-100642054D01*
X72054513Y-100609339D01*
X72046553Y-100600693D01*
X72043240Y-100597094D01*
X72043239Y-100597093D01*
X72043237Y-100597091D01*
X72008436Y-100570004D01*
X71966966Y-100512379D01*
X71963233Y-100441480D01*
X71998423Y-100379819D01*
X72036763Y-100356669D01*
X72036086Y-100355217D01*
X72042728Y-100352118D01*
X72042738Y-100352115D01*
X72193652Y-100259030D01*
X72319030Y-100133652D01*
X72412115Y-99982738D01*
X72467887Y-99814426D01*
X72478500Y-99710545D01*
X72478499Y-98409456D01*
X72476306Y-98387993D01*
X72467887Y-98305574D01*
X72440436Y-98222732D01*
X72412115Y-98137262D01*
X72319030Y-97986348D01*
X72319029Y-97986347D01*
X72319024Y-97986341D01*
X72193658Y-97860975D01*
X72193652Y-97860970D01*
X72177811Y-97851199D01*
X72042738Y-97767885D01*
X71942364Y-97734625D01*
X71874427Y-97712113D01*
X71874420Y-97712112D01*
X71770553Y-97701500D01*
X70469455Y-97701500D01*
X70365574Y-97712112D01*
X70197261Y-97767885D01*
X70046347Y-97860970D01*
X70046341Y-97860975D01*
X69920975Y-97986341D01*
X69920970Y-97986347D01*
X69827883Y-98137266D01*
X69824783Y-98143914D01*
X69822878Y-98143025D01*
X69788389Y-98192822D01*
X69722828Y-98220067D01*
X69652945Y-98207541D01*
X69616515Y-98180142D01*
X69503237Y-98057091D01*
X69421382Y-97993381D01*
X69325576Y-97918811D01*
X69127574Y-97811658D01*
X69127572Y-97811657D01*
X69127571Y-97811656D01*
X68914639Y-97738557D01*
X68914630Y-97738555D01*
X68870476Y-97731187D01*
X68692569Y-97701500D01*
X68467431Y-97701500D01*
X68319211Y-97726233D01*
X68245369Y-97738555D01*
X68245360Y-97738557D01*
X68032428Y-97811656D01*
X68032426Y-97811658D01*
X67834426Y-97918810D01*
X67834424Y-97918811D01*
X67656762Y-98057091D01*
X67504279Y-98222729D01*
X67415483Y-98358643D01*
X67361479Y-98404731D01*
X67291131Y-98414306D01*
X67226774Y-98384329D01*
X67204517Y-98358643D01*
X67115720Y-98222729D01*
X66963237Y-98057091D01*
X66881382Y-97993381D01*
X66785576Y-97918811D01*
X66587574Y-97811658D01*
X66587572Y-97811657D01*
X66587571Y-97811656D01*
X66374639Y-97738557D01*
X66374630Y-97738555D01*
X66330476Y-97731187D01*
X66152569Y-97701500D01*
X65927431Y-97701500D01*
X65779210Y-97726233D01*
X65705369Y-97738555D01*
X65705356Y-97738558D01*
X65622284Y-97767077D01*
X65551360Y-97770277D01*
X65489965Y-97734625D01*
X65457591Y-97671439D01*
X65464517Y-97600781D01*
X65492276Y-97558811D01*
X68402006Y-94649081D01*
X68464316Y-94615057D01*
X68535131Y-94620122D01*
X68584732Y-94653864D01*
X68589234Y-94658864D01*
X68589237Y-94658866D01*
X68743738Y-94771118D01*
X68918202Y-94848794D01*
X69105003Y-94888500D01*
X69295977Y-94888500D01*
X69482778Y-94848794D01*
X69657242Y-94771118D01*
X69811743Y-94658866D01*
X69815052Y-94655190D01*
X69875499Y-94617950D01*
X69908690Y-94613500D01*
X71036147Y-94613500D01*
X71051988Y-94615249D01*
X71052016Y-94614956D01*
X71059901Y-94615700D01*
X71059909Y-94615702D01*
X71121208Y-94613775D01*
X71128976Y-94613531D01*
X71130955Y-94613500D01*
X71159851Y-94613500D01*
X71159856Y-94613500D01*
X71166818Y-94612619D01*
X71172719Y-94612154D01*
X71219889Y-94610673D01*
X71239347Y-94605019D01*
X71258694Y-94601013D01*
X71278797Y-94598474D01*
X71279457Y-94598213D01*
X71292165Y-94593181D01*
X71322679Y-94581099D01*
X71328274Y-94579183D01*
X71356816Y-94570891D01*
X71373591Y-94566019D01*
X71373595Y-94566017D01*
X71391026Y-94555708D01*
X71408780Y-94547009D01*
X71427617Y-94539552D01*
X71465786Y-94511818D01*
X71470744Y-94508562D01*
X71511362Y-94484542D01*
X71525685Y-94470218D01*
X71540724Y-94457374D01*
X71557107Y-94445472D01*
X71587187Y-94409109D01*
X71591166Y-94404736D01*
X71620501Y-94375402D01*
X71682813Y-94341379D01*
X71709594Y-94338500D01*
X75794585Y-94338500D01*
X75862706Y-94358502D01*
G37*
%TD.AperFunction*%
%TA.AperFunction,Conductor*%
G36*
X78216692Y-94358502D02*
G01*
X78245653Y-94384181D01*
X78247997Y-94387013D01*
X78248000Y-94387018D01*
X78274772Y-94412158D01*
X78298372Y-94434320D01*
X78299761Y-94435666D01*
X78309565Y-94445470D01*
X78320224Y-94456130D01*
X78320228Y-94456133D01*
X78320230Y-94456135D01*
X78325782Y-94460442D01*
X78330269Y-94464273D01*
X78351852Y-94484541D01*
X78364677Y-94496585D01*
X78364679Y-94496586D01*
X78382428Y-94506343D01*
X78398954Y-94517199D01*
X78409420Y-94525318D01*
X78414959Y-94529614D01*
X78455149Y-94547005D01*
X78458262Y-94548352D01*
X78463583Y-94550958D01*
X78504940Y-94573695D01*
X78504948Y-94573697D01*
X78524558Y-94578732D01*
X78543267Y-94585137D01*
X78561855Y-94593181D01*
X78608477Y-94600564D01*
X78614262Y-94601763D01*
X78659970Y-94613500D01*
X78680224Y-94613500D01*
X78699934Y-94615051D01*
X78702141Y-94615400D01*
X78719943Y-94618220D01*
X78754472Y-94614956D01*
X78766917Y-94613780D01*
X78772850Y-94613500D01*
X90731800Y-94613500D01*
X90799921Y-94633502D01*
X90825437Y-94655190D01*
X90828747Y-94658866D01*
X90983248Y-94771118D01*
X91157712Y-94848794D01*
X91344513Y-94888500D01*
X91535487Y-94888500D01*
X91722288Y-94848794D01*
X91896752Y-94771118D01*
X92051253Y-94658866D01*
X92054562Y-94655190D01*
X92115009Y-94617950D01*
X92148200Y-94613500D01*
X127940493Y-94613500D01*
X128008614Y-94633502D01*
X128029588Y-94650405D01*
X130036487Y-96657304D01*
X130070513Y-96719616D01*
X130065448Y-96790431D01*
X130022901Y-96847267D01*
X129956381Y-96872078D01*
X129947392Y-96872399D01*
X80040493Y-96872399D01*
X79972372Y-96852397D01*
X79951398Y-96835494D01*
X78863408Y-95747504D01*
X77767609Y-94651704D01*
X77733585Y-94589395D01*
X77731398Y-94575799D01*
X77721085Y-94477668D01*
X77733858Y-94407831D01*
X77782360Y-94355985D01*
X77846395Y-94338500D01*
X78148571Y-94338500D01*
X78216692Y-94358502D01*
G37*
%TD.AperFunction*%
%TA.AperFunction,Conductor*%
G36*
X78074641Y-87000122D02*
G01*
X78124242Y-87033864D01*
X78128744Y-87038864D01*
X78128747Y-87038866D01*
X78283248Y-87151118D01*
X78457712Y-87228794D01*
X78644513Y-87268500D01*
X78700406Y-87268500D01*
X78768527Y-87288502D01*
X78789501Y-87305405D01*
X80047753Y-88563657D01*
X80057720Y-88576097D01*
X80057947Y-88575910D01*
X80062999Y-88582017D01*
X80063000Y-88582018D01*
X80107047Y-88623381D01*
X80113388Y-88629335D01*
X80114777Y-88630681D01*
X80135231Y-88651135D01*
X80140770Y-88655431D01*
X80145282Y-88659285D01*
X80179678Y-88691585D01*
X80179682Y-88691588D01*
X80197430Y-88701345D01*
X80213957Y-88712201D01*
X80229960Y-88724614D01*
X80273259Y-88743351D01*
X80278585Y-88745960D01*
X80319935Y-88768693D01*
X80319938Y-88768694D01*
X80319940Y-88768695D01*
X80339562Y-88773733D01*
X80358263Y-88780135D01*
X80370814Y-88785567D01*
X80376852Y-88788180D01*
X80376853Y-88788180D01*
X80376855Y-88788181D01*
X80423477Y-88795564D01*
X80429262Y-88796763D01*
X80474970Y-88808500D01*
X80495224Y-88808500D01*
X80514934Y-88810051D01*
X80517141Y-88810400D01*
X80534943Y-88813220D01*
X80568870Y-88810012D01*
X80581917Y-88808780D01*
X80587850Y-88808500D01*
X85323428Y-88808500D01*
X85391549Y-88828502D01*
X85438042Y-88882158D01*
X85448738Y-88921330D01*
X85466457Y-89089927D01*
X85485271Y-89147828D01*
X85525473Y-89271556D01*
X85525476Y-89271561D01*
X85620958Y-89436942D01*
X85620959Y-89436944D01*
X85694135Y-89518214D01*
X85724853Y-89582221D01*
X85726499Y-89602524D01*
X85726499Y-90368057D01*
X85706497Y-90436178D01*
X85689595Y-90457152D01*
X85162150Y-90984596D01*
X85099840Y-91018620D01*
X85073057Y-91021500D01*
X84856519Y-91021500D01*
X84788398Y-91001498D01*
X84741905Y-90947842D01*
X84731209Y-90908673D01*
X84713542Y-90740572D01*
X84654527Y-90558944D01*
X84559040Y-90393556D01*
X84559038Y-90393554D01*
X84559034Y-90393548D01*
X84431255Y-90251635D01*
X84276752Y-90139382D01*
X84102288Y-90061706D01*
X83915487Y-90022000D01*
X83724513Y-90022000D01*
X83537711Y-90061706D01*
X83363247Y-90139382D01*
X83208744Y-90251635D01*
X83080965Y-90393548D01*
X83080961Y-90393555D01*
X83014596Y-90508501D01*
X82963213Y-90557494D01*
X82905477Y-90571500D01*
X74703289Y-90571500D01*
X74635168Y-90551498D01*
X74588675Y-90497842D01*
X74578571Y-90427568D01*
X74608065Y-90362988D01*
X74614194Y-90356405D01*
X75443282Y-89527317D01*
X77941516Y-87029081D01*
X78003826Y-86995058D01*
X78074641Y-87000122D01*
G37*
%TD.AperFunction*%
%TA.AperFunction,Conductor*%
G36*
X116086121Y-64278502D02*
G01*
X116132614Y-64332158D01*
X116144000Y-64384500D01*
X116144000Y-65358000D01*
X116438585Y-65358000D01*
X116438597Y-65357999D01*
X116499093Y-65351494D01*
X116635963Y-65300445D01*
X116760117Y-65207503D01*
X116761463Y-65209301D01*
X116812843Y-65181238D01*
X116883660Y-65186294D01*
X116918777Y-65208859D01*
X116919525Y-65207861D01*
X117043792Y-65300887D01*
X117043794Y-65300888D01*
X117043796Y-65300889D01*
X117089589Y-65317969D01*
X117180795Y-65351988D01*
X117180803Y-65351990D01*
X117241350Y-65358499D01*
X117241355Y-65358499D01*
X117241362Y-65358500D01*
X117457809Y-65358500D01*
X117501122Y-65367707D01*
X117501432Y-65366754D01*
X117507708Y-65368793D01*
X117507711Y-65368793D01*
X117507712Y-65368794D01*
X117570769Y-65382197D01*
X117633243Y-65415925D01*
X117633668Y-65416349D01*
X118584595Y-66367276D01*
X118618621Y-66429588D01*
X118621500Y-66456371D01*
X118621500Y-75399982D01*
X118619814Y-75416479D01*
X118619881Y-75416485D01*
X118619241Y-75423796D01*
X118621473Y-75500527D01*
X118621500Y-75502359D01*
X118621500Y-75512570D01*
X118621393Y-75516235D01*
X118620480Y-75531898D01*
X118620908Y-75539225D01*
X118620671Y-75539238D01*
X118621500Y-75548705D01*
X118621500Y-82563912D01*
X118601498Y-82632033D01*
X118572892Y-82663343D01*
X118471842Y-82741995D01*
X118422780Y-82780182D01*
X118422778Y-82780183D01*
X118418668Y-82783383D01*
X118417494Y-82781875D01*
X118361251Y-82809625D01*
X118339594Y-82811500D01*
X116892644Y-82811500D01*
X116886465Y-82811196D01*
X116840003Y-82806620D01*
X116839996Y-82806620D01*
X116642307Y-82826089D01*
X116642298Y-82826091D01*
X116525573Y-82861500D01*
X116452195Y-82883759D01*
X116276995Y-82977405D01*
X116123430Y-83103432D01*
X116093809Y-83139526D01*
X116089655Y-83144109D01*
X115913596Y-83320169D01*
X115851284Y-83354194D01*
X115780468Y-83349130D01*
X115723632Y-83306583D01*
X115698821Y-83240063D01*
X115698500Y-83231074D01*
X115698500Y-64384500D01*
X115718502Y-64316379D01*
X115772158Y-64269886D01*
X115824500Y-64258500D01*
X116018000Y-64258500D01*
X116086121Y-64278502D01*
G37*
%TD.AperFunction*%
%TA.AperFunction,Conductor*%
G36*
X97294197Y-74763502D02*
G01*
X97340690Y-74817158D01*
X97350794Y-74887432D01*
X97321300Y-74952012D01*
X97315171Y-74958595D01*
X94579171Y-77694595D01*
X94516859Y-77728621D01*
X94490076Y-77731500D01*
X71814500Y-77731500D01*
X71746379Y-77711498D01*
X71699886Y-77657842D01*
X71688500Y-77605500D01*
X71688500Y-76981862D01*
X71685761Y-76941475D01*
X71685633Y-76939591D01*
X71640192Y-76756868D01*
X71556533Y-76588186D01*
X71438568Y-76441432D01*
X71304277Y-76333485D01*
X71263716Y-76275217D01*
X71261095Y-76204269D01*
X71297247Y-76143167D01*
X71360695Y-76111310D01*
X71383219Y-76109280D01*
X82945672Y-76109280D01*
X82961513Y-76111029D01*
X82961541Y-76110736D01*
X82969426Y-76111480D01*
X82969434Y-76111482D01*
X83030733Y-76109555D01*
X83038501Y-76109311D01*
X83040480Y-76109280D01*
X83069376Y-76109280D01*
X83069381Y-76109280D01*
X83076343Y-76108399D01*
X83082244Y-76107934D01*
X83129414Y-76106453D01*
X83148872Y-76100799D01*
X83168219Y-76096793D01*
X83188322Y-76094254D01*
X83232204Y-76076879D01*
X83237799Y-76074963D01*
X83266341Y-76066671D01*
X83283116Y-76061799D01*
X83283120Y-76061797D01*
X83300551Y-76051488D01*
X83318305Y-76042789D01*
X83337142Y-76035332D01*
X83375311Y-76007598D01*
X83380269Y-76004342D01*
X83420887Y-75980322D01*
X83435210Y-75965998D01*
X83450249Y-75953154D01*
X83466632Y-75941252D01*
X83496718Y-75904883D01*
X83500686Y-75900521D01*
X84620806Y-74780402D01*
X84683116Y-74746379D01*
X84709899Y-74743500D01*
X97226076Y-74743500D01*
X97294197Y-74763502D01*
G37*
%TD.AperFunction*%
%TA.AperFunction,Conductor*%
G36*
X124442131Y-62478502D02*
G01*
X124463105Y-62495405D01*
X135541359Y-73573660D01*
X135551324Y-73586097D01*
X135551551Y-73585910D01*
X135556603Y-73592017D01*
X135606975Y-73639319D01*
X135608364Y-73640665D01*
X135618612Y-73650913D01*
X135628828Y-73661130D01*
X135628832Y-73661133D01*
X135628834Y-73661135D01*
X135634386Y-73665442D01*
X135638873Y-73669273D01*
X135661563Y-73690581D01*
X135673281Y-73701585D01*
X135673283Y-73701586D01*
X135691032Y-73711343D01*
X135707557Y-73722198D01*
X135723563Y-73734614D01*
X135765290Y-73752670D01*
X135766866Y-73753352D01*
X135772187Y-73755958D01*
X135813544Y-73778695D01*
X135813552Y-73778697D01*
X135833162Y-73783732D01*
X135851871Y-73790137D01*
X135870459Y-73798181D01*
X135917081Y-73805564D01*
X135922866Y-73806763D01*
X135968574Y-73818500D01*
X135988828Y-73818500D01*
X136008538Y-73820051D01*
X136010745Y-73820400D01*
X136028547Y-73823220D01*
X136062474Y-73820012D01*
X136075521Y-73818780D01*
X136081454Y-73818500D01*
X145505101Y-73818500D01*
X145573222Y-73838502D01*
X145594196Y-73855405D01*
X149180196Y-77441405D01*
X149214222Y-77503717D01*
X149209157Y-77574532D01*
X149166610Y-77631368D01*
X149100090Y-77656179D01*
X149091101Y-77656500D01*
X136389595Y-77656500D01*
X136321474Y-77636498D01*
X136300499Y-77619595D01*
X135448930Y-76768025D01*
X135414905Y-76705713D01*
X135419970Y-76634897D01*
X135428908Y-76615928D01*
X135444926Y-76588186D01*
X135454527Y-76571556D01*
X135513542Y-76389928D01*
X135533504Y-76200000D01*
X135513542Y-76010072D01*
X135454527Y-75828444D01*
X135359040Y-75663056D01*
X135359038Y-75663054D01*
X135359034Y-75663048D01*
X135231255Y-75521135D01*
X135076752Y-75408882D01*
X134902288Y-75331206D01*
X134715487Y-75291500D01*
X134524513Y-75291500D01*
X134337711Y-75331206D01*
X134163247Y-75408882D01*
X134008747Y-75521133D01*
X134005437Y-75524810D01*
X133944991Y-75562050D01*
X133911800Y-75566500D01*
X133030990Y-75566500D01*
X132962869Y-75546498D01*
X132941895Y-75529595D01*
X129683640Y-72271339D01*
X129673675Y-72258901D01*
X129673448Y-72259090D01*
X129668397Y-72252984D01*
X129668396Y-72252982D01*
X129618022Y-72205678D01*
X129616633Y-72204332D01*
X129606386Y-72194085D01*
X129596172Y-72183870D01*
X129596168Y-72183866D01*
X129590621Y-72179563D01*
X129586113Y-72175712D01*
X129551721Y-72143417D01*
X129551715Y-72143413D01*
X129533959Y-72133651D01*
X129517443Y-72122802D01*
X129501437Y-72110386D01*
X129469995Y-72096780D01*
X129458136Y-72091648D01*
X129452804Y-72089036D01*
X129411457Y-72066305D01*
X129391832Y-72061266D01*
X129373132Y-72054864D01*
X129354541Y-72046819D01*
X129354539Y-72046818D01*
X129354538Y-72046818D01*
X129307938Y-72039437D01*
X129302125Y-72038233D01*
X129256426Y-72026500D01*
X129236172Y-72026500D01*
X129216462Y-72024949D01*
X129196453Y-72021780D01*
X129196452Y-72021780D01*
X129149479Y-72026220D01*
X129143546Y-72026500D01*
X128936040Y-72026500D01*
X128867919Y-72006498D01*
X128835171Y-71976008D01*
X128813260Y-71946738D01*
X128696207Y-71859112D01*
X128696202Y-71859110D01*
X128559204Y-71808011D01*
X128559196Y-71808009D01*
X128498649Y-71801500D01*
X128498638Y-71801500D01*
X127401362Y-71801500D01*
X127401350Y-71801500D01*
X127340803Y-71808009D01*
X127340795Y-71808011D01*
X127203797Y-71859110D01*
X127203792Y-71859112D01*
X127079525Y-71952139D01*
X127078179Y-71950342D01*
X127026783Y-71978408D01*
X126955968Y-71973343D01*
X126921287Y-71951054D01*
X126920475Y-71952139D01*
X126796207Y-71859112D01*
X126796202Y-71859110D01*
X126659204Y-71808011D01*
X126659196Y-71808009D01*
X126598649Y-71801500D01*
X126598638Y-71801500D01*
X126139595Y-71801500D01*
X126071474Y-71781498D01*
X126050499Y-71764595D01*
X125855404Y-71569499D01*
X125821379Y-71507187D01*
X125818500Y-71480404D01*
X125818500Y-66848853D01*
X125820249Y-66833012D01*
X125819956Y-66832985D01*
X125820700Y-66825098D01*
X125820702Y-66825091D01*
X125818530Y-66756010D01*
X125818499Y-66754028D01*
X125818499Y-66742524D01*
X125818500Y-66725144D01*
X125817620Y-66718186D01*
X125817156Y-66712291D01*
X125815674Y-66665111D01*
X125810017Y-66645642D01*
X125806012Y-66626298D01*
X125803474Y-66606203D01*
X125786100Y-66562322D01*
X125784181Y-66556716D01*
X125771018Y-66511407D01*
X125760706Y-66493970D01*
X125752010Y-66476221D01*
X125744552Y-66457383D01*
X125716812Y-66419203D01*
X125713564Y-66414258D01*
X125689542Y-66373638D01*
X125675214Y-66359310D01*
X125662384Y-66344289D01*
X125650472Y-66327893D01*
X125650469Y-66327891D01*
X125650469Y-66327890D01*
X125614113Y-66297813D01*
X125609721Y-66293817D01*
X125407121Y-66091216D01*
X125373095Y-66028904D01*
X125370908Y-66015306D01*
X125353542Y-65850072D01*
X125294527Y-65668444D01*
X125199040Y-65503056D01*
X125199038Y-65503054D01*
X125199034Y-65503048D01*
X125071255Y-65361135D01*
X124916752Y-65248882D01*
X124742288Y-65171206D01*
X124555487Y-65131500D01*
X124499594Y-65131500D01*
X124431473Y-65111498D01*
X124410499Y-65094595D01*
X121989500Y-62673595D01*
X121955474Y-62611283D01*
X121960539Y-62540467D01*
X122003086Y-62483632D01*
X122069606Y-62458821D01*
X122078595Y-62458500D01*
X124374010Y-62458500D01*
X124442131Y-62478502D01*
G37*
%TD.AperFunction*%
%TA.AperFunction,Conductor*%
G36*
X123450242Y-68549590D02*
G01*
X123503019Y-68581147D01*
X123520185Y-68598313D01*
X123554211Y-68660625D01*
X123556399Y-68674235D01*
X123566458Y-68769928D01*
X123566458Y-68769930D01*
X123566459Y-68769932D01*
X123576938Y-68802181D01*
X123625473Y-68951556D01*
X123625476Y-68951561D01*
X123718579Y-69112821D01*
X123720960Y-69116944D01*
X123794137Y-69198215D01*
X123824853Y-69262220D01*
X123826500Y-69282524D01*
X123826500Y-72486146D01*
X123824751Y-72501988D01*
X123825044Y-72502016D01*
X123824298Y-72509908D01*
X123826469Y-72578974D01*
X123826500Y-72580953D01*
X123826500Y-72609851D01*
X123826501Y-72609872D01*
X123827378Y-72616820D01*
X123827844Y-72622732D01*
X123829326Y-72669888D01*
X123829327Y-72669893D01*
X123834977Y-72689339D01*
X123838986Y-72708697D01*
X123841525Y-72728793D01*
X123841526Y-72728799D01*
X123858893Y-72772662D01*
X123860816Y-72778279D01*
X123873982Y-72823593D01*
X123884294Y-72841031D01*
X123892988Y-72858779D01*
X123900444Y-72877609D01*
X123900450Y-72877620D01*
X123928177Y-72915783D01*
X123931437Y-72920746D01*
X123955460Y-72961365D01*
X123969779Y-72975684D01*
X123982617Y-72990714D01*
X123992156Y-73003843D01*
X123994528Y-73007107D01*
X124014490Y-73023621D01*
X124030886Y-73037185D01*
X124035267Y-73041171D01*
X124567756Y-73573660D01*
X125031043Y-74036947D01*
X125065069Y-74099259D01*
X125060005Y-74170071D01*
X125048505Y-74200904D01*
X125042000Y-74261402D01*
X125042000Y-74406000D01*
X125402009Y-74406000D01*
X125432803Y-74411556D01*
X125433130Y-74410177D01*
X125440799Y-74411989D01*
X125501350Y-74418499D01*
X125501355Y-74418499D01*
X125501362Y-74418500D01*
X125501368Y-74418500D01*
X126178000Y-74418500D01*
X126246121Y-74438502D01*
X126292614Y-74492158D01*
X126304000Y-74544500D01*
X126304000Y-74605853D01*
X126283998Y-74673974D01*
X126230342Y-74720467D01*
X126178000Y-74731853D01*
X124968923Y-74731853D01*
X124949476Y-74729580D01*
X124949445Y-74729852D01*
X124942159Y-74729000D01*
X124942158Y-74729000D01*
X124942157Y-74729000D01*
X124934868Y-74728148D01*
X124934875Y-74728080D01*
X124927379Y-74727314D01*
X124927374Y-74727381D01*
X124920060Y-74726741D01*
X124843327Y-74728973D01*
X124841495Y-74729000D01*
X120264500Y-74729000D01*
X120196379Y-74708998D01*
X120149886Y-74655342D01*
X120138500Y-74603000D01*
X120138500Y-69768525D01*
X120158502Y-69700404D01*
X120212158Y-69653911D01*
X120282432Y-69643807D01*
X120347012Y-69673301D01*
X120356874Y-69682834D01*
X120357196Y-69683181D01*
X120562789Y-69847136D01*
X120562792Y-69847138D01*
X120790524Y-69978619D01*
X120790528Y-69978621D01*
X121021805Y-70069389D01*
X121035308Y-70074689D01*
X121291678Y-70133204D01*
X121488252Y-70147935D01*
X121488254Y-70147935D01*
X121619558Y-70147935D01*
X121619560Y-70147935D01*
X121816134Y-70133204D01*
X122072504Y-70074689D01*
X122226693Y-70014174D01*
X122317283Y-69978621D01*
X122317287Y-69978619D01*
X122317286Y-69978619D01*
X122317290Y-69978618D01*
X122545023Y-69847136D01*
X122750616Y-69683181D01*
X122777775Y-69653911D01*
X122787150Y-69643807D01*
X122929476Y-69490415D01*
X123055416Y-69305693D01*
X123077602Y-69273154D01*
X123077602Y-69273152D01*
X123077608Y-69273145D01*
X123191704Y-69036223D01*
X123269214Y-68784943D01*
X123289333Y-68651459D01*
X123319262Y-68587085D01*
X123379247Y-68549108D01*
X123450242Y-68549590D01*
G37*
%TD.AperFunction*%
%TA.AperFunction,Conductor*%
G36*
X168993225Y-99735669D02*
G01*
X169015480Y-99761353D01*
X169048607Y-99812058D01*
X169104275Y-99897265D01*
X169104279Y-99897270D01*
X169256762Y-100062908D01*
X169311331Y-100105381D01*
X169434424Y-100201189D01*
X169467680Y-100219186D01*
X169518071Y-100269200D01*
X169533423Y-100338516D01*
X169508862Y-100405129D01*
X169467680Y-100440813D01*
X169448501Y-100451193D01*
X169434426Y-100458810D01*
X169434424Y-100458811D01*
X169256762Y-100597091D01*
X169104279Y-100762729D01*
X169015183Y-100899102D01*
X168961179Y-100945190D01*
X168890831Y-100954765D01*
X168826474Y-100924788D01*
X168804218Y-100899102D01*
X168763076Y-100836132D01*
X168124360Y-101474848D01*
X168099493Y-101390156D01*
X168021761Y-101269202D01*
X167913100Y-101175048D01*
X167782315Y-101115320D01*
X167767587Y-101113202D01*
X168405689Y-100475100D01*
X168405688Y-100475099D01*
X168385306Y-100459235D01*
X168385294Y-100459227D01*
X168351792Y-100441097D01*
X168301402Y-100391084D01*
X168286050Y-100321767D01*
X168310611Y-100255154D01*
X168351790Y-100219472D01*
X168385576Y-100201189D01*
X168563240Y-100062906D01*
X168715722Y-99897268D01*
X168804518Y-99761354D01*
X168858520Y-99715268D01*
X168928868Y-99705692D01*
X168993225Y-99735669D01*
G37*
%TD.AperFunction*%
%TA.AperFunction,Conductor*%
G36*
X236198038Y-58430512D02*
G01*
X236216595Y-58430501D01*
X236216596Y-58430502D01*
X236218131Y-58430501D01*
X236221847Y-58430609D01*
X236415904Y-58441965D01*
X236527561Y-58448499D01*
X236534939Y-58449370D01*
X236834556Y-58502879D01*
X236841789Y-58504617D01*
X237132997Y-58593104D01*
X237139982Y-58595686D01*
X237418715Y-58717918D01*
X237425332Y-58721300D01*
X237687684Y-58875559D01*
X237693875Y-58879710D01*
X237936192Y-59063850D01*
X237941849Y-59068702D01*
X238160739Y-59280138D01*
X238165785Y-59285624D01*
X238358203Y-59521420D01*
X238362566Y-59527463D01*
X238525815Y-59784312D01*
X238529432Y-59790824D01*
X238661239Y-60065153D01*
X238664060Y-60072041D01*
X238749423Y-60321558D01*
X238762573Y-60359993D01*
X238764564Y-60367176D01*
X238828413Y-60664748D01*
X238829543Y-60672115D01*
X238841993Y-60805467D01*
X238857165Y-60967982D01*
X238857833Y-60975128D01*
X238858086Y-60982577D01*
X238850422Y-61286820D01*
X238849795Y-61294247D01*
X238806286Y-61595465D01*
X238804786Y-61602766D01*
X238739744Y-61845583D01*
X238731458Y-61876517D01*
X238726041Y-61896738D01*
X238723690Y-61903811D01*
X238610807Y-62186438D01*
X238607638Y-62193184D01*
X238462195Y-62460519D01*
X238458252Y-62466844D01*
X238282276Y-62715154D01*
X238277615Y-62720970D01*
X238073576Y-62946775D01*
X238068260Y-62952000D01*
X237837594Y-63153380D01*
X237834737Y-63155730D01*
X237819430Y-63167585D01*
X237818402Y-63168688D01*
X183075591Y-106511744D01*
X183069842Y-106515796D01*
X182975808Y-106574500D01*
X182950490Y-106586620D01*
X182766769Y-106650546D01*
X182739397Y-106656760D01*
X182721287Y-106658789D01*
X182629225Y-106669108D01*
X182622209Y-106669500D01*
X50801637Y-106669500D01*
X50798427Y-106669417D01*
X50461928Y-106652096D01*
X50455566Y-106651443D01*
X50124182Y-106600284D01*
X50117905Y-106598985D01*
X49793433Y-106514437D01*
X49787320Y-106512508D01*
X49473105Y-106395442D01*
X49467234Y-106392908D01*
X49166536Y-106244535D01*
X49160938Y-106241410D01*
X48876868Y-106063269D01*
X48871618Y-106059591D01*
X48615487Y-105860051D01*
X48607102Y-105853519D01*
X48602255Y-105849329D01*
X48360039Y-105617457D01*
X48355648Y-105612804D01*
X48138231Y-105357530D01*
X48134328Y-105352445D01*
X47943966Y-105076418D01*
X47940600Y-105070963D01*
X47779249Y-104777019D01*
X47776459Y-104771261D01*
X47645796Y-104462450D01*
X47643606Y-104456439D01*
X47626151Y-104399719D01*
X47544982Y-104135954D01*
X47543411Y-104129739D01*
X47521829Y-104021498D01*
X47477843Y-103800886D01*
X47476917Y-103794584D01*
X47463271Y-103651482D01*
X113205500Y-103651482D01*
X113244692Y-103911506D01*
X113244693Y-103911514D01*
X113322204Y-104162793D01*
X113436299Y-104399712D01*
X113436303Y-104399719D01*
X113558713Y-104579260D01*
X113584430Y-104616980D01*
X113602267Y-104636204D01*
X113763285Y-104809742D01*
X113763289Y-104809745D01*
X113763290Y-104809746D01*
X113968883Y-104973701D01*
X113968886Y-104973703D01*
X114196618Y-105105184D01*
X114196622Y-105105186D01*
X114427899Y-105195954D01*
X114441402Y-105201254D01*
X114697772Y-105259769D01*
X114894346Y-105274500D01*
X114894348Y-105274500D01*
X115025652Y-105274500D01*
X115025654Y-105274500D01*
X115222228Y-105259769D01*
X115478598Y-105201254D01*
X115632787Y-105140739D01*
X115723377Y-105105186D01*
X115723381Y-105105184D01*
X115723380Y-105105184D01*
X115723384Y-105105183D01*
X115951117Y-104973701D01*
X116156710Y-104809746D01*
X116335570Y-104616980D01*
X116483702Y-104399710D01*
X116597798Y-104162788D01*
X116675308Y-103911508D01*
X116714500Y-103651482D01*
X116714500Y-103388518D01*
X116675308Y-103128492D01*
X116671412Y-103115863D01*
X116653901Y-103059093D01*
X116597798Y-102877212D01*
X116483702Y-102640290D01*
X116483700Y-102640287D01*
X116483696Y-102640280D01*
X116340562Y-102430342D01*
X116335570Y-102423020D01*
X116280683Y-102363866D01*
X116156714Y-102230257D01*
X116072381Y-102163004D01*
X115951117Y-102066299D01*
X115951112Y-102066296D01*
X115951113Y-102066296D01*
X115723381Y-101934815D01*
X115723377Y-101934813D01*
X115478602Y-101838747D01*
X115478599Y-101838746D01*
X115222231Y-101780231D01*
X115104283Y-101771392D01*
X115025654Y-101765500D01*
X114894346Y-101765500D01*
X114828821Y-101770410D01*
X114697768Y-101780231D01*
X114441400Y-101838746D01*
X114441397Y-101838747D01*
X114196622Y-101934813D01*
X114196618Y-101934815D01*
X113968886Y-102066296D01*
X113763285Y-102230257D01*
X113584435Y-102423014D01*
X113584425Y-102423026D01*
X113436303Y-102640280D01*
X113436299Y-102640287D01*
X113322204Y-102877206D01*
X113244693Y-103128485D01*
X113244692Y-103128491D01*
X113244692Y-103128492D01*
X113205500Y-103388518D01*
X113205500Y-103651482D01*
X47463271Y-103651482D01*
X47445085Y-103460763D01*
X47444803Y-103454396D01*
X47447039Y-103119056D01*
X47447408Y-103112670D01*
X47448787Y-103100000D01*
X47475559Y-102854000D01*
X51382000Y-102854000D01*
X51382000Y-102998597D01*
X51388505Y-103059093D01*
X51439555Y-103195964D01*
X51439555Y-103195965D01*
X51527095Y-103312904D01*
X51644034Y-103400444D01*
X51780906Y-103451494D01*
X51841402Y-103457999D01*
X51841415Y-103458000D01*
X52136000Y-103458000D01*
X52136000Y-102854000D01*
X51382000Y-102854000D01*
X47475559Y-102854000D01*
X47483688Y-102779304D01*
X47484695Y-102773033D01*
X47554648Y-102445063D01*
X47556299Y-102438885D01*
X47659188Y-102119746D01*
X47661454Y-102113773D01*
X47792130Y-101816056D01*
X47793091Y-101814326D01*
X47796834Y-101805423D01*
X47798583Y-101801618D01*
X47799029Y-101800730D01*
X47799028Y-101800729D01*
X47803412Y-101791981D01*
X47805266Y-101785380D01*
X48597053Y-99903547D01*
X50926780Y-99903547D01*
X50931220Y-99950521D01*
X50931500Y-99956454D01*
X50931500Y-101191146D01*
X50929751Y-101206988D01*
X50930044Y-101207016D01*
X50929298Y-101214908D01*
X50931469Y-101283974D01*
X50931500Y-101285953D01*
X50931500Y-101314851D01*
X50931501Y-101314872D01*
X50932378Y-101321820D01*
X50932844Y-101327732D01*
X50934326Y-101374888D01*
X50934327Y-101374893D01*
X50939977Y-101394339D01*
X50943986Y-101413697D01*
X50946525Y-101433793D01*
X50946526Y-101433799D01*
X50963893Y-101477662D01*
X50965816Y-101483279D01*
X50978982Y-101528593D01*
X50989294Y-101546031D01*
X50997988Y-101563779D01*
X51005444Y-101582609D01*
X51005450Y-101582620D01*
X51033177Y-101620783D01*
X51036437Y-101625746D01*
X51056061Y-101658927D01*
X51058684Y-101663363D01*
X51060460Y-101666365D01*
X51074779Y-101680684D01*
X51087617Y-101695714D01*
X51090683Y-101699933D01*
X51099528Y-101712107D01*
X51117262Y-101726778D01*
X51135886Y-101742185D01*
X51140267Y-101746171D01*
X51260831Y-101866735D01*
X51371043Y-101976947D01*
X51405069Y-102039259D01*
X51400005Y-102110071D01*
X51388505Y-102140904D01*
X51382000Y-102201402D01*
X51382000Y-102346000D01*
X51742009Y-102346000D01*
X51772803Y-102351556D01*
X51773130Y-102350177D01*
X51780799Y-102351989D01*
X51841350Y-102358499D01*
X51841355Y-102358499D01*
X51841362Y-102358500D01*
X51841368Y-102358500D01*
X52518000Y-102358500D01*
X52586121Y-102378502D01*
X52632614Y-102432158D01*
X52644000Y-102484500D01*
X52644000Y-103458000D01*
X52938585Y-103458000D01*
X52938597Y-103457999D01*
X52999093Y-103451494D01*
X53135963Y-103400445D01*
X53260117Y-103307503D01*
X53261463Y-103309301D01*
X53312843Y-103281238D01*
X53383660Y-103286294D01*
X53418777Y-103308859D01*
X53419525Y-103307861D01*
X53543792Y-103400887D01*
X53543794Y-103400888D01*
X53543796Y-103400889D01*
X53602875Y-103422924D01*
X53680795Y-103451988D01*
X53680803Y-103451990D01*
X53741350Y-103458499D01*
X53741355Y-103458499D01*
X53741362Y-103458500D01*
X54007809Y-103458500D01*
X54051122Y-103467707D01*
X54051432Y-103466754D01*
X54057706Y-103468792D01*
X54057708Y-103468792D01*
X54057712Y-103468794D01*
X54244513Y-103508500D01*
X54435487Y-103508500D01*
X54622288Y-103468794D01*
X54622292Y-103468792D01*
X54622293Y-103468792D01*
X54628568Y-103466754D01*
X54628877Y-103467707D01*
X54672191Y-103458500D01*
X54838632Y-103458500D01*
X54838638Y-103458500D01*
X54838645Y-103458499D01*
X54838649Y-103458499D01*
X54899196Y-103451990D01*
X54899199Y-103451989D01*
X54899201Y-103451989D01*
X55036204Y-103400889D01*
X55059257Y-103383631D01*
X55125776Y-103358821D01*
X55134766Y-103358500D01*
X59313967Y-103358500D01*
X59332227Y-103359830D01*
X59337123Y-103360547D01*
X59356197Y-103363341D01*
X59389554Y-103360422D01*
X59408793Y-103358740D01*
X59414286Y-103358500D01*
X59422583Y-103358500D01*
X59422588Y-103358500D01*
X59444638Y-103355922D01*
X59454590Y-103354759D01*
X59456393Y-103354574D01*
X59532834Y-103347887D01*
X59532838Y-103347885D01*
X59540026Y-103346402D01*
X59540039Y-103346468D01*
X59547395Y-103344836D01*
X59547380Y-103344771D01*
X59554510Y-103343080D01*
X59554521Y-103343079D01*
X59626647Y-103316826D01*
X59628270Y-103316261D01*
X59701146Y-103292114D01*
X59701155Y-103292108D01*
X59707797Y-103289012D01*
X59707826Y-103289074D01*
X59714611Y-103285789D01*
X59714581Y-103285729D01*
X59721132Y-103282437D01*
X59721140Y-103282435D01*
X59785291Y-103240240D01*
X59786756Y-103239307D01*
X59852059Y-103199030D01*
X59852067Y-103199021D01*
X59857816Y-103194477D01*
X59857858Y-103194531D01*
X59863697Y-103189775D01*
X59863654Y-103189723D01*
X59869272Y-103185007D01*
X59869282Y-103185001D01*
X59921976Y-103129147D01*
X59923174Y-103127913D01*
X64534629Y-98516458D01*
X64596939Y-98482434D01*
X64667754Y-98487499D01*
X64724590Y-98530046D01*
X64749401Y-98596566D01*
X64745866Y-98636486D01*
X64695437Y-98835624D01*
X64695436Y-98835630D01*
X64695436Y-98835632D01*
X64686254Y-98946440D01*
X64676844Y-99059999D01*
X64695437Y-99284375D01*
X64750702Y-99502612D01*
X64750703Y-99502613D01*
X64750704Y-99502616D01*
X64832259Y-99688544D01*
X64841141Y-99708793D01*
X64964275Y-99897265D01*
X64964279Y-99897270D01*
X65116762Y-100062908D01*
X65171331Y-100105381D01*
X65294424Y-100201189D01*
X65328205Y-100219470D01*
X65378596Y-100269482D01*
X65393949Y-100338799D01*
X65369389Y-100405412D01*
X65328208Y-100441097D01*
X65294700Y-100459230D01*
X65274310Y-100475099D01*
X65274310Y-100475101D01*
X65912411Y-101113202D01*
X65897685Y-101115320D01*
X65766900Y-101175048D01*
X65658239Y-101269202D01*
X65580507Y-101390156D01*
X65555638Y-101474849D01*
X64916922Y-100836132D01*
X64841580Y-100951451D01*
X64751179Y-101157543D01*
X64751176Y-101157550D01*
X64695932Y-101375707D01*
X64677346Y-101600000D01*
X64695932Y-101824292D01*
X64751176Y-102042449D01*
X64751179Y-102042456D01*
X64841580Y-102248548D01*
X64916922Y-102363866D01*
X64916923Y-102363866D01*
X65555638Y-101725150D01*
X65580507Y-101809844D01*
X65658239Y-101930798D01*
X65766900Y-102024952D01*
X65897685Y-102084680D01*
X65912412Y-102086797D01*
X65274310Y-102724898D01*
X65294694Y-102740763D01*
X65294696Y-102740765D01*
X65492632Y-102847883D01*
X65705483Y-102920955D01*
X65705490Y-102920957D01*
X65927477Y-102958000D01*
X66152523Y-102958000D01*
X66374509Y-102920957D01*
X66374516Y-102920955D01*
X66587369Y-102847883D01*
X66587371Y-102847882D01*
X66785298Y-102740768D01*
X66785302Y-102740766D01*
X66805689Y-102724898D01*
X66167588Y-102086797D01*
X66182315Y-102084680D01*
X66313100Y-102024952D01*
X66421761Y-101930798D01*
X66499493Y-101809844D01*
X66524361Y-101725150D01*
X67163077Y-102363866D01*
X67204218Y-102300898D01*
X67258222Y-102254810D01*
X67328570Y-102245235D01*
X67392927Y-102275213D01*
X67415183Y-102300898D01*
X67504279Y-102437270D01*
X67656762Y-102602908D01*
X67701566Y-102637780D01*
X67834424Y-102741189D01*
X68032426Y-102848342D01*
X68032427Y-102848342D01*
X68032428Y-102848343D01*
X68116504Y-102877206D01*
X68245365Y-102921444D01*
X68467431Y-102958500D01*
X68467435Y-102958500D01*
X68692565Y-102958500D01*
X68692569Y-102958500D01*
X68914635Y-102921444D01*
X69127574Y-102848342D01*
X69325576Y-102741189D01*
X69450335Y-102644083D01*
X69516372Y-102618029D01*
X69586017Y-102631814D01*
X69616817Y-102654422D01*
X70126051Y-103163656D01*
X70136021Y-103176100D01*
X70136249Y-103175913D01*
X70141300Y-103182019D01*
X70191670Y-103229319D01*
X70193060Y-103230666D01*
X70201682Y-103239288D01*
X70213523Y-103251130D01*
X70213527Y-103251133D01*
X70213529Y-103251135D01*
X70219081Y-103255442D01*
X70223568Y-103259273D01*
X70240541Y-103275212D01*
X70257976Y-103291585D01*
X70257978Y-103291586D01*
X70275727Y-103301343D01*
X70292252Y-103312198D01*
X70308258Y-103324614D01*
X70348448Y-103342005D01*
X70351561Y-103343352D01*
X70356882Y-103345958D01*
X70398239Y-103368695D01*
X70398247Y-103368697D01*
X70417857Y-103373732D01*
X70436566Y-103380137D01*
X70455154Y-103388181D01*
X70501776Y-103395564D01*
X70507561Y-103396763D01*
X70553269Y-103408500D01*
X70573523Y-103408500D01*
X70593233Y-103410051D01*
X70595440Y-103410400D01*
X70613242Y-103413220D01*
X70647771Y-103409956D01*
X70660216Y-103408780D01*
X70666149Y-103408500D01*
X71522848Y-103408500D01*
X71538689Y-103410249D01*
X71538717Y-103409956D01*
X71546602Y-103410700D01*
X71546610Y-103410702D01*
X71607909Y-103408775D01*
X71615677Y-103408531D01*
X71617656Y-103408500D01*
X71646552Y-103408500D01*
X71646557Y-103408500D01*
X71653519Y-103407619D01*
X71659420Y-103407154D01*
X71706590Y-103405673D01*
X71726048Y-103400019D01*
X71745395Y-103396013D01*
X71765498Y-103393474D01*
X71809380Y-103376099D01*
X71814975Y-103374183D01*
X71850491Y-103363866D01*
X71860292Y-103361019D01*
X71860296Y-103361017D01*
X71877727Y-103350708D01*
X71895481Y-103342009D01*
X71914318Y-103334552D01*
X71952487Y-103306818D01*
X71957445Y-103303562D01*
X71998063Y-103279542D01*
X72012386Y-103265218D01*
X72027425Y-103252374D01*
X72043808Y-103240472D01*
X72073894Y-103204103D01*
X72077862Y-103199741D01*
X76201301Y-99076304D01*
X76263614Y-99042278D01*
X76290397Y-99039399D01*
X77560507Y-99039399D01*
X77628628Y-99059401D01*
X77675121Y-99113057D01*
X77685225Y-99183331D01*
X77655731Y-99247911D01*
X77649603Y-99254492D01*
X76947641Y-99956454D01*
X76249500Y-100654595D01*
X76187188Y-100688621D01*
X76160405Y-100691500D01*
X76104513Y-100691500D01*
X75917711Y-100731206D01*
X75743247Y-100808882D01*
X75588744Y-100921135D01*
X75460965Y-101063048D01*
X75460958Y-101063058D01*
X75373288Y-101214908D01*
X75365473Y-101228444D01*
X75360129Y-101244891D01*
X75306457Y-101410072D01*
X75286496Y-101600000D01*
X75306457Y-101789927D01*
X75331418Y-101866747D01*
X75365473Y-101971556D01*
X75365476Y-101971561D01*
X75460958Y-102136941D01*
X75460965Y-102136951D01*
X75588744Y-102278864D01*
X75588747Y-102278866D01*
X75743248Y-102391118D01*
X75917712Y-102468794D01*
X76104513Y-102508500D01*
X76295487Y-102508500D01*
X76482288Y-102468794D01*
X76656752Y-102391118D01*
X76811253Y-102278866D01*
X76814542Y-102275213D01*
X76939034Y-102136951D01*
X76939035Y-102136949D01*
X76939040Y-102136944D01*
X77034527Y-101971556D01*
X77093542Y-101789928D01*
X77110907Y-101624704D01*
X77137920Y-101559049D01*
X77147113Y-101548790D01*
X79169600Y-99526304D01*
X79231913Y-99492278D01*
X79258696Y-99489399D01*
X117232399Y-99489399D01*
X117300520Y-99509401D01*
X117347013Y-99563057D01*
X117357117Y-99633331D01*
X117336505Y-99686377D01*
X117197647Y-99890042D01*
X117197643Y-99890049D01*
X117083548Y-100126968D01*
X117006037Y-100378247D01*
X117006036Y-100378253D01*
X117006036Y-100378254D01*
X116966844Y-100638280D01*
X116966844Y-100901244D01*
X117005774Y-101159532D01*
X117006036Y-101161268D01*
X117006037Y-101161276D01*
X117049380Y-101301787D01*
X117076638Y-101390156D01*
X117083548Y-101412555D01*
X117197643Y-101649474D01*
X117197647Y-101649481D01*
X117326687Y-101838747D01*
X117345774Y-101866742D01*
X117345779Y-101866747D01*
X117524629Y-102059504D01*
X117524633Y-102059507D01*
X117524634Y-102059508D01*
X117730227Y-102223463D01*
X117730230Y-102223465D01*
X117957962Y-102354946D01*
X117957966Y-102354948D01*
X118187619Y-102445079D01*
X118202746Y-102451016D01*
X118459116Y-102509531D01*
X118655690Y-102524262D01*
X118655692Y-102524262D01*
X118786996Y-102524262D01*
X118786998Y-102524262D01*
X118983572Y-102509531D01*
X119239942Y-102451016D01*
X119395011Y-102390156D01*
X119484721Y-102354948D01*
X119484725Y-102354946D01*
X119484724Y-102354946D01*
X119484728Y-102354945D01*
X119712461Y-102223463D01*
X119918054Y-102059508D01*
X119933728Y-102042616D01*
X119966757Y-102007018D01*
X120096914Y-101866742D01*
X120245046Y-101649472D01*
X120359142Y-101412550D01*
X120436652Y-101161270D01*
X120475844Y-100901244D01*
X120475844Y-100638280D01*
X120436652Y-100378254D01*
X120359142Y-100126974D01*
X120245046Y-99890052D01*
X120245044Y-99890049D01*
X120245040Y-99890042D01*
X120106183Y-99686377D01*
X120084336Y-99618826D01*
X120102478Y-99550186D01*
X120154849Y-99502251D01*
X120210289Y-99489399D01*
X130270807Y-99489399D01*
X130338928Y-99509401D01*
X130359902Y-99526304D01*
X131459342Y-100625744D01*
X131493368Y-100688056D01*
X131488303Y-100758871D01*
X131450181Y-100812238D01*
X131363432Y-100883431D01*
X131237405Y-101036995D01*
X131143759Y-101212195D01*
X131086090Y-101402305D01*
X131066620Y-101599996D01*
X131066620Y-101600003D01*
X131086090Y-101797694D01*
X131086091Y-101797700D01*
X131086092Y-101797701D01*
X131143759Y-101987804D01*
X131237405Y-102163004D01*
X131363432Y-102316568D01*
X131516996Y-102442595D01*
X131692196Y-102536241D01*
X131692198Y-102536241D01*
X131692199Y-102536242D01*
X131718306Y-102544161D01*
X131770828Y-102575641D01*
X134730020Y-105534833D01*
X134742859Y-105549864D01*
X134745841Y-105553968D01*
X134751134Y-105561253D01*
X134803203Y-105608136D01*
X134805558Y-105610371D01*
X134821259Y-105626072D01*
X134838496Y-105640030D01*
X134840995Y-105642165D01*
X134893056Y-105689040D01*
X134893059Y-105689042D01*
X134905231Y-105696069D01*
X134921532Y-105707272D01*
X134932465Y-105716126D01*
X134932471Y-105716130D01*
X134994885Y-105747931D01*
X134997785Y-105749505D01*
X135058444Y-105784527D01*
X135071823Y-105788874D01*
X135090091Y-105796440D01*
X135102630Y-105802829D01*
X135170287Y-105820957D01*
X135173430Y-105821888D01*
X135240072Y-105843542D01*
X135254063Y-105845012D01*
X135273498Y-105848613D01*
X135287096Y-105852257D01*
X135357066Y-105855923D01*
X135360305Y-105856178D01*
X135372283Y-105857437D01*
X135382377Y-105858499D01*
X135382386Y-105858499D01*
X135382390Y-105858500D01*
X135404575Y-105858500D01*
X135407845Y-105858585D01*
X135469095Y-105861795D01*
X135477807Y-105862252D01*
X135477807Y-105862251D01*
X135477809Y-105862252D01*
X135491705Y-105860050D01*
X135511416Y-105858500D01*
X152508583Y-105858500D01*
X152528293Y-105860050D01*
X152542190Y-105862252D01*
X152612153Y-105858585D01*
X152615424Y-105858500D01*
X152637608Y-105858500D01*
X152637610Y-105858500D01*
X152659697Y-105856178D01*
X152662930Y-105855924D01*
X152708800Y-105853520D01*
X152732894Y-105852258D01*
X152732897Y-105852257D01*
X152732903Y-105852257D01*
X152746489Y-105848616D01*
X152765938Y-105845012D01*
X152779928Y-105843542D01*
X152846555Y-105821892D01*
X152849691Y-105820963D01*
X152917370Y-105802829D01*
X152929906Y-105796441D01*
X152948165Y-105788877D01*
X152961556Y-105784527D01*
X153022242Y-105749488D01*
X153025080Y-105747947D01*
X153087530Y-105716129D01*
X153098470Y-105707269D01*
X153114757Y-105696075D01*
X153126944Y-105689040D01*
X153178994Y-105642174D01*
X153181504Y-105640030D01*
X153181514Y-105640022D01*
X153198741Y-105626072D01*
X153214448Y-105610363D01*
X153216817Y-105608117D01*
X153268866Y-105561253D01*
X153277137Y-105549867D01*
X153289965Y-105534846D01*
X153430811Y-105394000D01*
X158062000Y-105394000D01*
X158062000Y-105538597D01*
X158068505Y-105599093D01*
X158119555Y-105735964D01*
X158119555Y-105735965D01*
X158207095Y-105852904D01*
X158324034Y-105940444D01*
X158460906Y-105991494D01*
X158521402Y-105997999D01*
X158521415Y-105998000D01*
X158816000Y-105998000D01*
X158816000Y-105394000D01*
X158062000Y-105394000D01*
X153430811Y-105394000D01*
X154829410Y-103995402D01*
X154891720Y-103961379D01*
X154918503Y-103958500D01*
X155052565Y-103958500D01*
X155052569Y-103958500D01*
X155274635Y-103921444D01*
X155487574Y-103848342D01*
X155685576Y-103741189D01*
X155863240Y-103602906D01*
X156015722Y-103437268D01*
X156138860Y-103248791D01*
X156229296Y-103042616D01*
X156284564Y-102824368D01*
X156303156Y-102600000D01*
X156284564Y-102375632D01*
X156269607Y-102316567D01*
X156229297Y-102157387D01*
X156229296Y-102157386D01*
X156229296Y-102157384D01*
X156138860Y-101951209D01*
X156121500Y-101924637D01*
X156015724Y-101762734D01*
X156015720Y-101762729D01*
X155865912Y-101599997D01*
X155863240Y-101597094D01*
X155863239Y-101597093D01*
X155863237Y-101597091D01*
X155743367Y-101503792D01*
X155685576Y-101458811D01*
X155487574Y-101351658D01*
X155487572Y-101351657D01*
X155487571Y-101351656D01*
X155274639Y-101278557D01*
X155274630Y-101278555D01*
X155205455Y-101267012D01*
X155052569Y-101241500D01*
X154827431Y-101241500D01*
X154680226Y-101266064D01*
X154605369Y-101278555D01*
X154605360Y-101278557D01*
X154392428Y-101351656D01*
X154392426Y-101351658D01*
X154194426Y-101458810D01*
X154194424Y-101458811D01*
X154016762Y-101597091D01*
X153864279Y-101762729D01*
X153775183Y-101899102D01*
X153721179Y-101945190D01*
X153650831Y-101954765D01*
X153586474Y-101924788D01*
X153564218Y-101899102D01*
X153523077Y-101836132D01*
X153523075Y-101836132D01*
X152884360Y-102474847D01*
X152859493Y-102390156D01*
X152781761Y-102269202D01*
X152673100Y-102175048D01*
X152542315Y-102115320D01*
X152527587Y-102113202D01*
X153165689Y-101475100D01*
X153165688Y-101475099D01*
X153145306Y-101459235D01*
X153145299Y-101459230D01*
X152947371Y-101352118D01*
X152947369Y-101352116D01*
X152734516Y-101279044D01*
X152734509Y-101279042D01*
X152512523Y-101242000D01*
X152287477Y-101242000D01*
X152065490Y-101279042D01*
X152065483Y-101279044D01*
X151852630Y-101352116D01*
X151852628Y-101352118D01*
X151654700Y-101459230D01*
X151634310Y-101475099D01*
X151634310Y-101475101D01*
X152272411Y-102113202D01*
X152257685Y-102115320D01*
X152126900Y-102175048D01*
X152018239Y-102269202D01*
X151940507Y-102390156D01*
X151915638Y-102474849D01*
X151276921Y-101836132D01*
X151276920Y-101836132D01*
X151235780Y-101899102D01*
X151181776Y-101945190D01*
X151111428Y-101954765D01*
X151047071Y-101924787D01*
X151024822Y-101899111D01*
X150935722Y-101762732D01*
X150783240Y-101597094D01*
X150783239Y-101597093D01*
X150783237Y-101597091D01*
X150663367Y-101503792D01*
X150605576Y-101458811D01*
X150407574Y-101351658D01*
X150407572Y-101351657D01*
X150407571Y-101351656D01*
X150194639Y-101278557D01*
X150194630Y-101278555D01*
X150125455Y-101267012D01*
X149972569Y-101241500D01*
X149747431Y-101241500D01*
X149620769Y-101262636D01*
X149525356Y-101278557D01*
X149522227Y-101279350D01*
X149520905Y-101279300D01*
X149520224Y-101279414D01*
X149520200Y-101279273D01*
X149451281Y-101276681D01*
X149402205Y-101246301D01*
X148529498Y-100373593D01*
X148495474Y-100311283D01*
X148500539Y-100240467D01*
X148543086Y-100183632D01*
X148609606Y-100158821D01*
X148618595Y-100158500D01*
X154913629Y-100158500D01*
X154981750Y-100178502D01*
X155002724Y-100195405D01*
X156441219Y-101633900D01*
X156475245Y-101696212D01*
X156477517Y-101710644D01*
X156486092Y-101797701D01*
X156527684Y-101934813D01*
X156543759Y-101987805D01*
X156601700Y-102096204D01*
X156637405Y-102163004D01*
X156763432Y-102316568D01*
X156916996Y-102442595D01*
X157092196Y-102536241D01*
X157282299Y-102593908D01*
X157282304Y-102593908D01*
X157282306Y-102593909D01*
X157371595Y-102602702D01*
X157457849Y-102611198D01*
X157523682Y-102637780D01*
X157564692Y-102695734D01*
X157571500Y-102736591D01*
X157571500Y-103691146D01*
X157569751Y-103706988D01*
X157570044Y-103707016D01*
X157569298Y-103714908D01*
X157571469Y-103783974D01*
X157571500Y-103785953D01*
X157571500Y-103814851D01*
X157571501Y-103814872D01*
X157572378Y-103821820D01*
X157572844Y-103827732D01*
X157574326Y-103874888D01*
X157574327Y-103874893D01*
X157579977Y-103894339D01*
X157583986Y-103913697D01*
X157586525Y-103933793D01*
X157586526Y-103933799D01*
X157603893Y-103977662D01*
X157605816Y-103983279D01*
X157618982Y-104028593D01*
X157629294Y-104046031D01*
X157637988Y-104063779D01*
X157645444Y-104082609D01*
X157645450Y-104082620D01*
X157673177Y-104120783D01*
X157676437Y-104125746D01*
X157693527Y-104154643D01*
X157700458Y-104166362D01*
X157714782Y-104180686D01*
X157727621Y-104195718D01*
X157739528Y-104212107D01*
X157775890Y-104242189D01*
X157780269Y-104246174D01*
X157933805Y-104399710D01*
X158051043Y-104516948D01*
X158085069Y-104579260D01*
X158080005Y-104650073D01*
X158068505Y-104680906D01*
X158062000Y-104741402D01*
X158062000Y-104886000D01*
X158422009Y-104886000D01*
X158452803Y-104891556D01*
X158453130Y-104890177D01*
X158460799Y-104891989D01*
X158521350Y-104898499D01*
X158521355Y-104898499D01*
X158521362Y-104898500D01*
X158521368Y-104898500D01*
X159198000Y-104898500D01*
X159266121Y-104918502D01*
X159312614Y-104972158D01*
X159324000Y-105024500D01*
X159324000Y-105998000D01*
X159618585Y-105998000D01*
X159618597Y-105997999D01*
X159679093Y-105991494D01*
X159815963Y-105940445D01*
X159940117Y-105847503D01*
X159941463Y-105849301D01*
X159992843Y-105821238D01*
X160063660Y-105826294D01*
X160098777Y-105848859D01*
X160099525Y-105847861D01*
X160223792Y-105940887D01*
X160223794Y-105940888D01*
X160223796Y-105940889D01*
X160282875Y-105962924D01*
X160360795Y-105991988D01*
X160360803Y-105991990D01*
X160421350Y-105998499D01*
X160421355Y-105998499D01*
X160421362Y-105998500D01*
X160637809Y-105998500D01*
X160681122Y-106007707D01*
X160681432Y-106006754D01*
X160687706Y-106008792D01*
X160687708Y-106008792D01*
X160687712Y-106008794D01*
X160874513Y-106048500D01*
X161065487Y-106048500D01*
X161252288Y-106008794D01*
X161252292Y-106008792D01*
X161252293Y-106008792D01*
X161258568Y-106006754D01*
X161258877Y-106007707D01*
X161302191Y-105998500D01*
X161518632Y-105998500D01*
X161518638Y-105998500D01*
X161518645Y-105998499D01*
X161518649Y-105998499D01*
X161579196Y-105991990D01*
X161579199Y-105991989D01*
X161579201Y-105991989D01*
X161716204Y-105940889D01*
X161737050Y-105925283D01*
X161803566Y-105900472D01*
X161830820Y-105901481D01*
X161843512Y-105903341D01*
X161877802Y-105900340D01*
X161896108Y-105898740D01*
X161901601Y-105898500D01*
X161909898Y-105898500D01*
X161909903Y-105898500D01*
X161931953Y-105895922D01*
X161941905Y-105894759D01*
X161943708Y-105894574D01*
X162020149Y-105887887D01*
X162020153Y-105887885D01*
X162027341Y-105886402D01*
X162027354Y-105886468D01*
X162034710Y-105884836D01*
X162034695Y-105884771D01*
X162041825Y-105883080D01*
X162041836Y-105883079D01*
X162113962Y-105856826D01*
X162115585Y-105856261D01*
X162188461Y-105832114D01*
X162188470Y-105832108D01*
X162195112Y-105829012D01*
X162195141Y-105829074D01*
X162201926Y-105825789D01*
X162201896Y-105825729D01*
X162208447Y-105822437D01*
X162208455Y-105822435D01*
X162272606Y-105780240D01*
X162274071Y-105779307D01*
X162339374Y-105739030D01*
X162339382Y-105739021D01*
X162345131Y-105734477D01*
X162345173Y-105734531D01*
X162351012Y-105729775D01*
X162350969Y-105729723D01*
X162356587Y-105725007D01*
X162356597Y-105725001D01*
X162409291Y-105669147D01*
X162410489Y-105667913D01*
X163050778Y-105027624D01*
X163064617Y-105015664D01*
X163084058Y-105001192D01*
X163118001Y-104960738D01*
X163121700Y-104956702D01*
X163127581Y-104950823D01*
X163147629Y-104925466D01*
X163148664Y-104924195D01*
X163198032Y-104865363D01*
X163198033Y-104865359D01*
X163198036Y-104865357D01*
X163202070Y-104859225D01*
X163202127Y-104859262D01*
X163206171Y-104852914D01*
X163206112Y-104852878D01*
X163209965Y-104846630D01*
X163209967Y-104846628D01*
X163242426Y-104777019D01*
X163243167Y-104775488D01*
X163277609Y-104706911D01*
X163277610Y-104706904D01*
X163280119Y-104700014D01*
X163280184Y-104700037D01*
X163282658Y-104692920D01*
X163282594Y-104692899D01*
X163284903Y-104685930D01*
X163299139Y-104616980D01*
X163300432Y-104610717D01*
X163300805Y-104609035D01*
X163318500Y-104534379D01*
X163318500Y-104534378D01*
X163319352Y-104527091D01*
X163319419Y-104527098D01*
X163320185Y-104519600D01*
X163320119Y-104519595D01*
X163320757Y-104512289D01*
X163320759Y-104512281D01*
X163319443Y-104467055D01*
X163318527Y-104435547D01*
X163318500Y-104433715D01*
X163318500Y-103651482D01*
X179005500Y-103651482D01*
X179044692Y-103911506D01*
X179044693Y-103911514D01*
X179122204Y-104162793D01*
X179236299Y-104399712D01*
X179236303Y-104399719D01*
X179358713Y-104579260D01*
X179384430Y-104616980D01*
X179402267Y-104636204D01*
X179563285Y-104809742D01*
X179563289Y-104809745D01*
X179563290Y-104809746D01*
X179768883Y-104973701D01*
X179768886Y-104973703D01*
X179996618Y-105105184D01*
X179996622Y-105105186D01*
X180227899Y-105195954D01*
X180241402Y-105201254D01*
X180497772Y-105259769D01*
X180694346Y-105274500D01*
X180694348Y-105274500D01*
X180825652Y-105274500D01*
X180825654Y-105274500D01*
X181022228Y-105259769D01*
X181278598Y-105201254D01*
X181432787Y-105140739D01*
X181523377Y-105105186D01*
X181523381Y-105105184D01*
X181523380Y-105105184D01*
X181523384Y-105105183D01*
X181751117Y-104973701D01*
X181956710Y-104809746D01*
X182135570Y-104616980D01*
X182283702Y-104399710D01*
X182397798Y-104162788D01*
X182475308Y-103911508D01*
X182514500Y-103651482D01*
X182514500Y-103388518D01*
X182475308Y-103128492D01*
X182471412Y-103115863D01*
X182453901Y-103059093D01*
X182397798Y-102877212D01*
X182283702Y-102640290D01*
X182283700Y-102640287D01*
X182283696Y-102640280D01*
X182140562Y-102430342D01*
X182135570Y-102423020D01*
X182080683Y-102363866D01*
X181956714Y-102230257D01*
X181872381Y-102163004D01*
X181751117Y-102066299D01*
X181751112Y-102066296D01*
X181751113Y-102066296D01*
X181523381Y-101934815D01*
X181523377Y-101934813D01*
X181278602Y-101838747D01*
X181278599Y-101838746D01*
X181022231Y-101780231D01*
X180904283Y-101771392D01*
X180825654Y-101765500D01*
X180694346Y-101765500D01*
X180628821Y-101770410D01*
X180497768Y-101780231D01*
X180241400Y-101838746D01*
X180241397Y-101838747D01*
X179996622Y-101934813D01*
X179996618Y-101934815D01*
X179768886Y-102066296D01*
X179563285Y-102230257D01*
X179384435Y-102423014D01*
X179384425Y-102423026D01*
X179236303Y-102640280D01*
X179236299Y-102640287D01*
X179122204Y-102877206D01*
X179044693Y-103128485D01*
X179044692Y-103128491D01*
X179044692Y-103128492D01*
X179005500Y-103388518D01*
X179005500Y-103651482D01*
X163318500Y-103651482D01*
X163318500Y-102310556D01*
X163338502Y-102242435D01*
X163347097Y-102230627D01*
X163402595Y-102163004D01*
X163496241Y-101987804D01*
X163553908Y-101797701D01*
X163554472Y-101791981D01*
X163573380Y-101600003D01*
X163573380Y-101599996D01*
X163553909Y-101402305D01*
X163553908Y-101402303D01*
X163553908Y-101402299D01*
X163496241Y-101212196D01*
X163402595Y-101036996D01*
X163402593Y-101036992D01*
X163347101Y-100969375D01*
X163319347Y-100904028D01*
X163318500Y-100889442D01*
X163318500Y-99060000D01*
X166276844Y-99060000D01*
X166295437Y-99284375D01*
X166350702Y-99502612D01*
X166350703Y-99502613D01*
X166350704Y-99502616D01*
X166432259Y-99688544D01*
X166441141Y-99708793D01*
X166564275Y-99897265D01*
X166564279Y-99897270D01*
X166716762Y-100062908D01*
X166771331Y-100105381D01*
X166894424Y-100201189D01*
X166928205Y-100219470D01*
X166978596Y-100269482D01*
X166993949Y-100338799D01*
X166969389Y-100405412D01*
X166928208Y-100441097D01*
X166894700Y-100459230D01*
X166874310Y-100475099D01*
X166874310Y-100475101D01*
X167512411Y-101113202D01*
X167497685Y-101115320D01*
X167366900Y-101175048D01*
X167258239Y-101269202D01*
X167180507Y-101390156D01*
X167155638Y-101474849D01*
X166516921Y-100836132D01*
X166441580Y-100951451D01*
X166351179Y-101157543D01*
X166351176Y-101157550D01*
X166295932Y-101375707D01*
X166277346Y-101600000D01*
X166295932Y-101824292D01*
X166351176Y-102042449D01*
X166351179Y-102042456D01*
X166441580Y-102248548D01*
X166516922Y-102363866D01*
X167155638Y-101725149D01*
X167180507Y-101809844D01*
X167258239Y-101930798D01*
X167366900Y-102024952D01*
X167497685Y-102084680D01*
X167512412Y-102086797D01*
X166874310Y-102724898D01*
X166894694Y-102740763D01*
X166894696Y-102740765D01*
X167092632Y-102847883D01*
X167305483Y-102920955D01*
X167305490Y-102920957D01*
X167527477Y-102958000D01*
X167752523Y-102958000D01*
X167974509Y-102920957D01*
X167974516Y-102920955D01*
X168187369Y-102847883D01*
X168187371Y-102847882D01*
X168385298Y-102740768D01*
X168385302Y-102740766D01*
X168405689Y-102724898D01*
X167767588Y-102086797D01*
X167782315Y-102084680D01*
X167913100Y-102024952D01*
X168021761Y-101930798D01*
X168099493Y-101809844D01*
X168124360Y-101725151D01*
X168763076Y-102363867D01*
X168763077Y-102363866D01*
X168804218Y-102300898D01*
X168858222Y-102254810D01*
X168928570Y-102245235D01*
X168992927Y-102275213D01*
X169015183Y-102300898D01*
X169104279Y-102437270D01*
X169256762Y-102602908D01*
X169301566Y-102637780D01*
X169434424Y-102741189D01*
X169632426Y-102848342D01*
X169632427Y-102848342D01*
X169632428Y-102848343D01*
X169716504Y-102877206D01*
X169845365Y-102921444D01*
X170067431Y-102958500D01*
X170067435Y-102958500D01*
X170292565Y-102958500D01*
X170292569Y-102958500D01*
X170514635Y-102921444D01*
X170727574Y-102848342D01*
X170925576Y-102741189D01*
X171103240Y-102602906D01*
X171255722Y-102437268D01*
X171344518Y-102301354D01*
X171398520Y-102255268D01*
X171468868Y-102245692D01*
X171533225Y-102275669D01*
X171555480Y-102301353D01*
X171580149Y-102339111D01*
X171644275Y-102437265D01*
X171644279Y-102437270D01*
X171796762Y-102602908D01*
X171841566Y-102637780D01*
X171974424Y-102741189D01*
X172172426Y-102848342D01*
X172172427Y-102848342D01*
X172172428Y-102848343D01*
X172256504Y-102877206D01*
X172385365Y-102921444D01*
X172607431Y-102958500D01*
X172607435Y-102958500D01*
X172832565Y-102958500D01*
X172832569Y-102958500D01*
X173054635Y-102921444D01*
X173267574Y-102848342D01*
X173465576Y-102741189D01*
X173643240Y-102602906D01*
X173795722Y-102437268D01*
X173918860Y-102248791D01*
X174009296Y-102042616D01*
X174064564Y-101824368D01*
X174083156Y-101600000D01*
X174064564Y-101375632D01*
X174064563Y-101375627D01*
X174064562Y-101375622D01*
X174040198Y-101279414D01*
X174036817Y-101266063D01*
X174039483Y-101195118D01*
X174069864Y-101146039D01*
X174283660Y-100932243D01*
X174296098Y-100922280D01*
X174295910Y-100922053D01*
X174302016Y-100917001D01*
X174302015Y-100917001D01*
X174302018Y-100917000D01*
X174349338Y-100866607D01*
X174350652Y-100865251D01*
X174371135Y-100844770D01*
X174375445Y-100839212D01*
X174379274Y-100834729D01*
X174411586Y-100800321D01*
X174421346Y-100782565D01*
X174432195Y-100766050D01*
X174444614Y-100750041D01*
X174463363Y-100706710D01*
X174465953Y-100701423D01*
X174488695Y-100660060D01*
X174493733Y-100640434D01*
X174500137Y-100621732D01*
X174505500Y-100609339D01*
X174508181Y-100603145D01*
X174515561Y-100556547D01*
X174516762Y-100550740D01*
X174528500Y-100505030D01*
X174528500Y-100484774D01*
X174530051Y-100465063D01*
X174530975Y-100459230D01*
X174533220Y-100445057D01*
X174529942Y-100410376D01*
X174528780Y-100398080D01*
X174528500Y-100392148D01*
X174528500Y-95381482D01*
X177085500Y-95381482D01*
X177124692Y-95641506D01*
X177124693Y-95641514D01*
X177202204Y-95892793D01*
X177316299Y-96129712D01*
X177316303Y-96129719D01*
X177449212Y-96324660D01*
X177464430Y-96346980D01*
X177464435Y-96346985D01*
X177643285Y-96539742D01*
X177643289Y-96539745D01*
X177643290Y-96539746D01*
X177848883Y-96703701D01*
X177848886Y-96703703D01*
X178076618Y-96835184D01*
X178076622Y-96835186D01*
X178307899Y-96925954D01*
X178321402Y-96931254D01*
X178577772Y-96989769D01*
X178774346Y-97004500D01*
X178774348Y-97004500D01*
X181905652Y-97004500D01*
X181905654Y-97004500D01*
X182102228Y-96989769D01*
X182358598Y-96931254D01*
X182512787Y-96870739D01*
X182603377Y-96835186D01*
X182603381Y-96835184D01*
X182603380Y-96835184D01*
X182603384Y-96835183D01*
X182831117Y-96703701D01*
X183036710Y-96539746D01*
X183215570Y-96346980D01*
X183363702Y-96129710D01*
X183477798Y-95892788D01*
X183555308Y-95641508D01*
X183594500Y-95381482D01*
X183594500Y-95118518D01*
X183555308Y-94858492D01*
X183477798Y-94607212D01*
X183363702Y-94370290D01*
X183363700Y-94370287D01*
X183363696Y-94370280D01*
X183215574Y-94153026D01*
X183215570Y-94153020D01*
X183168626Y-94102426D01*
X183036714Y-93960257D01*
X183003550Y-93933809D01*
X182831117Y-93796299D01*
X182831112Y-93796296D01*
X182831113Y-93796296D01*
X182603381Y-93664815D01*
X182603377Y-93664813D01*
X182358602Y-93568747D01*
X182358599Y-93568746D01*
X182102231Y-93510231D01*
X181984283Y-93501392D01*
X181905654Y-93495500D01*
X178774346Y-93495500D01*
X178708821Y-93500410D01*
X178577768Y-93510231D01*
X178321400Y-93568746D01*
X178321397Y-93568747D01*
X178076622Y-93664813D01*
X178076618Y-93664815D01*
X177848886Y-93796296D01*
X177643285Y-93960257D01*
X177464435Y-94153014D01*
X177464425Y-94153026D01*
X177316303Y-94370280D01*
X177316299Y-94370287D01*
X177202204Y-94607206D01*
X177202202Y-94607211D01*
X177202202Y-94607212D01*
X177198220Y-94620122D01*
X177124693Y-94858485D01*
X177124692Y-94858491D01*
X177124692Y-94858492D01*
X177085500Y-95118518D01*
X177085500Y-95381482D01*
X174528500Y-95381482D01*
X174528500Y-95238853D01*
X174530249Y-95223011D01*
X174529956Y-95222984D01*
X174530702Y-95215091D01*
X174528531Y-95146011D01*
X174528500Y-95144032D01*
X174528500Y-95115150D01*
X174528500Y-95115144D01*
X174527620Y-95108182D01*
X174527156Y-95102293D01*
X174525674Y-95055111D01*
X174520017Y-95035642D01*
X174516012Y-95016298D01*
X174513474Y-94996203D01*
X174496100Y-94952322D01*
X174494181Y-94946716D01*
X174481018Y-94901407D01*
X174470706Y-94883970D01*
X174462010Y-94866221D01*
X174454552Y-94847383D01*
X174426812Y-94809203D01*
X174423564Y-94804258D01*
X174399542Y-94763638D01*
X174385214Y-94749310D01*
X174372384Y-94734289D01*
X174360472Y-94717893D01*
X174360469Y-94717891D01*
X174360469Y-94717890D01*
X174324113Y-94687813D01*
X174319721Y-94683817D01*
X173667120Y-94031215D01*
X173633095Y-93968903D01*
X173630908Y-93955306D01*
X173613542Y-93790072D01*
X173554527Y-93608444D01*
X173459040Y-93443056D01*
X173459038Y-93443054D01*
X173459034Y-93443048D01*
X173331255Y-93301135D01*
X173176752Y-93188882D01*
X173002288Y-93111206D01*
X172815487Y-93071500D01*
X172624513Y-93071500D01*
X172437711Y-93111206D01*
X172263247Y-93188882D01*
X172188561Y-93243145D01*
X172121693Y-93267004D01*
X172052541Y-93250923D01*
X172003061Y-93200009D01*
X171988500Y-93141209D01*
X171988500Y-92979834D01*
X172008502Y-92911713D01*
X172025405Y-92890739D01*
X172670499Y-92245645D01*
X172732811Y-92211619D01*
X172759594Y-92208740D01*
X172815487Y-92208740D01*
X173002288Y-92169034D01*
X173176752Y-92091358D01*
X173331253Y-91979106D01*
X173459040Y-91837184D01*
X173554527Y-91671796D01*
X173613542Y-91490168D01*
X173627083Y-91361329D01*
X173654096Y-91295673D01*
X173712317Y-91255043D01*
X173752393Y-91248500D01*
X196041147Y-91248500D01*
X196056988Y-91250249D01*
X196057016Y-91249956D01*
X196064901Y-91250700D01*
X196064909Y-91250702D01*
X196126208Y-91248775D01*
X196133976Y-91248531D01*
X196135955Y-91248500D01*
X196164851Y-91248500D01*
X196164856Y-91248500D01*
X196171818Y-91247619D01*
X196177719Y-91247154D01*
X196224889Y-91245673D01*
X196244347Y-91240019D01*
X196263694Y-91236013D01*
X196283797Y-91233474D01*
X196327679Y-91216099D01*
X196333274Y-91214183D01*
X196361816Y-91205891D01*
X196378591Y-91201019D01*
X196378595Y-91201017D01*
X196396026Y-91190708D01*
X196413780Y-91182009D01*
X196432617Y-91174552D01*
X196470786Y-91146818D01*
X196475744Y-91143562D01*
X196516362Y-91119542D01*
X196530685Y-91105218D01*
X196545724Y-91092374D01*
X196562107Y-91080472D01*
X196592193Y-91044103D01*
X196596161Y-91039741D01*
X197790501Y-89845402D01*
X197852811Y-89811379D01*
X197879594Y-89808500D01*
X197935487Y-89808500D01*
X198122288Y-89768794D01*
X198296752Y-89691118D01*
X198451253Y-89578866D01*
X198454458Y-89575307D01*
X198579034Y-89436951D01*
X198579035Y-89436949D01*
X198579040Y-89436944D01*
X198674527Y-89271556D01*
X198733542Y-89089928D01*
X198750907Y-88924706D01*
X198777920Y-88859050D01*
X198787113Y-88848790D01*
X198953659Y-88682243D01*
X198966097Y-88672282D01*
X198965908Y-88672054D01*
X198972012Y-88667003D01*
X198972018Y-88667000D01*
X199019338Y-88616607D01*
X199020652Y-88615251D01*
X199041135Y-88594770D01*
X199045445Y-88589212D01*
X199049274Y-88584729D01*
X199081586Y-88550321D01*
X199091346Y-88532565D01*
X199102195Y-88516050D01*
X199114614Y-88500041D01*
X199133363Y-88456710D01*
X199135953Y-88451423D01*
X199158695Y-88410060D01*
X199163733Y-88390434D01*
X199170137Y-88371732D01*
X199170552Y-88370773D01*
X199178181Y-88353145D01*
X199185561Y-88306547D01*
X199186762Y-88300740D01*
X199198500Y-88255030D01*
X199198500Y-88234774D01*
X199200051Y-88215063D01*
X199203220Y-88195057D01*
X199199366Y-88154284D01*
X199198780Y-88148080D01*
X199198500Y-88142148D01*
X199198500Y-76069593D01*
X199218502Y-76001472D01*
X199235405Y-75980498D01*
X204698908Y-70516995D01*
X210362205Y-64853697D01*
X210424515Y-64819673D01*
X210480218Y-64820616D01*
X210480224Y-64820586D01*
X210480430Y-64820620D01*
X210482236Y-64820651D01*
X210485356Y-64821441D01*
X210485365Y-64821444D01*
X210707431Y-64858500D01*
X210707435Y-64858500D01*
X210932565Y-64858500D01*
X210932569Y-64858500D01*
X211154635Y-64821444D01*
X211367574Y-64748342D01*
X211565576Y-64641189D01*
X211743240Y-64502906D01*
X211895722Y-64337268D01*
X211984518Y-64201354D01*
X212038520Y-64155268D01*
X212108868Y-64145692D01*
X212173225Y-64175669D01*
X212195480Y-64201353D01*
X212207822Y-64220243D01*
X212284275Y-64337265D01*
X212284279Y-64337270D01*
X212436762Y-64502908D01*
X212459389Y-64520519D01*
X212614424Y-64641189D01*
X212812426Y-64748342D01*
X212812427Y-64748342D01*
X212812428Y-64748343D01*
X212871106Y-64768487D01*
X213025365Y-64821444D01*
X213247431Y-64858500D01*
X213247435Y-64858500D01*
X213472565Y-64858500D01*
X213472569Y-64858500D01*
X213694635Y-64821444D01*
X213907574Y-64748342D01*
X214105576Y-64641189D01*
X214283240Y-64502906D01*
X214435722Y-64337268D01*
X214558860Y-64148791D01*
X214649296Y-63942616D01*
X214704564Y-63724368D01*
X214723156Y-63500000D01*
X214704564Y-63275632D01*
X214695795Y-63241003D01*
X214649297Y-63057387D01*
X214649296Y-63057386D01*
X214649296Y-63057384D01*
X214558860Y-62851209D01*
X214543303Y-62827397D01*
X214435724Y-62662734D01*
X214435720Y-62662729D01*
X214283236Y-62497090D01*
X214248436Y-62470004D01*
X214206966Y-62412379D01*
X214204286Y-62361482D01*
X226845500Y-62361482D01*
X226884482Y-62620116D01*
X226884692Y-62621506D01*
X226884693Y-62621514D01*
X226913578Y-62715154D01*
X226960650Y-62867757D01*
X226962204Y-62872793D01*
X227076299Y-63109712D01*
X227076303Y-63109719D01*
X227215652Y-63314105D01*
X227224430Y-63326980D01*
X227234809Y-63338166D01*
X227403285Y-63519742D01*
X227403289Y-63519745D01*
X227403290Y-63519746D01*
X227608883Y-63683701D01*
X227608886Y-63683703D01*
X227680728Y-63725181D01*
X227822309Y-63806923D01*
X227836618Y-63815184D01*
X227836622Y-63815186D01*
X228048793Y-63898456D01*
X228081402Y-63911254D01*
X228337772Y-63969769D01*
X228534346Y-63984500D01*
X228534348Y-63984500D01*
X228665652Y-63984500D01*
X228665654Y-63984500D01*
X228862228Y-63969769D01*
X229118598Y-63911254D01*
X229272787Y-63850739D01*
X229363377Y-63815186D01*
X229363381Y-63815184D01*
X229363380Y-63815184D01*
X229363384Y-63815183D01*
X229591117Y-63683701D01*
X229796710Y-63519746D01*
X229815033Y-63499999D01*
X229842030Y-63470902D01*
X229975570Y-63326980D01*
X230118875Y-63116790D01*
X230123696Y-63109719D01*
X230123696Y-63109717D01*
X230123702Y-63109710D01*
X230237798Y-62872788D01*
X230315308Y-62621508D01*
X230354500Y-62361482D01*
X230354500Y-62098518D01*
X230315308Y-61838492D01*
X230237798Y-61587212D01*
X230123702Y-61350290D01*
X230123700Y-61350287D01*
X230123696Y-61350280D01*
X229975574Y-61133026D01*
X229975570Y-61133020D01*
X229920255Y-61073404D01*
X229815033Y-60960000D01*
X234714357Y-60960000D01*
X234733519Y-61191257D01*
X234734893Y-61207828D01*
X234795935Y-61448877D01*
X234795938Y-61448884D01*
X234895826Y-61676606D01*
X235031835Y-61884785D01*
X235200249Y-62067732D01*
X235200254Y-62067736D01*
X235200256Y-62067738D01*
X235391410Y-62216519D01*
X235396490Y-62220473D01*
X235396491Y-62220474D01*
X235615190Y-62338828D01*
X235615192Y-62338829D01*
X235738677Y-62381221D01*
X235850386Y-62419571D01*
X236095665Y-62460500D01*
X236095669Y-62460500D01*
X236344331Y-62460500D01*
X236344335Y-62460500D01*
X236589614Y-62419571D01*
X236824810Y-62338828D01*
X237043509Y-62220474D01*
X237239744Y-62067738D01*
X237250219Y-62056360D01*
X237408164Y-61884785D01*
X237438408Y-61838493D01*
X237544173Y-61676607D01*
X237644063Y-61448881D01*
X237705108Y-61207821D01*
X237725643Y-60960000D01*
X237705108Y-60712179D01*
X237655780Y-60517387D01*
X237644064Y-60471122D01*
X237644061Y-60471115D01*
X237596287Y-60362202D01*
X237544173Y-60243393D01*
X237408164Y-60035214D01*
X237239750Y-59852267D01*
X237129031Y-59766091D01*
X237043509Y-59699526D01*
X237043508Y-59699525D01*
X236824809Y-59581171D01*
X236824807Y-59581170D01*
X236589618Y-59500430D01*
X236589609Y-59500428D01*
X236540836Y-59492289D01*
X236344335Y-59459500D01*
X236095665Y-59459500D01*
X235931953Y-59486818D01*
X235850390Y-59500428D01*
X235850381Y-59500430D01*
X235615192Y-59581170D01*
X235615190Y-59581171D01*
X235396491Y-59699525D01*
X235396490Y-59699526D01*
X235200249Y-59852267D01*
X235031835Y-60035214D01*
X234895826Y-60243393D01*
X234795938Y-60471115D01*
X234795935Y-60471122D01*
X234734893Y-60712171D01*
X234734892Y-60712177D01*
X234734892Y-60712179D01*
X234714357Y-60960000D01*
X229815033Y-60960000D01*
X229796714Y-60940257D01*
X229734586Y-60890712D01*
X229591117Y-60776299D01*
X229591112Y-60776296D01*
X229591113Y-60776296D01*
X229363381Y-60644815D01*
X229363377Y-60644813D01*
X229118602Y-60548747D01*
X229118599Y-60548746D01*
X228862231Y-60490231D01*
X228744283Y-60481392D01*
X228665654Y-60475500D01*
X228534346Y-60475500D01*
X228468821Y-60480410D01*
X228337768Y-60490231D01*
X228081400Y-60548746D01*
X228081397Y-60548747D01*
X227836622Y-60644813D01*
X227836618Y-60644815D01*
X227608886Y-60776296D01*
X227403285Y-60940257D01*
X227224435Y-61133014D01*
X227224425Y-61133026D01*
X227076303Y-61350280D01*
X227076299Y-61350287D01*
X226962204Y-61587206D01*
X226884693Y-61838485D01*
X226884692Y-61838491D01*
X226884692Y-61838492D01*
X226845500Y-62098518D01*
X226845500Y-62361482D01*
X214204286Y-62361482D01*
X214203233Y-62341480D01*
X214238423Y-62279819D01*
X214276763Y-62256669D01*
X214276086Y-62255217D01*
X214282728Y-62252118D01*
X214282738Y-62252115D01*
X214433652Y-62159030D01*
X214559030Y-62033652D01*
X214652115Y-61882738D01*
X214707887Y-61714426D01*
X214718500Y-61610545D01*
X214718499Y-60309456D01*
X214716306Y-60287993D01*
X214707887Y-60205574D01*
X214680436Y-60122732D01*
X214652115Y-60037262D01*
X214559030Y-59886348D01*
X214559029Y-59886347D01*
X214559024Y-59886341D01*
X214433658Y-59760975D01*
X214433652Y-59760970D01*
X214433651Y-59760970D01*
X214282738Y-59667885D01*
X214188551Y-59636675D01*
X214114427Y-59612113D01*
X214114420Y-59612112D01*
X214010553Y-59601500D01*
X212709455Y-59601500D01*
X212605574Y-59612112D01*
X212437261Y-59667885D01*
X212286347Y-59760970D01*
X212286341Y-59760975D01*
X212160975Y-59886341D01*
X212160970Y-59886347D01*
X212143378Y-59914869D01*
X212069149Y-60035214D01*
X212067883Y-60037266D01*
X212064783Y-60043914D01*
X212062878Y-60043025D01*
X212028389Y-60092822D01*
X211962828Y-60120067D01*
X211892945Y-60107541D01*
X211856515Y-60080142D01*
X211799986Y-60018736D01*
X211743240Y-59957094D01*
X211743239Y-59957093D01*
X211743237Y-59957091D01*
X211661382Y-59893381D01*
X211565576Y-59818811D01*
X211367574Y-59711658D01*
X211367572Y-59711657D01*
X211367571Y-59711656D01*
X211154639Y-59638557D01*
X211154630Y-59638555D01*
X211110476Y-59631187D01*
X210932569Y-59601500D01*
X210707431Y-59601500D01*
X210559210Y-59626233D01*
X210485369Y-59638555D01*
X210485360Y-59638557D01*
X210272428Y-59711656D01*
X210272426Y-59711658D01*
X210171841Y-59766092D01*
X210074426Y-59818810D01*
X210074424Y-59818811D01*
X209896762Y-59957091D01*
X209744279Y-60122729D01*
X209744279Y-60122730D01*
X209655482Y-60258643D01*
X209601478Y-60304731D01*
X209531130Y-60314306D01*
X209466773Y-60284328D01*
X209444516Y-60258642D01*
X209434553Y-60243393D01*
X209367769Y-60141171D01*
X209355724Y-60122734D01*
X209355720Y-60122729D01*
X209203237Y-59957091D01*
X209121382Y-59893381D01*
X209025576Y-59818811D01*
X208827574Y-59711658D01*
X208827572Y-59711657D01*
X208827571Y-59711656D01*
X208614639Y-59638557D01*
X208614630Y-59638555D01*
X208570476Y-59631187D01*
X208392569Y-59601500D01*
X208167431Y-59601500D01*
X208019211Y-59626233D01*
X207945369Y-59638555D01*
X207945360Y-59638557D01*
X207732428Y-59711656D01*
X207732426Y-59711658D01*
X207631841Y-59766092D01*
X207534426Y-59818810D01*
X207534424Y-59818811D01*
X207356762Y-59957091D01*
X207204279Y-60122729D01*
X207204275Y-60122734D01*
X207081141Y-60311206D01*
X206990703Y-60517386D01*
X206990702Y-60517387D01*
X206935437Y-60735624D01*
X206935436Y-60735630D01*
X206935436Y-60735632D01*
X206932066Y-60776299D01*
X206926357Y-60845193D01*
X206900797Y-60911429D01*
X206889882Y-60923882D01*
X192364115Y-75449650D01*
X192359532Y-75453803D01*
X192323433Y-75483430D01*
X192197405Y-75636995D01*
X192138257Y-75747655D01*
X192103759Y-75812194D01*
X192103758Y-75812196D01*
X192046091Y-76002295D01*
X192046089Y-76002307D01*
X192026620Y-76199995D01*
X192026620Y-76200002D01*
X192031196Y-76246464D01*
X192031500Y-76252643D01*
X192031500Y-83767357D01*
X192031196Y-83773536D01*
X192026620Y-83819997D01*
X192026620Y-83820001D01*
X192031500Y-83869547D01*
X192046090Y-84017694D01*
X192046091Y-84017700D01*
X192046092Y-84017701D01*
X192103759Y-84207804D01*
X192197405Y-84383004D01*
X192323432Y-84536568D01*
X192476996Y-84662595D01*
X192652196Y-84756241D01*
X192842299Y-84813908D01*
X192842303Y-84813908D01*
X192842305Y-84813909D01*
X193039997Y-84833380D01*
X193040000Y-84833380D01*
X193040003Y-84833380D01*
X193237694Y-84813909D01*
X193237695Y-84813908D01*
X193237701Y-84813908D01*
X193427804Y-84756241D01*
X193603004Y-84662595D01*
X193756568Y-84536568D01*
X193882595Y-84383004D01*
X193976241Y-84207804D01*
X194033908Y-84017701D01*
X194048500Y-83869547D01*
X194053380Y-83820000D01*
X194048804Y-83773536D01*
X194048500Y-83767357D01*
X194048500Y-76669923D01*
X194068502Y-76601802D01*
X194085400Y-76580833D01*
X206780347Y-63885886D01*
X206842655Y-63851863D01*
X206913470Y-63856928D01*
X206970306Y-63899475D01*
X206988615Y-63937826D01*
X206989487Y-63937527D01*
X206991179Y-63942456D01*
X207081580Y-64148548D01*
X207156922Y-64263866D01*
X207156923Y-64263866D01*
X207795638Y-63625150D01*
X207820507Y-63709844D01*
X207898239Y-63830798D01*
X208006900Y-63924952D01*
X208137685Y-63984680D01*
X208152410Y-63986797D01*
X207514309Y-64624898D01*
X207534694Y-64640763D01*
X207534696Y-64640765D01*
X207732633Y-64747884D01*
X207770397Y-64760848D01*
X207828332Y-64801884D01*
X207854885Y-64867728D01*
X207841624Y-64937475D01*
X207818581Y-64969116D01*
X197451336Y-75336361D01*
X197438901Y-75346325D01*
X197439089Y-75346552D01*
X197432979Y-75351606D01*
X197385694Y-75401959D01*
X197384319Y-75403378D01*
X197363863Y-75423835D01*
X197359560Y-75429381D01*
X197355714Y-75433883D01*
X197323417Y-75468278D01*
X197323411Y-75468287D01*
X197313651Y-75486039D01*
X197302803Y-75502554D01*
X197290386Y-75518562D01*
X197271645Y-75561868D01*
X197269034Y-75567198D01*
X197246305Y-75608543D01*
X197246303Y-75608548D01*
X197241267Y-75628163D01*
X197234864Y-75646866D01*
X197226819Y-75665456D01*
X197219437Y-75712060D01*
X197218233Y-75717872D01*
X197206500Y-75763572D01*
X197206500Y-75783827D01*
X197204949Y-75803537D01*
X197201780Y-75823546D01*
X197201780Y-75823547D01*
X197206220Y-75870521D01*
X197206500Y-75876454D01*
X197206500Y-83117474D01*
X197186498Y-83185595D01*
X197174137Y-83201784D01*
X197100957Y-83283059D01*
X197005476Y-83448438D01*
X197005473Y-83448445D01*
X196946457Y-83630072D01*
X196926496Y-83820000D01*
X196946457Y-84009927D01*
X196974627Y-84096622D01*
X197005473Y-84191556D01*
X197005476Y-84191561D01*
X197091985Y-84341400D01*
X197100960Y-84356944D01*
X197174137Y-84438215D01*
X197204853Y-84502220D01*
X197206500Y-84522524D01*
X197206500Y-87560100D01*
X197186498Y-87628221D01*
X197169595Y-87649195D01*
X195324195Y-89494595D01*
X195261883Y-89528621D01*
X195235100Y-89531500D01*
X189031412Y-89531500D01*
X188963291Y-89511498D01*
X188916798Y-89457842D01*
X188906694Y-89387568D01*
X188936188Y-89322988D01*
X188960434Y-89301394D01*
X188979116Y-89288657D01*
X189056980Y-89235570D01*
X189249746Y-89056710D01*
X189413701Y-88851117D01*
X189545183Y-88623384D01*
X189548113Y-88615920D01*
X189593591Y-88500041D01*
X189641254Y-88378598D01*
X189699769Y-88122228D01*
X189714500Y-87925654D01*
X189714500Y-84794346D01*
X189699769Y-84597772D01*
X189641254Y-84341402D01*
X189601944Y-84241241D01*
X189545186Y-84096622D01*
X189545184Y-84096618D01*
X189413703Y-83868886D01*
X189374715Y-83819997D01*
X189249746Y-83663290D01*
X189249745Y-83663289D01*
X189249742Y-83663285D01*
X189085712Y-83511089D01*
X189056980Y-83484430D01*
X189045346Y-83476498D01*
X188839719Y-83336303D01*
X188839712Y-83336299D01*
X188602793Y-83222204D01*
X188602790Y-83222203D01*
X188602788Y-83222202D01*
X188484112Y-83185595D01*
X188351514Y-83144693D01*
X188351509Y-83144692D01*
X188351508Y-83144692D01*
X188091482Y-83105500D01*
X187828518Y-83105500D01*
X187568492Y-83144692D01*
X187568491Y-83144692D01*
X187568485Y-83144693D01*
X187317206Y-83222204D01*
X187080287Y-83336299D01*
X187080280Y-83336303D01*
X186863026Y-83484425D01*
X186863014Y-83484435D01*
X186670257Y-83663285D01*
X186506296Y-83868886D01*
X186374815Y-84096618D01*
X186374813Y-84096622D01*
X186278747Y-84341397D01*
X186278746Y-84341400D01*
X186220231Y-84597768D01*
X186220231Y-84597772D01*
X186205500Y-84794346D01*
X186205500Y-87925654D01*
X186209214Y-87975214D01*
X186220231Y-88122231D01*
X186278746Y-88378599D01*
X186278747Y-88378602D01*
X186374813Y-88623377D01*
X186374815Y-88623381D01*
X186506296Y-88851113D01*
X186506298Y-88851116D01*
X186506299Y-88851117D01*
X186532581Y-88884074D01*
X186670257Y-89056714D01*
X186768456Y-89147828D01*
X186863020Y-89235570D01*
X186863026Y-89235574D01*
X186959566Y-89301394D01*
X187004583Y-89356294D01*
X187012772Y-89426817D01*
X186981533Y-89490572D01*
X186920785Y-89527317D01*
X186888588Y-89531500D01*
X172913788Y-89531500D01*
X172897946Y-89529750D01*
X172897919Y-89530044D01*
X172890026Y-89529298D01*
X172820959Y-89531469D01*
X172818980Y-89531500D01*
X172790079Y-89531500D01*
X172790075Y-89531500D01*
X172790065Y-89531501D01*
X172783114Y-89532379D01*
X172777202Y-89532844D01*
X172730048Y-89534326D01*
X172730046Y-89534327D01*
X172710591Y-89539978D01*
X172691238Y-89543986D01*
X172671146Y-89546524D01*
X172671139Y-89546525D01*
X172671138Y-89546526D01*
X172671136Y-89546526D01*
X172671135Y-89546527D01*
X172627274Y-89563892D01*
X172621659Y-89565815D01*
X172588987Y-89575308D01*
X172576342Y-89578982D01*
X172573833Y-89580466D01*
X172558899Y-89589297D01*
X172541153Y-89597990D01*
X172522317Y-89605448D01*
X172484144Y-89633181D01*
X172479183Y-89636440D01*
X172438573Y-89660458D01*
X172424246Y-89674784D01*
X172409220Y-89687617D01*
X172392830Y-89699525D01*
X172392828Y-89699527D01*
X172362743Y-89735892D01*
X172358747Y-89740283D01*
X169791336Y-92307692D01*
X169778901Y-92317656D01*
X169779089Y-92317883D01*
X169772979Y-92322937D01*
X169725694Y-92373290D01*
X169724319Y-92374709D01*
X169703863Y-92395166D01*
X169699560Y-92400712D01*
X169695714Y-92405214D01*
X169663417Y-92439609D01*
X169663411Y-92439618D01*
X169653651Y-92457370D01*
X169642803Y-92473885D01*
X169630386Y-92489893D01*
X169611645Y-92533199D01*
X169609034Y-92538529D01*
X169586305Y-92579874D01*
X169586303Y-92579879D01*
X169581267Y-92599494D01*
X169574864Y-92618197D01*
X169566819Y-92636787D01*
X169559437Y-92683391D01*
X169558233Y-92689203D01*
X169546500Y-92734903D01*
X169546500Y-92755158D01*
X169544949Y-92774868D01*
X169541780Y-92794877D01*
X169541780Y-92794878D01*
X169546220Y-92841852D01*
X169546500Y-92847785D01*
X169546500Y-93277474D01*
X169526498Y-93345595D01*
X169514137Y-93361784D01*
X169440957Y-93443059D01*
X169345476Y-93608438D01*
X169345473Y-93608445D01*
X169286457Y-93790072D01*
X169266496Y-93979999D01*
X169286457Y-94169927D01*
X169316526Y-94262470D01*
X169345473Y-94351556D01*
X169345476Y-94351561D01*
X169438001Y-94511820D01*
X169440960Y-94516944D01*
X169514137Y-94598215D01*
X169544853Y-94662220D01*
X169546500Y-94682524D01*
X169546500Y-97783078D01*
X169526498Y-97851199D01*
X169480471Y-97893891D01*
X169434426Y-97918810D01*
X169434424Y-97918811D01*
X169256762Y-98057091D01*
X169104279Y-98222729D01*
X169104279Y-98222730D01*
X169015482Y-98358643D01*
X168961478Y-98404731D01*
X168891130Y-98414306D01*
X168826773Y-98384328D01*
X168804516Y-98358642D01*
X168715724Y-98222734D01*
X168715720Y-98222729D01*
X168563237Y-98057091D01*
X168481382Y-97993381D01*
X168385576Y-97918811D01*
X168187574Y-97811658D01*
X168187572Y-97811657D01*
X168187571Y-97811656D01*
X167974639Y-97738557D01*
X167974630Y-97738555D01*
X167930476Y-97731187D01*
X167752569Y-97701500D01*
X167527431Y-97701500D01*
X167379211Y-97726233D01*
X167305369Y-97738555D01*
X167305360Y-97738557D01*
X167092428Y-97811656D01*
X167092426Y-97811658D01*
X166894426Y-97918810D01*
X166894424Y-97918811D01*
X166716762Y-98057091D01*
X166564279Y-98222729D01*
X166564275Y-98222734D01*
X166441141Y-98411206D01*
X166350703Y-98617386D01*
X166350702Y-98617387D01*
X166295437Y-98835624D01*
X166295436Y-98835630D01*
X166295436Y-98835632D01*
X166286254Y-98946440D01*
X166276844Y-99060000D01*
X163318500Y-99060000D01*
X163318500Y-95795938D01*
X163338502Y-95727817D01*
X163355405Y-95706843D01*
X176136844Y-82925405D01*
X176199156Y-82891379D01*
X176225939Y-82888500D01*
X185222227Y-82888500D01*
X185240487Y-82889830D01*
X185245383Y-82890547D01*
X185264457Y-82893341D01*
X185297814Y-82890422D01*
X185317053Y-82888740D01*
X185322546Y-82888500D01*
X185330843Y-82888500D01*
X185330848Y-82888500D01*
X185352898Y-82885922D01*
X185362850Y-82884759D01*
X185364653Y-82884574D01*
X185441094Y-82877887D01*
X185441098Y-82877885D01*
X185448286Y-82876402D01*
X185448299Y-82876468D01*
X185455655Y-82874836D01*
X185455640Y-82874771D01*
X185462770Y-82873080D01*
X185462781Y-82873079D01*
X185534907Y-82846826D01*
X185536530Y-82846261D01*
X185609406Y-82822114D01*
X185609415Y-82822108D01*
X185616057Y-82819012D01*
X185616086Y-82819074D01*
X185622871Y-82815789D01*
X185622841Y-82815729D01*
X185629392Y-82812437D01*
X185629400Y-82812435D01*
X185693551Y-82770240D01*
X185695016Y-82769307D01*
X185760319Y-82729030D01*
X185760327Y-82729021D01*
X185766076Y-82724477D01*
X185766118Y-82724531D01*
X185771957Y-82719775D01*
X185771914Y-82719723D01*
X185777532Y-82715007D01*
X185777542Y-82715001D01*
X185830236Y-82659147D01*
X185831434Y-82657913D01*
X187830637Y-80658710D01*
X187892947Y-80624686D01*
X187893304Y-80624609D01*
X187956593Y-80611157D01*
X187956593Y-80611156D01*
X187956597Y-80611156D01*
X187962873Y-80609117D01*
X187963182Y-80610070D01*
X188006496Y-80600863D01*
X188222937Y-80600863D01*
X188222943Y-80600863D01*
X188222950Y-80600862D01*
X188222954Y-80600862D01*
X188283501Y-80594353D01*
X188283504Y-80594352D01*
X188283506Y-80594352D01*
X188420509Y-80543252D01*
X188421104Y-80542807D01*
X188537566Y-80455624D01*
X188625192Y-80338570D01*
X188625192Y-80338569D01*
X188625194Y-80338567D01*
X188676294Y-80201564D01*
X188676535Y-80199327D01*
X188682804Y-80141012D01*
X188682805Y-80140995D01*
X188682805Y-79343730D01*
X188682804Y-79343713D01*
X188676295Y-79283166D01*
X188676294Y-79283161D01*
X188658851Y-79236397D01*
X188653785Y-79165581D01*
X188658851Y-79148329D01*
X188676294Y-79101564D01*
X188676295Y-79101559D01*
X188682804Y-79041012D01*
X188682805Y-79040995D01*
X188682805Y-78443730D01*
X188682804Y-78443713D01*
X188676295Y-78383166D01*
X188676294Y-78383163D01*
X188658850Y-78336393D01*
X188653786Y-78265578D01*
X188658846Y-78248339D01*
X188676294Y-78201564D01*
X188682805Y-78141001D01*
X188682805Y-77343725D01*
X188682804Y-77343713D01*
X188676295Y-77283166D01*
X188676293Y-77283158D01*
X188639006Y-77183191D01*
X188625194Y-77146159D01*
X188625193Y-77146157D01*
X188625192Y-77146155D01*
X188537566Y-77029101D01*
X188420512Y-76941475D01*
X188420507Y-76941473D01*
X188283509Y-76890374D01*
X188283501Y-76890372D01*
X188222954Y-76883863D01*
X188222943Y-76883863D01*
X187125667Y-76883863D01*
X187125655Y-76883863D01*
X187065108Y-76890372D01*
X187065100Y-76890374D01*
X186928102Y-76941473D01*
X186928097Y-76941475D01*
X186803830Y-77034502D01*
X186802486Y-77032707D01*
X186751073Y-77060773D01*
X186680258Y-77055699D01*
X186645590Y-77033419D01*
X186644780Y-77034502D01*
X186520512Y-76941475D01*
X186520507Y-76941473D01*
X186383509Y-76890374D01*
X186383501Y-76890372D01*
X186322954Y-76883863D01*
X186322943Y-76883863D01*
X185225667Y-76883863D01*
X185225655Y-76883863D01*
X185165108Y-76890372D01*
X185165100Y-76890374D01*
X185028102Y-76941473D01*
X185028097Y-76941475D01*
X184911043Y-77029102D01*
X184887323Y-77060788D01*
X184830487Y-77103334D01*
X184790418Y-77111216D01*
X184775388Y-77111688D01*
X184775381Y-77111690D01*
X184755923Y-77117342D01*
X184736578Y-77121348D01*
X184716480Y-77123888D01*
X184716471Y-77123890D01*
X184672605Y-77141257D01*
X184666990Y-77143180D01*
X184621682Y-77156344D01*
X184604238Y-77166660D01*
X184586492Y-77175353D01*
X184567656Y-77182811D01*
X184529483Y-77210544D01*
X184524522Y-77213803D01*
X184483912Y-77237821D01*
X184469585Y-77252147D01*
X184454559Y-77264980D01*
X184438169Y-77276888D01*
X184438167Y-77276890D01*
X184408082Y-77313255D01*
X184404086Y-77317646D01*
X183664911Y-78056820D01*
X183602599Y-78090846D01*
X183531784Y-78085781D01*
X183496881Y-78064620D01*
X183496595Y-78065015D01*
X183491874Y-78061585D01*
X183491506Y-78061362D01*
X183491256Y-78061137D01*
X183491253Y-78061134D01*
X183336752Y-77948882D01*
X183162288Y-77871206D01*
X182975487Y-77831500D01*
X182784513Y-77831500D01*
X182597711Y-77871206D01*
X182423247Y-77948882D01*
X182268744Y-78061135D01*
X182140965Y-78203048D01*
X182140958Y-78203058D01*
X182045476Y-78368438D01*
X182045473Y-78368444D01*
X182030999Y-78412986D01*
X181986457Y-78550072D01*
X181969092Y-78715292D01*
X181942079Y-78780949D01*
X181932877Y-78791216D01*
X180564498Y-80159596D01*
X180502188Y-80193620D01*
X180475405Y-80196500D01*
X175793853Y-80196500D01*
X175778011Y-80194750D01*
X175777984Y-80195044D01*
X175770091Y-80194297D01*
X175701012Y-80196469D01*
X175699033Y-80196500D01*
X175670144Y-80196500D01*
X175670140Y-80196500D01*
X175670129Y-80196501D01*
X175663190Y-80197377D01*
X175657277Y-80197843D01*
X175610114Y-80199325D01*
X175610107Y-80199327D01*
X175590649Y-80204979D01*
X175571304Y-80208985D01*
X175551206Y-80211525D01*
X175551197Y-80211527D01*
X175507331Y-80228894D01*
X175501716Y-80230817D01*
X175456408Y-80243981D01*
X175438964Y-80254297D01*
X175421218Y-80262990D01*
X175402382Y-80270448D01*
X175364209Y-80298181D01*
X175359248Y-80301440D01*
X175318638Y-80325458D01*
X175304311Y-80339784D01*
X175289285Y-80352617D01*
X175272895Y-80364525D01*
X175272893Y-80364527D01*
X175242808Y-80400892D01*
X175238812Y-80405283D01*
X165913528Y-89730566D01*
X165890148Y-89743332D01*
X165884319Y-89758306D01*
X165873634Y-89770460D01*
X160581336Y-95062757D01*
X160568901Y-95072721D01*
X160569089Y-95072948D01*
X160562979Y-95078002D01*
X160515694Y-95128355D01*
X160514319Y-95129774D01*
X160493863Y-95150231D01*
X160489560Y-95155777D01*
X160485714Y-95160279D01*
X160453417Y-95194674D01*
X160453411Y-95194683D01*
X160443651Y-95212435D01*
X160432803Y-95228950D01*
X160420386Y-95244958D01*
X160401645Y-95288264D01*
X160399034Y-95293594D01*
X160376305Y-95334939D01*
X160376303Y-95334944D01*
X160371267Y-95354559D01*
X160364864Y-95373262D01*
X160356819Y-95391852D01*
X160349437Y-95438456D01*
X160348233Y-95444268D01*
X160336500Y-95489968D01*
X160336500Y-95510223D01*
X160334949Y-95529933D01*
X160331780Y-95549942D01*
X160331780Y-95549943D01*
X160336220Y-95596917D01*
X160336500Y-95602850D01*
X160336500Y-102209591D01*
X160316498Y-102277712D01*
X160262842Y-102324205D01*
X160254534Y-102327646D01*
X160223795Y-102339111D01*
X160223792Y-102339112D01*
X160099525Y-102432139D01*
X160098179Y-102430342D01*
X160046783Y-102458408D01*
X159975968Y-102453343D01*
X159941287Y-102431054D01*
X159940475Y-102432139D01*
X159816207Y-102339112D01*
X159816204Y-102339111D01*
X159785466Y-102327646D01*
X159728631Y-102285099D01*
X159703821Y-102218578D01*
X159703500Y-102209591D01*
X159703500Y-88268898D01*
X159723502Y-88200777D01*
X159777158Y-88154284D01*
X159847432Y-88144180D01*
X159912012Y-88173674D01*
X159918592Y-88179800D01*
X160482138Y-88743347D01*
X161027448Y-89288657D01*
X161037415Y-89301097D01*
X161037642Y-89300910D01*
X161042694Y-89307017D01*
X161042695Y-89307018D01*
X161059701Y-89322988D01*
X161093083Y-89354335D01*
X161094472Y-89355681D01*
X161105411Y-89366620D01*
X161114916Y-89376125D01*
X161114926Y-89376135D01*
X161120457Y-89380425D01*
X161124974Y-89384282D01*
X161159374Y-89416586D01*
X161159376Y-89416587D01*
X161159377Y-89416588D01*
X161177124Y-89426344D01*
X161193644Y-89437196D01*
X161209654Y-89449614D01*
X161252965Y-89468355D01*
X161258286Y-89470962D01*
X161299635Y-89493695D01*
X161299643Y-89493697D01*
X161319253Y-89498732D01*
X161337962Y-89505137D01*
X161356550Y-89513181D01*
X161403172Y-89520564D01*
X161408957Y-89521763D01*
X161454665Y-89533500D01*
X161474919Y-89533500D01*
X161494629Y-89535051D01*
X161496836Y-89535400D01*
X161514638Y-89538220D01*
X161548565Y-89535012D01*
X161561612Y-89533780D01*
X161567545Y-89533500D01*
X164391800Y-89533500D01*
X164459921Y-89553502D01*
X164485437Y-89575190D01*
X164485542Y-89575307D01*
X164488747Y-89578866D01*
X164643248Y-89691118D01*
X164817712Y-89768794D01*
X165004513Y-89808500D01*
X165195487Y-89808500D01*
X165382288Y-89768794D01*
X165556752Y-89691118D01*
X165710478Y-89579428D01*
X165716555Y-89577260D01*
X165730797Y-89557161D01*
X165839034Y-89436951D01*
X165839035Y-89436949D01*
X165839040Y-89436944D01*
X165934527Y-89271556D01*
X165993542Y-89089928D01*
X166013504Y-88900000D01*
X165993542Y-88710072D01*
X165934527Y-88528444D01*
X165839040Y-88363056D01*
X165839038Y-88363054D01*
X165839034Y-88363048D01*
X165711255Y-88221135D01*
X165556752Y-88108882D01*
X165382288Y-88031206D01*
X165195487Y-87991500D01*
X165004513Y-87991500D01*
X164817711Y-88031206D01*
X164643247Y-88108882D01*
X164488747Y-88221133D01*
X164485437Y-88224810D01*
X164424991Y-88262050D01*
X164391800Y-88266500D01*
X161849289Y-88266500D01*
X161781168Y-88246498D01*
X161760194Y-88229595D01*
X160686526Y-87155927D01*
X160652500Y-87093615D01*
X160657565Y-87022800D01*
X160681982Y-86982525D01*
X160759040Y-86896944D01*
X160854527Y-86731556D01*
X160913542Y-86549928D01*
X160933504Y-86360000D01*
X160913542Y-86170072D01*
X160854527Y-85988444D01*
X160759040Y-85823056D01*
X160759038Y-85823054D01*
X160759034Y-85823048D01*
X160631255Y-85681135D01*
X160476752Y-85568882D01*
X160302288Y-85491206D01*
X160115487Y-85451500D01*
X160059594Y-85451500D01*
X159991473Y-85431498D01*
X159970499Y-85414595D01*
X146902244Y-72346339D01*
X146892279Y-72333901D01*
X146892052Y-72334090D01*
X146887001Y-72327984D01*
X146887000Y-72327982D01*
X146836626Y-72280678D01*
X146835237Y-72279332D01*
X146824990Y-72269085D01*
X146814776Y-72258870D01*
X146814772Y-72258866D01*
X146809225Y-72254563D01*
X146804717Y-72250712D01*
X146770325Y-72218417D01*
X146770319Y-72218413D01*
X146752563Y-72208651D01*
X146736047Y-72197802D01*
X146720041Y-72185386D01*
X146689289Y-72172078D01*
X146676740Y-72166648D01*
X146671408Y-72164036D01*
X146630061Y-72141305D01*
X146610436Y-72136266D01*
X146591736Y-72129864D01*
X146589460Y-72128879D01*
X146573145Y-72121819D01*
X146573143Y-72121818D01*
X146573142Y-72121818D01*
X146526542Y-72114437D01*
X146520729Y-72113233D01*
X146475030Y-72101500D01*
X146454776Y-72101500D01*
X146435066Y-72099949D01*
X146415057Y-72096780D01*
X146415056Y-72096780D01*
X146368083Y-72101220D01*
X146362150Y-72101500D01*
X136549594Y-72101500D01*
X136481473Y-72081498D01*
X136460499Y-72064595D01*
X125382244Y-60986339D01*
X125372279Y-60973901D01*
X125372052Y-60974090D01*
X125367001Y-60967984D01*
X125367000Y-60967982D01*
X125351271Y-60953212D01*
X125351270Y-60953211D01*
X127417195Y-60953211D01*
X127436380Y-61172499D01*
X127493350Y-61385115D01*
X127493352Y-61385119D01*
X127586378Y-61584614D01*
X127628800Y-61645198D01*
X127628802Y-61645198D01*
X128281272Y-60992727D01*
X128294835Y-61078360D01*
X128352359Y-61191257D01*
X128441955Y-61280853D01*
X128554852Y-61338377D01*
X128640481Y-61351939D01*
X127988012Y-62004408D01*
X127988012Y-62004409D01*
X128048600Y-62046834D01*
X128248092Y-62139859D01*
X128248096Y-62139861D01*
X128460712Y-62196831D01*
X128680000Y-62216016D01*
X128899287Y-62196831D01*
X129111903Y-62139861D01*
X129111912Y-62139857D01*
X129311405Y-62046831D01*
X129311412Y-62046827D01*
X129371986Y-62004410D01*
X129371986Y-62004409D01*
X128719517Y-61351939D01*
X128805148Y-61338377D01*
X128918045Y-61280853D01*
X129007641Y-61191257D01*
X129065165Y-61078360D01*
X129078727Y-60992729D01*
X129731196Y-61645198D01*
X129731198Y-61645198D01*
X129773615Y-61584624D01*
X129773619Y-61584617D01*
X129866645Y-61385124D01*
X129866649Y-61385115D01*
X129923619Y-61172499D01*
X129942804Y-60953212D01*
X130816693Y-60953212D01*
X130835885Y-61172583D01*
X130867496Y-61290555D01*
X130892879Y-61385285D01*
X130892881Y-61385291D01*
X130922535Y-61448884D01*
X130985944Y-61584866D01*
X131076664Y-61714427D01*
X131112251Y-61765250D01*
X131112254Y-61765254D01*
X131267957Y-61920957D01*
X131267961Y-61920960D01*
X131267962Y-61920961D01*
X131448346Y-62047268D01*
X131647924Y-62140332D01*
X131860629Y-62197327D01*
X132080000Y-62216519D01*
X132299371Y-62197327D01*
X132512076Y-62140332D01*
X132686253Y-62059112D01*
X132756440Y-62048452D01*
X132821253Y-62077432D01*
X132860110Y-62136851D01*
X132865499Y-62173308D01*
X132865499Y-65065652D01*
X132880231Y-65262231D01*
X132938746Y-65518599D01*
X132938747Y-65518602D01*
X133034813Y-65763377D01*
X133034815Y-65763381D01*
X133166296Y-65991113D01*
X133166298Y-65991116D01*
X133166299Y-65991117D01*
X133219248Y-66057513D01*
X133330257Y-66196714D01*
X133469762Y-66326154D01*
X133523020Y-66375570D01*
X133523026Y-66375574D01*
X133740280Y-66523696D01*
X133740287Y-66523700D01*
X133740290Y-66523702D01*
X133977212Y-66637798D01*
X134159926Y-66694158D01*
X134228485Y-66715306D01*
X134228492Y-66715308D01*
X134488518Y-66754500D01*
X134488522Y-66754500D01*
X134751478Y-66754500D01*
X134751482Y-66754500D01*
X135011508Y-66715308D01*
X135262788Y-66637798D01*
X135499710Y-66523702D01*
X135517744Y-66511407D01*
X135569359Y-66476216D01*
X135716980Y-66375570D01*
X135909746Y-66196710D01*
X136073701Y-65991117D01*
X136205183Y-65763384D01*
X136206272Y-65760611D01*
X136261028Y-65621093D01*
X136301254Y-65518598D01*
X136359769Y-65262228D01*
X136374500Y-65065654D01*
X186205500Y-65065654D01*
X186209542Y-65119587D01*
X186220231Y-65262231D01*
X186278746Y-65518599D01*
X186278747Y-65518602D01*
X186374813Y-65763377D01*
X186374815Y-65763381D01*
X186506296Y-65991113D01*
X186506298Y-65991116D01*
X186506299Y-65991117D01*
X186559248Y-66057513D01*
X186670257Y-66196714D01*
X186809762Y-66326154D01*
X186863020Y-66375570D01*
X186863026Y-66375574D01*
X187080280Y-66523696D01*
X187080287Y-66523700D01*
X187080290Y-66523702D01*
X187317212Y-66637798D01*
X187499926Y-66694158D01*
X187568485Y-66715306D01*
X187568492Y-66715308D01*
X187828518Y-66754500D01*
X187828522Y-66754500D01*
X188091478Y-66754500D01*
X188091482Y-66754500D01*
X188351508Y-66715308D01*
X188602788Y-66637798D01*
X188839710Y-66523702D01*
X188857744Y-66511407D01*
X188909359Y-66476216D01*
X189056980Y-66375570D01*
X189249746Y-66196710D01*
X189413701Y-65991117D01*
X189545183Y-65763384D01*
X189546272Y-65760611D01*
X189601028Y-65621093D01*
X189641254Y-65518598D01*
X189699769Y-65262228D01*
X189714500Y-65065654D01*
X189714500Y-61934346D01*
X189699769Y-61737772D01*
X189641254Y-61481402D01*
X189613045Y-61409527D01*
X189545186Y-61236622D01*
X189545184Y-61236618D01*
X189413703Y-61008886D01*
X189395722Y-60986339D01*
X189249746Y-60803290D01*
X189249745Y-60803289D01*
X189249742Y-60803285D01*
X189078948Y-60644813D01*
X189056980Y-60624430D01*
X189009473Y-60592040D01*
X188839719Y-60476303D01*
X188839712Y-60476299D01*
X188602793Y-60362204D01*
X188602790Y-60362203D01*
X188602788Y-60362202D01*
X188514896Y-60335090D01*
X188351514Y-60284693D01*
X188351509Y-60284692D01*
X188351508Y-60284692D01*
X188091482Y-60245500D01*
X187828518Y-60245500D01*
X187568492Y-60284692D01*
X187568491Y-60284692D01*
X187568485Y-60284693D01*
X187345865Y-60353363D01*
X187324374Y-60359993D01*
X187317206Y-60362204D01*
X187080287Y-60476299D01*
X187080280Y-60476303D01*
X186863026Y-60624425D01*
X186863014Y-60624435D01*
X186670257Y-60803285D01*
X186506296Y-61008886D01*
X186374815Y-61236618D01*
X186374813Y-61236622D01*
X186278747Y-61481397D01*
X186278746Y-61481400D01*
X186220231Y-61737768D01*
X186209367Y-61882738D01*
X186205500Y-61934346D01*
X186205500Y-65065654D01*
X136374500Y-65065654D01*
X136374500Y-61934346D01*
X136359769Y-61737772D01*
X136301254Y-61481402D01*
X136273045Y-61409527D01*
X136205186Y-61236622D01*
X136205184Y-61236618D01*
X136073703Y-61008886D01*
X136055722Y-60986339D01*
X135909746Y-60803290D01*
X135909745Y-60803289D01*
X135909742Y-60803285D01*
X135738948Y-60644813D01*
X135716980Y-60624430D01*
X135669473Y-60592040D01*
X135499719Y-60476303D01*
X135499712Y-60476299D01*
X135262793Y-60362204D01*
X135262790Y-60362203D01*
X135262788Y-60362202D01*
X135174896Y-60335090D01*
X135011514Y-60284693D01*
X135011509Y-60284692D01*
X135011508Y-60284692D01*
X134751482Y-60245500D01*
X134488518Y-60245500D01*
X134228492Y-60284692D01*
X134228491Y-60284692D01*
X134228485Y-60284693D01*
X134005865Y-60353363D01*
X133984374Y-60359993D01*
X133977206Y-60362204D01*
X133740287Y-60476299D01*
X133740280Y-60476303D01*
X133523026Y-60624425D01*
X133523013Y-60624435D01*
X133493525Y-60651796D01*
X133429983Y-60683466D01*
X133359407Y-60675756D01*
X133304203Y-60631113D01*
X133286120Y-60592044D01*
X133267120Y-60521136D01*
X133174056Y-60321559D01*
X133047749Y-60141174D01*
X132892038Y-59985463D01*
X132711654Y-59859156D01*
X132711650Y-59859154D01*
X132512079Y-59766093D01*
X132512073Y-59766091D01*
X132422178Y-59742003D01*
X132299371Y-59709097D01*
X132080000Y-59689905D01*
X131860629Y-59709097D01*
X131647926Y-59766091D01*
X131647920Y-59766093D01*
X131448346Y-59859156D01*
X131267965Y-59985460D01*
X131267959Y-59985465D01*
X131112253Y-60141171D01*
X131112248Y-60141177D01*
X130985944Y-60321558D01*
X130892881Y-60521132D01*
X130892879Y-60521138D01*
X130841692Y-60712171D01*
X130835885Y-60733841D01*
X130816693Y-60953212D01*
X129942804Y-60953212D01*
X129923619Y-60733924D01*
X129866649Y-60521308D01*
X129866647Y-60521304D01*
X129773621Y-60321810D01*
X129731198Y-60261224D01*
X129731197Y-60261224D01*
X129078727Y-60913693D01*
X129065165Y-60828064D01*
X129007641Y-60715167D01*
X128918045Y-60625571D01*
X128805148Y-60568047D01*
X128719516Y-60554484D01*
X129371986Y-59902013D01*
X129371986Y-59902012D01*
X129311401Y-59859590D01*
X129311402Y-59859590D01*
X129111907Y-59766564D01*
X129111903Y-59766562D01*
X128899287Y-59709592D01*
X128680000Y-59690407D01*
X128460712Y-59709592D01*
X128248096Y-59766562D01*
X128248092Y-59766564D01*
X128048598Y-59859590D01*
X127988011Y-59902013D01*
X128640482Y-60554484D01*
X128554852Y-60568047D01*
X128441955Y-60625571D01*
X128352359Y-60715167D01*
X128294835Y-60828064D01*
X128281272Y-60913694D01*
X127628801Y-60261224D01*
X127586378Y-60321810D01*
X127493352Y-60521304D01*
X127493350Y-60521308D01*
X127436380Y-60733924D01*
X127417195Y-60953211D01*
X125351270Y-60953211D01*
X125316627Y-60920679D01*
X125315237Y-60919332D01*
X125299992Y-60904087D01*
X125294776Y-60898870D01*
X125294772Y-60898866D01*
X125289225Y-60894563D01*
X125284717Y-60890712D01*
X125250325Y-60858417D01*
X125250319Y-60858413D01*
X125232563Y-60848651D01*
X125216047Y-60837802D01*
X125200041Y-60825386D01*
X125169289Y-60812078D01*
X125156740Y-60806648D01*
X125151408Y-60804036D01*
X125110061Y-60781305D01*
X125090436Y-60776266D01*
X125071736Y-60769864D01*
X125053145Y-60761819D01*
X125053143Y-60761818D01*
X125053142Y-60761818D01*
X125006542Y-60754437D01*
X125000729Y-60753233D01*
X124955030Y-60741500D01*
X124934776Y-60741500D01*
X124915066Y-60739949D01*
X124895057Y-60736780D01*
X124895056Y-60736780D01*
X124848083Y-60741220D01*
X124842150Y-60741500D01*
X111962767Y-60741500D01*
X111894646Y-60721498D01*
X111873672Y-60704595D01*
X110565417Y-59396339D01*
X110555452Y-59383901D01*
X110555225Y-59384090D01*
X110550174Y-59377984D01*
X110550173Y-59377982D01*
X110499798Y-59330677D01*
X110498409Y-59329331D01*
X110488163Y-59319085D01*
X110477949Y-59308870D01*
X110477945Y-59308866D01*
X110472398Y-59304563D01*
X110467890Y-59300712D01*
X110433498Y-59268417D01*
X110433492Y-59268413D01*
X110415736Y-59258651D01*
X110399220Y-59247802D01*
X110383214Y-59235386D01*
X110352462Y-59222078D01*
X110339913Y-59216648D01*
X110334581Y-59214036D01*
X110293234Y-59191305D01*
X110273609Y-59186266D01*
X110254909Y-59179864D01*
X110236318Y-59171819D01*
X110236316Y-59171818D01*
X110236315Y-59171818D01*
X110189715Y-59164437D01*
X110183902Y-59163233D01*
X110138203Y-59151500D01*
X110117949Y-59151500D01*
X110098239Y-59149949D01*
X110078230Y-59146780D01*
X110078229Y-59146780D01*
X110031256Y-59151220D01*
X110025323Y-59151500D01*
X107938853Y-59151500D01*
X107923011Y-59149750D01*
X107922984Y-59150044D01*
X107915091Y-59149297D01*
X107846012Y-59151469D01*
X107844033Y-59151500D01*
X107815144Y-59151500D01*
X107815140Y-59151500D01*
X107815129Y-59151501D01*
X107808190Y-59152377D01*
X107802277Y-59152843D01*
X107755114Y-59154325D01*
X107755107Y-59154327D01*
X107735649Y-59159979D01*
X107716304Y-59163985D01*
X107696206Y-59166525D01*
X107696197Y-59166527D01*
X107652331Y-59183894D01*
X107646716Y-59185817D01*
X107601408Y-59198981D01*
X107583964Y-59209297D01*
X107566218Y-59217990D01*
X107547382Y-59225448D01*
X107509209Y-59253181D01*
X107504248Y-59256440D01*
X107463638Y-59280458D01*
X107449311Y-59294784D01*
X107434285Y-59307617D01*
X107417895Y-59319525D01*
X107417893Y-59319527D01*
X107387808Y-59355892D01*
X107383812Y-59360283D01*
X107137794Y-59606300D01*
X107075482Y-59640326D01*
X107019781Y-59639382D01*
X107019776Y-59639414D01*
X107019563Y-59639378D01*
X107017764Y-59639348D01*
X107014642Y-59638557D01*
X106969968Y-59631102D01*
X106792569Y-59601500D01*
X106567431Y-59601500D01*
X106456496Y-59620011D01*
X106345355Y-59638557D01*
X106342213Y-59639353D01*
X106340889Y-59639303D01*
X106340224Y-59639414D01*
X106340201Y-59639277D01*
X106271267Y-59636675D01*
X106222204Y-59606299D01*
X106012244Y-59396339D01*
X106002279Y-59383901D01*
X106002052Y-59384090D01*
X105997001Y-59377984D01*
X105997000Y-59377982D01*
X105946625Y-59330677D01*
X105945236Y-59329331D01*
X105934990Y-59319085D01*
X105924776Y-59308870D01*
X105924772Y-59308866D01*
X105919225Y-59304563D01*
X105914717Y-59300712D01*
X105880325Y-59268417D01*
X105880319Y-59268413D01*
X105862563Y-59258651D01*
X105846047Y-59247802D01*
X105830041Y-59235386D01*
X105799289Y-59222078D01*
X105786740Y-59216648D01*
X105781408Y-59214036D01*
X105740061Y-59191305D01*
X105720436Y-59186266D01*
X105701736Y-59179864D01*
X105683145Y-59171819D01*
X105683143Y-59171818D01*
X105683142Y-59171818D01*
X105636542Y-59164437D01*
X105630729Y-59163233D01*
X105585030Y-59151500D01*
X105564776Y-59151500D01*
X105545066Y-59149949D01*
X105525057Y-59146780D01*
X105525056Y-59146780D01*
X105478083Y-59151220D01*
X105472150Y-59151500D01*
X103737148Y-59151500D01*
X103721309Y-59149751D01*
X103721282Y-59150045D01*
X103713390Y-59149299D01*
X103644343Y-59151469D01*
X103642364Y-59151500D01*
X103613443Y-59151500D01*
X103606471Y-59152379D01*
X103600564Y-59152844D01*
X103553409Y-59154326D01*
X103553404Y-59154327D01*
X103533959Y-59159977D01*
X103514601Y-59163986D01*
X103494509Y-59166524D01*
X103494501Y-59166526D01*
X103450635Y-59183893D01*
X103445020Y-59185816D01*
X103399706Y-59198982D01*
X103399701Y-59198984D01*
X103382262Y-59209297D01*
X103364517Y-59217990D01*
X103345679Y-59225449D01*
X103332003Y-59235386D01*
X103307511Y-59253180D01*
X103302560Y-59256433D01*
X103261939Y-59280455D01*
X103247606Y-59294787D01*
X103232580Y-59307620D01*
X103216194Y-59319526D01*
X103216193Y-59319526D01*
X103186117Y-59355880D01*
X103182121Y-59360271D01*
X101337797Y-61204596D01*
X101275487Y-61238620D01*
X101248704Y-61241500D01*
X77908853Y-61241500D01*
X77893011Y-61239750D01*
X77892984Y-61240044D01*
X77885091Y-61239298D01*
X77816024Y-61241469D01*
X77814045Y-61241500D01*
X77785144Y-61241500D01*
X77785140Y-61241500D01*
X77785130Y-61241501D01*
X77778179Y-61242379D01*
X77772267Y-61242844D01*
X77725113Y-61244326D01*
X77725111Y-61244327D01*
X77705656Y-61249978D01*
X77686303Y-61253986D01*
X77666211Y-61256524D01*
X77666204Y-61256525D01*
X77666203Y-61256526D01*
X77666201Y-61256526D01*
X77666200Y-61256527D01*
X77622339Y-61273892D01*
X77616724Y-61275815D01*
X77571407Y-61288982D01*
X77553964Y-61299297D01*
X77536218Y-61307990D01*
X77517382Y-61315448D01*
X77479209Y-61343181D01*
X77474248Y-61346440D01*
X77433638Y-61370458D01*
X77419311Y-61384784D01*
X77404285Y-61397617D01*
X77387895Y-61409525D01*
X77387893Y-61409527D01*
X77357808Y-61445892D01*
X77353812Y-61450283D01*
X76565492Y-62238602D01*
X76553055Y-62248567D01*
X76553243Y-62248794D01*
X76547133Y-62253847D01*
X76499845Y-62304203D01*
X76498471Y-62305622D01*
X76478015Y-62326079D01*
X76473712Y-62331625D01*
X76469866Y-62336127D01*
X76437569Y-62370522D01*
X76437563Y-62370531D01*
X76427803Y-62388283D01*
X76416955Y-62404798D01*
X76404538Y-62420806D01*
X76385797Y-62464112D01*
X76383186Y-62469442D01*
X76360457Y-62510787D01*
X76360455Y-62510792D01*
X76355419Y-62530407D01*
X76349016Y-62549110D01*
X76340971Y-62567700D01*
X76333589Y-62614304D01*
X76332385Y-62620116D01*
X76320652Y-62665816D01*
X76320652Y-62686071D01*
X76319101Y-62705781D01*
X76315932Y-62725790D01*
X76315932Y-62725791D01*
X76320372Y-62772765D01*
X76320652Y-62778698D01*
X76320652Y-68447523D01*
X76300650Y-68515644D01*
X76283747Y-68536618D01*
X71903595Y-72916770D01*
X71841283Y-72950796D01*
X71770468Y-72945731D01*
X71713632Y-72903184D01*
X71688821Y-72836664D01*
X71688500Y-72827675D01*
X71688500Y-72181862D01*
X71685633Y-72139595D01*
X71685633Y-72139592D01*
X71681213Y-72121818D01*
X71640192Y-71956868D01*
X71556533Y-71788186D01*
X71438568Y-71641432D01*
X71291814Y-71523467D01*
X71123132Y-71439808D01*
X70940409Y-71394367D01*
X70940405Y-71394366D01*
X70898137Y-71391500D01*
X70898128Y-71391500D01*
X68461872Y-71391500D01*
X68461863Y-71391500D01*
X68419595Y-71394366D01*
X68419592Y-71394366D01*
X68282310Y-71428507D01*
X68236868Y-71439808D01*
X68068186Y-71523467D01*
X68068182Y-71523469D01*
X68003940Y-71575109D01*
X67938315Y-71602198D01*
X67868462Y-71589506D01*
X67846060Y-71575109D01*
X67781817Y-71523469D01*
X67781815Y-71523468D01*
X67781814Y-71523467D01*
X67613132Y-71439808D01*
X67430409Y-71394367D01*
X67430405Y-71394366D01*
X67388137Y-71391500D01*
X67388128Y-71391500D01*
X64951872Y-71391500D01*
X64951863Y-71391500D01*
X64909595Y-71394366D01*
X64909592Y-71394366D01*
X64772310Y-71428507D01*
X64726868Y-71439808D01*
X64558186Y-71523467D01*
X64558184Y-71523468D01*
X64411432Y-71641432D01*
X64293468Y-71788184D01*
X64293467Y-71788185D01*
X64293467Y-71788186D01*
X64212154Y-71952139D01*
X64209808Y-71956869D01*
X64164366Y-72139592D01*
X64164366Y-72139595D01*
X64161500Y-72181862D01*
X64161500Y-72941280D01*
X64141498Y-73009401D01*
X64087842Y-73055894D01*
X64035500Y-73067280D01*
X64025003Y-73067280D01*
X63838201Y-73106986D01*
X63663737Y-73184662D01*
X63509234Y-73296915D01*
X63381455Y-73438828D01*
X63381448Y-73438838D01*
X63285966Y-73604218D01*
X63285963Y-73604225D01*
X63226947Y-73785852D01*
X63206986Y-73975780D01*
X63226947Y-74165707D01*
X63238384Y-74200904D01*
X63285963Y-74347336D01*
X63285966Y-74347341D01*
X63381448Y-74512721D01*
X63381455Y-74512731D01*
X63509234Y-74654644D01*
X63569387Y-74698348D01*
X63663738Y-74766898D01*
X63838202Y-74844574D01*
X64025003Y-74884280D01*
X64080894Y-74884280D01*
X64149015Y-74904282D01*
X64169989Y-74921184D01*
X64338244Y-75089438D01*
X64348212Y-75101881D01*
X64348440Y-75101693D01*
X64353491Y-75107799D01*
X64403861Y-75155099D01*
X64405251Y-75156446D01*
X64415499Y-75166694D01*
X64425714Y-75176910D01*
X64425718Y-75176913D01*
X64425720Y-75176915D01*
X64431272Y-75181222D01*
X64435759Y-75185053D01*
X64458449Y-75206361D01*
X64470167Y-75217365D01*
X64470169Y-75217366D01*
X64487918Y-75227123D01*
X64504443Y-75237978D01*
X64520449Y-75250394D01*
X64562176Y-75268450D01*
X64563752Y-75269132D01*
X64569073Y-75271738D01*
X64610430Y-75294475D01*
X64610438Y-75294477D01*
X64630048Y-75299512D01*
X64648757Y-75305917D01*
X64667345Y-75313961D01*
X64713967Y-75321344D01*
X64719752Y-75322543D01*
X64765460Y-75334280D01*
X64785714Y-75334280D01*
X64805424Y-75335831D01*
X64807631Y-75336180D01*
X64825433Y-75339000D01*
X64859360Y-75335792D01*
X64872407Y-75334560D01*
X64878340Y-75334280D01*
X65621921Y-75334280D01*
X65690042Y-75354282D01*
X65736535Y-75407938D01*
X65746534Y-75469177D01*
X65746986Y-75469177D01*
X65746986Y-75471948D01*
X65747231Y-75473449D01*
X65746986Y-75475779D01*
X65766947Y-75665707D01*
X65783897Y-75717872D01*
X65825963Y-75847336D01*
X65880184Y-75941250D01*
X65915836Y-76003000D01*
X65932574Y-76071995D01*
X65909354Y-76139087D01*
X65853547Y-76182974D01*
X65806717Y-76192000D01*
X64951913Y-76192000D01*
X64909664Y-76194865D01*
X64909657Y-76194866D01*
X64727044Y-76240279D01*
X64558453Y-76323893D01*
X64411786Y-76441786D01*
X64293893Y-76588453D01*
X64210279Y-76757044D01*
X64164866Y-76939657D01*
X64164865Y-76939664D01*
X64162000Y-76981912D01*
X64162000Y-77446000D01*
X66298000Y-77446000D01*
X66366121Y-77466002D01*
X66412614Y-77519658D01*
X66424000Y-77572000D01*
X66424000Y-78490688D01*
X66281768Y-78464877D01*
X66113133Y-78464877D01*
X65945168Y-78479994D01*
X65915266Y-78488246D01*
X65915266Y-77954000D01*
X64162000Y-77954000D01*
X64162000Y-78418087D01*
X64164865Y-78460338D01*
X64199081Y-78597927D01*
X64198986Y-78659120D01*
X64171734Y-78767277D01*
X64171733Y-78767284D01*
X64161266Y-78900270D01*
X64161266Y-79460877D01*
X64945095Y-79460877D01*
X64925573Y-79546407D01*
X64915478Y-79771185D01*
X64942257Y-79968877D01*
X64161266Y-79968877D01*
X64161266Y-80529483D01*
X64171733Y-80662471D01*
X64227060Y-80882044D01*
X64227063Y-80882053D01*
X64320707Y-81088217D01*
X64320710Y-81088223D01*
X64449660Y-81274350D01*
X64449674Y-81274367D01*
X64609775Y-81434468D01*
X64609792Y-81434482D01*
X64795919Y-81563432D01*
X64795925Y-81563435D01*
X65002089Y-81657079D01*
X65002098Y-81657082D01*
X65221671Y-81712409D01*
X65354659Y-81722877D01*
X65915266Y-81722877D01*
X65915266Y-80939198D01*
X66056764Y-80964877D01*
X66225399Y-80964877D01*
X66393364Y-80949760D01*
X66423265Y-80941507D01*
X66423266Y-81722877D01*
X66983873Y-81722877D01*
X67116860Y-81712409D01*
X67336433Y-81657082D01*
X67336442Y-81657079D01*
X67542606Y-81563435D01*
X67542612Y-81563432D01*
X67728739Y-81434482D01*
X67728749Y-81434474D01*
X67834816Y-81328407D01*
X67897128Y-81294382D01*
X67967944Y-81299446D01*
X68013007Y-81328407D01*
X68119461Y-81434861D01*
X68119466Y-81434865D01*
X68305668Y-81563867D01*
X68305674Y-81563870D01*
X68305675Y-81563871D01*
X68511930Y-81657556D01*
X68731597Y-81712907D01*
X68864630Y-81723377D01*
X68864633Y-81723377D01*
X70493899Y-81723377D01*
X70493902Y-81723377D01*
X70626935Y-81712907D01*
X70846602Y-81657556D01*
X71052857Y-81563871D01*
X71053487Y-81563435D01*
X71239065Y-81434865D01*
X71239064Y-81434865D01*
X71239068Y-81434863D01*
X71399252Y-81274679D01*
X71503812Y-81123756D01*
X71528256Y-81088474D01*
X71528256Y-81088472D01*
X71528260Y-81088468D01*
X71621945Y-80882213D01*
X71677296Y-80662546D01*
X71687766Y-80529513D01*
X71687766Y-79874499D01*
X71707768Y-79806379D01*
X71761424Y-79759886D01*
X71813766Y-79748500D01*
X94907356Y-79748500D01*
X94913535Y-79748804D01*
X94959997Y-79753380D01*
X94960000Y-79753380D01*
X94960004Y-79753380D01*
X95157692Y-79733910D01*
X95157693Y-79733909D01*
X95157701Y-79733909D01*
X95195721Y-79722375D01*
X95347792Y-79676245D01*
X95347795Y-79676243D01*
X95347804Y-79676241D01*
X95399704Y-79648500D01*
X95523004Y-79582595D01*
X95676568Y-79456568D01*
X95706211Y-79420445D01*
X95710325Y-79415907D01*
X103295907Y-71830325D01*
X103300445Y-71826211D01*
X103336568Y-71796568D01*
X103462595Y-71643004D01*
X103556241Y-71467804D01*
X103579388Y-71391500D01*
X103613909Y-71277701D01*
X103633380Y-71080000D01*
X103613909Y-70882299D01*
X103556241Y-70692196D01*
X103484477Y-70557935D01*
X103462595Y-70516996D01*
X103336568Y-70363432D01*
X103336565Y-70363429D01*
X103295282Y-70329549D01*
X103255313Y-70270871D01*
X103253413Y-70199900D01*
X103286119Y-70143057D01*
X106718772Y-66710405D01*
X106781085Y-66676379D01*
X106807868Y-66673500D01*
X111051800Y-66673500D01*
X111119921Y-66693502D01*
X111145437Y-66715190D01*
X111145542Y-66715307D01*
X111148747Y-66718866D01*
X111303248Y-66831118D01*
X111477712Y-66908794D01*
X111664513Y-66948500D01*
X111855487Y-66948500D01*
X112042288Y-66908794D01*
X112216752Y-66831118D01*
X112371253Y-66718866D01*
X112374458Y-66715307D01*
X112499034Y-66576951D01*
X112499035Y-66576949D01*
X112499040Y-66576944D01*
X112594527Y-66411556D01*
X112653542Y-66229928D01*
X112673504Y-66040000D01*
X112653542Y-65850072D01*
X112594527Y-65668444D01*
X112499040Y-65503056D01*
X112499038Y-65503054D01*
X112499034Y-65503048D01*
X112371255Y-65361135D01*
X112216752Y-65248882D01*
X112042288Y-65171206D01*
X111855487Y-65131500D01*
X111664513Y-65131500D01*
X111477711Y-65171206D01*
X111303247Y-65248882D01*
X111148747Y-65361133D01*
X111145437Y-65364810D01*
X111084991Y-65402050D01*
X111051800Y-65406500D01*
X106577123Y-65406500D01*
X106561284Y-65404751D01*
X106561257Y-65405045D01*
X106553365Y-65404299D01*
X106484318Y-65406469D01*
X106482339Y-65406500D01*
X106453418Y-65406500D01*
X106446446Y-65407379D01*
X106440539Y-65407844D01*
X106393384Y-65409326D01*
X106393379Y-65409327D01*
X106373934Y-65414977D01*
X106354576Y-65418986D01*
X106334481Y-65421524D01*
X106334479Y-65421525D01*
X106290598Y-65438897D01*
X106284983Y-65440819D01*
X106239684Y-65453980D01*
X106239678Y-65453982D01*
X106222240Y-65464295D01*
X106204494Y-65472989D01*
X106185655Y-65480448D01*
X106185654Y-65480449D01*
X106147487Y-65508178D01*
X106142526Y-65511437D01*
X106101911Y-65535458D01*
X106087581Y-65549787D01*
X106072555Y-65562620D01*
X106056169Y-65574526D01*
X106056168Y-65574526D01*
X106026092Y-65610880D01*
X106022097Y-65615271D01*
X105224690Y-66412677D01*
X105162378Y-66446703D01*
X105091563Y-66441638D01*
X105034727Y-66399091D01*
X105009916Y-66332571D01*
X105015762Y-66284647D01*
X105033542Y-66229928D01*
X105053504Y-66040000D01*
X105033542Y-65850072D01*
X104974527Y-65668444D01*
X104879040Y-65503056D01*
X104879038Y-65503054D01*
X104879034Y-65503048D01*
X104751255Y-65361135D01*
X104596752Y-65248882D01*
X104422288Y-65171206D01*
X104235487Y-65131500D01*
X104044513Y-65131500D01*
X103857711Y-65171206D01*
X103683247Y-65248882D01*
X103528744Y-65361135D01*
X103400965Y-65503048D01*
X103400958Y-65503058D01*
X103305476Y-65668438D01*
X103305473Y-65668444D01*
X103300687Y-65683173D01*
X103246457Y-65850072D01*
X103226496Y-66039999D01*
X103246457Y-66229927D01*
X103253981Y-66253082D01*
X103305473Y-66411556D01*
X103322841Y-66441638D01*
X103392526Y-66562337D01*
X103400960Y-66576944D01*
X103474137Y-66658215D01*
X103504853Y-66722220D01*
X103506500Y-66742524D01*
X103506500Y-67442282D01*
X103486498Y-67510403D01*
X103469595Y-67531377D01*
X98011378Y-72989595D01*
X97949066Y-73023621D01*
X97922283Y-73026500D01*
X84528200Y-73026500D01*
X84460079Y-73006498D01*
X84434563Y-72984810D01*
X84431252Y-72981133D01*
X84276752Y-72868882D01*
X84102288Y-72791206D01*
X83915487Y-72751500D01*
X83724513Y-72751500D01*
X83537711Y-72791206D01*
X83363247Y-72868882D01*
X83208744Y-72981135D01*
X83080965Y-73123048D01*
X83080958Y-73123058D01*
X82985476Y-73288438D01*
X82985473Y-73288445D01*
X82926457Y-73470072D01*
X82906496Y-73659999D01*
X82926457Y-73849927D01*
X82929330Y-73858768D01*
X82985473Y-74031556D01*
X82985476Y-74031561D01*
X83080958Y-74196941D01*
X83080961Y-74196945D01*
X83158013Y-74282521D01*
X83188730Y-74346529D01*
X83179965Y-74416983D01*
X83153472Y-74455926D01*
X82804025Y-74805375D01*
X82741713Y-74839400D01*
X82714929Y-74842280D01*
X78307033Y-74842280D01*
X78238912Y-74822278D01*
X78192419Y-74768622D01*
X78182315Y-74698348D01*
X78211809Y-74633768D01*
X78217938Y-74627185D01*
X79556685Y-73288438D01*
X83649326Y-69195795D01*
X83661761Y-69185834D01*
X83661574Y-69185607D01*
X83667685Y-69180551D01*
X83667684Y-69180551D01*
X83667687Y-69180550D01*
X83715021Y-69130142D01*
X83716336Y-69128785D01*
X83736803Y-69108320D01*
X83741098Y-69102782D01*
X83744940Y-69098281D01*
X83777255Y-69063871D01*
X83787014Y-69046117D01*
X83797866Y-69029596D01*
X83810282Y-69013591D01*
X83829016Y-68970298D01*
X83831630Y-68964962D01*
X83844423Y-68941691D01*
X83854364Y-68923610D01*
X83859402Y-68903985D01*
X83865807Y-68885280D01*
X83873850Y-68866695D01*
X83878955Y-68834457D01*
X83881230Y-68820097D01*
X83882431Y-68814290D01*
X83894169Y-68768580D01*
X83894169Y-68748325D01*
X83895720Y-68728613D01*
X83898889Y-68708607D01*
X83894447Y-68661619D01*
X83894168Y-68655720D01*
X83894168Y-65396616D01*
X83914170Y-65328496D01*
X83960197Y-65285804D01*
X84006245Y-65260885D01*
X84183909Y-65122602D01*
X84336391Y-64956964D01*
X84353430Y-64930882D01*
X84407431Y-64884795D01*
X84477778Y-64875218D01*
X84542136Y-64905194D01*
X84574300Y-64949184D01*
X84592143Y-64989862D01*
X84715279Y-65178337D01*
X84715283Y-65178342D01*
X84828097Y-65300889D01*
X84860248Y-65335814D01*
X84867766Y-65343980D01*
X84899646Y-65368793D01*
X85045428Y-65482261D01*
X85243430Y-65589414D01*
X85243431Y-65589414D01*
X85243432Y-65589415D01*
X85298900Y-65608457D01*
X85456369Y-65662516D01*
X85678435Y-65699572D01*
X85678439Y-65699572D01*
X85903569Y-65699572D01*
X85903573Y-65699572D01*
X86125639Y-65662516D01*
X86338578Y-65589414D01*
X86536580Y-65482261D01*
X86714244Y-65343978D01*
X86866726Y-65178340D01*
X86883764Y-65152260D01*
X86937768Y-65106172D01*
X87008115Y-65096596D01*
X87072473Y-65126573D01*
X87104635Y-65170561D01*
X87122477Y-65211237D01*
X87245613Y-65399712D01*
X87245617Y-65399717D01*
X87398100Y-65565355D01*
X87435560Y-65594511D01*
X87575762Y-65703636D01*
X87773764Y-65810789D01*
X87773765Y-65810789D01*
X87773766Y-65810790D01*
X87865136Y-65842157D01*
X87986703Y-65883891D01*
X88208769Y-65920947D01*
X88208773Y-65920947D01*
X88433903Y-65920947D01*
X88433907Y-65920947D01*
X88655973Y-65883891D01*
X88868912Y-65810789D01*
X89066914Y-65703636D01*
X89244578Y-65565353D01*
X89397060Y-65399715D01*
X89414099Y-65373633D01*
X89468100Y-65327546D01*
X89538447Y-65317969D01*
X89602805Y-65347945D01*
X89634969Y-65391935D01*
X89652812Y-65432613D01*
X89775948Y-65621088D01*
X89775952Y-65621093D01*
X89928435Y-65786731D01*
X89959345Y-65810789D01*
X90106097Y-65925012D01*
X90304099Y-66032165D01*
X90304100Y-66032165D01*
X90304101Y-66032166D01*
X90376088Y-66056879D01*
X90517038Y-66105267D01*
X90739104Y-66142323D01*
X90739108Y-66142323D01*
X90964238Y-66142323D01*
X90964242Y-66142323D01*
X91186308Y-66105267D01*
X91399247Y-66032165D01*
X91597249Y-65925012D01*
X91774913Y-65786729D01*
X91927395Y-65621091D01*
X91944761Y-65594509D01*
X91998763Y-65548422D01*
X92069110Y-65538845D01*
X92133468Y-65568822D01*
X92165631Y-65612811D01*
X92183589Y-65653750D01*
X92194335Y-65670199D01*
X92885796Y-65089994D01*
X92922514Y-65215043D01*
X93000246Y-65335997D01*
X93108907Y-65430151D01*
X93213691Y-65478004D01*
X92523060Y-66057513D01*
X92636705Y-66145966D01*
X92636706Y-66145967D01*
X92834635Y-66253081D01*
X92834637Y-66253082D01*
X93047490Y-66326154D01*
X93047497Y-66326156D01*
X93269484Y-66363199D01*
X93494530Y-66363199D01*
X93716516Y-66326156D01*
X93716523Y-66326154D01*
X93929375Y-66253082D01*
X93929388Y-66253076D01*
X94045018Y-66190499D01*
X93464362Y-65498499D01*
X93524322Y-65489879D01*
X93655107Y-65430151D01*
X93763768Y-65335997D01*
X93841500Y-65215043D01*
X93853983Y-65172526D01*
X94435642Y-65865718D01*
X94457332Y-65842157D01*
X94474527Y-65815838D01*
X94528530Y-65769749D01*
X94598878Y-65760173D01*
X94663236Y-65790149D01*
X94695398Y-65834138D01*
X94713481Y-65875364D01*
X94836617Y-66063839D01*
X94836621Y-66063844D01*
X94989104Y-66229482D01*
X95043673Y-66271955D01*
X95166766Y-66367763D01*
X95364768Y-66474916D01*
X95364769Y-66474916D01*
X95364770Y-66474917D01*
X95420270Y-66493970D01*
X95577707Y-66548018D01*
X95736539Y-66574521D01*
X95800438Y-66605462D01*
X95804895Y-66609708D01*
X98084358Y-68889171D01*
X98115837Y-68941689D01*
X98123759Y-68967804D01*
X98217405Y-69143004D01*
X98343432Y-69296568D01*
X98496996Y-69422595D01*
X98672196Y-69516241D01*
X98862299Y-69573908D01*
X98862303Y-69573908D01*
X98862305Y-69573909D01*
X99059997Y-69593380D01*
X99060000Y-69593380D01*
X99060003Y-69593380D01*
X99257694Y-69573909D01*
X99257695Y-69573908D01*
X99257701Y-69573908D01*
X99447804Y-69516241D01*
X99623004Y-69422595D01*
X99776568Y-69296568D01*
X99902595Y-69143004D01*
X99996241Y-68967804D01*
X100053908Y-68777701D01*
X100054807Y-68768581D01*
X100073380Y-68580003D01*
X100073380Y-68579996D01*
X100053909Y-68382305D01*
X100053908Y-68382303D01*
X100053908Y-68382299D01*
X99996241Y-68192196D01*
X99902595Y-68016996D01*
X99776568Y-67863432D01*
X99623004Y-67737405D01*
X99447804Y-67643759D01*
X99421689Y-67635837D01*
X99369171Y-67604358D01*
X97295054Y-65530241D01*
X97261028Y-65467929D01*
X97258579Y-65430746D01*
X97275498Y-65226574D01*
X97256906Y-65002206D01*
X97249735Y-64973890D01*
X97201639Y-64783961D01*
X97201638Y-64783960D01*
X97201638Y-64783958D01*
X97111202Y-64577783D01*
X97062284Y-64502908D01*
X96988066Y-64389308D01*
X96988062Y-64389303D01*
X96835579Y-64223665D01*
X96739069Y-64148548D01*
X96657918Y-64085385D01*
X96459916Y-63978232D01*
X96459914Y-63978231D01*
X96459913Y-63978230D01*
X96246981Y-63905131D01*
X96246972Y-63905129D01*
X96202818Y-63897761D01*
X96024911Y-63868074D01*
X95799773Y-63868074D01*
X95651553Y-63892807D01*
X95577711Y-63905129D01*
X95577702Y-63905131D01*
X95364770Y-63978230D01*
X95364768Y-63978232D01*
X95166768Y-64085384D01*
X95166766Y-64085385D01*
X94989104Y-64223665D01*
X94836621Y-64389303D01*
X94836621Y-64389304D01*
X94819253Y-64415888D01*
X94765249Y-64461976D01*
X94694901Y-64471551D01*
X94630544Y-64441573D01*
X94598383Y-64397586D01*
X94580427Y-64356652D01*
X94580420Y-64356638D01*
X94569678Y-64340196D01*
X93878216Y-64920400D01*
X93841500Y-64795355D01*
X93763768Y-64674401D01*
X93655107Y-64580247D01*
X93550320Y-64532392D01*
X94240952Y-63952884D01*
X94127308Y-63864431D01*
X94127307Y-63864430D01*
X93929378Y-63757316D01*
X93929376Y-63757315D01*
X93716523Y-63684243D01*
X93716516Y-63684241D01*
X93494530Y-63647199D01*
X93269484Y-63647199D01*
X93047497Y-63684241D01*
X93047490Y-63684243D01*
X92834637Y-63757315D01*
X92834635Y-63757317D01*
X92718994Y-63819898D01*
X93299651Y-64511898D01*
X93239692Y-64520519D01*
X93108907Y-64580247D01*
X93000246Y-64674401D01*
X92922514Y-64795355D01*
X92910030Y-64837871D01*
X92328370Y-64144677D01*
X92306683Y-64168237D01*
X92306679Y-64168242D01*
X92289484Y-64194561D01*
X92235480Y-64240648D01*
X92165131Y-64250222D01*
X92100775Y-64220243D01*
X92068615Y-64176256D01*
X92068358Y-64175669D01*
X92050533Y-64135032D01*
X92018097Y-64085385D01*
X91927397Y-63946557D01*
X91927393Y-63946552D01*
X91774910Y-63780914D01*
X91683599Y-63709844D01*
X91597249Y-63642634D01*
X91399247Y-63535481D01*
X91399245Y-63535480D01*
X91399244Y-63535479D01*
X91186312Y-63462380D01*
X91186303Y-63462378D01*
X91142149Y-63455010D01*
X90964242Y-63425323D01*
X90739104Y-63425323D01*
X90590883Y-63450056D01*
X90517042Y-63462378D01*
X90517033Y-63462380D01*
X90304101Y-63535479D01*
X90304099Y-63535481D01*
X90106099Y-63642633D01*
X90106097Y-63642634D01*
X89928435Y-63780914D01*
X89775952Y-63946552D01*
X89775949Y-63946556D01*
X89758910Y-63972637D01*
X89704906Y-64018724D01*
X89634558Y-64028299D01*
X89570201Y-63998320D01*
X89538040Y-63954333D01*
X89520198Y-63913656D01*
X89479827Y-63851863D01*
X89397062Y-63725181D01*
X89397058Y-63725176D01*
X89244575Y-63559538D01*
X89133669Y-63473216D01*
X89066914Y-63421258D01*
X88868912Y-63314105D01*
X88868910Y-63314104D01*
X88868909Y-63314103D01*
X88655977Y-63241004D01*
X88655968Y-63241002D01*
X88615728Y-63234287D01*
X88462876Y-63208781D01*
X88398978Y-63177840D01*
X88361950Y-63117264D01*
X88363551Y-63046286D01*
X88403271Y-62987440D01*
X88468500Y-62959410D01*
X88483616Y-62958500D01*
X102714376Y-62958500D01*
X102782497Y-62978502D01*
X102828990Y-63032158D01*
X102839094Y-63102432D01*
X102836520Y-63115431D01*
X102795932Y-63275707D01*
X102777346Y-63500000D01*
X102795932Y-63724292D01*
X102851176Y-63942449D01*
X102851179Y-63942456D01*
X102941580Y-64148548D01*
X103016922Y-64263866D01*
X103016923Y-64263866D01*
X103655638Y-63625150D01*
X103680507Y-63709844D01*
X103758239Y-63830798D01*
X103866900Y-63924952D01*
X103997685Y-63984680D01*
X104012410Y-63986797D01*
X103374309Y-64624898D01*
X103394694Y-64640763D01*
X103394696Y-64640765D01*
X103592632Y-64747883D01*
X103805483Y-64820955D01*
X103805490Y-64820957D01*
X104027477Y-64858000D01*
X104252523Y-64858000D01*
X104474509Y-64820957D01*
X104474516Y-64820955D01*
X104687369Y-64747883D01*
X104687371Y-64747882D01*
X104885298Y-64640768D01*
X104885302Y-64640766D01*
X104905688Y-64624898D01*
X104267586Y-63986797D01*
X104282315Y-63984680D01*
X104413100Y-63924952D01*
X104521761Y-63830798D01*
X104599493Y-63709844D01*
X104624360Y-63625151D01*
X105263076Y-64263867D01*
X105263077Y-64263866D01*
X105304218Y-64200898D01*
X105358222Y-64154810D01*
X105428570Y-64145235D01*
X105492927Y-64175213D01*
X105515183Y-64200898D01*
X105604279Y-64337270D01*
X105756762Y-64502908D01*
X105779389Y-64520519D01*
X105934424Y-64641189D01*
X106132426Y-64748342D01*
X106132427Y-64748342D01*
X106132428Y-64748343D01*
X106191106Y-64768487D01*
X106345365Y-64821444D01*
X106567431Y-64858500D01*
X106567435Y-64858500D01*
X106792565Y-64858500D01*
X106792569Y-64858500D01*
X107014635Y-64821444D01*
X107227574Y-64748342D01*
X107425576Y-64641189D01*
X107603240Y-64502906D01*
X107755722Y-64337268D01*
X107844518Y-64201354D01*
X107898520Y-64155268D01*
X107968868Y-64145692D01*
X108033225Y-64175669D01*
X108055480Y-64201353D01*
X108067822Y-64220243D01*
X108144275Y-64337265D01*
X108144279Y-64337270D01*
X108296762Y-64502908D01*
X108319389Y-64520519D01*
X108474424Y-64641189D01*
X108672426Y-64748342D01*
X108672427Y-64748342D01*
X108672428Y-64748343D01*
X108731106Y-64768487D01*
X108885365Y-64821444D01*
X109107431Y-64858500D01*
X109107435Y-64858500D01*
X109332565Y-64858500D01*
X109332569Y-64858500D01*
X109554635Y-64821444D01*
X109767574Y-64748342D01*
X109965576Y-64641189D01*
X110143240Y-64502906D01*
X110295722Y-64337268D01*
X110418860Y-64148791D01*
X110509296Y-63942616D01*
X110564564Y-63724368D01*
X110583156Y-63500000D01*
X110564564Y-63275632D01*
X110555795Y-63241003D01*
X110509297Y-63057387D01*
X110509296Y-63057386D01*
X110509296Y-63057384D01*
X110418860Y-62851209D01*
X110403303Y-62827397D01*
X110382790Y-62759429D01*
X110402279Y-62691160D01*
X110419691Y-62669386D01*
X110593674Y-62495404D01*
X110655986Y-62461379D01*
X110682769Y-62458500D01*
X114331404Y-62458500D01*
X114399525Y-62478502D01*
X114446018Y-62532158D01*
X114456122Y-62602432D01*
X114426628Y-62667012D01*
X114420499Y-62673596D01*
X114226337Y-62867757D01*
X114213903Y-62877719D01*
X114214091Y-62877946D01*
X114207981Y-62882999D01*
X114160693Y-62933355D01*
X114159319Y-62934774D01*
X114138863Y-62955231D01*
X114134560Y-62960777D01*
X114130714Y-62965279D01*
X114098417Y-62999674D01*
X114098411Y-62999683D01*
X114088651Y-63017435D01*
X114077803Y-63033950D01*
X114065386Y-63049958D01*
X114046645Y-63093264D01*
X114044034Y-63098594D01*
X114021305Y-63139939D01*
X114021303Y-63139944D01*
X114016267Y-63159559D01*
X114009864Y-63178262D01*
X114001819Y-63196852D01*
X113994437Y-63243456D01*
X113993233Y-63249268D01*
X113981500Y-63294968D01*
X113981500Y-63315223D01*
X113979949Y-63334933D01*
X113976780Y-63354941D01*
X113976779Y-63354943D01*
X113981219Y-63401915D01*
X113981499Y-63407846D01*
X113981499Y-90810403D01*
X113961497Y-90878524D01*
X113944595Y-90899498D01*
X113409500Y-91434595D01*
X113347187Y-91468620D01*
X113320404Y-91471500D01*
X86771247Y-91471500D01*
X86703126Y-91451498D01*
X86656633Y-91397842D01*
X86646529Y-91327568D01*
X86676023Y-91262988D01*
X86682150Y-91256406D01*
X86724376Y-91214179D01*
X86748658Y-91189896D01*
X86761097Y-91179934D01*
X86760908Y-91179706D01*
X86767012Y-91174655D01*
X86767018Y-91174652D01*
X86814338Y-91124259D01*
X86815652Y-91122903D01*
X86836135Y-91102422D01*
X86840445Y-91096864D01*
X86844281Y-91092374D01*
X86876586Y-91057973D01*
X86886346Y-91040217D01*
X86897195Y-91023702D01*
X86909614Y-91007693D01*
X86928363Y-90964362D01*
X86930953Y-90959075D01*
X86953695Y-90917712D01*
X86958733Y-90898086D01*
X86965137Y-90879384D01*
X86965509Y-90878524D01*
X86973181Y-90860797D01*
X86980561Y-90814199D01*
X86981762Y-90808392D01*
X86993500Y-90762682D01*
X86993500Y-90742426D01*
X86995051Y-90722715D01*
X86998220Y-90702709D01*
X86995629Y-90675303D01*
X86993780Y-90655732D01*
X86993500Y-90649800D01*
X86993500Y-89602524D01*
X87013502Y-89534403D01*
X87025858Y-89518220D01*
X87099040Y-89436944D01*
X87194527Y-89271556D01*
X87253542Y-89089928D01*
X87271262Y-88921329D01*
X87298275Y-88855673D01*
X87356496Y-88815043D01*
X87396572Y-88808500D01*
X95480405Y-88808500D01*
X95548526Y-88828502D01*
X95569514Y-88845418D01*
X95572891Y-88848796D01*
X95606906Y-88911113D01*
X95609092Y-88924707D01*
X95626457Y-89089927D01*
X95645271Y-89147828D01*
X95685473Y-89271556D01*
X95701026Y-89298495D01*
X95780958Y-89436941D01*
X95780965Y-89436951D01*
X95908744Y-89578864D01*
X95909522Y-89579429D01*
X96063248Y-89691118D01*
X96237712Y-89768794D01*
X96424513Y-89808500D01*
X96615487Y-89808500D01*
X96802288Y-89768794D01*
X96976752Y-89691118D01*
X97131253Y-89578866D01*
X97134458Y-89575307D01*
X97259034Y-89436951D01*
X97259035Y-89436949D01*
X97259040Y-89436944D01*
X97354527Y-89271556D01*
X97413542Y-89089928D01*
X97433504Y-88900000D01*
X97413542Y-88710072D01*
X97354527Y-88528444D01*
X97259040Y-88363056D01*
X97259038Y-88363054D01*
X97259034Y-88363048D01*
X97131255Y-88221135D01*
X96976752Y-88108882D01*
X96802288Y-88031206D01*
X96615487Y-87991500D01*
X96559596Y-87991500D01*
X96491475Y-87971498D01*
X96470501Y-87954596D01*
X96302245Y-87786341D01*
X96292280Y-87773902D01*
X96292053Y-87774091D01*
X96286999Y-87767981D01*
X96236626Y-87720678D01*
X96235236Y-87719331D01*
X96224990Y-87709085D01*
X96214776Y-87698870D01*
X96214772Y-87698866D01*
X96209225Y-87694563D01*
X96204717Y-87690712D01*
X96170325Y-87658417D01*
X96170319Y-87658413D01*
X96152563Y-87648651D01*
X96136047Y-87637802D01*
X96120041Y-87625386D01*
X96089289Y-87612078D01*
X96076740Y-87606648D01*
X96071408Y-87604036D01*
X96030061Y-87581305D01*
X96010436Y-87576266D01*
X95991736Y-87569864D01*
X95973145Y-87561819D01*
X95973143Y-87561818D01*
X95973142Y-87561818D01*
X95926542Y-87554437D01*
X95920729Y-87553233D01*
X95875030Y-87541500D01*
X95854776Y-87541500D01*
X95835066Y-87539949D01*
X95815057Y-87536780D01*
X95815056Y-87536780D01*
X95768083Y-87541220D01*
X95762150Y-87541500D01*
X80869594Y-87541500D01*
X80801473Y-87521498D01*
X80780499Y-87504595D01*
X80506360Y-87230456D01*
X80495392Y-87210371D01*
X80489487Y-87208759D01*
X80466483Y-87190579D01*
X80258425Y-86982521D01*
X79687119Y-86411214D01*
X79653095Y-86348905D01*
X79650908Y-86335309D01*
X79633542Y-86170072D01*
X79574527Y-85988444D01*
X79479040Y-85823056D01*
X79479038Y-85823054D01*
X79479034Y-85823048D01*
X79401985Y-85737477D01*
X79371268Y-85673470D01*
X79380032Y-85603016D01*
X79406528Y-85564070D01*
X79420200Y-85550398D01*
X79482516Y-85516378D01*
X79509290Y-85513500D01*
X80536684Y-85513500D01*
X80604805Y-85533502D01*
X80651298Y-85587158D01*
X80661402Y-85657432D01*
X80631908Y-85722012D01*
X80630321Y-85723810D01*
X80540961Y-85823054D01*
X80540958Y-85823058D01*
X80445476Y-85988438D01*
X80445473Y-85988445D01*
X80386457Y-86170072D01*
X80366496Y-86360000D01*
X80386457Y-86549927D01*
X80407276Y-86614000D01*
X80445473Y-86731556D01*
X80445476Y-86731561D01*
X80540958Y-86896941D01*
X80540961Y-86896945D01*
X80649215Y-87017174D01*
X80655729Y-87030748D01*
X80655840Y-87030773D01*
X80669516Y-87039425D01*
X80823248Y-87151118D01*
X80997712Y-87228794D01*
X81184513Y-87268500D01*
X81375487Y-87268500D01*
X81562288Y-87228794D01*
X81736752Y-87151118D01*
X81891253Y-87038866D01*
X81898540Y-87030773D01*
X82019034Y-86896951D01*
X82019035Y-86896949D01*
X82019040Y-86896944D01*
X82114527Y-86731556D01*
X82173542Y-86549928D01*
X82190907Y-86384705D01*
X82217919Y-86319052D01*
X82227111Y-86308792D01*
X82535500Y-86000404D01*
X82597813Y-85966379D01*
X82624596Y-85963500D01*
X92041464Y-85963500D01*
X92109585Y-85983502D01*
X92156078Y-86037158D01*
X92166774Y-86076332D01*
X92169253Y-86099926D01*
X92171227Y-86106000D01*
X92228269Y-86281556D01*
X92228272Y-86281561D01*
X92323754Y-86446941D01*
X92323761Y-86446951D01*
X92451540Y-86588864D01*
X92486137Y-86614000D01*
X92606044Y-86701118D01*
X92780508Y-86778794D01*
X92967309Y-86818500D01*
X93158283Y-86818500D01*
X93345084Y-86778794D01*
X93519548Y-86701118D01*
X93674049Y-86588866D01*
X93762025Y-86491159D01*
X93801830Y-86446951D01*
X93801831Y-86446949D01*
X93801836Y-86446944D01*
X93897323Y-86281556D01*
X93956338Y-86099928D01*
X93976300Y-85910000D01*
X93956338Y-85720072D01*
X93897323Y-85538444D01*
X93863369Y-85479634D01*
X93846632Y-85410643D01*
X93869852Y-85343551D01*
X93892548Y-85319244D01*
X94011568Y-85221568D01*
X94041206Y-85185451D01*
X94045331Y-85180901D01*
X94875829Y-84350404D01*
X94938142Y-84316379D01*
X94964925Y-84313500D01*
X96297359Y-84313500D01*
X96303539Y-84313804D01*
X96349998Y-84318380D01*
X96350000Y-84318380D01*
X96350003Y-84318380D01*
X96547694Y-84298909D01*
X96547695Y-84298908D01*
X96547701Y-84298908D01*
X96737804Y-84241241D01*
X96913004Y-84147595D01*
X97066568Y-84021568D01*
X97192595Y-83868004D01*
X97286241Y-83692804D01*
X97343908Y-83502701D01*
X97344803Y-83493621D01*
X97363380Y-83305003D01*
X97363380Y-83304995D01*
X97353714Y-83206849D01*
X97366943Y-83137096D01*
X97415783Y-83085568D01*
X97479107Y-83068500D01*
X99139302Y-83068500D01*
X99207423Y-83088502D01*
X99228397Y-83105405D01*
X105698885Y-89575893D01*
X105703027Y-89580463D01*
X105732658Y-89616568D01*
X105886222Y-89742595D01*
X106061422Y-89836241D01*
X106066174Y-89837682D01*
X106073668Y-89839956D01*
X106073672Y-89839957D01*
X106073679Y-89839959D01*
X106251525Y-89893909D01*
X106283541Y-89897062D01*
X106349372Y-89923642D01*
X106389247Y-89978422D01*
X106434110Y-90098702D01*
X106434112Y-90098707D01*
X106521738Y-90215761D01*
X106638792Y-90303387D01*
X106638794Y-90303388D01*
X106638796Y-90303389D01*
X106697875Y-90325424D01*
X106775795Y-90354488D01*
X106775803Y-90354490D01*
X106836350Y-90360999D01*
X106836355Y-90360999D01*
X106836362Y-90361000D01*
X106836368Y-90361000D01*
X108933632Y-90361000D01*
X108933638Y-90361000D01*
X108933645Y-90360999D01*
X108933649Y-90360999D01*
X108994196Y-90354490D01*
X108994199Y-90354489D01*
X108994201Y-90354489D01*
X109131204Y-90303389D01*
X109200341Y-90251634D01*
X109248261Y-90215761D01*
X109335887Y-90098707D01*
X109335887Y-90098706D01*
X109335889Y-90098704D01*
X109386989Y-89961701D01*
X109393500Y-89901138D01*
X109393500Y-87898862D01*
X109393499Y-87898850D01*
X109386990Y-87838303D01*
X109386988Y-87838295D01*
X109335889Y-87701297D01*
X109335887Y-87701292D01*
X109248261Y-87584238D01*
X109131207Y-87496612D01*
X109131204Y-87496611D01*
X109111753Y-87489356D01*
X109054918Y-87446809D01*
X109030108Y-87380288D01*
X109045200Y-87310914D01*
X109056356Y-87293910D01*
X109159366Y-87161563D01*
X109159372Y-87161554D01*
X109274569Y-86948686D01*
X109274571Y-86948684D01*
X109353159Y-86719764D01*
X109353161Y-86719755D01*
X109370808Y-86614000D01*
X108378431Y-86614000D01*
X108428559Y-86472953D01*
X108438877Y-86322114D01*
X108408116Y-86174085D01*
X108372837Y-86106000D01*
X109370809Y-86106000D01*
X109370808Y-86105999D01*
X109353161Y-86000244D01*
X109353159Y-86000235D01*
X109274571Y-85771315D01*
X109274569Y-85771313D01*
X109159372Y-85558445D01*
X109159371Y-85558444D01*
X109010704Y-85367437D01*
X108832630Y-85203509D01*
X108820803Y-85195783D01*
X108774714Y-85141780D01*
X108765137Y-85071433D01*
X108795114Y-85007075D01*
X108820802Y-84984816D01*
X108832940Y-84976886D01*
X108988829Y-84833380D01*
X109011070Y-84812906D01*
X109011071Y-84812904D01*
X109011076Y-84812900D01*
X109159792Y-84621830D01*
X109275030Y-84408888D01*
X109353648Y-84179883D01*
X109393500Y-83941062D01*
X109393500Y-83698938D01*
X109353648Y-83460117D01*
X109275030Y-83231112D01*
X109159792Y-83018170D01*
X109011076Y-82827100D01*
X109011074Y-82827098D01*
X109011070Y-82827093D01*
X108832940Y-82663113D01*
X108630241Y-82530684D01*
X108630242Y-82530684D01*
X108408515Y-82433426D01*
X108408508Y-82433423D01*
X108173809Y-82373989D01*
X108173800Y-82373987D01*
X107992930Y-82359000D01*
X107992927Y-82359000D01*
X107777073Y-82359000D01*
X107777069Y-82359000D01*
X107596199Y-82373987D01*
X107596190Y-82373989D01*
X107361491Y-82433423D01*
X107361484Y-82433426D01*
X107139758Y-82530684D01*
X106937059Y-82663113D01*
X106758929Y-82827093D01*
X106610208Y-83018169D01*
X106610207Y-83018170D01*
X106494970Y-83231112D01*
X106494968Y-83231115D01*
X106416353Y-83460112D01*
X106416351Y-83460119D01*
X106409247Y-83502694D01*
X106376500Y-83698938D01*
X106376500Y-83941062D01*
X106387992Y-84009928D01*
X106416351Y-84179880D01*
X106416353Y-84179887D01*
X106494968Y-84408884D01*
X106494969Y-84408885D01*
X106494970Y-84408888D01*
X106530292Y-84474158D01*
X106597188Y-84597772D01*
X106610208Y-84621830D01*
X106714824Y-84756241D01*
X106758929Y-84812906D01*
X106937057Y-84976884D01*
X106949198Y-84984816D01*
X106995286Y-85038820D01*
X107004861Y-85109168D01*
X106974884Y-85173525D01*
X106949199Y-85195781D01*
X106937370Y-85203509D01*
X106759295Y-85367437D01*
X106610628Y-85558444D01*
X106610627Y-85558445D01*
X106495430Y-85771313D01*
X106495428Y-85771315D01*
X106416840Y-86000235D01*
X106416838Y-86000244D01*
X106399191Y-86105999D01*
X106399191Y-86106000D01*
X107391569Y-86106000D01*
X107341441Y-86247047D01*
X107331123Y-86397886D01*
X107361884Y-86545915D01*
X107397163Y-86614000D01*
X106399191Y-86614000D01*
X106416838Y-86719755D01*
X106416840Y-86719764D01*
X106495428Y-86948684D01*
X106495430Y-86948686D01*
X106610627Y-87161554D01*
X106610628Y-87161555D01*
X106713644Y-87293910D01*
X106739700Y-87359953D01*
X106725914Y-87429598D01*
X106676664Y-87480735D01*
X106658251Y-87489354D01*
X106638796Y-87496611D01*
X106638794Y-87496612D01*
X106638792Y-87496613D01*
X106630848Y-87502560D01*
X106564328Y-87527370D01*
X106494954Y-87512278D01*
X106466246Y-87490786D01*
X103413673Y-84438213D01*
X100359560Y-81384100D01*
X100355415Y-81379526D01*
X100348828Y-81371500D01*
X100325794Y-81343432D01*
X100242018Y-81274679D01*
X100172230Y-81217405D01*
X100172229Y-81217404D01*
X100021981Y-81137095D01*
X100011667Y-81128198D01*
X99806922Y-81066089D01*
X99806923Y-81066089D01*
X99609230Y-81046620D01*
X99609223Y-81046620D01*
X99562761Y-81051196D01*
X99556582Y-81051500D01*
X89247644Y-81051500D01*
X89241465Y-81051196D01*
X89195003Y-81046620D01*
X89194996Y-81046620D01*
X88997307Y-81066089D01*
X88997295Y-81066091D01*
X88855194Y-81109198D01*
X88807201Y-81123756D01*
X88807196Y-81123758D01*
X88631995Y-81217405D01*
X88478430Y-81343432D01*
X88448809Y-81379526D01*
X88444655Y-81384109D01*
X87569171Y-82259595D01*
X87506858Y-82293620D01*
X87480075Y-82296500D01*
X86242641Y-82296500D01*
X86236461Y-82296196D01*
X86190002Y-82291620D01*
X86189997Y-82291620D01*
X85992305Y-82311090D01*
X85802195Y-82368759D01*
X85626995Y-82462405D01*
X85473432Y-82588432D01*
X85347405Y-82741995D01*
X85253759Y-82917195D01*
X85196090Y-83107305D01*
X85176620Y-83304995D01*
X85176620Y-83305000D01*
X85180966Y-83349130D01*
X85181855Y-83358149D01*
X85168627Y-83427902D01*
X85119787Y-83479431D01*
X85056462Y-83496500D01*
X79092009Y-83496500D01*
X79085830Y-83496196D01*
X79039368Y-83491620D01*
X79039361Y-83491620D01*
X78841668Y-83511089D01*
X78709229Y-83551264D01*
X78709229Y-83551265D01*
X78690006Y-83557096D01*
X78651559Y-83568759D01*
X78476360Y-83662405D01*
X78322795Y-83788433D01*
X78293168Y-83824532D01*
X78289015Y-83829115D01*
X73634826Y-88483303D01*
X73572514Y-88517329D01*
X73501699Y-88512264D01*
X73444863Y-88469717D01*
X73420052Y-88403197D01*
X73423221Y-88370773D01*
X73421994Y-88370541D01*
X73471855Y-88107013D01*
X73478009Y-87997426D01*
X73478010Y-87997401D01*
X73478010Y-86913629D01*
X71694181Y-86913629D01*
X71713703Y-86828099D01*
X71723798Y-86603321D01*
X71697019Y-86405629D01*
X73478010Y-86405629D01*
X73478010Y-85321856D01*
X73478009Y-85321831D01*
X73471855Y-85212244D01*
X73422872Y-84953358D01*
X73422868Y-84953345D01*
X73335845Y-84704646D01*
X73212725Y-84471695D01*
X73056258Y-84259688D01*
X72869950Y-84073380D01*
X72657943Y-83916913D01*
X72424992Y-83793793D01*
X72176293Y-83706770D01*
X72176280Y-83706766D01*
X71917394Y-83657783D01*
X71807807Y-83651629D01*
X70724010Y-83651629D01*
X70724010Y-85435307D01*
X70582512Y-85409629D01*
X70413877Y-85409629D01*
X70245912Y-85424746D01*
X70216010Y-85432998D01*
X70216010Y-83651629D01*
X69132212Y-83651629D01*
X69022625Y-83657783D01*
X68763739Y-83706766D01*
X68763726Y-83706770D01*
X68515027Y-83793793D01*
X68282076Y-83916913D01*
X68070069Y-84073380D01*
X67883761Y-84259688D01*
X67727294Y-84471695D01*
X67604174Y-84704646D01*
X67517151Y-84953345D01*
X67517147Y-84953358D01*
X67468164Y-85212244D01*
X67462010Y-85321831D01*
X67462010Y-86405629D01*
X69245839Y-86405629D01*
X69226317Y-86491159D01*
X69216222Y-86715937D01*
X69243001Y-86913629D01*
X67462010Y-86913629D01*
X67462010Y-87997426D01*
X67468164Y-88107013D01*
X67517147Y-88365899D01*
X67517151Y-88365912D01*
X67604174Y-88614611D01*
X67727294Y-88847562D01*
X67883761Y-89059569D01*
X67980597Y-89156405D01*
X68014623Y-89218717D01*
X68009558Y-89289532D01*
X67967011Y-89346368D01*
X67900491Y-89371179D01*
X67891502Y-89371500D01*
X67152641Y-89371500D01*
X67146461Y-89371196D01*
X67100002Y-89366620D01*
X67099998Y-89366620D01*
X67003393Y-89376135D01*
X66902306Y-89386090D01*
X66902299Y-89386091D01*
X66902299Y-89386092D01*
X66893118Y-89388877D01*
X66712195Y-89443759D01*
X66536995Y-89537405D01*
X66383430Y-89663433D01*
X66353803Y-89699532D01*
X66349650Y-89704115D01*
X65364115Y-90689650D01*
X65359532Y-90693803D01*
X65323433Y-90723430D01*
X65197405Y-90876995D01*
X65118656Y-91024325D01*
X65118655Y-91024324D01*
X65103761Y-91052189D01*
X65103760Y-91052193D01*
X65046091Y-91242295D01*
X65046089Y-91242307D01*
X65026620Y-91439995D01*
X65026620Y-91440004D01*
X65046089Y-91637697D01*
X65108198Y-91842441D01*
X65117095Y-91852755D01*
X65197405Y-92003004D01*
X65323432Y-92156568D01*
X65364716Y-92190449D01*
X65404685Y-92249126D01*
X65406585Y-92320097D01*
X65373877Y-92376943D01*
X60536226Y-97214595D01*
X60473914Y-97248621D01*
X60447131Y-97251500D01*
X58017153Y-97251500D01*
X58001311Y-97249750D01*
X58001284Y-97250044D01*
X57993391Y-97249297D01*
X57924312Y-97251469D01*
X57922333Y-97251500D01*
X57893443Y-97251500D01*
X57893439Y-97251500D01*
X57893428Y-97251501D01*
X57886489Y-97252377D01*
X57880576Y-97252843D01*
X57833410Y-97254325D01*
X57813949Y-97259979D01*
X57794603Y-97263985D01*
X57774503Y-97266525D01*
X57774502Y-97266525D01*
X57730634Y-97283893D01*
X57725019Y-97285815D01*
X57679712Y-97298978D01*
X57679703Y-97298982D01*
X57662261Y-97309297D01*
X57644514Y-97317991D01*
X57625682Y-97325447D01*
X57625680Y-97325448D01*
X57587513Y-97353178D01*
X57582553Y-97356436D01*
X57541935Y-97380459D01*
X57541932Y-97380461D01*
X57527611Y-97394783D01*
X57512582Y-97407619D01*
X57496192Y-97419527D01*
X57466107Y-97455892D01*
X57462111Y-97460283D01*
X56117799Y-98804595D01*
X56055487Y-98838620D01*
X56028704Y-98841500D01*
X52097457Y-98841500D01*
X52081615Y-98839750D01*
X52081588Y-98840044D01*
X52073695Y-98839297D01*
X52004616Y-98841469D01*
X52002637Y-98841500D01*
X51973748Y-98841500D01*
X51973744Y-98841500D01*
X51973733Y-98841501D01*
X51966794Y-98842377D01*
X51960881Y-98842843D01*
X51913718Y-98844325D01*
X51913711Y-98844327D01*
X51894253Y-98849979D01*
X51874908Y-98853985D01*
X51854810Y-98856525D01*
X51854801Y-98856527D01*
X51810935Y-98873894D01*
X51805320Y-98875817D01*
X51760012Y-98888981D01*
X51742568Y-98899297D01*
X51724822Y-98907990D01*
X51705986Y-98915448D01*
X51667813Y-98943181D01*
X51662852Y-98946440D01*
X51622242Y-98970458D01*
X51607915Y-98984784D01*
X51592889Y-98997617D01*
X51576499Y-99009525D01*
X51576497Y-99009527D01*
X51546417Y-99045886D01*
X51542421Y-99050277D01*
X51176333Y-99416364D01*
X51163901Y-99426324D01*
X51164089Y-99426551D01*
X51157982Y-99431603D01*
X51110694Y-99481959D01*
X51109319Y-99483378D01*
X51088863Y-99503835D01*
X51084560Y-99509381D01*
X51080714Y-99513883D01*
X51048417Y-99548278D01*
X51048411Y-99548287D01*
X51038651Y-99566039D01*
X51027803Y-99582554D01*
X51015386Y-99598562D01*
X50996645Y-99641868D01*
X50994034Y-99647198D01*
X50971305Y-99688543D01*
X50971303Y-99688548D01*
X50966267Y-99708163D01*
X50959864Y-99726866D01*
X50951819Y-99745456D01*
X50944437Y-99792060D01*
X50943233Y-99797872D01*
X50931500Y-99843572D01*
X50931500Y-99863827D01*
X50929949Y-99883537D01*
X50926780Y-99903546D01*
X50926780Y-99903547D01*
X48597053Y-99903547D01*
X50590225Y-95166396D01*
X51417233Y-95166396D01*
X51451215Y-95391855D01*
X51456425Y-95426420D01*
X51456426Y-95426428D01*
X51494526Y-95549942D01*
X51522772Y-95641514D01*
X51533937Y-95677707D01*
X51648032Y-95914626D01*
X51648036Y-95914633D01*
X51794674Y-96129710D01*
X51796163Y-96131894D01*
X51796168Y-96131899D01*
X51975018Y-96324656D01*
X51975022Y-96324659D01*
X51975023Y-96324660D01*
X52180616Y-96488615D01*
X52180619Y-96488617D01*
X52408351Y-96620098D01*
X52408355Y-96620100D01*
X52639632Y-96710868D01*
X52653135Y-96716168D01*
X52909505Y-96774683D01*
X53106079Y-96789414D01*
X53106081Y-96789414D01*
X53237385Y-96789414D01*
X53237387Y-96789414D01*
X53433961Y-96774683D01*
X53690331Y-96716168D01*
X53844520Y-96655653D01*
X53935110Y-96620100D01*
X53935114Y-96620098D01*
X53935113Y-96620098D01*
X53935117Y-96620097D01*
X54162850Y-96488615D01*
X54368443Y-96324660D01*
X54547303Y-96131894D01*
X54695435Y-95914624D01*
X54809531Y-95677702D01*
X54887041Y-95426422D01*
X54926233Y-95166396D01*
X54926233Y-94903432D01*
X54887041Y-94643406D01*
X54809531Y-94392126D01*
X54695435Y-94155204D01*
X54695433Y-94155201D01*
X54695429Y-94155194D01*
X54547307Y-93937940D01*
X54547303Y-93937934D01*
X54500359Y-93887340D01*
X54368447Y-93745171D01*
X54267686Y-93664817D01*
X54162850Y-93581213D01*
X54162845Y-93581210D01*
X54162846Y-93581210D01*
X53935114Y-93449729D01*
X53935110Y-93449727D01*
X53690335Y-93353661D01*
X53690332Y-93353660D01*
X53433964Y-93295145D01*
X53316016Y-93286306D01*
X53237387Y-93280414D01*
X53106079Y-93280414D01*
X53040554Y-93285324D01*
X52909501Y-93295145D01*
X52653133Y-93353660D01*
X52653130Y-93353661D01*
X52408355Y-93449727D01*
X52408351Y-93449729D01*
X52180619Y-93581210D01*
X51975018Y-93745171D01*
X51796168Y-93937928D01*
X51796158Y-93937940D01*
X51648036Y-94155194D01*
X51648032Y-94155201D01*
X51533937Y-94392120D01*
X51456426Y-94643399D01*
X51456425Y-94643405D01*
X51456425Y-94643406D01*
X51417233Y-94903432D01*
X51417233Y-95166396D01*
X50590225Y-95166396D01*
X53226832Y-88900000D01*
X54374357Y-88900000D01*
X54387579Y-89059569D01*
X54394893Y-89147828D01*
X54455935Y-89388877D01*
X54455938Y-89388884D01*
X54555826Y-89616606D01*
X54691835Y-89824785D01*
X54860249Y-90007732D01*
X54860254Y-90007736D01*
X54860256Y-90007738D01*
X54977129Y-90098704D01*
X55056490Y-90160473D01*
X55056491Y-90160474D01*
X55275190Y-90278828D01*
X55275192Y-90278829D01*
X55398677Y-90321221D01*
X55510386Y-90359571D01*
X55755665Y-90400500D01*
X55755669Y-90400500D01*
X56004331Y-90400500D01*
X56004335Y-90400500D01*
X56249614Y-90359571D01*
X56484810Y-90278828D01*
X56703509Y-90160474D01*
X56899744Y-90007738D01*
X56926732Y-89978422D01*
X57068164Y-89824785D01*
X57103656Y-89770460D01*
X57204173Y-89616607D01*
X57304063Y-89388881D01*
X57365108Y-89147821D01*
X57385643Y-88900000D01*
X57365108Y-88652179D01*
X57355748Y-88615218D01*
X57304064Y-88411122D01*
X57304061Y-88411115D01*
X57289799Y-88378602D01*
X57204173Y-88183393D01*
X57178554Y-88144180D01*
X57068164Y-87975214D01*
X56899750Y-87792267D01*
X56892136Y-87786341D01*
X56703509Y-87639526D01*
X56703508Y-87639525D01*
X56484809Y-87521171D01*
X56484807Y-87521170D01*
X56249618Y-87440430D01*
X56249609Y-87440428D01*
X56184706Y-87429598D01*
X56004335Y-87399500D01*
X55755665Y-87399500D01*
X55591952Y-87426818D01*
X55510390Y-87440428D01*
X55510381Y-87440430D01*
X55275192Y-87521170D01*
X55275190Y-87521171D01*
X55056491Y-87639525D01*
X55056490Y-87639526D01*
X54860249Y-87792267D01*
X54691835Y-87975214D01*
X54555826Y-88183393D01*
X54455938Y-88411115D01*
X54455935Y-88411122D01*
X54394893Y-88652171D01*
X54394892Y-88652177D01*
X54394892Y-88652179D01*
X54374357Y-88900000D01*
X53226832Y-88900000D01*
X64393000Y-62361482D01*
X66825500Y-62361482D01*
X66864482Y-62620116D01*
X66864692Y-62621506D01*
X66864693Y-62621514D01*
X66893578Y-62715154D01*
X66940650Y-62867757D01*
X66942204Y-62872793D01*
X67056299Y-63109712D01*
X67056303Y-63109719D01*
X67195652Y-63314105D01*
X67204430Y-63326980D01*
X67214809Y-63338166D01*
X67383285Y-63519742D01*
X67383289Y-63519745D01*
X67383290Y-63519746D01*
X67588883Y-63683701D01*
X67588886Y-63683703D01*
X67660728Y-63725181D01*
X67802309Y-63806923D01*
X67816618Y-63815184D01*
X67816622Y-63815186D01*
X68028793Y-63898456D01*
X68061402Y-63911254D01*
X68317772Y-63969769D01*
X68514346Y-63984500D01*
X68514348Y-63984500D01*
X68645652Y-63984500D01*
X68645654Y-63984500D01*
X68842228Y-63969769D01*
X69098598Y-63911254D01*
X69252787Y-63850739D01*
X69343377Y-63815186D01*
X69343381Y-63815184D01*
X69343380Y-63815184D01*
X69343384Y-63815183D01*
X69571117Y-63683701D01*
X69776710Y-63519746D01*
X69795033Y-63499999D01*
X69822030Y-63470902D01*
X69955570Y-63326980D01*
X70098875Y-63116790D01*
X70103696Y-63109719D01*
X70103696Y-63109717D01*
X70103702Y-63109710D01*
X70217798Y-62872788D01*
X70295308Y-62621508D01*
X70334500Y-62361482D01*
X70334500Y-62098518D01*
X70295308Y-61838492D01*
X70217798Y-61587212D01*
X70103702Y-61350290D01*
X70103700Y-61350287D01*
X70103696Y-61350280D01*
X69955574Y-61133026D01*
X69955570Y-61133020D01*
X69900255Y-61073404D01*
X69776714Y-60940257D01*
X69714586Y-60890712D01*
X69571117Y-60776299D01*
X69571112Y-60776296D01*
X69571113Y-60776296D01*
X69343381Y-60644815D01*
X69343377Y-60644813D01*
X69098602Y-60548747D01*
X69098599Y-60548746D01*
X68842231Y-60490231D01*
X68724283Y-60481392D01*
X68645654Y-60475500D01*
X68514346Y-60475500D01*
X68448821Y-60480410D01*
X68317768Y-60490231D01*
X68061400Y-60548746D01*
X68061397Y-60548747D01*
X67816622Y-60644813D01*
X67816618Y-60644815D01*
X67588886Y-60776296D01*
X67383285Y-60940257D01*
X67204435Y-61133014D01*
X67204425Y-61133026D01*
X67056303Y-61350280D01*
X67056299Y-61350287D01*
X66942204Y-61587206D01*
X66864693Y-61838485D01*
X66864692Y-61838491D01*
X66864692Y-61838492D01*
X66825500Y-62098518D01*
X66825500Y-62361482D01*
X64393000Y-62361482D01*
X65832464Y-58940322D01*
X65835106Y-58934814D01*
X65869402Y-58871431D01*
X65883146Y-58851067D01*
X65991808Y-58719785D01*
X66009252Y-58702471D01*
X66141335Y-58594790D01*
X66161808Y-58581191D01*
X66312290Y-58501205D01*
X66335015Y-58491843D01*
X66498157Y-58442602D01*
X66522268Y-58437829D01*
X66548794Y-58435229D01*
X66593973Y-58430801D01*
X66600123Y-58430500D01*
X236197951Y-58430500D01*
X236198038Y-58430512D01*
G37*
%TD.AperFunction*%
%TD*%
M02*
