%TF.GenerationSoftware,KiCad,Pcbnew,7.0.5-7.0.5~ubuntu22.04.1*%
%TF.CreationDate,2023-06-25T16:10:42-05:00*%
%TF.ProjectId,badge,62616467-652e-46b6-9963-61645f706362,rev?*%
%TF.SameCoordinates,Original*%
%TF.FileFunction,Legend,Bot*%
%TF.FilePolarity,Positive*%
%FSLAX46Y46*%
G04 Gerber Fmt 4.6, Leading zero omitted, Abs format (unit mm)*
G04 Created by KiCad (PCBNEW 7.0.5-7.0.5~ubuntu22.04.1) date 2023-06-25 16:10:42*
%MOMM*%
%LPD*%
G01*
G04 APERTURE LIST*
G04 Aperture macros list*
%AMRoundRect*
0 Rectangle with rounded corners*
0 $1 Rounding radius*
0 $2 $3 $4 $5 $6 $7 $8 $9 X,Y pos of 4 corners*
0 Add a 4 corners polygon primitive as box body*
4,1,4,$2,$3,$4,$5,$6,$7,$8,$9,$2,$3,0*
0 Add four circle primitives for the rounded corners*
1,1,$1+$1,$2,$3*
1,1,$1+$1,$4,$5*
1,1,$1+$1,$6,$7*
1,1,$1+$1,$8,$9*
0 Add four rect primitives between the rounded corners*
20,1,$1+$1,$2,$3,$4,$5,0*
20,1,$1+$1,$4,$5,$6,$7,0*
20,1,$1+$1,$6,$7,$8,$9,0*
20,1,$1+$1,$8,$9,$2,$3,0*%
%AMRotRect*
0 Rectangle, with rotation*
0 The origin of the aperture is its center*
0 $1 length*
0 $2 width*
0 $3 Rotation angle, in degrees counterclockwise*
0 Add horizontal line*
21,1,$1,$2,0,0,$3*%
G04 Aperture macros list end*
%ADD10C,0.150000*%
%ADD11C,0.300000*%
%ADD12C,0.101600*%
%ADD13C,0.120000*%
%ADD14C,0.010000*%
%ADD15C,0.050000*%
%ADD16C,0.381000*%
%ADD17C,0.254000*%
%ADD18C,0.127000*%
%ADD19C,0.066040*%
%ADD20R,1.800000X1.800000*%
%ADD21C,1.800000*%
%ADD22C,3.000000*%
%ADD23RoundRect,0.250000X-0.600000X0.600000X-0.600000X-0.600000X0.600000X-0.600000X0.600000X0.600000X0*%
%ADD24C,1.700000*%
%ADD25O,3.000000X6.000000*%
%ADD26R,1.700000X1.700000*%
%ADD27O,6.000000X3.000000*%
%ADD28RotRect,1.700000X1.700000X355.000000*%
%ADD29RoundRect,0.249999X1.075001X-0.450001X1.075001X0.450001X-1.075001X0.450001X-1.075001X-0.450001X0*%
%ADD30RoundRect,0.249999X-1.075001X0.450001X-1.075001X-0.450001X1.075001X-0.450001X1.075001X0.450001X0*%
%ADD31R,1.500000X1.500000*%
%ADD32RoundRect,0.250000X0.650000X-0.412500X0.650000X0.412500X-0.650000X0.412500X-0.650000X-0.412500X0*%
%ADD33RoundRect,0.250000X0.412500X0.650000X-0.412500X0.650000X-0.412500X-0.650000X0.412500X-0.650000X0*%
%ADD34C,1.500000*%
%ADD35RoundRect,0.250000X-1.500000X0.250000X-1.500000X-0.250000X1.500000X-0.250000X1.500000X0.250000X0*%
%ADD36RoundRect,0.250001X-1.449999X0.499999X-1.449999X-0.499999X1.449999X-0.499999X1.449999X0.499999X0*%
%ADD37RoundRect,0.300000X0.650000X-0.300000X0.650000X0.300000X-0.650000X0.300000X-0.650000X-0.300000X0*%
%ADD38RoundRect,0.249999X0.450001X1.075001X-0.450001X1.075001X-0.450001X-1.075001X0.450001X-1.075001X0*%
%ADD39RoundRect,0.249999X-0.450001X-1.075001X0.450001X-1.075001X0.450001X1.075001X-0.450001X1.075001X0*%
%ADD40RoundRect,0.150000X-0.587500X-0.150000X0.587500X-0.150000X0.587500X0.150000X-0.587500X0.150000X0*%
%ADD41RoundRect,0.300000X-0.650000X0.300000X-0.650000X-0.300000X0.650000X-0.300000X0.650000X0.300000X0*%
%ADD42R,2.000000X1.905000*%
%ADD43O,2.000000X1.905000*%
%ADD44R,1.800000X1.100000*%
%ADD45RoundRect,0.100000X0.637500X0.100000X-0.637500X0.100000X-0.637500X-0.100000X0.637500X-0.100000X0*%
%ADD46RoundRect,1.250000X1.250000X1.250000X-1.250000X1.250000X-1.250000X-1.250000X1.250000X-1.250000X0*%
%ADD47RoundRect,0.750000X0.750000X-0.750000X0.750000X0.750000X-0.750000X0.750000X-0.750000X-0.750000X0*%
%ADD48RoundRect,0.375000X-0.375000X1.625000X-0.375000X-1.625000X0.375000X-1.625000X0.375000X1.625000X0*%
G04 APERTURE END LIST*
D10*
X90674649Y-103789819D02*
X90674649Y-102789819D01*
X90674649Y-103742200D02*
X90769887Y-103789819D01*
X90769887Y-103789819D02*
X90960363Y-103789819D01*
X90960363Y-103789819D02*
X91055601Y-103742200D01*
X91055601Y-103742200D02*
X91103220Y-103694580D01*
X91103220Y-103694580D02*
X91150839Y-103599342D01*
X91150839Y-103599342D02*
X91150839Y-103313628D01*
X91150839Y-103313628D02*
X91103220Y-103218390D01*
X91103220Y-103218390D02*
X91055601Y-103170771D01*
X91055601Y-103170771D02*
X90960363Y-103123152D01*
X90960363Y-103123152D02*
X90769887Y-103123152D01*
X90769887Y-103123152D02*
X90674649Y-103170771D01*
X89817506Y-103742200D02*
X89912744Y-103789819D01*
X89912744Y-103789819D02*
X90103220Y-103789819D01*
X90103220Y-103789819D02*
X90198458Y-103742200D01*
X90198458Y-103742200D02*
X90246077Y-103646961D01*
X90246077Y-103646961D02*
X90246077Y-103266009D01*
X90246077Y-103266009D02*
X90198458Y-103170771D01*
X90198458Y-103170771D02*
X90103220Y-103123152D01*
X90103220Y-103123152D02*
X89912744Y-103123152D01*
X89912744Y-103123152D02*
X89817506Y-103170771D01*
X89817506Y-103170771D02*
X89769887Y-103266009D01*
X89769887Y-103266009D02*
X89769887Y-103361247D01*
X89769887Y-103361247D02*
X90246077Y-103456485D01*
X89388934Y-103742200D02*
X89293696Y-103789819D01*
X89293696Y-103789819D02*
X89103220Y-103789819D01*
X89103220Y-103789819D02*
X89007982Y-103742200D01*
X89007982Y-103742200D02*
X88960363Y-103646961D01*
X88960363Y-103646961D02*
X88960363Y-103599342D01*
X88960363Y-103599342D02*
X89007982Y-103504104D01*
X89007982Y-103504104D02*
X89103220Y-103456485D01*
X89103220Y-103456485D02*
X89246077Y-103456485D01*
X89246077Y-103456485D02*
X89341315Y-103408866D01*
X89341315Y-103408866D02*
X89388934Y-103313628D01*
X89388934Y-103313628D02*
X89388934Y-103266009D01*
X89388934Y-103266009D02*
X89341315Y-103170771D01*
X89341315Y-103170771D02*
X89246077Y-103123152D01*
X89246077Y-103123152D02*
X89103220Y-103123152D01*
X89103220Y-103123152D02*
X89007982Y-103170771D01*
X88531791Y-103789819D02*
X88531791Y-103123152D01*
X88531791Y-102789819D02*
X88579410Y-102837438D01*
X88579410Y-102837438D02*
X88531791Y-102885057D01*
X88531791Y-102885057D02*
X88484172Y-102837438D01*
X88484172Y-102837438D02*
X88531791Y-102789819D01*
X88531791Y-102789819D02*
X88531791Y-102885057D01*
X87627030Y-103123152D02*
X87627030Y-103932676D01*
X87627030Y-103932676D02*
X87674649Y-104027914D01*
X87674649Y-104027914D02*
X87722268Y-104075533D01*
X87722268Y-104075533D02*
X87817506Y-104123152D01*
X87817506Y-104123152D02*
X87960363Y-104123152D01*
X87960363Y-104123152D02*
X88055601Y-104075533D01*
X87627030Y-103742200D02*
X87722268Y-103789819D01*
X87722268Y-103789819D02*
X87912744Y-103789819D01*
X87912744Y-103789819D02*
X88007982Y-103742200D01*
X88007982Y-103742200D02*
X88055601Y-103694580D01*
X88055601Y-103694580D02*
X88103220Y-103599342D01*
X88103220Y-103599342D02*
X88103220Y-103313628D01*
X88103220Y-103313628D02*
X88055601Y-103218390D01*
X88055601Y-103218390D02*
X88007982Y-103170771D01*
X88007982Y-103170771D02*
X87912744Y-103123152D01*
X87912744Y-103123152D02*
X87722268Y-103123152D01*
X87722268Y-103123152D02*
X87627030Y-103170771D01*
X87150839Y-103123152D02*
X87150839Y-103789819D01*
X87150839Y-103218390D02*
X87103220Y-103170771D01*
X87103220Y-103170771D02*
X87007982Y-103123152D01*
X87007982Y-103123152D02*
X86865125Y-103123152D01*
X86865125Y-103123152D02*
X86769887Y-103170771D01*
X86769887Y-103170771D02*
X86722268Y-103266009D01*
X86722268Y-103266009D02*
X86722268Y-103789819D01*
X85627029Y-103123152D02*
X85246077Y-103123152D01*
X85484172Y-103789819D02*
X85484172Y-102932676D01*
X85484172Y-102932676D02*
X85436553Y-102837438D01*
X85436553Y-102837438D02*
X85341315Y-102789819D01*
X85341315Y-102789819D02*
X85246077Y-102789819D01*
X84912743Y-103789819D02*
X84912743Y-103123152D01*
X84912743Y-102789819D02*
X84960362Y-102837438D01*
X84960362Y-102837438D02*
X84912743Y-102885057D01*
X84912743Y-102885057D02*
X84865124Y-102837438D01*
X84865124Y-102837438D02*
X84912743Y-102789819D01*
X84912743Y-102789819D02*
X84912743Y-102885057D01*
X84293696Y-103789819D02*
X84388934Y-103742200D01*
X84388934Y-103742200D02*
X84436553Y-103646961D01*
X84436553Y-103646961D02*
X84436553Y-102789819D01*
X83531791Y-103742200D02*
X83627029Y-103789819D01*
X83627029Y-103789819D02*
X83817505Y-103789819D01*
X83817505Y-103789819D02*
X83912743Y-103742200D01*
X83912743Y-103742200D02*
X83960362Y-103646961D01*
X83960362Y-103646961D02*
X83960362Y-103266009D01*
X83960362Y-103266009D02*
X83912743Y-103170771D01*
X83912743Y-103170771D02*
X83817505Y-103123152D01*
X83817505Y-103123152D02*
X83627029Y-103123152D01*
X83627029Y-103123152D02*
X83531791Y-103170771D01*
X83531791Y-103170771D02*
X83484172Y-103266009D01*
X83484172Y-103266009D02*
X83484172Y-103361247D01*
X83484172Y-103361247D02*
X83960362Y-103456485D01*
X83103219Y-103742200D02*
X83007981Y-103789819D01*
X83007981Y-103789819D02*
X82817505Y-103789819D01*
X82817505Y-103789819D02*
X82722267Y-103742200D01*
X82722267Y-103742200D02*
X82674648Y-103646961D01*
X82674648Y-103646961D02*
X82674648Y-103599342D01*
X82674648Y-103599342D02*
X82722267Y-103504104D01*
X82722267Y-103504104D02*
X82817505Y-103456485D01*
X82817505Y-103456485D02*
X82960362Y-103456485D01*
X82960362Y-103456485D02*
X83055600Y-103408866D01*
X83055600Y-103408866D02*
X83103219Y-103313628D01*
X83103219Y-103313628D02*
X83103219Y-103266009D01*
X83103219Y-103266009D02*
X83055600Y-103170771D01*
X83055600Y-103170771D02*
X82960362Y-103123152D01*
X82960362Y-103123152D02*
X82817505Y-103123152D01*
X82817505Y-103123152D02*
X82722267Y-103170771D01*
X81055600Y-103789819D02*
X81055600Y-103266009D01*
X81055600Y-103266009D02*
X81103219Y-103170771D01*
X81103219Y-103170771D02*
X81198457Y-103123152D01*
X81198457Y-103123152D02*
X81388933Y-103123152D01*
X81388933Y-103123152D02*
X81484171Y-103170771D01*
X81055600Y-103742200D02*
X81150838Y-103789819D01*
X81150838Y-103789819D02*
X81388933Y-103789819D01*
X81388933Y-103789819D02*
X81484171Y-103742200D01*
X81484171Y-103742200D02*
X81531790Y-103646961D01*
X81531790Y-103646961D02*
X81531790Y-103551723D01*
X81531790Y-103551723D02*
X81484171Y-103456485D01*
X81484171Y-103456485D02*
X81388933Y-103408866D01*
X81388933Y-103408866D02*
X81150838Y-103408866D01*
X81150838Y-103408866D02*
X81055600Y-103361247D01*
X80579409Y-103123152D02*
X80579409Y-103789819D01*
X80579409Y-103218390D02*
X80531790Y-103170771D01*
X80531790Y-103170771D02*
X80436552Y-103123152D01*
X80436552Y-103123152D02*
X80293695Y-103123152D01*
X80293695Y-103123152D02*
X80198457Y-103170771D01*
X80198457Y-103170771D02*
X80150838Y-103266009D01*
X80150838Y-103266009D02*
X80150838Y-103789819D01*
X79246076Y-103789819D02*
X79246076Y-102789819D01*
X79246076Y-103742200D02*
X79341314Y-103789819D01*
X79341314Y-103789819D02*
X79531790Y-103789819D01*
X79531790Y-103789819D02*
X79627028Y-103742200D01*
X79627028Y-103742200D02*
X79674647Y-103694580D01*
X79674647Y-103694580D02*
X79722266Y-103599342D01*
X79722266Y-103599342D02*
X79722266Y-103313628D01*
X79722266Y-103313628D02*
X79674647Y-103218390D01*
X79674647Y-103218390D02*
X79627028Y-103170771D01*
X79627028Y-103170771D02*
X79531790Y-103123152D01*
X79531790Y-103123152D02*
X79341314Y-103123152D01*
X79341314Y-103123152D02*
X79246076Y-103170771D01*
X91246077Y-104733152D02*
X90865125Y-104733152D01*
X91103220Y-105399819D02*
X91103220Y-104542676D01*
X91103220Y-104542676D02*
X91055601Y-104447438D01*
X91055601Y-104447438D02*
X90960363Y-104399819D01*
X90960363Y-104399819D02*
X90865125Y-104399819D01*
X90531791Y-105399819D02*
X90531791Y-104733152D01*
X90531791Y-104399819D02*
X90579410Y-104447438D01*
X90579410Y-104447438D02*
X90531791Y-104495057D01*
X90531791Y-104495057D02*
X90484172Y-104447438D01*
X90484172Y-104447438D02*
X90531791Y-104399819D01*
X90531791Y-104399819D02*
X90531791Y-104495057D01*
X90055601Y-105399819D02*
X90055601Y-104733152D01*
X90055601Y-104923628D02*
X90007982Y-104828390D01*
X90007982Y-104828390D02*
X89960363Y-104780771D01*
X89960363Y-104780771D02*
X89865125Y-104733152D01*
X89865125Y-104733152D02*
X89769887Y-104733152D01*
X89436553Y-105399819D02*
X89436553Y-104733152D01*
X89436553Y-104828390D02*
X89388934Y-104780771D01*
X89388934Y-104780771D02*
X89293696Y-104733152D01*
X89293696Y-104733152D02*
X89150839Y-104733152D01*
X89150839Y-104733152D02*
X89055601Y-104780771D01*
X89055601Y-104780771D02*
X89007982Y-104876009D01*
X89007982Y-104876009D02*
X89007982Y-105399819D01*
X89007982Y-104876009D02*
X88960363Y-104780771D01*
X88960363Y-104780771D02*
X88865125Y-104733152D01*
X88865125Y-104733152D02*
X88722268Y-104733152D01*
X88722268Y-104733152D02*
X88627029Y-104780771D01*
X88627029Y-104780771D02*
X88579410Y-104876009D01*
X88579410Y-104876009D02*
X88579410Y-105399819D01*
X88198458Y-104733152D02*
X88007982Y-105399819D01*
X88007982Y-105399819D02*
X87817506Y-104923628D01*
X87817506Y-104923628D02*
X87627030Y-105399819D01*
X87627030Y-105399819D02*
X87436554Y-104733152D01*
X86627030Y-105399819D02*
X86627030Y-104876009D01*
X86627030Y-104876009D02*
X86674649Y-104780771D01*
X86674649Y-104780771D02*
X86769887Y-104733152D01*
X86769887Y-104733152D02*
X86960363Y-104733152D01*
X86960363Y-104733152D02*
X87055601Y-104780771D01*
X86627030Y-105352200D02*
X86722268Y-105399819D01*
X86722268Y-105399819D02*
X86960363Y-105399819D01*
X86960363Y-105399819D02*
X87055601Y-105352200D01*
X87055601Y-105352200D02*
X87103220Y-105256961D01*
X87103220Y-105256961D02*
X87103220Y-105161723D01*
X87103220Y-105161723D02*
X87055601Y-105066485D01*
X87055601Y-105066485D02*
X86960363Y-105018866D01*
X86960363Y-105018866D02*
X86722268Y-105018866D01*
X86722268Y-105018866D02*
X86627030Y-104971247D01*
X86150839Y-105399819D02*
X86150839Y-104733152D01*
X86150839Y-104923628D02*
X86103220Y-104828390D01*
X86103220Y-104828390D02*
X86055601Y-104780771D01*
X86055601Y-104780771D02*
X85960363Y-104733152D01*
X85960363Y-104733152D02*
X85865125Y-104733152D01*
X85150839Y-105352200D02*
X85246077Y-105399819D01*
X85246077Y-105399819D02*
X85436553Y-105399819D01*
X85436553Y-105399819D02*
X85531791Y-105352200D01*
X85531791Y-105352200D02*
X85579410Y-105256961D01*
X85579410Y-105256961D02*
X85579410Y-104876009D01*
X85579410Y-104876009D02*
X85531791Y-104780771D01*
X85531791Y-104780771D02*
X85436553Y-104733152D01*
X85436553Y-104733152D02*
X85246077Y-104733152D01*
X85246077Y-104733152D02*
X85150839Y-104780771D01*
X85150839Y-104780771D02*
X85103220Y-104876009D01*
X85103220Y-104876009D02*
X85103220Y-104971247D01*
X85103220Y-104971247D02*
X85579410Y-105066485D01*
X83484172Y-104733152D02*
X83484172Y-105399819D01*
X83912743Y-104733152D02*
X83912743Y-105256961D01*
X83912743Y-105256961D02*
X83865124Y-105352200D01*
X83865124Y-105352200D02*
X83769886Y-105399819D01*
X83769886Y-105399819D02*
X83627029Y-105399819D01*
X83627029Y-105399819D02*
X83531791Y-105352200D01*
X83531791Y-105352200D02*
X83484172Y-105304580D01*
X83007981Y-104733152D02*
X83007981Y-105733152D01*
X83007981Y-104780771D02*
X82912743Y-104733152D01*
X82912743Y-104733152D02*
X82722267Y-104733152D01*
X82722267Y-104733152D02*
X82627029Y-104780771D01*
X82627029Y-104780771D02*
X82579410Y-104828390D01*
X82579410Y-104828390D02*
X82531791Y-104923628D01*
X82531791Y-104923628D02*
X82531791Y-105209342D01*
X82531791Y-105209342D02*
X82579410Y-105304580D01*
X82579410Y-105304580D02*
X82627029Y-105352200D01*
X82627029Y-105352200D02*
X82722267Y-105399819D01*
X82722267Y-105399819D02*
X82912743Y-105399819D01*
X82912743Y-105399819D02*
X83007981Y-105352200D01*
X81674648Y-105399819D02*
X81674648Y-104399819D01*
X81674648Y-105352200D02*
X81769886Y-105399819D01*
X81769886Y-105399819D02*
X81960362Y-105399819D01*
X81960362Y-105399819D02*
X82055600Y-105352200D01*
X82055600Y-105352200D02*
X82103219Y-105304580D01*
X82103219Y-105304580D02*
X82150838Y-105209342D01*
X82150838Y-105209342D02*
X82150838Y-104923628D01*
X82150838Y-104923628D02*
X82103219Y-104828390D01*
X82103219Y-104828390D02*
X82055600Y-104780771D01*
X82055600Y-104780771D02*
X81960362Y-104733152D01*
X81960362Y-104733152D02*
X81769886Y-104733152D01*
X81769886Y-104733152D02*
X81674648Y-104780771D01*
X80769886Y-105399819D02*
X80769886Y-104876009D01*
X80769886Y-104876009D02*
X80817505Y-104780771D01*
X80817505Y-104780771D02*
X80912743Y-104733152D01*
X80912743Y-104733152D02*
X81103219Y-104733152D01*
X81103219Y-104733152D02*
X81198457Y-104780771D01*
X80769886Y-105352200D02*
X80865124Y-105399819D01*
X80865124Y-105399819D02*
X81103219Y-105399819D01*
X81103219Y-105399819D02*
X81198457Y-105352200D01*
X81198457Y-105352200D02*
X81246076Y-105256961D01*
X81246076Y-105256961D02*
X81246076Y-105161723D01*
X81246076Y-105161723D02*
X81198457Y-105066485D01*
X81198457Y-105066485D02*
X81103219Y-105018866D01*
X81103219Y-105018866D02*
X80865124Y-105018866D01*
X80865124Y-105018866D02*
X80769886Y-104971247D01*
X80436552Y-104733152D02*
X80055600Y-104733152D01*
X80293695Y-104399819D02*
X80293695Y-105256961D01*
X80293695Y-105256961D02*
X80246076Y-105352200D01*
X80246076Y-105352200D02*
X80150838Y-105399819D01*
X80150838Y-105399819D02*
X80055600Y-105399819D01*
X79341314Y-105352200D02*
X79436552Y-105399819D01*
X79436552Y-105399819D02*
X79627028Y-105399819D01*
X79627028Y-105399819D02*
X79722266Y-105352200D01*
X79722266Y-105352200D02*
X79769885Y-105256961D01*
X79769885Y-105256961D02*
X79769885Y-104876009D01*
X79769885Y-104876009D02*
X79722266Y-104780771D01*
X79722266Y-104780771D02*
X79627028Y-104733152D01*
X79627028Y-104733152D02*
X79436552Y-104733152D01*
X79436552Y-104733152D02*
X79341314Y-104780771D01*
X79341314Y-104780771D02*
X79293695Y-104876009D01*
X79293695Y-104876009D02*
X79293695Y-104971247D01*
X79293695Y-104971247D02*
X79769885Y-105066485D01*
X78912742Y-105352200D02*
X78817504Y-105399819D01*
X78817504Y-105399819D02*
X78627028Y-105399819D01*
X78627028Y-105399819D02*
X78531790Y-105352200D01*
X78531790Y-105352200D02*
X78484171Y-105256961D01*
X78484171Y-105256961D02*
X78484171Y-105209342D01*
X78484171Y-105209342D02*
X78531790Y-105114104D01*
X78531790Y-105114104D02*
X78627028Y-105066485D01*
X78627028Y-105066485D02*
X78769885Y-105066485D01*
X78769885Y-105066485D02*
X78865123Y-105018866D01*
X78865123Y-105018866D02*
X78912742Y-104923628D01*
X78912742Y-104923628D02*
X78912742Y-104876009D01*
X78912742Y-104876009D02*
X78865123Y-104780771D01*
X78865123Y-104780771D02*
X78769885Y-104733152D01*
X78769885Y-104733152D02*
X78627028Y-104733152D01*
X78627028Y-104733152D02*
X78531790Y-104780771D01*
X100964762Y-62417438D02*
X100583809Y-62417438D01*
X100583809Y-62417438D02*
X100393333Y-62512676D01*
X100393333Y-62512676D02*
X100202857Y-62703152D01*
X100202857Y-62703152D02*
X100107619Y-63084104D01*
X100107619Y-63084104D02*
X100107619Y-63750771D01*
X100107619Y-63750771D02*
X100202857Y-64131723D01*
X100202857Y-64131723D02*
X100393333Y-64322200D01*
X100393333Y-64322200D02*
X100583809Y-64417438D01*
X100583809Y-64417438D02*
X100964762Y-64417438D01*
X100964762Y-64417438D02*
X101155238Y-64322200D01*
X101155238Y-64322200D02*
X101345714Y-64131723D01*
X101345714Y-64131723D02*
X101440952Y-63750771D01*
X101440952Y-63750771D02*
X101440952Y-63084104D01*
X101440952Y-63084104D02*
X101345714Y-62703152D01*
X101345714Y-62703152D02*
X101155238Y-62512676D01*
X101155238Y-62512676D02*
X100964762Y-62417438D01*
X98583809Y-63369819D02*
X99250476Y-63369819D01*
X99250476Y-64417438D02*
X99250476Y-62417438D01*
X99250476Y-62417438D02*
X98298095Y-62417438D01*
X96869523Y-63369819D02*
X97536190Y-63369819D01*
X97536190Y-64417438D02*
X97536190Y-62417438D01*
X97536190Y-62417438D02*
X96583809Y-62417438D01*
D11*
X73584285Y-66718328D02*
X73584285Y-65218328D01*
X73584285Y-66646900D02*
X73727142Y-66718328D01*
X73727142Y-66718328D02*
X74012856Y-66718328D01*
X74012856Y-66718328D02*
X74155713Y-66646900D01*
X74155713Y-66646900D02*
X74227142Y-66575471D01*
X74227142Y-66575471D02*
X74298570Y-66432614D01*
X74298570Y-66432614D02*
X74298570Y-66004042D01*
X74298570Y-66004042D02*
X74227142Y-65861185D01*
X74227142Y-65861185D02*
X74155713Y-65789757D01*
X74155713Y-65789757D02*
X74012856Y-65718328D01*
X74012856Y-65718328D02*
X73727142Y-65718328D01*
X73727142Y-65718328D02*
X73584285Y-65789757D01*
X72227142Y-66646900D02*
X72369999Y-66718328D01*
X72369999Y-66718328D02*
X72655713Y-66718328D01*
X72655713Y-66718328D02*
X72798570Y-66646900D01*
X72798570Y-66646900D02*
X72869999Y-66575471D01*
X72869999Y-66575471D02*
X72941427Y-66432614D01*
X72941427Y-66432614D02*
X72941427Y-66004042D01*
X72941427Y-66004042D02*
X72869999Y-65861185D01*
X72869999Y-65861185D02*
X72798570Y-65789757D01*
X72798570Y-65789757D02*
X72655713Y-65718328D01*
X72655713Y-65718328D02*
X72369999Y-65718328D01*
X72369999Y-65718328D02*
X72227142Y-65789757D01*
X70941428Y-65218328D02*
X71227142Y-65218328D01*
X71227142Y-65218328D02*
X71369999Y-65289757D01*
X71369999Y-65289757D02*
X71441428Y-65361185D01*
X71441428Y-65361185D02*
X71584285Y-65575471D01*
X71584285Y-65575471D02*
X71655713Y-65861185D01*
X71655713Y-65861185D02*
X71655713Y-66432614D01*
X71655713Y-66432614D02*
X71584285Y-66575471D01*
X71584285Y-66575471D02*
X71512856Y-66646900D01*
X71512856Y-66646900D02*
X71369999Y-66718328D01*
X71369999Y-66718328D02*
X71084285Y-66718328D01*
X71084285Y-66718328D02*
X70941428Y-66646900D01*
X70941428Y-66646900D02*
X70869999Y-66575471D01*
X70869999Y-66575471D02*
X70798570Y-66432614D01*
X70798570Y-66432614D02*
X70798570Y-66075471D01*
X70798570Y-66075471D02*
X70869999Y-65932614D01*
X70869999Y-65932614D02*
X70941428Y-65861185D01*
X70941428Y-65861185D02*
X71084285Y-65789757D01*
X71084285Y-65789757D02*
X71369999Y-65789757D01*
X71369999Y-65789757D02*
X71512856Y-65861185D01*
X71512856Y-65861185D02*
X71584285Y-65932614D01*
X71584285Y-65932614D02*
X71655713Y-66075471D01*
X69369999Y-66718328D02*
X70227142Y-66718328D01*
X69798571Y-66718328D02*
X69798571Y-65218328D01*
X69798571Y-65218328D02*
X69941428Y-65432614D01*
X69941428Y-65432614D02*
X70084285Y-65575471D01*
X70084285Y-65575471D02*
X70227142Y-65646900D01*
X68012857Y-65218328D02*
X68727143Y-65218328D01*
X68727143Y-65218328D02*
X68798571Y-65932614D01*
X68798571Y-65932614D02*
X68727143Y-65861185D01*
X68727143Y-65861185D02*
X68584286Y-65789757D01*
X68584286Y-65789757D02*
X68227143Y-65789757D01*
X68227143Y-65789757D02*
X68084286Y-65861185D01*
X68084286Y-65861185D02*
X68012857Y-65932614D01*
X68012857Y-65932614D02*
X67941428Y-66075471D01*
X67941428Y-66075471D02*
X67941428Y-66432614D01*
X67941428Y-66432614D02*
X68012857Y-66575471D01*
X68012857Y-66575471D02*
X68084286Y-66646900D01*
X68084286Y-66646900D02*
X68227143Y-66718328D01*
X68227143Y-66718328D02*
X68584286Y-66718328D01*
X68584286Y-66718328D02*
X68727143Y-66646900D01*
X68727143Y-66646900D02*
X68798571Y-66575471D01*
X73691427Y-67901185D02*
X73619999Y-67829757D01*
X73619999Y-67829757D02*
X73477142Y-67758328D01*
X73477142Y-67758328D02*
X73119999Y-67758328D01*
X73119999Y-67758328D02*
X72977142Y-67829757D01*
X72977142Y-67829757D02*
X72905713Y-67901185D01*
X72905713Y-67901185D02*
X72834284Y-68044042D01*
X72834284Y-68044042D02*
X72834284Y-68186900D01*
X72834284Y-68186900D02*
X72905713Y-68401185D01*
X72905713Y-68401185D02*
X73762856Y-69258328D01*
X73762856Y-69258328D02*
X72834284Y-69258328D01*
X71905713Y-67758328D02*
X71762856Y-67758328D01*
X71762856Y-67758328D02*
X71619999Y-67829757D01*
X71619999Y-67829757D02*
X71548571Y-67901185D01*
X71548571Y-67901185D02*
X71477142Y-68044042D01*
X71477142Y-68044042D02*
X71405713Y-68329757D01*
X71405713Y-68329757D02*
X71405713Y-68686900D01*
X71405713Y-68686900D02*
X71477142Y-68972614D01*
X71477142Y-68972614D02*
X71548571Y-69115471D01*
X71548571Y-69115471D02*
X71619999Y-69186900D01*
X71619999Y-69186900D02*
X71762856Y-69258328D01*
X71762856Y-69258328D02*
X71905713Y-69258328D01*
X71905713Y-69258328D02*
X72048571Y-69186900D01*
X72048571Y-69186900D02*
X72119999Y-69115471D01*
X72119999Y-69115471D02*
X72191428Y-68972614D01*
X72191428Y-68972614D02*
X72262856Y-68686900D01*
X72262856Y-68686900D02*
X72262856Y-68329757D01*
X72262856Y-68329757D02*
X72191428Y-68044042D01*
X72191428Y-68044042D02*
X72119999Y-67901185D01*
X72119999Y-67901185D02*
X72048571Y-67829757D01*
X72048571Y-67829757D02*
X71905713Y-67758328D01*
X70834285Y-67901185D02*
X70762857Y-67829757D01*
X70762857Y-67829757D02*
X70620000Y-67758328D01*
X70620000Y-67758328D02*
X70262857Y-67758328D01*
X70262857Y-67758328D02*
X70120000Y-67829757D01*
X70120000Y-67829757D02*
X70048571Y-67901185D01*
X70048571Y-67901185D02*
X69977142Y-68044042D01*
X69977142Y-68044042D02*
X69977142Y-68186900D01*
X69977142Y-68186900D02*
X70048571Y-68401185D01*
X70048571Y-68401185D02*
X70905714Y-69258328D01*
X70905714Y-69258328D02*
X69977142Y-69258328D01*
X69477143Y-67758328D02*
X68548571Y-67758328D01*
X68548571Y-67758328D02*
X69048571Y-68329757D01*
X69048571Y-68329757D02*
X68834286Y-68329757D01*
X68834286Y-68329757D02*
X68691429Y-68401185D01*
X68691429Y-68401185D02*
X68620000Y-68472614D01*
X68620000Y-68472614D02*
X68548571Y-68615471D01*
X68548571Y-68615471D02*
X68548571Y-68972614D01*
X68548571Y-68972614D02*
X68620000Y-69115471D01*
X68620000Y-69115471D02*
X68691429Y-69186900D01*
X68691429Y-69186900D02*
X68834286Y-69258328D01*
X68834286Y-69258328D02*
X69262857Y-69258328D01*
X69262857Y-69258328D02*
X69405714Y-69186900D01*
X69405714Y-69186900D02*
X69477143Y-69115471D01*
X154248571Y-85538328D02*
X154248571Y-86609757D01*
X154248571Y-86609757D02*
X154320000Y-86824042D01*
X154320000Y-86824042D02*
X154462857Y-86966900D01*
X154462857Y-86966900D02*
X154677143Y-87038328D01*
X154677143Y-87038328D02*
X154820000Y-87038328D01*
X152820000Y-87038328D02*
X153534286Y-87038328D01*
X153534286Y-87038328D02*
X153534286Y-85538328D01*
X151462857Y-86895471D02*
X151534285Y-86966900D01*
X151534285Y-86966900D02*
X151748571Y-87038328D01*
X151748571Y-87038328D02*
X151891428Y-87038328D01*
X151891428Y-87038328D02*
X152105714Y-86966900D01*
X152105714Y-86966900D02*
X152248571Y-86824042D01*
X152248571Y-86824042D02*
X152320000Y-86681185D01*
X152320000Y-86681185D02*
X152391428Y-86395471D01*
X152391428Y-86395471D02*
X152391428Y-86181185D01*
X152391428Y-86181185D02*
X152320000Y-85895471D01*
X152320000Y-85895471D02*
X152248571Y-85752614D01*
X152248571Y-85752614D02*
X152105714Y-85609757D01*
X152105714Y-85609757D02*
X151891428Y-85538328D01*
X151891428Y-85538328D02*
X151748571Y-85538328D01*
X151748571Y-85538328D02*
X151534285Y-85609757D01*
X151534285Y-85609757D02*
X151462857Y-85681185D01*
X150391428Y-85538328D02*
X150391428Y-86609757D01*
X150391428Y-86609757D02*
X150462857Y-86824042D01*
X150462857Y-86824042D02*
X150605714Y-86966900D01*
X150605714Y-86966900D02*
X150820000Y-87038328D01*
X150820000Y-87038328D02*
X150962857Y-87038328D01*
X148962857Y-87038328D02*
X149677143Y-87038328D01*
X149677143Y-87038328D02*
X149677143Y-85538328D01*
X147605714Y-86895471D02*
X147677142Y-86966900D01*
X147677142Y-86966900D02*
X147891428Y-87038328D01*
X147891428Y-87038328D02*
X148034285Y-87038328D01*
X148034285Y-87038328D02*
X148248571Y-86966900D01*
X148248571Y-86966900D02*
X148391428Y-86824042D01*
X148391428Y-86824042D02*
X148462857Y-86681185D01*
X148462857Y-86681185D02*
X148534285Y-86395471D01*
X148534285Y-86395471D02*
X148534285Y-86181185D01*
X148534285Y-86181185D02*
X148462857Y-85895471D01*
X148462857Y-85895471D02*
X148391428Y-85752614D01*
X148391428Y-85752614D02*
X148248571Y-85609757D01*
X148248571Y-85609757D02*
X148034285Y-85538328D01*
X148034285Y-85538328D02*
X147891428Y-85538328D01*
X147891428Y-85538328D02*
X147677142Y-85609757D01*
X147677142Y-85609757D02*
X147605714Y-85681185D01*
X146534285Y-85538328D02*
X146534285Y-86609757D01*
X146534285Y-86609757D02*
X146605714Y-86824042D01*
X146605714Y-86824042D02*
X146748571Y-86966900D01*
X146748571Y-86966900D02*
X146962857Y-87038328D01*
X146962857Y-87038328D02*
X147105714Y-87038328D01*
X145105714Y-87038328D02*
X145820000Y-87038328D01*
X145820000Y-87038328D02*
X145820000Y-85538328D01*
X143748571Y-86895471D02*
X143819999Y-86966900D01*
X143819999Y-86966900D02*
X144034285Y-87038328D01*
X144034285Y-87038328D02*
X144177142Y-87038328D01*
X144177142Y-87038328D02*
X144391428Y-86966900D01*
X144391428Y-86966900D02*
X144534285Y-86824042D01*
X144534285Y-86824042D02*
X144605714Y-86681185D01*
X144605714Y-86681185D02*
X144677142Y-86395471D01*
X144677142Y-86395471D02*
X144677142Y-86181185D01*
X144677142Y-86181185D02*
X144605714Y-85895471D01*
X144605714Y-85895471D02*
X144534285Y-85752614D01*
X144534285Y-85752614D02*
X144391428Y-85609757D01*
X144391428Y-85609757D02*
X144177142Y-85538328D01*
X144177142Y-85538328D02*
X144034285Y-85538328D01*
X144034285Y-85538328D02*
X143819999Y-85609757D01*
X143819999Y-85609757D02*
X143748571Y-85681185D01*
X142677142Y-85538328D02*
X142677142Y-86609757D01*
X142677142Y-86609757D02*
X142748571Y-86824042D01*
X142748571Y-86824042D02*
X142891428Y-86966900D01*
X142891428Y-86966900D02*
X143105714Y-87038328D01*
X143105714Y-87038328D02*
X143248571Y-87038328D01*
X141248571Y-87038328D02*
X141962857Y-87038328D01*
X141962857Y-87038328D02*
X141962857Y-85538328D01*
X139891428Y-86895471D02*
X139962856Y-86966900D01*
X139962856Y-86966900D02*
X140177142Y-87038328D01*
X140177142Y-87038328D02*
X140319999Y-87038328D01*
X140319999Y-87038328D02*
X140534285Y-86966900D01*
X140534285Y-86966900D02*
X140677142Y-86824042D01*
X140677142Y-86824042D02*
X140748571Y-86681185D01*
X140748571Y-86681185D02*
X140819999Y-86395471D01*
X140819999Y-86395471D02*
X140819999Y-86181185D01*
X140819999Y-86181185D02*
X140748571Y-85895471D01*
X140748571Y-85895471D02*
X140677142Y-85752614D01*
X140677142Y-85752614D02*
X140534285Y-85609757D01*
X140534285Y-85609757D02*
X140319999Y-85538328D01*
X140319999Y-85538328D02*
X140177142Y-85538328D01*
X140177142Y-85538328D02*
X139962856Y-85609757D01*
X139962856Y-85609757D02*
X139891428Y-85681185D01*
D10*
X100569999Y-77657438D02*
X100189047Y-77657438D01*
X100189047Y-77657438D02*
X100010476Y-77752676D01*
X100010476Y-77752676D02*
X99843809Y-77943152D01*
X99843809Y-77943152D02*
X99796190Y-78324104D01*
X99796190Y-78324104D02*
X99879523Y-78990771D01*
X99879523Y-78990771D02*
X100022380Y-79371723D01*
X100022380Y-79371723D02*
X100236666Y-79562200D01*
X100236666Y-79562200D02*
X100439047Y-79657438D01*
X100439047Y-79657438D02*
X100819999Y-79657438D01*
X100819999Y-79657438D02*
X100998571Y-79562200D01*
X100998571Y-79562200D02*
X101165238Y-79371723D01*
X101165238Y-79371723D02*
X101212857Y-78990771D01*
X101212857Y-78990771D02*
X101129523Y-78324104D01*
X101129523Y-78324104D02*
X100986666Y-77943152D01*
X100986666Y-77943152D02*
X100772380Y-77752676D01*
X100772380Y-77752676D02*
X100569999Y-77657438D01*
X99105714Y-79657438D02*
X98855714Y-77657438D01*
X98855714Y-77657438D02*
X97962857Y-79657438D01*
X97962857Y-79657438D02*
X97712857Y-77657438D01*
X128577381Y-98709819D02*
X128452381Y-97709819D01*
X128500000Y-98090771D02*
X128398809Y-98043152D01*
X128398809Y-98043152D02*
X128208333Y-98043152D01*
X128208333Y-98043152D02*
X128119047Y-98090771D01*
X128119047Y-98090771D02*
X128077381Y-98138390D01*
X128077381Y-98138390D02*
X128041666Y-98233628D01*
X128041666Y-98233628D02*
X128077381Y-98519342D01*
X128077381Y-98519342D02*
X128136904Y-98614580D01*
X128136904Y-98614580D02*
X128190476Y-98662200D01*
X128190476Y-98662200D02*
X128291666Y-98709819D01*
X128291666Y-98709819D02*
X128482143Y-98709819D01*
X128482143Y-98709819D02*
X128571428Y-98662200D01*
X127529762Y-98709819D02*
X127619047Y-98662200D01*
X127619047Y-98662200D02*
X127654762Y-98566961D01*
X127654762Y-98566961D02*
X127547619Y-97709819D01*
X127148809Y-98709819D02*
X127065475Y-98043152D01*
X127023809Y-97709819D02*
X127077380Y-97757438D01*
X127077380Y-97757438D02*
X127035713Y-97805057D01*
X127035713Y-97805057D02*
X126982142Y-97757438D01*
X126982142Y-97757438D02*
X127023809Y-97709819D01*
X127023809Y-97709819D02*
X127035713Y-97805057D01*
X126589285Y-98043152D02*
X126672619Y-98709819D01*
X126601190Y-98138390D02*
X126547619Y-98090771D01*
X126547619Y-98090771D02*
X126446428Y-98043152D01*
X126446428Y-98043152D02*
X126303571Y-98043152D01*
X126303571Y-98043152D02*
X126214285Y-98090771D01*
X126214285Y-98090771D02*
X126178571Y-98186009D01*
X126178571Y-98186009D02*
X126244047Y-98709819D01*
X125767857Y-98709819D02*
X125642857Y-97709819D01*
X125625000Y-98328866D02*
X125386904Y-98709819D01*
X125303571Y-98043152D02*
X125732142Y-98424104D01*
X128053571Y-100319819D02*
X128529762Y-100319819D01*
X128529762Y-100319819D02*
X128404762Y-99319819D01*
X127654761Y-99796009D02*
X127321428Y-99796009D01*
X127244047Y-100319819D02*
X127720238Y-100319819D01*
X127720238Y-100319819D02*
X127595238Y-99319819D01*
X127595238Y-99319819D02*
X127119047Y-99319819D01*
X126815476Y-100319819D02*
X126690476Y-99319819D01*
X126690476Y-99319819D02*
X126452380Y-99319819D01*
X126452380Y-99319819D02*
X126315476Y-99367438D01*
X126315476Y-99367438D02*
X126232142Y-99462676D01*
X126232142Y-99462676D02*
X126196428Y-99557914D01*
X126196428Y-99557914D02*
X126172619Y-99748390D01*
X126172619Y-99748390D02*
X126190476Y-99891247D01*
X126190476Y-99891247D02*
X126261904Y-100081723D01*
X126261904Y-100081723D02*
X126321428Y-100176961D01*
X126321428Y-100176961D02*
X126428571Y-100272200D01*
X126428571Y-100272200D02*
X126577380Y-100319819D01*
X126577380Y-100319819D02*
X126815476Y-100319819D01*
X125857142Y-100272200D02*
X125767857Y-100319819D01*
X125767857Y-100319819D02*
X125577380Y-100319819D01*
X125577380Y-100319819D02*
X125476190Y-100272200D01*
X125476190Y-100272200D02*
X125416666Y-100176961D01*
X125416666Y-100176961D02*
X125410714Y-100129342D01*
X125410714Y-100129342D02*
X125446428Y-100034104D01*
X125446428Y-100034104D02*
X125535714Y-99986485D01*
X125535714Y-99986485D02*
X125678571Y-99986485D01*
X125678571Y-99986485D02*
X125767857Y-99938866D01*
X125767857Y-99938866D02*
X125803571Y-99843628D01*
X125803571Y-99843628D02*
X125797619Y-99796009D01*
X125797619Y-99796009D02*
X125738095Y-99700771D01*
X125738095Y-99700771D02*
X125636904Y-99653152D01*
X125636904Y-99653152D02*
X125494047Y-99653152D01*
X125494047Y-99653152D02*
X125404761Y-99700771D01*
X128857143Y-81998152D02*
X128857143Y-82664819D01*
X129285714Y-81998152D02*
X129285714Y-82521961D01*
X129285714Y-82521961D02*
X129238095Y-82617200D01*
X129238095Y-82617200D02*
X129142857Y-82664819D01*
X129142857Y-82664819D02*
X129000000Y-82664819D01*
X129000000Y-82664819D02*
X128904762Y-82617200D01*
X128904762Y-82617200D02*
X128857143Y-82569580D01*
X128380952Y-81998152D02*
X128380952Y-82998152D01*
X128380952Y-82045771D02*
X128285714Y-81998152D01*
X128285714Y-81998152D02*
X128095238Y-81998152D01*
X128095238Y-81998152D02*
X128000000Y-82045771D01*
X128000000Y-82045771D02*
X127952381Y-82093390D01*
X127952381Y-82093390D02*
X127904762Y-82188628D01*
X127904762Y-82188628D02*
X127904762Y-82474342D01*
X127904762Y-82474342D02*
X127952381Y-82569580D01*
X127952381Y-82569580D02*
X128000000Y-82617200D01*
X128000000Y-82617200D02*
X128095238Y-82664819D01*
X128095238Y-82664819D02*
X128285714Y-82664819D01*
X128285714Y-82664819D02*
X128380952Y-82617200D01*
X127047619Y-82664819D02*
X127047619Y-81664819D01*
X127047619Y-82617200D02*
X127142857Y-82664819D01*
X127142857Y-82664819D02*
X127333333Y-82664819D01*
X127333333Y-82664819D02*
X127428571Y-82617200D01*
X127428571Y-82617200D02*
X127476190Y-82569580D01*
X127476190Y-82569580D02*
X127523809Y-82474342D01*
X127523809Y-82474342D02*
X127523809Y-82188628D01*
X127523809Y-82188628D02*
X127476190Y-82093390D01*
X127476190Y-82093390D02*
X127428571Y-82045771D01*
X127428571Y-82045771D02*
X127333333Y-81998152D01*
X127333333Y-81998152D02*
X127142857Y-81998152D01*
X127142857Y-81998152D02*
X127047619Y-82045771D01*
X126142857Y-82664819D02*
X126142857Y-82141009D01*
X126142857Y-82141009D02*
X126190476Y-82045771D01*
X126190476Y-82045771D02*
X126285714Y-81998152D01*
X126285714Y-81998152D02*
X126476190Y-81998152D01*
X126476190Y-81998152D02*
X126571428Y-82045771D01*
X126142857Y-82617200D02*
X126238095Y-82664819D01*
X126238095Y-82664819D02*
X126476190Y-82664819D01*
X126476190Y-82664819D02*
X126571428Y-82617200D01*
X126571428Y-82617200D02*
X126619047Y-82521961D01*
X126619047Y-82521961D02*
X126619047Y-82426723D01*
X126619047Y-82426723D02*
X126571428Y-82331485D01*
X126571428Y-82331485D02*
X126476190Y-82283866D01*
X126476190Y-82283866D02*
X126238095Y-82283866D01*
X126238095Y-82283866D02*
X126142857Y-82236247D01*
X125809523Y-81998152D02*
X125428571Y-81998152D01*
X125666666Y-81664819D02*
X125666666Y-82521961D01*
X125666666Y-82521961D02*
X125619047Y-82617200D01*
X125619047Y-82617200D02*
X125523809Y-82664819D01*
X125523809Y-82664819D02*
X125428571Y-82664819D01*
X124714285Y-82617200D02*
X124809523Y-82664819D01*
X124809523Y-82664819D02*
X124999999Y-82664819D01*
X124999999Y-82664819D02*
X125095237Y-82617200D01*
X125095237Y-82617200D02*
X125142856Y-82521961D01*
X125142856Y-82521961D02*
X125142856Y-82141009D01*
X125142856Y-82141009D02*
X125095237Y-82045771D01*
X125095237Y-82045771D02*
X124999999Y-81998152D01*
X124999999Y-81998152D02*
X124809523Y-81998152D01*
X124809523Y-81998152D02*
X124714285Y-82045771D01*
X124714285Y-82045771D02*
X124666666Y-82141009D01*
X124666666Y-82141009D02*
X124666666Y-82236247D01*
X124666666Y-82236247D02*
X125142856Y-82331485D01*
X128904762Y-84227200D02*
X129000000Y-84274819D01*
X129000000Y-84274819D02*
X129190476Y-84274819D01*
X129190476Y-84274819D02*
X129285714Y-84227200D01*
X129285714Y-84227200D02*
X129333333Y-84131961D01*
X129333333Y-84131961D02*
X129333333Y-83751009D01*
X129333333Y-83751009D02*
X129285714Y-83655771D01*
X129285714Y-83655771D02*
X129190476Y-83608152D01*
X129190476Y-83608152D02*
X129000000Y-83608152D01*
X129000000Y-83608152D02*
X128904762Y-83655771D01*
X128904762Y-83655771D02*
X128857143Y-83751009D01*
X128857143Y-83751009D02*
X128857143Y-83846247D01*
X128857143Y-83846247D02*
X129333333Y-83941485D01*
X128428571Y-83608152D02*
X128428571Y-84608152D01*
X128428571Y-83655771D02*
X128333333Y-83608152D01*
X128333333Y-83608152D02*
X128142857Y-83608152D01*
X128142857Y-83608152D02*
X128047619Y-83655771D01*
X128047619Y-83655771D02*
X128000000Y-83703390D01*
X128000000Y-83703390D02*
X127952381Y-83798628D01*
X127952381Y-83798628D02*
X127952381Y-84084342D01*
X127952381Y-84084342D02*
X128000000Y-84179580D01*
X128000000Y-84179580D02*
X128047619Y-84227200D01*
X128047619Y-84227200D02*
X128142857Y-84274819D01*
X128142857Y-84274819D02*
X128333333Y-84274819D01*
X128333333Y-84274819D02*
X128428571Y-84227200D01*
X127095238Y-84274819D02*
X127095238Y-83751009D01*
X127095238Y-83751009D02*
X127142857Y-83655771D01*
X127142857Y-83655771D02*
X127238095Y-83608152D01*
X127238095Y-83608152D02*
X127428571Y-83608152D01*
X127428571Y-83608152D02*
X127523809Y-83655771D01*
X127095238Y-84227200D02*
X127190476Y-84274819D01*
X127190476Y-84274819D02*
X127428571Y-84274819D01*
X127428571Y-84274819D02*
X127523809Y-84227200D01*
X127523809Y-84227200D02*
X127571428Y-84131961D01*
X127571428Y-84131961D02*
X127571428Y-84036723D01*
X127571428Y-84036723D02*
X127523809Y-83941485D01*
X127523809Y-83941485D02*
X127428571Y-83893866D01*
X127428571Y-83893866D02*
X127190476Y-83893866D01*
X127190476Y-83893866D02*
X127095238Y-83846247D01*
X126619047Y-83608152D02*
X126619047Y-84608152D01*
X126619047Y-83655771D02*
X126523809Y-83608152D01*
X126523809Y-83608152D02*
X126333333Y-83608152D01*
X126333333Y-83608152D02*
X126238095Y-83655771D01*
X126238095Y-83655771D02*
X126190476Y-83703390D01*
X126190476Y-83703390D02*
X126142857Y-83798628D01*
X126142857Y-83798628D02*
X126142857Y-84084342D01*
X126142857Y-84084342D02*
X126190476Y-84179580D01*
X126190476Y-84179580D02*
X126238095Y-84227200D01*
X126238095Y-84227200D02*
X126333333Y-84274819D01*
X126333333Y-84274819D02*
X126523809Y-84274819D01*
X126523809Y-84274819D02*
X126619047Y-84227200D01*
X125333333Y-84227200D02*
X125428571Y-84274819D01*
X125428571Y-84274819D02*
X125619047Y-84274819D01*
X125619047Y-84274819D02*
X125714285Y-84227200D01*
X125714285Y-84227200D02*
X125761904Y-84131961D01*
X125761904Y-84131961D02*
X125761904Y-83751009D01*
X125761904Y-83751009D02*
X125714285Y-83655771D01*
X125714285Y-83655771D02*
X125619047Y-83608152D01*
X125619047Y-83608152D02*
X125428571Y-83608152D01*
X125428571Y-83608152D02*
X125333333Y-83655771D01*
X125333333Y-83655771D02*
X125285714Y-83751009D01*
X125285714Y-83751009D02*
X125285714Y-83846247D01*
X125285714Y-83846247D02*
X125761904Y-83941485D01*
X124857142Y-84274819D02*
X124857142Y-83608152D01*
X124857142Y-83798628D02*
X124809523Y-83703390D01*
X124809523Y-83703390D02*
X124761904Y-83655771D01*
X124761904Y-83655771D02*
X124666666Y-83608152D01*
X124666666Y-83608152D02*
X124571428Y-83608152D01*
X128976190Y-85884819D02*
X128976190Y-84884819D01*
X128976190Y-85837200D02*
X129071428Y-85884819D01*
X129071428Y-85884819D02*
X129261904Y-85884819D01*
X129261904Y-85884819D02*
X129357142Y-85837200D01*
X129357142Y-85837200D02*
X129404761Y-85789580D01*
X129404761Y-85789580D02*
X129452380Y-85694342D01*
X129452380Y-85694342D02*
X129452380Y-85408628D01*
X129452380Y-85408628D02*
X129404761Y-85313390D01*
X129404761Y-85313390D02*
X129357142Y-85265771D01*
X129357142Y-85265771D02*
X129261904Y-85218152D01*
X129261904Y-85218152D02*
X129071428Y-85218152D01*
X129071428Y-85218152D02*
X128976190Y-85265771D01*
X128499999Y-85884819D02*
X128499999Y-85218152D01*
X128499999Y-84884819D02*
X128547618Y-84932438D01*
X128547618Y-84932438D02*
X128499999Y-84980057D01*
X128499999Y-84980057D02*
X128452380Y-84932438D01*
X128452380Y-84932438D02*
X128499999Y-84884819D01*
X128499999Y-84884819D02*
X128499999Y-84980057D01*
X128071428Y-85837200D02*
X127976190Y-85884819D01*
X127976190Y-85884819D02*
X127785714Y-85884819D01*
X127785714Y-85884819D02*
X127690476Y-85837200D01*
X127690476Y-85837200D02*
X127642857Y-85741961D01*
X127642857Y-85741961D02*
X127642857Y-85694342D01*
X127642857Y-85694342D02*
X127690476Y-85599104D01*
X127690476Y-85599104D02*
X127785714Y-85551485D01*
X127785714Y-85551485D02*
X127928571Y-85551485D01*
X127928571Y-85551485D02*
X128023809Y-85503866D01*
X128023809Y-85503866D02*
X128071428Y-85408628D01*
X128071428Y-85408628D02*
X128071428Y-85361009D01*
X128071428Y-85361009D02*
X128023809Y-85265771D01*
X128023809Y-85265771D02*
X127928571Y-85218152D01*
X127928571Y-85218152D02*
X127785714Y-85218152D01*
X127785714Y-85218152D02*
X127690476Y-85265771D01*
X127214285Y-85218152D02*
X127214285Y-86218152D01*
X127214285Y-85265771D02*
X127119047Y-85218152D01*
X127119047Y-85218152D02*
X126928571Y-85218152D01*
X126928571Y-85218152D02*
X126833333Y-85265771D01*
X126833333Y-85265771D02*
X126785714Y-85313390D01*
X126785714Y-85313390D02*
X126738095Y-85408628D01*
X126738095Y-85408628D02*
X126738095Y-85694342D01*
X126738095Y-85694342D02*
X126785714Y-85789580D01*
X126785714Y-85789580D02*
X126833333Y-85837200D01*
X126833333Y-85837200D02*
X126928571Y-85884819D01*
X126928571Y-85884819D02*
X127119047Y-85884819D01*
X127119047Y-85884819D02*
X127214285Y-85837200D01*
X126166666Y-85884819D02*
X126261904Y-85837200D01*
X126261904Y-85837200D02*
X126309523Y-85741961D01*
X126309523Y-85741961D02*
X126309523Y-84884819D01*
X125357142Y-85884819D02*
X125357142Y-85361009D01*
X125357142Y-85361009D02*
X125404761Y-85265771D01*
X125404761Y-85265771D02*
X125499999Y-85218152D01*
X125499999Y-85218152D02*
X125690475Y-85218152D01*
X125690475Y-85218152D02*
X125785713Y-85265771D01*
X125357142Y-85837200D02*
X125452380Y-85884819D01*
X125452380Y-85884819D02*
X125690475Y-85884819D01*
X125690475Y-85884819D02*
X125785713Y-85837200D01*
X125785713Y-85837200D02*
X125833332Y-85741961D01*
X125833332Y-85741961D02*
X125833332Y-85646723D01*
X125833332Y-85646723D02*
X125785713Y-85551485D01*
X125785713Y-85551485D02*
X125690475Y-85503866D01*
X125690475Y-85503866D02*
X125452380Y-85503866D01*
X125452380Y-85503866D02*
X125357142Y-85456247D01*
X124976189Y-85218152D02*
X124738094Y-85884819D01*
X124499999Y-85218152D02*
X124738094Y-85884819D01*
X124738094Y-85884819D02*
X124833332Y-86122914D01*
X124833332Y-86122914D02*
X124880951Y-86170533D01*
X124880951Y-86170533D02*
X124976189Y-86218152D01*
%TO.C,R3*%
X127454819Y-69940397D02*
X126978628Y-69607064D01*
X127454819Y-69368969D02*
X126454819Y-69368969D01*
X126454819Y-69368969D02*
X126454819Y-69749921D01*
X126454819Y-69749921D02*
X126502438Y-69845159D01*
X126502438Y-69845159D02*
X126550057Y-69892778D01*
X126550057Y-69892778D02*
X126645295Y-69940397D01*
X126645295Y-69940397D02*
X126788152Y-69940397D01*
X126788152Y-69940397D02*
X126883390Y-69892778D01*
X126883390Y-69892778D02*
X126931009Y-69845159D01*
X126931009Y-69845159D02*
X126978628Y-69749921D01*
X126978628Y-69749921D02*
X126978628Y-69368969D01*
X126454819Y-70273731D02*
X126454819Y-70892778D01*
X126454819Y-70892778D02*
X126835771Y-70559445D01*
X126835771Y-70559445D02*
X126835771Y-70702302D01*
X126835771Y-70702302D02*
X126883390Y-70797540D01*
X126883390Y-70797540D02*
X126931009Y-70845159D01*
X126931009Y-70845159D02*
X127026247Y-70892778D01*
X127026247Y-70892778D02*
X127264342Y-70892778D01*
X127264342Y-70892778D02*
X127359580Y-70845159D01*
X127359580Y-70845159D02*
X127407200Y-70797540D01*
X127407200Y-70797540D02*
X127454819Y-70702302D01*
X127454819Y-70702302D02*
X127454819Y-70416588D01*
X127454819Y-70416588D02*
X127407200Y-70321350D01*
X127407200Y-70321350D02*
X127359580Y-70273731D01*
%TO.C,R11*%
X119834819Y-90797142D02*
X119358628Y-90463809D01*
X119834819Y-90225714D02*
X118834819Y-90225714D01*
X118834819Y-90225714D02*
X118834819Y-90606666D01*
X118834819Y-90606666D02*
X118882438Y-90701904D01*
X118882438Y-90701904D02*
X118930057Y-90749523D01*
X118930057Y-90749523D02*
X119025295Y-90797142D01*
X119025295Y-90797142D02*
X119168152Y-90797142D01*
X119168152Y-90797142D02*
X119263390Y-90749523D01*
X119263390Y-90749523D02*
X119311009Y-90701904D01*
X119311009Y-90701904D02*
X119358628Y-90606666D01*
X119358628Y-90606666D02*
X119358628Y-90225714D01*
X119834819Y-91749523D02*
X119834819Y-91178095D01*
X119834819Y-91463809D02*
X118834819Y-91463809D01*
X118834819Y-91463809D02*
X118977676Y-91368571D01*
X118977676Y-91368571D02*
X119072914Y-91273333D01*
X119072914Y-91273333D02*
X119120533Y-91178095D01*
X119834819Y-92701904D02*
X119834819Y-92130476D01*
X119834819Y-92416190D02*
X118834819Y-92416190D01*
X118834819Y-92416190D02*
X118977676Y-92320952D01*
X118977676Y-92320952D02*
X119072914Y-92225714D01*
X119072914Y-92225714D02*
X119120533Y-92130476D01*
%TO.C,TP4*%
X85081904Y-81626819D02*
X84510476Y-81626819D01*
X84796190Y-82626819D02*
X84796190Y-81626819D01*
X84177142Y-82626819D02*
X84177142Y-81626819D01*
X84177142Y-81626819D02*
X83796190Y-81626819D01*
X83796190Y-81626819D02*
X83700952Y-81674438D01*
X83700952Y-81674438D02*
X83653333Y-81722057D01*
X83653333Y-81722057D02*
X83605714Y-81817295D01*
X83605714Y-81817295D02*
X83605714Y-81960152D01*
X83605714Y-81960152D02*
X83653333Y-82055390D01*
X83653333Y-82055390D02*
X83700952Y-82103009D01*
X83700952Y-82103009D02*
X83796190Y-82150628D01*
X83796190Y-82150628D02*
X84177142Y-82150628D01*
X82748571Y-81960152D02*
X82748571Y-82626819D01*
X82986666Y-81579200D02*
X83224761Y-82293485D01*
X83224761Y-82293485D02*
X82605714Y-82293485D01*
%TO.C,TP7*%
X62221904Y-98514819D02*
X61650476Y-98514819D01*
X61936190Y-99514819D02*
X61936190Y-98514819D01*
X61317142Y-99514819D02*
X61317142Y-98514819D01*
X61317142Y-98514819D02*
X60936190Y-98514819D01*
X60936190Y-98514819D02*
X60840952Y-98562438D01*
X60840952Y-98562438D02*
X60793333Y-98610057D01*
X60793333Y-98610057D02*
X60745714Y-98705295D01*
X60745714Y-98705295D02*
X60745714Y-98848152D01*
X60745714Y-98848152D02*
X60793333Y-98943390D01*
X60793333Y-98943390D02*
X60840952Y-98991009D01*
X60840952Y-98991009D02*
X60936190Y-99038628D01*
X60936190Y-99038628D02*
X61317142Y-99038628D01*
X60412380Y-98514819D02*
X59745714Y-98514819D01*
X59745714Y-98514819D02*
X60174285Y-99514819D01*
%TO.C,TP9*%
X123181904Y-65494819D02*
X122610476Y-65494819D01*
X122896190Y-66494819D02*
X122896190Y-65494819D01*
X122277142Y-66494819D02*
X122277142Y-65494819D01*
X122277142Y-65494819D02*
X121896190Y-65494819D01*
X121896190Y-65494819D02*
X121800952Y-65542438D01*
X121800952Y-65542438D02*
X121753333Y-65590057D01*
X121753333Y-65590057D02*
X121705714Y-65685295D01*
X121705714Y-65685295D02*
X121705714Y-65828152D01*
X121705714Y-65828152D02*
X121753333Y-65923390D01*
X121753333Y-65923390D02*
X121800952Y-65971009D01*
X121800952Y-65971009D02*
X121896190Y-66018628D01*
X121896190Y-66018628D02*
X122277142Y-66018628D01*
X121229523Y-66494819D02*
X121039047Y-66494819D01*
X121039047Y-66494819D02*
X120943809Y-66447200D01*
X120943809Y-66447200D02*
X120896190Y-66399580D01*
X120896190Y-66399580D02*
X120800952Y-66256723D01*
X120800952Y-66256723D02*
X120753333Y-66066247D01*
X120753333Y-66066247D02*
X120753333Y-65685295D01*
X120753333Y-65685295D02*
X120800952Y-65590057D01*
X120800952Y-65590057D02*
X120848571Y-65542438D01*
X120848571Y-65542438D02*
X120943809Y-65494819D01*
X120943809Y-65494819D02*
X121134285Y-65494819D01*
X121134285Y-65494819D02*
X121229523Y-65542438D01*
X121229523Y-65542438D02*
X121277142Y-65590057D01*
X121277142Y-65590057D02*
X121324761Y-65685295D01*
X121324761Y-65685295D02*
X121324761Y-65923390D01*
X121324761Y-65923390D02*
X121277142Y-66018628D01*
X121277142Y-66018628D02*
X121229523Y-66066247D01*
X121229523Y-66066247D02*
X121134285Y-66113866D01*
X121134285Y-66113866D02*
X120943809Y-66113866D01*
X120943809Y-66113866D02*
X120848571Y-66066247D01*
X120848571Y-66066247D02*
X120800952Y-66018628D01*
X120800952Y-66018628D02*
X120753333Y-65923390D01*
%TO.C,C41*%
X94452857Y-82102080D02*
X94500476Y-82149700D01*
X94500476Y-82149700D02*
X94643333Y-82197319D01*
X94643333Y-82197319D02*
X94738571Y-82197319D01*
X94738571Y-82197319D02*
X94881428Y-82149700D01*
X94881428Y-82149700D02*
X94976666Y-82054461D01*
X94976666Y-82054461D02*
X95024285Y-81959223D01*
X95024285Y-81959223D02*
X95071904Y-81768747D01*
X95071904Y-81768747D02*
X95071904Y-81625890D01*
X95071904Y-81625890D02*
X95024285Y-81435414D01*
X95024285Y-81435414D02*
X94976666Y-81340176D01*
X94976666Y-81340176D02*
X94881428Y-81244938D01*
X94881428Y-81244938D02*
X94738571Y-81197319D01*
X94738571Y-81197319D02*
X94643333Y-81197319D01*
X94643333Y-81197319D02*
X94500476Y-81244938D01*
X94500476Y-81244938D02*
X94452857Y-81292557D01*
X93595714Y-81530652D02*
X93595714Y-82197319D01*
X93833809Y-81149700D02*
X94071904Y-81863985D01*
X94071904Y-81863985D02*
X93452857Y-81863985D01*
X92548095Y-82197319D02*
X93119523Y-82197319D01*
X92833809Y-82197319D02*
X92833809Y-81197319D01*
X92833809Y-81197319D02*
X92929047Y-81340176D01*
X92929047Y-81340176D02*
X93024285Y-81435414D01*
X93024285Y-81435414D02*
X93119523Y-81483033D01*
%TO.C,C1*%
X53506666Y-102959580D02*
X53554285Y-103007200D01*
X53554285Y-103007200D02*
X53697142Y-103054819D01*
X53697142Y-103054819D02*
X53792380Y-103054819D01*
X53792380Y-103054819D02*
X53935237Y-103007200D01*
X53935237Y-103007200D02*
X54030475Y-102911961D01*
X54030475Y-102911961D02*
X54078094Y-102816723D01*
X54078094Y-102816723D02*
X54125713Y-102626247D01*
X54125713Y-102626247D02*
X54125713Y-102483390D01*
X54125713Y-102483390D02*
X54078094Y-102292914D01*
X54078094Y-102292914D02*
X54030475Y-102197676D01*
X54030475Y-102197676D02*
X53935237Y-102102438D01*
X53935237Y-102102438D02*
X53792380Y-102054819D01*
X53792380Y-102054819D02*
X53697142Y-102054819D01*
X53697142Y-102054819D02*
X53554285Y-102102438D01*
X53554285Y-102102438D02*
X53506666Y-102150057D01*
X52554285Y-103054819D02*
X53125713Y-103054819D01*
X52839999Y-103054819D02*
X52839999Y-102054819D01*
X52839999Y-102054819D02*
X52935237Y-102197676D01*
X52935237Y-102197676D02*
X53030475Y-102292914D01*
X53030475Y-102292914D02*
X53125713Y-102340533D01*
%TO.C,C4*%
X160186666Y-104699580D02*
X160234285Y-104747200D01*
X160234285Y-104747200D02*
X160377142Y-104794819D01*
X160377142Y-104794819D02*
X160472380Y-104794819D01*
X160472380Y-104794819D02*
X160615237Y-104747200D01*
X160615237Y-104747200D02*
X160710475Y-104651961D01*
X160710475Y-104651961D02*
X160758094Y-104556723D01*
X160758094Y-104556723D02*
X160805713Y-104366247D01*
X160805713Y-104366247D02*
X160805713Y-104223390D01*
X160805713Y-104223390D02*
X160758094Y-104032914D01*
X160758094Y-104032914D02*
X160710475Y-103937676D01*
X160710475Y-103937676D02*
X160615237Y-103842438D01*
X160615237Y-103842438D02*
X160472380Y-103794819D01*
X160472380Y-103794819D02*
X160377142Y-103794819D01*
X160377142Y-103794819D02*
X160234285Y-103842438D01*
X160234285Y-103842438D02*
X160186666Y-103890057D01*
X159329523Y-104128152D02*
X159329523Y-104794819D01*
X159567618Y-103747200D02*
X159805713Y-104461485D01*
X159805713Y-104461485D02*
X159186666Y-104461485D01*
%TO.C,TP11*%
X133818094Y-75654819D02*
X133246666Y-75654819D01*
X133532380Y-76654819D02*
X133532380Y-75654819D01*
X132913332Y-76654819D02*
X132913332Y-75654819D01*
X132913332Y-75654819D02*
X132532380Y-75654819D01*
X132532380Y-75654819D02*
X132437142Y-75702438D01*
X132437142Y-75702438D02*
X132389523Y-75750057D01*
X132389523Y-75750057D02*
X132341904Y-75845295D01*
X132341904Y-75845295D02*
X132341904Y-75988152D01*
X132341904Y-75988152D02*
X132389523Y-76083390D01*
X132389523Y-76083390D02*
X132437142Y-76131009D01*
X132437142Y-76131009D02*
X132532380Y-76178628D01*
X132532380Y-76178628D02*
X132913332Y-76178628D01*
X131389523Y-76654819D02*
X131960951Y-76654819D01*
X131675237Y-76654819D02*
X131675237Y-75654819D01*
X131675237Y-75654819D02*
X131770475Y-75797676D01*
X131770475Y-75797676D02*
X131865713Y-75892914D01*
X131865713Y-75892914D02*
X131960951Y-75940533D01*
X130437142Y-76654819D02*
X131008570Y-76654819D01*
X130722856Y-76654819D02*
X130722856Y-75654819D01*
X130722856Y-75654819D02*
X130818094Y-75797676D01*
X130818094Y-75797676D02*
X130913332Y-75892914D01*
X130913332Y-75892914D02*
X131008570Y-75940533D01*
%TO.C,TP19*%
X151598094Y-96866819D02*
X151026666Y-96866819D01*
X151312380Y-97866819D02*
X151312380Y-96866819D01*
X150693332Y-97866819D02*
X150693332Y-96866819D01*
X150693332Y-96866819D02*
X150312380Y-96866819D01*
X150312380Y-96866819D02*
X150217142Y-96914438D01*
X150217142Y-96914438D02*
X150169523Y-96962057D01*
X150169523Y-96962057D02*
X150121904Y-97057295D01*
X150121904Y-97057295D02*
X150121904Y-97200152D01*
X150121904Y-97200152D02*
X150169523Y-97295390D01*
X150169523Y-97295390D02*
X150217142Y-97343009D01*
X150217142Y-97343009D02*
X150312380Y-97390628D01*
X150312380Y-97390628D02*
X150693332Y-97390628D01*
X149169523Y-97866819D02*
X149740951Y-97866819D01*
X149455237Y-97866819D02*
X149455237Y-96866819D01*
X149455237Y-96866819D02*
X149550475Y-97009676D01*
X149550475Y-97009676D02*
X149645713Y-97104914D01*
X149645713Y-97104914D02*
X149740951Y-97152533D01*
X148693332Y-97866819D02*
X148502856Y-97866819D01*
X148502856Y-97866819D02*
X148407618Y-97819200D01*
X148407618Y-97819200D02*
X148359999Y-97771580D01*
X148359999Y-97771580D02*
X148264761Y-97628723D01*
X148264761Y-97628723D02*
X148217142Y-97438247D01*
X148217142Y-97438247D02*
X148217142Y-97057295D01*
X148217142Y-97057295D02*
X148264761Y-96962057D01*
X148264761Y-96962057D02*
X148312380Y-96914438D01*
X148312380Y-96914438D02*
X148407618Y-96866819D01*
X148407618Y-96866819D02*
X148598094Y-96866819D01*
X148598094Y-96866819D02*
X148693332Y-96914438D01*
X148693332Y-96914438D02*
X148740951Y-96962057D01*
X148740951Y-96962057D02*
X148788570Y-97057295D01*
X148788570Y-97057295D02*
X148788570Y-97295390D01*
X148788570Y-97295390D02*
X148740951Y-97390628D01*
X148740951Y-97390628D02*
X148693332Y-97438247D01*
X148693332Y-97438247D02*
X148598094Y-97485866D01*
X148598094Y-97485866D02*
X148407618Y-97485866D01*
X148407618Y-97485866D02*
X148312380Y-97438247D01*
X148312380Y-97438247D02*
X148264761Y-97390628D01*
X148264761Y-97390628D02*
X148217142Y-97295390D01*
%TO.C,R2*%
X130571666Y-62752926D02*
X130904999Y-62276735D01*
X131143094Y-62752926D02*
X131143094Y-61752926D01*
X131143094Y-61752926D02*
X130762142Y-61752926D01*
X130762142Y-61752926D02*
X130666904Y-61800545D01*
X130666904Y-61800545D02*
X130619285Y-61848164D01*
X130619285Y-61848164D02*
X130571666Y-61943402D01*
X130571666Y-61943402D02*
X130571666Y-62086259D01*
X130571666Y-62086259D02*
X130619285Y-62181497D01*
X130619285Y-62181497D02*
X130666904Y-62229116D01*
X130666904Y-62229116D02*
X130762142Y-62276735D01*
X130762142Y-62276735D02*
X131143094Y-62276735D01*
X130190713Y-61848164D02*
X130143094Y-61800545D01*
X130143094Y-61800545D02*
X130047856Y-61752926D01*
X130047856Y-61752926D02*
X129809761Y-61752926D01*
X129809761Y-61752926D02*
X129714523Y-61800545D01*
X129714523Y-61800545D02*
X129666904Y-61848164D01*
X129666904Y-61848164D02*
X129619285Y-61943402D01*
X129619285Y-61943402D02*
X129619285Y-62038640D01*
X129619285Y-62038640D02*
X129666904Y-62181497D01*
X129666904Y-62181497D02*
X130238332Y-62752926D01*
X130238332Y-62752926D02*
X129619285Y-62752926D01*
%TO.C,TP10*%
X123658094Y-70574819D02*
X123086666Y-70574819D01*
X123372380Y-71574819D02*
X123372380Y-70574819D01*
X122753332Y-71574819D02*
X122753332Y-70574819D01*
X122753332Y-70574819D02*
X122372380Y-70574819D01*
X122372380Y-70574819D02*
X122277142Y-70622438D01*
X122277142Y-70622438D02*
X122229523Y-70670057D01*
X122229523Y-70670057D02*
X122181904Y-70765295D01*
X122181904Y-70765295D02*
X122181904Y-70908152D01*
X122181904Y-70908152D02*
X122229523Y-71003390D01*
X122229523Y-71003390D02*
X122277142Y-71051009D01*
X122277142Y-71051009D02*
X122372380Y-71098628D01*
X122372380Y-71098628D02*
X122753332Y-71098628D01*
X121229523Y-71574819D02*
X121800951Y-71574819D01*
X121515237Y-71574819D02*
X121515237Y-70574819D01*
X121515237Y-70574819D02*
X121610475Y-70717676D01*
X121610475Y-70717676D02*
X121705713Y-70812914D01*
X121705713Y-70812914D02*
X121800951Y-70860533D01*
X120610475Y-70574819D02*
X120515237Y-70574819D01*
X120515237Y-70574819D02*
X120419999Y-70622438D01*
X120419999Y-70622438D02*
X120372380Y-70670057D01*
X120372380Y-70670057D02*
X120324761Y-70765295D01*
X120324761Y-70765295D02*
X120277142Y-70955771D01*
X120277142Y-70955771D02*
X120277142Y-71193866D01*
X120277142Y-71193866D02*
X120324761Y-71384342D01*
X120324761Y-71384342D02*
X120372380Y-71479580D01*
X120372380Y-71479580D02*
X120419999Y-71527200D01*
X120419999Y-71527200D02*
X120515237Y-71574819D01*
X120515237Y-71574819D02*
X120610475Y-71574819D01*
X120610475Y-71574819D02*
X120705713Y-71527200D01*
X120705713Y-71527200D02*
X120753332Y-71479580D01*
X120753332Y-71479580D02*
X120800951Y-71384342D01*
X120800951Y-71384342D02*
X120848570Y-71193866D01*
X120848570Y-71193866D02*
X120848570Y-70955771D01*
X120848570Y-70955771D02*
X120800951Y-70765295D01*
X120800951Y-70765295D02*
X120753332Y-70670057D01*
X120753332Y-70670057D02*
X120705713Y-70622438D01*
X120705713Y-70622438D02*
X120610475Y-70574819D01*
%TO.C,TP18*%
X146518094Y-96866819D02*
X145946666Y-96866819D01*
X146232380Y-97866819D02*
X146232380Y-96866819D01*
X145613332Y-97866819D02*
X145613332Y-96866819D01*
X145613332Y-96866819D02*
X145232380Y-96866819D01*
X145232380Y-96866819D02*
X145137142Y-96914438D01*
X145137142Y-96914438D02*
X145089523Y-96962057D01*
X145089523Y-96962057D02*
X145041904Y-97057295D01*
X145041904Y-97057295D02*
X145041904Y-97200152D01*
X145041904Y-97200152D02*
X145089523Y-97295390D01*
X145089523Y-97295390D02*
X145137142Y-97343009D01*
X145137142Y-97343009D02*
X145232380Y-97390628D01*
X145232380Y-97390628D02*
X145613332Y-97390628D01*
X144089523Y-97866819D02*
X144660951Y-97866819D01*
X144375237Y-97866819D02*
X144375237Y-96866819D01*
X144375237Y-96866819D02*
X144470475Y-97009676D01*
X144470475Y-97009676D02*
X144565713Y-97104914D01*
X144565713Y-97104914D02*
X144660951Y-97152533D01*
X143518094Y-97295390D02*
X143613332Y-97247771D01*
X143613332Y-97247771D02*
X143660951Y-97200152D01*
X143660951Y-97200152D02*
X143708570Y-97104914D01*
X143708570Y-97104914D02*
X143708570Y-97057295D01*
X143708570Y-97057295D02*
X143660951Y-96962057D01*
X143660951Y-96962057D02*
X143613332Y-96914438D01*
X143613332Y-96914438D02*
X143518094Y-96866819D01*
X143518094Y-96866819D02*
X143327618Y-96866819D01*
X143327618Y-96866819D02*
X143232380Y-96914438D01*
X143232380Y-96914438D02*
X143184761Y-96962057D01*
X143184761Y-96962057D02*
X143137142Y-97057295D01*
X143137142Y-97057295D02*
X143137142Y-97104914D01*
X143137142Y-97104914D02*
X143184761Y-97200152D01*
X143184761Y-97200152D02*
X143232380Y-97247771D01*
X143232380Y-97247771D02*
X143327618Y-97295390D01*
X143327618Y-97295390D02*
X143518094Y-97295390D01*
X143518094Y-97295390D02*
X143613332Y-97343009D01*
X143613332Y-97343009D02*
X143660951Y-97390628D01*
X143660951Y-97390628D02*
X143708570Y-97485866D01*
X143708570Y-97485866D02*
X143708570Y-97676342D01*
X143708570Y-97676342D02*
X143660951Y-97771580D01*
X143660951Y-97771580D02*
X143613332Y-97819200D01*
X143613332Y-97819200D02*
X143518094Y-97866819D01*
X143518094Y-97866819D02*
X143327618Y-97866819D01*
X143327618Y-97866819D02*
X143232380Y-97819200D01*
X143232380Y-97819200D02*
X143184761Y-97771580D01*
X143184761Y-97771580D02*
X143137142Y-97676342D01*
X143137142Y-97676342D02*
X143137142Y-97485866D01*
X143137142Y-97485866D02*
X143184761Y-97390628D01*
X143184761Y-97390628D02*
X143232380Y-97343009D01*
X143232380Y-97343009D02*
X143327618Y-97295390D01*
%TO.C,TP16*%
X118578094Y-91786819D02*
X118006666Y-91786819D01*
X118292380Y-92786819D02*
X118292380Y-91786819D01*
X117673332Y-92786819D02*
X117673332Y-91786819D01*
X117673332Y-91786819D02*
X117292380Y-91786819D01*
X117292380Y-91786819D02*
X117197142Y-91834438D01*
X117197142Y-91834438D02*
X117149523Y-91882057D01*
X117149523Y-91882057D02*
X117101904Y-91977295D01*
X117101904Y-91977295D02*
X117101904Y-92120152D01*
X117101904Y-92120152D02*
X117149523Y-92215390D01*
X117149523Y-92215390D02*
X117197142Y-92263009D01*
X117197142Y-92263009D02*
X117292380Y-92310628D01*
X117292380Y-92310628D02*
X117673332Y-92310628D01*
X116149523Y-92786819D02*
X116720951Y-92786819D01*
X116435237Y-92786819D02*
X116435237Y-91786819D01*
X116435237Y-91786819D02*
X116530475Y-91929676D01*
X116530475Y-91929676D02*
X116625713Y-92024914D01*
X116625713Y-92024914D02*
X116720951Y-92072533D01*
X115292380Y-91786819D02*
X115482856Y-91786819D01*
X115482856Y-91786819D02*
X115578094Y-91834438D01*
X115578094Y-91834438D02*
X115625713Y-91882057D01*
X115625713Y-91882057D02*
X115720951Y-92024914D01*
X115720951Y-92024914D02*
X115768570Y-92215390D01*
X115768570Y-92215390D02*
X115768570Y-92596342D01*
X115768570Y-92596342D02*
X115720951Y-92691580D01*
X115720951Y-92691580D02*
X115673332Y-92739200D01*
X115673332Y-92739200D02*
X115578094Y-92786819D01*
X115578094Y-92786819D02*
X115387618Y-92786819D01*
X115387618Y-92786819D02*
X115292380Y-92739200D01*
X115292380Y-92739200D02*
X115244761Y-92691580D01*
X115244761Y-92691580D02*
X115197142Y-92596342D01*
X115197142Y-92596342D02*
X115197142Y-92358247D01*
X115197142Y-92358247D02*
X115244761Y-92263009D01*
X115244761Y-92263009D02*
X115292380Y-92215390D01*
X115292380Y-92215390D02*
X115387618Y-92167771D01*
X115387618Y-92167771D02*
X115578094Y-92167771D01*
X115578094Y-92167771D02*
X115673332Y-92215390D01*
X115673332Y-92215390D02*
X115720951Y-92263009D01*
X115720951Y-92263009D02*
X115768570Y-92358247D01*
%TO.C,BT1*%
X104105223Y-75414285D02*
X104152842Y-75557142D01*
X104152842Y-75557142D02*
X104200461Y-75604761D01*
X104200461Y-75604761D02*
X104295699Y-75652380D01*
X104295699Y-75652380D02*
X104438556Y-75652380D01*
X104438556Y-75652380D02*
X104533794Y-75604761D01*
X104533794Y-75604761D02*
X104581414Y-75557142D01*
X104581414Y-75557142D02*
X104629033Y-75461904D01*
X104629033Y-75461904D02*
X104629033Y-75080952D01*
X104629033Y-75080952D02*
X103629033Y-75080952D01*
X103629033Y-75080952D02*
X103629033Y-75414285D01*
X103629033Y-75414285D02*
X103676652Y-75509523D01*
X103676652Y-75509523D02*
X103724271Y-75557142D01*
X103724271Y-75557142D02*
X103819509Y-75604761D01*
X103819509Y-75604761D02*
X103914747Y-75604761D01*
X103914747Y-75604761D02*
X104009985Y-75557142D01*
X104009985Y-75557142D02*
X104057604Y-75509523D01*
X104057604Y-75509523D02*
X104105223Y-75414285D01*
X104105223Y-75414285D02*
X104105223Y-75080952D01*
X103629033Y-75938095D02*
X103629033Y-76509523D01*
X104629033Y-76223809D02*
X103629033Y-76223809D01*
X104629033Y-77366666D02*
X104629033Y-76795238D01*
X104629033Y-77080952D02*
X103629033Y-77080952D01*
X103629033Y-77080952D02*
X103771890Y-76985714D01*
X103771890Y-76985714D02*
X103867128Y-76890476D01*
X103867128Y-76890476D02*
X103914747Y-76795238D01*
%TO.C,C2*%
X117006666Y-64209580D02*
X117054285Y-64257200D01*
X117054285Y-64257200D02*
X117197142Y-64304819D01*
X117197142Y-64304819D02*
X117292380Y-64304819D01*
X117292380Y-64304819D02*
X117435237Y-64257200D01*
X117435237Y-64257200D02*
X117530475Y-64161961D01*
X117530475Y-64161961D02*
X117578094Y-64066723D01*
X117578094Y-64066723D02*
X117625713Y-63876247D01*
X117625713Y-63876247D02*
X117625713Y-63733390D01*
X117625713Y-63733390D02*
X117578094Y-63542914D01*
X117578094Y-63542914D02*
X117530475Y-63447676D01*
X117530475Y-63447676D02*
X117435237Y-63352438D01*
X117435237Y-63352438D02*
X117292380Y-63304819D01*
X117292380Y-63304819D02*
X117197142Y-63304819D01*
X117197142Y-63304819D02*
X117054285Y-63352438D01*
X117054285Y-63352438D02*
X117006666Y-63400057D01*
X116625713Y-63400057D02*
X116578094Y-63352438D01*
X116578094Y-63352438D02*
X116482856Y-63304819D01*
X116482856Y-63304819D02*
X116244761Y-63304819D01*
X116244761Y-63304819D02*
X116149523Y-63352438D01*
X116149523Y-63352438D02*
X116101904Y-63400057D01*
X116101904Y-63400057D02*
X116054285Y-63495295D01*
X116054285Y-63495295D02*
X116054285Y-63590533D01*
X116054285Y-63590533D02*
X116101904Y-63733390D01*
X116101904Y-63733390D02*
X116673332Y-64304819D01*
X116673332Y-64304819D02*
X116054285Y-64304819D01*
%TO.C,SW1*%
X99977200Y-69746667D02*
X100024819Y-69889524D01*
X100024819Y-69889524D02*
X100024819Y-70127619D01*
X100024819Y-70127619D02*
X99977200Y-70222857D01*
X99977200Y-70222857D02*
X99929580Y-70270476D01*
X99929580Y-70270476D02*
X99834342Y-70318095D01*
X99834342Y-70318095D02*
X99739104Y-70318095D01*
X99739104Y-70318095D02*
X99643866Y-70270476D01*
X99643866Y-70270476D02*
X99596247Y-70222857D01*
X99596247Y-70222857D02*
X99548628Y-70127619D01*
X99548628Y-70127619D02*
X99501009Y-69937143D01*
X99501009Y-69937143D02*
X99453390Y-69841905D01*
X99453390Y-69841905D02*
X99405771Y-69794286D01*
X99405771Y-69794286D02*
X99310533Y-69746667D01*
X99310533Y-69746667D02*
X99215295Y-69746667D01*
X99215295Y-69746667D02*
X99120057Y-69794286D01*
X99120057Y-69794286D02*
X99072438Y-69841905D01*
X99072438Y-69841905D02*
X99024819Y-69937143D01*
X99024819Y-69937143D02*
X99024819Y-70175238D01*
X99024819Y-70175238D02*
X99072438Y-70318095D01*
X99024819Y-70651429D02*
X100024819Y-70889524D01*
X100024819Y-70889524D02*
X99310533Y-71080000D01*
X99310533Y-71080000D02*
X100024819Y-71270476D01*
X100024819Y-71270476D02*
X99024819Y-71508572D01*
X100024819Y-72413333D02*
X100024819Y-71841905D01*
X100024819Y-72127619D02*
X99024819Y-72127619D01*
X99024819Y-72127619D02*
X99167676Y-72032381D01*
X99167676Y-72032381D02*
X99262914Y-71937143D01*
X99262914Y-71937143D02*
X99310533Y-71841905D01*
%TO.C,R6*%
X195606666Y-79154819D02*
X195939999Y-78678628D01*
X196178094Y-79154819D02*
X196178094Y-78154819D01*
X196178094Y-78154819D02*
X195797142Y-78154819D01*
X195797142Y-78154819D02*
X195701904Y-78202438D01*
X195701904Y-78202438D02*
X195654285Y-78250057D01*
X195654285Y-78250057D02*
X195606666Y-78345295D01*
X195606666Y-78345295D02*
X195606666Y-78488152D01*
X195606666Y-78488152D02*
X195654285Y-78583390D01*
X195654285Y-78583390D02*
X195701904Y-78631009D01*
X195701904Y-78631009D02*
X195797142Y-78678628D01*
X195797142Y-78678628D02*
X196178094Y-78678628D01*
X194749523Y-78154819D02*
X194939999Y-78154819D01*
X194939999Y-78154819D02*
X195035237Y-78202438D01*
X195035237Y-78202438D02*
X195082856Y-78250057D01*
X195082856Y-78250057D02*
X195178094Y-78392914D01*
X195178094Y-78392914D02*
X195225713Y-78583390D01*
X195225713Y-78583390D02*
X195225713Y-78964342D01*
X195225713Y-78964342D02*
X195178094Y-79059580D01*
X195178094Y-79059580D02*
X195130475Y-79107200D01*
X195130475Y-79107200D02*
X195035237Y-79154819D01*
X195035237Y-79154819D02*
X194844761Y-79154819D01*
X194844761Y-79154819D02*
X194749523Y-79107200D01*
X194749523Y-79107200D02*
X194701904Y-79059580D01*
X194701904Y-79059580D02*
X194654285Y-78964342D01*
X194654285Y-78964342D02*
X194654285Y-78726247D01*
X194654285Y-78726247D02*
X194701904Y-78631009D01*
X194701904Y-78631009D02*
X194749523Y-78583390D01*
X194749523Y-78583390D02*
X194844761Y-78535771D01*
X194844761Y-78535771D02*
X195035237Y-78535771D01*
X195035237Y-78535771D02*
X195130475Y-78583390D01*
X195130475Y-78583390D02*
X195178094Y-78631009D01*
X195178094Y-78631009D02*
X195225713Y-78726247D01*
D11*
%TO.C,CC*%
X173139047Y-64696498D02*
X173243809Y-64801260D01*
X173243809Y-64801260D02*
X173558095Y-64906021D01*
X173558095Y-64906021D02*
X173767619Y-64906021D01*
X173767619Y-64906021D02*
X174081904Y-64801260D01*
X174081904Y-64801260D02*
X174291428Y-64591736D01*
X174291428Y-64591736D02*
X174396190Y-64382212D01*
X174396190Y-64382212D02*
X174500952Y-63963164D01*
X174500952Y-63963164D02*
X174500952Y-63648879D01*
X174500952Y-63648879D02*
X174396190Y-63229831D01*
X174396190Y-63229831D02*
X174291428Y-63020307D01*
X174291428Y-63020307D02*
X174081904Y-62810783D01*
X174081904Y-62810783D02*
X173767619Y-62706021D01*
X173767619Y-62706021D02*
X173558095Y-62706021D01*
X173558095Y-62706021D02*
X173243809Y-62810783D01*
X173243809Y-62810783D02*
X173139047Y-62915545D01*
X170939047Y-64696498D02*
X171043809Y-64801260D01*
X171043809Y-64801260D02*
X171358095Y-64906021D01*
X171358095Y-64906021D02*
X171567619Y-64906021D01*
X171567619Y-64906021D02*
X171881904Y-64801260D01*
X171881904Y-64801260D02*
X172091428Y-64591736D01*
X172091428Y-64591736D02*
X172196190Y-64382212D01*
X172196190Y-64382212D02*
X172300952Y-63963164D01*
X172300952Y-63963164D02*
X172300952Y-63648879D01*
X172300952Y-63648879D02*
X172196190Y-63229831D01*
X172196190Y-63229831D02*
X172091428Y-63020307D01*
X172091428Y-63020307D02*
X171881904Y-62810783D01*
X171881904Y-62810783D02*
X171567619Y-62706021D01*
X171567619Y-62706021D02*
X171358095Y-62706021D01*
X171358095Y-62706021D02*
X171043809Y-62810783D01*
X171043809Y-62810783D02*
X170939047Y-62915545D01*
D10*
%TO.C,TP5*%
X85081904Y-85696819D02*
X84510476Y-85696819D01*
X84796190Y-86696819D02*
X84796190Y-85696819D01*
X84177142Y-86696819D02*
X84177142Y-85696819D01*
X84177142Y-85696819D02*
X83796190Y-85696819D01*
X83796190Y-85696819D02*
X83700952Y-85744438D01*
X83700952Y-85744438D02*
X83653333Y-85792057D01*
X83653333Y-85792057D02*
X83605714Y-85887295D01*
X83605714Y-85887295D02*
X83605714Y-86030152D01*
X83605714Y-86030152D02*
X83653333Y-86125390D01*
X83653333Y-86125390D02*
X83700952Y-86173009D01*
X83700952Y-86173009D02*
X83796190Y-86220628D01*
X83796190Y-86220628D02*
X84177142Y-86220628D01*
X82700952Y-85696819D02*
X83177142Y-85696819D01*
X83177142Y-85696819D02*
X83224761Y-86173009D01*
X83224761Y-86173009D02*
X83177142Y-86125390D01*
X83177142Y-86125390D02*
X83081904Y-86077771D01*
X83081904Y-86077771D02*
X82843809Y-86077771D01*
X82843809Y-86077771D02*
X82748571Y-86125390D01*
X82748571Y-86125390D02*
X82700952Y-86173009D01*
X82700952Y-86173009D02*
X82653333Y-86268247D01*
X82653333Y-86268247D02*
X82653333Y-86506342D01*
X82653333Y-86506342D02*
X82700952Y-86601580D01*
X82700952Y-86601580D02*
X82748571Y-86649200D01*
X82748571Y-86649200D02*
X82843809Y-86696819D01*
X82843809Y-86696819D02*
X83081904Y-86696819D01*
X83081904Y-86696819D02*
X83177142Y-86649200D01*
X83177142Y-86649200D02*
X83224761Y-86601580D01*
%TO.C,TP3*%
X97781904Y-84166819D02*
X97210476Y-84166819D01*
X97496190Y-85166819D02*
X97496190Y-84166819D01*
X96877142Y-85166819D02*
X96877142Y-84166819D01*
X96877142Y-84166819D02*
X96496190Y-84166819D01*
X96496190Y-84166819D02*
X96400952Y-84214438D01*
X96400952Y-84214438D02*
X96353333Y-84262057D01*
X96353333Y-84262057D02*
X96305714Y-84357295D01*
X96305714Y-84357295D02*
X96305714Y-84500152D01*
X96305714Y-84500152D02*
X96353333Y-84595390D01*
X96353333Y-84595390D02*
X96400952Y-84643009D01*
X96400952Y-84643009D02*
X96496190Y-84690628D01*
X96496190Y-84690628D02*
X96877142Y-84690628D01*
X95972380Y-84166819D02*
X95353333Y-84166819D01*
X95353333Y-84166819D02*
X95686666Y-84547771D01*
X95686666Y-84547771D02*
X95543809Y-84547771D01*
X95543809Y-84547771D02*
X95448571Y-84595390D01*
X95448571Y-84595390D02*
X95400952Y-84643009D01*
X95400952Y-84643009D02*
X95353333Y-84738247D01*
X95353333Y-84738247D02*
X95353333Y-84976342D01*
X95353333Y-84976342D02*
X95400952Y-85071580D01*
X95400952Y-85071580D02*
X95448571Y-85119200D01*
X95448571Y-85119200D02*
X95543809Y-85166819D01*
X95543809Y-85166819D02*
X95829523Y-85166819D01*
X95829523Y-85166819D02*
X95924761Y-85119200D01*
X95924761Y-85119200D02*
X95972380Y-85071580D01*
%TO.C,C3*%
X127166666Y-75819580D02*
X127214285Y-75867200D01*
X127214285Y-75867200D02*
X127357142Y-75914819D01*
X127357142Y-75914819D02*
X127452380Y-75914819D01*
X127452380Y-75914819D02*
X127595237Y-75867200D01*
X127595237Y-75867200D02*
X127690475Y-75771961D01*
X127690475Y-75771961D02*
X127738094Y-75676723D01*
X127738094Y-75676723D02*
X127785713Y-75486247D01*
X127785713Y-75486247D02*
X127785713Y-75343390D01*
X127785713Y-75343390D02*
X127738094Y-75152914D01*
X127738094Y-75152914D02*
X127690475Y-75057676D01*
X127690475Y-75057676D02*
X127595237Y-74962438D01*
X127595237Y-74962438D02*
X127452380Y-74914819D01*
X127452380Y-74914819D02*
X127357142Y-74914819D01*
X127357142Y-74914819D02*
X127214285Y-74962438D01*
X127214285Y-74962438D02*
X127166666Y-75010057D01*
X126833332Y-74914819D02*
X126214285Y-74914819D01*
X126214285Y-74914819D02*
X126547618Y-75295771D01*
X126547618Y-75295771D02*
X126404761Y-75295771D01*
X126404761Y-75295771D02*
X126309523Y-75343390D01*
X126309523Y-75343390D02*
X126261904Y-75391009D01*
X126261904Y-75391009D02*
X126214285Y-75486247D01*
X126214285Y-75486247D02*
X126214285Y-75724342D01*
X126214285Y-75724342D02*
X126261904Y-75819580D01*
X126261904Y-75819580D02*
X126309523Y-75867200D01*
X126309523Y-75867200D02*
X126404761Y-75914819D01*
X126404761Y-75914819D02*
X126690475Y-75914819D01*
X126690475Y-75914819D02*
X126785713Y-75867200D01*
X126785713Y-75867200D02*
X126833332Y-75819580D01*
%TO.C,TP17*%
X118578094Y-84166819D02*
X118006666Y-84166819D01*
X118292380Y-85166819D02*
X118292380Y-84166819D01*
X117673332Y-85166819D02*
X117673332Y-84166819D01*
X117673332Y-84166819D02*
X117292380Y-84166819D01*
X117292380Y-84166819D02*
X117197142Y-84214438D01*
X117197142Y-84214438D02*
X117149523Y-84262057D01*
X117149523Y-84262057D02*
X117101904Y-84357295D01*
X117101904Y-84357295D02*
X117101904Y-84500152D01*
X117101904Y-84500152D02*
X117149523Y-84595390D01*
X117149523Y-84595390D02*
X117197142Y-84643009D01*
X117197142Y-84643009D02*
X117292380Y-84690628D01*
X117292380Y-84690628D02*
X117673332Y-84690628D01*
X116149523Y-85166819D02*
X116720951Y-85166819D01*
X116435237Y-85166819D02*
X116435237Y-84166819D01*
X116435237Y-84166819D02*
X116530475Y-84309676D01*
X116530475Y-84309676D02*
X116625713Y-84404914D01*
X116625713Y-84404914D02*
X116720951Y-84452533D01*
X115816189Y-84166819D02*
X115149523Y-84166819D01*
X115149523Y-84166819D02*
X115578094Y-85166819D01*
%TO.C,TP12*%
X133818094Y-78194819D02*
X133246666Y-78194819D01*
X133532380Y-79194819D02*
X133532380Y-78194819D01*
X132913332Y-79194819D02*
X132913332Y-78194819D01*
X132913332Y-78194819D02*
X132532380Y-78194819D01*
X132532380Y-78194819D02*
X132437142Y-78242438D01*
X132437142Y-78242438D02*
X132389523Y-78290057D01*
X132389523Y-78290057D02*
X132341904Y-78385295D01*
X132341904Y-78385295D02*
X132341904Y-78528152D01*
X132341904Y-78528152D02*
X132389523Y-78623390D01*
X132389523Y-78623390D02*
X132437142Y-78671009D01*
X132437142Y-78671009D02*
X132532380Y-78718628D01*
X132532380Y-78718628D02*
X132913332Y-78718628D01*
X131389523Y-79194819D02*
X131960951Y-79194819D01*
X131675237Y-79194819D02*
X131675237Y-78194819D01*
X131675237Y-78194819D02*
X131770475Y-78337676D01*
X131770475Y-78337676D02*
X131865713Y-78432914D01*
X131865713Y-78432914D02*
X131960951Y-78480533D01*
X131008570Y-78290057D02*
X130960951Y-78242438D01*
X130960951Y-78242438D02*
X130865713Y-78194819D01*
X130865713Y-78194819D02*
X130627618Y-78194819D01*
X130627618Y-78194819D02*
X130532380Y-78242438D01*
X130532380Y-78242438D02*
X130484761Y-78290057D01*
X130484761Y-78290057D02*
X130437142Y-78385295D01*
X130437142Y-78385295D02*
X130437142Y-78480533D01*
X130437142Y-78480533D02*
X130484761Y-78623390D01*
X130484761Y-78623390D02*
X131056189Y-79194819D01*
X131056189Y-79194819D02*
X130437142Y-79194819D01*
%TO.C,TP6*%
X85081904Y-89246819D02*
X84510476Y-89246819D01*
X84796190Y-90246819D02*
X84796190Y-89246819D01*
X84177142Y-90246819D02*
X84177142Y-89246819D01*
X84177142Y-89246819D02*
X83796190Y-89246819D01*
X83796190Y-89246819D02*
X83700952Y-89294438D01*
X83700952Y-89294438D02*
X83653333Y-89342057D01*
X83653333Y-89342057D02*
X83605714Y-89437295D01*
X83605714Y-89437295D02*
X83605714Y-89580152D01*
X83605714Y-89580152D02*
X83653333Y-89675390D01*
X83653333Y-89675390D02*
X83700952Y-89723009D01*
X83700952Y-89723009D02*
X83796190Y-89770628D01*
X83796190Y-89770628D02*
X84177142Y-89770628D01*
X82748571Y-89246819D02*
X82939047Y-89246819D01*
X82939047Y-89246819D02*
X83034285Y-89294438D01*
X83034285Y-89294438D02*
X83081904Y-89342057D01*
X83081904Y-89342057D02*
X83177142Y-89484914D01*
X83177142Y-89484914D02*
X83224761Y-89675390D01*
X83224761Y-89675390D02*
X83224761Y-90056342D01*
X83224761Y-90056342D02*
X83177142Y-90151580D01*
X83177142Y-90151580D02*
X83129523Y-90199200D01*
X83129523Y-90199200D02*
X83034285Y-90246819D01*
X83034285Y-90246819D02*
X82843809Y-90246819D01*
X82843809Y-90246819D02*
X82748571Y-90199200D01*
X82748571Y-90199200D02*
X82700952Y-90151580D01*
X82700952Y-90151580D02*
X82653333Y-90056342D01*
X82653333Y-90056342D02*
X82653333Y-89818247D01*
X82653333Y-89818247D02*
X82700952Y-89723009D01*
X82700952Y-89723009D02*
X82748571Y-89675390D01*
X82748571Y-89675390D02*
X82843809Y-89627771D01*
X82843809Y-89627771D02*
X83034285Y-89627771D01*
X83034285Y-89627771D02*
X83129523Y-89675390D01*
X83129523Y-89675390D02*
X83177142Y-89723009D01*
X83177142Y-89723009D02*
X83224761Y-89818247D01*
%TO.C,TP2*%
X107941904Y-68926819D02*
X107370476Y-68926819D01*
X107656190Y-69926819D02*
X107656190Y-68926819D01*
X107037142Y-69926819D02*
X107037142Y-68926819D01*
X107037142Y-68926819D02*
X106656190Y-68926819D01*
X106656190Y-68926819D02*
X106560952Y-68974438D01*
X106560952Y-68974438D02*
X106513333Y-69022057D01*
X106513333Y-69022057D02*
X106465714Y-69117295D01*
X106465714Y-69117295D02*
X106465714Y-69260152D01*
X106465714Y-69260152D02*
X106513333Y-69355390D01*
X106513333Y-69355390D02*
X106560952Y-69403009D01*
X106560952Y-69403009D02*
X106656190Y-69450628D01*
X106656190Y-69450628D02*
X107037142Y-69450628D01*
X106084761Y-69022057D02*
X106037142Y-68974438D01*
X106037142Y-68974438D02*
X105941904Y-68926819D01*
X105941904Y-68926819D02*
X105703809Y-68926819D01*
X105703809Y-68926819D02*
X105608571Y-68974438D01*
X105608571Y-68974438D02*
X105560952Y-69022057D01*
X105560952Y-69022057D02*
X105513333Y-69117295D01*
X105513333Y-69117295D02*
X105513333Y-69212533D01*
X105513333Y-69212533D02*
X105560952Y-69355390D01*
X105560952Y-69355390D02*
X106132380Y-69926819D01*
X106132380Y-69926819D02*
X105513333Y-69926819D01*
%TO.C,R4*%
X195606666Y-89354819D02*
X195939999Y-88878628D01*
X196178094Y-89354819D02*
X196178094Y-88354819D01*
X196178094Y-88354819D02*
X195797142Y-88354819D01*
X195797142Y-88354819D02*
X195701904Y-88402438D01*
X195701904Y-88402438D02*
X195654285Y-88450057D01*
X195654285Y-88450057D02*
X195606666Y-88545295D01*
X195606666Y-88545295D02*
X195606666Y-88688152D01*
X195606666Y-88688152D02*
X195654285Y-88783390D01*
X195654285Y-88783390D02*
X195701904Y-88831009D01*
X195701904Y-88831009D02*
X195797142Y-88878628D01*
X195797142Y-88878628D02*
X196178094Y-88878628D01*
X194749523Y-88688152D02*
X194749523Y-89354819D01*
X194987618Y-88307200D02*
X195225713Y-89021485D01*
X195225713Y-89021485D02*
X194606666Y-89021485D01*
%TO.C,TP13*%
X182078094Y-78194819D02*
X181506666Y-78194819D01*
X181792380Y-79194819D02*
X181792380Y-78194819D01*
X181173332Y-79194819D02*
X181173332Y-78194819D01*
X181173332Y-78194819D02*
X180792380Y-78194819D01*
X180792380Y-78194819D02*
X180697142Y-78242438D01*
X180697142Y-78242438D02*
X180649523Y-78290057D01*
X180649523Y-78290057D02*
X180601904Y-78385295D01*
X180601904Y-78385295D02*
X180601904Y-78528152D01*
X180601904Y-78528152D02*
X180649523Y-78623390D01*
X180649523Y-78623390D02*
X180697142Y-78671009D01*
X180697142Y-78671009D02*
X180792380Y-78718628D01*
X180792380Y-78718628D02*
X181173332Y-78718628D01*
X179649523Y-79194819D02*
X180220951Y-79194819D01*
X179935237Y-79194819D02*
X179935237Y-78194819D01*
X179935237Y-78194819D02*
X180030475Y-78337676D01*
X180030475Y-78337676D02*
X180125713Y-78432914D01*
X180125713Y-78432914D02*
X180220951Y-78480533D01*
X179316189Y-78194819D02*
X178697142Y-78194819D01*
X178697142Y-78194819D02*
X179030475Y-78575771D01*
X179030475Y-78575771D02*
X178887618Y-78575771D01*
X178887618Y-78575771D02*
X178792380Y-78623390D01*
X178792380Y-78623390D02*
X178744761Y-78671009D01*
X178744761Y-78671009D02*
X178697142Y-78766247D01*
X178697142Y-78766247D02*
X178697142Y-79004342D01*
X178697142Y-79004342D02*
X178744761Y-79099580D01*
X178744761Y-79099580D02*
X178792380Y-79147200D01*
X178792380Y-79147200D02*
X178887618Y-79194819D01*
X178887618Y-79194819D02*
X179173332Y-79194819D01*
X179173332Y-79194819D02*
X179268570Y-79147200D01*
X179268570Y-79147200D02*
X179316189Y-79099580D01*
%TO.C,TP20*%
X174458094Y-91786819D02*
X173886666Y-91786819D01*
X174172380Y-92786819D02*
X174172380Y-91786819D01*
X173553332Y-92786819D02*
X173553332Y-91786819D01*
X173553332Y-91786819D02*
X173172380Y-91786819D01*
X173172380Y-91786819D02*
X173077142Y-91834438D01*
X173077142Y-91834438D02*
X173029523Y-91882057D01*
X173029523Y-91882057D02*
X172981904Y-91977295D01*
X172981904Y-91977295D02*
X172981904Y-92120152D01*
X172981904Y-92120152D02*
X173029523Y-92215390D01*
X173029523Y-92215390D02*
X173077142Y-92263009D01*
X173077142Y-92263009D02*
X173172380Y-92310628D01*
X173172380Y-92310628D02*
X173553332Y-92310628D01*
X172600951Y-91882057D02*
X172553332Y-91834438D01*
X172553332Y-91834438D02*
X172458094Y-91786819D01*
X172458094Y-91786819D02*
X172219999Y-91786819D01*
X172219999Y-91786819D02*
X172124761Y-91834438D01*
X172124761Y-91834438D02*
X172077142Y-91882057D01*
X172077142Y-91882057D02*
X172029523Y-91977295D01*
X172029523Y-91977295D02*
X172029523Y-92072533D01*
X172029523Y-92072533D02*
X172077142Y-92215390D01*
X172077142Y-92215390D02*
X172648570Y-92786819D01*
X172648570Y-92786819D02*
X172029523Y-92786819D01*
X171410475Y-91786819D02*
X171315237Y-91786819D01*
X171315237Y-91786819D02*
X171219999Y-91834438D01*
X171219999Y-91834438D02*
X171172380Y-91882057D01*
X171172380Y-91882057D02*
X171124761Y-91977295D01*
X171124761Y-91977295D02*
X171077142Y-92167771D01*
X171077142Y-92167771D02*
X171077142Y-92405866D01*
X171077142Y-92405866D02*
X171124761Y-92596342D01*
X171124761Y-92596342D02*
X171172380Y-92691580D01*
X171172380Y-92691580D02*
X171219999Y-92739200D01*
X171219999Y-92739200D02*
X171315237Y-92786819D01*
X171315237Y-92786819D02*
X171410475Y-92786819D01*
X171410475Y-92786819D02*
X171505713Y-92739200D01*
X171505713Y-92739200D02*
X171553332Y-92691580D01*
X171553332Y-92691580D02*
X171600951Y-92596342D01*
X171600951Y-92596342D02*
X171648570Y-92405866D01*
X171648570Y-92405866D02*
X171648570Y-92167771D01*
X171648570Y-92167771D02*
X171600951Y-91977295D01*
X171600951Y-91977295D02*
X171553332Y-91882057D01*
X171553332Y-91882057D02*
X171505713Y-91834438D01*
X171505713Y-91834438D02*
X171410475Y-91786819D01*
%TO.C,Q1*%
X111855238Y-94390057D02*
X111950476Y-94342438D01*
X111950476Y-94342438D02*
X112045714Y-94247200D01*
X112045714Y-94247200D02*
X112188571Y-94104342D01*
X112188571Y-94104342D02*
X112283809Y-94056723D01*
X112283809Y-94056723D02*
X112379047Y-94056723D01*
X112331428Y-94294819D02*
X112426666Y-94247200D01*
X112426666Y-94247200D02*
X112521904Y-94151961D01*
X112521904Y-94151961D02*
X112569523Y-93961485D01*
X112569523Y-93961485D02*
X112569523Y-93628152D01*
X112569523Y-93628152D02*
X112521904Y-93437676D01*
X112521904Y-93437676D02*
X112426666Y-93342438D01*
X112426666Y-93342438D02*
X112331428Y-93294819D01*
X112331428Y-93294819D02*
X112140952Y-93294819D01*
X112140952Y-93294819D02*
X112045714Y-93342438D01*
X112045714Y-93342438D02*
X111950476Y-93437676D01*
X111950476Y-93437676D02*
X111902857Y-93628152D01*
X111902857Y-93628152D02*
X111902857Y-93961485D01*
X111902857Y-93961485D02*
X111950476Y-94151961D01*
X111950476Y-94151961D02*
X112045714Y-94247200D01*
X112045714Y-94247200D02*
X112140952Y-94294819D01*
X112140952Y-94294819D02*
X112331428Y-94294819D01*
X110950476Y-94294819D02*
X111521904Y-94294819D01*
X111236190Y-94294819D02*
X111236190Y-93294819D01*
X111236190Y-93294819D02*
X111331428Y-93437676D01*
X111331428Y-93437676D02*
X111426666Y-93532914D01*
X111426666Y-93532914D02*
X111521904Y-93580533D01*
%TO.C,SW3*%
X127407200Y-90106667D02*
X127454819Y-90249524D01*
X127454819Y-90249524D02*
X127454819Y-90487619D01*
X127454819Y-90487619D02*
X127407200Y-90582857D01*
X127407200Y-90582857D02*
X127359580Y-90630476D01*
X127359580Y-90630476D02*
X127264342Y-90678095D01*
X127264342Y-90678095D02*
X127169104Y-90678095D01*
X127169104Y-90678095D02*
X127073866Y-90630476D01*
X127073866Y-90630476D02*
X127026247Y-90582857D01*
X127026247Y-90582857D02*
X126978628Y-90487619D01*
X126978628Y-90487619D02*
X126931009Y-90297143D01*
X126931009Y-90297143D02*
X126883390Y-90201905D01*
X126883390Y-90201905D02*
X126835771Y-90154286D01*
X126835771Y-90154286D02*
X126740533Y-90106667D01*
X126740533Y-90106667D02*
X126645295Y-90106667D01*
X126645295Y-90106667D02*
X126550057Y-90154286D01*
X126550057Y-90154286D02*
X126502438Y-90201905D01*
X126502438Y-90201905D02*
X126454819Y-90297143D01*
X126454819Y-90297143D02*
X126454819Y-90535238D01*
X126454819Y-90535238D02*
X126502438Y-90678095D01*
X126454819Y-91011429D02*
X127454819Y-91249524D01*
X127454819Y-91249524D02*
X126740533Y-91440000D01*
X126740533Y-91440000D02*
X127454819Y-91630476D01*
X127454819Y-91630476D02*
X126454819Y-91868572D01*
X126454819Y-92154286D02*
X126454819Y-92773333D01*
X126454819Y-92773333D02*
X126835771Y-92440000D01*
X126835771Y-92440000D02*
X126835771Y-92582857D01*
X126835771Y-92582857D02*
X126883390Y-92678095D01*
X126883390Y-92678095D02*
X126931009Y-92725714D01*
X126931009Y-92725714D02*
X127026247Y-92773333D01*
X127026247Y-92773333D02*
X127264342Y-92773333D01*
X127264342Y-92773333D02*
X127359580Y-92725714D01*
X127359580Y-92725714D02*
X127407200Y-92678095D01*
X127407200Y-92678095D02*
X127454819Y-92582857D01*
X127454819Y-92582857D02*
X127454819Y-92297143D01*
X127454819Y-92297143D02*
X127407200Y-92201905D01*
X127407200Y-92201905D02*
X127359580Y-92154286D01*
%TO.C,TP8*%
X62221904Y-101054819D02*
X61650476Y-101054819D01*
X61936190Y-102054819D02*
X61936190Y-101054819D01*
X61317142Y-102054819D02*
X61317142Y-101054819D01*
X61317142Y-101054819D02*
X60936190Y-101054819D01*
X60936190Y-101054819D02*
X60840952Y-101102438D01*
X60840952Y-101102438D02*
X60793333Y-101150057D01*
X60793333Y-101150057D02*
X60745714Y-101245295D01*
X60745714Y-101245295D02*
X60745714Y-101388152D01*
X60745714Y-101388152D02*
X60793333Y-101483390D01*
X60793333Y-101483390D02*
X60840952Y-101531009D01*
X60840952Y-101531009D02*
X60936190Y-101578628D01*
X60936190Y-101578628D02*
X61317142Y-101578628D01*
X60174285Y-101483390D02*
X60269523Y-101435771D01*
X60269523Y-101435771D02*
X60317142Y-101388152D01*
X60317142Y-101388152D02*
X60364761Y-101292914D01*
X60364761Y-101292914D02*
X60364761Y-101245295D01*
X60364761Y-101245295D02*
X60317142Y-101150057D01*
X60317142Y-101150057D02*
X60269523Y-101102438D01*
X60269523Y-101102438D02*
X60174285Y-101054819D01*
X60174285Y-101054819D02*
X59983809Y-101054819D01*
X59983809Y-101054819D02*
X59888571Y-101102438D01*
X59888571Y-101102438D02*
X59840952Y-101150057D01*
X59840952Y-101150057D02*
X59793333Y-101245295D01*
X59793333Y-101245295D02*
X59793333Y-101292914D01*
X59793333Y-101292914D02*
X59840952Y-101388152D01*
X59840952Y-101388152D02*
X59888571Y-101435771D01*
X59888571Y-101435771D02*
X59983809Y-101483390D01*
X59983809Y-101483390D02*
X60174285Y-101483390D01*
X60174285Y-101483390D02*
X60269523Y-101531009D01*
X60269523Y-101531009D02*
X60317142Y-101578628D01*
X60317142Y-101578628D02*
X60364761Y-101673866D01*
X60364761Y-101673866D02*
X60364761Y-101864342D01*
X60364761Y-101864342D02*
X60317142Y-101959580D01*
X60317142Y-101959580D02*
X60269523Y-102007200D01*
X60269523Y-102007200D02*
X60174285Y-102054819D01*
X60174285Y-102054819D02*
X59983809Y-102054819D01*
X59983809Y-102054819D02*
X59888571Y-102007200D01*
X59888571Y-102007200D02*
X59840952Y-101959580D01*
X59840952Y-101959580D02*
X59793333Y-101864342D01*
X59793333Y-101864342D02*
X59793333Y-101673866D01*
X59793333Y-101673866D02*
X59840952Y-101578628D01*
X59840952Y-101578628D02*
X59888571Y-101531009D01*
X59888571Y-101531009D02*
X59983809Y-101483390D01*
%TO.C,U3*%
X103594819Y-85598095D02*
X104404342Y-85598095D01*
X104404342Y-85598095D02*
X104499580Y-85645714D01*
X104499580Y-85645714D02*
X104547200Y-85693333D01*
X104547200Y-85693333D02*
X104594819Y-85788571D01*
X104594819Y-85788571D02*
X104594819Y-85979047D01*
X104594819Y-85979047D02*
X104547200Y-86074285D01*
X104547200Y-86074285D02*
X104499580Y-86121904D01*
X104499580Y-86121904D02*
X104404342Y-86169523D01*
X104404342Y-86169523D02*
X103594819Y-86169523D01*
X103594819Y-86550476D02*
X103594819Y-87169523D01*
X103594819Y-87169523D02*
X103975771Y-86836190D01*
X103975771Y-86836190D02*
X103975771Y-86979047D01*
X103975771Y-86979047D02*
X104023390Y-87074285D01*
X104023390Y-87074285D02*
X104071009Y-87121904D01*
X104071009Y-87121904D02*
X104166247Y-87169523D01*
X104166247Y-87169523D02*
X104404342Y-87169523D01*
X104404342Y-87169523D02*
X104499580Y-87121904D01*
X104499580Y-87121904D02*
X104547200Y-87074285D01*
X104547200Y-87074285D02*
X104594819Y-86979047D01*
X104594819Y-86979047D02*
X104594819Y-86693333D01*
X104594819Y-86693333D02*
X104547200Y-86598095D01*
X104547200Y-86598095D02*
X104499580Y-86550476D01*
%TO.C,C5*%
X186890971Y-80101943D02*
X186938590Y-80149563D01*
X186938590Y-80149563D02*
X187081447Y-80197182D01*
X187081447Y-80197182D02*
X187176685Y-80197182D01*
X187176685Y-80197182D02*
X187319542Y-80149563D01*
X187319542Y-80149563D02*
X187414780Y-80054324D01*
X187414780Y-80054324D02*
X187462399Y-79959086D01*
X187462399Y-79959086D02*
X187510018Y-79768610D01*
X187510018Y-79768610D02*
X187510018Y-79625753D01*
X187510018Y-79625753D02*
X187462399Y-79435277D01*
X187462399Y-79435277D02*
X187414780Y-79340039D01*
X187414780Y-79340039D02*
X187319542Y-79244801D01*
X187319542Y-79244801D02*
X187176685Y-79197182D01*
X187176685Y-79197182D02*
X187081447Y-79197182D01*
X187081447Y-79197182D02*
X186938590Y-79244801D01*
X186938590Y-79244801D02*
X186890971Y-79292420D01*
X185986209Y-79197182D02*
X186462399Y-79197182D01*
X186462399Y-79197182D02*
X186510018Y-79673372D01*
X186510018Y-79673372D02*
X186462399Y-79625753D01*
X186462399Y-79625753D02*
X186367161Y-79578134D01*
X186367161Y-79578134D02*
X186129066Y-79578134D01*
X186129066Y-79578134D02*
X186033828Y-79625753D01*
X186033828Y-79625753D02*
X185986209Y-79673372D01*
X185986209Y-79673372D02*
X185938590Y-79768610D01*
X185938590Y-79768610D02*
X185938590Y-80006705D01*
X185938590Y-80006705D02*
X185986209Y-80101943D01*
X185986209Y-80101943D02*
X186033828Y-80149563D01*
X186033828Y-80149563D02*
X186129066Y-80197182D01*
X186129066Y-80197182D02*
X186367161Y-80197182D01*
X186367161Y-80197182D02*
X186462399Y-80149563D01*
X186462399Y-80149563D02*
X186510018Y-80101943D01*
%TO.C,SW2*%
X125793332Y-64162244D02*
X125650475Y-64209863D01*
X125650475Y-64209863D02*
X125412380Y-64209863D01*
X125412380Y-64209863D02*
X125317142Y-64162244D01*
X125317142Y-64162244D02*
X125269523Y-64114624D01*
X125269523Y-64114624D02*
X125221904Y-64019386D01*
X125221904Y-64019386D02*
X125221904Y-63924148D01*
X125221904Y-63924148D02*
X125269523Y-63828910D01*
X125269523Y-63828910D02*
X125317142Y-63781291D01*
X125317142Y-63781291D02*
X125412380Y-63733672D01*
X125412380Y-63733672D02*
X125602856Y-63686053D01*
X125602856Y-63686053D02*
X125698094Y-63638434D01*
X125698094Y-63638434D02*
X125745713Y-63590815D01*
X125745713Y-63590815D02*
X125793332Y-63495577D01*
X125793332Y-63495577D02*
X125793332Y-63400339D01*
X125793332Y-63400339D02*
X125745713Y-63305101D01*
X125745713Y-63305101D02*
X125698094Y-63257482D01*
X125698094Y-63257482D02*
X125602856Y-63209863D01*
X125602856Y-63209863D02*
X125364761Y-63209863D01*
X125364761Y-63209863D02*
X125221904Y-63257482D01*
X124888570Y-63209863D02*
X124650475Y-64209863D01*
X124650475Y-64209863D02*
X124459999Y-63495577D01*
X124459999Y-63495577D02*
X124269523Y-64209863D01*
X124269523Y-64209863D02*
X124031428Y-63209863D01*
X123698094Y-63305101D02*
X123650475Y-63257482D01*
X123650475Y-63257482D02*
X123555237Y-63209863D01*
X123555237Y-63209863D02*
X123317142Y-63209863D01*
X123317142Y-63209863D02*
X123221904Y-63257482D01*
X123221904Y-63257482D02*
X123174285Y-63305101D01*
X123174285Y-63305101D02*
X123126666Y-63400339D01*
X123126666Y-63400339D02*
X123126666Y-63495577D01*
X123126666Y-63495577D02*
X123174285Y-63638434D01*
X123174285Y-63638434D02*
X123745713Y-64209863D01*
X123745713Y-64209863D02*
X123126666Y-64209863D01*
%TO.C,TP14*%
X182078094Y-80734819D02*
X181506666Y-80734819D01*
X181792380Y-81734819D02*
X181792380Y-80734819D01*
X181173332Y-81734819D02*
X181173332Y-80734819D01*
X181173332Y-80734819D02*
X180792380Y-80734819D01*
X180792380Y-80734819D02*
X180697142Y-80782438D01*
X180697142Y-80782438D02*
X180649523Y-80830057D01*
X180649523Y-80830057D02*
X180601904Y-80925295D01*
X180601904Y-80925295D02*
X180601904Y-81068152D01*
X180601904Y-81068152D02*
X180649523Y-81163390D01*
X180649523Y-81163390D02*
X180697142Y-81211009D01*
X180697142Y-81211009D02*
X180792380Y-81258628D01*
X180792380Y-81258628D02*
X181173332Y-81258628D01*
X179649523Y-81734819D02*
X180220951Y-81734819D01*
X179935237Y-81734819D02*
X179935237Y-80734819D01*
X179935237Y-80734819D02*
X180030475Y-80877676D01*
X180030475Y-80877676D02*
X180125713Y-80972914D01*
X180125713Y-80972914D02*
X180220951Y-81020533D01*
X178792380Y-81068152D02*
X178792380Y-81734819D01*
X179030475Y-80687200D02*
X179268570Y-81401485D01*
X179268570Y-81401485D02*
X178649523Y-81401485D01*
%TO.C,U4*%
X92031904Y-84714819D02*
X92031904Y-85524342D01*
X92031904Y-85524342D02*
X91984285Y-85619580D01*
X91984285Y-85619580D02*
X91936666Y-85667200D01*
X91936666Y-85667200D02*
X91841428Y-85714819D01*
X91841428Y-85714819D02*
X91650952Y-85714819D01*
X91650952Y-85714819D02*
X91555714Y-85667200D01*
X91555714Y-85667200D02*
X91508095Y-85619580D01*
X91508095Y-85619580D02*
X91460476Y-85524342D01*
X91460476Y-85524342D02*
X91460476Y-84714819D01*
X90555714Y-85048152D02*
X90555714Y-85714819D01*
X90793809Y-84667200D02*
X91031904Y-85381485D01*
X91031904Y-85381485D02*
X90412857Y-85381485D01*
%TO.C,C42*%
X89372857Y-82102080D02*
X89420476Y-82149700D01*
X89420476Y-82149700D02*
X89563333Y-82197319D01*
X89563333Y-82197319D02*
X89658571Y-82197319D01*
X89658571Y-82197319D02*
X89801428Y-82149700D01*
X89801428Y-82149700D02*
X89896666Y-82054461D01*
X89896666Y-82054461D02*
X89944285Y-81959223D01*
X89944285Y-81959223D02*
X89991904Y-81768747D01*
X89991904Y-81768747D02*
X89991904Y-81625890D01*
X89991904Y-81625890D02*
X89944285Y-81435414D01*
X89944285Y-81435414D02*
X89896666Y-81340176D01*
X89896666Y-81340176D02*
X89801428Y-81244938D01*
X89801428Y-81244938D02*
X89658571Y-81197319D01*
X89658571Y-81197319D02*
X89563333Y-81197319D01*
X89563333Y-81197319D02*
X89420476Y-81244938D01*
X89420476Y-81244938D02*
X89372857Y-81292557D01*
X88515714Y-81530652D02*
X88515714Y-82197319D01*
X88753809Y-81149700D02*
X88991904Y-81863985D01*
X88991904Y-81863985D02*
X88372857Y-81863985D01*
X88039523Y-81292557D02*
X87991904Y-81244938D01*
X87991904Y-81244938D02*
X87896666Y-81197319D01*
X87896666Y-81197319D02*
X87658571Y-81197319D01*
X87658571Y-81197319D02*
X87563333Y-81244938D01*
X87563333Y-81244938D02*
X87515714Y-81292557D01*
X87515714Y-81292557D02*
X87468095Y-81387795D01*
X87468095Y-81387795D02*
X87468095Y-81483033D01*
X87468095Y-81483033D02*
X87515714Y-81625890D01*
X87515714Y-81625890D02*
X88087142Y-82197319D01*
X88087142Y-82197319D02*
X87468095Y-82197319D01*
D12*
%TO.C,U1*%
X73176985Y-80602666D02*
X73896652Y-80602666D01*
X73896652Y-80602666D02*
X73981318Y-80645000D01*
X73981318Y-80645000D02*
X74023652Y-80687333D01*
X74023652Y-80687333D02*
X74065985Y-80772000D01*
X74065985Y-80772000D02*
X74065985Y-80941333D01*
X74065985Y-80941333D02*
X74023652Y-81026000D01*
X74023652Y-81026000D02*
X73981318Y-81068333D01*
X73981318Y-81068333D02*
X73896652Y-81110666D01*
X73896652Y-81110666D02*
X73176985Y-81110666D01*
X74065985Y-81999666D02*
X74065985Y-81491666D01*
X74065985Y-81745666D02*
X73176985Y-81745666D01*
X73176985Y-81745666D02*
X73303985Y-81660999D01*
X73303985Y-81660999D02*
X73388652Y-81576333D01*
X73388652Y-81576333D02*
X73430985Y-81491666D01*
D10*
%TO.C,R1*%
X132534819Y-69940397D02*
X132058628Y-69607064D01*
X132534819Y-69368969D02*
X131534819Y-69368969D01*
X131534819Y-69368969D02*
X131534819Y-69749921D01*
X131534819Y-69749921D02*
X131582438Y-69845159D01*
X131582438Y-69845159D02*
X131630057Y-69892778D01*
X131630057Y-69892778D02*
X131725295Y-69940397D01*
X131725295Y-69940397D02*
X131868152Y-69940397D01*
X131868152Y-69940397D02*
X131963390Y-69892778D01*
X131963390Y-69892778D02*
X132011009Y-69845159D01*
X132011009Y-69845159D02*
X132058628Y-69749921D01*
X132058628Y-69749921D02*
X132058628Y-69368969D01*
X132534819Y-70892778D02*
X132534819Y-70321350D01*
X132534819Y-70607064D02*
X131534819Y-70607064D01*
X131534819Y-70607064D02*
X131677676Y-70511826D01*
X131677676Y-70511826D02*
X131772914Y-70416588D01*
X131772914Y-70416588D02*
X131820533Y-70321350D01*
%TO.C,TP1*%
X113021904Y-61306819D02*
X112450476Y-61306819D01*
X112736190Y-62306819D02*
X112736190Y-61306819D01*
X112117142Y-62306819D02*
X112117142Y-61306819D01*
X112117142Y-61306819D02*
X111736190Y-61306819D01*
X111736190Y-61306819D02*
X111640952Y-61354438D01*
X111640952Y-61354438D02*
X111593333Y-61402057D01*
X111593333Y-61402057D02*
X111545714Y-61497295D01*
X111545714Y-61497295D02*
X111545714Y-61640152D01*
X111545714Y-61640152D02*
X111593333Y-61735390D01*
X111593333Y-61735390D02*
X111640952Y-61783009D01*
X111640952Y-61783009D02*
X111736190Y-61830628D01*
X111736190Y-61830628D02*
X112117142Y-61830628D01*
X110593333Y-62306819D02*
X111164761Y-62306819D01*
X110879047Y-62306819D02*
X110879047Y-61306819D01*
X110879047Y-61306819D02*
X110974285Y-61449676D01*
X110974285Y-61449676D02*
X111069523Y-61544914D01*
X111069523Y-61544914D02*
X111164761Y-61592533D01*
%TO.C,TP15*%
X110958094Y-91786819D02*
X110386666Y-91786819D01*
X110672380Y-92786819D02*
X110672380Y-91786819D01*
X110053332Y-92786819D02*
X110053332Y-91786819D01*
X110053332Y-91786819D02*
X109672380Y-91786819D01*
X109672380Y-91786819D02*
X109577142Y-91834438D01*
X109577142Y-91834438D02*
X109529523Y-91882057D01*
X109529523Y-91882057D02*
X109481904Y-91977295D01*
X109481904Y-91977295D02*
X109481904Y-92120152D01*
X109481904Y-92120152D02*
X109529523Y-92215390D01*
X109529523Y-92215390D02*
X109577142Y-92263009D01*
X109577142Y-92263009D02*
X109672380Y-92310628D01*
X109672380Y-92310628D02*
X110053332Y-92310628D01*
X108529523Y-92786819D02*
X109100951Y-92786819D01*
X108815237Y-92786819D02*
X108815237Y-91786819D01*
X108815237Y-91786819D02*
X108910475Y-91929676D01*
X108910475Y-91929676D02*
X109005713Y-92024914D01*
X109005713Y-92024914D02*
X109100951Y-92072533D01*
X107624761Y-91786819D02*
X108100951Y-91786819D01*
X108100951Y-91786819D02*
X108148570Y-92263009D01*
X108148570Y-92263009D02*
X108100951Y-92215390D01*
X108100951Y-92215390D02*
X108005713Y-92167771D01*
X108005713Y-92167771D02*
X107767618Y-92167771D01*
X107767618Y-92167771D02*
X107672380Y-92215390D01*
X107672380Y-92215390D02*
X107624761Y-92263009D01*
X107624761Y-92263009D02*
X107577142Y-92358247D01*
X107577142Y-92358247D02*
X107577142Y-92596342D01*
X107577142Y-92596342D02*
X107624761Y-92691580D01*
X107624761Y-92691580D02*
X107672380Y-92739200D01*
X107672380Y-92739200D02*
X107767618Y-92786819D01*
X107767618Y-92786819D02*
X108005713Y-92786819D01*
X108005713Y-92786819D02*
X108100951Y-92739200D01*
X108100951Y-92739200D02*
X108148570Y-92691580D01*
%TO.C,R5*%
X195606666Y-84274819D02*
X195939999Y-83798628D01*
X196178094Y-84274819D02*
X196178094Y-83274819D01*
X196178094Y-83274819D02*
X195797142Y-83274819D01*
X195797142Y-83274819D02*
X195701904Y-83322438D01*
X195701904Y-83322438D02*
X195654285Y-83370057D01*
X195654285Y-83370057D02*
X195606666Y-83465295D01*
X195606666Y-83465295D02*
X195606666Y-83608152D01*
X195606666Y-83608152D02*
X195654285Y-83703390D01*
X195654285Y-83703390D02*
X195701904Y-83751009D01*
X195701904Y-83751009D02*
X195797142Y-83798628D01*
X195797142Y-83798628D02*
X196178094Y-83798628D01*
X194701904Y-83274819D02*
X195178094Y-83274819D01*
X195178094Y-83274819D02*
X195225713Y-83751009D01*
X195225713Y-83751009D02*
X195178094Y-83703390D01*
X195178094Y-83703390D02*
X195082856Y-83655771D01*
X195082856Y-83655771D02*
X194844761Y-83655771D01*
X194844761Y-83655771D02*
X194749523Y-83703390D01*
X194749523Y-83703390D02*
X194701904Y-83751009D01*
X194701904Y-83751009D02*
X194654285Y-83846247D01*
X194654285Y-83846247D02*
X194654285Y-84084342D01*
X194654285Y-84084342D02*
X194701904Y-84179580D01*
X194701904Y-84179580D02*
X194749523Y-84227200D01*
X194749523Y-84227200D02*
X194844761Y-84274819D01*
X194844761Y-84274819D02*
X195082856Y-84274819D01*
X195082856Y-84274819D02*
X195178094Y-84227200D01*
X195178094Y-84227200D02*
X195225713Y-84179580D01*
%TO.C,R7*%
X195466666Y-74114819D02*
X195799999Y-73638628D01*
X196038094Y-74114819D02*
X196038094Y-73114819D01*
X196038094Y-73114819D02*
X195657142Y-73114819D01*
X195657142Y-73114819D02*
X195561904Y-73162438D01*
X195561904Y-73162438D02*
X195514285Y-73210057D01*
X195514285Y-73210057D02*
X195466666Y-73305295D01*
X195466666Y-73305295D02*
X195466666Y-73448152D01*
X195466666Y-73448152D02*
X195514285Y-73543390D01*
X195514285Y-73543390D02*
X195561904Y-73591009D01*
X195561904Y-73591009D02*
X195657142Y-73638628D01*
X195657142Y-73638628D02*
X196038094Y-73638628D01*
X195133332Y-73114819D02*
X194466666Y-73114819D01*
X194466666Y-73114819D02*
X194895237Y-74114819D01*
D13*
%TO.C,R3*%
X125640000Y-71634128D02*
X125640000Y-68580000D01*
X128360000Y-71634128D02*
X128360000Y-68580000D01*
%TO.C,R11*%
X120740000Y-89912936D02*
X120740000Y-92967064D01*
X118020000Y-89912936D02*
X118020000Y-92967064D01*
%TO.C,TP4*%
X84770000Y-84770000D02*
X84770000Y-82870000D01*
X84770000Y-82870000D02*
X82870000Y-82870000D01*
X82870000Y-84770000D02*
X84770000Y-84770000D01*
X82870000Y-82870000D02*
X82870000Y-84770000D01*
%TO.C,TP7*%
X59370000Y-100010000D02*
X59370000Y-98110000D01*
X59370000Y-98110000D02*
X57470000Y-98110000D01*
X57470000Y-100010000D02*
X59370000Y-100010000D01*
X57470000Y-98110000D02*
X57470000Y-100010000D01*
%TO.C,TP9*%
X125410000Y-66990000D02*
X125410000Y-65090000D01*
X125410000Y-65090000D02*
X123510000Y-65090000D01*
X123510000Y-66990000D02*
X125410000Y-66990000D01*
X123510000Y-65090000D02*
X123510000Y-66990000D01*
%TO.C,C41*%
X95440000Y-82453752D02*
X95440000Y-81031248D01*
X97260000Y-82453752D02*
X97260000Y-81031248D01*
%TO.C,C1*%
X54051252Y-103510000D02*
X52628748Y-103510000D01*
X54051252Y-101690000D02*
X52628748Y-101690000D01*
%TO.C,C4*%
X160731252Y-105250000D02*
X159308748Y-105250000D01*
X160731252Y-103430000D02*
X159308748Y-103430000D01*
%TO.C,TP11*%
X135570000Y-77150000D02*
X135570000Y-75250000D01*
X135570000Y-75250000D02*
X133670000Y-75250000D01*
X133670000Y-77150000D02*
X135570000Y-77150000D01*
X133670000Y-75250000D02*
X133670000Y-77150000D01*
%TO.C,OSHW*%
D14*
X177822829Y-65854957D02*
X177882753Y-65877215D01*
X177907673Y-65893940D01*
X177932910Y-65917903D01*
X177950912Y-65948386D01*
X177962858Y-65989883D01*
X177969930Y-66046892D01*
X177973308Y-66123907D01*
X177974171Y-66225425D01*
X177974002Y-66277887D01*
X177973153Y-66349575D01*
X177971711Y-66406785D01*
X177969814Y-66444669D01*
X177967597Y-66458374D01*
X177953172Y-66453841D01*
X177924054Y-66441530D01*
X177923181Y-66441132D01*
X177908060Y-66433216D01*
X177897891Y-66422355D01*
X177891691Y-66403331D01*
X177888478Y-66370929D01*
X177887270Y-66319931D01*
X177887086Y-66245121D01*
X177886714Y-66197664D01*
X177882750Y-66108475D01*
X177873673Y-66043147D01*
X177858524Y-65998253D01*
X177836345Y-65970367D01*
X177806175Y-65956063D01*
X177801990Y-65955066D01*
X177745480Y-65954287D01*
X177701410Y-65979604D01*
X177670972Y-66030362D01*
X177665544Y-66045035D01*
X177653171Y-66077509D01*
X177646905Y-66092432D01*
X177634036Y-66090376D01*
X177605933Y-66079217D01*
X177579721Y-66060787D01*
X177567771Y-66025958D01*
X177571336Y-66001011D01*
X177593235Y-65950407D01*
X177628644Y-65902988D01*
X177670052Y-65870194D01*
X177687400Y-65862612D01*
X177753089Y-65849936D01*
X177822829Y-65854957D01*
G36*
X177822829Y-65854957D02*
G01*
X177882753Y-65877215D01*
X177907673Y-65893940D01*
X177932910Y-65917903D01*
X177950912Y-65948386D01*
X177962858Y-65989883D01*
X177969930Y-66046892D01*
X177973308Y-66123907D01*
X177974171Y-66225425D01*
X177974002Y-66277887D01*
X177973153Y-66349575D01*
X177971711Y-66406785D01*
X177969814Y-66444669D01*
X177967597Y-66458374D01*
X177953172Y-66453841D01*
X177924054Y-66441530D01*
X177923181Y-66441132D01*
X177908060Y-66433216D01*
X177897891Y-66422355D01*
X177891691Y-66403331D01*
X177888478Y-66370929D01*
X177887270Y-66319931D01*
X177887086Y-66245121D01*
X177886714Y-66197664D01*
X177882750Y-66108475D01*
X177873673Y-66043147D01*
X177858524Y-65998253D01*
X177836345Y-65970367D01*
X177806175Y-65956063D01*
X177801990Y-65955066D01*
X177745480Y-65954287D01*
X177701410Y-65979604D01*
X177670972Y-66030362D01*
X177665544Y-66045035D01*
X177653171Y-66077509D01*
X177646905Y-66092432D01*
X177634036Y-66090376D01*
X177605933Y-66079217D01*
X177579721Y-66060787D01*
X177567771Y-66025958D01*
X177571336Y-66001011D01*
X177593235Y-65950407D01*
X177628644Y-65902988D01*
X177670052Y-65870194D01*
X177687400Y-65862612D01*
X177753089Y-65849936D01*
X177822829Y-65854957D01*
G37*
X181771020Y-65821682D02*
X181838810Y-65853540D01*
X181894366Y-65908630D01*
X181905881Y-65925876D01*
X181915432Y-65945422D01*
X181922206Y-65970058D01*
X181926819Y-66004571D01*
X181929888Y-66053749D01*
X181932029Y-66122379D01*
X181933859Y-66215249D01*
X181938404Y-66472867D01*
X181900225Y-66458351D01*
X181865268Y-66445016D01*
X181839097Y-66432183D01*
X181822013Y-66415640D01*
X181812086Y-66390325D01*
X181807386Y-66351176D01*
X181805982Y-66293128D01*
X181805943Y-66211121D01*
X181805744Y-66145755D01*
X181804559Y-66083033D01*
X181801729Y-66040194D01*
X181796609Y-66012080D01*
X181788553Y-65993535D01*
X181776914Y-65979403D01*
X181748303Y-65959460D01*
X181700239Y-65951943D01*
X181652688Y-65970939D01*
X181649550Y-65973371D01*
X181639769Y-65984608D01*
X181632553Y-66002630D01*
X181627299Y-66031886D01*
X181623402Y-66076822D01*
X181620256Y-66141888D01*
X181617257Y-66231530D01*
X181610000Y-66471557D01*
X181548314Y-66443904D01*
X181486629Y-66416251D01*
X181486629Y-66197106D01*
X181486884Y-66137571D01*
X181489086Y-66054752D01*
X181494661Y-65993087D01*
X181504941Y-65947608D01*
X181521258Y-65913344D01*
X181544943Y-65885326D01*
X181577328Y-65858583D01*
X181623907Y-65831640D01*
X181697287Y-65814051D01*
X181771020Y-65821682D01*
G36*
X181771020Y-65821682D02*
G01*
X181838810Y-65853540D01*
X181894366Y-65908630D01*
X181905881Y-65925876D01*
X181915432Y-65945422D01*
X181922206Y-65970058D01*
X181926819Y-66004571D01*
X181929888Y-66053749D01*
X181932029Y-66122379D01*
X181933859Y-66215249D01*
X181938404Y-66472867D01*
X181900225Y-66458351D01*
X181865268Y-66445016D01*
X181839097Y-66432183D01*
X181822013Y-66415640D01*
X181812086Y-66390325D01*
X181807386Y-66351176D01*
X181805982Y-66293128D01*
X181805943Y-66211121D01*
X181805744Y-66145755D01*
X181804559Y-66083033D01*
X181801729Y-66040194D01*
X181796609Y-66012080D01*
X181788553Y-65993535D01*
X181776914Y-65979403D01*
X181748303Y-65959460D01*
X181700239Y-65951943D01*
X181652688Y-65970939D01*
X181649550Y-65973371D01*
X181639769Y-65984608D01*
X181632553Y-66002630D01*
X181627299Y-66031886D01*
X181623402Y-66076822D01*
X181620256Y-66141888D01*
X181617257Y-66231530D01*
X181610000Y-66471557D01*
X181548314Y-66443904D01*
X181486629Y-66416251D01*
X181486629Y-66197106D01*
X181486884Y-66137571D01*
X181489086Y-66054752D01*
X181494661Y-65993087D01*
X181504941Y-65947608D01*
X181521258Y-65913344D01*
X181544943Y-65885326D01*
X181577328Y-65858583D01*
X181623907Y-65831640D01*
X181697287Y-65814051D01*
X181771020Y-65821682D01*
G37*
X179947691Y-65870327D02*
X179952273Y-65872863D01*
X179989704Y-65901917D01*
X180023170Y-65939270D01*
X180029007Y-65947712D01*
X180040165Y-65967413D01*
X180048136Y-65990795D01*
X180053618Y-66022927D01*
X180057307Y-66068879D01*
X180059899Y-66133719D01*
X180062092Y-66222517D01*
X180062402Y-66237529D01*
X180063400Y-66334859D01*
X180061994Y-66403794D01*
X180058164Y-66444808D01*
X180051889Y-66458374D01*
X180032898Y-66454312D01*
X180000638Y-66442004D01*
X179993041Y-66438405D01*
X179981176Y-66430258D01*
X179972994Y-66416864D01*
X179967643Y-66393468D01*
X179964269Y-66355315D01*
X179962019Y-66297650D01*
X179960040Y-66215717D01*
X179959498Y-66191767D01*
X179957403Y-66116126D01*
X179954683Y-66063188D01*
X179950515Y-66027935D01*
X179944079Y-66005347D01*
X179934550Y-65990404D01*
X179921106Y-65978087D01*
X179881305Y-65956494D01*
X179832341Y-65952336D01*
X179788529Y-65968859D01*
X179757008Y-66003070D01*
X179744914Y-66051974D01*
X179744578Y-66065267D01*
X179737972Y-66089332D01*
X179718470Y-66093004D01*
X179680283Y-66078673D01*
X179671438Y-66074077D01*
X179647534Y-66047046D01*
X179647061Y-66006854D01*
X179669836Y-65951269D01*
X179690727Y-65920977D01*
X179744142Y-65877944D01*
X179810074Y-65853615D01*
X179880574Y-65850303D01*
X179947691Y-65870327D01*
G36*
X179947691Y-65870327D02*
G01*
X179952273Y-65872863D01*
X179989704Y-65901917D01*
X180023170Y-65939270D01*
X180029007Y-65947712D01*
X180040165Y-65967413D01*
X180048136Y-65990795D01*
X180053618Y-66022927D01*
X180057307Y-66068879D01*
X180059899Y-66133719D01*
X180062092Y-66222517D01*
X180062402Y-66237529D01*
X180063400Y-66334859D01*
X180061994Y-66403794D01*
X180058164Y-66444808D01*
X180051889Y-66458374D01*
X180032898Y-66454312D01*
X180000638Y-66442004D01*
X179993041Y-66438405D01*
X179981176Y-66430258D01*
X179972994Y-66416864D01*
X179967643Y-66393468D01*
X179964269Y-66355315D01*
X179962019Y-66297650D01*
X179960040Y-66215717D01*
X179959498Y-66191767D01*
X179957403Y-66116126D01*
X179954683Y-66063188D01*
X179950515Y-66027935D01*
X179944079Y-66005347D01*
X179934550Y-65990404D01*
X179921106Y-65978087D01*
X179881305Y-65956494D01*
X179832341Y-65952336D01*
X179788529Y-65968859D01*
X179757008Y-66003070D01*
X179744914Y-66051974D01*
X179744578Y-66065267D01*
X179737972Y-66089332D01*
X179718470Y-66093004D01*
X179680283Y-66078673D01*
X179671438Y-66074077D01*
X179647534Y-66047046D01*
X179647061Y-66006854D01*
X179669836Y-65951269D01*
X179690727Y-65920977D01*
X179744142Y-65877944D01*
X179810074Y-65853615D01*
X179880574Y-65850303D01*
X179947691Y-65870327D01*
G37*
X181018543Y-65653304D02*
X181065714Y-65673202D01*
X181065714Y-66070369D01*
X181065519Y-66173358D01*
X181064998Y-66266001D01*
X181064199Y-66344560D01*
X181063172Y-66405299D01*
X181061963Y-66444483D01*
X181060623Y-66458374D01*
X181060099Y-66458328D01*
X181042287Y-66453280D01*
X181009823Y-66442440D01*
X180964114Y-66426506D01*
X180964114Y-66222033D01*
X180963824Y-66141692D01*
X180962474Y-66083422D01*
X180959369Y-66043769D01*
X180953812Y-66017478D01*
X180945107Y-65999296D01*
X180932556Y-65983967D01*
X180923999Y-65975815D01*
X180877728Y-65953235D01*
X180826728Y-65955235D01*
X180779993Y-65981933D01*
X180773189Y-65988558D01*
X180762293Y-66002316D01*
X180754836Y-66020502D01*
X180750169Y-66048037D01*
X180747642Y-66089841D01*
X180746602Y-66150833D01*
X180746400Y-66235933D01*
X180746303Y-66279094D01*
X180745674Y-66350084D01*
X180744556Y-66406936D01*
X180743063Y-66444688D01*
X180741309Y-66458374D01*
X180740785Y-66458328D01*
X180722973Y-66453280D01*
X180690509Y-66442440D01*
X180644800Y-66426506D01*
X180644823Y-66221097D01*
X180644857Y-66202811D01*
X180646778Y-66107486D01*
X180652678Y-66035403D01*
X180664001Y-65981673D01*
X180682187Y-65941409D01*
X180708679Y-65909721D01*
X180744918Y-65881721D01*
X180780263Y-65864193D01*
X180836773Y-65850645D01*
X180892356Y-65849875D01*
X180935086Y-65863055D01*
X180938298Y-65864875D01*
X180948205Y-65864680D01*
X180954975Y-65849432D01*
X180959861Y-65814473D01*
X180964114Y-65755149D01*
X180971371Y-65633407D01*
X181018543Y-65653304D01*
G36*
X181018543Y-65653304D02*
G01*
X181065714Y-65673202D01*
X181065714Y-66070369D01*
X181065519Y-66173358D01*
X181064998Y-66266001D01*
X181064199Y-66344560D01*
X181063172Y-66405299D01*
X181061963Y-66444483D01*
X181060623Y-66458374D01*
X181060099Y-66458328D01*
X181042287Y-66453280D01*
X181009823Y-66442440D01*
X180964114Y-66426506D01*
X180964114Y-66222033D01*
X180963824Y-66141692D01*
X180962474Y-66083422D01*
X180959369Y-66043769D01*
X180953812Y-66017478D01*
X180945107Y-65999296D01*
X180932556Y-65983967D01*
X180923999Y-65975815D01*
X180877728Y-65953235D01*
X180826728Y-65955235D01*
X180779993Y-65981933D01*
X180773189Y-65988558D01*
X180762293Y-66002316D01*
X180754836Y-66020502D01*
X180750169Y-66048037D01*
X180747642Y-66089841D01*
X180746602Y-66150833D01*
X180746400Y-66235933D01*
X180746303Y-66279094D01*
X180745674Y-66350084D01*
X180744556Y-66406936D01*
X180743063Y-66444688D01*
X180741309Y-66458374D01*
X180740785Y-66458328D01*
X180722973Y-66453280D01*
X180690509Y-66442440D01*
X180644800Y-66426506D01*
X180644823Y-66221097D01*
X180644857Y-66202811D01*
X180646778Y-66107486D01*
X180652678Y-66035403D01*
X180664001Y-65981673D01*
X180682187Y-65941409D01*
X180708679Y-65909721D01*
X180744918Y-65881721D01*
X180780263Y-65864193D01*
X180836773Y-65850645D01*
X180892356Y-65849875D01*
X180935086Y-65863055D01*
X180938298Y-65864875D01*
X180948205Y-65864680D01*
X180954975Y-65849432D01*
X180959861Y-65814473D01*
X180964114Y-65755149D01*
X180971371Y-65633407D01*
X181018543Y-65653304D01*
G37*
X178993941Y-65853142D02*
X179025774Y-65865618D01*
X179062743Y-65882462D01*
X179062743Y-66369056D01*
X179016812Y-66414987D01*
X179006320Y-66425287D01*
X178977255Y-66448180D01*
X178947943Y-66455595D01*
X178904326Y-66452181D01*
X178886568Y-66449974D01*
X178840767Y-66445305D01*
X178808743Y-66443445D01*
X178799244Y-66443729D01*
X178760274Y-66446808D01*
X178713160Y-66452181D01*
X178698085Y-66454028D01*
X178660110Y-66454753D01*
X178632325Y-66443289D01*
X178600674Y-66414987D01*
X178554743Y-66369056D01*
X178554743Y-66108915D01*
X178555101Y-66032040D01*
X178556216Y-65958746D01*
X178557952Y-65900710D01*
X178560167Y-65862523D01*
X178562721Y-65848774D01*
X178563256Y-65848811D01*
X178581808Y-65855653D01*
X178613153Y-65870728D01*
X178655608Y-65892682D01*
X178659604Y-66121100D01*
X178663600Y-66349517D01*
X178750686Y-66349517D01*
X178754657Y-66099146D01*
X178755916Y-66031087D01*
X178757718Y-65958342D01*
X178759671Y-65900590D01*
X178761612Y-65862508D01*
X178763377Y-65848774D01*
X178763885Y-65848822D01*
X178781482Y-65853875D01*
X178813834Y-65864709D01*
X178859543Y-65880643D01*
X178859765Y-66100566D01*
X178859988Y-66138769D01*
X178861531Y-66213006D01*
X178864292Y-66275005D01*
X178867977Y-66319168D01*
X178872292Y-66339901D01*
X178887732Y-66350991D01*
X178919241Y-66354416D01*
X178953886Y-66349517D01*
X178957857Y-66099146D01*
X178959278Y-66035523D01*
X178962225Y-65960216D01*
X178966079Y-65901146D01*
X178970542Y-65862578D01*
X178975317Y-65848774D01*
X178993941Y-65853142D01*
G36*
X178993941Y-65853142D02*
G01*
X179025774Y-65865618D01*
X179062743Y-65882462D01*
X179062743Y-66369056D01*
X179016812Y-66414987D01*
X179006320Y-66425287D01*
X178977255Y-66448180D01*
X178947943Y-66455595D01*
X178904326Y-66452181D01*
X178886568Y-66449974D01*
X178840767Y-66445305D01*
X178808743Y-66443445D01*
X178799244Y-66443729D01*
X178760274Y-66446808D01*
X178713160Y-66452181D01*
X178698085Y-66454028D01*
X178660110Y-66454753D01*
X178632325Y-66443289D01*
X178600674Y-66414987D01*
X178554743Y-66369056D01*
X178554743Y-66108915D01*
X178555101Y-66032040D01*
X178556216Y-65958746D01*
X178557952Y-65900710D01*
X178560167Y-65862523D01*
X178562721Y-65848774D01*
X178563256Y-65848811D01*
X178581808Y-65855653D01*
X178613153Y-65870728D01*
X178655608Y-65892682D01*
X178659604Y-66121100D01*
X178663600Y-66349517D01*
X178750686Y-66349517D01*
X178754657Y-66099146D01*
X178755916Y-66031087D01*
X178757718Y-65958342D01*
X178759671Y-65900590D01*
X178761612Y-65862508D01*
X178763377Y-65848774D01*
X178763885Y-65848822D01*
X178781482Y-65853875D01*
X178813834Y-65864709D01*
X178859543Y-65880643D01*
X178859765Y-66100566D01*
X178859988Y-66138769D01*
X178861531Y-66213006D01*
X178864292Y-66275005D01*
X178867977Y-66319168D01*
X178872292Y-66339901D01*
X178887732Y-66350991D01*
X178919241Y-66354416D01*
X178953886Y-66349517D01*
X178957857Y-66099146D01*
X178959278Y-66035523D01*
X178962225Y-65960216D01*
X178966079Y-65901146D01*
X178970542Y-65862578D01*
X178975317Y-65848774D01*
X178993941Y-65853142D01*
G37*
X183605714Y-66139060D02*
X183605701Y-66154795D01*
X183604914Y-66224979D01*
X183602210Y-66273882D01*
X183596606Y-66308038D01*
X183587119Y-66333984D01*
X183572768Y-66358257D01*
X183569237Y-66363293D01*
X183531878Y-66403003D01*
X183489311Y-66432952D01*
X183467452Y-66442670D01*
X183388908Y-66458880D01*
X183311231Y-66448395D01*
X183239645Y-66412567D01*
X183179374Y-66352747D01*
X183174286Y-66344733D01*
X183157730Y-66298202D01*
X183146573Y-66233412D01*
X183141160Y-66158587D01*
X183141768Y-66089373D01*
X183288248Y-66089373D01*
X183289402Y-66185259D01*
X183289866Y-66191429D01*
X183296629Y-66244338D01*
X183308671Y-66277889D01*
X183329005Y-66300876D01*
X183363097Y-66322408D01*
X183396814Y-66323540D01*
X183431543Y-66298717D01*
X183437584Y-66292185D01*
X183449417Y-66272639D01*
X183456404Y-66244246D01*
X183459727Y-66200290D01*
X183460571Y-66134052D01*
X183459125Y-66072010D01*
X183451907Y-66012902D01*
X183437006Y-65975546D01*
X183412636Y-65956012D01*
X183377008Y-65950374D01*
X183363440Y-65951495D01*
X183325430Y-65972054D01*
X183300312Y-66018159D01*
X183288248Y-66089373D01*
X183141768Y-66089373D01*
X183141833Y-66081956D01*
X183148937Y-66011742D01*
X183162815Y-65956172D01*
X183180649Y-65919161D01*
X183230855Y-65861593D01*
X183298885Y-65825822D01*
X183382158Y-65813525D01*
X183404398Y-65814191D01*
X183469891Y-65827807D01*
X183523687Y-65862109D01*
X183573057Y-65921198D01*
X183575995Y-65925582D01*
X183589287Y-65949159D01*
X183597932Y-65975809D01*
X183602904Y-66012019D01*
X183605174Y-66064273D01*
X183605678Y-66134052D01*
X183605714Y-66139060D01*
G36*
X183605714Y-66139060D02*
G01*
X183605701Y-66154795D01*
X183604914Y-66224979D01*
X183602210Y-66273882D01*
X183596606Y-66308038D01*
X183587119Y-66333984D01*
X183572768Y-66358257D01*
X183569237Y-66363293D01*
X183531878Y-66403003D01*
X183489311Y-66432952D01*
X183467452Y-66442670D01*
X183388908Y-66458880D01*
X183311231Y-66448395D01*
X183239645Y-66412567D01*
X183179374Y-66352747D01*
X183174286Y-66344733D01*
X183157730Y-66298202D01*
X183146573Y-66233412D01*
X183141160Y-66158587D01*
X183141768Y-66089373D01*
X183288248Y-66089373D01*
X183289402Y-66185259D01*
X183289866Y-66191429D01*
X183296629Y-66244338D01*
X183308671Y-66277889D01*
X183329005Y-66300876D01*
X183363097Y-66322408D01*
X183396814Y-66323540D01*
X183431543Y-66298717D01*
X183437584Y-66292185D01*
X183449417Y-66272639D01*
X183456404Y-66244246D01*
X183459727Y-66200290D01*
X183460571Y-66134052D01*
X183459125Y-66072010D01*
X183451907Y-66012902D01*
X183437006Y-65975546D01*
X183412636Y-65956012D01*
X183377008Y-65950374D01*
X183363440Y-65951495D01*
X183325430Y-65972054D01*
X183300312Y-66018159D01*
X183288248Y-66089373D01*
X183141768Y-66089373D01*
X183141833Y-66081956D01*
X183148937Y-66011742D01*
X183162815Y-65956172D01*
X183180649Y-65919161D01*
X183230855Y-65861593D01*
X183298885Y-65825822D01*
X183382158Y-65813525D01*
X183404398Y-65814191D01*
X183469891Y-65827807D01*
X183523687Y-65862109D01*
X183573057Y-65921198D01*
X183575995Y-65925582D01*
X183589287Y-65949159D01*
X183597932Y-65975809D01*
X183602904Y-66012019D01*
X183605174Y-66064273D01*
X183605678Y-66134052D01*
X183605714Y-66139060D01*
G37*
X177480590Y-66156482D02*
X177480307Y-66195165D01*
X177476762Y-66271381D01*
X177467483Y-66327154D01*
X177450375Y-66368473D01*
X177423344Y-66401327D01*
X177384292Y-66431706D01*
X177359445Y-66445520D01*
X177319615Y-66454825D01*
X177263665Y-66454090D01*
X177232385Y-66451143D01*
X177194653Y-66442143D01*
X177164494Y-66422580D01*
X177129408Y-66386127D01*
X177124720Y-66380803D01*
X177093177Y-66339829D01*
X177078128Y-66304143D01*
X177074286Y-66261826D01*
X177074286Y-66199639D01*
X177117742Y-66216042D01*
X177149424Y-66235216D01*
X177176962Y-66280207D01*
X177182711Y-66294612D01*
X177214855Y-66335406D01*
X177258611Y-66355941D01*
X177306254Y-66354095D01*
X177350057Y-66327746D01*
X177365111Y-66311315D01*
X177378763Y-66286527D01*
X177374493Y-66264004D01*
X177349916Y-66240824D01*
X177302651Y-66214062D01*
X177230314Y-66180794D01*
X177081543Y-66115676D01*
X177077595Y-66051168D01*
X177079079Y-66010080D01*
X177176010Y-66010080D01*
X177183368Y-66035517D01*
X177216848Y-66062674D01*
X177277614Y-66093574D01*
X177287669Y-66098050D01*
X177335751Y-66118877D01*
X177371726Y-66133525D01*
X177388444Y-66139060D01*
X177390977Y-66134986D01*
X177391993Y-66110107D01*
X177388369Y-66070117D01*
X177379242Y-66031012D01*
X177350773Y-65981744D01*
X177309678Y-65953982D01*
X177260590Y-65950224D01*
X177208144Y-65972969D01*
X177193609Y-65984341D01*
X177176010Y-66010080D01*
X177079079Y-66010080D01*
X177079338Y-66002924D01*
X177101281Y-65941956D01*
X177128979Y-65908357D01*
X177186405Y-65870826D01*
X177254527Y-65851866D01*
X177324947Y-65853367D01*
X177389267Y-65877215D01*
X177403426Y-65886373D01*
X177435904Y-65914709D01*
X177458116Y-65950555D01*
X177471804Y-65999244D01*
X177478715Y-66066109D01*
X177479628Y-66110107D01*
X177480590Y-66156482D01*
G36*
X177480590Y-66156482D02*
G01*
X177480307Y-66195165D01*
X177476762Y-66271381D01*
X177467483Y-66327154D01*
X177450375Y-66368473D01*
X177423344Y-66401327D01*
X177384292Y-66431706D01*
X177359445Y-66445520D01*
X177319615Y-66454825D01*
X177263665Y-66454090D01*
X177232385Y-66451143D01*
X177194653Y-66442143D01*
X177164494Y-66422580D01*
X177129408Y-66386127D01*
X177124720Y-66380803D01*
X177093177Y-66339829D01*
X177078128Y-66304143D01*
X177074286Y-66261826D01*
X177074286Y-66199639D01*
X177117742Y-66216042D01*
X177149424Y-66235216D01*
X177176962Y-66280207D01*
X177182711Y-66294612D01*
X177214855Y-66335406D01*
X177258611Y-66355941D01*
X177306254Y-66354095D01*
X177350057Y-66327746D01*
X177365111Y-66311315D01*
X177378763Y-66286527D01*
X177374493Y-66264004D01*
X177349916Y-66240824D01*
X177302651Y-66214062D01*
X177230314Y-66180794D01*
X177081543Y-66115676D01*
X177077595Y-66051168D01*
X177079079Y-66010080D01*
X177176010Y-66010080D01*
X177183368Y-66035517D01*
X177216848Y-66062674D01*
X177277614Y-66093574D01*
X177287669Y-66098050D01*
X177335751Y-66118877D01*
X177371726Y-66133525D01*
X177388444Y-66139060D01*
X177390977Y-66134986D01*
X177391993Y-66110107D01*
X177388369Y-66070117D01*
X177379242Y-66031012D01*
X177350773Y-65981744D01*
X177309678Y-65953982D01*
X177260590Y-65950224D01*
X177208144Y-65972969D01*
X177193609Y-65984341D01*
X177176010Y-66010080D01*
X177079079Y-66010080D01*
X177079338Y-66002924D01*
X177101281Y-65941956D01*
X177128979Y-65908357D01*
X177186405Y-65870826D01*
X177254527Y-65851866D01*
X177324947Y-65853367D01*
X177389267Y-65877215D01*
X177403426Y-65886373D01*
X177435904Y-65914709D01*
X177458116Y-65950555D01*
X177471804Y-65999244D01*
X177478715Y-66066109D01*
X177479628Y-66110107D01*
X177480590Y-66156482D01*
G37*
X179570698Y-66153574D02*
X179569537Y-66210173D01*
X179561345Y-66287322D01*
X179543519Y-66345136D01*
X179513975Y-66389282D01*
X179470625Y-66425428D01*
X179429332Y-66446323D01*
X179359987Y-66457950D01*
X179290736Y-66445237D01*
X179228145Y-66409805D01*
X179178779Y-66353278D01*
X179172818Y-66342855D01*
X179164945Y-66324593D01*
X179159106Y-66301289D01*
X179154999Y-66268945D01*
X179152325Y-66223564D01*
X179150781Y-66161147D01*
X179150734Y-66155608D01*
X179251429Y-66155608D01*
X179251772Y-66208437D01*
X179253942Y-66256222D01*
X179259307Y-66287069D01*
X179269217Y-66307795D01*
X179285021Y-66325216D01*
X179288724Y-66328565D01*
X179336299Y-66353279D01*
X179386635Y-66350750D01*
X179433517Y-66321148D01*
X179447477Y-66305813D01*
X179459160Y-66285482D01*
X179465686Y-66257374D01*
X179468524Y-66214410D01*
X179469143Y-66149507D01*
X179468837Y-66099982D01*
X179466722Y-66051642D01*
X179461390Y-66020447D01*
X179451460Y-65999507D01*
X179435550Y-65981933D01*
X179426204Y-65974019D01*
X179377776Y-65952703D01*
X179327040Y-65956058D01*
X179282987Y-65983967D01*
X179273504Y-65995033D01*
X179261939Y-66015869D01*
X179255252Y-66044966D01*
X179252173Y-66089241D01*
X179251429Y-66155608D01*
X179150734Y-66155608D01*
X179150067Y-66077697D01*
X179149883Y-65969218D01*
X179149829Y-65632461D01*
X179197000Y-65652222D01*
X179209472Y-65657630D01*
X179229324Y-65669845D01*
X179240687Y-65688342D01*
X179246933Y-65720689D01*
X179251429Y-65774453D01*
X179255535Y-65822726D01*
X179260963Y-65854417D01*
X179268739Y-65866243D01*
X179280457Y-65863072D01*
X179310318Y-65851927D01*
X179363684Y-65849164D01*
X179421093Y-65859485D01*
X179470625Y-65881721D01*
X179497876Y-65902303D01*
X179532865Y-65942460D01*
X179555274Y-65993946D01*
X179567190Y-66062428D01*
X179570542Y-66149507D01*
X179570698Y-66153574D01*
G36*
X179570698Y-66153574D02*
G01*
X179569537Y-66210173D01*
X179561345Y-66287322D01*
X179543519Y-66345136D01*
X179513975Y-66389282D01*
X179470625Y-66425428D01*
X179429332Y-66446323D01*
X179359987Y-66457950D01*
X179290736Y-66445237D01*
X179228145Y-66409805D01*
X179178779Y-66353278D01*
X179172818Y-66342855D01*
X179164945Y-66324593D01*
X179159106Y-66301289D01*
X179154999Y-66268945D01*
X179152325Y-66223564D01*
X179150781Y-66161147D01*
X179150734Y-66155608D01*
X179251429Y-66155608D01*
X179251772Y-66208437D01*
X179253942Y-66256222D01*
X179259307Y-66287069D01*
X179269217Y-66307795D01*
X179285021Y-66325216D01*
X179288724Y-66328565D01*
X179336299Y-66353279D01*
X179386635Y-66350750D01*
X179433517Y-66321148D01*
X179447477Y-66305813D01*
X179459160Y-66285482D01*
X179465686Y-66257374D01*
X179468524Y-66214410D01*
X179469143Y-66149507D01*
X179468837Y-66099982D01*
X179466722Y-66051642D01*
X179461390Y-66020447D01*
X179451460Y-65999507D01*
X179435550Y-65981933D01*
X179426204Y-65974019D01*
X179377776Y-65952703D01*
X179327040Y-65956058D01*
X179282987Y-65983967D01*
X179273504Y-65995033D01*
X179261939Y-66015869D01*
X179255252Y-66044966D01*
X179252173Y-66089241D01*
X179251429Y-66155608D01*
X179150734Y-66155608D01*
X179150067Y-66077697D01*
X179149883Y-65969218D01*
X179149829Y-65632461D01*
X179197000Y-65652222D01*
X179209472Y-65657630D01*
X179229324Y-65669845D01*
X179240687Y-65688342D01*
X179246933Y-65720689D01*
X179251429Y-65774453D01*
X179255535Y-65822726D01*
X179260963Y-65854417D01*
X179268739Y-65866243D01*
X179280457Y-65863072D01*
X179310318Y-65851927D01*
X179363684Y-65849164D01*
X179421093Y-65859485D01*
X179470625Y-65881721D01*
X179497876Y-65902303D01*
X179532865Y-65942460D01*
X179555274Y-65993946D01*
X179567190Y-66062428D01*
X179570542Y-66149507D01*
X179570698Y-66153574D01*
G37*
X182502299Y-66097915D02*
X182497684Y-66207938D01*
X182495078Y-66231247D01*
X182475660Y-66314212D01*
X182440573Y-66377308D01*
X182387212Y-66425668D01*
X182384196Y-66427664D01*
X182316362Y-66456045D01*
X182245535Y-66458571D01*
X182177289Y-66436957D01*
X182117196Y-66392922D01*
X182070829Y-66328182D01*
X182070050Y-66326621D01*
X182054643Y-66286418D01*
X182043357Y-66240726D01*
X182037370Y-66197832D01*
X182037861Y-66166020D01*
X182046007Y-66153574D01*
X182053244Y-66154331D01*
X182087851Y-66168095D01*
X182127078Y-66193406D01*
X182160448Y-66222705D01*
X182177483Y-66248432D01*
X182195192Y-66283331D01*
X182231485Y-66315072D01*
X182273630Y-66327746D01*
X182289077Y-66324081D01*
X182319569Y-66305634D01*
X182346128Y-66280026D01*
X182357486Y-66256794D01*
X182357482Y-66256708D01*
X182344596Y-66246039D01*
X182310241Y-66226793D01*
X182259593Y-66201673D01*
X182197829Y-66173384D01*
X182197489Y-66173234D01*
X182130388Y-66143358D01*
X182085411Y-66121833D01*
X182058145Y-66105297D01*
X182044178Y-66090391D01*
X182039097Y-66073753D01*
X182038490Y-66052022D01*
X182042712Y-66010873D01*
X182186000Y-66010873D01*
X182200791Y-66023809D01*
X182237644Y-66043193D01*
X182238725Y-66043741D01*
X182282205Y-66064447D01*
X182321102Y-66080965D01*
X182345778Y-66087953D01*
X182355676Y-66078613D01*
X182357486Y-66046608D01*
X182349966Y-66006775D01*
X182323897Y-65970577D01*
X182286154Y-65951810D01*
X182244077Y-65953705D01*
X182205005Y-65979492D01*
X182189647Y-65997311D01*
X182186000Y-66010873D01*
X182042712Y-66010873D01*
X182043833Y-65999946D01*
X182070251Y-65929195D01*
X182114473Y-65873595D01*
X182171697Y-65835099D01*
X182237120Y-65815657D01*
X182305937Y-65817219D01*
X182373347Y-65841738D01*
X182434544Y-65891162D01*
X182468450Y-65940072D01*
X182492806Y-66009887D01*
X182496767Y-66046608D01*
X182502299Y-66097915D01*
G36*
X182502299Y-66097915D02*
G01*
X182497684Y-66207938D01*
X182495078Y-66231247D01*
X182475660Y-66314212D01*
X182440573Y-66377308D01*
X182387212Y-66425668D01*
X182384196Y-66427664D01*
X182316362Y-66456045D01*
X182245535Y-66458571D01*
X182177289Y-66436957D01*
X182117196Y-66392922D01*
X182070829Y-66328182D01*
X182070050Y-66326621D01*
X182054643Y-66286418D01*
X182043357Y-66240726D01*
X182037370Y-66197832D01*
X182037861Y-66166020D01*
X182046007Y-66153574D01*
X182053244Y-66154331D01*
X182087851Y-66168095D01*
X182127078Y-66193406D01*
X182160448Y-66222705D01*
X182177483Y-66248432D01*
X182195192Y-66283331D01*
X182231485Y-66315072D01*
X182273630Y-66327746D01*
X182289077Y-66324081D01*
X182319569Y-66305634D01*
X182346128Y-66280026D01*
X182357486Y-66256794D01*
X182357482Y-66256708D01*
X182344596Y-66246039D01*
X182310241Y-66226793D01*
X182259593Y-66201673D01*
X182197829Y-66173384D01*
X182197489Y-66173234D01*
X182130388Y-66143358D01*
X182085411Y-66121833D01*
X182058145Y-66105297D01*
X182044178Y-66090391D01*
X182039097Y-66073753D01*
X182038490Y-66052022D01*
X182042712Y-66010873D01*
X182186000Y-66010873D01*
X182200791Y-66023809D01*
X182237644Y-66043193D01*
X182238725Y-66043741D01*
X182282205Y-66064447D01*
X182321102Y-66080965D01*
X182345778Y-66087953D01*
X182355676Y-66078613D01*
X182357486Y-66046608D01*
X182349966Y-66006775D01*
X182323897Y-65970577D01*
X182286154Y-65951810D01*
X182244077Y-65953705D01*
X182205005Y-65979492D01*
X182189647Y-65997311D01*
X182186000Y-66010873D01*
X182042712Y-66010873D01*
X182043833Y-65999946D01*
X182070251Y-65929195D01*
X182114473Y-65873595D01*
X182171697Y-65835099D01*
X182237120Y-65815657D01*
X182305937Y-65817219D01*
X182373347Y-65841738D01*
X182434544Y-65891162D01*
X182468450Y-65940072D01*
X182492806Y-66009887D01*
X182496767Y-66046608D01*
X182502299Y-66097915D01*
G37*
X180429483Y-65864429D02*
X180479376Y-65893521D01*
X180501325Y-65916187D01*
X180543504Y-65983942D01*
X180557714Y-66057810D01*
X180557714Y-66108630D01*
X180510999Y-66088988D01*
X180478692Y-66069168D01*
X180453231Y-66028020D01*
X180450616Y-66019535D01*
X180422478Y-65976311D01*
X180380067Y-65952963D01*
X180331370Y-65951960D01*
X180284373Y-65975774D01*
X180277357Y-65981916D01*
X180253893Y-66008605D01*
X180250019Y-66031874D01*
X180267768Y-66054722D01*
X180309179Y-66080147D01*
X180376286Y-66111148D01*
X180380824Y-66113112D01*
X180455322Y-66147850D01*
X180506203Y-66178623D01*
X180537525Y-66209348D01*
X180553343Y-66243942D01*
X180557714Y-66286322D01*
X180551986Y-66333306D01*
X180523062Y-66393445D01*
X180472178Y-66436648D01*
X180435374Y-66449619D01*
X180383434Y-66456716D01*
X180332999Y-66455200D01*
X180296983Y-66444492D01*
X180293158Y-66441826D01*
X180282998Y-66423197D01*
X180290048Y-66390365D01*
X180302297Y-66364595D01*
X180321939Y-66353866D01*
X180359191Y-66354399D01*
X180410908Y-66351322D01*
X180444701Y-66330072D01*
X180456114Y-66290737D01*
X180456104Y-66289607D01*
X180449187Y-66266773D01*
X180425659Y-66245823D01*
X180379914Y-66221675D01*
X180317704Y-66192601D01*
X180276499Y-66176785D01*
X180252712Y-66177804D01*
X180241597Y-66198697D01*
X180238408Y-66242501D01*
X180238400Y-66312253D01*
X180238044Y-66355312D01*
X180236413Y-66408486D01*
X180233761Y-66444882D01*
X180230422Y-66458374D01*
X180229530Y-66458283D01*
X180210237Y-66450970D01*
X180178284Y-66435538D01*
X180134124Y-66412702D01*
X180139371Y-66206938D01*
X180139736Y-66193292D01*
X180143904Y-66097511D01*
X180151268Y-66025322D01*
X180163330Y-65971918D01*
X180181593Y-65932493D01*
X180207560Y-65902240D01*
X180242733Y-65876353D01*
X180243384Y-65875947D01*
X180300256Y-65854828D01*
X180366033Y-65851260D01*
X180429483Y-65864429D01*
G36*
X180429483Y-65864429D02*
G01*
X180479376Y-65893521D01*
X180501325Y-65916187D01*
X180543504Y-65983942D01*
X180557714Y-66057810D01*
X180557714Y-66108630D01*
X180510999Y-66088988D01*
X180478692Y-66069168D01*
X180453231Y-66028020D01*
X180450616Y-66019535D01*
X180422478Y-65976311D01*
X180380067Y-65952963D01*
X180331370Y-65951960D01*
X180284373Y-65975774D01*
X180277357Y-65981916D01*
X180253893Y-66008605D01*
X180250019Y-66031874D01*
X180267768Y-66054722D01*
X180309179Y-66080147D01*
X180376286Y-66111148D01*
X180380824Y-66113112D01*
X180455322Y-66147850D01*
X180506203Y-66178623D01*
X180537525Y-66209348D01*
X180553343Y-66243942D01*
X180557714Y-66286322D01*
X180551986Y-66333306D01*
X180523062Y-66393445D01*
X180472178Y-66436648D01*
X180435374Y-66449619D01*
X180383434Y-66456716D01*
X180332999Y-66455200D01*
X180296983Y-66444492D01*
X180293158Y-66441826D01*
X180282998Y-66423197D01*
X180290048Y-66390365D01*
X180302297Y-66364595D01*
X180321939Y-66353866D01*
X180359191Y-66354399D01*
X180410908Y-66351322D01*
X180444701Y-66330072D01*
X180456114Y-66290737D01*
X180456104Y-66289607D01*
X180449187Y-66266773D01*
X180425659Y-66245823D01*
X180379914Y-66221675D01*
X180317704Y-66192601D01*
X180276499Y-66176785D01*
X180252712Y-66177804D01*
X180241597Y-66198697D01*
X180238408Y-66242501D01*
X180238400Y-66312253D01*
X180238044Y-66355312D01*
X180236413Y-66408486D01*
X180233761Y-66444882D01*
X180230422Y-66458374D01*
X180229530Y-66458283D01*
X180210237Y-66450970D01*
X180178284Y-66435538D01*
X180134124Y-66412702D01*
X180139371Y-66206938D01*
X180139736Y-66193292D01*
X180143904Y-66097511D01*
X180151268Y-66025322D01*
X180163330Y-65971918D01*
X180181593Y-65932493D01*
X180207560Y-65902240D01*
X180242733Y-65876353D01*
X180243384Y-65875947D01*
X180300256Y-65854828D01*
X180366033Y-65851260D01*
X180429483Y-65864429D01*
G37*
X183049815Y-66205384D02*
X183051252Y-66316860D01*
X183051651Y-66349199D01*
X183052929Y-66457315D01*
X183053185Y-66540046D01*
X183051634Y-66600286D01*
X183047490Y-66640933D01*
X183039964Y-66664883D01*
X183028271Y-66675031D01*
X183011624Y-66674274D01*
X182989236Y-66665508D01*
X182960321Y-66651629D01*
X182954142Y-66648668D01*
X182928413Y-66634171D01*
X182914976Y-66616925D01*
X182909834Y-66588168D01*
X182908990Y-66539143D01*
X182908952Y-66451117D01*
X182818276Y-66451117D01*
X182762498Y-66448675D01*
X182718640Y-66438768D01*
X182682218Y-66418746D01*
X182679503Y-66416789D01*
X182642546Y-66383729D01*
X182616826Y-66343791D01*
X182600606Y-66291517D01*
X182592148Y-66221448D01*
X182590083Y-66142290D01*
X182734857Y-66142290D01*
X182734882Y-66155557D01*
X182736261Y-66215444D01*
X182740687Y-66254592D01*
X182749461Y-66280013D01*
X182763886Y-66298717D01*
X182764784Y-66299610D01*
X182800237Y-66323812D01*
X182834596Y-66321427D01*
X182873403Y-66292120D01*
X182882895Y-66282104D01*
X182896876Y-66261568D01*
X182904760Y-66234857D01*
X182908245Y-66194359D01*
X182909029Y-66132463D01*
X182908350Y-66094990D01*
X182900983Y-66026840D01*
X182884168Y-65982190D01*
X182856234Y-65957786D01*
X182815509Y-65950374D01*
X182798350Y-65951954D01*
X182768660Y-65967626D01*
X182749031Y-66002551D01*
X182738188Y-66059761D01*
X182734857Y-66142290D01*
X182590083Y-66142290D01*
X182589714Y-66128127D01*
X182590253Y-66060029D01*
X182592707Y-66008447D01*
X182598158Y-65972676D01*
X182607686Y-65945875D01*
X182622371Y-65921198D01*
X182635852Y-65902340D01*
X182684799Y-65851428D01*
X182740256Y-65823778D01*
X182809928Y-65815025D01*
X182889664Y-65823750D01*
X182958595Y-65855045D01*
X183013113Y-65910241D01*
X183017223Y-65916084D01*
X183026808Y-65931613D01*
X183034151Y-65949358D01*
X183039612Y-65973150D01*
X183043550Y-66006818D01*
X183046323Y-66054193D01*
X183048292Y-66119105D01*
X183048528Y-66132463D01*
X183049815Y-66205384D01*
G36*
X183049815Y-66205384D02*
G01*
X183051252Y-66316860D01*
X183051651Y-66349199D01*
X183052929Y-66457315D01*
X183053185Y-66540046D01*
X183051634Y-66600286D01*
X183047490Y-66640933D01*
X183039964Y-66664883D01*
X183028271Y-66675031D01*
X183011624Y-66674274D01*
X182989236Y-66665508D01*
X182960321Y-66651629D01*
X182954142Y-66648668D01*
X182928413Y-66634171D01*
X182914976Y-66616925D01*
X182909834Y-66588168D01*
X182908990Y-66539143D01*
X182908952Y-66451117D01*
X182818276Y-66451117D01*
X182762498Y-66448675D01*
X182718640Y-66438768D01*
X182682218Y-66418746D01*
X182679503Y-66416789D01*
X182642546Y-66383729D01*
X182616826Y-66343791D01*
X182600606Y-66291517D01*
X182592148Y-66221448D01*
X182590083Y-66142290D01*
X182734857Y-66142290D01*
X182734882Y-66155557D01*
X182736261Y-66215444D01*
X182740687Y-66254592D01*
X182749461Y-66280013D01*
X182763886Y-66298717D01*
X182764784Y-66299610D01*
X182800237Y-66323812D01*
X182834596Y-66321427D01*
X182873403Y-66292120D01*
X182882895Y-66282104D01*
X182896876Y-66261568D01*
X182904760Y-66234857D01*
X182908245Y-66194359D01*
X182909029Y-66132463D01*
X182908350Y-66094990D01*
X182900983Y-66026840D01*
X182884168Y-65982190D01*
X182856234Y-65957786D01*
X182815509Y-65950374D01*
X182798350Y-65951954D01*
X182768660Y-65967626D01*
X182749031Y-66002551D01*
X182738188Y-66059761D01*
X182734857Y-66142290D01*
X182590083Y-66142290D01*
X182589714Y-66128127D01*
X182590253Y-66060029D01*
X182592707Y-66008447D01*
X182598158Y-65972676D01*
X182607686Y-65945875D01*
X182622371Y-65921198D01*
X182635852Y-65902340D01*
X182684799Y-65851428D01*
X182740256Y-65823778D01*
X182809928Y-65815025D01*
X182889664Y-65823750D01*
X182958595Y-65855045D01*
X183013113Y-65910241D01*
X183017223Y-65916084D01*
X183026808Y-65931613D01*
X183034151Y-65949358D01*
X183039612Y-65973150D01*
X183043550Y-66006818D01*
X183046323Y-66054193D01*
X183048292Y-66119105D01*
X183048528Y-66132463D01*
X183049815Y-66205384D01*
G37*
X178307495Y-65850080D02*
X178338599Y-65857981D01*
X178367559Y-65877677D01*
X178404831Y-65914344D01*
X178428801Y-65940238D01*
X178453770Y-65973857D01*
X178465031Y-66005366D01*
X178467657Y-66045345D01*
X178467657Y-66110777D01*
X178423035Y-66087702D01*
X178387673Y-66059584D01*
X178363451Y-66021708D01*
X178359291Y-66011411D01*
X178327594Y-65971497D01*
X178283554Y-65951484D01*
X178235531Y-65953432D01*
X178191886Y-65979403D01*
X178173420Y-66000495D01*
X178162663Y-66027479D01*
X178174178Y-66051494D01*
X178209981Y-66075651D01*
X178272090Y-66103059D01*
X178281515Y-66106845D01*
X178338058Y-66131619D01*
X178386580Y-66156049D01*
X178417451Y-66175346D01*
X178448371Y-66209813D01*
X178468927Y-66264817D01*
X178466744Y-66323843D01*
X178442424Y-66379705D01*
X178396568Y-66425215D01*
X178359438Y-66444587D01*
X178287711Y-66458152D01*
X178247852Y-66456322D01*
X178210953Y-66446428D01*
X178196797Y-66425666D01*
X178202091Y-66391473D01*
X178203631Y-66386952D01*
X178215842Y-66362976D01*
X178236174Y-66353902D01*
X178274908Y-66354509D01*
X178302257Y-66355334D01*
X178334257Y-66348252D01*
X178356182Y-66327079D01*
X178368670Y-66301012D01*
X178370062Y-66273705D01*
X178369998Y-66273545D01*
X178353807Y-66258790D01*
X178319155Y-66237317D01*
X178274321Y-66213318D01*
X178227582Y-66190985D01*
X178187217Y-66174512D01*
X178161504Y-66168089D01*
X178157679Y-66174378D01*
X178152864Y-66203975D01*
X178149566Y-66252307D01*
X178148343Y-66313232D01*
X178148058Y-66355402D01*
X178146718Y-66408513D01*
X178144528Y-66444885D01*
X178141769Y-66458374D01*
X178127344Y-66453841D01*
X178098226Y-66441530D01*
X178061257Y-66424686D01*
X178061257Y-66208581D01*
X178061493Y-66153187D01*
X178063729Y-66069067D01*
X178069423Y-66006660D01*
X178079903Y-65961218D01*
X178096497Y-65927993D01*
X178120531Y-65902238D01*
X178153333Y-65879204D01*
X178195124Y-65860195D01*
X178272287Y-65848774D01*
X178307495Y-65850080D01*
G36*
X178307495Y-65850080D02*
G01*
X178338599Y-65857981D01*
X178367559Y-65877677D01*
X178404831Y-65914344D01*
X178428801Y-65940238D01*
X178453770Y-65973857D01*
X178465031Y-66005366D01*
X178467657Y-66045345D01*
X178467657Y-66110777D01*
X178423035Y-66087702D01*
X178387673Y-66059584D01*
X178363451Y-66021708D01*
X178359291Y-66011411D01*
X178327594Y-65971497D01*
X178283554Y-65951484D01*
X178235531Y-65953432D01*
X178191886Y-65979403D01*
X178173420Y-66000495D01*
X178162663Y-66027479D01*
X178174178Y-66051494D01*
X178209981Y-66075651D01*
X178272090Y-66103059D01*
X178281515Y-66106845D01*
X178338058Y-66131619D01*
X178386580Y-66156049D01*
X178417451Y-66175346D01*
X178448371Y-66209813D01*
X178468927Y-66264817D01*
X178466744Y-66323843D01*
X178442424Y-66379705D01*
X178396568Y-66425215D01*
X178359438Y-66444587D01*
X178287711Y-66458152D01*
X178247852Y-66456322D01*
X178210953Y-66446428D01*
X178196797Y-66425666D01*
X178202091Y-66391473D01*
X178203631Y-66386952D01*
X178215842Y-66362976D01*
X178236174Y-66353902D01*
X178274908Y-66354509D01*
X178302257Y-66355334D01*
X178334257Y-66348252D01*
X178356182Y-66327079D01*
X178368670Y-66301012D01*
X178370062Y-66273705D01*
X178369998Y-66273545D01*
X178353807Y-66258790D01*
X178319155Y-66237317D01*
X178274321Y-66213318D01*
X178227582Y-66190985D01*
X178187217Y-66174512D01*
X178161504Y-66168089D01*
X178157679Y-66174378D01*
X178152864Y-66203975D01*
X178149566Y-66252307D01*
X178148343Y-66313232D01*
X178148058Y-66355402D01*
X178146718Y-66408513D01*
X178144528Y-66444885D01*
X178141769Y-66458374D01*
X178127344Y-66453841D01*
X178098226Y-66441530D01*
X178061257Y-66424686D01*
X178061257Y-66208581D01*
X178061493Y-66153187D01*
X178063729Y-66069067D01*
X178069423Y-66006660D01*
X178079903Y-65961218D01*
X178096497Y-65927993D01*
X178120531Y-65902238D01*
X178153333Y-65879204D01*
X178195124Y-65860195D01*
X178272287Y-65848774D01*
X178307495Y-65850080D01*
G37*
X180453933Y-61146231D02*
X180529856Y-61146725D01*
X180584491Y-61147995D01*
X180621500Y-61150407D01*
X180644547Y-61154327D01*
X180657296Y-61160122D01*
X180663411Y-61168159D01*
X180666556Y-61178803D01*
X180666646Y-61179185D01*
X180671814Y-61204207D01*
X180681209Y-61252541D01*
X180693867Y-61319120D01*
X180708825Y-61398874D01*
X180725119Y-61486735D01*
X180726448Y-61493924D01*
X180742691Y-61579200D01*
X180757805Y-61654102D01*
X180770808Y-61714079D01*
X180780715Y-61754577D01*
X180786544Y-61771044D01*
X180786575Y-61771070D01*
X180804943Y-61780180D01*
X180842640Y-61795317D01*
X180891543Y-61813218D01*
X180894297Y-61814190D01*
X180956817Y-61837819D01*
X181029543Y-61867455D01*
X181097294Y-61896922D01*
X181208703Y-61947486D01*
X181455399Y-61779020D01*
X181472775Y-61767171D01*
X181547202Y-61716807D01*
X181613614Y-61672472D01*
X181668039Y-61636776D01*
X181706506Y-61612331D01*
X181725042Y-61601749D01*
X181737743Y-61604175D01*
X181766579Y-61622970D01*
X181811143Y-61660190D01*
X181872670Y-61716880D01*
X181952398Y-61794087D01*
X181959532Y-61801115D01*
X182022796Y-61864082D01*
X182078990Y-61921128D01*
X182124677Y-61968677D01*
X182156414Y-62003157D01*
X182170764Y-62020991D01*
X182170810Y-62021077D01*
X182172633Y-62034655D01*
X182165910Y-62056680D01*
X182148946Y-62090164D01*
X182120044Y-62138121D01*
X182077508Y-62203564D01*
X182019644Y-62289505D01*
X182009783Y-62304011D01*
X181959913Y-62377495D01*
X181915905Y-62442547D01*
X181880380Y-62495277D01*
X181855959Y-62531796D01*
X181845264Y-62548216D01*
X181844458Y-62551694D01*
X181849518Y-62577645D01*
X181864677Y-62620019D01*
X181887463Y-62671588D01*
X181918429Y-62739030D01*
X181953004Y-62819055D01*
X181982366Y-62891489D01*
X181989645Y-62910237D01*
X182008710Y-62958106D01*
X182022715Y-62991456D01*
X182029041Y-63003974D01*
X182036025Y-63004910D01*
X182067413Y-63010321D01*
X182118787Y-63019666D01*
X182184802Y-63031929D01*
X182260113Y-63046092D01*
X182339375Y-63061140D01*
X182417243Y-63076055D01*
X182488370Y-63089821D01*
X182547412Y-63101422D01*
X182589022Y-63109840D01*
X182607857Y-63114059D01*
X182610980Y-63115249D01*
X182618591Y-63121665D01*
X182624254Y-63135325D01*
X182628251Y-63159859D01*
X182630866Y-63198898D01*
X182632384Y-63256073D01*
X182633086Y-63335014D01*
X182633257Y-63439352D01*
X182633257Y-63756659D01*
X182557057Y-63771699D01*
X182547840Y-63773502D01*
X182498891Y-63782840D01*
X182431205Y-63795529D01*
X182352478Y-63810133D01*
X182270400Y-63825215D01*
X182238078Y-63831282D01*
X182165855Y-63846041D01*
X182105666Y-63859997D01*
X182063040Y-63871812D01*
X182043510Y-63880147D01*
X182034660Y-63893765D01*
X182018548Y-63929798D01*
X182002065Y-63976432D01*
X181996263Y-63993894D01*
X181974906Y-64051218D01*
X181947359Y-64119061D01*
X181918107Y-64186215D01*
X181902463Y-64221290D01*
X181880174Y-64273682D01*
X181864857Y-64312918D01*
X181859162Y-64332423D01*
X181859478Y-64333896D01*
X181870281Y-64354589D01*
X181894638Y-64394525D01*
X181930081Y-64449832D01*
X181974136Y-64516641D01*
X182024332Y-64591080D01*
X182189501Y-64833483D01*
X181972503Y-65050843D01*
X181951516Y-65071759D01*
X181887342Y-65134365D01*
X181829990Y-65188355D01*
X181782820Y-65230686D01*
X181749192Y-65258317D01*
X181732467Y-65268203D01*
X181714303Y-65260681D01*
X181676265Y-65239087D01*
X181622726Y-65206011D01*
X181557884Y-65164051D01*
X181485940Y-65115803D01*
X181415275Y-65068151D01*
X181351526Y-65026188D01*
X181299513Y-64993025D01*
X181263279Y-64971238D01*
X181246867Y-64963403D01*
X181245905Y-64963474D01*
X181224103Y-64971198D01*
X181185440Y-64989183D01*
X181137612Y-65013873D01*
X181137110Y-65014144D01*
X181073587Y-65045959D01*
X181030060Y-65061502D01*
X181003052Y-65061545D01*
X180989090Y-65046860D01*
X180983180Y-65032404D01*
X180967229Y-64993691D01*
X180942660Y-64934176D01*
X180910779Y-64857025D01*
X180872893Y-64765401D01*
X180830310Y-64662467D01*
X180784337Y-64551386D01*
X180742667Y-64450332D01*
X180700268Y-64346640D01*
X180662756Y-64253979D01*
X180631388Y-64175502D01*
X180607425Y-64114360D01*
X180592123Y-64073703D01*
X180586743Y-64056685D01*
X180597018Y-64041079D01*
X180625563Y-64015022D01*
X180665971Y-63984747D01*
X180762979Y-63905544D01*
X180849793Y-63804335D01*
X180913322Y-63692976D01*
X180953177Y-63574753D01*
X180968965Y-63452955D01*
X180960296Y-63330870D01*
X180926778Y-63211785D01*
X180868021Y-63098989D01*
X180783632Y-62995771D01*
X180739631Y-62955573D01*
X180634211Y-62884498D01*
X180521410Y-62838161D01*
X180404525Y-62815459D01*
X180286853Y-62815288D01*
X180171690Y-62836547D01*
X180062335Y-62878130D01*
X179962083Y-62938936D01*
X179874233Y-63017861D01*
X179802080Y-63113801D01*
X179748922Y-63225655D01*
X179718057Y-63352317D01*
X179712392Y-63413367D01*
X179720185Y-63545636D01*
X179755284Y-63671126D01*
X179816649Y-63787619D01*
X179903243Y-63892899D01*
X180014029Y-63984747D01*
X180052931Y-64013790D01*
X180082104Y-64040132D01*
X180093257Y-64056660D01*
X180088810Y-64071069D01*
X180074378Y-64109675D01*
X180051173Y-64169061D01*
X180020452Y-64246075D01*
X179983474Y-64337563D01*
X179941496Y-64440376D01*
X179895778Y-64551362D01*
X179854178Y-64651932D01*
X179811222Y-64755807D01*
X179772829Y-64848679D01*
X179740305Y-64927385D01*
X179714958Y-64988759D01*
X179698095Y-65029639D01*
X179691025Y-65046860D01*
X179690943Y-65047064D01*
X179676798Y-65061605D01*
X179649659Y-65061439D01*
X179606023Y-65045787D01*
X179542388Y-65013873D01*
X179537379Y-65011186D01*
X179490125Y-64987010D01*
X179452811Y-64969897D01*
X179433133Y-64963403D01*
X179417005Y-64971078D01*
X179380959Y-64992731D01*
X179329092Y-65025788D01*
X179265445Y-65067670D01*
X179194060Y-65115803D01*
X179123724Y-65162991D01*
X179058670Y-65205127D01*
X179004820Y-65238438D01*
X178966374Y-65260329D01*
X178947534Y-65268203D01*
X178944325Y-65267203D01*
X178921954Y-65251444D01*
X178883733Y-65218893D01*
X178833021Y-65172593D01*
X178773181Y-65115586D01*
X178707571Y-65050918D01*
X178490648Y-64833632D01*
X178659601Y-64585113D01*
X178828553Y-64336593D01*
X178777183Y-64225455D01*
X178777031Y-64225126D01*
X178746183Y-64154278D01*
X178714661Y-64075383D01*
X178689266Y-64005460D01*
X178685423Y-63994182D01*
X178666047Y-63941827D01*
X178648574Y-63901143D01*
X178636388Y-63880147D01*
X178631426Y-63877182D01*
X178601634Y-63867235D01*
X178551047Y-63854365D01*
X178485194Y-63839913D01*
X178409600Y-63825215D01*
X178386957Y-63821070D01*
X178305038Y-63805976D01*
X178228600Y-63791759D01*
X178165337Y-63779855D01*
X178122943Y-63771699D01*
X178046743Y-63756659D01*
X178046743Y-63439352D01*
X178046760Y-63400336D01*
X178047082Y-63305152D01*
X178048033Y-63234115D01*
X178049896Y-63183594D01*
X178052955Y-63149958D01*
X178057494Y-63129578D01*
X178063795Y-63118822D01*
X178072143Y-63114059D01*
X178080224Y-63112130D01*
X178113172Y-63105305D01*
X178165736Y-63094882D01*
X178232569Y-63081878D01*
X178308328Y-63067309D01*
X178387665Y-63052193D01*
X178465237Y-63037545D01*
X178535698Y-63024383D01*
X178593702Y-63013723D01*
X178633904Y-63006581D01*
X178650959Y-63003974D01*
X178652112Y-63002401D01*
X178661385Y-62981979D01*
X178677432Y-62942905D01*
X178697635Y-62891489D01*
X178725672Y-62822213D01*
X178760186Y-62742150D01*
X178792538Y-62671588D01*
X178799952Y-62655749D01*
X178820755Y-62606153D01*
X178833219Y-62567898D01*
X178834863Y-62548216D01*
X178834015Y-62546822D01*
X178820548Y-62526280D01*
X178793850Y-62486376D01*
X178756539Y-62431000D01*
X178711234Y-62364037D01*
X178660552Y-62289377D01*
X178603445Y-62204552D01*
X178560607Y-62138660D01*
X178531460Y-62090338D01*
X178514317Y-62056593D01*
X178507495Y-62034432D01*
X178509306Y-62020862D01*
X178509915Y-62019844D01*
X178526297Y-62000070D01*
X178559695Y-61964035D01*
X178606671Y-61915311D01*
X178663786Y-61857472D01*
X178727603Y-61794087D01*
X178793802Y-61729765D01*
X178858648Y-61669307D01*
X178906299Y-61628515D01*
X178937990Y-61606344D01*
X178954958Y-61601749D01*
X178957175Y-61602781D01*
X178980524Y-61616697D01*
X179022912Y-61643890D01*
X179080369Y-61681749D01*
X179148923Y-61727663D01*
X179224601Y-61779020D01*
X179471298Y-61947486D01*
X179582706Y-61896922D01*
X179585943Y-61895457D01*
X179654343Y-61865825D01*
X179726907Y-61836353D01*
X179788457Y-61813218D01*
X179788729Y-61813122D01*
X179837595Y-61795227D01*
X179875212Y-61780113D01*
X179893457Y-61771044D01*
X179893752Y-61770715D01*
X179899946Y-61752142D01*
X179910139Y-61709905D01*
X179923348Y-61648556D01*
X179938590Y-61572649D01*
X179954881Y-61486735D01*
X179955449Y-61483656D01*
X179971713Y-61395988D01*
X179986608Y-61316601D01*
X179999171Y-61250561D01*
X180008438Y-61202939D01*
X180013444Y-61178803D01*
X180013764Y-61177465D01*
X180017060Y-61167133D01*
X180023738Y-61159366D01*
X180037462Y-61153800D01*
X180061895Y-61150067D01*
X180100702Y-61147802D01*
X180157546Y-61146638D01*
X180236090Y-61146208D01*
X180340000Y-61146146D01*
X180353056Y-61146146D01*
X180453933Y-61146231D01*
G36*
X180453933Y-61146231D02*
G01*
X180529856Y-61146725D01*
X180584491Y-61147995D01*
X180621500Y-61150407D01*
X180644547Y-61154327D01*
X180657296Y-61160122D01*
X180663411Y-61168159D01*
X180666556Y-61178803D01*
X180666646Y-61179185D01*
X180671814Y-61204207D01*
X180681209Y-61252541D01*
X180693867Y-61319120D01*
X180708825Y-61398874D01*
X180725119Y-61486735D01*
X180726448Y-61493924D01*
X180742691Y-61579200D01*
X180757805Y-61654102D01*
X180770808Y-61714079D01*
X180780715Y-61754577D01*
X180786544Y-61771044D01*
X180786575Y-61771070D01*
X180804943Y-61780180D01*
X180842640Y-61795317D01*
X180891543Y-61813218D01*
X180894297Y-61814190D01*
X180956817Y-61837819D01*
X181029543Y-61867455D01*
X181097294Y-61896922D01*
X181208703Y-61947486D01*
X181455399Y-61779020D01*
X181472775Y-61767171D01*
X181547202Y-61716807D01*
X181613614Y-61672472D01*
X181668039Y-61636776D01*
X181706506Y-61612331D01*
X181725042Y-61601749D01*
X181737743Y-61604175D01*
X181766579Y-61622970D01*
X181811143Y-61660190D01*
X181872670Y-61716880D01*
X181952398Y-61794087D01*
X181959532Y-61801115D01*
X182022796Y-61864082D01*
X182078990Y-61921128D01*
X182124677Y-61968677D01*
X182156414Y-62003157D01*
X182170764Y-62020991D01*
X182170810Y-62021077D01*
X182172633Y-62034655D01*
X182165910Y-62056680D01*
X182148946Y-62090164D01*
X182120044Y-62138121D01*
X182077508Y-62203564D01*
X182019644Y-62289505D01*
X182009783Y-62304011D01*
X181959913Y-62377495D01*
X181915905Y-62442547D01*
X181880380Y-62495277D01*
X181855959Y-62531796D01*
X181845264Y-62548216D01*
X181844458Y-62551694D01*
X181849518Y-62577645D01*
X181864677Y-62620019D01*
X181887463Y-62671588D01*
X181918429Y-62739030D01*
X181953004Y-62819055D01*
X181982366Y-62891489D01*
X181989645Y-62910237D01*
X182008710Y-62958106D01*
X182022715Y-62991456D01*
X182029041Y-63003974D01*
X182036025Y-63004910D01*
X182067413Y-63010321D01*
X182118787Y-63019666D01*
X182184802Y-63031929D01*
X182260113Y-63046092D01*
X182339375Y-63061140D01*
X182417243Y-63076055D01*
X182488370Y-63089821D01*
X182547412Y-63101422D01*
X182589022Y-63109840D01*
X182607857Y-63114059D01*
X182610980Y-63115249D01*
X182618591Y-63121665D01*
X182624254Y-63135325D01*
X182628251Y-63159859D01*
X182630866Y-63198898D01*
X182632384Y-63256073D01*
X182633086Y-63335014D01*
X182633257Y-63439352D01*
X182633257Y-63756659D01*
X182557057Y-63771699D01*
X182547840Y-63773502D01*
X182498891Y-63782840D01*
X182431205Y-63795529D01*
X182352478Y-63810133D01*
X182270400Y-63825215D01*
X182238078Y-63831282D01*
X182165855Y-63846041D01*
X182105666Y-63859997D01*
X182063040Y-63871812D01*
X182043510Y-63880147D01*
X182034660Y-63893765D01*
X182018548Y-63929798D01*
X182002065Y-63976432D01*
X181996263Y-63993894D01*
X181974906Y-64051218D01*
X181947359Y-64119061D01*
X181918107Y-64186215D01*
X181902463Y-64221290D01*
X181880174Y-64273682D01*
X181864857Y-64312918D01*
X181859162Y-64332423D01*
X181859478Y-64333896D01*
X181870281Y-64354589D01*
X181894638Y-64394525D01*
X181930081Y-64449832D01*
X181974136Y-64516641D01*
X182024332Y-64591080D01*
X182189501Y-64833483D01*
X181972503Y-65050843D01*
X181951516Y-65071759D01*
X181887342Y-65134365D01*
X181829990Y-65188355D01*
X181782820Y-65230686D01*
X181749192Y-65258317D01*
X181732467Y-65268203D01*
X181714303Y-65260681D01*
X181676265Y-65239087D01*
X181622726Y-65206011D01*
X181557884Y-65164051D01*
X181485940Y-65115803D01*
X181415275Y-65068151D01*
X181351526Y-65026188D01*
X181299513Y-64993025D01*
X181263279Y-64971238D01*
X181246867Y-64963403D01*
X181245905Y-64963474D01*
X181224103Y-64971198D01*
X181185440Y-64989183D01*
X181137612Y-65013873D01*
X181137110Y-65014144D01*
X181073587Y-65045959D01*
X181030060Y-65061502D01*
X181003052Y-65061545D01*
X180989090Y-65046860D01*
X180983180Y-65032404D01*
X180967229Y-64993691D01*
X180942660Y-64934176D01*
X180910779Y-64857025D01*
X180872893Y-64765401D01*
X180830310Y-64662467D01*
X180784337Y-64551386D01*
X180742667Y-64450332D01*
X180700268Y-64346640D01*
X180662756Y-64253979D01*
X180631388Y-64175502D01*
X180607425Y-64114360D01*
X180592123Y-64073703D01*
X180586743Y-64056685D01*
X180597018Y-64041079D01*
X180625563Y-64015022D01*
X180665971Y-63984747D01*
X180762979Y-63905544D01*
X180849793Y-63804335D01*
X180913322Y-63692976D01*
X180953177Y-63574753D01*
X180968965Y-63452955D01*
X180960296Y-63330870D01*
X180926778Y-63211785D01*
X180868021Y-63098989D01*
X180783632Y-62995771D01*
X180739631Y-62955573D01*
X180634211Y-62884498D01*
X180521410Y-62838161D01*
X180404525Y-62815459D01*
X180286853Y-62815288D01*
X180171690Y-62836547D01*
X180062335Y-62878130D01*
X179962083Y-62938936D01*
X179874233Y-63017861D01*
X179802080Y-63113801D01*
X179748922Y-63225655D01*
X179718057Y-63352317D01*
X179712392Y-63413367D01*
X179720185Y-63545636D01*
X179755284Y-63671126D01*
X179816649Y-63787619D01*
X179903243Y-63892899D01*
X180014029Y-63984747D01*
X180052931Y-64013790D01*
X180082104Y-64040132D01*
X180093257Y-64056660D01*
X180088810Y-64071069D01*
X180074378Y-64109675D01*
X180051173Y-64169061D01*
X180020452Y-64246075D01*
X179983474Y-64337563D01*
X179941496Y-64440376D01*
X179895778Y-64551362D01*
X179854178Y-64651932D01*
X179811222Y-64755807D01*
X179772829Y-64848679D01*
X179740305Y-64927385D01*
X179714958Y-64988759D01*
X179698095Y-65029639D01*
X179691025Y-65046860D01*
X179690943Y-65047064D01*
X179676798Y-65061605D01*
X179649659Y-65061439D01*
X179606023Y-65045787D01*
X179542388Y-65013873D01*
X179537379Y-65011186D01*
X179490125Y-64987010D01*
X179452811Y-64969897D01*
X179433133Y-64963403D01*
X179417005Y-64971078D01*
X179380959Y-64992731D01*
X179329092Y-65025788D01*
X179265445Y-65067670D01*
X179194060Y-65115803D01*
X179123724Y-65162991D01*
X179058670Y-65205127D01*
X179004820Y-65238438D01*
X178966374Y-65260329D01*
X178947534Y-65268203D01*
X178944325Y-65267203D01*
X178921954Y-65251444D01*
X178883733Y-65218893D01*
X178833021Y-65172593D01*
X178773181Y-65115586D01*
X178707571Y-65050918D01*
X178490648Y-64833632D01*
X178659601Y-64585113D01*
X178828553Y-64336593D01*
X178777183Y-64225455D01*
X178777031Y-64225126D01*
X178746183Y-64154278D01*
X178714661Y-64075383D01*
X178689266Y-64005460D01*
X178685423Y-63994182D01*
X178666047Y-63941827D01*
X178648574Y-63901143D01*
X178636388Y-63880147D01*
X178631426Y-63877182D01*
X178601634Y-63867235D01*
X178551047Y-63854365D01*
X178485194Y-63839913D01*
X178409600Y-63825215D01*
X178386957Y-63821070D01*
X178305038Y-63805976D01*
X178228600Y-63791759D01*
X178165337Y-63779855D01*
X178122943Y-63771699D01*
X178046743Y-63756659D01*
X178046743Y-63439352D01*
X178046760Y-63400336D01*
X178047082Y-63305152D01*
X178048033Y-63234115D01*
X178049896Y-63183594D01*
X178052955Y-63149958D01*
X178057494Y-63129578D01*
X178063795Y-63118822D01*
X178072143Y-63114059D01*
X178080224Y-63112130D01*
X178113172Y-63105305D01*
X178165736Y-63094882D01*
X178232569Y-63081878D01*
X178308328Y-63067309D01*
X178387665Y-63052193D01*
X178465237Y-63037545D01*
X178535698Y-63024383D01*
X178593702Y-63013723D01*
X178633904Y-63006581D01*
X178650959Y-63003974D01*
X178652112Y-63002401D01*
X178661385Y-62981979D01*
X178677432Y-62942905D01*
X178697635Y-62891489D01*
X178725672Y-62822213D01*
X178760186Y-62742150D01*
X178792538Y-62671588D01*
X178799952Y-62655749D01*
X178820755Y-62606153D01*
X178833219Y-62567898D01*
X178834863Y-62548216D01*
X178834015Y-62546822D01*
X178820548Y-62526280D01*
X178793850Y-62486376D01*
X178756539Y-62431000D01*
X178711234Y-62364037D01*
X178660552Y-62289377D01*
X178603445Y-62204552D01*
X178560607Y-62138660D01*
X178531460Y-62090338D01*
X178514317Y-62056593D01*
X178507495Y-62034432D01*
X178509306Y-62020862D01*
X178509915Y-62019844D01*
X178526297Y-62000070D01*
X178559695Y-61964035D01*
X178606671Y-61915311D01*
X178663786Y-61857472D01*
X178727603Y-61794087D01*
X178793802Y-61729765D01*
X178858648Y-61669307D01*
X178906299Y-61628515D01*
X178937990Y-61606344D01*
X178954958Y-61601749D01*
X178957175Y-61602781D01*
X178980524Y-61616697D01*
X179022912Y-61643890D01*
X179080369Y-61681749D01*
X179148923Y-61727663D01*
X179224601Y-61779020D01*
X179471298Y-61947486D01*
X179582706Y-61896922D01*
X179585943Y-61895457D01*
X179654343Y-61865825D01*
X179726907Y-61836353D01*
X179788457Y-61813218D01*
X179788729Y-61813122D01*
X179837595Y-61795227D01*
X179875212Y-61780113D01*
X179893457Y-61771044D01*
X179893752Y-61770715D01*
X179899946Y-61752142D01*
X179910139Y-61709905D01*
X179923348Y-61648556D01*
X179938590Y-61572649D01*
X179954881Y-61486735D01*
X179955449Y-61483656D01*
X179971713Y-61395988D01*
X179986608Y-61316601D01*
X179999171Y-61250561D01*
X180008438Y-61202939D01*
X180013444Y-61178803D01*
X180013764Y-61177465D01*
X180017060Y-61167133D01*
X180023738Y-61159366D01*
X180037462Y-61153800D01*
X180061895Y-61150067D01*
X180100702Y-61147802D01*
X180157546Y-61146638D01*
X180236090Y-61146208D01*
X180340000Y-61146146D01*
X180353056Y-61146146D01*
X180453933Y-61146231D01*
G37*
D13*
%TO.C,TP19*%
X150810000Y-100010000D02*
X150810000Y-98110000D01*
X150810000Y-98110000D02*
X148910000Y-98110000D01*
X148910000Y-100010000D02*
X150810000Y-100010000D01*
X148910000Y-98110000D02*
X148910000Y-100010000D01*
%TO.C,R2*%
X131930000Y-63103212D02*
X128880000Y-63103212D01*
X131930000Y-58803212D02*
X128880000Y-58803212D01*
X131930000Y-63103211D02*
G75*
G03*
X131908234Y-58787687I-1550000J2149999D01*
G01*
X128880000Y-58803212D02*
G75*
G03*
X128835487Y-63071461I1500000J-2150000D01*
G01*
%TO.C,TP10*%
X125410000Y-69530000D02*
X125410000Y-67630000D01*
X125410000Y-67630000D02*
X123510000Y-67630000D01*
X123510000Y-69530000D02*
X125410000Y-69530000D01*
X123510000Y-67630000D02*
X123510000Y-69530000D01*
%TO.C,TP18*%
X145730000Y-100010000D02*
X145730000Y-98110000D01*
X145730000Y-98110000D02*
X143830000Y-98110000D01*
X143830000Y-100010000D02*
X145730000Y-100010000D01*
X143830000Y-98110000D02*
X143830000Y-100010000D01*
%TO.C,TP16*%
X117790000Y-94930000D02*
X117790000Y-93030000D01*
X117790000Y-93030000D02*
X115890000Y-93030000D01*
X115890000Y-94930000D02*
X117790000Y-94930000D01*
X115890000Y-93030000D02*
X115890000Y-94930000D01*
D11*
%TO.C,CC-SA*%
X158953939Y-64654869D02*
X158818308Y-64876198D01*
X158818308Y-64876198D02*
X158649724Y-65073584D01*
X158649724Y-65073584D02*
X158452338Y-65242168D01*
X158649724Y-62734136D02*
X158818308Y-62931522D01*
X158452338Y-65242168D02*
X158231009Y-65377799D01*
X158452338Y-62565552D02*
X158649724Y-62734136D01*
X158231009Y-65377799D02*
X157991188Y-65477136D01*
X158231009Y-62429921D02*
X158452338Y-62565552D01*
X157991188Y-65477136D02*
X157738780Y-65537734D01*
X157991188Y-62330584D02*
X158231009Y-62429921D01*
X157738780Y-65537734D02*
X157480000Y-65558100D01*
X157738780Y-62269986D02*
X157991188Y-62330584D01*
X157480000Y-65558100D02*
X157221220Y-65537734D01*
X157480000Y-62249620D02*
X157738780Y-62269986D01*
X157221220Y-65537734D02*
X156968812Y-65477136D01*
X157221220Y-62269986D02*
X157480000Y-62249620D01*
X156968812Y-65477136D02*
X156728991Y-65377799D01*
X156968812Y-62330584D02*
X157221220Y-62269986D01*
X156728991Y-65377799D02*
X156507662Y-65242168D01*
X156728991Y-62429921D02*
X156968812Y-62330584D01*
X156507662Y-65242168D02*
X156310276Y-65073584D01*
X156507662Y-62565552D02*
X156728991Y-62429921D01*
X156310276Y-65073584D02*
X156141692Y-64876198D01*
X156310276Y-62734136D02*
X156507662Y-62565552D01*
X156141692Y-64876198D02*
X156006061Y-64654869D01*
X156141692Y-62931522D02*
X156310276Y-62734136D01*
X156006061Y-64654869D02*
X155906724Y-64415048D01*
X156006061Y-63152851D02*
X156141692Y-62931522D01*
X155906724Y-64415048D02*
X155846126Y-64162640D01*
X155906724Y-63392672D02*
X156006061Y-63152851D01*
X155846126Y-64162640D02*
X155825760Y-63903860D01*
X155846126Y-63645080D02*
X155906724Y-63392672D01*
X155825760Y-63903860D02*
X155846126Y-63645080D01*
X160020000Y-63903860D02*
G75*
G03*
X160020000Y-63903860I-2540000J0D01*
G01*
D15*
X158938241Y-63163523D02*
X158501896Y-63011545D01*
X158818308Y-62931522D01*
X159168194Y-62804571D01*
X158938241Y-63163523D01*
G36*
X158938241Y-63163523D02*
G01*
X158501896Y-63011545D01*
X158818308Y-62931522D01*
X159168194Y-62804571D01*
X158938241Y-63163523D01*
G37*
D13*
%TO.C,BT1*%
X110914214Y-72140000D02*
X106664214Y-72140000D01*
X106664214Y-72140000D02*
X106664214Y-73160000D01*
X108264214Y-73160000D02*
X108264214Y-74440000D01*
X106664214Y-73160000D02*
X108264214Y-73160000D01*
X114484214Y-73860000D02*
X114484214Y-78540000D01*
X108264214Y-74440000D02*
X105374214Y-74440000D01*
X108264214Y-79240000D02*
X108264214Y-77960000D01*
X106664214Y-79240000D02*
X108264214Y-79240000D01*
X110914214Y-80260000D02*
X106664214Y-80260000D01*
X106664214Y-80260000D02*
X106664214Y-79240000D01*
%TO.C,C2*%
X117551252Y-64760000D02*
X116128748Y-64760000D01*
X117551252Y-62940000D02*
X116128748Y-62940000D01*
%TO.C,SW1*%
X97660000Y-75690000D02*
X97660000Y-66470000D01*
X101480000Y-75690000D02*
X97660000Y-75690000D01*
X101480000Y-66470000D02*
X101480000Y-75690000D01*
X101480000Y-66470000D02*
X97660000Y-66470000D01*
%TO.C,R6*%
X196967064Y-80060000D02*
X193912936Y-80060000D01*
X196967064Y-77340000D02*
X193912936Y-77340000D01*
D11*
%TO.C,CC*%
X175260000Y-63903860D02*
G75*
G03*
X175260000Y-63903860I-2540000J0D01*
G01*
D13*
%TO.C,TP5*%
X84770000Y-88840000D02*
X84770000Y-86940000D01*
X84770000Y-86940000D02*
X82870000Y-86940000D01*
X82870000Y-88840000D02*
X84770000Y-88840000D01*
X82870000Y-86940000D02*
X82870000Y-88840000D01*
%TO.C,TP3*%
X97470000Y-87310000D02*
X97470000Y-85410000D01*
X97470000Y-85410000D02*
X95570000Y-85410000D01*
X95570000Y-87310000D02*
X97470000Y-87310000D01*
X95570000Y-85410000D02*
X95570000Y-87310000D01*
%TO.C,C3*%
X127711252Y-76370000D02*
X126288748Y-76370000D01*
X127711252Y-74550000D02*
X126288748Y-74550000D01*
%TO.C,TP17*%
X117790000Y-87310000D02*
X117790000Y-85410000D01*
X117790000Y-85410000D02*
X115890000Y-85410000D01*
X115890000Y-87310000D02*
X117790000Y-87310000D01*
X115890000Y-85410000D02*
X115890000Y-87310000D01*
%TO.C,TP12*%
X135570000Y-79690000D02*
X135570000Y-77790000D01*
X135570000Y-77790000D02*
X133670000Y-77790000D01*
X133670000Y-79690000D02*
X135570000Y-79690000D01*
X133670000Y-77790000D02*
X133670000Y-79690000D01*
%TO.C,TP6*%
X84770000Y-92390000D02*
X84770000Y-90490000D01*
X84770000Y-90490000D02*
X82870000Y-90490000D01*
X82870000Y-92390000D02*
X84770000Y-92390000D01*
X82870000Y-90490000D02*
X82870000Y-92390000D01*
%TO.C,TP2*%
X107630000Y-72070000D02*
X107630000Y-70170000D01*
X107630000Y-70170000D02*
X105730000Y-70170000D01*
X105730000Y-72070000D02*
X107630000Y-72070000D01*
X105730000Y-70170000D02*
X105730000Y-72070000D01*
%TO.C,R4*%
X193912936Y-87540000D02*
X196967064Y-87540000D01*
X193912936Y-90260000D02*
X196967064Y-90260000D01*
%TO.C,TP13*%
X183830000Y-79690000D02*
X183830000Y-77790000D01*
X183830000Y-77790000D02*
X181930000Y-77790000D01*
X181930000Y-79690000D02*
X183830000Y-79690000D01*
X181930000Y-77790000D02*
X181930000Y-79690000D01*
%TO.C,TP20*%
X173670000Y-94930000D02*
X173670000Y-93030000D01*
X173670000Y-93030000D02*
X171770000Y-93030000D01*
X171770000Y-94930000D02*
X173670000Y-94930000D01*
X171770000Y-93030000D02*
X171770000Y-94930000D01*
%TO.C,Q1*%
X111760000Y-89880000D02*
X111110000Y-89880000D01*
X111760000Y-89880000D02*
X112410000Y-89880000D01*
X111760000Y-93000000D02*
X110085000Y-93000000D01*
X111760000Y-93000000D02*
X112410000Y-93000000D01*
%TO.C,SW3*%
X128910000Y-86830000D02*
X128910000Y-96050000D01*
X125090000Y-86830000D02*
X128910000Y-86830000D01*
X125090000Y-96050000D02*
X125090000Y-86830000D01*
X125090000Y-96050000D02*
X128910000Y-96050000D01*
D16*
%TO.C,CC-BY*%
X165900100Y-64104520D02*
X165900100Y-62903100D01*
X165900100Y-63804800D02*
X164599620Y-63804800D01*
X165900100Y-62903100D02*
X164398960Y-62903100D01*
X165801040Y-63202820D02*
X164500560Y-63202820D01*
X165399720Y-65704720D02*
X164899340Y-65704720D01*
X165399720Y-64203580D02*
X165399720Y-65704720D01*
X165100000Y-64203580D02*
X165100000Y-65504060D01*
X165100000Y-62003940D02*
X165100000Y-62402720D01*
X165000940Y-65704720D02*
X164800280Y-65704720D01*
X164800280Y-65704720D02*
X164800280Y-64104520D01*
X164599620Y-63505080D02*
X165801040Y-63505080D01*
X164398960Y-64104520D02*
X165900100Y-64104520D01*
X164398960Y-62903100D02*
X164398960Y-64104520D01*
D11*
X167640000Y-63903860D02*
G75*
G03*
X167640000Y-63903860I-2540000J0D01*
G01*
D16*
X165415666Y-62204600D02*
G75*
G03*
X165415666Y-62204600I-315666J0D01*
G01*
D13*
%TO.C,TP8*%
X59370000Y-102550000D02*
X59370000Y-100650000D01*
X59370000Y-100650000D02*
X57470000Y-100650000D01*
X57470000Y-102550000D02*
X59370000Y-102550000D01*
X57470000Y-100650000D02*
X57470000Y-102550000D01*
%TO.C,U3*%
X99015000Y-81240000D02*
X109256000Y-81240000D01*
X109256000Y-91480000D02*
X109256000Y-81240000D01*
X99015000Y-91480000D02*
X99015000Y-81240000D01*
X99015000Y-91480000D02*
X109256000Y-91480000D01*
%TO.C,C5*%
X187435557Y-80652363D02*
X186013053Y-80652363D01*
X187435557Y-78832363D02*
X186013053Y-78832363D01*
%TO.C,SW2*%
X127180000Y-63500000D02*
X127180000Y-61420000D01*
X125910000Y-65180000D02*
X126400000Y-64690000D01*
X125910000Y-65180000D02*
X123010000Y-65180000D01*
X125910000Y-59740000D02*
X126400000Y-60230000D01*
X125910000Y-59740000D02*
X123010000Y-59740000D01*
X123010000Y-65180000D02*
X122520000Y-64690000D01*
X123010000Y-59740000D02*
X122520000Y-60230000D01*
X121740000Y-63500000D02*
X121740000Y-61420000D01*
%TO.C,TP14*%
X183830000Y-82230000D02*
X183830000Y-80330000D01*
X183830000Y-80330000D02*
X181930000Y-80330000D01*
X181930000Y-82230000D02*
X183830000Y-82230000D01*
X181930000Y-80330000D02*
X181930000Y-82230000D01*
%TO.C,U4*%
X91270000Y-87870000D02*
X93470000Y-87870000D01*
X91270000Y-87870000D02*
X89070000Y-87870000D01*
X91270000Y-82650000D02*
X94870000Y-82650000D01*
X91270000Y-82650000D02*
X89070000Y-82650000D01*
%TO.C,C42*%
X85280000Y-82453752D02*
X85280000Y-81031248D01*
X87100000Y-82453752D02*
X87100000Y-81031248D01*
%TO.C,U1*%
D17*
X61664310Y-74253660D02*
G75*
G03*
X61664310Y-74253660I-127000J0D01*
G01*
D18*
X58700130Y-92940440D02*
X58700130Y-75813220D01*
X79698310Y-92940440D02*
X58700130Y-92940440D01*
D19*
X61283310Y-89239660D02*
X58616310Y-89239660D01*
X65349850Y-89239660D02*
X62680310Y-89239660D01*
D18*
X57275190Y-88536080D02*
X64628490Y-88536080D01*
X64628490Y-88536080D02*
X64628490Y-79536860D01*
D19*
X58616310Y-87461660D02*
X58616310Y-89239660D01*
X61283310Y-87461660D02*
X61283310Y-89239660D01*
X61283310Y-87461660D02*
X58616310Y-87461660D01*
X62680310Y-87461660D02*
X62680310Y-89239660D01*
X65349850Y-87461660D02*
X65349850Y-89239660D01*
X65349850Y-87461660D02*
X62680310Y-87461660D01*
X61918310Y-86572660D02*
X59378310Y-86572660D01*
X59378310Y-81492660D02*
X59378310Y-86572660D01*
X61918310Y-81492660D02*
X61918310Y-86572660D01*
X61918310Y-81492660D02*
X59378310Y-81492660D01*
X61283310Y-80603660D02*
X58616310Y-80603660D01*
X65349850Y-80603660D02*
X62680310Y-80603660D01*
D18*
X57275190Y-79541940D02*
X57275190Y-88536080D01*
X64628490Y-79536860D02*
X57275190Y-79536860D01*
D19*
X58616310Y-78825660D02*
X58616310Y-80603660D01*
X61283310Y-78825660D02*
X61283310Y-80603660D01*
X61283310Y-78825660D02*
X58616310Y-78825660D01*
X62680310Y-78825660D02*
X62680310Y-80603660D01*
X65349850Y-78825660D02*
X65349850Y-80603660D01*
X65349850Y-78825660D02*
X62680310Y-78825660D01*
D18*
X58700130Y-75813220D02*
X59370690Y-75142660D01*
X59370690Y-75142660D02*
X79698310Y-75142660D01*
X79698310Y-75142660D02*
X79698310Y-92940440D01*
D13*
%TO.C,R1*%
X130720000Y-71634128D02*
X130720000Y-68580000D01*
X133440000Y-71634128D02*
X133440000Y-68580000D01*
%TO.C,TP1*%
X112710000Y-64450000D02*
X112710000Y-62550000D01*
X112710000Y-62550000D02*
X110810000Y-62550000D01*
X110810000Y-64450000D02*
X112710000Y-64450000D01*
X110810000Y-62550000D02*
X110810000Y-64450000D01*
%TO.C,TP15*%
X110170000Y-94930000D02*
X110170000Y-93030000D01*
X110170000Y-93030000D02*
X108270000Y-93030000D01*
X108270000Y-94930000D02*
X110170000Y-94930000D01*
X108270000Y-93030000D02*
X108270000Y-94930000D01*
%TO.C,R5*%
X193912936Y-82460000D02*
X196967064Y-82460000D01*
X193912936Y-85180000D02*
X196967064Y-85180000D01*
%TO.C,R7*%
X196967064Y-75020000D02*
X193912936Y-75020000D01*
X196967064Y-72300000D02*
X193912936Y-72300000D01*
%TD*%
%LPC*%
D20*
%TO.C,D6*%
X119380000Y-86360000D03*
D21*
X119380000Y-83820000D03*
%TD*%
D22*
%TO.C,hole1*%
X68580000Y-62230000D03*
%TD*%
D23*
%TO.C,J1*%
X213360000Y-60960000D03*
D24*
X213360000Y-63500000D03*
X210820000Y-60960000D03*
X210820000Y-63500000D03*
X208280000Y-60960000D03*
X208280000Y-63500000D03*
%TD*%
D25*
%TO.C,bb1*%
X187960000Y-63500000D03*
%TD*%
D23*
%TO.C,J1*%
X109220000Y-60960000D03*
D24*
X109220000Y-63500000D03*
X106680000Y-60960000D03*
X106680000Y-63500000D03*
X104140000Y-60960000D03*
X104140000Y-63500000D03*
%TD*%
D25*
%TO.C,bb2*%
X187960000Y-86360000D03*
%TD*%
D22*
%TO.C,U2*%
X114960000Y-103520000D03*
X114960000Y-136020000D03*
X180760000Y-103520000D03*
X180760000Y-136020000D03*
D26*
X137160000Y-102600000D03*
D24*
X139700000Y-102600000D03*
X142240000Y-102600000D03*
X144780000Y-102600000D03*
X147320000Y-102600000D03*
X149860000Y-102600000D03*
X152400000Y-102600000D03*
X154940000Y-102600000D03*
%TD*%
D23*
%TO.C,J1*%
X172720000Y-99060000D03*
D24*
X172720000Y-101600000D03*
X170180000Y-99060000D03*
X170180000Y-101600000D03*
X167640000Y-99060000D03*
X167640000Y-101600000D03*
%TD*%
D25*
%TO.C,bb5*%
X134620000Y-86360000D03*
%TD*%
%TO.C,bb6*%
X134620000Y-63500000D03*
%TD*%
D27*
%TO.C,bb4*%
X142240000Y-95250000D03*
%TD*%
D22*
%TO.C,hole2*%
X228600000Y-62230000D03*
%TD*%
D23*
%TO.C,J1*%
X71120000Y-99060000D03*
D24*
X71120000Y-101600000D03*
X68580000Y-99060000D03*
X68580000Y-101600000D03*
X66040000Y-99060000D03*
X66040000Y-101600000D03*
%TD*%
D27*
%TO.C,bb3*%
X180340000Y-95250000D03*
%TD*%
D22*
%TO.C,U2*%
X56004294Y-62658587D03*
X53171733Y-95034914D03*
X121553906Y-68393435D03*
X118721344Y-100769762D03*
D28*
X78200000Y-63676945D03*
D24*
X80730335Y-63898321D03*
X83260669Y-64119696D03*
X85791004Y-64341072D03*
X88321338Y-64562447D03*
X90851673Y-64783823D03*
X93382007Y-65005199D03*
X95912342Y-65226574D03*
%TD*%
D29*
%TO.C,R3*%
X127000000Y-72507064D03*
X127000000Y-67707064D03*
%TD*%
D30*
%TO.C,R11*%
X119380000Y-89040000D03*
X119380000Y-93840000D03*
%TD*%
D31*
%TO.C,TP4*%
X83820000Y-83820000D03*
%TD*%
%TO.C,TP7*%
X58420000Y-99060000D03*
%TD*%
%TO.C,TP9*%
X124460000Y-66040000D03*
%TD*%
D32*
%TO.C,C41*%
X96350000Y-83305000D03*
X96350000Y-80180000D03*
%TD*%
D33*
%TO.C,C1*%
X54902500Y-102600000D03*
X51777500Y-102600000D03*
%TD*%
%TO.C,C4*%
X161582500Y-104340000D03*
X158457500Y-104340000D03*
%TD*%
D31*
%TO.C,TP11*%
X134620000Y-76200000D03*
%TD*%
%TO.C,TP19*%
X149860000Y-99060000D03*
%TD*%
D34*
%TO.C,R2*%
X132080000Y-60953212D03*
X128680000Y-60953212D03*
%TD*%
D31*
%TO.C,TP10*%
X124460000Y-68580000D03*
%TD*%
%TO.C,TP18*%
X144780000Y-99060000D03*
%TD*%
%TO.C,TP16*%
X116840000Y-93980000D03*
%TD*%
D35*
%TO.C,BT1*%
X107124214Y-75200000D03*
X107124214Y-77200000D03*
D36*
X112874214Y-72850000D03*
X112874214Y-79550000D03*
%TD*%
D33*
%TO.C,C2*%
X118402500Y-63850000D03*
X115277500Y-63850000D03*
%TD*%
D37*
%TO.C,SW1*%
X102620000Y-73580000D03*
X102620000Y-71080000D03*
X102620000Y-68580000D03*
X96520000Y-73580000D03*
X96520000Y-71080000D03*
X96520000Y-68580000D03*
%TD*%
D38*
%TO.C,R6*%
X197840000Y-78700000D03*
X193040000Y-78700000D03*
%TD*%
D31*
%TO.C,TP5*%
X83820000Y-87890000D03*
%TD*%
%TO.C,TP3*%
X96520000Y-86360000D03*
%TD*%
D33*
%TO.C,C3*%
X128562500Y-75460000D03*
X125437500Y-75460000D03*
%TD*%
D31*
%TO.C,TP17*%
X116840000Y-86360000D03*
%TD*%
%TO.C,TP12*%
X134620000Y-78740000D03*
%TD*%
%TO.C,TP6*%
X83820000Y-91440000D03*
%TD*%
%TO.C,TP2*%
X106680000Y-71120000D03*
%TD*%
D39*
%TO.C,R4*%
X193040000Y-88900000D03*
X197840000Y-88900000D03*
%TD*%
D31*
%TO.C,TP13*%
X182880000Y-78740000D03*
%TD*%
%TO.C,TP20*%
X172720000Y-93980000D03*
%TD*%
D40*
%TO.C,Q1*%
X110822500Y-92390000D03*
X110822500Y-90490000D03*
X112697500Y-91440000D03*
%TD*%
D41*
%TO.C,SW3*%
X123950000Y-88940000D03*
X123950000Y-91440000D03*
X123950000Y-93940000D03*
X130050000Y-88940000D03*
X130050000Y-91440000D03*
X130050000Y-93940000D03*
%TD*%
D31*
%TO.C,TP8*%
X58420000Y-101600000D03*
%TD*%
D42*
%TO.C,U3*%
X107885000Y-88900000D03*
D43*
X107885000Y-86360000D03*
X107885000Y-83820000D03*
%TD*%
D33*
%TO.C,C5*%
X188286805Y-79742363D03*
X185161805Y-79742363D03*
%TD*%
D44*
%TO.C,SW2*%
X127560000Y-60610000D03*
X121360000Y-60610000D03*
X127560000Y-64310000D03*
X121360000Y-64310000D03*
%TD*%
D31*
%TO.C,TP14*%
X182880000Y-81280000D03*
%TD*%
D45*
%TO.C,U4*%
X94132500Y-83310000D03*
X94132500Y-83960000D03*
X94132500Y-84610000D03*
X94132500Y-85260000D03*
X94132500Y-85910000D03*
X94132500Y-86560000D03*
X94132500Y-87210000D03*
X88407500Y-87210000D03*
X88407500Y-86560000D03*
X88407500Y-85910000D03*
X88407500Y-85260000D03*
X88407500Y-84610000D03*
X88407500Y-83960000D03*
X88407500Y-83310000D03*
%TD*%
D32*
%TO.C,C42*%
X86190000Y-83305000D03*
X86190000Y-80180000D03*
%TD*%
D46*
%TO.C,U1*%
X70470010Y-86659629D03*
D47*
X66169266Y-79714877D03*
X69679266Y-79714877D03*
D48*
X61580490Y-92640340D03*
X64120490Y-92640340D03*
X66660490Y-92640340D03*
X69200490Y-92640340D03*
X71740490Y-92640340D03*
X74280490Y-92640340D03*
X76820490Y-92640340D03*
X76820490Y-75475780D03*
X74280490Y-75475780D03*
X71740490Y-75475780D03*
X69200490Y-75475780D03*
X66660490Y-75475780D03*
X64120490Y-75475780D03*
X61580490Y-75475780D03*
%TD*%
D29*
%TO.C,R1*%
X132080000Y-72507064D03*
X132080000Y-67707064D03*
%TD*%
D31*
%TO.C,TP1*%
X111760000Y-63500000D03*
%TD*%
%TO.C,TP15*%
X109220000Y-93980000D03*
%TD*%
D39*
%TO.C,R5*%
X193040000Y-83820000D03*
X197840000Y-83820000D03*
%TD*%
D38*
%TO.C,R7*%
X197840000Y-73660000D03*
X193040000Y-73660000D03*
%TD*%
%LPD*%
M02*
