M48
; DRILL file {KiCad 6.0.9-8da3e8f707~117~ubuntu22.04.1} date Tue 06 Dec 2022 01:03:53 PM CST
; FORMAT={-:-/ absolute / metric / decimal}
; #@! TF.CreationDate,2022-12-06T13:03:53-06:00
; #@! TF.GenerationSoftware,Kicad,Pcbnew,6.0.9-8da3e8f707~117~ubuntu22.04.1
; #@! TF.FileFunction,Plated,1,2,PTH
FMAT,2
METRIC
; #@! TA.AperFunction,Plated,PTH,ViaDrill
T1C0.400
; #@! TA.AperFunction,Plated,PTH,ComponentDrill
T2C0.800
; #@! TA.AperFunction,Plated,PTH,ComponentDrill
T3C0.900
; #@! TA.AperFunction,Plated,PTH,ComponentDrill
T4C1.000
; #@! TA.AperFunction,Plated,PTH,ComponentDrill
T5C1.100
; #@! TA.AperFunction,Plated,PTH,ComponentDrill
T6C1.700
; #@! TA.AperFunction,Plated,PTH,ComponentDrill
T7C2.000
%
G90
G05
T1
X52.49Y-102.5
X64.12Y-75.976
X64.12Y-92.14
X66.66Y-92.14
X69.2Y-74.976
X69.815Y-97.37
X71.74Y-74.976
X74.28Y-76.976
X74.28Y-101.6
X83.82Y-71.12
X83.82Y-81.28
X83.82Y-83.82
X86.102Y-78.74
X86.36Y-71.12
X86.36Y-73.66
X86.36Y-76.785
X86.36Y-86.36
X86.36Y-93.98
X88.9Y-86.36
X88.988Y-93.98
X91.44Y-98.275
X91.999Y-86.36
X93.7Y-86.36
X93.98Y-98.241
X96.475Y-76.74
X96.52Y-73.66
X96.52Y-86.36
X99.06Y-78.74
X101.6Y-78.74
X106.68Y-86.36
X107.19Y-63.5
X110.822Y-87.95
X110.822Y-89.85
X115.99Y-64.4
X116.84Y-66.04
X123.95Y-88.94
X123.95Y-93.94
X126.15Y-74.72
X129.54Y-99.784
X130.05Y-93.94
X157.48Y-73.66
X157.48Y-101.6
X159.17Y-105.04
X162.56Y-76.2
X162.56Y-101.6
X170.18Y-86.36
X172.72Y-86.36
X172.72Y-88.9
X172.929Y-87.45
X185.874Y-80.826
X193.04Y-76.2
X193.04Y-83.82
X197.84Y-83.82
X197.84Y-88.9
T2
X121.92Y-60.96
X125.32Y-60.96
T3
X119.38Y-83.82
X119.38Y-86.36
T4
X68.58Y-60.96
X71.12Y-60.96
X73.66Y-60.96
X76.2Y-60.96
X78.74Y-60.96
X81.28Y-60.96
X81.28Y-101.6
X83.82Y-60.96
X83.82Y-101.6
X86.36Y-60.96
X86.36Y-101.6
X88.9Y-60.96
X88.9Y-63.5
X88.9Y-101.6
X91.44Y-60.96
X91.44Y-63.5
X91.44Y-101.6
X93.98Y-60.96
X93.98Y-63.5
X93.98Y-101.6
X96.52Y-101.6
X99.06Y-101.6
X137.16Y-101.6
X139.7Y-101.6
X142.24Y-101.6
X144.78Y-101.6
X147.32Y-101.6
X149.86Y-101.6
X152.4Y-101.6
X154.94Y-101.6
X167.64Y-99.06
X167.64Y-101.6
X170.18Y-99.06
X170.18Y-101.6
X172.72Y-99.06
X172.72Y-101.6
X195.58Y-60.96
X195.58Y-63.5
X198.12Y-60.96
X198.12Y-63.5
X200.66Y-60.96
X200.66Y-63.5
X213.36Y-60.96
X215.9Y-60.96
X218.44Y-60.96
X220.98Y-60.96
X223.52Y-60.96
X226.06Y-60.96
X228.6Y-60.96
X231.14Y-60.96
T5
X107.885Y-78.74
X107.885Y-81.28
X107.885Y-83.82
T7
X66.169Y-79.715
X69.679Y-79.715
X70.47Y-86.66
T6
G00X134.62Y-61.45
M15
G01X134.62Y-65.55
M16
G05
G00X134.62Y-84.31
M15
G01X134.62Y-88.41
M16
G05
G00X139.69Y-95.25
M15
G01X144.79Y-95.25
M16
G05
G00X177.79Y-95.25
M15
G01X182.89Y-95.25
M16
G05
G00X187.96Y-61.45
M15
G01X187.96Y-65.55
M16
G05
G00X187.96Y-84.31
M15
G01X187.96Y-88.41
M16
G05
T0
M30
