%TF.GenerationSoftware,KiCad,Pcbnew,6.0.9-8da3e8f707~117~ubuntu22.04.1*%
%TF.CreationDate,2022-12-07T09:55:52-06:00*%
%TF.ProjectId,badge,62616467-652e-46b6-9963-61645f706362,rev?*%
%TF.SameCoordinates,Original*%
%TF.FileFunction,Drillmap*%
%TF.FilePolarity,Positive*%
%FSLAX45Y45*%
G04 Gerber Fmt 4.5, Leading zero omitted, Abs format (unit mm)*
G04 Created by KiCad (PCBNEW 6.0.9-8da3e8f707~117~ubuntu22.04.1) date 2022-12-07 09:55:52*
%MOMM*%
%LPD*%
G01*
G04 APERTURE LIST*
%ADD10C,0.050000*%
%ADD11C,0.200000*%
%ADD12C,0.040000*%
%ADD13C,0.080000*%
%ADD14C,0.090000*%
%ADD15C,0.100000*%
%ADD16C,0.110000*%
%ADD17C,0.170000*%
G04 APERTURE END LIST*
D10*
X5080000Y-10668000D02*
X18288000Y-10668000D01*
X4778813Y-10179908D02*
G75*
G03*
X5080000Y-10668000I301377J-151002D01*
G01*
X23622000Y-5842000D02*
X6604000Y-5842000D01*
X23622000Y-5842000D02*
X23622000Y-5842000D01*
X18288000Y-10668000D02*
X23784261Y-6316291D01*
X6604000Y-5842000D02*
X4778811Y-10179908D01*
X23784261Y-6316291D02*
G75*
G03*
X23622000Y-5842000I-162081J209451D01*
G01*
D11*
D12*
X5229000Y-10230000D02*
X5269000Y-10270000D01*
X5269000Y-10230000D02*
X5229000Y-10270000D01*
X6392049Y-7577578D02*
X6432049Y-7617578D01*
X6432049Y-7577578D02*
X6392049Y-7617578D01*
X6392049Y-9194034D02*
X6432049Y-9234034D01*
X6432049Y-9194034D02*
X6392049Y-9234034D01*
X6646049Y-9194034D02*
X6686049Y-9234034D01*
X6686049Y-9194034D02*
X6646049Y-9234034D01*
X6900049Y-7477578D02*
X6940049Y-7517578D01*
X6940049Y-7477578D02*
X6900049Y-7517578D01*
X6961549Y-9716950D02*
X7001549Y-9756950D01*
X7001549Y-9716950D02*
X6961549Y-9756950D01*
X7154049Y-7477578D02*
X7194049Y-7517578D01*
X7194049Y-7477578D02*
X7154049Y-7517578D01*
X7408049Y-7677578D02*
X7448049Y-7717578D01*
X7448049Y-7677578D02*
X7408049Y-7717578D01*
X7408049Y-10140000D02*
X7448049Y-10180000D01*
X7448049Y-10140000D02*
X7408049Y-10180000D01*
X8362000Y-7092000D02*
X8402000Y-7132000D01*
X8402000Y-7092000D02*
X8362000Y-7132000D01*
X8362000Y-8108000D02*
X8402000Y-8148000D01*
X8402000Y-8108000D02*
X8362000Y-8148000D01*
X8362000Y-8362000D02*
X8402000Y-8402000D01*
X8402000Y-8362000D02*
X8362000Y-8402000D01*
X8590206Y-7854000D02*
X8630206Y-7894000D01*
X8630206Y-7854000D02*
X8590206Y-7894000D01*
X8616000Y-7092000D02*
X8656000Y-7132000D01*
X8656000Y-7092000D02*
X8616000Y-7132000D01*
X8616000Y-7346000D02*
X8656000Y-7386000D01*
X8656000Y-7346000D02*
X8616000Y-7386000D01*
X8616000Y-7658500D02*
X8656000Y-7698500D01*
X8656000Y-7658500D02*
X8616000Y-7698500D01*
X8616000Y-8616000D02*
X8656000Y-8656000D01*
X8656000Y-8616000D02*
X8616000Y-8656000D01*
X8616000Y-9378000D02*
X8656000Y-9418000D01*
X8656000Y-9378000D02*
X8616000Y-9418000D01*
X8870000Y-8616000D02*
X8910000Y-8656000D01*
X8910000Y-8616000D02*
X8870000Y-8656000D01*
X8878792Y-9378000D02*
X8918792Y-9418000D01*
X8918792Y-9378000D02*
X8878792Y-9418000D01*
X9124000Y-9807500D02*
X9164000Y-9847500D01*
X9164000Y-9807500D02*
X9124000Y-9847500D01*
X9179950Y-8616000D02*
X9219950Y-8656000D01*
X9219950Y-8616000D02*
X9179950Y-8656000D01*
X9378000Y-9804146D02*
X9418000Y-9844146D01*
X9418000Y-9804146D02*
X9378000Y-9844146D01*
X9410250Y-8362000D02*
X9450250Y-8402000D01*
X9450250Y-8362000D02*
X9410250Y-8402000D01*
X9627500Y-7654000D02*
X9667500Y-7694000D01*
X9667500Y-7654000D02*
X9627500Y-7694000D01*
X9632000Y-7346000D02*
X9672000Y-7386000D01*
X9672000Y-7346000D02*
X9632000Y-7386000D01*
X9632000Y-8616000D02*
X9672000Y-8656000D01*
X9672000Y-8616000D02*
X9632000Y-8656000D01*
X9886000Y-8108000D02*
X9926000Y-8148000D01*
X9926000Y-8108000D02*
X9886000Y-8148000D01*
X10140000Y-8108000D02*
X10180000Y-8148000D01*
X10180000Y-8108000D02*
X10140000Y-8148000D01*
X10648000Y-8616000D02*
X10688000Y-8656000D01*
X10688000Y-8616000D02*
X10648000Y-8656000D01*
X10699000Y-6330000D02*
X10739000Y-6370000D01*
X10739000Y-6330000D02*
X10699000Y-6370000D01*
X11062250Y-8775000D02*
X11102250Y-8815000D01*
X11102250Y-8775000D02*
X11062250Y-8815000D01*
X11062250Y-8965000D02*
X11102250Y-9005000D01*
X11102250Y-8965000D02*
X11062250Y-9005000D01*
X11579000Y-6420000D02*
X11619000Y-6460000D01*
X11619000Y-6420000D02*
X11579000Y-6460000D01*
X11664000Y-6584000D02*
X11704000Y-6624000D01*
X11704000Y-6584000D02*
X11664000Y-6624000D01*
X12375000Y-8874000D02*
X12415000Y-8914000D01*
X12415000Y-8874000D02*
X12375000Y-8914000D01*
X12375000Y-9374000D02*
X12415000Y-9414000D01*
X12415000Y-9374000D02*
X12375000Y-9414000D01*
X12595000Y-7452000D02*
X12635000Y-7492000D01*
X12635000Y-7452000D02*
X12595000Y-7492000D01*
X12934000Y-9958450D02*
X12974000Y-9998450D01*
X12974000Y-9958450D02*
X12934000Y-9998450D01*
X12985000Y-9374000D02*
X13025000Y-9414000D01*
X13025000Y-9374000D02*
X12985000Y-9414000D01*
X15728000Y-7346000D02*
X15768000Y-7386000D01*
X15768000Y-7346000D02*
X15728000Y-7386000D01*
X15728000Y-10140000D02*
X15768000Y-10180000D01*
X15768000Y-10140000D02*
X15728000Y-10180000D01*
X15897000Y-10484000D02*
X15937000Y-10524000D01*
X15937000Y-10484000D02*
X15897000Y-10524000D01*
X16236000Y-7600000D02*
X16276000Y-7640000D01*
X16276000Y-7600000D02*
X16236000Y-7640000D01*
X16236000Y-10140000D02*
X16276000Y-10180000D01*
X16276000Y-10140000D02*
X16236000Y-10180000D01*
X16998000Y-8616000D02*
X17038000Y-8656000D01*
X17038000Y-8616000D02*
X16998000Y-8656000D01*
X17252000Y-8616000D02*
X17292000Y-8656000D01*
X17292000Y-8616000D02*
X17252000Y-8656000D01*
X17252000Y-8870000D02*
X17292000Y-8910000D01*
X17292000Y-8870000D02*
X17252000Y-8910000D01*
X17272920Y-8725050D02*
X17312920Y-8765050D01*
X17312920Y-8725050D02*
X17272920Y-8765050D01*
X18567431Y-8062569D02*
X18607431Y-8102569D01*
X18607431Y-8062569D02*
X18567431Y-8102569D01*
X19284000Y-7092000D02*
X19324000Y-7132000D01*
X19324000Y-7092000D02*
X19284000Y-7132000D01*
X19284000Y-8362000D02*
X19324000Y-8402000D01*
X19324000Y-8362000D02*
X19284000Y-8402000D01*
X19764000Y-8362000D02*
X19804000Y-8402000D01*
X19804000Y-8362000D02*
X19764000Y-8402000D01*
X19764000Y-8870000D02*
X19804000Y-8910000D01*
X19804000Y-8870000D02*
X19764000Y-8910000D01*
D13*
X12232000Y-6096000D02*
G75*
G03*
X12232000Y-6096000I-40000J0D01*
G01*
X12572000Y-6096000D02*
G75*
G03*
X12572000Y-6096000I-40000J0D01*
G01*
D14*
X11938000Y-8337000D02*
X11938000Y-8427000D01*
X11893000Y-8382000D02*
X11983000Y-8382000D01*
X11938000Y-8591000D02*
X11938000Y-8681000D01*
X11893000Y-8636000D02*
X11983000Y-8636000D01*
D15*
X6893356Y-6131356D02*
X6893356Y-6060644D01*
X6822644Y-6060644D01*
X6822644Y-6131356D01*
X6893356Y-6131356D01*
X7147356Y-6131356D02*
X7147356Y-6060644D01*
X7076644Y-6060644D01*
X7076644Y-6131356D01*
X7147356Y-6131356D01*
X7401356Y-6131356D02*
X7401356Y-6060644D01*
X7330644Y-6060644D01*
X7330644Y-6131356D01*
X7401356Y-6131356D01*
X7655356Y-6131356D02*
X7655356Y-6060644D01*
X7584644Y-6060644D01*
X7584644Y-6131356D01*
X7655356Y-6131356D01*
X7909356Y-6131356D02*
X7909356Y-6060644D01*
X7838644Y-6060644D01*
X7838644Y-6131356D01*
X7909356Y-6131356D01*
X8163356Y-6131356D02*
X8163356Y-6060644D01*
X8092644Y-6060644D01*
X8092644Y-6131356D01*
X8163356Y-6131356D01*
X8163356Y-10195356D02*
X8163356Y-10124644D01*
X8092644Y-10124644D01*
X8092644Y-10195356D01*
X8163356Y-10195356D01*
X8417356Y-6131356D02*
X8417356Y-6060644D01*
X8346644Y-6060644D01*
X8346644Y-6131356D01*
X8417356Y-6131356D01*
X8417356Y-10195356D02*
X8417356Y-10124644D01*
X8346644Y-10124644D01*
X8346644Y-10195356D01*
X8417356Y-10195356D01*
X8671356Y-6131356D02*
X8671356Y-6060644D01*
X8600644Y-6060644D01*
X8600644Y-6131356D01*
X8671356Y-6131356D01*
X8671356Y-10195356D02*
X8671356Y-10124644D01*
X8600644Y-10124644D01*
X8600644Y-10195356D01*
X8671356Y-10195356D01*
X8925356Y-6131356D02*
X8925356Y-6060644D01*
X8854644Y-6060644D01*
X8854644Y-6131356D01*
X8925356Y-6131356D01*
X8925356Y-6385356D02*
X8925356Y-6314644D01*
X8854644Y-6314644D01*
X8854644Y-6385356D01*
X8925356Y-6385356D01*
X8925356Y-10195356D02*
X8925356Y-10124644D01*
X8854644Y-10124644D01*
X8854644Y-10195356D01*
X8925356Y-10195356D01*
X9179356Y-6131356D02*
X9179356Y-6060644D01*
X9108644Y-6060644D01*
X9108644Y-6131356D01*
X9179356Y-6131356D01*
X9179356Y-6385356D02*
X9179356Y-6314644D01*
X9108644Y-6314644D01*
X9108644Y-6385356D01*
X9179356Y-6385356D01*
X9179356Y-10195356D02*
X9179356Y-10124644D01*
X9108644Y-10124644D01*
X9108644Y-10195356D01*
X9179356Y-10195356D01*
X9433356Y-6131356D02*
X9433356Y-6060644D01*
X9362644Y-6060644D01*
X9362644Y-6131356D01*
X9433356Y-6131356D01*
X9433356Y-6385356D02*
X9433356Y-6314644D01*
X9362644Y-6314644D01*
X9362644Y-6385356D01*
X9433356Y-6385356D01*
X9433356Y-10195356D02*
X9433356Y-10124644D01*
X9362644Y-10124644D01*
X9362644Y-10195356D01*
X9433356Y-10195356D01*
X9687356Y-10195356D02*
X9687356Y-10124644D01*
X9616644Y-10124644D01*
X9616644Y-10195356D01*
X9687356Y-10195356D01*
X9941356Y-10195356D02*
X9941356Y-10124644D01*
X9870644Y-10124644D01*
X9870644Y-10195356D01*
X9941356Y-10195356D01*
X13751356Y-10195356D02*
X13751356Y-10124644D01*
X13680644Y-10124644D01*
X13680644Y-10195356D01*
X13751356Y-10195356D01*
X14005356Y-10195356D02*
X14005356Y-10124644D01*
X13934644Y-10124644D01*
X13934644Y-10195356D01*
X14005356Y-10195356D01*
X14259356Y-10195356D02*
X14259356Y-10124644D01*
X14188644Y-10124644D01*
X14188644Y-10195356D01*
X14259356Y-10195356D01*
X14513356Y-10195356D02*
X14513356Y-10124644D01*
X14442644Y-10124644D01*
X14442644Y-10195356D01*
X14513356Y-10195356D01*
X14767356Y-10195356D02*
X14767356Y-10124644D01*
X14696644Y-10124644D01*
X14696644Y-10195356D01*
X14767356Y-10195356D01*
X15021356Y-10195356D02*
X15021356Y-10124644D01*
X14950644Y-10124644D01*
X14950644Y-10195356D01*
X15021356Y-10195356D01*
X15275356Y-10195356D02*
X15275356Y-10124644D01*
X15204644Y-10124644D01*
X15204644Y-10195356D01*
X15275356Y-10195356D01*
X15529356Y-10195356D02*
X15529356Y-10124644D01*
X15458644Y-10124644D01*
X15458644Y-10195356D01*
X15529356Y-10195356D01*
X16799356Y-9941356D02*
X16799356Y-9870644D01*
X16728644Y-9870644D01*
X16728644Y-9941356D01*
X16799356Y-9941356D01*
X16799356Y-10195356D02*
X16799356Y-10124644D01*
X16728644Y-10124644D01*
X16728644Y-10195356D01*
X16799356Y-10195356D01*
X17053356Y-9941356D02*
X17053356Y-9870644D01*
X16982644Y-9870644D01*
X16982644Y-9941356D01*
X17053356Y-9941356D01*
X17053356Y-10195356D02*
X17053356Y-10124644D01*
X16982644Y-10124644D01*
X16982644Y-10195356D01*
X17053356Y-10195356D01*
X17307356Y-9941356D02*
X17307356Y-9870644D01*
X17236644Y-9870644D01*
X17236644Y-9941356D01*
X17307356Y-9941356D01*
X17307356Y-10195356D02*
X17307356Y-10124644D01*
X17236644Y-10124644D01*
X17236644Y-10195356D01*
X17307356Y-10195356D01*
X19593356Y-6131356D02*
X19593356Y-6060644D01*
X19522644Y-6060644D01*
X19522644Y-6131356D01*
X19593356Y-6131356D01*
X19593356Y-6385356D02*
X19593356Y-6314644D01*
X19522644Y-6314644D01*
X19522644Y-6385356D01*
X19593356Y-6385356D01*
X19847356Y-6131356D02*
X19847356Y-6060644D01*
X19776644Y-6060644D01*
X19776644Y-6131356D01*
X19847356Y-6131356D01*
X19847356Y-6385356D02*
X19847356Y-6314644D01*
X19776644Y-6314644D01*
X19776644Y-6385356D01*
X19847356Y-6385356D01*
X20101356Y-6131356D02*
X20101356Y-6060644D01*
X20030644Y-6060644D01*
X20030644Y-6131356D01*
X20101356Y-6131356D01*
X20101356Y-6385356D02*
X20101356Y-6314644D01*
X20030644Y-6314644D01*
X20030644Y-6385356D01*
X20101356Y-6385356D01*
X21371356Y-6131356D02*
X21371356Y-6060644D01*
X21300644Y-6060644D01*
X21300644Y-6131356D01*
X21371356Y-6131356D01*
X21625356Y-6131356D02*
X21625356Y-6060644D01*
X21554644Y-6060644D01*
X21554644Y-6131356D01*
X21625356Y-6131356D01*
X21879356Y-6131356D02*
X21879356Y-6060644D01*
X21808644Y-6060644D01*
X21808644Y-6131356D01*
X21879356Y-6131356D01*
X22133356Y-6131356D02*
X22133356Y-6060644D01*
X22062644Y-6060644D01*
X22062644Y-6131356D01*
X22133356Y-6131356D01*
X22387356Y-6131356D02*
X22387356Y-6060644D01*
X22316644Y-6060644D01*
X22316644Y-6131356D01*
X22387356Y-6131356D01*
X22641356Y-6131356D02*
X22641356Y-6060644D01*
X22570644Y-6060644D01*
X22570644Y-6131356D01*
X22641356Y-6131356D01*
X22895356Y-6131356D02*
X22895356Y-6060644D01*
X22824644Y-6060644D01*
X22824644Y-6131356D01*
X22895356Y-6131356D01*
X23149356Y-6131356D02*
X23149356Y-6060644D01*
X23078644Y-6060644D01*
X23078644Y-6131356D01*
X23149356Y-6131356D01*
D16*
X10788500Y-7929000D02*
X10843500Y-7874000D01*
X10788500Y-7819000D01*
X10733500Y-7874000D01*
X10788500Y-7929000D01*
X10788500Y-8183000D02*
X10843500Y-8128000D01*
X10788500Y-8073000D01*
X10733500Y-8128000D01*
X10788500Y-8183000D01*
X10788500Y-8437000D02*
X10843500Y-8382000D01*
X10788500Y-8327000D01*
X10733500Y-8382000D01*
X10788500Y-8437000D01*
D17*
X13377000Y-6265000D02*
X13547000Y-6435000D01*
X13547000Y-6265000D02*
X13377000Y-6435000D01*
X13547000Y-6350000D02*
G75*
G03*
X13547000Y-6350000I-85000J0D01*
G01*
D11*
X13377000Y-6145000D02*
X13377000Y-6555000D01*
X13547000Y-6145000D02*
X13547000Y-6555000D01*
X13377000Y-6555000D02*
G75*
G03*
X13547000Y-6555000I85000J0D01*
G01*
X13547000Y-6145000D02*
G75*
G03*
X13377000Y-6145000I-85000J0D01*
G01*
D17*
X13377000Y-8551000D02*
X13547000Y-8721000D01*
X13547000Y-8551000D02*
X13377000Y-8721000D01*
X13547000Y-8636000D02*
G75*
G03*
X13547000Y-8636000I-85000J0D01*
G01*
D11*
X13377000Y-8431000D02*
X13377000Y-8841000D01*
X13547000Y-8431000D02*
X13547000Y-8841000D01*
X13377000Y-8841000D02*
G75*
G03*
X13547000Y-8841000I85000J0D01*
G01*
X13547000Y-8431000D02*
G75*
G03*
X13377000Y-8431000I-85000J0D01*
G01*
D17*
X14139000Y-9440000D02*
X14309000Y-9610000D01*
X14309000Y-9440000D02*
X14139000Y-9610000D01*
X14309000Y-9525000D02*
G75*
G03*
X14309000Y-9525000I-85000J0D01*
G01*
D11*
X13969000Y-9610000D02*
X14479000Y-9610000D01*
X13969000Y-9440000D02*
X14479000Y-9440000D01*
X14479000Y-9610000D02*
G75*
G03*
X14479000Y-9440000I0J85000D01*
G01*
X13969000Y-9440000D02*
G75*
G03*
X13969000Y-9610000I0J-85000D01*
G01*
D17*
X17949000Y-9440000D02*
X18119000Y-9610000D01*
X18119000Y-9440000D02*
X17949000Y-9610000D01*
X18119000Y-9525000D02*
G75*
G03*
X18119000Y-9525000I-85000J0D01*
G01*
D11*
X17779000Y-9610000D02*
X18289000Y-9610000D01*
X17779000Y-9440000D02*
X18289000Y-9440000D01*
X18289000Y-9610000D02*
G75*
G03*
X18289000Y-9440000I0J85000D01*
G01*
X17779000Y-9440000D02*
G75*
G03*
X17779000Y-9610000I0J-85000D01*
G01*
D17*
X18711000Y-6265000D02*
X18881000Y-6435000D01*
X18881000Y-6265000D02*
X18711000Y-6435000D01*
X18881000Y-6350000D02*
G75*
G03*
X18881000Y-6350000I-85000J0D01*
G01*
D11*
X18711000Y-6145000D02*
X18711000Y-6555000D01*
X18881000Y-6145000D02*
X18881000Y-6555000D01*
X18711000Y-6555000D02*
G75*
G03*
X18881000Y-6555000I85000J0D01*
G01*
X18881000Y-6145000D02*
G75*
G03*
X18711000Y-6145000I-85000J0D01*
G01*
D17*
X18711000Y-8551000D02*
X18881000Y-8721000D01*
X18881000Y-8551000D02*
X18711000Y-8721000D01*
X18881000Y-8636000D02*
G75*
G03*
X18881000Y-8636000I-85000J0D01*
G01*
D11*
X18711000Y-8431000D02*
X18711000Y-8841000D01*
X18881000Y-8431000D02*
X18881000Y-8841000D01*
X18711000Y-8841000D02*
G75*
G03*
X18881000Y-8841000I85000J0D01*
G01*
X18881000Y-8431000D02*
G75*
G03*
X18711000Y-8431000I-85000J0D01*
G01*
X6516927Y-7871488D02*
X6716927Y-8071488D01*
X6716927Y-7871488D02*
X6516927Y-8071488D01*
X6616927Y-7871488D02*
X6616927Y-8071488D01*
X6516927Y-7971488D02*
X6716927Y-7971488D01*
X6867927Y-7871488D02*
X7067927Y-8071488D01*
X7067927Y-7871488D02*
X6867927Y-8071488D01*
X6967927Y-7871488D02*
X6967927Y-8071488D01*
X6867927Y-7971488D02*
X7067927Y-7971488D01*
X6947001Y-8565963D02*
X7147001Y-8765963D01*
X7147001Y-8565963D02*
X6947001Y-8765963D01*
X7047001Y-8565963D02*
X7047001Y-8765963D01*
X6947001Y-8665963D02*
X7147001Y-8665963D01*
X4998219Y-10980976D02*
X4998219Y-10780976D01*
X5045838Y-10780976D01*
X5074409Y-10790500D01*
X5093457Y-10809548D01*
X5102981Y-10828595D01*
X5112505Y-10866690D01*
X5112505Y-10895262D01*
X5102981Y-10933357D01*
X5093457Y-10952405D01*
X5074409Y-10971452D01*
X5045838Y-10980976D01*
X4998219Y-10980976D01*
X5198219Y-10980976D02*
X5198219Y-10847643D01*
X5198219Y-10885738D02*
X5207743Y-10866690D01*
X5217267Y-10857167D01*
X5236314Y-10847643D01*
X5255362Y-10847643D01*
X5322028Y-10980976D02*
X5322028Y-10847643D01*
X5322028Y-10780976D02*
X5312505Y-10790500D01*
X5322028Y-10800024D01*
X5331552Y-10790500D01*
X5322028Y-10780976D01*
X5322028Y-10800024D01*
X5445838Y-10980976D02*
X5426790Y-10971452D01*
X5417267Y-10952405D01*
X5417267Y-10780976D01*
X5550600Y-10980976D02*
X5531552Y-10971452D01*
X5522028Y-10952405D01*
X5522028Y-10780976D01*
X5779171Y-10980976D02*
X5779171Y-10780976D01*
X5845838Y-10923833D01*
X5912505Y-10780976D01*
X5912505Y-10980976D01*
X6093457Y-10980976D02*
X6093457Y-10876214D01*
X6083933Y-10857167D01*
X6064886Y-10847643D01*
X6026790Y-10847643D01*
X6007743Y-10857167D01*
X6093457Y-10971452D02*
X6074409Y-10980976D01*
X6026790Y-10980976D01*
X6007743Y-10971452D01*
X5998219Y-10952405D01*
X5998219Y-10933357D01*
X6007743Y-10914310D01*
X6026790Y-10904786D01*
X6074409Y-10904786D01*
X6093457Y-10895262D01*
X6188695Y-10847643D02*
X6188695Y-11047643D01*
X6188695Y-10857167D02*
X6207743Y-10847643D01*
X6245838Y-10847643D01*
X6264886Y-10857167D01*
X6274409Y-10866690D01*
X6283933Y-10885738D01*
X6283933Y-10942881D01*
X6274409Y-10961929D01*
X6264886Y-10971452D01*
X6245838Y-10980976D01*
X6207743Y-10980976D01*
X6188695Y-10971452D01*
X6369647Y-10961929D02*
X6379171Y-10971452D01*
X6369647Y-10980976D01*
X6360124Y-10971452D01*
X6369647Y-10961929D01*
X6369647Y-10980976D01*
X6369647Y-10857167D02*
X6379171Y-10866690D01*
X6369647Y-10876214D01*
X6360124Y-10866690D01*
X6369647Y-10857167D01*
X6369647Y-10876214D01*
D12*
X4700600Y-11290500D02*
X4740600Y-11330500D01*
X4740600Y-11290500D02*
X4700600Y-11330500D01*
D11*
X5036314Y-11200976D02*
X5055362Y-11200976D01*
X5074409Y-11210500D01*
X5083933Y-11220024D01*
X5093457Y-11239071D01*
X5102981Y-11277167D01*
X5102981Y-11324786D01*
X5093457Y-11362881D01*
X5083933Y-11381928D01*
X5074409Y-11391452D01*
X5055362Y-11400976D01*
X5036314Y-11400976D01*
X5017267Y-11391452D01*
X5007743Y-11381928D01*
X4998219Y-11362881D01*
X4988695Y-11324786D01*
X4988695Y-11277167D01*
X4998219Y-11239071D01*
X5007743Y-11220024D01*
X5017267Y-11210500D01*
X5036314Y-11200976D01*
X5188695Y-11381928D02*
X5198219Y-11391452D01*
X5188695Y-11400976D01*
X5179171Y-11391452D01*
X5188695Y-11381928D01*
X5188695Y-11400976D01*
X5369648Y-11267643D02*
X5369648Y-11400976D01*
X5322028Y-11191452D02*
X5274409Y-11334309D01*
X5398219Y-11334309D01*
X5512505Y-11200976D02*
X5531552Y-11200976D01*
X5550600Y-11210500D01*
X5560124Y-11220024D01*
X5569648Y-11239071D01*
X5579171Y-11277167D01*
X5579171Y-11324786D01*
X5569648Y-11362881D01*
X5560124Y-11381928D01*
X5550600Y-11391452D01*
X5531552Y-11400976D01*
X5512505Y-11400976D01*
X5493457Y-11391452D01*
X5483933Y-11381928D01*
X5474409Y-11362881D01*
X5464886Y-11324786D01*
X5464886Y-11277167D01*
X5474409Y-11239071D01*
X5483933Y-11220024D01*
X5493457Y-11210500D01*
X5512505Y-11200976D01*
X5702981Y-11200976D02*
X5722028Y-11200976D01*
X5741076Y-11210500D01*
X5750600Y-11220024D01*
X5760124Y-11239071D01*
X5769647Y-11277167D01*
X5769647Y-11324786D01*
X5760124Y-11362881D01*
X5750600Y-11381928D01*
X5741076Y-11391452D01*
X5722028Y-11400976D01*
X5702981Y-11400976D01*
X5683933Y-11391452D01*
X5674409Y-11381928D01*
X5664886Y-11362881D01*
X5655362Y-11324786D01*
X5655362Y-11277167D01*
X5664886Y-11239071D01*
X5674409Y-11220024D01*
X5683933Y-11210500D01*
X5702981Y-11200976D01*
X5855362Y-11400976D02*
X5855362Y-11267643D01*
X5855362Y-11286690D02*
X5864886Y-11277167D01*
X5883933Y-11267643D01*
X5912505Y-11267643D01*
X5931552Y-11277167D01*
X5941076Y-11296214D01*
X5941076Y-11400976D01*
X5941076Y-11296214D02*
X5950600Y-11277167D01*
X5969647Y-11267643D01*
X5998219Y-11267643D01*
X6017266Y-11277167D01*
X6026790Y-11296214D01*
X6026790Y-11400976D01*
X6122028Y-11400976D02*
X6122028Y-11267643D01*
X6122028Y-11286690D02*
X6131552Y-11277167D01*
X6150600Y-11267643D01*
X6179171Y-11267643D01*
X6198219Y-11277167D01*
X6207743Y-11296214D01*
X6207743Y-11400976D01*
X6207743Y-11296214D02*
X6217266Y-11277167D01*
X6236314Y-11267643D01*
X6264886Y-11267643D01*
X6283933Y-11277167D01*
X6293457Y-11296214D01*
X6293457Y-11400976D01*
X6683933Y-11191452D02*
X6512505Y-11448595D01*
X6941076Y-11200976D02*
X6960124Y-11200976D01*
X6979171Y-11210500D01*
X6988695Y-11220024D01*
X6998219Y-11239071D01*
X7007743Y-11277167D01*
X7007743Y-11324786D01*
X6998219Y-11362881D01*
X6988695Y-11381928D01*
X6979171Y-11391452D01*
X6960124Y-11400976D01*
X6941076Y-11400976D01*
X6922028Y-11391452D01*
X6912505Y-11381928D01*
X6902981Y-11362881D01*
X6893457Y-11324786D01*
X6893457Y-11277167D01*
X6902981Y-11239071D01*
X6912505Y-11220024D01*
X6922028Y-11210500D01*
X6941076Y-11200976D01*
X7093457Y-11381928D02*
X7102981Y-11391452D01*
X7093457Y-11400976D01*
X7083933Y-11391452D01*
X7093457Y-11381928D01*
X7093457Y-11400976D01*
X7226790Y-11200976D02*
X7245838Y-11200976D01*
X7264886Y-11210500D01*
X7274409Y-11220024D01*
X7283933Y-11239071D01*
X7293457Y-11277167D01*
X7293457Y-11324786D01*
X7283933Y-11362881D01*
X7274409Y-11381928D01*
X7264886Y-11391452D01*
X7245838Y-11400976D01*
X7226790Y-11400976D01*
X7207743Y-11391452D01*
X7198219Y-11381928D01*
X7188695Y-11362881D01*
X7179171Y-11324786D01*
X7179171Y-11277167D01*
X7188695Y-11239071D01*
X7198219Y-11220024D01*
X7207743Y-11210500D01*
X7226790Y-11200976D01*
X7483933Y-11400976D02*
X7369647Y-11400976D01*
X7426790Y-11400976D02*
X7426790Y-11200976D01*
X7407743Y-11229548D01*
X7388695Y-11248595D01*
X7369647Y-11258119D01*
X7664886Y-11200976D02*
X7569647Y-11200976D01*
X7560124Y-11296214D01*
X7569647Y-11286690D01*
X7588695Y-11277167D01*
X7636314Y-11277167D01*
X7655362Y-11286690D01*
X7664886Y-11296214D01*
X7674409Y-11315262D01*
X7674409Y-11362881D01*
X7664886Y-11381928D01*
X7655362Y-11391452D01*
X7636314Y-11400976D01*
X7588695Y-11400976D01*
X7569647Y-11391452D01*
X7560124Y-11381928D01*
X7741076Y-11200976D02*
X7874409Y-11200976D01*
X7788695Y-11400976D01*
X7941076Y-11200976D02*
X7941076Y-11239071D01*
X8017266Y-11200976D02*
X8017266Y-11239071D01*
X8312505Y-11477167D02*
X8302981Y-11467643D01*
X8283933Y-11439071D01*
X8274409Y-11420024D01*
X8264886Y-11391452D01*
X8255362Y-11343833D01*
X8255362Y-11305738D01*
X8264886Y-11258119D01*
X8274409Y-11229548D01*
X8283933Y-11210500D01*
X8302981Y-11181929D01*
X8312505Y-11172405D01*
X8483933Y-11200976D02*
X8388695Y-11200976D01*
X8379171Y-11296214D01*
X8388695Y-11286690D01*
X8407743Y-11277167D01*
X8455362Y-11277167D01*
X8474409Y-11286690D01*
X8483933Y-11296214D01*
X8493457Y-11315262D01*
X8493457Y-11362881D01*
X8483933Y-11381928D01*
X8474409Y-11391452D01*
X8455362Y-11400976D01*
X8407743Y-11400976D01*
X8388695Y-11391452D01*
X8379171Y-11381928D01*
X8664886Y-11267643D02*
X8664886Y-11400976D01*
X8617267Y-11191452D02*
X8569648Y-11334309D01*
X8693457Y-11334309D01*
X8922028Y-11400976D02*
X8922028Y-11200976D01*
X9007743Y-11400976D02*
X9007743Y-11296214D01*
X8998219Y-11277167D01*
X8979171Y-11267643D01*
X8950600Y-11267643D01*
X8931552Y-11277167D01*
X8922028Y-11286690D01*
X9131552Y-11400976D02*
X9112505Y-11391452D01*
X9102981Y-11381928D01*
X9093457Y-11362881D01*
X9093457Y-11305738D01*
X9102981Y-11286690D01*
X9112505Y-11277167D01*
X9131552Y-11267643D01*
X9160124Y-11267643D01*
X9179171Y-11277167D01*
X9188695Y-11286690D01*
X9198219Y-11305738D01*
X9198219Y-11362881D01*
X9188695Y-11381928D01*
X9179171Y-11391452D01*
X9160124Y-11400976D01*
X9131552Y-11400976D01*
X9312505Y-11400976D02*
X9293457Y-11391452D01*
X9283933Y-11372405D01*
X9283933Y-11200976D01*
X9464886Y-11391452D02*
X9445838Y-11400976D01*
X9407743Y-11400976D01*
X9388695Y-11391452D01*
X9379171Y-11372405D01*
X9379171Y-11296214D01*
X9388695Y-11277167D01*
X9407743Y-11267643D01*
X9445838Y-11267643D01*
X9464886Y-11277167D01*
X9474409Y-11296214D01*
X9474409Y-11315262D01*
X9379171Y-11334309D01*
X9550600Y-11391452D02*
X9569648Y-11400976D01*
X9607743Y-11400976D01*
X9626790Y-11391452D01*
X9636314Y-11372405D01*
X9636314Y-11362881D01*
X9626790Y-11343833D01*
X9607743Y-11334309D01*
X9579171Y-11334309D01*
X9560124Y-11324786D01*
X9550600Y-11305738D01*
X9550600Y-11296214D01*
X9560124Y-11277167D01*
X9579171Y-11267643D01*
X9607743Y-11267643D01*
X9626790Y-11277167D01*
X9702981Y-11477167D02*
X9712505Y-11467643D01*
X9731552Y-11439071D01*
X9741076Y-11420024D01*
X9750600Y-11391452D01*
X9760124Y-11343833D01*
X9760124Y-11305738D01*
X9750600Y-11258119D01*
X9741076Y-11229548D01*
X9731552Y-11210500D01*
X9712505Y-11181929D01*
X9702981Y-11172405D01*
D13*
X4740600Y-11574500D02*
G75*
G03*
X4740600Y-11574500I-40000J0D01*
G01*
D11*
X5036314Y-11464976D02*
X5055362Y-11464976D01*
X5074409Y-11474500D01*
X5083933Y-11484024D01*
X5093457Y-11503071D01*
X5102981Y-11541167D01*
X5102981Y-11588786D01*
X5093457Y-11626881D01*
X5083933Y-11645928D01*
X5074409Y-11655452D01*
X5055362Y-11664976D01*
X5036314Y-11664976D01*
X5017267Y-11655452D01*
X5007743Y-11645928D01*
X4998219Y-11626881D01*
X4988695Y-11588786D01*
X4988695Y-11541167D01*
X4998219Y-11503071D01*
X5007743Y-11484024D01*
X5017267Y-11474500D01*
X5036314Y-11464976D01*
X5188695Y-11645928D02*
X5198219Y-11655452D01*
X5188695Y-11664976D01*
X5179171Y-11655452D01*
X5188695Y-11645928D01*
X5188695Y-11664976D01*
X5312505Y-11550690D02*
X5293457Y-11541167D01*
X5283933Y-11531643D01*
X5274409Y-11512595D01*
X5274409Y-11503071D01*
X5283933Y-11484024D01*
X5293457Y-11474500D01*
X5312505Y-11464976D01*
X5350600Y-11464976D01*
X5369648Y-11474500D01*
X5379171Y-11484024D01*
X5388695Y-11503071D01*
X5388695Y-11512595D01*
X5379171Y-11531643D01*
X5369648Y-11541167D01*
X5350600Y-11550690D01*
X5312505Y-11550690D01*
X5293457Y-11560214D01*
X5283933Y-11569738D01*
X5274409Y-11588786D01*
X5274409Y-11626881D01*
X5283933Y-11645928D01*
X5293457Y-11655452D01*
X5312505Y-11664976D01*
X5350600Y-11664976D01*
X5369648Y-11655452D01*
X5379171Y-11645928D01*
X5388695Y-11626881D01*
X5388695Y-11588786D01*
X5379171Y-11569738D01*
X5369648Y-11560214D01*
X5350600Y-11550690D01*
X5512505Y-11464976D02*
X5531552Y-11464976D01*
X5550600Y-11474500D01*
X5560124Y-11484024D01*
X5569648Y-11503071D01*
X5579171Y-11541167D01*
X5579171Y-11588786D01*
X5569648Y-11626881D01*
X5560124Y-11645928D01*
X5550600Y-11655452D01*
X5531552Y-11664976D01*
X5512505Y-11664976D01*
X5493457Y-11655452D01*
X5483933Y-11645928D01*
X5474409Y-11626881D01*
X5464886Y-11588786D01*
X5464886Y-11541167D01*
X5474409Y-11503071D01*
X5483933Y-11484024D01*
X5493457Y-11474500D01*
X5512505Y-11464976D01*
X5702981Y-11464976D02*
X5722028Y-11464976D01*
X5741076Y-11474500D01*
X5750600Y-11484024D01*
X5760124Y-11503071D01*
X5769647Y-11541167D01*
X5769647Y-11588786D01*
X5760124Y-11626881D01*
X5750600Y-11645928D01*
X5741076Y-11655452D01*
X5722028Y-11664976D01*
X5702981Y-11664976D01*
X5683933Y-11655452D01*
X5674409Y-11645928D01*
X5664886Y-11626881D01*
X5655362Y-11588786D01*
X5655362Y-11541167D01*
X5664886Y-11503071D01*
X5674409Y-11484024D01*
X5683933Y-11474500D01*
X5702981Y-11464976D01*
X5855362Y-11664976D02*
X5855362Y-11531643D01*
X5855362Y-11550690D02*
X5864886Y-11541167D01*
X5883933Y-11531643D01*
X5912505Y-11531643D01*
X5931552Y-11541167D01*
X5941076Y-11560214D01*
X5941076Y-11664976D01*
X5941076Y-11560214D02*
X5950600Y-11541167D01*
X5969647Y-11531643D01*
X5998219Y-11531643D01*
X6017266Y-11541167D01*
X6026790Y-11560214D01*
X6026790Y-11664976D01*
X6122028Y-11664976D02*
X6122028Y-11531643D01*
X6122028Y-11550690D02*
X6131552Y-11541167D01*
X6150600Y-11531643D01*
X6179171Y-11531643D01*
X6198219Y-11541167D01*
X6207743Y-11560214D01*
X6207743Y-11664976D01*
X6207743Y-11560214D02*
X6217266Y-11541167D01*
X6236314Y-11531643D01*
X6264886Y-11531643D01*
X6283933Y-11541167D01*
X6293457Y-11560214D01*
X6293457Y-11664976D01*
X6683933Y-11455452D02*
X6512505Y-11712595D01*
X6941076Y-11464976D02*
X6960124Y-11464976D01*
X6979171Y-11474500D01*
X6988695Y-11484024D01*
X6998219Y-11503071D01*
X7007743Y-11541167D01*
X7007743Y-11588786D01*
X6998219Y-11626881D01*
X6988695Y-11645928D01*
X6979171Y-11655452D01*
X6960124Y-11664976D01*
X6941076Y-11664976D01*
X6922028Y-11655452D01*
X6912505Y-11645928D01*
X6902981Y-11626881D01*
X6893457Y-11588786D01*
X6893457Y-11541167D01*
X6902981Y-11503071D01*
X6912505Y-11484024D01*
X6922028Y-11474500D01*
X6941076Y-11464976D01*
X7093457Y-11645928D02*
X7102981Y-11655452D01*
X7093457Y-11664976D01*
X7083933Y-11655452D01*
X7093457Y-11645928D01*
X7093457Y-11664976D01*
X7226790Y-11464976D02*
X7245838Y-11464976D01*
X7264886Y-11474500D01*
X7274409Y-11484024D01*
X7283933Y-11503071D01*
X7293457Y-11541167D01*
X7293457Y-11588786D01*
X7283933Y-11626881D01*
X7274409Y-11645928D01*
X7264886Y-11655452D01*
X7245838Y-11664976D01*
X7226790Y-11664976D01*
X7207743Y-11655452D01*
X7198219Y-11645928D01*
X7188695Y-11626881D01*
X7179171Y-11588786D01*
X7179171Y-11541167D01*
X7188695Y-11503071D01*
X7198219Y-11484024D01*
X7207743Y-11474500D01*
X7226790Y-11464976D01*
X7360124Y-11464976D02*
X7483933Y-11464976D01*
X7417266Y-11541167D01*
X7445838Y-11541167D01*
X7464886Y-11550690D01*
X7474409Y-11560214D01*
X7483933Y-11579262D01*
X7483933Y-11626881D01*
X7474409Y-11645928D01*
X7464886Y-11655452D01*
X7445838Y-11664976D01*
X7388695Y-11664976D01*
X7369647Y-11655452D01*
X7360124Y-11645928D01*
X7674409Y-11664976D02*
X7560124Y-11664976D01*
X7617266Y-11664976D02*
X7617266Y-11464976D01*
X7598219Y-11493548D01*
X7579171Y-11512595D01*
X7560124Y-11522119D01*
X7855362Y-11464976D02*
X7760124Y-11464976D01*
X7750600Y-11560214D01*
X7760124Y-11550690D01*
X7779171Y-11541167D01*
X7826790Y-11541167D01*
X7845838Y-11550690D01*
X7855362Y-11560214D01*
X7864886Y-11579262D01*
X7864886Y-11626881D01*
X7855362Y-11645928D01*
X7845838Y-11655452D01*
X7826790Y-11664976D01*
X7779171Y-11664976D01*
X7760124Y-11655452D01*
X7750600Y-11645928D01*
X7941076Y-11464976D02*
X7941076Y-11503071D01*
X8017266Y-11464976D02*
X8017266Y-11503071D01*
X8312505Y-11741167D02*
X8302981Y-11731643D01*
X8283933Y-11703071D01*
X8274409Y-11684024D01*
X8264886Y-11655452D01*
X8255362Y-11607833D01*
X8255362Y-11569738D01*
X8264886Y-11522119D01*
X8274409Y-11493548D01*
X8283933Y-11474500D01*
X8302981Y-11445928D01*
X8312505Y-11436405D01*
X8379171Y-11484024D02*
X8388695Y-11474500D01*
X8407743Y-11464976D01*
X8455362Y-11464976D01*
X8474409Y-11474500D01*
X8483933Y-11484024D01*
X8493457Y-11503071D01*
X8493457Y-11522119D01*
X8483933Y-11550690D01*
X8369647Y-11664976D01*
X8493457Y-11664976D01*
X8731552Y-11664976D02*
X8731552Y-11464976D01*
X8817267Y-11664976D02*
X8817267Y-11560214D01*
X8807743Y-11541167D01*
X8788695Y-11531643D01*
X8760124Y-11531643D01*
X8741076Y-11541167D01*
X8731552Y-11550690D01*
X8941076Y-11664976D02*
X8922028Y-11655452D01*
X8912505Y-11645928D01*
X8902981Y-11626881D01*
X8902981Y-11569738D01*
X8912505Y-11550690D01*
X8922028Y-11541167D01*
X8941076Y-11531643D01*
X8969648Y-11531643D01*
X8988695Y-11541167D01*
X8998219Y-11550690D01*
X9007743Y-11569738D01*
X9007743Y-11626881D01*
X8998219Y-11645928D01*
X8988695Y-11655452D01*
X8969648Y-11664976D01*
X8941076Y-11664976D01*
X9122028Y-11664976D02*
X9102981Y-11655452D01*
X9093457Y-11636405D01*
X9093457Y-11464976D01*
X9274409Y-11655452D02*
X9255362Y-11664976D01*
X9217267Y-11664976D01*
X9198219Y-11655452D01*
X9188695Y-11636405D01*
X9188695Y-11560214D01*
X9198219Y-11541167D01*
X9217267Y-11531643D01*
X9255362Y-11531643D01*
X9274409Y-11541167D01*
X9283933Y-11560214D01*
X9283933Y-11579262D01*
X9188695Y-11598309D01*
X9360124Y-11655452D02*
X9379171Y-11664976D01*
X9417267Y-11664976D01*
X9436314Y-11655452D01*
X9445838Y-11636405D01*
X9445838Y-11626881D01*
X9436314Y-11607833D01*
X9417267Y-11598309D01*
X9388695Y-11598309D01*
X9369648Y-11588786D01*
X9360124Y-11569738D01*
X9360124Y-11560214D01*
X9369648Y-11541167D01*
X9388695Y-11531643D01*
X9417267Y-11531643D01*
X9436314Y-11541167D01*
X9512505Y-11741167D02*
X9522028Y-11731643D01*
X9541076Y-11703071D01*
X9550600Y-11684024D01*
X9560124Y-11655452D01*
X9569648Y-11607833D01*
X9569648Y-11569738D01*
X9560124Y-11522119D01*
X9550600Y-11493548D01*
X9541076Y-11474500D01*
X9522028Y-11445928D01*
X9512505Y-11436405D01*
D14*
X4695600Y-11793500D02*
X4695600Y-11883500D01*
X4650600Y-11838500D02*
X4740600Y-11838500D01*
D11*
X5036314Y-11728976D02*
X5055362Y-11728976D01*
X5074409Y-11738500D01*
X5083933Y-11748024D01*
X5093457Y-11767071D01*
X5102981Y-11805167D01*
X5102981Y-11852786D01*
X5093457Y-11890881D01*
X5083933Y-11909928D01*
X5074409Y-11919452D01*
X5055362Y-11928976D01*
X5036314Y-11928976D01*
X5017267Y-11919452D01*
X5007743Y-11909928D01*
X4998219Y-11890881D01*
X4988695Y-11852786D01*
X4988695Y-11805167D01*
X4998219Y-11767071D01*
X5007743Y-11748024D01*
X5017267Y-11738500D01*
X5036314Y-11728976D01*
X5188695Y-11909928D02*
X5198219Y-11919452D01*
X5188695Y-11928976D01*
X5179171Y-11919452D01*
X5188695Y-11909928D01*
X5188695Y-11928976D01*
X5293457Y-11928976D02*
X5331552Y-11928976D01*
X5350600Y-11919452D01*
X5360124Y-11909928D01*
X5379171Y-11881357D01*
X5388695Y-11843262D01*
X5388695Y-11767071D01*
X5379171Y-11748024D01*
X5369648Y-11738500D01*
X5350600Y-11728976D01*
X5312505Y-11728976D01*
X5293457Y-11738500D01*
X5283933Y-11748024D01*
X5274409Y-11767071D01*
X5274409Y-11814690D01*
X5283933Y-11833738D01*
X5293457Y-11843262D01*
X5312505Y-11852786D01*
X5350600Y-11852786D01*
X5369648Y-11843262D01*
X5379171Y-11833738D01*
X5388695Y-11814690D01*
X5512505Y-11728976D02*
X5531552Y-11728976D01*
X5550600Y-11738500D01*
X5560124Y-11748024D01*
X5569648Y-11767071D01*
X5579171Y-11805167D01*
X5579171Y-11852786D01*
X5569648Y-11890881D01*
X5560124Y-11909928D01*
X5550600Y-11919452D01*
X5531552Y-11928976D01*
X5512505Y-11928976D01*
X5493457Y-11919452D01*
X5483933Y-11909928D01*
X5474409Y-11890881D01*
X5464886Y-11852786D01*
X5464886Y-11805167D01*
X5474409Y-11767071D01*
X5483933Y-11748024D01*
X5493457Y-11738500D01*
X5512505Y-11728976D01*
X5702981Y-11728976D02*
X5722028Y-11728976D01*
X5741076Y-11738500D01*
X5750600Y-11748024D01*
X5760124Y-11767071D01*
X5769647Y-11805167D01*
X5769647Y-11852786D01*
X5760124Y-11890881D01*
X5750600Y-11909928D01*
X5741076Y-11919452D01*
X5722028Y-11928976D01*
X5702981Y-11928976D01*
X5683933Y-11919452D01*
X5674409Y-11909928D01*
X5664886Y-11890881D01*
X5655362Y-11852786D01*
X5655362Y-11805167D01*
X5664886Y-11767071D01*
X5674409Y-11748024D01*
X5683933Y-11738500D01*
X5702981Y-11728976D01*
X5855362Y-11928976D02*
X5855362Y-11795643D01*
X5855362Y-11814690D02*
X5864886Y-11805167D01*
X5883933Y-11795643D01*
X5912505Y-11795643D01*
X5931552Y-11805167D01*
X5941076Y-11824214D01*
X5941076Y-11928976D01*
X5941076Y-11824214D02*
X5950600Y-11805167D01*
X5969647Y-11795643D01*
X5998219Y-11795643D01*
X6017266Y-11805167D01*
X6026790Y-11824214D01*
X6026790Y-11928976D01*
X6122028Y-11928976D02*
X6122028Y-11795643D01*
X6122028Y-11814690D02*
X6131552Y-11805167D01*
X6150600Y-11795643D01*
X6179171Y-11795643D01*
X6198219Y-11805167D01*
X6207743Y-11824214D01*
X6207743Y-11928976D01*
X6207743Y-11824214D02*
X6217266Y-11805167D01*
X6236314Y-11795643D01*
X6264886Y-11795643D01*
X6283933Y-11805167D01*
X6293457Y-11824214D01*
X6293457Y-11928976D01*
X6683933Y-11719452D02*
X6512505Y-11976595D01*
X6941076Y-11728976D02*
X6960124Y-11728976D01*
X6979171Y-11738500D01*
X6988695Y-11748024D01*
X6998219Y-11767071D01*
X7007743Y-11805167D01*
X7007743Y-11852786D01*
X6998219Y-11890881D01*
X6988695Y-11909928D01*
X6979171Y-11919452D01*
X6960124Y-11928976D01*
X6941076Y-11928976D01*
X6922028Y-11919452D01*
X6912505Y-11909928D01*
X6902981Y-11890881D01*
X6893457Y-11852786D01*
X6893457Y-11805167D01*
X6902981Y-11767071D01*
X6912505Y-11748024D01*
X6922028Y-11738500D01*
X6941076Y-11728976D01*
X7093457Y-11909928D02*
X7102981Y-11919452D01*
X7093457Y-11928976D01*
X7083933Y-11919452D01*
X7093457Y-11909928D01*
X7093457Y-11928976D01*
X7226790Y-11728976D02*
X7245838Y-11728976D01*
X7264886Y-11738500D01*
X7274409Y-11748024D01*
X7283933Y-11767071D01*
X7293457Y-11805167D01*
X7293457Y-11852786D01*
X7283933Y-11890881D01*
X7274409Y-11909928D01*
X7264886Y-11919452D01*
X7245838Y-11928976D01*
X7226790Y-11928976D01*
X7207743Y-11919452D01*
X7198219Y-11909928D01*
X7188695Y-11890881D01*
X7179171Y-11852786D01*
X7179171Y-11805167D01*
X7188695Y-11767071D01*
X7198219Y-11748024D01*
X7207743Y-11738500D01*
X7226790Y-11728976D01*
X7360124Y-11728976D02*
X7483933Y-11728976D01*
X7417266Y-11805167D01*
X7445838Y-11805167D01*
X7464886Y-11814690D01*
X7474409Y-11824214D01*
X7483933Y-11843262D01*
X7483933Y-11890881D01*
X7474409Y-11909928D01*
X7464886Y-11919452D01*
X7445838Y-11928976D01*
X7388695Y-11928976D01*
X7369647Y-11919452D01*
X7360124Y-11909928D01*
X7664886Y-11728976D02*
X7569647Y-11728976D01*
X7560124Y-11824214D01*
X7569647Y-11814690D01*
X7588695Y-11805167D01*
X7636314Y-11805167D01*
X7655362Y-11814690D01*
X7664886Y-11824214D01*
X7674409Y-11843262D01*
X7674409Y-11890881D01*
X7664886Y-11909928D01*
X7655362Y-11919452D01*
X7636314Y-11928976D01*
X7588695Y-11928976D01*
X7569647Y-11919452D01*
X7560124Y-11909928D01*
X7845838Y-11795643D02*
X7845838Y-11928976D01*
X7798219Y-11719452D02*
X7750600Y-11862309D01*
X7874409Y-11862309D01*
X7941076Y-11728976D02*
X7941076Y-11767071D01*
X8017266Y-11728976D02*
X8017266Y-11767071D01*
X8312505Y-12005167D02*
X8302981Y-11995643D01*
X8283933Y-11967071D01*
X8274409Y-11948024D01*
X8264886Y-11919452D01*
X8255362Y-11871833D01*
X8255362Y-11833738D01*
X8264886Y-11786119D01*
X8274409Y-11757548D01*
X8283933Y-11738500D01*
X8302981Y-11709928D01*
X8312505Y-11700405D01*
X8379171Y-11748024D02*
X8388695Y-11738500D01*
X8407743Y-11728976D01*
X8455362Y-11728976D01*
X8474409Y-11738500D01*
X8483933Y-11748024D01*
X8493457Y-11767071D01*
X8493457Y-11786119D01*
X8483933Y-11814690D01*
X8369647Y-11928976D01*
X8493457Y-11928976D01*
X8731552Y-11928976D02*
X8731552Y-11728976D01*
X8817267Y-11928976D02*
X8817267Y-11824214D01*
X8807743Y-11805167D01*
X8788695Y-11795643D01*
X8760124Y-11795643D01*
X8741076Y-11805167D01*
X8731552Y-11814690D01*
X8941076Y-11928976D02*
X8922028Y-11919452D01*
X8912505Y-11909928D01*
X8902981Y-11890881D01*
X8902981Y-11833738D01*
X8912505Y-11814690D01*
X8922028Y-11805167D01*
X8941076Y-11795643D01*
X8969648Y-11795643D01*
X8988695Y-11805167D01*
X8998219Y-11814690D01*
X9007743Y-11833738D01*
X9007743Y-11890881D01*
X8998219Y-11909928D01*
X8988695Y-11919452D01*
X8969648Y-11928976D01*
X8941076Y-11928976D01*
X9122028Y-11928976D02*
X9102981Y-11919452D01*
X9093457Y-11900405D01*
X9093457Y-11728976D01*
X9274409Y-11919452D02*
X9255362Y-11928976D01*
X9217267Y-11928976D01*
X9198219Y-11919452D01*
X9188695Y-11900405D01*
X9188695Y-11824214D01*
X9198219Y-11805167D01*
X9217267Y-11795643D01*
X9255362Y-11795643D01*
X9274409Y-11805167D01*
X9283933Y-11824214D01*
X9283933Y-11843262D01*
X9188695Y-11862309D01*
X9360124Y-11919452D02*
X9379171Y-11928976D01*
X9417267Y-11928976D01*
X9436314Y-11919452D01*
X9445838Y-11900405D01*
X9445838Y-11890881D01*
X9436314Y-11871833D01*
X9417267Y-11862309D01*
X9388695Y-11862309D01*
X9369648Y-11852786D01*
X9360124Y-11833738D01*
X9360124Y-11824214D01*
X9369648Y-11805167D01*
X9388695Y-11795643D01*
X9417267Y-11795643D01*
X9436314Y-11805167D01*
X9512505Y-12005167D02*
X9522028Y-11995643D01*
X9541076Y-11967071D01*
X9550600Y-11948024D01*
X9560124Y-11919452D01*
X9569648Y-11871833D01*
X9569648Y-11833738D01*
X9560124Y-11786119D01*
X9550600Y-11757548D01*
X9541076Y-11738500D01*
X9522028Y-11709928D01*
X9512505Y-11700405D01*
D15*
X4725956Y-12137856D02*
X4725956Y-12067144D01*
X4655244Y-12067144D01*
X4655244Y-12137856D01*
X4725956Y-12137856D01*
D11*
X5102981Y-12192976D02*
X4988695Y-12192976D01*
X5045838Y-12192976D02*
X5045838Y-11992976D01*
X5026790Y-12021548D01*
X5007743Y-12040595D01*
X4988695Y-12050119D01*
X5188695Y-12173928D02*
X5198219Y-12183452D01*
X5188695Y-12192976D01*
X5179171Y-12183452D01*
X5188695Y-12173928D01*
X5188695Y-12192976D01*
X5322028Y-11992976D02*
X5341076Y-11992976D01*
X5360124Y-12002500D01*
X5369648Y-12012024D01*
X5379171Y-12031071D01*
X5388695Y-12069167D01*
X5388695Y-12116786D01*
X5379171Y-12154881D01*
X5369648Y-12173928D01*
X5360124Y-12183452D01*
X5341076Y-12192976D01*
X5322028Y-12192976D01*
X5302981Y-12183452D01*
X5293457Y-12173928D01*
X5283933Y-12154881D01*
X5274409Y-12116786D01*
X5274409Y-12069167D01*
X5283933Y-12031071D01*
X5293457Y-12012024D01*
X5302981Y-12002500D01*
X5322028Y-11992976D01*
X5512505Y-11992976D02*
X5531552Y-11992976D01*
X5550600Y-12002500D01*
X5560124Y-12012024D01*
X5569648Y-12031071D01*
X5579171Y-12069167D01*
X5579171Y-12116786D01*
X5569648Y-12154881D01*
X5560124Y-12173928D01*
X5550600Y-12183452D01*
X5531552Y-12192976D01*
X5512505Y-12192976D01*
X5493457Y-12183452D01*
X5483933Y-12173928D01*
X5474409Y-12154881D01*
X5464886Y-12116786D01*
X5464886Y-12069167D01*
X5474409Y-12031071D01*
X5483933Y-12012024D01*
X5493457Y-12002500D01*
X5512505Y-11992976D01*
X5702981Y-11992976D02*
X5722028Y-11992976D01*
X5741076Y-12002500D01*
X5750600Y-12012024D01*
X5760124Y-12031071D01*
X5769647Y-12069167D01*
X5769647Y-12116786D01*
X5760124Y-12154881D01*
X5750600Y-12173928D01*
X5741076Y-12183452D01*
X5722028Y-12192976D01*
X5702981Y-12192976D01*
X5683933Y-12183452D01*
X5674409Y-12173928D01*
X5664886Y-12154881D01*
X5655362Y-12116786D01*
X5655362Y-12069167D01*
X5664886Y-12031071D01*
X5674409Y-12012024D01*
X5683933Y-12002500D01*
X5702981Y-11992976D01*
X5855362Y-12192976D02*
X5855362Y-12059643D01*
X5855362Y-12078690D02*
X5864886Y-12069167D01*
X5883933Y-12059643D01*
X5912505Y-12059643D01*
X5931552Y-12069167D01*
X5941076Y-12088214D01*
X5941076Y-12192976D01*
X5941076Y-12088214D02*
X5950600Y-12069167D01*
X5969647Y-12059643D01*
X5998219Y-12059643D01*
X6017266Y-12069167D01*
X6026790Y-12088214D01*
X6026790Y-12192976D01*
X6122028Y-12192976D02*
X6122028Y-12059643D01*
X6122028Y-12078690D02*
X6131552Y-12069167D01*
X6150600Y-12059643D01*
X6179171Y-12059643D01*
X6198219Y-12069167D01*
X6207743Y-12088214D01*
X6207743Y-12192976D01*
X6207743Y-12088214D02*
X6217266Y-12069167D01*
X6236314Y-12059643D01*
X6264886Y-12059643D01*
X6283933Y-12069167D01*
X6293457Y-12088214D01*
X6293457Y-12192976D01*
X6683933Y-11983452D02*
X6512505Y-12240595D01*
X6941076Y-11992976D02*
X6960124Y-11992976D01*
X6979171Y-12002500D01*
X6988695Y-12012024D01*
X6998219Y-12031071D01*
X7007743Y-12069167D01*
X7007743Y-12116786D01*
X6998219Y-12154881D01*
X6988695Y-12173928D01*
X6979171Y-12183452D01*
X6960124Y-12192976D01*
X6941076Y-12192976D01*
X6922028Y-12183452D01*
X6912505Y-12173928D01*
X6902981Y-12154881D01*
X6893457Y-12116786D01*
X6893457Y-12069167D01*
X6902981Y-12031071D01*
X6912505Y-12012024D01*
X6922028Y-12002500D01*
X6941076Y-11992976D01*
X7093457Y-12173928D02*
X7102981Y-12183452D01*
X7093457Y-12192976D01*
X7083933Y-12183452D01*
X7093457Y-12173928D01*
X7093457Y-12192976D01*
X7226790Y-11992976D02*
X7245838Y-11992976D01*
X7264886Y-12002500D01*
X7274409Y-12012024D01*
X7283933Y-12031071D01*
X7293457Y-12069167D01*
X7293457Y-12116786D01*
X7283933Y-12154881D01*
X7274409Y-12173928D01*
X7264886Y-12183452D01*
X7245838Y-12192976D01*
X7226790Y-12192976D01*
X7207743Y-12183452D01*
X7198219Y-12173928D01*
X7188695Y-12154881D01*
X7179171Y-12116786D01*
X7179171Y-12069167D01*
X7188695Y-12031071D01*
X7198219Y-12012024D01*
X7207743Y-12002500D01*
X7226790Y-11992976D01*
X7360124Y-11992976D02*
X7483933Y-11992976D01*
X7417266Y-12069167D01*
X7445838Y-12069167D01*
X7464886Y-12078690D01*
X7474409Y-12088214D01*
X7483933Y-12107262D01*
X7483933Y-12154881D01*
X7474409Y-12173928D01*
X7464886Y-12183452D01*
X7445838Y-12192976D01*
X7388695Y-12192976D01*
X7369647Y-12183452D01*
X7360124Y-12173928D01*
X7579171Y-12192976D02*
X7617266Y-12192976D01*
X7636314Y-12183452D01*
X7645838Y-12173928D01*
X7664886Y-12145357D01*
X7674409Y-12107262D01*
X7674409Y-12031071D01*
X7664886Y-12012024D01*
X7655362Y-12002500D01*
X7636314Y-11992976D01*
X7598219Y-11992976D01*
X7579171Y-12002500D01*
X7569647Y-12012024D01*
X7560124Y-12031071D01*
X7560124Y-12078690D01*
X7569647Y-12097738D01*
X7579171Y-12107262D01*
X7598219Y-12116786D01*
X7636314Y-12116786D01*
X7655362Y-12107262D01*
X7664886Y-12097738D01*
X7674409Y-12078690D01*
X7845838Y-12059643D02*
X7845838Y-12192976D01*
X7798219Y-11983452D02*
X7750600Y-12126309D01*
X7874409Y-12126309D01*
X7941076Y-11992976D02*
X7941076Y-12031071D01*
X8017266Y-11992976D02*
X8017266Y-12031071D01*
X8312505Y-12269167D02*
X8302981Y-12259643D01*
X8283933Y-12231071D01*
X8274409Y-12212024D01*
X8264886Y-12183452D01*
X8255362Y-12135833D01*
X8255362Y-12097738D01*
X8264886Y-12050119D01*
X8274409Y-12021548D01*
X8283933Y-12002500D01*
X8302981Y-11973928D01*
X8312505Y-11964405D01*
X8483933Y-11992976D02*
X8388695Y-11992976D01*
X8379171Y-12088214D01*
X8388695Y-12078690D01*
X8407743Y-12069167D01*
X8455362Y-12069167D01*
X8474409Y-12078690D01*
X8483933Y-12088214D01*
X8493457Y-12107262D01*
X8493457Y-12154881D01*
X8483933Y-12173928D01*
X8474409Y-12183452D01*
X8455362Y-12192976D01*
X8407743Y-12192976D01*
X8388695Y-12183452D01*
X8379171Y-12173928D01*
X8617267Y-11992976D02*
X8636314Y-11992976D01*
X8655362Y-12002500D01*
X8664886Y-12012024D01*
X8674409Y-12031071D01*
X8683933Y-12069167D01*
X8683933Y-12116786D01*
X8674409Y-12154881D01*
X8664886Y-12173928D01*
X8655362Y-12183452D01*
X8636314Y-12192976D01*
X8617267Y-12192976D01*
X8598219Y-12183452D01*
X8588695Y-12173928D01*
X8579171Y-12154881D01*
X8569648Y-12116786D01*
X8569648Y-12069167D01*
X8579171Y-12031071D01*
X8588695Y-12012024D01*
X8598219Y-12002500D01*
X8617267Y-11992976D01*
X8922028Y-12192976D02*
X8922028Y-11992976D01*
X9007743Y-12192976D02*
X9007743Y-12088214D01*
X8998219Y-12069167D01*
X8979171Y-12059643D01*
X8950600Y-12059643D01*
X8931552Y-12069167D01*
X8922028Y-12078690D01*
X9131552Y-12192976D02*
X9112505Y-12183452D01*
X9102981Y-12173928D01*
X9093457Y-12154881D01*
X9093457Y-12097738D01*
X9102981Y-12078690D01*
X9112505Y-12069167D01*
X9131552Y-12059643D01*
X9160124Y-12059643D01*
X9179171Y-12069167D01*
X9188695Y-12078690D01*
X9198219Y-12097738D01*
X9198219Y-12154881D01*
X9188695Y-12173928D01*
X9179171Y-12183452D01*
X9160124Y-12192976D01*
X9131552Y-12192976D01*
X9312505Y-12192976D02*
X9293457Y-12183452D01*
X9283933Y-12164405D01*
X9283933Y-11992976D01*
X9464886Y-12183452D02*
X9445838Y-12192976D01*
X9407743Y-12192976D01*
X9388695Y-12183452D01*
X9379171Y-12164405D01*
X9379171Y-12088214D01*
X9388695Y-12069167D01*
X9407743Y-12059643D01*
X9445838Y-12059643D01*
X9464886Y-12069167D01*
X9474409Y-12088214D01*
X9474409Y-12107262D01*
X9379171Y-12126309D01*
X9550600Y-12183452D02*
X9569648Y-12192976D01*
X9607743Y-12192976D01*
X9626790Y-12183452D01*
X9636314Y-12164405D01*
X9636314Y-12154881D01*
X9626790Y-12135833D01*
X9607743Y-12126309D01*
X9579171Y-12126309D01*
X9560124Y-12116786D01*
X9550600Y-12097738D01*
X9550600Y-12088214D01*
X9560124Y-12069167D01*
X9579171Y-12059643D01*
X9607743Y-12059643D01*
X9626790Y-12069167D01*
X9702981Y-12269167D02*
X9712505Y-12259643D01*
X9731552Y-12231071D01*
X9741076Y-12212024D01*
X9750600Y-12183452D01*
X9760124Y-12135833D01*
X9760124Y-12097738D01*
X9750600Y-12050119D01*
X9741076Y-12021548D01*
X9731552Y-12002500D01*
X9712505Y-11973928D01*
X9702981Y-11964405D01*
D16*
X4685600Y-12421500D02*
X4740600Y-12366500D01*
X4685600Y-12311500D01*
X4630600Y-12366500D01*
X4685600Y-12421500D01*
D11*
X5102981Y-12456976D02*
X4988695Y-12456976D01*
X5045838Y-12456976D02*
X5045838Y-12256976D01*
X5026790Y-12285548D01*
X5007743Y-12304595D01*
X4988695Y-12314119D01*
X5188695Y-12437928D02*
X5198219Y-12447452D01*
X5188695Y-12456976D01*
X5179171Y-12447452D01*
X5188695Y-12437928D01*
X5188695Y-12456976D01*
X5388695Y-12456976D02*
X5274409Y-12456976D01*
X5331552Y-12456976D02*
X5331552Y-12256976D01*
X5312505Y-12285548D01*
X5293457Y-12304595D01*
X5274409Y-12314119D01*
X5512505Y-12256976D02*
X5531552Y-12256976D01*
X5550600Y-12266500D01*
X5560124Y-12276024D01*
X5569648Y-12295071D01*
X5579171Y-12333167D01*
X5579171Y-12380786D01*
X5569648Y-12418881D01*
X5560124Y-12437928D01*
X5550600Y-12447452D01*
X5531552Y-12456976D01*
X5512505Y-12456976D01*
X5493457Y-12447452D01*
X5483933Y-12437928D01*
X5474409Y-12418881D01*
X5464886Y-12380786D01*
X5464886Y-12333167D01*
X5474409Y-12295071D01*
X5483933Y-12276024D01*
X5493457Y-12266500D01*
X5512505Y-12256976D01*
X5702981Y-12256976D02*
X5722028Y-12256976D01*
X5741076Y-12266500D01*
X5750600Y-12276024D01*
X5760124Y-12295071D01*
X5769647Y-12333167D01*
X5769647Y-12380786D01*
X5760124Y-12418881D01*
X5750600Y-12437928D01*
X5741076Y-12447452D01*
X5722028Y-12456976D01*
X5702981Y-12456976D01*
X5683933Y-12447452D01*
X5674409Y-12437928D01*
X5664886Y-12418881D01*
X5655362Y-12380786D01*
X5655362Y-12333167D01*
X5664886Y-12295071D01*
X5674409Y-12276024D01*
X5683933Y-12266500D01*
X5702981Y-12256976D01*
X5855362Y-12456976D02*
X5855362Y-12323643D01*
X5855362Y-12342690D02*
X5864886Y-12333167D01*
X5883933Y-12323643D01*
X5912505Y-12323643D01*
X5931552Y-12333167D01*
X5941076Y-12352214D01*
X5941076Y-12456976D01*
X5941076Y-12352214D02*
X5950600Y-12333167D01*
X5969647Y-12323643D01*
X5998219Y-12323643D01*
X6017266Y-12333167D01*
X6026790Y-12352214D01*
X6026790Y-12456976D01*
X6122028Y-12456976D02*
X6122028Y-12323643D01*
X6122028Y-12342690D02*
X6131552Y-12333167D01*
X6150600Y-12323643D01*
X6179171Y-12323643D01*
X6198219Y-12333167D01*
X6207743Y-12352214D01*
X6207743Y-12456976D01*
X6207743Y-12352214D02*
X6217266Y-12333167D01*
X6236314Y-12323643D01*
X6264886Y-12323643D01*
X6283933Y-12333167D01*
X6293457Y-12352214D01*
X6293457Y-12456976D01*
X6683933Y-12247452D02*
X6512505Y-12504595D01*
X6941076Y-12256976D02*
X6960124Y-12256976D01*
X6979171Y-12266500D01*
X6988695Y-12276024D01*
X6998219Y-12295071D01*
X7007743Y-12333167D01*
X7007743Y-12380786D01*
X6998219Y-12418881D01*
X6988695Y-12437928D01*
X6979171Y-12447452D01*
X6960124Y-12456976D01*
X6941076Y-12456976D01*
X6922028Y-12447452D01*
X6912505Y-12437928D01*
X6902981Y-12418881D01*
X6893457Y-12380786D01*
X6893457Y-12333167D01*
X6902981Y-12295071D01*
X6912505Y-12276024D01*
X6922028Y-12266500D01*
X6941076Y-12256976D01*
X7093457Y-12437928D02*
X7102981Y-12447452D01*
X7093457Y-12456976D01*
X7083933Y-12447452D01*
X7093457Y-12437928D01*
X7093457Y-12456976D01*
X7226790Y-12256976D02*
X7245838Y-12256976D01*
X7264886Y-12266500D01*
X7274409Y-12276024D01*
X7283933Y-12295071D01*
X7293457Y-12333167D01*
X7293457Y-12380786D01*
X7283933Y-12418881D01*
X7274409Y-12437928D01*
X7264886Y-12447452D01*
X7245838Y-12456976D01*
X7226790Y-12456976D01*
X7207743Y-12447452D01*
X7198219Y-12437928D01*
X7188695Y-12418881D01*
X7179171Y-12380786D01*
X7179171Y-12333167D01*
X7188695Y-12295071D01*
X7198219Y-12276024D01*
X7207743Y-12266500D01*
X7226790Y-12256976D01*
X7464886Y-12323643D02*
X7464886Y-12456976D01*
X7417266Y-12247452D02*
X7369647Y-12390309D01*
X7493457Y-12390309D01*
X7550600Y-12256976D02*
X7674409Y-12256976D01*
X7607743Y-12333167D01*
X7636314Y-12333167D01*
X7655362Y-12342690D01*
X7664886Y-12352214D01*
X7674409Y-12371262D01*
X7674409Y-12418881D01*
X7664886Y-12437928D01*
X7655362Y-12447452D01*
X7636314Y-12456976D01*
X7579171Y-12456976D01*
X7560124Y-12447452D01*
X7550600Y-12437928D01*
X7741076Y-12256976D02*
X7864886Y-12256976D01*
X7798219Y-12333167D01*
X7826790Y-12333167D01*
X7845838Y-12342690D01*
X7855362Y-12352214D01*
X7864886Y-12371262D01*
X7864886Y-12418881D01*
X7855362Y-12437928D01*
X7845838Y-12447452D01*
X7826790Y-12456976D01*
X7769647Y-12456976D01*
X7750600Y-12447452D01*
X7741076Y-12437928D01*
X7941076Y-12256976D02*
X7941076Y-12295071D01*
X8017266Y-12256976D02*
X8017266Y-12295071D01*
X8312505Y-12533167D02*
X8302981Y-12523643D01*
X8283933Y-12495071D01*
X8274409Y-12476024D01*
X8264886Y-12447452D01*
X8255362Y-12399833D01*
X8255362Y-12361738D01*
X8264886Y-12314119D01*
X8274409Y-12285548D01*
X8283933Y-12266500D01*
X8302981Y-12237928D01*
X8312505Y-12228405D01*
X8369647Y-12256976D02*
X8493457Y-12256976D01*
X8426790Y-12333167D01*
X8455362Y-12333167D01*
X8474409Y-12342690D01*
X8483933Y-12352214D01*
X8493457Y-12371262D01*
X8493457Y-12418881D01*
X8483933Y-12437928D01*
X8474409Y-12447452D01*
X8455362Y-12456976D01*
X8398219Y-12456976D01*
X8379171Y-12447452D01*
X8369647Y-12437928D01*
X8731552Y-12456976D02*
X8731552Y-12256976D01*
X8817267Y-12456976D02*
X8817267Y-12352214D01*
X8807743Y-12333167D01*
X8788695Y-12323643D01*
X8760124Y-12323643D01*
X8741076Y-12333167D01*
X8731552Y-12342690D01*
X8941076Y-12456976D02*
X8922028Y-12447452D01*
X8912505Y-12437928D01*
X8902981Y-12418881D01*
X8902981Y-12361738D01*
X8912505Y-12342690D01*
X8922028Y-12333167D01*
X8941076Y-12323643D01*
X8969648Y-12323643D01*
X8988695Y-12333167D01*
X8998219Y-12342690D01*
X9007743Y-12361738D01*
X9007743Y-12418881D01*
X8998219Y-12437928D01*
X8988695Y-12447452D01*
X8969648Y-12456976D01*
X8941076Y-12456976D01*
X9122028Y-12456976D02*
X9102981Y-12447452D01*
X9093457Y-12428405D01*
X9093457Y-12256976D01*
X9274409Y-12447452D02*
X9255362Y-12456976D01*
X9217267Y-12456976D01*
X9198219Y-12447452D01*
X9188695Y-12428405D01*
X9188695Y-12352214D01*
X9198219Y-12333167D01*
X9217267Y-12323643D01*
X9255362Y-12323643D01*
X9274409Y-12333167D01*
X9283933Y-12352214D01*
X9283933Y-12371262D01*
X9188695Y-12390309D01*
X9360124Y-12447452D02*
X9379171Y-12456976D01*
X9417267Y-12456976D01*
X9436314Y-12447452D01*
X9445838Y-12428405D01*
X9445838Y-12418881D01*
X9436314Y-12399833D01*
X9417267Y-12390309D01*
X9388695Y-12390309D01*
X9369648Y-12380786D01*
X9360124Y-12361738D01*
X9360124Y-12352214D01*
X9369648Y-12333167D01*
X9388695Y-12323643D01*
X9417267Y-12323643D01*
X9436314Y-12333167D01*
X9512505Y-12533167D02*
X9522028Y-12523643D01*
X9541076Y-12495071D01*
X9550600Y-12476024D01*
X9560124Y-12447452D01*
X9569648Y-12399833D01*
X9569648Y-12361738D01*
X9560124Y-12314119D01*
X9550600Y-12285548D01*
X9541076Y-12266500D01*
X9522028Y-12237928D01*
X9512505Y-12228405D01*
D17*
X4570600Y-12545500D02*
X4740600Y-12715500D01*
X4740600Y-12545500D02*
X4570600Y-12715500D01*
X4740600Y-12630500D02*
G75*
G03*
X4740600Y-12630500I-85000J0D01*
G01*
D11*
X5102981Y-12720976D02*
X4988695Y-12720976D01*
X5045838Y-12720976D02*
X5045838Y-12520976D01*
X5026790Y-12549548D01*
X5007743Y-12568595D01*
X4988695Y-12578119D01*
X5188695Y-12701928D02*
X5198219Y-12711452D01*
X5188695Y-12720976D01*
X5179171Y-12711452D01*
X5188695Y-12701928D01*
X5188695Y-12720976D01*
X5264886Y-12520976D02*
X5398219Y-12520976D01*
X5312505Y-12720976D01*
X5512505Y-12520976D02*
X5531552Y-12520976D01*
X5550600Y-12530500D01*
X5560124Y-12540024D01*
X5569648Y-12559071D01*
X5579171Y-12597167D01*
X5579171Y-12644786D01*
X5569648Y-12682881D01*
X5560124Y-12701928D01*
X5550600Y-12711452D01*
X5531552Y-12720976D01*
X5512505Y-12720976D01*
X5493457Y-12711452D01*
X5483933Y-12701928D01*
X5474409Y-12682881D01*
X5464886Y-12644786D01*
X5464886Y-12597167D01*
X5474409Y-12559071D01*
X5483933Y-12540024D01*
X5493457Y-12530500D01*
X5512505Y-12520976D01*
X5702981Y-12520976D02*
X5722028Y-12520976D01*
X5741076Y-12530500D01*
X5750600Y-12540024D01*
X5760124Y-12559071D01*
X5769647Y-12597167D01*
X5769647Y-12644786D01*
X5760124Y-12682881D01*
X5750600Y-12701928D01*
X5741076Y-12711452D01*
X5722028Y-12720976D01*
X5702981Y-12720976D01*
X5683933Y-12711452D01*
X5674409Y-12701928D01*
X5664886Y-12682881D01*
X5655362Y-12644786D01*
X5655362Y-12597167D01*
X5664886Y-12559071D01*
X5674409Y-12540024D01*
X5683933Y-12530500D01*
X5702981Y-12520976D01*
X5855362Y-12720976D02*
X5855362Y-12587643D01*
X5855362Y-12606690D02*
X5864886Y-12597167D01*
X5883933Y-12587643D01*
X5912505Y-12587643D01*
X5931552Y-12597167D01*
X5941076Y-12616214D01*
X5941076Y-12720976D01*
X5941076Y-12616214D02*
X5950600Y-12597167D01*
X5969647Y-12587643D01*
X5998219Y-12587643D01*
X6017266Y-12597167D01*
X6026790Y-12616214D01*
X6026790Y-12720976D01*
X6122028Y-12720976D02*
X6122028Y-12587643D01*
X6122028Y-12606690D02*
X6131552Y-12597167D01*
X6150600Y-12587643D01*
X6179171Y-12587643D01*
X6198219Y-12597167D01*
X6207743Y-12616214D01*
X6207743Y-12720976D01*
X6207743Y-12616214D02*
X6217266Y-12597167D01*
X6236314Y-12587643D01*
X6264886Y-12587643D01*
X6283933Y-12597167D01*
X6293457Y-12616214D01*
X6293457Y-12720976D01*
X6683933Y-12511452D02*
X6512505Y-12768595D01*
X6941076Y-12520976D02*
X6960124Y-12520976D01*
X6979171Y-12530500D01*
X6988695Y-12540024D01*
X6998219Y-12559071D01*
X7007743Y-12597167D01*
X7007743Y-12644786D01*
X6998219Y-12682881D01*
X6988695Y-12701928D01*
X6979171Y-12711452D01*
X6960124Y-12720976D01*
X6941076Y-12720976D01*
X6922028Y-12711452D01*
X6912505Y-12701928D01*
X6902981Y-12682881D01*
X6893457Y-12644786D01*
X6893457Y-12597167D01*
X6902981Y-12559071D01*
X6912505Y-12540024D01*
X6922028Y-12530500D01*
X6941076Y-12520976D01*
X7093457Y-12701928D02*
X7102981Y-12711452D01*
X7093457Y-12720976D01*
X7083933Y-12711452D01*
X7093457Y-12701928D01*
X7093457Y-12720976D01*
X7226790Y-12520976D02*
X7245838Y-12520976D01*
X7264886Y-12530500D01*
X7274409Y-12540024D01*
X7283933Y-12559071D01*
X7293457Y-12597167D01*
X7293457Y-12644786D01*
X7283933Y-12682881D01*
X7274409Y-12701928D01*
X7264886Y-12711452D01*
X7245838Y-12720976D01*
X7226790Y-12720976D01*
X7207743Y-12711452D01*
X7198219Y-12701928D01*
X7188695Y-12682881D01*
X7179171Y-12644786D01*
X7179171Y-12597167D01*
X7188695Y-12559071D01*
X7198219Y-12540024D01*
X7207743Y-12530500D01*
X7226790Y-12520976D01*
X7464886Y-12520976D02*
X7426790Y-12520976D01*
X7407743Y-12530500D01*
X7398219Y-12540024D01*
X7379171Y-12568595D01*
X7369647Y-12606690D01*
X7369647Y-12682881D01*
X7379171Y-12701928D01*
X7388695Y-12711452D01*
X7407743Y-12720976D01*
X7445838Y-12720976D01*
X7464886Y-12711452D01*
X7474409Y-12701928D01*
X7483933Y-12682881D01*
X7483933Y-12635262D01*
X7474409Y-12616214D01*
X7464886Y-12606690D01*
X7445838Y-12597167D01*
X7407743Y-12597167D01*
X7388695Y-12606690D01*
X7379171Y-12616214D01*
X7369647Y-12635262D01*
X7655362Y-12520976D02*
X7617266Y-12520976D01*
X7598219Y-12530500D01*
X7588695Y-12540024D01*
X7569647Y-12568595D01*
X7560124Y-12606690D01*
X7560124Y-12682881D01*
X7569647Y-12701928D01*
X7579171Y-12711452D01*
X7598219Y-12720976D01*
X7636314Y-12720976D01*
X7655362Y-12711452D01*
X7664886Y-12701928D01*
X7674409Y-12682881D01*
X7674409Y-12635262D01*
X7664886Y-12616214D01*
X7655362Y-12606690D01*
X7636314Y-12597167D01*
X7598219Y-12597167D01*
X7579171Y-12606690D01*
X7569647Y-12616214D01*
X7560124Y-12635262D01*
X7769647Y-12720976D02*
X7807743Y-12720976D01*
X7826790Y-12711452D01*
X7836314Y-12701928D01*
X7855362Y-12673357D01*
X7864886Y-12635262D01*
X7864886Y-12559071D01*
X7855362Y-12540024D01*
X7845838Y-12530500D01*
X7826790Y-12520976D01*
X7788695Y-12520976D01*
X7769647Y-12530500D01*
X7760124Y-12540024D01*
X7750600Y-12559071D01*
X7750600Y-12606690D01*
X7760124Y-12625738D01*
X7769647Y-12635262D01*
X7788695Y-12644786D01*
X7826790Y-12644786D01*
X7845838Y-12635262D01*
X7855362Y-12625738D01*
X7864886Y-12606690D01*
X7941076Y-12520976D02*
X7941076Y-12559071D01*
X8017266Y-12520976D02*
X8017266Y-12559071D01*
X8312505Y-12797167D02*
X8302981Y-12787643D01*
X8283933Y-12759071D01*
X8274409Y-12740024D01*
X8264886Y-12711452D01*
X8255362Y-12663833D01*
X8255362Y-12625738D01*
X8264886Y-12578119D01*
X8274409Y-12549548D01*
X8283933Y-12530500D01*
X8302981Y-12501928D01*
X8312505Y-12492405D01*
X8426790Y-12520976D02*
X8445838Y-12520976D01*
X8464886Y-12530500D01*
X8474409Y-12540024D01*
X8483933Y-12559071D01*
X8493457Y-12597167D01*
X8493457Y-12644786D01*
X8483933Y-12682881D01*
X8474409Y-12701928D01*
X8464886Y-12711452D01*
X8445838Y-12720976D01*
X8426790Y-12720976D01*
X8407743Y-12711452D01*
X8398219Y-12701928D01*
X8388695Y-12682881D01*
X8379171Y-12644786D01*
X8379171Y-12597167D01*
X8388695Y-12559071D01*
X8398219Y-12540024D01*
X8407743Y-12530500D01*
X8426790Y-12520976D01*
X8731552Y-12720976D02*
X8731552Y-12520976D01*
X8817267Y-12720976D02*
X8817267Y-12616214D01*
X8807743Y-12597167D01*
X8788695Y-12587643D01*
X8760124Y-12587643D01*
X8741076Y-12597167D01*
X8731552Y-12606690D01*
X8941076Y-12720976D02*
X8922028Y-12711452D01*
X8912505Y-12701928D01*
X8902981Y-12682881D01*
X8902981Y-12625738D01*
X8912505Y-12606690D01*
X8922028Y-12597167D01*
X8941076Y-12587643D01*
X8969648Y-12587643D01*
X8988695Y-12597167D01*
X8998219Y-12606690D01*
X9007743Y-12625738D01*
X9007743Y-12682881D01*
X8998219Y-12701928D01*
X8988695Y-12711452D01*
X8969648Y-12720976D01*
X8941076Y-12720976D01*
X9122028Y-12720976D02*
X9102981Y-12711452D01*
X9093457Y-12692405D01*
X9093457Y-12520976D01*
X9274409Y-12711452D02*
X9255362Y-12720976D01*
X9217267Y-12720976D01*
X9198219Y-12711452D01*
X9188695Y-12692405D01*
X9188695Y-12616214D01*
X9198219Y-12597167D01*
X9217267Y-12587643D01*
X9255362Y-12587643D01*
X9274409Y-12597167D01*
X9283933Y-12616214D01*
X9283933Y-12635262D01*
X9188695Y-12654309D01*
X9360124Y-12711452D02*
X9379171Y-12720976D01*
X9417267Y-12720976D01*
X9436314Y-12711452D01*
X9445838Y-12692405D01*
X9445838Y-12682881D01*
X9436314Y-12663833D01*
X9417267Y-12654309D01*
X9388695Y-12654309D01*
X9369648Y-12644786D01*
X9360124Y-12625738D01*
X9360124Y-12616214D01*
X9369648Y-12597167D01*
X9388695Y-12587643D01*
X9417267Y-12587643D01*
X9436314Y-12597167D01*
X9683933Y-12644786D02*
X9836314Y-12644786D01*
X9760124Y-12720976D02*
X9760124Y-12568595D01*
X10169648Y-12520976D02*
X10131552Y-12520976D01*
X10112505Y-12530500D01*
X10102981Y-12540024D01*
X10083933Y-12568595D01*
X10074409Y-12606690D01*
X10074409Y-12682881D01*
X10083933Y-12701928D01*
X10093457Y-12711452D01*
X10112505Y-12720976D01*
X10150600Y-12720976D01*
X10169648Y-12711452D01*
X10179171Y-12701928D01*
X10188695Y-12682881D01*
X10188695Y-12635262D01*
X10179171Y-12616214D01*
X10169648Y-12606690D01*
X10150600Y-12597167D01*
X10112505Y-12597167D01*
X10093457Y-12606690D01*
X10083933Y-12616214D01*
X10074409Y-12635262D01*
X10417267Y-12711452D02*
X10436314Y-12720976D01*
X10474409Y-12720976D01*
X10493457Y-12711452D01*
X10502981Y-12692405D01*
X10502981Y-12682881D01*
X10493457Y-12663833D01*
X10474409Y-12654309D01*
X10445838Y-12654309D01*
X10426790Y-12644786D01*
X10417267Y-12625738D01*
X10417267Y-12616214D01*
X10426790Y-12597167D01*
X10445838Y-12587643D01*
X10474409Y-12587643D01*
X10493457Y-12597167D01*
X10617267Y-12720976D02*
X10598219Y-12711452D01*
X10588695Y-12692405D01*
X10588695Y-12520976D01*
X10722028Y-12720976D02*
X10702981Y-12711452D01*
X10693457Y-12701928D01*
X10683933Y-12682881D01*
X10683933Y-12625738D01*
X10693457Y-12606690D01*
X10702981Y-12597167D01*
X10722028Y-12587643D01*
X10750600Y-12587643D01*
X10769648Y-12597167D01*
X10779171Y-12606690D01*
X10788695Y-12625738D01*
X10788695Y-12682881D01*
X10779171Y-12701928D01*
X10769648Y-12711452D01*
X10750600Y-12720976D01*
X10722028Y-12720976D01*
X10845838Y-12587643D02*
X10922028Y-12587643D01*
X10874409Y-12520976D02*
X10874409Y-12692405D01*
X10883933Y-12711452D01*
X10902981Y-12720976D01*
X10922028Y-12720976D01*
X10979171Y-12711452D02*
X10998219Y-12720976D01*
X11036314Y-12720976D01*
X11055362Y-12711452D01*
X11064886Y-12692405D01*
X11064886Y-12682881D01*
X11055362Y-12663833D01*
X11036314Y-12654309D01*
X11007743Y-12654309D01*
X10988695Y-12644786D01*
X10979171Y-12625738D01*
X10979171Y-12616214D01*
X10988695Y-12597167D01*
X11007743Y-12587643D01*
X11036314Y-12587643D01*
X11055362Y-12597167D01*
X11131552Y-12797167D02*
X11141076Y-12787643D01*
X11160124Y-12759071D01*
X11169648Y-12740024D01*
X11179171Y-12711452D01*
X11188695Y-12663833D01*
X11188695Y-12625738D01*
X11179171Y-12578119D01*
X11169648Y-12549548D01*
X11160124Y-12530500D01*
X11141076Y-12501928D01*
X11131552Y-12492405D01*
X4540600Y-12820500D02*
X4740600Y-13020500D01*
X4740600Y-12820500D02*
X4540600Y-13020500D01*
X4640600Y-12820500D02*
X4640600Y-13020500D01*
X4540600Y-12920500D02*
X4740600Y-12920500D01*
X4988695Y-12830024D02*
X4998219Y-12820500D01*
X5017267Y-12810976D01*
X5064886Y-12810976D01*
X5083933Y-12820500D01*
X5093457Y-12830024D01*
X5102981Y-12849071D01*
X5102981Y-12868119D01*
X5093457Y-12896690D01*
X4979171Y-13010976D01*
X5102981Y-13010976D01*
X5188695Y-12991928D02*
X5198219Y-13001452D01*
X5188695Y-13010976D01*
X5179171Y-13001452D01*
X5188695Y-12991928D01*
X5188695Y-13010976D01*
X5322028Y-12810976D02*
X5341076Y-12810976D01*
X5360124Y-12820500D01*
X5369648Y-12830024D01*
X5379171Y-12849071D01*
X5388695Y-12887167D01*
X5388695Y-12934786D01*
X5379171Y-12972881D01*
X5369648Y-12991928D01*
X5360124Y-13001452D01*
X5341076Y-13010976D01*
X5322028Y-13010976D01*
X5302981Y-13001452D01*
X5293457Y-12991928D01*
X5283933Y-12972881D01*
X5274409Y-12934786D01*
X5274409Y-12887167D01*
X5283933Y-12849071D01*
X5293457Y-12830024D01*
X5302981Y-12820500D01*
X5322028Y-12810976D01*
X5512505Y-12810976D02*
X5531552Y-12810976D01*
X5550600Y-12820500D01*
X5560124Y-12830024D01*
X5569648Y-12849071D01*
X5579171Y-12887167D01*
X5579171Y-12934786D01*
X5569648Y-12972881D01*
X5560124Y-12991928D01*
X5550600Y-13001452D01*
X5531552Y-13010976D01*
X5512505Y-13010976D01*
X5493457Y-13001452D01*
X5483933Y-12991928D01*
X5474409Y-12972881D01*
X5464886Y-12934786D01*
X5464886Y-12887167D01*
X5474409Y-12849071D01*
X5483933Y-12830024D01*
X5493457Y-12820500D01*
X5512505Y-12810976D01*
X5702981Y-12810976D02*
X5722028Y-12810976D01*
X5741076Y-12820500D01*
X5750600Y-12830024D01*
X5760124Y-12849071D01*
X5769647Y-12887167D01*
X5769647Y-12934786D01*
X5760124Y-12972881D01*
X5750600Y-12991928D01*
X5741076Y-13001452D01*
X5722028Y-13010976D01*
X5702981Y-13010976D01*
X5683933Y-13001452D01*
X5674409Y-12991928D01*
X5664886Y-12972881D01*
X5655362Y-12934786D01*
X5655362Y-12887167D01*
X5664886Y-12849071D01*
X5674409Y-12830024D01*
X5683933Y-12820500D01*
X5702981Y-12810976D01*
X5855362Y-13010976D02*
X5855362Y-12877643D01*
X5855362Y-12896690D02*
X5864886Y-12887167D01*
X5883933Y-12877643D01*
X5912505Y-12877643D01*
X5931552Y-12887167D01*
X5941076Y-12906214D01*
X5941076Y-13010976D01*
X5941076Y-12906214D02*
X5950600Y-12887167D01*
X5969647Y-12877643D01*
X5998219Y-12877643D01*
X6017266Y-12887167D01*
X6026790Y-12906214D01*
X6026790Y-13010976D01*
X6122028Y-13010976D02*
X6122028Y-12877643D01*
X6122028Y-12896690D02*
X6131552Y-12887167D01*
X6150600Y-12877643D01*
X6179171Y-12877643D01*
X6198219Y-12887167D01*
X6207743Y-12906214D01*
X6207743Y-13010976D01*
X6207743Y-12906214D02*
X6217266Y-12887167D01*
X6236314Y-12877643D01*
X6264886Y-12877643D01*
X6283933Y-12887167D01*
X6293457Y-12906214D01*
X6293457Y-13010976D01*
X6683933Y-12801452D02*
X6512505Y-13058595D01*
X6941076Y-12810976D02*
X6960124Y-12810976D01*
X6979171Y-12820500D01*
X6988695Y-12830024D01*
X6998219Y-12849071D01*
X7007743Y-12887167D01*
X7007743Y-12934786D01*
X6998219Y-12972881D01*
X6988695Y-12991928D01*
X6979171Y-13001452D01*
X6960124Y-13010976D01*
X6941076Y-13010976D01*
X6922028Y-13001452D01*
X6912505Y-12991928D01*
X6902981Y-12972881D01*
X6893457Y-12934786D01*
X6893457Y-12887167D01*
X6902981Y-12849071D01*
X6912505Y-12830024D01*
X6922028Y-12820500D01*
X6941076Y-12810976D01*
X7093457Y-12991928D02*
X7102981Y-13001452D01*
X7093457Y-13010976D01*
X7083933Y-13001452D01*
X7093457Y-12991928D01*
X7093457Y-13010976D01*
X7226790Y-12810976D02*
X7245838Y-12810976D01*
X7264886Y-12820500D01*
X7274409Y-12830024D01*
X7283933Y-12849071D01*
X7293457Y-12887167D01*
X7293457Y-12934786D01*
X7283933Y-12972881D01*
X7274409Y-12991928D01*
X7264886Y-13001452D01*
X7245838Y-13010976D01*
X7226790Y-13010976D01*
X7207743Y-13001452D01*
X7198219Y-12991928D01*
X7188695Y-12972881D01*
X7179171Y-12934786D01*
X7179171Y-12887167D01*
X7188695Y-12849071D01*
X7198219Y-12830024D01*
X7207743Y-12820500D01*
X7226790Y-12810976D01*
X7360124Y-12810976D02*
X7493457Y-12810976D01*
X7407743Y-13010976D01*
X7598219Y-12896690D02*
X7579171Y-12887167D01*
X7569647Y-12877643D01*
X7560124Y-12858595D01*
X7560124Y-12849071D01*
X7569647Y-12830024D01*
X7579171Y-12820500D01*
X7598219Y-12810976D01*
X7636314Y-12810976D01*
X7655362Y-12820500D01*
X7664886Y-12830024D01*
X7674409Y-12849071D01*
X7674409Y-12858595D01*
X7664886Y-12877643D01*
X7655362Y-12887167D01*
X7636314Y-12896690D01*
X7598219Y-12896690D01*
X7579171Y-12906214D01*
X7569647Y-12915738D01*
X7560124Y-12934786D01*
X7560124Y-12972881D01*
X7569647Y-12991928D01*
X7579171Y-13001452D01*
X7598219Y-13010976D01*
X7636314Y-13010976D01*
X7655362Y-13001452D01*
X7664886Y-12991928D01*
X7674409Y-12972881D01*
X7674409Y-12934786D01*
X7664886Y-12915738D01*
X7655362Y-12906214D01*
X7636314Y-12896690D01*
X7741076Y-12810976D02*
X7874409Y-12810976D01*
X7788695Y-13010976D01*
X7941076Y-12810976D02*
X7941076Y-12849071D01*
X8017266Y-12810976D02*
X8017266Y-12849071D01*
X8312505Y-13087167D02*
X8302981Y-13077643D01*
X8283933Y-13049071D01*
X8274409Y-13030024D01*
X8264886Y-13001452D01*
X8255362Y-12953833D01*
X8255362Y-12915738D01*
X8264886Y-12868119D01*
X8274409Y-12839548D01*
X8283933Y-12820500D01*
X8302981Y-12791928D01*
X8312505Y-12782405D01*
X8369647Y-12810976D02*
X8493457Y-12810976D01*
X8426790Y-12887167D01*
X8455362Y-12887167D01*
X8474409Y-12896690D01*
X8483933Y-12906214D01*
X8493457Y-12925262D01*
X8493457Y-12972881D01*
X8483933Y-12991928D01*
X8474409Y-13001452D01*
X8455362Y-13010976D01*
X8398219Y-13010976D01*
X8379171Y-13001452D01*
X8369647Y-12991928D01*
X8731552Y-13010976D02*
X8731552Y-12810976D01*
X8817267Y-13010976D02*
X8817267Y-12906214D01*
X8807743Y-12887167D01*
X8788695Y-12877643D01*
X8760124Y-12877643D01*
X8741076Y-12887167D01*
X8731552Y-12896690D01*
X8941076Y-13010976D02*
X8922028Y-13001452D01*
X8912505Y-12991928D01*
X8902981Y-12972881D01*
X8902981Y-12915738D01*
X8912505Y-12896690D01*
X8922028Y-12887167D01*
X8941076Y-12877643D01*
X8969648Y-12877643D01*
X8988695Y-12887167D01*
X8998219Y-12896690D01*
X9007743Y-12915738D01*
X9007743Y-12972881D01*
X8998219Y-12991928D01*
X8988695Y-13001452D01*
X8969648Y-13010976D01*
X8941076Y-13010976D01*
X9122028Y-13010976D02*
X9102981Y-13001452D01*
X9093457Y-12982405D01*
X9093457Y-12810976D01*
X9274409Y-13001452D02*
X9255362Y-13010976D01*
X9217267Y-13010976D01*
X9198219Y-13001452D01*
X9188695Y-12982405D01*
X9188695Y-12906214D01*
X9198219Y-12887167D01*
X9217267Y-12877643D01*
X9255362Y-12877643D01*
X9274409Y-12887167D01*
X9283933Y-12906214D01*
X9283933Y-12925262D01*
X9188695Y-12944309D01*
X9360124Y-13001452D02*
X9379171Y-13010976D01*
X9417267Y-13010976D01*
X9436314Y-13001452D01*
X9445838Y-12982405D01*
X9445838Y-12972881D01*
X9436314Y-12953833D01*
X9417267Y-12944309D01*
X9388695Y-12944309D01*
X9369648Y-12934786D01*
X9360124Y-12915738D01*
X9360124Y-12906214D01*
X9369648Y-12887167D01*
X9388695Y-12877643D01*
X9417267Y-12877643D01*
X9436314Y-12887167D01*
X9512505Y-13087167D02*
X9522028Y-13077643D01*
X9541076Y-13049071D01*
X9550600Y-13030024D01*
X9560124Y-13001452D01*
X9569648Y-12953833D01*
X9569648Y-12915738D01*
X9560124Y-12868119D01*
X9550600Y-12839548D01*
X9541076Y-12820500D01*
X9522028Y-12791928D01*
X9512505Y-12782405D01*
M02*
