%TF.GenerationSoftware,KiCad,Pcbnew,7.0.5-7.0.5~ubuntu22.04.1*%
%TF.CreationDate,2023-06-04T12:13:27-05:00*%
%TF.ProjectId,badge,62616467-652e-46b6-9963-61645f706362,rev?*%
%TF.SameCoordinates,Original*%
%TF.FileFunction,Drillmap*%
%TF.FilePolarity,Positive*%
%FSLAX45Y45*%
G04 Gerber Fmt 4.5, Leading zero omitted, Abs format (unit mm)*
G04 Created by KiCad (PCBNEW 7.0.5-7.0.5~ubuntu22.04.1) date 2023-06-04 12:13:27*
%MOMM*%
%LPD*%
G01*
G04 APERTURE LIST*
%ADD10C,0.050000*%
%ADD11C,0.200000*%
%ADD12C,0.300000*%
G04 APERTURE END LIST*
D10*
X5080000Y-10668000D02*
X18288000Y-10668000D01*
X4778813Y-10179909D02*
G75*
G03*
X5080000Y-10668000I301377J-151002D01*
G01*
X23622000Y-5842000D02*
X6604000Y-5842000D01*
X23622000Y-5842000D02*
X23622000Y-5842000D01*
X18288000Y-10668000D02*
X23784261Y-6316291D01*
X6604000Y-5842000D02*
X4778811Y-10179908D01*
X23784261Y-6316291D02*
G75*
G03*
X23622000Y-5842000I-162081J209451D01*
G01*
D11*
D12*
X5167173Y-9353491D02*
X5467173Y-9653491D01*
X5467173Y-9353491D02*
X5167173Y-9653491D01*
X5450429Y-6115859D02*
X5750429Y-6415859D01*
X5750429Y-6115859D02*
X5450429Y-6415859D01*
X6708000Y-6073000D02*
X7008000Y-6373000D01*
X7008000Y-6073000D02*
X6708000Y-6373000D01*
X11346000Y-10202000D02*
X11646000Y-10502000D01*
X11646000Y-10202000D02*
X11346000Y-10502000D01*
X11346000Y-13452000D02*
X11646000Y-13752000D01*
X11646000Y-13452000D02*
X11346000Y-13752000D01*
X11722134Y-9926976D02*
X12022134Y-10226976D01*
X12022134Y-9926976D02*
X11722134Y-10226976D01*
X12005391Y-6689343D02*
X12305391Y-6989343D01*
X12305391Y-6689343D02*
X12005391Y-6989343D01*
X13312000Y-6200000D02*
X13612000Y-6500000D01*
X13612000Y-6200000D02*
X13312000Y-6500000D01*
D11*
X13312000Y-6200000D02*
X13312000Y-6500000D01*
X13312000Y-6500000D02*
G75*
G03*
X13612000Y-6500000I150000J0D01*
G01*
X13612000Y-6500000D02*
X13612000Y-6200000D01*
X13612000Y-6200000D02*
G75*
G03*
X13312000Y-6200000I-150000J0D01*
G01*
D12*
X13312000Y-8486000D02*
X13612000Y-8786000D01*
X13612000Y-8486000D02*
X13312000Y-8786000D01*
D11*
X13312000Y-8486000D02*
X13312000Y-8786000D01*
X13312000Y-8786000D02*
G75*
G03*
X13612000Y-8786000I150000J0D01*
G01*
X13612000Y-8786000D02*
X13612000Y-8486000D01*
X13612000Y-8486000D02*
G75*
G03*
X13312000Y-8486000I-150000J0D01*
G01*
D12*
X14074000Y-9375000D02*
X14374000Y-9675000D01*
X14374000Y-9375000D02*
X14074000Y-9675000D01*
D11*
X14074000Y-9675000D02*
X14374000Y-9675000D01*
X14374000Y-9675000D02*
G75*
G03*
X14374000Y-9375000I0J150000D01*
G01*
X14374000Y-9375000D02*
X14074000Y-9375000D01*
X14074000Y-9375000D02*
G75*
G03*
X14074000Y-9675000I0J-150000D01*
G01*
D12*
X17884000Y-9375000D02*
X18184000Y-9675000D01*
X18184000Y-9375000D02*
X17884000Y-9675000D01*
D11*
X17884000Y-9675000D02*
X18184000Y-9675000D01*
X18184000Y-9675000D02*
G75*
G03*
X18184000Y-9375000I0J150000D01*
G01*
X18184000Y-9375000D02*
X17884000Y-9375000D01*
X17884000Y-9375000D02*
G75*
G03*
X17884000Y-9675000I0J-150000D01*
G01*
D12*
X17926000Y-10202000D02*
X18226000Y-10502000D01*
X18226000Y-10202000D02*
X17926000Y-10502000D01*
X17926000Y-13452000D02*
X18226000Y-13752000D01*
X18226000Y-13452000D02*
X17926000Y-13752000D01*
X18646000Y-6200000D02*
X18946000Y-6500000D01*
X18946000Y-6200000D02*
X18646000Y-6500000D01*
D11*
X18646000Y-6200000D02*
X18646000Y-6500000D01*
X18646000Y-6500000D02*
G75*
G03*
X18946000Y-6500000I150000J0D01*
G01*
X18946000Y-6500000D02*
X18946000Y-6200000D01*
X18946000Y-6200000D02*
G75*
G03*
X18646000Y-6200000I-150000J0D01*
G01*
D12*
X18646000Y-8486000D02*
X18946000Y-8786000D01*
X18946000Y-8486000D02*
X18646000Y-8786000D01*
D11*
X18646000Y-8486000D02*
X18646000Y-8786000D01*
X18646000Y-8786000D02*
G75*
G03*
X18946000Y-8786000I150000J0D01*
G01*
X18946000Y-8786000D02*
X18946000Y-8486000D01*
X18946000Y-8486000D02*
G75*
G03*
X18646000Y-8486000I-150000J0D01*
G01*
D12*
X22710000Y-6073000D02*
X23010000Y-6373000D01*
X23010000Y-6073000D02*
X22710000Y-6373000D01*
D11*
X5001377Y-10981984D02*
X5001377Y-10781984D01*
X5001377Y-10781984D02*
X5048996Y-10781984D01*
X5048996Y-10781984D02*
X5077567Y-10791508D01*
X5077567Y-10791508D02*
X5096615Y-10810555D01*
X5096615Y-10810555D02*
X5106139Y-10829603D01*
X5106139Y-10829603D02*
X5115662Y-10867698D01*
X5115662Y-10867698D02*
X5115662Y-10896270D01*
X5115662Y-10896270D02*
X5106139Y-10934365D01*
X5106139Y-10934365D02*
X5096615Y-10953412D01*
X5096615Y-10953412D02*
X5077567Y-10972460D01*
X5077567Y-10972460D02*
X5048996Y-10981984D01*
X5048996Y-10981984D02*
X5001377Y-10981984D01*
X5201377Y-10981984D02*
X5201377Y-10848650D01*
X5201377Y-10886746D02*
X5210901Y-10867698D01*
X5210901Y-10867698D02*
X5220424Y-10858174D01*
X5220424Y-10858174D02*
X5239472Y-10848650D01*
X5239472Y-10848650D02*
X5258520Y-10848650D01*
X5325186Y-10981984D02*
X5325186Y-10848650D01*
X5325186Y-10781984D02*
X5315662Y-10791508D01*
X5315662Y-10791508D02*
X5325186Y-10801031D01*
X5325186Y-10801031D02*
X5334710Y-10791508D01*
X5334710Y-10791508D02*
X5325186Y-10781984D01*
X5325186Y-10781984D02*
X5325186Y-10801031D01*
X5448996Y-10981984D02*
X5429948Y-10972460D01*
X5429948Y-10972460D02*
X5420424Y-10953412D01*
X5420424Y-10953412D02*
X5420424Y-10781984D01*
X5553758Y-10981984D02*
X5534710Y-10972460D01*
X5534710Y-10972460D02*
X5525186Y-10953412D01*
X5525186Y-10953412D02*
X5525186Y-10781984D01*
X5782329Y-10981984D02*
X5782329Y-10781984D01*
X5782329Y-10781984D02*
X5848996Y-10924841D01*
X5848996Y-10924841D02*
X5915662Y-10781984D01*
X5915662Y-10781984D02*
X5915662Y-10981984D01*
X6096615Y-10981984D02*
X6096615Y-10877222D01*
X6096615Y-10877222D02*
X6087091Y-10858174D01*
X6087091Y-10858174D02*
X6068043Y-10848650D01*
X6068043Y-10848650D02*
X6029948Y-10848650D01*
X6029948Y-10848650D02*
X6010900Y-10858174D01*
X6096615Y-10972460D02*
X6077567Y-10981984D01*
X6077567Y-10981984D02*
X6029948Y-10981984D01*
X6029948Y-10981984D02*
X6010900Y-10972460D01*
X6010900Y-10972460D02*
X6001377Y-10953412D01*
X6001377Y-10953412D02*
X6001377Y-10934365D01*
X6001377Y-10934365D02*
X6010900Y-10915317D01*
X6010900Y-10915317D02*
X6029948Y-10905793D01*
X6029948Y-10905793D02*
X6077567Y-10905793D01*
X6077567Y-10905793D02*
X6096615Y-10896270D01*
X6191853Y-10848650D02*
X6191853Y-11048650D01*
X6191853Y-10858174D02*
X6210900Y-10848650D01*
X6210900Y-10848650D02*
X6248996Y-10848650D01*
X6248996Y-10848650D02*
X6268043Y-10858174D01*
X6268043Y-10858174D02*
X6277567Y-10867698D01*
X6277567Y-10867698D02*
X6287091Y-10886746D01*
X6287091Y-10886746D02*
X6287091Y-10943889D01*
X6287091Y-10943889D02*
X6277567Y-10962936D01*
X6277567Y-10962936D02*
X6268043Y-10972460D01*
X6268043Y-10972460D02*
X6248996Y-10981984D01*
X6248996Y-10981984D02*
X6210900Y-10981984D01*
X6210900Y-10981984D02*
X6191853Y-10972460D01*
X6372805Y-10962936D02*
X6382329Y-10972460D01*
X6382329Y-10972460D02*
X6372805Y-10981984D01*
X6372805Y-10981984D02*
X6363281Y-10972460D01*
X6363281Y-10972460D02*
X6372805Y-10962936D01*
X6372805Y-10962936D02*
X6372805Y-10981984D01*
X6372805Y-10858174D02*
X6382329Y-10867698D01*
X6382329Y-10867698D02*
X6372805Y-10877222D01*
X6372805Y-10877222D02*
X6363281Y-10867698D01*
X6363281Y-10867698D02*
X6372805Y-10858174D01*
X6372805Y-10858174D02*
X6372805Y-10877222D01*
X4540600Y-11210500D02*
X4740600Y-11410500D01*
X4740600Y-11210500D02*
X4540600Y-11410500D01*
X4982329Y-11201984D02*
X5106139Y-11201984D01*
X5106139Y-11201984D02*
X5039472Y-11278174D01*
X5039472Y-11278174D02*
X5068043Y-11278174D01*
X5068043Y-11278174D02*
X5087091Y-11287698D01*
X5087091Y-11287698D02*
X5096615Y-11297222D01*
X5096615Y-11297222D02*
X5106139Y-11316269D01*
X5106139Y-11316269D02*
X5106139Y-11363888D01*
X5106139Y-11363888D02*
X5096615Y-11382936D01*
X5096615Y-11382936D02*
X5087091Y-11392460D01*
X5087091Y-11392460D02*
X5068043Y-11401984D01*
X5068043Y-11401984D02*
X5010901Y-11401984D01*
X5010901Y-11401984D02*
X4991853Y-11392460D01*
X4991853Y-11392460D02*
X4982329Y-11382936D01*
X5191853Y-11382936D02*
X5201377Y-11392460D01*
X5201377Y-11392460D02*
X5191853Y-11401984D01*
X5191853Y-11401984D02*
X5182329Y-11392460D01*
X5182329Y-11392460D02*
X5191853Y-11382936D01*
X5191853Y-11382936D02*
X5191853Y-11401984D01*
X5325186Y-11201984D02*
X5344234Y-11201984D01*
X5344234Y-11201984D02*
X5363282Y-11211508D01*
X5363282Y-11211508D02*
X5372805Y-11221031D01*
X5372805Y-11221031D02*
X5382329Y-11240079D01*
X5382329Y-11240079D02*
X5391853Y-11278174D01*
X5391853Y-11278174D02*
X5391853Y-11325793D01*
X5391853Y-11325793D02*
X5382329Y-11363888D01*
X5382329Y-11363888D02*
X5372805Y-11382936D01*
X5372805Y-11382936D02*
X5363282Y-11392460D01*
X5363282Y-11392460D02*
X5344234Y-11401984D01*
X5344234Y-11401984D02*
X5325186Y-11401984D01*
X5325186Y-11401984D02*
X5306139Y-11392460D01*
X5306139Y-11392460D02*
X5296615Y-11382936D01*
X5296615Y-11382936D02*
X5287091Y-11363888D01*
X5287091Y-11363888D02*
X5277567Y-11325793D01*
X5277567Y-11325793D02*
X5277567Y-11278174D01*
X5277567Y-11278174D02*
X5287091Y-11240079D01*
X5287091Y-11240079D02*
X5296615Y-11221031D01*
X5296615Y-11221031D02*
X5306139Y-11211508D01*
X5306139Y-11211508D02*
X5325186Y-11201984D01*
X5515662Y-11201984D02*
X5534710Y-11201984D01*
X5534710Y-11201984D02*
X5553758Y-11211508D01*
X5553758Y-11211508D02*
X5563282Y-11221031D01*
X5563282Y-11221031D02*
X5572805Y-11240079D01*
X5572805Y-11240079D02*
X5582329Y-11278174D01*
X5582329Y-11278174D02*
X5582329Y-11325793D01*
X5582329Y-11325793D02*
X5572805Y-11363888D01*
X5572805Y-11363888D02*
X5563282Y-11382936D01*
X5563282Y-11382936D02*
X5553758Y-11392460D01*
X5553758Y-11392460D02*
X5534710Y-11401984D01*
X5534710Y-11401984D02*
X5515662Y-11401984D01*
X5515662Y-11401984D02*
X5496615Y-11392460D01*
X5496615Y-11392460D02*
X5487091Y-11382936D01*
X5487091Y-11382936D02*
X5477567Y-11363888D01*
X5477567Y-11363888D02*
X5468043Y-11325793D01*
X5468043Y-11325793D02*
X5468043Y-11278174D01*
X5468043Y-11278174D02*
X5477567Y-11240079D01*
X5477567Y-11240079D02*
X5487091Y-11221031D01*
X5487091Y-11221031D02*
X5496615Y-11211508D01*
X5496615Y-11211508D02*
X5515662Y-11201984D01*
X5706139Y-11201984D02*
X5725186Y-11201984D01*
X5725186Y-11201984D02*
X5744234Y-11211508D01*
X5744234Y-11211508D02*
X5753758Y-11221031D01*
X5753758Y-11221031D02*
X5763281Y-11240079D01*
X5763281Y-11240079D02*
X5772805Y-11278174D01*
X5772805Y-11278174D02*
X5772805Y-11325793D01*
X5772805Y-11325793D02*
X5763281Y-11363888D01*
X5763281Y-11363888D02*
X5753758Y-11382936D01*
X5753758Y-11382936D02*
X5744234Y-11392460D01*
X5744234Y-11392460D02*
X5725186Y-11401984D01*
X5725186Y-11401984D02*
X5706139Y-11401984D01*
X5706139Y-11401984D02*
X5687091Y-11392460D01*
X5687091Y-11392460D02*
X5677567Y-11382936D01*
X5677567Y-11382936D02*
X5668043Y-11363888D01*
X5668043Y-11363888D02*
X5658520Y-11325793D01*
X5658520Y-11325793D02*
X5658520Y-11278174D01*
X5658520Y-11278174D02*
X5668043Y-11240079D01*
X5668043Y-11240079D02*
X5677567Y-11221031D01*
X5677567Y-11221031D02*
X5687091Y-11211508D01*
X5687091Y-11211508D02*
X5706139Y-11201984D01*
X5858520Y-11401984D02*
X5858520Y-11268650D01*
X5858520Y-11287698D02*
X5868043Y-11278174D01*
X5868043Y-11278174D02*
X5887091Y-11268650D01*
X5887091Y-11268650D02*
X5915662Y-11268650D01*
X5915662Y-11268650D02*
X5934710Y-11278174D01*
X5934710Y-11278174D02*
X5944234Y-11297222D01*
X5944234Y-11297222D02*
X5944234Y-11401984D01*
X5944234Y-11297222D02*
X5953758Y-11278174D01*
X5953758Y-11278174D02*
X5972805Y-11268650D01*
X5972805Y-11268650D02*
X6001377Y-11268650D01*
X6001377Y-11268650D02*
X6020424Y-11278174D01*
X6020424Y-11278174D02*
X6029948Y-11297222D01*
X6029948Y-11297222D02*
X6029948Y-11401984D01*
X6125186Y-11401984D02*
X6125186Y-11268650D01*
X6125186Y-11287698D02*
X6134710Y-11278174D01*
X6134710Y-11278174D02*
X6153758Y-11268650D01*
X6153758Y-11268650D02*
X6182329Y-11268650D01*
X6182329Y-11268650D02*
X6201377Y-11278174D01*
X6201377Y-11278174D02*
X6210901Y-11297222D01*
X6210901Y-11297222D02*
X6210901Y-11401984D01*
X6210901Y-11297222D02*
X6220424Y-11278174D01*
X6220424Y-11278174D02*
X6239472Y-11268650D01*
X6239472Y-11268650D02*
X6268043Y-11268650D01*
X6268043Y-11268650D02*
X6287091Y-11278174D01*
X6287091Y-11278174D02*
X6296615Y-11297222D01*
X6296615Y-11297222D02*
X6296615Y-11401984D01*
X6687091Y-11192460D02*
X6515663Y-11449603D01*
X6944234Y-11201984D02*
X6963282Y-11201984D01*
X6963282Y-11201984D02*
X6982329Y-11211508D01*
X6982329Y-11211508D02*
X6991853Y-11221031D01*
X6991853Y-11221031D02*
X7001377Y-11240079D01*
X7001377Y-11240079D02*
X7010901Y-11278174D01*
X7010901Y-11278174D02*
X7010901Y-11325793D01*
X7010901Y-11325793D02*
X7001377Y-11363888D01*
X7001377Y-11363888D02*
X6991853Y-11382936D01*
X6991853Y-11382936D02*
X6982329Y-11392460D01*
X6982329Y-11392460D02*
X6963282Y-11401984D01*
X6963282Y-11401984D02*
X6944234Y-11401984D01*
X6944234Y-11401984D02*
X6925186Y-11392460D01*
X6925186Y-11392460D02*
X6915663Y-11382936D01*
X6915663Y-11382936D02*
X6906139Y-11363888D01*
X6906139Y-11363888D02*
X6896615Y-11325793D01*
X6896615Y-11325793D02*
X6896615Y-11278174D01*
X6896615Y-11278174D02*
X6906139Y-11240079D01*
X6906139Y-11240079D02*
X6915663Y-11221031D01*
X6915663Y-11221031D02*
X6925186Y-11211508D01*
X6925186Y-11211508D02*
X6944234Y-11201984D01*
X7096615Y-11382936D02*
X7106139Y-11392460D01*
X7106139Y-11392460D02*
X7096615Y-11401984D01*
X7096615Y-11401984D02*
X7087091Y-11392460D01*
X7087091Y-11392460D02*
X7096615Y-11382936D01*
X7096615Y-11382936D02*
X7096615Y-11401984D01*
X7296615Y-11401984D02*
X7182329Y-11401984D01*
X7239472Y-11401984D02*
X7239472Y-11201984D01*
X7239472Y-11201984D02*
X7220424Y-11230555D01*
X7220424Y-11230555D02*
X7201377Y-11249603D01*
X7201377Y-11249603D02*
X7182329Y-11259127D01*
X7487091Y-11401984D02*
X7372805Y-11401984D01*
X7429948Y-11401984D02*
X7429948Y-11201984D01*
X7429948Y-11201984D02*
X7410901Y-11230555D01*
X7410901Y-11230555D02*
X7391853Y-11249603D01*
X7391853Y-11249603D02*
X7372805Y-11259127D01*
X7601377Y-11287698D02*
X7582329Y-11278174D01*
X7582329Y-11278174D02*
X7572805Y-11268650D01*
X7572805Y-11268650D02*
X7563282Y-11249603D01*
X7563282Y-11249603D02*
X7563282Y-11240079D01*
X7563282Y-11240079D02*
X7572805Y-11221031D01*
X7572805Y-11221031D02*
X7582329Y-11211508D01*
X7582329Y-11211508D02*
X7601377Y-11201984D01*
X7601377Y-11201984D02*
X7639472Y-11201984D01*
X7639472Y-11201984D02*
X7658520Y-11211508D01*
X7658520Y-11211508D02*
X7668044Y-11221031D01*
X7668044Y-11221031D02*
X7677567Y-11240079D01*
X7677567Y-11240079D02*
X7677567Y-11249603D01*
X7677567Y-11249603D02*
X7668044Y-11268650D01*
X7668044Y-11268650D02*
X7658520Y-11278174D01*
X7658520Y-11278174D02*
X7639472Y-11287698D01*
X7639472Y-11287698D02*
X7601377Y-11287698D01*
X7601377Y-11287698D02*
X7582329Y-11297222D01*
X7582329Y-11297222D02*
X7572805Y-11306746D01*
X7572805Y-11306746D02*
X7563282Y-11325793D01*
X7563282Y-11325793D02*
X7563282Y-11363888D01*
X7563282Y-11363888D02*
X7572805Y-11382936D01*
X7572805Y-11382936D02*
X7582329Y-11392460D01*
X7582329Y-11392460D02*
X7601377Y-11401984D01*
X7601377Y-11401984D02*
X7639472Y-11401984D01*
X7639472Y-11401984D02*
X7658520Y-11392460D01*
X7658520Y-11392460D02*
X7668044Y-11382936D01*
X7668044Y-11382936D02*
X7677567Y-11363888D01*
X7677567Y-11363888D02*
X7677567Y-11325793D01*
X7677567Y-11325793D02*
X7668044Y-11306746D01*
X7668044Y-11306746D02*
X7658520Y-11297222D01*
X7658520Y-11297222D02*
X7639472Y-11287698D01*
X7868044Y-11401984D02*
X7753758Y-11401984D01*
X7810901Y-11401984D02*
X7810901Y-11201984D01*
X7810901Y-11201984D02*
X7791853Y-11230555D01*
X7791853Y-11230555D02*
X7772805Y-11249603D01*
X7772805Y-11249603D02*
X7753758Y-11259127D01*
X7944234Y-11201984D02*
X7944234Y-11240079D01*
X8020425Y-11201984D02*
X8020425Y-11240079D01*
X8315663Y-11478174D02*
X8306139Y-11468650D01*
X8306139Y-11468650D02*
X8287091Y-11440079D01*
X8287091Y-11440079D02*
X8277567Y-11421031D01*
X8277567Y-11421031D02*
X8268044Y-11392460D01*
X8268044Y-11392460D02*
X8258520Y-11344841D01*
X8258520Y-11344841D02*
X8258520Y-11306746D01*
X8258520Y-11306746D02*
X8268044Y-11259127D01*
X8268044Y-11259127D02*
X8277567Y-11230555D01*
X8277567Y-11230555D02*
X8287091Y-11211508D01*
X8287091Y-11211508D02*
X8306139Y-11182936D01*
X8306139Y-11182936D02*
X8315663Y-11173412D01*
X8496615Y-11401984D02*
X8382329Y-11401984D01*
X8439472Y-11401984D02*
X8439472Y-11201984D01*
X8439472Y-11201984D02*
X8420425Y-11230555D01*
X8420425Y-11230555D02*
X8401377Y-11249603D01*
X8401377Y-11249603D02*
X8382329Y-11259127D01*
X8620425Y-11201984D02*
X8639472Y-11201984D01*
X8639472Y-11201984D02*
X8658520Y-11211508D01*
X8658520Y-11211508D02*
X8668044Y-11221031D01*
X8668044Y-11221031D02*
X8677568Y-11240079D01*
X8677568Y-11240079D02*
X8687091Y-11278174D01*
X8687091Y-11278174D02*
X8687091Y-11325793D01*
X8687091Y-11325793D02*
X8677568Y-11363888D01*
X8677568Y-11363888D02*
X8668044Y-11382936D01*
X8668044Y-11382936D02*
X8658520Y-11392460D01*
X8658520Y-11392460D02*
X8639472Y-11401984D01*
X8639472Y-11401984D02*
X8620425Y-11401984D01*
X8620425Y-11401984D02*
X8601377Y-11392460D01*
X8601377Y-11392460D02*
X8591853Y-11382936D01*
X8591853Y-11382936D02*
X8582329Y-11363888D01*
X8582329Y-11363888D02*
X8572806Y-11325793D01*
X8572806Y-11325793D02*
X8572806Y-11278174D01*
X8572806Y-11278174D02*
X8582329Y-11240079D01*
X8582329Y-11240079D02*
X8591853Y-11221031D01*
X8591853Y-11221031D02*
X8601377Y-11211508D01*
X8601377Y-11211508D02*
X8620425Y-11201984D01*
X8925187Y-11401984D02*
X8925187Y-11201984D01*
X9010901Y-11401984D02*
X9010901Y-11297222D01*
X9010901Y-11297222D02*
X9001377Y-11278174D01*
X9001377Y-11278174D02*
X8982330Y-11268650D01*
X8982330Y-11268650D02*
X8953758Y-11268650D01*
X8953758Y-11268650D02*
X8934710Y-11278174D01*
X8934710Y-11278174D02*
X8925187Y-11287698D01*
X9134710Y-11401984D02*
X9115663Y-11392460D01*
X9115663Y-11392460D02*
X9106139Y-11382936D01*
X9106139Y-11382936D02*
X9096615Y-11363888D01*
X9096615Y-11363888D02*
X9096615Y-11306746D01*
X9096615Y-11306746D02*
X9106139Y-11287698D01*
X9106139Y-11287698D02*
X9115663Y-11278174D01*
X9115663Y-11278174D02*
X9134710Y-11268650D01*
X9134710Y-11268650D02*
X9163282Y-11268650D01*
X9163282Y-11268650D02*
X9182330Y-11278174D01*
X9182330Y-11278174D02*
X9191853Y-11287698D01*
X9191853Y-11287698D02*
X9201377Y-11306746D01*
X9201377Y-11306746D02*
X9201377Y-11363888D01*
X9201377Y-11363888D02*
X9191853Y-11382936D01*
X9191853Y-11382936D02*
X9182330Y-11392460D01*
X9182330Y-11392460D02*
X9163282Y-11401984D01*
X9163282Y-11401984D02*
X9134710Y-11401984D01*
X9315663Y-11401984D02*
X9296615Y-11392460D01*
X9296615Y-11392460D02*
X9287091Y-11373412D01*
X9287091Y-11373412D02*
X9287091Y-11201984D01*
X9468044Y-11392460D02*
X9448996Y-11401984D01*
X9448996Y-11401984D02*
X9410901Y-11401984D01*
X9410901Y-11401984D02*
X9391853Y-11392460D01*
X9391853Y-11392460D02*
X9382330Y-11373412D01*
X9382330Y-11373412D02*
X9382330Y-11297222D01*
X9382330Y-11297222D02*
X9391853Y-11278174D01*
X9391853Y-11278174D02*
X9410901Y-11268650D01*
X9410901Y-11268650D02*
X9448996Y-11268650D01*
X9448996Y-11268650D02*
X9468044Y-11278174D01*
X9468044Y-11278174D02*
X9477568Y-11297222D01*
X9477568Y-11297222D02*
X9477568Y-11316269D01*
X9477568Y-11316269D02*
X9382330Y-11335317D01*
X9553758Y-11392460D02*
X9572806Y-11401984D01*
X9572806Y-11401984D02*
X9610901Y-11401984D01*
X9610901Y-11401984D02*
X9629949Y-11392460D01*
X9629949Y-11392460D02*
X9639472Y-11373412D01*
X9639472Y-11373412D02*
X9639472Y-11363888D01*
X9639472Y-11363888D02*
X9629949Y-11344841D01*
X9629949Y-11344841D02*
X9610901Y-11335317D01*
X9610901Y-11335317D02*
X9582330Y-11335317D01*
X9582330Y-11335317D02*
X9563282Y-11325793D01*
X9563282Y-11325793D02*
X9553758Y-11306746D01*
X9553758Y-11306746D02*
X9553758Y-11297222D01*
X9553758Y-11297222D02*
X9563282Y-11278174D01*
X9563282Y-11278174D02*
X9582330Y-11268650D01*
X9582330Y-11268650D02*
X9610901Y-11268650D01*
X9610901Y-11268650D02*
X9629949Y-11278174D01*
X9877568Y-11325793D02*
X10029949Y-11325793D01*
X9953758Y-11401984D02*
X9953758Y-11249603D01*
X10363282Y-11201984D02*
X10325187Y-11201984D01*
X10325187Y-11201984D02*
X10306139Y-11211508D01*
X10306139Y-11211508D02*
X10296615Y-11221031D01*
X10296615Y-11221031D02*
X10277568Y-11249603D01*
X10277568Y-11249603D02*
X10268044Y-11287698D01*
X10268044Y-11287698D02*
X10268044Y-11363888D01*
X10268044Y-11363888D02*
X10277568Y-11382936D01*
X10277568Y-11382936D02*
X10287092Y-11392460D01*
X10287092Y-11392460D02*
X10306139Y-11401984D01*
X10306139Y-11401984D02*
X10344234Y-11401984D01*
X10344234Y-11401984D02*
X10363282Y-11392460D01*
X10363282Y-11392460D02*
X10372806Y-11382936D01*
X10372806Y-11382936D02*
X10382330Y-11363888D01*
X10382330Y-11363888D02*
X10382330Y-11316269D01*
X10382330Y-11316269D02*
X10372806Y-11297222D01*
X10372806Y-11297222D02*
X10363282Y-11287698D01*
X10363282Y-11287698D02*
X10344234Y-11278174D01*
X10344234Y-11278174D02*
X10306139Y-11278174D01*
X10306139Y-11278174D02*
X10287092Y-11287698D01*
X10287092Y-11287698D02*
X10277568Y-11297222D01*
X10277568Y-11297222D02*
X10268044Y-11316269D01*
X10610901Y-11392460D02*
X10629949Y-11401984D01*
X10629949Y-11401984D02*
X10668044Y-11401984D01*
X10668044Y-11401984D02*
X10687092Y-11392460D01*
X10687092Y-11392460D02*
X10696615Y-11373412D01*
X10696615Y-11373412D02*
X10696615Y-11363888D01*
X10696615Y-11363888D02*
X10687092Y-11344841D01*
X10687092Y-11344841D02*
X10668044Y-11335317D01*
X10668044Y-11335317D02*
X10639473Y-11335317D01*
X10639473Y-11335317D02*
X10620425Y-11325793D01*
X10620425Y-11325793D02*
X10610901Y-11306746D01*
X10610901Y-11306746D02*
X10610901Y-11297222D01*
X10610901Y-11297222D02*
X10620425Y-11278174D01*
X10620425Y-11278174D02*
X10639473Y-11268650D01*
X10639473Y-11268650D02*
X10668044Y-11268650D01*
X10668044Y-11268650D02*
X10687092Y-11278174D01*
X10810901Y-11401984D02*
X10791854Y-11392460D01*
X10791854Y-11392460D02*
X10782330Y-11373412D01*
X10782330Y-11373412D02*
X10782330Y-11201984D01*
X10915663Y-11401984D02*
X10896615Y-11392460D01*
X10896615Y-11392460D02*
X10887092Y-11382936D01*
X10887092Y-11382936D02*
X10877568Y-11363888D01*
X10877568Y-11363888D02*
X10877568Y-11306746D01*
X10877568Y-11306746D02*
X10887092Y-11287698D01*
X10887092Y-11287698D02*
X10896615Y-11278174D01*
X10896615Y-11278174D02*
X10915663Y-11268650D01*
X10915663Y-11268650D02*
X10944235Y-11268650D01*
X10944235Y-11268650D02*
X10963282Y-11278174D01*
X10963282Y-11278174D02*
X10972806Y-11287698D01*
X10972806Y-11287698D02*
X10982330Y-11306746D01*
X10982330Y-11306746D02*
X10982330Y-11363888D01*
X10982330Y-11363888D02*
X10972806Y-11382936D01*
X10972806Y-11382936D02*
X10963282Y-11392460D01*
X10963282Y-11392460D02*
X10944235Y-11401984D01*
X10944235Y-11401984D02*
X10915663Y-11401984D01*
X11039473Y-11268650D02*
X11115663Y-11268650D01*
X11068044Y-11201984D02*
X11068044Y-11373412D01*
X11068044Y-11373412D02*
X11077568Y-11392460D01*
X11077568Y-11392460D02*
X11096615Y-11401984D01*
X11096615Y-11401984D02*
X11115663Y-11401984D01*
X11172806Y-11392460D02*
X11191853Y-11401984D01*
X11191853Y-11401984D02*
X11229949Y-11401984D01*
X11229949Y-11401984D02*
X11248996Y-11392460D01*
X11248996Y-11392460D02*
X11258520Y-11373412D01*
X11258520Y-11373412D02*
X11258520Y-11363888D01*
X11258520Y-11363888D02*
X11248996Y-11344841D01*
X11248996Y-11344841D02*
X11229949Y-11335317D01*
X11229949Y-11335317D02*
X11201377Y-11335317D01*
X11201377Y-11335317D02*
X11182330Y-11325793D01*
X11182330Y-11325793D02*
X11172806Y-11306746D01*
X11172806Y-11306746D02*
X11172806Y-11297222D01*
X11172806Y-11297222D02*
X11182330Y-11278174D01*
X11182330Y-11278174D02*
X11201377Y-11268650D01*
X11201377Y-11268650D02*
X11229949Y-11268650D01*
X11229949Y-11268650D02*
X11248996Y-11278174D01*
X11325187Y-11478174D02*
X11334711Y-11468650D01*
X11334711Y-11468650D02*
X11353758Y-11440079D01*
X11353758Y-11440079D02*
X11363282Y-11421031D01*
X11363282Y-11421031D02*
X11372806Y-11392460D01*
X11372806Y-11392460D02*
X11382330Y-11344841D01*
X11382330Y-11344841D02*
X11382330Y-11306746D01*
X11382330Y-11306746D02*
X11372806Y-11259127D01*
X11372806Y-11259127D02*
X11363282Y-11230555D01*
X11363282Y-11230555D02*
X11353758Y-11211508D01*
X11353758Y-11211508D02*
X11334711Y-11182936D01*
X11334711Y-11182936D02*
X11325187Y-11173412D01*
X11687092Y-11478174D02*
X11677568Y-11468650D01*
X11677568Y-11468650D02*
X11658520Y-11440079D01*
X11658520Y-11440079D02*
X11648996Y-11421031D01*
X11648996Y-11421031D02*
X11639473Y-11392460D01*
X11639473Y-11392460D02*
X11629949Y-11344841D01*
X11629949Y-11344841D02*
X11629949Y-11306746D01*
X11629949Y-11306746D02*
X11639473Y-11259127D01*
X11639473Y-11259127D02*
X11648996Y-11230555D01*
X11648996Y-11230555D02*
X11658520Y-11211508D01*
X11658520Y-11211508D02*
X11677568Y-11182936D01*
X11677568Y-11182936D02*
X11687092Y-11173412D01*
X11763282Y-11268650D02*
X11763282Y-11401984D01*
X11763282Y-11287698D02*
X11772806Y-11278174D01*
X11772806Y-11278174D02*
X11791853Y-11268650D01*
X11791853Y-11268650D02*
X11820425Y-11268650D01*
X11820425Y-11268650D02*
X11839473Y-11278174D01*
X11839473Y-11278174D02*
X11848996Y-11297222D01*
X11848996Y-11297222D02*
X11848996Y-11401984D01*
X11972806Y-11401984D02*
X11953758Y-11392460D01*
X11953758Y-11392460D02*
X11944234Y-11382936D01*
X11944234Y-11382936D02*
X11934711Y-11363888D01*
X11934711Y-11363888D02*
X11934711Y-11306746D01*
X11934711Y-11306746D02*
X11944234Y-11287698D01*
X11944234Y-11287698D02*
X11953758Y-11278174D01*
X11953758Y-11278174D02*
X11972806Y-11268650D01*
X11972806Y-11268650D02*
X12001377Y-11268650D01*
X12001377Y-11268650D02*
X12020425Y-11278174D01*
X12020425Y-11278174D02*
X12029949Y-11287698D01*
X12029949Y-11287698D02*
X12039473Y-11306746D01*
X12039473Y-11306746D02*
X12039473Y-11363888D01*
X12039473Y-11363888D02*
X12029949Y-11382936D01*
X12029949Y-11382936D02*
X12020425Y-11392460D01*
X12020425Y-11392460D02*
X12001377Y-11401984D01*
X12001377Y-11401984D02*
X11972806Y-11401984D01*
X12096615Y-11268650D02*
X12172806Y-11268650D01*
X12125187Y-11201984D02*
X12125187Y-11373412D01*
X12125187Y-11373412D02*
X12134711Y-11392460D01*
X12134711Y-11392460D02*
X12153758Y-11401984D01*
X12153758Y-11401984D02*
X12172806Y-11401984D01*
X12391854Y-11268650D02*
X12391854Y-11468650D01*
X12391854Y-11278174D02*
X12410901Y-11268650D01*
X12410901Y-11268650D02*
X12448996Y-11268650D01*
X12448996Y-11268650D02*
X12468044Y-11278174D01*
X12468044Y-11278174D02*
X12477568Y-11287698D01*
X12477568Y-11287698D02*
X12487092Y-11306746D01*
X12487092Y-11306746D02*
X12487092Y-11363888D01*
X12487092Y-11363888D02*
X12477568Y-11382936D01*
X12477568Y-11382936D02*
X12468044Y-11392460D01*
X12468044Y-11392460D02*
X12448996Y-11401984D01*
X12448996Y-11401984D02*
X12410901Y-11401984D01*
X12410901Y-11401984D02*
X12391854Y-11392460D01*
X12601377Y-11401984D02*
X12582330Y-11392460D01*
X12582330Y-11392460D02*
X12572806Y-11373412D01*
X12572806Y-11373412D02*
X12572806Y-11201984D01*
X12763282Y-11401984D02*
X12763282Y-11297222D01*
X12763282Y-11297222D02*
X12753758Y-11278174D01*
X12753758Y-11278174D02*
X12734711Y-11268650D01*
X12734711Y-11268650D02*
X12696615Y-11268650D01*
X12696615Y-11268650D02*
X12677568Y-11278174D01*
X12763282Y-11392460D02*
X12744235Y-11401984D01*
X12744235Y-11401984D02*
X12696615Y-11401984D01*
X12696615Y-11401984D02*
X12677568Y-11392460D01*
X12677568Y-11392460D02*
X12668044Y-11373412D01*
X12668044Y-11373412D02*
X12668044Y-11354365D01*
X12668044Y-11354365D02*
X12677568Y-11335317D01*
X12677568Y-11335317D02*
X12696615Y-11325793D01*
X12696615Y-11325793D02*
X12744235Y-11325793D01*
X12744235Y-11325793D02*
X12763282Y-11316269D01*
X12829949Y-11268650D02*
X12906139Y-11268650D01*
X12858520Y-11201984D02*
X12858520Y-11373412D01*
X12858520Y-11373412D02*
X12868044Y-11392460D01*
X12868044Y-11392460D02*
X12887092Y-11401984D01*
X12887092Y-11401984D02*
X12906139Y-11401984D01*
X13048996Y-11392460D02*
X13029949Y-11401984D01*
X13029949Y-11401984D02*
X12991854Y-11401984D01*
X12991854Y-11401984D02*
X12972806Y-11392460D01*
X12972806Y-11392460D02*
X12963282Y-11373412D01*
X12963282Y-11373412D02*
X12963282Y-11297222D01*
X12963282Y-11297222D02*
X12972806Y-11278174D01*
X12972806Y-11278174D02*
X12991854Y-11268650D01*
X12991854Y-11268650D02*
X13029949Y-11268650D01*
X13029949Y-11268650D02*
X13048996Y-11278174D01*
X13048996Y-11278174D02*
X13058520Y-11297222D01*
X13058520Y-11297222D02*
X13058520Y-11316269D01*
X13058520Y-11316269D02*
X12963282Y-11335317D01*
X13229949Y-11401984D02*
X13229949Y-11201984D01*
X13229949Y-11392460D02*
X13210901Y-11401984D01*
X13210901Y-11401984D02*
X13172806Y-11401984D01*
X13172806Y-11401984D02*
X13153758Y-11392460D01*
X13153758Y-11392460D02*
X13144235Y-11382936D01*
X13144235Y-11382936D02*
X13134711Y-11363888D01*
X13134711Y-11363888D02*
X13134711Y-11306746D01*
X13134711Y-11306746D02*
X13144235Y-11287698D01*
X13144235Y-11287698D02*
X13153758Y-11278174D01*
X13153758Y-11278174D02*
X13172806Y-11268650D01*
X13172806Y-11268650D02*
X13210901Y-11268650D01*
X13210901Y-11268650D02*
X13229949Y-11278174D01*
X13306139Y-11478174D02*
X13315663Y-11468650D01*
X13315663Y-11468650D02*
X13334711Y-11440079D01*
X13334711Y-11440079D02*
X13344235Y-11421031D01*
X13344235Y-11421031D02*
X13353758Y-11392460D01*
X13353758Y-11392460D02*
X13363282Y-11344841D01*
X13363282Y-11344841D02*
X13363282Y-11306746D01*
X13363282Y-11306746D02*
X13353758Y-11259127D01*
X13353758Y-11259127D02*
X13344235Y-11230555D01*
X13344235Y-11230555D02*
X13334711Y-11211508D01*
X13334711Y-11211508D02*
X13315663Y-11182936D01*
X13315663Y-11182936D02*
X13306139Y-11173412D01*
M02*
