%TF.GenerationSoftware,KiCad,Pcbnew,6.0.10-86aedd382b~118~ubuntu22.04.1*%
%TF.CreationDate,2023-01-27T10:34:44-06:00*%
%TF.ProjectId,badge,62616467-652e-46b6-9963-61645f706362,rev?*%
%TF.SameCoordinates,Original*%
%TF.FileFunction,Soldermask,Bot*%
%TF.FilePolarity,Negative*%
%FSLAX46Y46*%
G04 Gerber Fmt 4.6, Leading zero omitted, Abs format (unit mm)*
G04 Created by KiCad (PCBNEW 6.0.10-86aedd382b~118~ubuntu22.04.1) date 2023-01-27 10:34:44*
%MOMM*%
%LPD*%
G01*
G04 APERTURE LIST*
G04 Aperture macros list*
%AMRoundRect*
0 Rectangle with rounded corners*
0 $1 Rounding radius*
0 $2 $3 $4 $5 $6 $7 $8 $9 X,Y pos of 4 corners*
0 Add a 4 corners polygon primitive as box body*
4,1,4,$2,$3,$4,$5,$6,$7,$8,$9,$2,$3,0*
0 Add four circle primitives for the rounded corners*
1,1,$1+$1,$2,$3*
1,1,$1+$1,$4,$5*
1,1,$1+$1,$6,$7*
1,1,$1+$1,$8,$9*
0 Add four rect primitives between the rounded corners*
20,1,$1+$1,$2,$3,$4,$5,0*
20,1,$1+$1,$4,$5,$6,$7,0*
20,1,$1+$1,$6,$7,$8,$9,0*
20,1,$1+$1,$8,$9,$2,$3,0*%
%AMRotRect*
0 Rectangle, with rotation*
0 The origin of the aperture is its center*
0 $1 length*
0 $2 width*
0 $3 Rotation angle, in degrees counterclockwise*
0 Add horizontal line*
21,1,$1,$2,0,0,$3*%
G04 Aperture macros list end*
%ADD10C,1.700000*%
%ADD11RoundRect,0.250000X-0.600000X0.600000X-0.600000X-0.600000X0.600000X-0.600000X0.600000X0.600000X0*%
%ADD12C,3.000000*%
%ADD13RotRect,1.700000X1.700000X355.000000*%
%ADD14RoundRect,0.250000X0.412500X0.650000X-0.412500X0.650000X-0.412500X-0.650000X0.412500X-0.650000X0*%
%ADD15O,3.000000X6.000000*%
%ADD16R,1.700000X1.700000*%
%ADD17O,6.000000X3.000000*%
%ADD18RoundRect,0.249999X1.075001X-0.450001X1.075001X0.450001X-1.075001X0.450001X-1.075001X-0.450001X0*%
%ADD19RoundRect,0.249999X-1.075001X0.450001X-1.075001X-0.450001X1.075001X-0.450001X1.075001X0.450001X0*%
%ADD20RoundRect,0.250000X0.650000X-0.412500X0.650000X0.412500X-0.650000X0.412500X-0.650000X-0.412500X0*%
%ADD21R,1.800000X1.800000*%
%ADD22C,1.800000*%
%ADD23C,1.500000*%
%ADD24RoundRect,0.250000X-1.500000X0.250000X-1.500000X-0.250000X1.500000X-0.250000X1.500000X0.250000X0*%
%ADD25RoundRect,0.250001X-1.449999X0.499999X-1.449999X-0.499999X1.449999X-0.499999X1.449999X0.499999X0*%
%ADD26RoundRect,0.300000X0.650000X-0.300000X0.650000X0.300000X-0.650000X0.300000X-0.650000X-0.300000X0*%
%ADD27RoundRect,0.249999X0.450001X1.075001X-0.450001X1.075001X-0.450001X-1.075001X0.450001X-1.075001X0*%
%ADD28RoundRect,0.249999X-0.450001X-1.075001X0.450001X-1.075001X0.450001X1.075001X-0.450001X1.075001X0*%
%ADD29RoundRect,0.150000X-0.587500X-0.150000X0.587500X-0.150000X0.587500X0.150000X-0.587500X0.150000X0*%
%ADD30RoundRect,0.300000X-0.650000X0.300000X-0.650000X-0.300000X0.650000X-0.300000X0.650000X0.300000X0*%
%ADD31R,2.000000X1.905000*%
%ADD32O,2.000000X1.905000*%
%ADD33R,1.800000X1.100000*%
%ADD34RoundRect,0.100000X0.637500X0.100000X-0.637500X0.100000X-0.637500X-0.100000X0.637500X-0.100000X0*%
%ADD35RoundRect,0.375000X-0.375000X1.625000X-0.375000X-1.625000X0.375000X-1.625000X0.375000X1.625000X0*%
%ADD36RoundRect,0.750000X0.750000X-0.750000X0.750000X0.750000X-0.750000X0.750000X-0.750000X-0.750000X0*%
%ADD37RoundRect,1.250000X1.250000X1.250000X-1.250000X1.250000X-1.250000X-1.250000X1.250000X-1.250000X0*%
G04 APERTURE END LIST*
D10*
%TO.C,J1*%
X104140000Y-63500000D03*
X104140000Y-60960000D03*
X106680000Y-63500000D03*
X106680000Y-60960000D03*
X109220000Y-63500000D03*
D11*
X109220000Y-60960000D03*
%TD*%
%TO.C,J1*%
X213360000Y-60960000D03*
D10*
X213360000Y-63500000D03*
X210820000Y-60960000D03*
X210820000Y-63500000D03*
X208280000Y-60960000D03*
X208280000Y-63500000D03*
%TD*%
D12*
%TO.C,U2*%
X56359194Y-63191546D03*
X121111850Y-68856670D03*
X53570211Y-95069777D03*
X118322866Y-100734900D03*
D13*
X78200000Y-63676945D03*
D10*
X80730335Y-63898321D03*
X83260669Y-64119696D03*
X85791004Y-64341072D03*
X88321338Y-64562447D03*
X90851673Y-64783823D03*
X93382007Y-65005199D03*
X95912342Y-65226574D03*
%TD*%
D14*
%TO.C,C3*%
X125437500Y-75460000D03*
X128562500Y-75460000D03*
%TD*%
D11*
%TO.C,J1*%
X71120000Y-99060000D03*
D10*
X71120000Y-101600000D03*
X68580000Y-99060000D03*
X68580000Y-101600000D03*
X66040000Y-99060000D03*
X66040000Y-101600000D03*
%TD*%
D12*
%TO.C,hole1*%
X68580000Y-62230000D03*
%TD*%
D15*
%TO.C,bb1*%
X187960000Y-63500000D03*
%TD*%
%TO.C,bb2*%
X187960000Y-86360000D03*
%TD*%
D12*
%TO.C,U2*%
X115360000Y-103020000D03*
X180360000Y-103020000D03*
X115360000Y-135020000D03*
X180360000Y-135020000D03*
D16*
X137160000Y-101600000D03*
D10*
X139700000Y-101600000D03*
X142240000Y-101600000D03*
X144780000Y-101600000D03*
X147320000Y-101600000D03*
X149860000Y-101600000D03*
X152400000Y-101600000D03*
X154940000Y-101600000D03*
%TD*%
D11*
%TO.C,J1*%
X172720000Y-99060000D03*
D10*
X172720000Y-101600000D03*
X170180000Y-99060000D03*
X170180000Y-101600000D03*
X167640000Y-99060000D03*
X167640000Y-101600000D03*
%TD*%
D15*
%TO.C,bb5*%
X134620000Y-86360000D03*
%TD*%
%TO.C,bb6*%
X134620000Y-63500000D03*
%TD*%
D17*
%TO.C,bb4*%
X142240000Y-95250000D03*
%TD*%
D12*
%TO.C,hole2*%
X228600000Y-62230000D03*
%TD*%
D17*
%TO.C,bb3*%
X180340000Y-95250000D03*
%TD*%
D18*
%TO.C,R3*%
X127000000Y-67707064D03*
X127000000Y-72507064D03*
%TD*%
D19*
%TO.C,R11*%
X119380000Y-89040000D03*
X119380000Y-93840000D03*
%TD*%
D20*
%TO.C,C41*%
X96350000Y-83305000D03*
X96350000Y-80180000D03*
%TD*%
D21*
%TO.C,D6*%
X119380000Y-86360000D03*
D22*
X119380000Y-83820000D03*
%TD*%
D14*
%TO.C,C1*%
X54902500Y-102600000D03*
X51777500Y-102600000D03*
%TD*%
%TO.C,C4*%
X161582500Y-104340000D03*
X158457500Y-104340000D03*
%TD*%
D23*
%TO.C,R2*%
X132080000Y-60953212D03*
X128680000Y-60953212D03*
%TD*%
D24*
%TO.C,BT1*%
X107124214Y-75200000D03*
X107124214Y-77200000D03*
D25*
X112874214Y-72850000D03*
X112874214Y-79550000D03*
%TD*%
D14*
%TO.C,C2*%
X118402500Y-63850000D03*
X115277500Y-63850000D03*
%TD*%
D26*
%TO.C,SW1*%
X102620000Y-73580000D03*
X102620000Y-71080000D03*
X102620000Y-68580000D03*
X96520000Y-73580000D03*
X96520000Y-71080000D03*
X96520000Y-68580000D03*
%TD*%
D27*
%TO.C,R6*%
X197840000Y-78700000D03*
X193040000Y-78700000D03*
%TD*%
D28*
%TO.C,R4*%
X193040000Y-88900000D03*
X197840000Y-88900000D03*
%TD*%
D29*
%TO.C,Q1*%
X110822500Y-92390000D03*
X110822500Y-90490000D03*
X112697500Y-91440000D03*
%TD*%
D30*
%TO.C,SW3*%
X123950000Y-88940000D03*
X123950000Y-91440000D03*
X123950000Y-93940000D03*
X130050000Y-88940000D03*
X130050000Y-91440000D03*
X130050000Y-93940000D03*
%TD*%
D31*
%TO.C,U3*%
X107885000Y-88900000D03*
D32*
X107885000Y-86360000D03*
X107885000Y-83820000D03*
%TD*%
D14*
%TO.C,C5*%
X188286805Y-79742363D03*
X185161805Y-79742363D03*
%TD*%
D33*
%TO.C,SW2*%
X121360000Y-60610000D03*
X127560000Y-60610000D03*
X127560000Y-64310000D03*
X121360000Y-64310000D03*
%TD*%
D34*
%TO.C,U4*%
X94132500Y-83310000D03*
X94132500Y-83960000D03*
X94132500Y-84610000D03*
X94132500Y-85260000D03*
X94132500Y-85910000D03*
X94132500Y-86560000D03*
X94132500Y-87210000D03*
X88407500Y-87210000D03*
X88407500Y-86560000D03*
X88407500Y-85910000D03*
X88407500Y-85260000D03*
X88407500Y-84610000D03*
X88407500Y-83960000D03*
X88407500Y-83310000D03*
%TD*%
D20*
%TO.C,C42*%
X86190000Y-83305000D03*
X86190000Y-80180000D03*
%TD*%
D35*
%TO.C,U1*%
X61580490Y-75475780D03*
X64120490Y-75475780D03*
X66660490Y-75475780D03*
X69200490Y-75475780D03*
X71740490Y-75475780D03*
X74280490Y-75475780D03*
X76820490Y-75475780D03*
X76820490Y-92640340D03*
X74280490Y-92640340D03*
X71740490Y-92640340D03*
X69200490Y-92640340D03*
X66660490Y-92640340D03*
X64120490Y-92640340D03*
X61580490Y-92640340D03*
D36*
X69679266Y-79714877D03*
X66169266Y-79714877D03*
D37*
X70470010Y-86659629D03*
%TD*%
D18*
%TO.C,R1*%
X132080000Y-67707064D03*
X132080000Y-72507064D03*
%TD*%
D28*
%TO.C,R5*%
X193040000Y-83820000D03*
X197840000Y-83820000D03*
%TD*%
D27*
%TO.C,R7*%
X197840000Y-73660000D03*
X193040000Y-73660000D03*
%TD*%
M02*
