M48
; DRILL file {KiCad 7.0.5-7.0.5~ubuntu22.04.1} date Sun 25 Jun 2023 03:20:42 PM CDT
; FORMAT={-:-/ absolute / metric / decimal}
; #@! TF.CreationDate,2023-06-25T15:20:42-05:00
; #@! TF.GenerationSoftware,Kicad,Pcbnew,7.0.5-7.0.5~ubuntu22.04.1
; #@! TF.FileFunction,NonPlated,1,2,NPTH
FMAT,2
METRIC
; #@! TA.AperFunction,NonPlated,NPTH,ComponentDrill
T1C3.000
%
G90
G05
T1
X53.172Y-95.035
X56.004Y-62.659
X68.58Y-62.23
X114.96Y-103.52
X114.96Y-136.02
X118.721Y-100.77
X121.554Y-68.393
X180.76Y-103.52
X180.76Y-136.02
X228.6Y-62.23
T1
G00X134.62Y-62.0
M15
G01X134.62Y-65.0
M16
G05
G00X134.62Y-84.86
M15
G01X134.62Y-87.86
M16
G05
G00X140.74Y-95.25
M15
G01X143.74Y-95.25
M16
G05
G00X178.84Y-95.25
M15
G01X181.84Y-95.25
M16
G05
G00X187.96Y-62.0
M15
G01X187.96Y-65.0
M16
G05
G00X187.96Y-84.86
M15
G01X187.96Y-87.86
M16
G05
T0
M30
