%TF.GenerationSoftware,KiCad,Pcbnew,8.0.1*%
%TF.CreationDate,2024-03-19T12:36:32-05:00*%
%TF.ProjectId,badge,62616467-652e-46b6-9963-61645f706362,rev?*%
%TF.SameCoordinates,Original*%
%TF.FileFunction,Soldermask,Top*%
%TF.FilePolarity,Negative*%
%FSLAX46Y46*%
G04 Gerber Fmt 4.6, Leading zero omitted, Abs format (unit mm)*
G04 Created by KiCad (PCBNEW 8.0.1) date 2024-03-19 12:36:32*
%MOMM*%
%LPD*%
G01*
G04 APERTURE LIST*
G04 Aperture macros list*
%AMRoundRect*
0 Rectangle with rounded corners*
0 $1 Rounding radius*
0 $2 $3 $4 $5 $6 $7 $8 $9 X,Y pos of 4 corners*
0 Add a 4 corners polygon primitive as box body*
4,1,4,$2,$3,$4,$5,$6,$7,$8,$9,$2,$3,0*
0 Add four circle primitives for the rounded corners*
1,1,$1+$1,$2,$3*
1,1,$1+$1,$4,$5*
1,1,$1+$1,$6,$7*
1,1,$1+$1,$8,$9*
0 Add four rect primitives between the rounded corners*
20,1,$1+$1,$2,$3,$4,$5,0*
20,1,$1+$1,$4,$5,$6,$7,0*
20,1,$1+$1,$6,$7,$8,$9,0*
20,1,$1+$1,$8,$9,$2,$3,0*%
%AMRotRect*
0 Rectangle, with rotation*
0 The origin of the aperture is its center*
0 $1 length*
0 $2 width*
0 $3 Rotation angle, in degrees counterclockwise*
0 Add horizontal line*
21,1,$1,$2,0,0,$3*%
G04 Aperture macros list end*
%ADD10R,0.800000X0.500000*%
%ADD11R,0.500000X0.980000*%
%ADD12R,0.800000X0.300000*%
%ADD13R,0.500000X1.460000*%
%ADD14R,1.800000X1.800000*%
%ADD15C,1.800000*%
%ADD16C,3.000000*%
%ADD17RoundRect,0.250000X-0.600000X0.600000X-0.600000X-0.600000X0.600000X-0.600000X0.600000X0.600000X0*%
%ADD18C,1.700000*%
%ADD19R,1.700000X1.700000*%
%ADD20RoundRect,0.357142X1.142858X-0.642858X1.142858X0.642858X-1.142858X0.642858X-1.142858X-0.642858X0*%
%ADD21RoundRect,0.357142X-1.142858X0.642858X-1.142858X-0.642858X1.142858X-0.642858X1.142858X0.642858X0*%
%ADD22RotRect,1.700000X1.700000X355.000000*%
%ADD23C,1.500000*%
%ADD24R,2.000000X1.905000*%
%ADD25O,2.000000X1.905000*%
G04 APERTURE END LIST*
D10*
%TO.C,D2*%
X117690000Y-64400000D03*
D11*
X116840000Y-64340000D03*
D12*
X117690000Y-63500000D03*
D10*
X117690000Y-62600000D03*
X115990000Y-62600000D03*
D12*
X115990000Y-63500000D03*
D13*
X116840000Y-62900000D03*
D10*
X115990000Y-64400000D03*
%TD*%
D14*
%TO.C,D6*%
X119380000Y-86360000D03*
D15*
X119380000Y-83820000D03*
%TD*%
D10*
%TO.C,D1*%
X54190000Y-102500000D03*
D11*
X53340000Y-102440000D03*
D12*
X54190000Y-101600000D03*
D10*
X54190000Y-100700000D03*
X52490000Y-100700000D03*
D12*
X52490000Y-101600000D03*
D13*
X53340000Y-101000000D03*
D10*
X52490000Y-102500000D03*
%TD*%
D16*
%TO.C,fiducial2*%
X236220000Y-60960000D03*
%TD*%
D17*
%TO.C,J1*%
X213360000Y-60960000D03*
D18*
X213360000Y-63500000D03*
X210820000Y-60960000D03*
X210820000Y-63500000D03*
X208280000Y-60960000D03*
X208280000Y-63500000D03*
%TD*%
D17*
%TO.C,J1*%
X109220000Y-60960000D03*
D18*
X109220000Y-63500000D03*
X106680000Y-60960000D03*
X106680000Y-63500000D03*
X104140000Y-60960000D03*
X104140000Y-63500000D03*
%TD*%
D10*
%TO.C,D4*%
X160870000Y-105040000D03*
D11*
X160020000Y-104980000D03*
D12*
X160870000Y-104140000D03*
D10*
X160870000Y-103240000D03*
X159170000Y-103240000D03*
D12*
X159170000Y-104140000D03*
D13*
X160020000Y-103540000D03*
D10*
X159170000Y-105040000D03*
%TD*%
D16*
%TO.C,U2*%
X114960000Y-136020000D03*
X180760000Y-103520000D03*
X180760000Y-136020000D03*
D19*
X137160000Y-102600000D03*
D18*
X139700000Y-102600000D03*
X142240000Y-102600000D03*
X144780000Y-102600000D03*
X147320000Y-102600000D03*
X149860000Y-102600000D03*
X152400000Y-102600000D03*
X154940000Y-102600000D03*
%TD*%
D10*
%TO.C,D5*%
X187574305Y-79642363D03*
D11*
X186724305Y-79582363D03*
D12*
X187574305Y-78742363D03*
D10*
X187574305Y-77842363D03*
X185874305Y-77842363D03*
D12*
X185874305Y-78742363D03*
D13*
X186724305Y-78142363D03*
D10*
X185874305Y-79642363D03*
%TD*%
D16*
%TO.C,fiducial1*%
X55880000Y-88900000D03*
%TD*%
D17*
%TO.C,J1*%
X172720000Y-99060000D03*
D18*
X172720000Y-101600000D03*
X170180000Y-99060000D03*
X170180000Y-101600000D03*
X167640000Y-99060000D03*
X167640000Y-101600000D03*
%TD*%
D20*
%TO.C,R9*%
X69679266Y-77600000D03*
X69679266Y-72800000D03*
%TD*%
D21*
%TO.C,R10*%
X66169266Y-72800000D03*
X66169266Y-77600000D03*
%TD*%
D10*
%TO.C,D3*%
X127850000Y-74560000D03*
D11*
X127000000Y-74500000D03*
D12*
X127850000Y-73660000D03*
D10*
X127850000Y-72760000D03*
X126150000Y-72760000D03*
D12*
X126150000Y-73660000D03*
D13*
X127000000Y-73060000D03*
D10*
X126150000Y-74560000D03*
%TD*%
D17*
%TO.C,J1*%
X71120000Y-99060000D03*
D18*
X71120000Y-101600000D03*
X68580000Y-99060000D03*
X68580000Y-101600000D03*
X66040000Y-99060000D03*
X66040000Y-101600000D03*
%TD*%
D16*
%TO.C,U2*%
X56004294Y-62458587D03*
X53171733Y-94834914D03*
D22*
X78200000Y-63476945D03*
D18*
X80730336Y-63698321D03*
X83260669Y-63919696D03*
X85791004Y-64141072D03*
X88321338Y-64362447D03*
X90851673Y-64583823D03*
X93382007Y-64805199D03*
X95912342Y-65026574D03*
%TD*%
D23*
%TO.C,R2*%
X131980000Y-62200000D03*
X128580000Y-62200000D03*
%TD*%
D24*
%TO.C,U3*%
X107885000Y-88900000D03*
D25*
X107885000Y-86360000D03*
X107885000Y-83820000D03*
%TD*%
D16*
%TO.C,U1*%
X69679266Y-79714877D03*
X66169266Y-79714877D03*
X70470010Y-86659629D03*
%TD*%
M02*
