%TF.GenerationSoftware,KiCad,Pcbnew,8.0.1*%
%TF.CreationDate,2024-03-19T12:36:32-05:00*%
%TF.ProjectId,badge,62616467-652e-46b6-9963-61645f706362,rev?*%
%TF.SameCoordinates,Original*%
%TF.FileFunction,Legend,Top*%
%TF.FilePolarity,Positive*%
%FSLAX46Y46*%
G04 Gerber Fmt 4.6, Leading zero omitted, Abs format (unit mm)*
G04 Created by KiCad (PCBNEW 8.0.1) date 2024-03-19 12:36:32*
%MOMM*%
%LPD*%
G01*
G04 APERTURE LIST*
G04 Aperture macros list*
%AMRoundRect*
0 Rectangle with rounded corners*
0 $1 Rounding radius*
0 $2 $3 $4 $5 $6 $7 $8 $9 X,Y pos of 4 corners*
0 Add a 4 corners polygon primitive as box body*
4,1,4,$2,$3,$4,$5,$6,$7,$8,$9,$2,$3,0*
0 Add four circle primitives for the rounded corners*
1,1,$1+$1,$2,$3*
1,1,$1+$1,$4,$5*
1,1,$1+$1,$6,$7*
1,1,$1+$1,$8,$9*
0 Add four rect primitives between the rounded corners*
20,1,$1+$1,$2,$3,$4,$5,0*
20,1,$1+$1,$4,$5,$6,$7,0*
20,1,$1+$1,$6,$7,$8,$9,0*
20,1,$1+$1,$8,$9,$2,$3,0*%
%AMRotRect*
0 Rectangle, with rotation*
0 The origin of the aperture is its center*
0 $1 length*
0 $2 width*
0 $3 Rotation angle, in degrees counterclockwise*
0 Add horizontal line*
21,1,$1,$2,0,0,$3*%
G04 Aperture macros list end*
%ADD10C,0.150000*%
%ADD11C,1.000000*%
%ADD12C,0.300000*%
%ADD13C,0.100000*%
%ADD14C,0.120000*%
%ADD15R,0.800000X0.500000*%
%ADD16R,0.500000X0.980000*%
%ADD17R,0.800000X0.300000*%
%ADD18R,0.500000X1.460000*%
%ADD19R,1.800000X1.800000*%
%ADD20C,1.800000*%
%ADD21C,3.000000*%
%ADD22RoundRect,0.250000X-0.600000X0.600000X-0.600000X-0.600000X0.600000X-0.600000X0.600000X0.600000X0*%
%ADD23C,1.700000*%
%ADD24R,1.700000X1.700000*%
%ADD25RoundRect,0.357142X1.142858X-0.642858X1.142858X0.642858X-1.142858X0.642858X-1.142858X-0.642858X0*%
%ADD26RoundRect,0.357142X-1.142858X0.642858X-1.142858X-0.642858X1.142858X-0.642858X1.142858X0.642858X0*%
%ADD27RotRect,1.700000X1.700000X355.000000*%
%ADD28C,1.500000*%
%ADD29R,2.000000X1.905000*%
%ADD30O,2.000000X1.905000*%
G04 APERTURE END LIST*
D10*
X117973866Y-86680951D02*
X117973866Y-85919047D01*
D11*
G36*
X134954194Y-73728672D02*
G01*
X135517497Y-73491082D01*
X136037945Y-73174995D01*
X136431058Y-72759749D01*
X136594040Y-72289947D01*
X136550903Y-71840253D01*
X136527325Y-71760860D01*
X136003221Y-72088136D01*
X135482293Y-72353034D01*
X134919170Y-72592664D01*
X134682363Y-72681892D01*
X134090765Y-72882529D01*
X133525910Y-73044762D01*
X132848327Y-73219468D01*
X132254663Y-73374010D01*
X131608069Y-73559963D01*
X131035951Y-73746002D01*
X130727230Y-73855287D01*
X130016087Y-74131491D01*
X129372574Y-74416338D01*
X128794503Y-74708405D01*
X128279681Y-75006267D01*
X127621252Y-75460816D01*
X127092815Y-75920399D01*
X126686980Y-76380215D01*
X126396353Y-76835458D01*
X126213543Y-77281326D01*
X126131157Y-77713016D01*
X126141805Y-78125722D01*
X126238092Y-78514643D01*
X126447515Y-78896782D01*
X126785734Y-79157577D01*
X127340425Y-79242909D01*
X127917053Y-79126797D01*
X128070053Y-79074676D01*
X127708374Y-78809551D01*
X127487182Y-78445023D01*
X127431878Y-78306789D01*
X127310811Y-77875320D01*
X127272812Y-77477620D01*
X127346592Y-76995116D01*
X127556593Y-76561208D01*
X127896270Y-76169359D01*
X128359078Y-75813032D01*
X128938470Y-75485693D01*
X129627902Y-75180806D01*
X130011837Y-75034738D01*
X130577636Y-74850258D01*
X130636788Y-74832227D01*
X130926822Y-82698862D01*
X132661942Y-82067330D01*
X132359615Y-74406865D01*
X132969344Y-74266717D01*
X133560675Y-74128918D01*
X134127525Y-73985366D01*
X134737572Y-73803868D01*
X134954194Y-73728672D01*
G37*
G36*
X138688609Y-74251500D02*
G01*
X139086516Y-74495278D01*
X139321681Y-74887927D01*
X139400059Y-75224986D01*
X139373524Y-75682694D01*
X139202382Y-76145440D01*
X138892251Y-76608376D01*
X138448749Y-77066655D01*
X137877497Y-77515429D01*
X137368602Y-77842856D01*
X136793378Y-78160165D01*
X136154196Y-78465311D01*
X136257294Y-78799988D01*
X136464173Y-79196761D01*
X136854450Y-79481957D01*
X137422422Y-79509049D01*
X138013211Y-79348191D01*
X138472681Y-79152967D01*
X138999376Y-78849543D01*
X139486885Y-78468000D01*
X139853832Y-78088326D01*
X140177018Y-77650793D01*
X140448921Y-77153759D01*
X140955686Y-76969312D01*
X140746466Y-77477831D01*
X140466493Y-77988685D01*
X140120154Y-78489726D01*
X139711836Y-78968807D01*
X139245927Y-79413779D01*
X138726813Y-79812495D01*
X138158883Y-80152806D01*
X137546523Y-80422566D01*
X137202922Y-80533281D01*
X136633843Y-80649715D01*
X135982954Y-80658856D01*
X135492059Y-80540297D01*
X135070575Y-80291246D01*
X134797590Y-79988110D01*
X134593418Y-79584413D01*
X134519380Y-79340679D01*
X134441908Y-78911000D01*
X134414065Y-78420151D01*
X134446343Y-77885818D01*
X134505805Y-77562120D01*
X136066752Y-77562120D01*
X136083701Y-78023117D01*
X136678111Y-77703354D01*
X137193175Y-77360813D01*
X137623566Y-77000940D01*
X138034367Y-76535027D01*
X138294137Y-76061186D01*
X138392471Y-75590058D01*
X138318965Y-75132284D01*
X138119885Y-74856458D01*
X137565338Y-74878429D01*
X137458022Y-74921451D01*
X136903141Y-75300168D01*
X136553316Y-75744928D01*
X136343876Y-76161759D01*
X136194517Y-76614718D01*
X136102917Y-77087079D01*
X136066752Y-77562120D01*
X134505805Y-77562120D01*
X134549236Y-77325687D01*
X134733235Y-76757446D01*
X135008834Y-76198781D01*
X135386526Y-75667377D01*
X135876804Y-75180923D01*
X136490160Y-74757104D01*
X137237087Y-74413607D01*
X137481475Y-74331685D01*
X138118634Y-74201367D01*
X138688609Y-74251500D01*
G37*
G36*
X140247382Y-73317949D02*
G01*
X140497523Y-79215412D01*
X142078410Y-78640016D01*
X141927297Y-74839916D01*
X142092926Y-74366825D01*
X142335259Y-73901881D01*
X142680958Y-73486338D01*
X143163349Y-73168132D01*
X143284652Y-73119067D01*
X143865192Y-73068349D01*
X144168623Y-73385684D01*
X144193969Y-73449333D01*
X144282301Y-73846644D01*
X144310191Y-74315222D01*
X144308912Y-74723652D01*
X144303113Y-75147277D01*
X144307974Y-75572577D01*
X144338680Y-75986033D01*
X144410412Y-76374128D01*
X144466407Y-76554441D01*
X144681787Y-76948851D01*
X145009071Y-77224455D01*
X145529376Y-77358594D01*
X146120714Y-77286791D01*
X146414913Y-77194736D01*
X146945002Y-76938867D01*
X147439282Y-76523392D01*
X147777104Y-76070161D01*
X148022556Y-75591146D01*
X148185323Y-75154100D01*
X148324917Y-74643335D01*
X148402930Y-74258736D01*
X147819049Y-74471252D01*
X147685213Y-74961102D01*
X147492373Y-75433099D01*
X147221228Y-75840104D01*
X146754910Y-76166473D01*
X146233498Y-76078200D01*
X146092070Y-75819273D01*
X145990855Y-75386565D01*
X145955832Y-74898392D01*
X145954477Y-74482724D01*
X145959491Y-74056941D01*
X145954877Y-73632322D01*
X145924639Y-73220149D01*
X145852779Y-72831703D01*
X145796242Y-72649902D01*
X145593093Y-72265777D01*
X145273985Y-71987158D01*
X144733555Y-71851588D01*
X144077387Y-71939911D01*
X143736901Y-72047868D01*
X143175827Y-72305500D01*
X142695153Y-72646983D01*
X142280522Y-73081355D01*
X141947746Y-73577387D01*
X141895402Y-73672537D01*
X141842040Y-72737541D01*
X140247382Y-73317949D01*
G37*
G36*
X147617510Y-70635442D02*
G01*
X147867651Y-76532905D01*
X149448538Y-75957509D01*
X149297425Y-72157409D01*
X149463054Y-71684318D01*
X149705387Y-71219374D01*
X150051086Y-70803831D01*
X150533477Y-70485624D01*
X150654780Y-70436560D01*
X151235320Y-70385842D01*
X151538751Y-70703177D01*
X151564097Y-70766826D01*
X151652429Y-71164137D01*
X151680319Y-71632714D01*
X151679040Y-72041145D01*
X151673240Y-72464770D01*
X151678102Y-72890069D01*
X151708807Y-73303526D01*
X151780540Y-73691621D01*
X151836535Y-73871934D01*
X152051915Y-74266344D01*
X152379198Y-74541948D01*
X152899504Y-74676087D01*
X153490842Y-74604284D01*
X153785041Y-74512229D01*
X154315130Y-74256359D01*
X154809409Y-73840885D01*
X155147232Y-73387654D01*
X155392684Y-72908639D01*
X155555450Y-72471593D01*
X155695045Y-71960828D01*
X155773058Y-71576229D01*
X155189177Y-71788745D01*
X155055341Y-72278595D01*
X154862501Y-72750592D01*
X154591356Y-73157596D01*
X154125038Y-73483966D01*
X153603626Y-73395692D01*
X153462197Y-73136766D01*
X153360983Y-72704058D01*
X153325960Y-72215884D01*
X153324604Y-71800217D01*
X153329619Y-71374434D01*
X153325005Y-70949815D01*
X153294767Y-70537642D01*
X153222907Y-70149196D01*
X153166369Y-69967395D01*
X152963221Y-69583269D01*
X152644113Y-69304650D01*
X152103683Y-69169080D01*
X151447515Y-69257404D01*
X151107029Y-69365361D01*
X150545955Y-69622993D01*
X150065281Y-69964476D01*
X149650650Y-70398848D01*
X149317874Y-70894880D01*
X149265530Y-70990030D01*
X149212168Y-70055034D01*
X147617510Y-70635442D01*
G37*
G36*
X159234631Y-66773360D02*
G01*
X159632538Y-67017138D01*
X159867703Y-67409787D01*
X159946081Y-67746846D01*
X159919546Y-68204554D01*
X159748404Y-68667300D01*
X159438272Y-69130236D01*
X158994771Y-69588514D01*
X158423519Y-70037288D01*
X157914624Y-70364715D01*
X157339400Y-70682024D01*
X156700217Y-70987170D01*
X156803316Y-71321848D01*
X157010195Y-71718621D01*
X157400472Y-72003817D01*
X157968444Y-72030909D01*
X158559233Y-71870051D01*
X159018703Y-71674827D01*
X159545398Y-71371403D01*
X160032907Y-70989859D01*
X160399854Y-70610186D01*
X160723039Y-70172652D01*
X160994942Y-69675619D01*
X161501708Y-69491171D01*
X161292488Y-69999690D01*
X161012515Y-70510544D01*
X160666176Y-71011586D01*
X160257858Y-71490667D01*
X159791948Y-71935639D01*
X159272835Y-72334355D01*
X158704905Y-72674666D01*
X158092545Y-72944426D01*
X157748944Y-73055140D01*
X157179865Y-73171574D01*
X156528976Y-73180716D01*
X156038081Y-73062156D01*
X155616596Y-72813106D01*
X155343612Y-72509969D01*
X155139440Y-72106273D01*
X155065402Y-71862538D01*
X154987930Y-71432860D01*
X154960087Y-70942011D01*
X154992365Y-70407678D01*
X155051826Y-70083980D01*
X156612774Y-70083980D01*
X156629723Y-70544976D01*
X157224133Y-70225214D01*
X157739197Y-69882672D01*
X158169588Y-69522800D01*
X158580389Y-69056886D01*
X158840159Y-68583046D01*
X158938493Y-68111918D01*
X158864987Y-67654144D01*
X158665907Y-67378318D01*
X158111360Y-67400288D01*
X158004044Y-67443311D01*
X157449162Y-67822028D01*
X157099337Y-68266787D01*
X156889898Y-68683619D01*
X156740539Y-69136577D01*
X156648938Y-69608939D01*
X156612774Y-70083980D01*
X155051826Y-70083980D01*
X155095257Y-69847547D01*
X155279257Y-69279306D01*
X155554856Y-68720640D01*
X155932548Y-68189237D01*
X156422826Y-67702782D01*
X157036182Y-67278964D01*
X157783109Y-66935467D01*
X158027497Y-66853545D01*
X158664655Y-66723226D01*
X159234631Y-66773360D01*
G37*
G36*
X163689470Y-64798694D02*
G01*
X163893259Y-65239725D01*
X164078957Y-65633444D01*
X164325978Y-66143617D01*
X164538448Y-66568692D01*
X164774377Y-67025229D01*
X165005472Y-67461449D01*
X165211749Y-67866015D01*
X165368424Y-68237673D01*
X165465691Y-68607743D01*
X165624319Y-68469536D01*
X166019772Y-68101307D01*
X166394349Y-67722872D01*
X167058101Y-67481286D01*
X166908914Y-67694113D01*
X166548275Y-68157201D01*
X166176642Y-68577015D01*
X165802118Y-68958051D01*
X165380939Y-69351804D01*
X165286054Y-69569033D01*
X164965292Y-70026974D01*
X164542156Y-70412776D01*
X164062022Y-70721939D01*
X163501712Y-70975650D01*
X163066734Y-71113633D01*
X162419653Y-71233388D01*
X161871108Y-71232220D01*
X161344847Y-71098580D01*
X160964806Y-70852412D01*
X160709381Y-70467817D01*
X160694229Y-70422487D01*
X160667278Y-70015723D01*
X160682257Y-69975984D01*
X161403692Y-69975984D01*
X161647737Y-70340099D01*
X162138076Y-70495550D01*
X162711006Y-70371405D01*
X162785399Y-70343378D01*
X163300613Y-70076160D01*
X163677070Y-69680548D01*
X163790010Y-69240001D01*
X163714431Y-68852153D01*
X163653220Y-68696709D01*
X163455394Y-68298200D01*
X163251880Y-67934030D01*
X163029989Y-67528845D01*
X162809881Y-67107656D01*
X162616049Y-66720938D01*
X162394785Y-66263356D01*
X162383147Y-66674354D01*
X162339400Y-67164988D01*
X162264081Y-67658863D01*
X162177897Y-68077511D01*
X162071020Y-68506546D01*
X161944013Y-68949666D01*
X161957979Y-68951387D01*
X162290653Y-69216495D01*
X162252901Y-69630168D01*
X161837229Y-69984537D01*
X161403692Y-69975984D01*
X160682257Y-69975984D01*
X160826265Y-69593923D01*
X161189030Y-69189108D01*
X161364239Y-68683335D01*
X161512826Y-68187568D01*
X161637542Y-67700928D01*
X161741135Y-67222537D01*
X161826358Y-66751514D01*
X161895959Y-66286981D01*
X161952690Y-65828058D01*
X161999300Y-65373867D01*
X163580451Y-64559251D01*
X163689470Y-64798694D01*
G37*
G36*
X169087621Y-62833928D02*
G01*
X169291410Y-63274959D01*
X169477108Y-63668678D01*
X169724128Y-64178851D01*
X169936598Y-64603926D01*
X170172527Y-65060463D01*
X170403622Y-65496683D01*
X170609900Y-65901249D01*
X170766575Y-66272907D01*
X170863841Y-66642977D01*
X171022469Y-66504770D01*
X171417923Y-66136541D01*
X171792499Y-65758106D01*
X172456251Y-65516520D01*
X172307064Y-65729347D01*
X171946425Y-66192435D01*
X171574793Y-66612249D01*
X171200268Y-66993285D01*
X170779090Y-67387038D01*
X170684204Y-67604267D01*
X170363442Y-68062208D01*
X169940307Y-68448010D01*
X169460173Y-68757173D01*
X168899862Y-69010884D01*
X168464884Y-69148867D01*
X167817803Y-69268621D01*
X167269259Y-69267454D01*
X166742998Y-69133814D01*
X166362957Y-68887646D01*
X166107531Y-68503051D01*
X166092380Y-68457720D01*
X166065428Y-68050957D01*
X166080407Y-68011218D01*
X166801842Y-68011218D01*
X167045888Y-68375333D01*
X167536227Y-68530784D01*
X168109156Y-68406639D01*
X168183550Y-68378612D01*
X168698763Y-68111393D01*
X169075221Y-67715782D01*
X169188160Y-67275235D01*
X169112581Y-66887387D01*
X169051371Y-66731943D01*
X168853545Y-66333434D01*
X168650030Y-65969264D01*
X168428139Y-65564079D01*
X168208031Y-65142890D01*
X168014199Y-64756172D01*
X167792935Y-64298590D01*
X167781297Y-64709587D01*
X167737551Y-65200222D01*
X167662232Y-65694097D01*
X167576047Y-66112745D01*
X167469171Y-66541780D01*
X167342164Y-66984899D01*
X167356130Y-66986621D01*
X167688803Y-67251729D01*
X167651052Y-67665401D01*
X167235379Y-68019771D01*
X166801842Y-68011218D01*
X166080407Y-68011218D01*
X166224416Y-67629157D01*
X166587180Y-67224342D01*
X166762390Y-66718569D01*
X166910977Y-66222802D01*
X167035692Y-65736162D01*
X167139286Y-65257771D01*
X167224508Y-64786748D01*
X167294110Y-64322215D01*
X167350840Y-63863292D01*
X167397451Y-63409101D01*
X168978601Y-62594485D01*
X169087621Y-62833928D01*
G37*
G36*
X175836698Y-60730702D02*
G01*
X176234605Y-60974480D01*
X176469770Y-61367129D01*
X176548148Y-61704188D01*
X176521613Y-62161896D01*
X176350471Y-62624642D01*
X176040339Y-63087577D01*
X175596838Y-63545856D01*
X175025586Y-63994630D01*
X174516691Y-64322057D01*
X173941466Y-64639366D01*
X173302284Y-64944512D01*
X173405383Y-65279190D01*
X173612262Y-65675962D01*
X174002539Y-65961158D01*
X174570511Y-65988251D01*
X175161300Y-65827393D01*
X175620770Y-65632169D01*
X176147465Y-65328745D01*
X176634974Y-64947201D01*
X177001920Y-64567527D01*
X177325106Y-64129994D01*
X177597009Y-63632961D01*
X178103775Y-63448513D01*
X177894555Y-63957032D01*
X177614582Y-64467886D01*
X177268243Y-64968928D01*
X176859925Y-65448008D01*
X176394015Y-65892981D01*
X175874902Y-66291696D01*
X175306972Y-66632008D01*
X174694612Y-66901767D01*
X174351011Y-67012482D01*
X173781932Y-67128916D01*
X173131043Y-67138058D01*
X172640148Y-67019498D01*
X172218663Y-66770448D01*
X171945679Y-66467311D01*
X171741507Y-66063615D01*
X171667469Y-65819880D01*
X171589997Y-65390202D01*
X171562154Y-64899353D01*
X171594432Y-64365019D01*
X171653893Y-64041321D01*
X173214841Y-64041321D01*
X173231790Y-64502318D01*
X173826200Y-64182556D01*
X174341264Y-63840014D01*
X174771655Y-63480142D01*
X175182456Y-63014228D01*
X175442226Y-62540387D01*
X175540560Y-62069260D01*
X175467054Y-61611485D01*
X175267974Y-61335660D01*
X174713427Y-61357630D01*
X174606111Y-61400653D01*
X174051229Y-61779370D01*
X173701404Y-62224129D01*
X173491965Y-62640961D01*
X173342606Y-63093919D01*
X173251005Y-63566281D01*
X173214841Y-64041321D01*
X171653893Y-64041321D01*
X171697324Y-63804889D01*
X171881324Y-63236648D01*
X172156923Y-62677982D01*
X172534615Y-62146579D01*
X173024893Y-61660124D01*
X173638249Y-61236305D01*
X174385176Y-60892809D01*
X174629564Y-60810887D01*
X175266722Y-60680568D01*
X175836698Y-60730702D01*
G37*
G36*
X181642464Y-58617576D02*
G01*
X182040371Y-58861354D01*
X182275536Y-59254003D01*
X182353914Y-59591062D01*
X182327379Y-60048770D01*
X182156237Y-60511516D01*
X181846105Y-60974451D01*
X181402604Y-61432730D01*
X180831352Y-61881504D01*
X180322456Y-62208931D01*
X179747232Y-62526240D01*
X179108050Y-62831386D01*
X179211149Y-63166064D01*
X179418028Y-63562836D01*
X179808305Y-63848032D01*
X180376277Y-63875125D01*
X180967066Y-63714267D01*
X181284998Y-63583759D01*
X181814496Y-63291776D01*
X182277444Y-62934641D01*
X182660286Y-62522007D01*
X182650537Y-62925281D01*
X182506534Y-63373696D01*
X182166473Y-63837295D01*
X181676179Y-64228473D01*
X181069780Y-64556602D01*
X180500378Y-64788641D01*
X180156777Y-64899356D01*
X179587698Y-65015790D01*
X178936809Y-65024932D01*
X178445913Y-64906372D01*
X178024429Y-64657322D01*
X177751445Y-64354185D01*
X177547272Y-63950489D01*
X177473235Y-63706754D01*
X177395763Y-63277076D01*
X177367920Y-62786227D01*
X177400198Y-62251893D01*
X177459659Y-61928195D01*
X179020607Y-61928195D01*
X179037556Y-62389192D01*
X179631966Y-62069430D01*
X180147030Y-61726888D01*
X180577421Y-61367016D01*
X180988222Y-60901102D01*
X181247992Y-60427261D01*
X181346326Y-59956134D01*
X181272819Y-59498360D01*
X181073740Y-59222534D01*
X180519193Y-59244504D01*
X180411877Y-59287527D01*
X179856995Y-59666244D01*
X179507170Y-60111003D01*
X179297731Y-60527835D01*
X179148372Y-60980793D01*
X179056771Y-61453155D01*
X179020607Y-61928195D01*
X177459659Y-61928195D01*
X177503090Y-61691763D01*
X177687090Y-61123522D01*
X177962689Y-60564856D01*
X178340381Y-60033453D01*
X178830659Y-59546998D01*
X179444015Y-59123179D01*
X180190942Y-58779683D01*
X180435330Y-58697761D01*
X181072488Y-58567442D01*
X181642464Y-58617576D01*
G37*
G36*
X129778197Y-95319341D02*
G01*
X129515905Y-95832301D01*
X129201655Y-96291318D01*
X128828157Y-96699902D01*
X128388122Y-97061562D01*
X127874261Y-97379808D01*
X127279285Y-97658149D01*
X127016950Y-97759099D01*
X126451851Y-97937853D01*
X125810466Y-98057565D01*
X125169199Y-98040055D01*
X124680735Y-97867291D01*
X124317762Y-97571913D01*
X124052969Y-97186564D01*
X123859045Y-96743887D01*
X123728419Y-96331793D01*
X123627118Y-95895148D01*
X123556449Y-95439483D01*
X123517723Y-94970328D01*
X123512249Y-94493213D01*
X123541336Y-94013667D01*
X123606292Y-93537222D01*
X123708428Y-93069406D01*
X123849052Y-92615751D01*
X124029473Y-92181785D01*
X124377589Y-91579853D01*
X124822614Y-91053330D01*
X125368965Y-90620879D01*
X126021061Y-90301166D01*
X126638492Y-90156154D01*
X127150130Y-90238371D01*
X127429207Y-90540608D01*
X127446115Y-90583036D01*
X127516756Y-90982518D01*
X127457815Y-91418885D01*
X127259249Y-91839446D01*
X127169484Y-91939644D01*
X127729999Y-91933462D01*
X127900065Y-91881669D01*
X128429776Y-91583783D01*
X128704247Y-91159793D01*
X128715060Y-90729535D01*
X128659646Y-90532263D01*
X128417017Y-90120717D01*
X128057133Y-89852962D01*
X127497460Y-89702200D01*
X126947024Y-89702633D01*
X126340613Y-89803079D01*
X125697378Y-89989860D01*
X125565997Y-90036372D01*
X124818352Y-90354628D01*
X124164585Y-90725170D01*
X123599560Y-91141145D01*
X123118141Y-91595697D01*
X122715194Y-92081973D01*
X122385583Y-92593118D01*
X122124171Y-93122278D01*
X121925824Y-93662599D01*
X121785406Y-94207226D01*
X121697782Y-94749304D01*
X121657815Y-95281981D01*
X121660370Y-95798401D01*
X121700312Y-96291710D01*
X121772505Y-96755054D01*
X121871814Y-97181579D01*
X121993103Y-97564430D01*
X122199408Y-98034861D01*
X122447365Y-98430025D01*
X122735940Y-98751707D01*
X123182109Y-99069392D01*
X123696211Y-99263842D01*
X124275801Y-99339283D01*
X124918433Y-99299944D01*
X125621663Y-99150054D01*
X126187381Y-98967631D01*
X126900329Y-98671560D01*
X127575224Y-98317236D01*
X128200538Y-97910439D01*
X128764739Y-97456950D01*
X129256300Y-96962549D01*
X129663690Y-96433017D01*
X129907059Y-96016289D01*
X130091733Y-95585491D01*
X130179838Y-95291678D01*
X129778197Y-95319341D01*
G37*
G36*
X135130761Y-95294559D02*
G01*
X135676344Y-94921790D01*
X136118885Y-94528246D01*
X136462053Y-94088081D01*
X136674765Y-93667021D01*
X136823141Y-93180685D01*
X136896947Y-92734566D01*
X137483583Y-92521048D01*
X137463183Y-92683381D01*
X137381742Y-93134186D01*
X137225789Y-93658805D01*
X137015485Y-94108611D01*
X136675814Y-94586548D01*
X136250385Y-94995782D01*
X135738736Y-95363087D01*
X135140401Y-95715236D01*
X135167071Y-96431219D01*
X135166987Y-96857083D01*
X135119534Y-97342825D01*
X134985358Y-97834026D01*
X134716799Y-98282580D01*
X134258909Y-98659973D01*
X133649772Y-98938053D01*
X133470268Y-98999864D01*
X132870714Y-99147530D01*
X132273384Y-99163567D01*
X131817683Y-98985068D01*
X131574413Y-98643354D01*
X131576007Y-98409629D01*
X132188003Y-98409629D01*
X132352601Y-98598851D01*
X132913562Y-98586368D01*
X133330212Y-98287462D01*
X133518565Y-97862811D01*
X133575925Y-97443858D01*
X133582519Y-97030822D01*
X133575735Y-96669406D01*
X133478687Y-96739131D01*
X132968883Y-97141778D01*
X132531455Y-97571345D01*
X132239618Y-97997074D01*
X132188003Y-98409629D01*
X131576007Y-98409629D01*
X131577160Y-98240687D01*
X131816255Y-97790319D01*
X132153784Y-97395975D01*
X132580867Y-96999209D01*
X133063606Y-96613977D01*
X133568100Y-96254237D01*
X133531324Y-95519059D01*
X133459897Y-95629310D01*
X133096457Y-96066587D01*
X132629860Y-96440601D01*
X132071317Y-96717928D01*
X131982413Y-96748514D01*
X131364994Y-96864511D01*
X130787425Y-96807052D01*
X130357254Y-96617869D01*
X130016071Y-96297870D01*
X129819610Y-95930150D01*
X129764468Y-95744884D01*
X129714102Y-95348908D01*
X129536521Y-91518934D01*
X131131178Y-90938526D01*
X131305823Y-95000376D01*
X131370789Y-95375964D01*
X131419573Y-95484833D01*
X131745759Y-95763480D01*
X132303901Y-95728760D01*
X132416035Y-95682301D01*
X132899693Y-95345483D01*
X133246826Y-94900582D01*
X133433972Y-94428201D01*
X133473528Y-93980589D01*
X133293193Y-90151617D01*
X134874080Y-89576221D01*
X135130761Y-95294559D01*
G37*
G36*
X138314995Y-88789603D02*
G01*
X138625849Y-88461580D01*
X139107438Y-88095925D01*
X139649790Y-87838004D01*
X139838479Y-87772708D01*
X140421532Y-87624920D01*
X141003259Y-87595052D01*
X141549197Y-87741950D01*
X141951941Y-88041847D01*
X142225608Y-88422455D01*
X142395848Y-88801421D01*
X142489407Y-89122813D01*
X142557453Y-89640665D01*
X142539185Y-90189422D01*
X142435097Y-90755571D01*
X142245685Y-91325600D01*
X141971441Y-91885994D01*
X141612860Y-92423242D01*
X141170437Y-92923830D01*
X140644664Y-93374245D01*
X140036037Y-93760974D01*
X139345049Y-94070506D01*
X139242004Y-94107125D01*
X138657675Y-94273172D01*
X138059570Y-94328984D01*
X137567018Y-94203024D01*
X137241183Y-93923915D01*
X137045428Y-93553847D01*
X137037513Y-93531673D01*
X136938659Y-93143581D01*
X136892107Y-92738407D01*
X136753263Y-89335135D01*
X138370078Y-89335135D01*
X138461653Y-92483199D01*
X138463106Y-92513988D01*
X138529474Y-92918049D01*
X138571974Y-93012722D01*
X138944502Y-93271846D01*
X139521741Y-93184855D01*
X139894392Y-93007279D01*
X140413773Y-92578821D01*
X140734835Y-92140672D01*
X140969147Y-91640723D01*
X141114123Y-91100188D01*
X141162673Y-90680914D01*
X141158426Y-90259694D01*
X141100291Y-89845476D01*
X140987177Y-89447213D01*
X140958716Y-89372481D01*
X140756231Y-88982371D01*
X140453775Y-88660046D01*
X139966318Y-88472013D01*
X139375893Y-88559418D01*
X139227263Y-88621223D01*
X138742556Y-88948044D01*
X138370078Y-89335135D01*
X136753263Y-89335135D01*
X136646017Y-86706392D01*
X138199646Y-85970411D01*
X138314995Y-88789603D01*
G37*
G36*
X147543289Y-85331210D02*
G01*
X147941196Y-85574988D01*
X148176361Y-85967637D01*
X148254739Y-86304696D01*
X148228204Y-86762404D01*
X148057062Y-87225150D01*
X147746930Y-87688086D01*
X147303429Y-88146364D01*
X146732177Y-88595138D01*
X146223282Y-88922565D01*
X145648057Y-89239874D01*
X145008875Y-89545021D01*
X145111974Y-89879698D01*
X145318853Y-90276471D01*
X145709130Y-90561667D01*
X146277102Y-90588759D01*
X146867891Y-90427901D01*
X147327361Y-90232677D01*
X147854056Y-89929253D01*
X148341565Y-89547709D01*
X148708512Y-89168036D01*
X149031697Y-88730502D01*
X149303600Y-88233469D01*
X149810366Y-88049021D01*
X149601146Y-88557540D01*
X149321173Y-89068394D01*
X148974834Y-89569436D01*
X148566516Y-90048517D01*
X148100606Y-90493489D01*
X147581493Y-90892205D01*
X147013563Y-91232516D01*
X146401203Y-91502276D01*
X146057602Y-91612990D01*
X145488523Y-91729425D01*
X144837634Y-91738566D01*
X144346739Y-91620006D01*
X143925254Y-91370956D01*
X143652270Y-91067819D01*
X143448098Y-90664123D01*
X143374060Y-90420388D01*
X143296588Y-89990710D01*
X143268745Y-89499861D01*
X143301023Y-88965528D01*
X143360484Y-88641830D01*
X144921432Y-88641830D01*
X144938381Y-89102826D01*
X145532791Y-88783064D01*
X146047855Y-88440522D01*
X146478246Y-88080650D01*
X146889047Y-87614736D01*
X147148817Y-87140896D01*
X147247151Y-86669768D01*
X147173645Y-86211994D01*
X146974565Y-85936168D01*
X146420018Y-85958138D01*
X146312702Y-86001161D01*
X145757820Y-86379878D01*
X145407995Y-86824637D01*
X145198556Y-87241469D01*
X145049197Y-87694427D01*
X144957596Y-88166789D01*
X144921432Y-88641830D01*
X143360484Y-88641830D01*
X143403915Y-88405397D01*
X143587915Y-87837156D01*
X143863514Y-87278490D01*
X144241206Y-86747087D01*
X144731484Y-86260633D01*
X145344840Y-85836814D01*
X146091767Y-85493317D01*
X146336155Y-85411395D01*
X146973313Y-85281076D01*
X147543289Y-85331210D01*
G37*
G36*
X149102062Y-84397659D02*
G01*
X149352203Y-90295122D01*
X150933089Y-89719726D01*
X150757858Y-85364902D01*
X151165213Y-84965904D01*
X151614753Y-84596422D01*
X152040972Y-84365575D01*
X152606298Y-84361656D01*
X152923558Y-84339607D01*
X153408845Y-84025996D01*
X153628009Y-83608428D01*
X153592758Y-83324602D01*
X153258166Y-83044810D01*
X152642989Y-83111631D01*
X152528235Y-83150634D01*
X151945623Y-83454341D01*
X151476797Y-83864201D01*
X151133581Y-84277350D01*
X150829398Y-84712317D01*
X150746517Y-84836718D01*
X150696720Y-83817251D01*
X149102062Y-84397659D01*
G37*
G36*
X157297129Y-81427866D02*
G01*
X157500918Y-81868896D01*
X157686616Y-82262615D01*
X157933637Y-82772789D01*
X158146107Y-83197864D01*
X158382036Y-83654400D01*
X158613131Y-84090621D01*
X158819408Y-84495186D01*
X158976083Y-84866844D01*
X159073349Y-85236914D01*
X159231977Y-85098707D01*
X159627431Y-84730479D01*
X160002007Y-84352043D01*
X160665759Y-84110457D01*
X160516572Y-84323285D01*
X160155933Y-84786372D01*
X159784301Y-85206187D01*
X159409777Y-85587223D01*
X158988598Y-85980976D01*
X158893712Y-86198204D01*
X158572951Y-86656146D01*
X158149815Y-87041948D01*
X157669681Y-87351111D01*
X157109371Y-87604821D01*
X156674393Y-87742805D01*
X156027311Y-87862559D01*
X155478767Y-87861392D01*
X154952506Y-87727752D01*
X154572465Y-87481583D01*
X154317039Y-87096989D01*
X154301888Y-87051658D01*
X154274936Y-86644895D01*
X154289915Y-86605156D01*
X155011351Y-86605156D01*
X155255396Y-86969270D01*
X155745735Y-87124722D01*
X156318664Y-87000577D01*
X156393058Y-86972550D01*
X156908272Y-86705331D01*
X157284729Y-86309720D01*
X157397668Y-85869172D01*
X157322090Y-85481325D01*
X157260879Y-85325880D01*
X157063053Y-84927372D01*
X156859538Y-84563202D01*
X156637647Y-84158017D01*
X156417539Y-83736827D01*
X156223708Y-83350109D01*
X156002444Y-82892527D01*
X155990805Y-83303525D01*
X155947059Y-83794160D01*
X155871740Y-84288034D01*
X155785555Y-84706682D01*
X155678679Y-85135717D01*
X155551672Y-85578837D01*
X155565638Y-85580559D01*
X155898311Y-85845666D01*
X155860560Y-86259339D01*
X155444887Y-86613709D01*
X155011351Y-86605156D01*
X154289915Y-86605156D01*
X154433924Y-86223095D01*
X154796689Y-85818280D01*
X154971898Y-85312506D01*
X155120485Y-84816739D01*
X155245200Y-84330100D01*
X155348794Y-83851708D01*
X155434016Y-83380685D01*
X155503618Y-82916152D01*
X155560349Y-82457230D01*
X155606959Y-82003039D01*
X157188109Y-81188423D01*
X157297129Y-81427866D01*
G37*
G36*
X164046206Y-79324639D02*
G01*
X164444113Y-79568417D01*
X164679278Y-79961066D01*
X164757656Y-80298125D01*
X164731121Y-80755834D01*
X164559979Y-81218579D01*
X164249847Y-81681515D01*
X163806346Y-82139794D01*
X163235094Y-82588568D01*
X162726199Y-82915995D01*
X162150975Y-83233304D01*
X161511792Y-83538450D01*
X161614891Y-83873127D01*
X161821770Y-84269900D01*
X162212047Y-84555096D01*
X162780019Y-84582188D01*
X163370808Y-84421330D01*
X163830278Y-84226106D01*
X164356973Y-83922682D01*
X164844482Y-83541139D01*
X165211429Y-83161465D01*
X165534614Y-82723932D01*
X165806518Y-82226898D01*
X166313283Y-82042451D01*
X166104063Y-82550970D01*
X165824090Y-83061824D01*
X165477751Y-83562865D01*
X165069433Y-84041946D01*
X164603524Y-84486918D01*
X164084410Y-84885634D01*
X163516480Y-85225946D01*
X162904120Y-85495705D01*
X162560519Y-85606420D01*
X161991440Y-85722854D01*
X161340551Y-85731995D01*
X160849656Y-85613436D01*
X160428171Y-85364385D01*
X160155187Y-85061249D01*
X159951015Y-84657552D01*
X159876977Y-84413818D01*
X159799505Y-83984139D01*
X159771662Y-83493290D01*
X159803940Y-82958957D01*
X159863401Y-82635259D01*
X161424349Y-82635259D01*
X161441298Y-83096256D01*
X162035708Y-82776493D01*
X162550772Y-82433952D01*
X162981163Y-82074079D01*
X163391964Y-81608166D01*
X163651734Y-81134325D01*
X163750068Y-80663197D01*
X163676562Y-80205423D01*
X163477482Y-79929597D01*
X162922935Y-79951568D01*
X162815619Y-79994590D01*
X162260738Y-80373308D01*
X161910913Y-80818067D01*
X161701473Y-81234898D01*
X161552114Y-81687857D01*
X161460513Y-82160218D01*
X161424349Y-82635259D01*
X159863401Y-82635259D01*
X159906832Y-82398827D01*
X160090832Y-81830585D01*
X160366431Y-81271920D01*
X160744123Y-80740516D01*
X161234401Y-80254062D01*
X161847757Y-79830243D01*
X162594684Y-79486746D01*
X162839072Y-79404824D01*
X163476231Y-79274506D01*
X164046206Y-79324639D01*
G37*
G36*
X169399763Y-78893784D02*
G01*
X169931598Y-78949320D01*
X170001162Y-78926493D01*
X170469761Y-78555482D01*
X170585774Y-78099656D01*
X170516312Y-77736751D01*
X170288969Y-77369880D01*
X169877084Y-77148023D01*
X169309670Y-77128904D01*
X168691073Y-77272048D01*
X168494091Y-77339537D01*
X167712337Y-77695500D01*
X167072748Y-78128269D01*
X166563691Y-78620625D01*
X166173532Y-79155347D01*
X165890638Y-79715217D01*
X165703374Y-80283013D01*
X165600108Y-80841517D01*
X165569206Y-81373507D01*
X165599033Y-81861765D01*
X165677956Y-82289070D01*
X165752103Y-82531574D01*
X165957819Y-82939512D01*
X166231964Y-83245837D01*
X166654442Y-83497619D01*
X167145926Y-83617793D01*
X167797133Y-83609527D01*
X168366281Y-83493283D01*
X168709886Y-83382579D01*
X169320936Y-83113288D01*
X169885378Y-82774189D01*
X170399488Y-82377140D01*
X170859540Y-81934000D01*
X171261808Y-81456625D01*
X171602568Y-80956875D01*
X171878095Y-80446608D01*
X172084662Y-79937682D01*
X171550356Y-80132153D01*
X171326861Y-80596575D01*
X171044055Y-81015098D01*
X170631843Y-81456232D01*
X170146474Y-81830130D01*
X169594628Y-82136170D01*
X169193099Y-82302190D01*
X168594026Y-82467186D01*
X168020964Y-82444202D01*
X167628410Y-82158637D01*
X167419320Y-81756329D01*
X167292309Y-81271680D01*
X167244646Y-80866598D01*
X167240404Y-80440090D01*
X167281946Y-80004957D01*
X167371632Y-79574002D01*
X167570189Y-79028021D01*
X167864137Y-78542572D01*
X168259073Y-78148002D01*
X168760597Y-77874658D01*
X169337633Y-77801870D01*
X169625544Y-78040171D01*
X169636930Y-78448333D01*
X169423118Y-78880588D01*
X169402437Y-78901129D01*
X169399763Y-78893784D01*
G37*
G36*
X175101317Y-74934704D02*
G01*
X175281653Y-78763676D01*
X175242097Y-79211288D01*
X175054951Y-79683669D01*
X174707818Y-80128570D01*
X174224160Y-80465388D01*
X174112026Y-80511847D01*
X173553884Y-80546567D01*
X173227698Y-80267920D01*
X173178913Y-80159051D01*
X173113948Y-79783463D01*
X172939303Y-75721613D01*
X171344645Y-76302021D01*
X171522227Y-80131995D01*
X171572593Y-80527971D01*
X171627735Y-80713237D01*
X171824196Y-81080957D01*
X172165379Y-81400956D01*
X172595549Y-81590139D01*
X173173118Y-81647598D01*
X173790537Y-81531601D01*
X173879441Y-81501015D01*
X174404347Y-81243491D01*
X174892015Y-80859554D01*
X175263190Y-80420732D01*
X175523137Y-79968731D01*
X175628494Y-79716614D01*
X175888234Y-80089303D01*
X176264638Y-80328741D01*
X176825539Y-80379396D01*
X177258794Y-80271031D01*
X177815744Y-80003403D01*
X178251016Y-79654227D01*
X178598371Y-79225293D01*
X178852311Y-78770792D01*
X179074271Y-78201086D01*
X179213814Y-77689196D01*
X179291708Y-77304135D01*
X178705072Y-77517653D01*
X178577967Y-77992498D01*
X178383335Y-78466876D01*
X178104310Y-78889446D01*
X177631841Y-79230739D01*
X177096274Y-79152906D01*
X176965841Y-78926276D01*
X176876741Y-78533253D01*
X176870620Y-78416146D01*
X176695975Y-74354296D01*
X175101317Y-74934704D01*
G37*
G36*
X178505457Y-73695698D02*
G01*
X178755598Y-79593161D01*
X180336485Y-79017765D01*
X180161253Y-74662942D01*
X180568608Y-74263943D01*
X181018148Y-73894462D01*
X181444367Y-73663615D01*
X182009693Y-73659695D01*
X182326953Y-73637646D01*
X182812241Y-73324036D01*
X183031404Y-72906467D01*
X182996153Y-72622641D01*
X182661561Y-72342850D01*
X182046384Y-72409671D01*
X181931630Y-72448673D01*
X181349019Y-72752380D01*
X180880192Y-73162241D01*
X180536977Y-73575389D01*
X180232793Y-74010356D01*
X180149912Y-74134758D01*
X180100115Y-73115290D01*
X178505457Y-73695698D01*
G37*
G36*
X183395669Y-70198270D02*
G01*
X183676264Y-70506696D01*
X184209579Y-70611663D01*
X184689353Y-70513399D01*
X185194254Y-70217405D01*
X185497653Y-69776903D01*
X185494337Y-69434417D01*
X185206067Y-69130917D01*
X184708606Y-69020849D01*
X184180118Y-69114286D01*
X183674423Y-69416881D01*
X183387323Y-69860647D01*
X183395669Y-70198270D01*
G37*
G36*
X183820983Y-71761005D02*
G01*
X183998564Y-75590979D01*
X184037165Y-75997608D01*
X184127147Y-76387592D01*
X184144048Y-76436303D01*
X184341402Y-76816402D01*
X184691267Y-77125643D01*
X185196128Y-77248957D01*
X185783396Y-77161335D01*
X185978459Y-77097332D01*
X186534980Y-76829861D01*
X186969561Y-76480936D01*
X187316277Y-76052235D01*
X187569753Y-75597902D01*
X187791363Y-75028324D01*
X187930757Y-74516488D01*
X188008619Y-74131439D01*
X187424737Y-74343954D01*
X187297614Y-74818806D01*
X187102816Y-75293245D01*
X186823197Y-75716031D01*
X186348752Y-76058043D01*
X185815187Y-75979481D01*
X185685506Y-75752577D01*
X185594083Y-75360400D01*
X185587531Y-75243450D01*
X185415641Y-71180597D01*
X183820983Y-71761005D01*
G37*
G36*
X186734255Y-71118609D02*
G01*
X187254791Y-70929149D01*
X187407544Y-74348133D01*
X187448720Y-74753693D01*
X187543424Y-75157806D01*
X187552441Y-75183274D01*
X187744352Y-75552724D01*
X188097875Y-75864887D01*
X188625027Y-75992505D01*
X189253724Y-75897710D01*
X189465224Y-75828254D01*
X189995212Y-75561416D01*
X190464291Y-75182524D01*
X190845730Y-74741684D01*
X191133833Y-74296654D01*
X191398421Y-73761460D01*
X191576787Y-73296412D01*
X191734327Y-72773313D01*
X191150445Y-72985828D01*
X190983431Y-73475391D01*
X190773428Y-73904913D01*
X190481918Y-74318180D01*
X190047869Y-74688619D01*
X189838271Y-74787962D01*
X189280709Y-74793754D01*
X189054085Y-74501563D01*
X189003360Y-74095122D01*
X188999265Y-73999601D01*
X188832923Y-70354756D01*
X190064032Y-69906669D01*
X190039873Y-69497514D01*
X188825289Y-69939587D01*
X188747039Y-68104977D01*
X187161028Y-68854823D01*
X187230631Y-70519995D01*
X186710095Y-70709454D01*
X186734255Y-71118609D01*
G37*
G36*
X196584804Y-74076993D02*
G01*
X196584720Y-74502857D01*
X196537267Y-74988598D01*
X196403091Y-75479799D01*
X196134531Y-75928353D01*
X195676641Y-76305746D01*
X195067505Y-76583826D01*
X194888001Y-76645638D01*
X194288446Y-76793303D01*
X193691116Y-76809340D01*
X193235415Y-76630841D01*
X192992146Y-76289127D01*
X192993740Y-76055402D01*
X193605736Y-76055402D01*
X193770334Y-76244625D01*
X194331294Y-76232141D01*
X194747944Y-75933236D01*
X194936298Y-75508585D01*
X194993658Y-75089632D01*
X195000252Y-74676595D01*
X194993468Y-74315180D01*
X194896420Y-74384904D01*
X194386615Y-74787551D01*
X193949188Y-75217118D01*
X193657351Y-75642848D01*
X193605736Y-76055402D01*
X192993740Y-76055402D01*
X192994893Y-75886460D01*
X193233988Y-75436093D01*
X193571517Y-75041748D01*
X193998600Y-74644982D01*
X194481338Y-74259751D01*
X194985833Y-73900011D01*
X194949057Y-73164833D01*
X194877630Y-73275083D01*
X194514189Y-73712361D01*
X194047592Y-74086374D01*
X193489049Y-74363701D01*
X193400145Y-74394287D01*
X192782726Y-74510284D01*
X192205157Y-74452826D01*
X191774987Y-74263642D01*
X191433804Y-73943643D01*
X191237343Y-73575923D01*
X191182201Y-73390657D01*
X191131835Y-72994681D01*
X190954253Y-69164707D01*
X192548911Y-68584299D01*
X192723556Y-72646149D01*
X192788521Y-73021737D01*
X192837306Y-73130606D01*
X193163492Y-73409254D01*
X193721634Y-73374533D01*
X193833768Y-73328074D01*
X194317426Y-72991257D01*
X194664558Y-72546356D01*
X194851705Y-72073975D01*
X194891261Y-71626362D01*
X194710925Y-67797390D01*
X196291812Y-67221994D01*
X196584804Y-74076993D01*
G37*
D10*
X117873866Y-84180951D02*
X117873866Y-83419047D01*
X118254819Y-83799999D02*
X117492914Y-83799999D01*
D12*
X68548572Y-67901185D02*
X68620000Y-67829757D01*
X68620000Y-67829757D02*
X68762858Y-67758328D01*
X68762858Y-67758328D02*
X69120000Y-67758328D01*
X69120000Y-67758328D02*
X69262858Y-67829757D01*
X69262858Y-67829757D02*
X69334286Y-67901185D01*
X69334286Y-67901185D02*
X69405715Y-68044042D01*
X69405715Y-68044042D02*
X69405715Y-68186900D01*
X69405715Y-68186900D02*
X69334286Y-68401185D01*
X69334286Y-68401185D02*
X68477143Y-69258328D01*
X68477143Y-69258328D02*
X69405715Y-69258328D01*
X70334286Y-67758328D02*
X70477143Y-67758328D01*
X70477143Y-67758328D02*
X70620000Y-67829757D01*
X70620000Y-67829757D02*
X70691429Y-67901185D01*
X70691429Y-67901185D02*
X70762857Y-68044042D01*
X70762857Y-68044042D02*
X70834286Y-68329757D01*
X70834286Y-68329757D02*
X70834286Y-68686900D01*
X70834286Y-68686900D02*
X70762857Y-68972614D01*
X70762857Y-68972614D02*
X70691429Y-69115471D01*
X70691429Y-69115471D02*
X70620000Y-69186900D01*
X70620000Y-69186900D02*
X70477143Y-69258328D01*
X70477143Y-69258328D02*
X70334286Y-69258328D01*
X70334286Y-69258328D02*
X70191429Y-69186900D01*
X70191429Y-69186900D02*
X70120000Y-69115471D01*
X70120000Y-69115471D02*
X70048571Y-68972614D01*
X70048571Y-68972614D02*
X69977143Y-68686900D01*
X69977143Y-68686900D02*
X69977143Y-68329757D01*
X69977143Y-68329757D02*
X70048571Y-68044042D01*
X70048571Y-68044042D02*
X70120000Y-67901185D01*
X70120000Y-67901185D02*
X70191429Y-67829757D01*
X70191429Y-67829757D02*
X70334286Y-67758328D01*
X71405714Y-67901185D02*
X71477142Y-67829757D01*
X71477142Y-67829757D02*
X71620000Y-67758328D01*
X71620000Y-67758328D02*
X71977142Y-67758328D01*
X71977142Y-67758328D02*
X72120000Y-67829757D01*
X72120000Y-67829757D02*
X72191428Y-67901185D01*
X72191428Y-67901185D02*
X72262857Y-68044042D01*
X72262857Y-68044042D02*
X72262857Y-68186900D01*
X72262857Y-68186900D02*
X72191428Y-68401185D01*
X72191428Y-68401185D02*
X71334285Y-69258328D01*
X71334285Y-69258328D02*
X72262857Y-69258328D01*
X73548571Y-68258328D02*
X73548571Y-69258328D01*
X73191428Y-67686900D02*
X72834285Y-68758328D01*
X72834285Y-68758328D02*
X73762856Y-68758328D01*
D10*
G36*
X81441137Y-62915589D02*
G01*
X81409328Y-62878371D01*
X81391560Y-62828545D01*
X81393754Y-62782721D01*
X81405310Y-62724452D01*
X81415555Y-62666577D01*
X81424487Y-62609095D01*
X81432108Y-62552007D01*
X81438417Y-62495312D01*
X81443414Y-62439011D01*
X81445045Y-62416601D01*
X81449401Y-62361415D01*
X81454410Y-62310161D01*
X81461079Y-62255335D01*
X81468636Y-62205862D01*
X81475820Y-62167718D01*
X81487408Y-62119378D01*
X81503093Y-62072186D01*
X81527025Y-62027615D01*
X81569392Y-62000087D01*
X81573273Y-61999923D01*
X81592812Y-62003342D01*
X81624051Y-62041668D01*
X81634372Y-62098311D01*
X81635432Y-62161184D01*
X81632031Y-62218582D01*
X81625031Y-62284760D01*
X81618366Y-62333757D01*
X81610102Y-62386656D01*
X81600239Y-62443456D01*
X81588776Y-62504159D01*
X81575715Y-62568764D01*
X81565065Y-62620415D01*
X81554435Y-62671625D01*
X81547139Y-62706517D01*
X81536025Y-62759709D01*
X81525294Y-62810132D01*
X81514141Y-62860430D01*
X81508304Y-62883838D01*
X81483947Y-62926348D01*
X81471668Y-62930000D01*
X81441137Y-62915589D01*
G37*
G36*
X82589323Y-61920544D02*
G01*
X82608801Y-61953074D01*
X82613072Y-62003498D01*
X82609861Y-62062558D01*
X82602862Y-62120961D01*
X82595028Y-62171270D01*
X82584979Y-62227155D01*
X82572714Y-62288618D01*
X82569378Y-62315185D01*
X82564272Y-62366568D01*
X82559120Y-62422255D01*
X82553961Y-62479890D01*
X82549267Y-62533349D01*
X82541673Y-62580633D01*
X82532170Y-62628604D01*
X82562212Y-62618040D01*
X82606802Y-62596803D01*
X82655268Y-62572672D01*
X82697105Y-62560579D01*
X82748869Y-62557731D01*
X82798374Y-62560778D01*
X82847243Y-62567055D01*
X82863665Y-62569699D01*
X82914348Y-62579737D01*
X82963988Y-62594429D01*
X83006490Y-62621277D01*
X83022101Y-62663929D01*
X83018702Y-62713356D01*
X83003457Y-62762729D01*
X82976448Y-62805191D01*
X82961790Y-62818286D01*
X82917300Y-62846084D01*
X82870623Y-62869383D01*
X82819888Y-62891898D01*
X82796881Y-62901500D01*
X82748757Y-62920234D01*
X82698321Y-62936763D01*
X82648185Y-62945631D01*
X82583736Y-62945116D01*
X82527774Y-62943570D01*
X82469756Y-62940189D01*
X82417641Y-62934007D01*
X82370237Y-62912658D01*
X82371176Y-62876211D01*
X82376374Y-62825853D01*
X82381925Y-62787362D01*
X82530460Y-62787362D01*
X82555117Y-62818838D01*
X82598360Y-62843782D01*
X82624996Y-62849979D01*
X82674564Y-62838408D01*
X82703522Y-62836573D01*
X82753698Y-62836210D01*
X82767079Y-62830595D01*
X82808859Y-62802812D01*
X82849197Y-62772707D01*
X82858425Y-62763974D01*
X82861898Y-62714822D01*
X82858765Y-62710982D01*
X82810946Y-62696917D01*
X82760537Y-62691374D01*
X82725255Y-62697585D01*
X82674559Y-62716761D01*
X82624596Y-62739579D01*
X82575142Y-62764117D01*
X82530460Y-62787362D01*
X82381925Y-62787362D01*
X82383959Y-62773262D01*
X82392156Y-62724234D01*
X82402246Y-62669024D01*
X82414229Y-62607631D01*
X82424459Y-62557529D01*
X82428426Y-62525718D01*
X82435021Y-62471301D01*
X82441172Y-62420264D01*
X82448729Y-62357419D01*
X82455318Y-62302537D01*
X82462696Y-62241013D01*
X82470865Y-62172847D01*
X82475465Y-62136921D01*
X82483544Y-62084302D01*
X82493691Y-62032258D01*
X82506280Y-61983314D01*
X82513486Y-61962245D01*
X82539986Y-61918101D01*
X82589323Y-61920544D01*
G37*
G36*
X83282728Y-62795177D02*
G01*
X83321563Y-62804947D01*
X83330356Y-62804947D01*
X83378327Y-62795120D01*
X83410956Y-62779790D01*
X83454921Y-62752259D01*
X83498341Y-62721700D01*
X83539088Y-62691379D01*
X83544557Y-62687222D01*
X83587430Y-62654462D01*
X83627394Y-62624008D01*
X83635904Y-62617613D01*
X83664560Y-62572974D01*
X83683246Y-62527746D01*
X83697208Y-62475219D01*
X83710680Y-62424100D01*
X83731380Y-62376106D01*
X83752407Y-62347236D01*
X83790946Y-62316652D01*
X83807606Y-62312554D01*
X83835694Y-62330383D01*
X83844992Y-62380452D01*
X83839621Y-62431362D01*
X83835450Y-62453482D01*
X83833984Y-62480593D01*
X83819665Y-62530539D01*
X83791486Y-62570474D01*
X83773412Y-62591235D01*
X83773412Y-62611751D01*
X83772191Y-62659378D01*
X83767573Y-62709638D01*
X83767306Y-62722637D01*
X83768661Y-62771772D01*
X83766905Y-62823483D01*
X83760712Y-62869427D01*
X83743853Y-62915684D01*
X83713328Y-62940990D01*
X83665011Y-62955541D01*
X83637369Y-62961263D01*
X83634438Y-62960041D01*
X83632678Y-62908788D01*
X83635217Y-62856673D01*
X83637613Y-62820090D01*
X83639534Y-62771211D01*
X83630407Y-62722529D01*
X83623203Y-62718974D01*
X83598290Y-62736803D01*
X83562346Y-62770540D01*
X83523063Y-62798597D01*
X83479954Y-62823143D01*
X83451744Y-62831325D01*
X83428297Y-62844515D01*
X83393138Y-62881860D01*
X83386043Y-62887257D01*
X83344232Y-62912674D01*
X83336462Y-62914368D01*
X83334508Y-62914368D01*
X83330600Y-62914368D01*
X83314236Y-62925115D01*
X83265186Y-62939839D01*
X83226552Y-62943677D01*
X83190160Y-62945631D01*
X83141243Y-62936763D01*
X83136915Y-62932198D01*
X83110049Y-62914368D01*
X83083098Y-62872924D01*
X83081228Y-62826685D01*
X83085122Y-62776047D01*
X83088800Y-62754633D01*
X83103321Y-62706071D01*
X83115422Y-62680139D01*
X83160118Y-62600272D01*
X83187913Y-62554305D01*
X83219706Y-62511933D01*
X83255511Y-62477219D01*
X83287369Y-62457878D01*
X83327530Y-62427392D01*
X83338171Y-62415868D01*
X83375641Y-62384055D01*
X83381402Y-62382896D01*
X83398011Y-62370683D01*
X83437090Y-62353586D01*
X83455652Y-62351632D01*
X83480809Y-62362135D01*
X83480462Y-62413746D01*
X83478123Y-62425638D01*
X83463086Y-62475197D01*
X83435975Y-62517604D01*
X83405827Y-62538722D01*
X83365985Y-62570550D01*
X83348185Y-62589281D01*
X83311320Y-62622940D01*
X83304466Y-62625184D01*
X83300802Y-62624207D01*
X83297383Y-62623230D01*
X83258867Y-62655092D01*
X83257083Y-62657180D01*
X83227304Y-62697731D01*
X83218737Y-62718729D01*
X83244422Y-62760689D01*
X83282728Y-62795177D01*
G37*
G36*
X84129274Y-61998213D02*
G01*
X84145100Y-62045431D01*
X84148642Y-62094249D01*
X84147348Y-62102260D01*
X84123152Y-62147407D01*
X84091416Y-62170160D01*
X84057955Y-62179685D01*
X84026451Y-62140195D01*
X84028492Y-62090833D01*
X84034752Y-62054877D01*
X84036706Y-62044863D01*
X84048944Y-61996692D01*
X84071831Y-61951441D01*
X84085310Y-61945212D01*
X84120510Y-61980201D01*
X84129274Y-61998213D01*
G37*
G36*
X83889672Y-62841828D02*
G01*
X83892179Y-62791445D01*
X83895667Y-62733941D01*
X83899549Y-62682519D01*
X83904727Y-62628840D01*
X83911484Y-62577286D01*
X83916783Y-62547759D01*
X83919225Y-62536769D01*
X83932045Y-62489353D01*
X83953870Y-62444366D01*
X83967097Y-62428325D01*
X84006788Y-62398572D01*
X84021319Y-62395352D01*
X84041835Y-62403656D01*
X84056296Y-62450489D01*
X84051361Y-62489630D01*
X84047941Y-62506482D01*
X84040370Y-62542142D01*
X84030999Y-62594630D01*
X84023546Y-62648909D01*
X84017701Y-62702289D01*
X84013193Y-62752415D01*
X84011793Y-62770020D01*
X84006932Y-62823129D01*
X84001162Y-62872313D01*
X83996406Y-62901179D01*
X83991277Y-62920474D01*
X83948052Y-62945410D01*
X83940719Y-62945631D01*
X83896266Y-62925359D01*
X83888637Y-62877062D01*
X83889672Y-62841828D01*
G37*
G36*
X84141975Y-62927313D02*
G01*
X84125180Y-62881307D01*
X84129795Y-62829156D01*
X84138067Y-62783698D01*
X84144173Y-62754145D01*
X84154248Y-62705349D01*
X84164506Y-62655836D01*
X84175085Y-62604874D01*
X84185343Y-62555518D01*
X84187160Y-62546782D01*
X84197750Y-62495735D01*
X84208149Y-62445784D01*
X84218358Y-62396931D01*
X84220377Y-62387292D01*
X84230721Y-62337511D01*
X84240873Y-62288734D01*
X84251926Y-62235716D01*
X84256280Y-62214856D01*
X84266842Y-62163751D01*
X84277468Y-62112550D01*
X84287055Y-62066601D01*
X84297387Y-62016500D01*
X84305129Y-61979162D01*
X84327511Y-61935389D01*
X84351291Y-61919567D01*
X84373028Y-61913949D01*
X84400139Y-61937397D01*
X84421873Y-61983020D01*
X84423831Y-62036315D01*
X84419046Y-62085500D01*
X84411619Y-62129127D01*
X84399521Y-62178090D01*
X84390614Y-62207285D01*
X84376488Y-62257153D01*
X84366922Y-62299609D01*
X84357286Y-62349502D01*
X84348688Y-62399884D01*
X84341139Y-62448627D01*
X84333568Y-62501718D01*
X84332484Y-62509658D01*
X84321748Y-62561072D01*
X84312212Y-62607110D01*
X84301825Y-62656929D01*
X84295115Y-62688932D01*
X84285166Y-62736778D01*
X84280949Y-62757076D01*
X84268115Y-62805470D01*
X84250128Y-62851735D01*
X84235275Y-62881395D01*
X84203206Y-62919320D01*
X84165178Y-62930000D01*
X84141975Y-62927313D01*
G37*
G36*
X84724250Y-62176999D02*
G01*
X84719531Y-62227818D01*
X84717167Y-62252714D01*
X84734508Y-62295945D01*
X84786864Y-62302723D01*
X84838544Y-62308825D01*
X84864201Y-62311577D01*
X84914393Y-62318843D01*
X84930635Y-62324033D01*
X84930391Y-62324766D01*
X84900586Y-62366018D01*
X84887160Y-62385338D01*
X84852721Y-62403168D01*
X84803873Y-62409213D01*
X84754146Y-62419345D01*
X84708330Y-62436796D01*
X84705687Y-62438339D01*
X84679723Y-62481273D01*
X84670516Y-62516741D01*
X84661807Y-62569218D01*
X84656289Y-62618956D01*
X84652434Y-62667803D01*
X84649385Y-62722385D01*
X84647802Y-62761960D01*
X84645445Y-62814816D01*
X84641232Y-62864642D01*
X84636566Y-62894829D01*
X84623622Y-62924382D01*
X84577288Y-62941564D01*
X84549372Y-62945631D01*
X84519818Y-62935373D01*
X84498813Y-62895806D01*
X84500523Y-62891653D01*
X84500767Y-62890188D01*
X84500891Y-62838604D01*
X84500279Y-62815205D01*
X84559141Y-62531395D01*
X84562641Y-62481052D01*
X84543510Y-62453970D01*
X84532519Y-62452749D01*
X84516155Y-62457634D01*
X84501500Y-62461053D01*
X84482449Y-62457878D01*
X84469260Y-62412937D01*
X84485113Y-62365394D01*
X84485869Y-62363600D01*
X84512003Y-62351632D01*
X84516155Y-62351632D01*
X84518841Y-62351632D01*
X84561584Y-62328674D01*
X84581368Y-62285931D01*
X84584054Y-62267124D01*
X84586273Y-62215512D01*
X84589439Y-62151965D01*
X84592841Y-62094440D01*
X84596480Y-62042937D01*
X84601361Y-61987027D01*
X84607707Y-61932356D01*
X84614585Y-61891235D01*
X84634124Y-61848492D01*
X84682728Y-61843607D01*
X84685659Y-61843607D01*
X84721184Y-61883002D01*
X84730733Y-61937699D01*
X84733244Y-61987187D01*
X84732671Y-62047093D01*
X84730218Y-62098860D01*
X84726031Y-62156487D01*
X84724250Y-62176999D01*
G37*
G36*
X85902966Y-62945631D02*
G01*
X85873901Y-62926092D01*
X85855582Y-62885792D01*
X85887384Y-62845532D01*
X85901500Y-62835966D01*
X85945600Y-62806409D01*
X85984408Y-62773516D01*
X86015530Y-62733731D01*
X86025820Y-62706762D01*
X85998531Y-62666078D01*
X85949578Y-62657234D01*
X85923238Y-62656448D01*
X85869565Y-62652433D01*
X85821633Y-62640389D01*
X85774569Y-62617241D01*
X85742987Y-62592212D01*
X85722906Y-62547348D01*
X85723691Y-62542386D01*
X85749825Y-62499155D01*
X85785626Y-62461030D01*
X85819216Y-62420504D01*
X85835066Y-62399016D01*
X85874243Y-62362071D01*
X85922214Y-62326923D01*
X85963907Y-62298816D01*
X86013370Y-62266969D01*
X86055566Y-62240630D01*
X86102133Y-62212186D01*
X86153070Y-62181639D01*
X86199136Y-62164483D01*
X86206559Y-62164054D01*
X86249231Y-62188351D01*
X86250279Y-62189944D01*
X86258339Y-62221451D01*
X86255164Y-62229755D01*
X86216867Y-62262480D01*
X86174088Y-62290157D01*
X86169435Y-62293014D01*
X86126892Y-62317896D01*
X86082881Y-62339909D01*
X86065876Y-62345771D01*
X86066120Y-62347236D01*
X86027239Y-62381674D01*
X85997976Y-62403412D01*
X85956949Y-62433170D01*
X85924947Y-62455680D01*
X85915666Y-62476685D01*
X85926169Y-62505750D01*
X85974252Y-62525019D01*
X86022711Y-62535231D01*
X86033147Y-62537013D01*
X86085275Y-62547046D01*
X86134405Y-62562216D01*
X86146964Y-62568764D01*
X86183079Y-62602151D01*
X86200682Y-62651059D01*
X86198011Y-62686245D01*
X86181438Y-62734060D01*
X86170900Y-62754145D01*
X86134607Y-62790624D01*
X86091399Y-62824670D01*
X86046680Y-62857455D01*
X86039497Y-62862588D01*
X85999275Y-62890810D01*
X85956143Y-62919356D01*
X85911644Y-62943604D01*
X85902966Y-62945631D01*
G37*
G36*
X86750786Y-62236710D02*
G01*
X86787160Y-62270868D01*
X86802268Y-62312309D01*
X86804954Y-62357006D01*
X86799581Y-62370928D01*
X86784313Y-62419336D01*
X86780286Y-62437606D01*
X86775401Y-62461542D01*
X86771982Y-62477173D01*
X86757312Y-62532059D01*
X86736505Y-62584976D01*
X86709562Y-62635923D01*
X86676483Y-62684902D01*
X86637266Y-62731911D01*
X86591914Y-62776951D01*
X86553872Y-62809438D01*
X86512378Y-62840818D01*
X86482798Y-62861123D01*
X86440538Y-62887961D01*
X86393588Y-62912780D01*
X86343912Y-62928923D01*
X86330635Y-62930000D01*
X86320865Y-62929267D01*
X86274321Y-62909093D01*
X86241849Y-62867500D01*
X86226003Y-62818804D01*
X86221458Y-62789316D01*
X86224389Y-62758541D01*
X86229851Y-62739979D01*
X86350663Y-62739979D01*
X86353105Y-62783698D01*
X86370691Y-62792002D01*
X86417366Y-62777182D01*
X86462186Y-62751798D01*
X86481333Y-62739490D01*
X86520966Y-62710072D01*
X86561583Y-62671540D01*
X86596146Y-62628474D01*
X86624655Y-62580873D01*
X86641312Y-62544096D01*
X86658210Y-62496612D01*
X86666225Y-62465450D01*
X86668803Y-62415019D01*
X86658164Y-62395596D01*
X86620551Y-62375080D01*
X86604920Y-62392177D01*
X86604431Y-62431256D01*
X86560253Y-62452450D01*
X86554361Y-62454459D01*
X86507945Y-62470203D01*
X86503315Y-62471556D01*
X86471424Y-62513828D01*
X86442069Y-62559753D01*
X86413922Y-62605157D01*
X86387490Y-62650382D01*
X86364367Y-62697892D01*
X86350663Y-62739979D01*
X86229851Y-62739979D01*
X86238701Y-62709900D01*
X86256543Y-62664047D01*
X86277288Y-62616688D01*
X86298883Y-62570718D01*
X86323538Y-62520956D01*
X86350305Y-62469711D01*
X86377649Y-62421602D01*
X86406657Y-62378227D01*
X86419783Y-62363112D01*
X86460045Y-62327691D01*
X86501756Y-62297295D01*
X86544915Y-62271925D01*
X86589525Y-62251581D01*
X86615666Y-62242212D01*
X86664486Y-62230015D01*
X86701151Y-62226580D01*
X86750786Y-62236710D01*
G37*
G36*
X87169121Y-62942212D02*
G01*
X87166289Y-62890431D01*
X87166922Y-62887257D01*
X87178842Y-62839437D01*
X87194216Y-62787514D01*
X87208444Y-62743154D01*
X87223938Y-62696070D01*
X87238375Y-62646985D01*
X87244592Y-62621032D01*
X87248988Y-62599539D01*
X87243340Y-62549202D01*
X87230425Y-62514054D01*
X87205849Y-62469617D01*
X87167899Y-62445422D01*
X87162037Y-62446154D01*
X87118639Y-62471714D01*
X87082193Y-62509266D01*
X87053105Y-62545317D01*
X87024786Y-62585815D01*
X86996566Y-62634950D01*
X86973535Y-62686119D01*
X86955694Y-62739322D01*
X86946127Y-62778569D01*
X86933899Y-62831448D01*
X86918916Y-62879342D01*
X86898499Y-62912414D01*
X86854841Y-62934566D01*
X86847697Y-62935373D01*
X86829867Y-62898248D01*
X86834155Y-62843080D01*
X86836759Y-62791699D01*
X86837675Y-62737614D01*
X86836393Y-62688476D01*
X86835729Y-62676964D01*
X86832695Y-62623085D01*
X86830554Y-62574046D01*
X86829134Y-62519552D01*
X86829271Y-62464139D01*
X86831971Y-62413252D01*
X86836462Y-62381430D01*
X86846964Y-62354075D01*
X86882200Y-62317343D01*
X86914864Y-62300341D01*
X86938311Y-62332826D01*
X86945348Y-62385201D01*
X86948630Y-62434125D01*
X86947834Y-62485042D01*
X86943929Y-62521625D01*
X86946371Y-62509169D01*
X86964030Y-62458121D01*
X86990690Y-62416768D01*
X87027670Y-62379200D01*
X87068492Y-62349434D01*
X87112655Y-62323041D01*
X87157848Y-62302362D01*
X87206631Y-62290049D01*
X87222610Y-62289106D01*
X87270936Y-62300708D01*
X87307775Y-62335514D01*
X87329373Y-62381251D01*
X87331298Y-62387292D01*
X87346990Y-62433692D01*
X87366299Y-62479905D01*
X87369888Y-62483279D01*
X87371109Y-62480348D01*
X87373063Y-62470090D01*
X87373796Y-62466671D01*
X87404797Y-62427229D01*
X87447664Y-62391200D01*
X87493587Y-62356765D01*
X87501047Y-62351388D01*
X87545912Y-62326358D01*
X87596549Y-62311718D01*
X87647592Y-62307424D01*
X87695938Y-62324244D01*
X87730210Y-62359803D01*
X87735275Y-62367020D01*
X87759684Y-62412418D01*
X87775026Y-62462641D01*
X87781300Y-62517687D01*
X87779352Y-62569810D01*
X87778506Y-62577557D01*
X87771517Y-62626253D01*
X87767271Y-62648387D01*
X87754855Y-62699190D01*
X87739038Y-62748834D01*
X87719821Y-62797319D01*
X87707676Y-62823754D01*
X87680523Y-62869859D01*
X87644704Y-62907187D01*
X87602652Y-62930488D01*
X87559665Y-62939525D01*
X87526692Y-62929755D01*
X87511305Y-62887501D01*
X87514968Y-62874312D01*
X87551925Y-62838546D01*
X87578716Y-62815450D01*
X87609437Y-62775936D01*
X87629763Y-62734117D01*
X87647898Y-62687894D01*
X87659804Y-62644480D01*
X87665695Y-62593612D01*
X87663224Y-62557041D01*
X87651628Y-62507034D01*
X87627871Y-62463019D01*
X87597767Y-62445422D01*
X87593859Y-62445422D01*
X87547281Y-62462500D01*
X87502756Y-62489141D01*
X87462296Y-62517649D01*
X87426378Y-62552155D01*
X87422645Y-62557529D01*
X87393560Y-62604644D01*
X87366469Y-62649181D01*
X87346929Y-62683803D01*
X87332580Y-62745169D01*
X87316765Y-62798353D01*
X87294936Y-62853326D01*
X87265719Y-62902419D01*
X87227464Y-62936426D01*
X87191102Y-62945631D01*
X87169121Y-62942212D01*
G37*
G36*
X88394975Y-62226092D02*
G01*
X88428040Y-62267231D01*
X88451443Y-62311433D01*
X88460211Y-62362467D01*
X88457990Y-62380209D01*
X88437344Y-62425699D01*
X88414515Y-62451528D01*
X88369906Y-62492572D01*
X88329992Y-62528144D01*
X88286699Y-62564912D01*
X88244430Y-62597748D01*
X88200829Y-62623914D01*
X88189079Y-62626650D01*
X88146825Y-62654249D01*
X88105839Y-62682063D01*
X88082589Y-62686489D01*
X88036564Y-62703342D01*
X88030565Y-62713356D01*
X88029832Y-62716775D01*
X88058653Y-62755610D01*
X88106499Y-62768583D01*
X88158162Y-62773049D01*
X88192254Y-62773684D01*
X88242960Y-62773684D01*
X88260398Y-62773684D01*
X88310385Y-62773684D01*
X88323901Y-62773684D01*
X88346127Y-62773684D01*
X88391800Y-62786873D01*
X88418911Y-62825952D01*
X88382474Y-62859215D01*
X88369086Y-62866252D01*
X88322879Y-62882693D01*
X88316573Y-62883105D01*
X88304606Y-62883105D01*
X88298011Y-62883105D01*
X88250384Y-62898736D01*
X88201428Y-62910872D01*
X88181263Y-62911681D01*
X88127737Y-62908016D01*
X88076258Y-62899565D01*
X88024692Y-62887932D01*
X87996860Y-62880662D01*
X87949934Y-62858421D01*
X87912229Y-62820762D01*
X87886801Y-62775163D01*
X87870624Y-62726682D01*
X87864480Y-62699190D01*
X87859164Y-62648220D01*
X87862450Y-62598745D01*
X87864968Y-62584884D01*
X87879745Y-62536356D01*
X87886514Y-62523091D01*
X88015422Y-62523091D01*
X88015605Y-62572321D01*
X88020307Y-62575603D01*
X88022505Y-62575603D01*
X88069654Y-62558524D01*
X88117500Y-62538951D01*
X88138276Y-62530174D01*
X88183534Y-62506017D01*
X88226649Y-62475545D01*
X88263084Y-62444689D01*
X88317306Y-62395840D01*
X88324878Y-62359448D01*
X88290410Y-62321743D01*
X88268946Y-62320369D01*
X88221309Y-62338801D01*
X88210084Y-62346259D01*
X88160258Y-62381186D01*
X88113365Y-62400931D01*
X88082589Y-62423196D01*
X88043860Y-62454296D01*
X88036671Y-62459588D01*
X88021528Y-62493782D01*
X88015422Y-62523091D01*
X87886514Y-62523091D01*
X87903559Y-62489691D01*
X87936409Y-62444887D01*
X87972567Y-62407212D01*
X87978297Y-62401946D01*
X88019877Y-62366627D01*
X88063465Y-62334123D01*
X88109063Y-62304436D01*
X88156671Y-62277566D01*
X88206287Y-62253512D01*
X88223273Y-62246120D01*
X88271162Y-62227572D01*
X88319248Y-62214383D01*
X88351500Y-62210949D01*
X88394975Y-62226092D01*
G37*
G36*
X89782329Y-62236710D02*
G01*
X89818702Y-62270868D01*
X89833810Y-62312309D01*
X89836497Y-62357006D01*
X89831123Y-62370928D01*
X89815855Y-62419336D01*
X89811828Y-62437606D01*
X89806943Y-62461542D01*
X89803524Y-62477173D01*
X89788854Y-62532059D01*
X89768048Y-62584976D01*
X89741105Y-62635923D01*
X89708025Y-62684902D01*
X89668809Y-62731911D01*
X89623456Y-62776951D01*
X89585414Y-62809438D01*
X89543920Y-62840818D01*
X89514340Y-62861123D01*
X89472080Y-62887961D01*
X89425131Y-62912780D01*
X89375454Y-62928923D01*
X89362177Y-62930000D01*
X89352407Y-62929267D01*
X89305863Y-62909093D01*
X89273391Y-62867500D01*
X89257546Y-62818804D01*
X89253001Y-62789316D01*
X89255931Y-62758541D01*
X89261393Y-62739979D01*
X89382205Y-62739979D01*
X89384647Y-62783698D01*
X89402233Y-62792002D01*
X89448908Y-62777182D01*
X89493729Y-62751798D01*
X89512875Y-62739490D01*
X89552508Y-62710072D01*
X89593125Y-62671540D01*
X89627688Y-62628474D01*
X89656197Y-62580873D01*
X89672854Y-62544096D01*
X89689753Y-62496612D01*
X89697767Y-62465450D01*
X89700345Y-62415019D01*
X89689707Y-62395596D01*
X89652093Y-62375080D01*
X89636462Y-62392177D01*
X89635973Y-62431256D01*
X89591795Y-62452450D01*
X89585904Y-62454459D01*
X89539487Y-62470203D01*
X89534857Y-62471556D01*
X89502966Y-62513828D01*
X89473611Y-62559753D01*
X89445464Y-62605157D01*
X89419032Y-62650382D01*
X89395909Y-62697892D01*
X89382205Y-62739979D01*
X89261393Y-62739979D01*
X89270244Y-62709900D01*
X89288085Y-62664047D01*
X89308830Y-62616688D01*
X89330425Y-62570718D01*
X89355080Y-62520956D01*
X89381847Y-62469711D01*
X89409191Y-62421602D01*
X89438199Y-62378227D01*
X89451326Y-62363112D01*
X89491587Y-62327691D01*
X89533298Y-62297295D01*
X89576458Y-62271925D01*
X89621067Y-62251581D01*
X89647208Y-62242212D01*
X89696028Y-62230015D01*
X89732693Y-62226580D01*
X89782329Y-62236710D01*
G37*
G36*
X90134473Y-62475952D02*
G01*
X90103454Y-62491339D01*
X90091486Y-62527487D01*
X90082693Y-62562170D01*
X90074659Y-62611390D01*
X90069068Y-62660952D01*
X90065841Y-62697480D01*
X90061811Y-62748519D01*
X90056414Y-62803029D01*
X90050270Y-62852117D01*
X90042332Y-62901576D01*
X90037997Y-62923649D01*
X90033845Y-62944654D01*
X90022598Y-62992926D01*
X90010886Y-63024766D01*
X89980111Y-63039420D01*
X89931074Y-63036361D01*
X89905862Y-63025498D01*
X89904852Y-62976394D01*
X89906350Y-62968590D01*
X89912945Y-62919070D01*
X89914706Y-62868853D01*
X89914654Y-62855994D01*
X89917202Y-62804860D01*
X89923567Y-62753409D01*
X89932293Y-62700701D01*
X89942116Y-62649810D01*
X89943964Y-62640816D01*
X89954127Y-62590827D01*
X89963966Y-62538201D01*
X89970766Y-62489314D01*
X89970586Y-62478394D01*
X89956420Y-62463496D01*
X89953001Y-62463496D01*
X89919051Y-62479616D01*
X89898534Y-62487187D01*
X89879483Y-62483035D01*
X89860074Y-62435472D01*
X89857013Y-62398039D01*
X89858967Y-62388025D01*
X89885589Y-62360669D01*
X89914654Y-62350411D01*
X89963474Y-62342330D01*
X89985485Y-62328674D01*
X90002861Y-62279246D01*
X90014061Y-62229511D01*
X90019923Y-62201423D01*
X90022854Y-62187990D01*
X90034643Y-62138672D01*
X90051565Y-62091308D01*
X90068283Y-62066357D01*
X90109399Y-62032983D01*
X90154582Y-62012375D01*
X90188695Y-62007739D01*
X90239287Y-62017785D01*
X90279065Y-62039490D01*
X90318166Y-62071644D01*
X90342930Y-62115916D01*
X90342324Y-62122288D01*
X90333775Y-62138164D01*
X90296734Y-62171678D01*
X90288834Y-62174556D01*
X90285171Y-62173335D01*
X90255129Y-62145003D01*
X90254396Y-62145003D01*
X90235101Y-62132547D01*
X90219469Y-62124975D01*
X90207502Y-62129127D01*
X90172699Y-62164510D01*
X90149899Y-62208497D01*
X90146685Y-62216566D01*
X90130271Y-62263132D01*
X90126169Y-62279337D01*
X90126657Y-62310111D01*
X90169794Y-62335976D01*
X90171598Y-62336001D01*
X90175750Y-62336001D01*
X90215806Y-62336001D01*
X90265062Y-62339876D01*
X90281996Y-62346992D01*
X90289079Y-62377766D01*
X90287857Y-62384117D01*
X90262791Y-62428247D01*
X90220729Y-62454566D01*
X90167056Y-62470563D01*
X90134473Y-62475952D01*
G37*
G36*
X91370586Y-62176999D02*
G01*
X91365867Y-62227818D01*
X91363503Y-62252714D01*
X91380844Y-62295945D01*
X91433200Y-62302723D01*
X91484880Y-62308825D01*
X91510537Y-62311577D01*
X91560729Y-62318843D01*
X91576971Y-62324033D01*
X91576727Y-62324766D01*
X91546923Y-62366018D01*
X91533496Y-62385338D01*
X91499058Y-62403168D01*
X91450209Y-62409213D01*
X91400483Y-62419345D01*
X91354666Y-62436796D01*
X91352024Y-62438339D01*
X91326059Y-62481273D01*
X91316853Y-62516741D01*
X91308144Y-62569218D01*
X91302625Y-62618956D01*
X91298770Y-62667803D01*
X91295722Y-62722385D01*
X91294138Y-62761960D01*
X91291781Y-62814816D01*
X91287568Y-62864642D01*
X91282903Y-62894829D01*
X91269958Y-62924382D01*
X91223624Y-62941564D01*
X91195708Y-62945631D01*
X91166155Y-62935373D01*
X91145150Y-62895806D01*
X91146860Y-62891653D01*
X91147104Y-62890188D01*
X91147228Y-62838604D01*
X91146615Y-62815205D01*
X91205478Y-62531395D01*
X91208977Y-62481052D01*
X91189846Y-62453970D01*
X91178855Y-62452749D01*
X91162491Y-62457634D01*
X91147837Y-62461053D01*
X91128786Y-62457878D01*
X91115596Y-62412937D01*
X91131449Y-62365394D01*
X91132205Y-62363600D01*
X91158339Y-62351632D01*
X91162491Y-62351632D01*
X91165178Y-62351632D01*
X91207920Y-62328674D01*
X91227704Y-62285931D01*
X91230391Y-62267124D01*
X91232610Y-62215512D01*
X91235775Y-62151965D01*
X91239177Y-62094440D01*
X91242816Y-62042937D01*
X91247697Y-61987027D01*
X91254043Y-61932356D01*
X91260921Y-61891235D01*
X91280460Y-61848492D01*
X91329065Y-61843607D01*
X91331996Y-61843607D01*
X91367521Y-61883002D01*
X91377069Y-61937699D01*
X91379580Y-61987187D01*
X91379008Y-62047093D01*
X91376555Y-62098860D01*
X91372367Y-62156487D01*
X91370586Y-62176999D01*
G37*
G36*
X91752826Y-62563391D02*
G01*
X91754780Y-62553621D01*
X91776457Y-62506284D01*
X91819016Y-62472472D01*
X91873386Y-62453980D01*
X91922010Y-62447112D01*
X91966783Y-62445422D01*
X91978751Y-62445422D01*
X92029373Y-62449170D01*
X92075866Y-62465386D01*
X92079867Y-62468136D01*
X92115053Y-62506482D01*
X92136650Y-62554060D01*
X92148334Y-62605260D01*
X92153256Y-62655272D01*
X92153801Y-62711963D01*
X92153384Y-62724103D01*
X92148003Y-62773449D01*
X92147034Y-62778325D01*
X92133003Y-62826411D01*
X92111152Y-62872240D01*
X92098430Y-62892630D01*
X92066578Y-62932945D01*
X92026240Y-62963031D01*
X91999023Y-62969078D01*
X91971856Y-62927039D01*
X91975576Y-62900202D01*
X91988661Y-62852165D01*
X91992917Y-62839385D01*
X92007472Y-62790591D01*
X92010746Y-62776127D01*
X92018778Y-62726562D01*
X92023057Y-62673246D01*
X92023691Y-62621521D01*
X91992517Y-62583012D01*
X91972889Y-62568276D01*
X91933077Y-62554842D01*
X91898639Y-62564368D01*
X91851850Y-62593110D01*
X91812601Y-62626215D01*
X91780890Y-62663681D01*
X91753423Y-62712905D01*
X91738047Y-62759823D01*
X91736218Y-62768066D01*
X91729529Y-62818316D01*
X91729134Y-62860390D01*
X91726692Y-62908995D01*
X91696650Y-62945631D01*
X91675645Y-62945631D01*
X91627988Y-62933318D01*
X91611654Y-62910704D01*
X91597963Y-62861235D01*
X91591870Y-62826196D01*
X91598219Y-62774565D01*
X91608174Y-62722524D01*
X91609211Y-62717508D01*
X91612142Y-62703586D01*
X91612386Y-62701632D01*
X91620549Y-62651953D01*
X91626932Y-62595435D01*
X91631818Y-62538512D01*
X91635444Y-62486541D01*
X91638817Y-62428854D01*
X91641939Y-62365450D01*
X91643405Y-62331605D01*
X91671982Y-62194340D01*
X91678576Y-62162100D01*
X91689010Y-62112382D01*
X91696406Y-62077103D01*
X91708618Y-61963775D01*
X91715869Y-61914083D01*
X91720830Y-61887327D01*
X91734996Y-61842875D01*
X91766748Y-61827976D01*
X91790439Y-61830174D01*
X91839372Y-61844874D01*
X91865666Y-61878534D01*
X91865178Y-61881221D01*
X91851550Y-61928350D01*
X91838922Y-61977724D01*
X91830984Y-62013356D01*
X91822038Y-62062270D01*
X91815921Y-62111611D01*
X91814619Y-62128394D01*
X91809777Y-62177968D01*
X91802467Y-62228923D01*
X91799721Y-62243189D01*
X91789951Y-62279825D01*
X91781963Y-62336918D01*
X91774761Y-62388395D01*
X91766381Y-62448295D01*
X91759397Y-62498212D01*
X91751540Y-62554369D01*
X91745255Y-62599295D01*
X91752826Y-62563391D01*
G37*
G36*
X92511689Y-61998213D02*
G01*
X92527515Y-62045431D01*
X92531056Y-62094249D01*
X92529763Y-62102260D01*
X92505567Y-62147407D01*
X92473831Y-62170160D01*
X92440370Y-62179685D01*
X92408865Y-62140195D01*
X92410907Y-62090833D01*
X92417167Y-62054877D01*
X92419121Y-62044863D01*
X92431359Y-61996692D01*
X92454246Y-61951441D01*
X92467725Y-61945212D01*
X92502924Y-61980201D01*
X92511689Y-61998213D01*
G37*
G36*
X92272086Y-62841828D02*
G01*
X92274594Y-62791445D01*
X92278082Y-62733941D01*
X92281964Y-62682519D01*
X92287142Y-62628840D01*
X92293899Y-62577286D01*
X92299197Y-62547759D01*
X92301640Y-62536769D01*
X92314459Y-62489353D01*
X92336285Y-62444366D01*
X92349511Y-62428325D01*
X92389203Y-62398572D01*
X92403733Y-62395352D01*
X92424250Y-62403656D01*
X92438710Y-62450489D01*
X92433775Y-62489630D01*
X92430356Y-62506482D01*
X92422784Y-62542142D01*
X92413414Y-62594630D01*
X92405961Y-62648909D01*
X92400115Y-62702289D01*
X92395607Y-62752415D01*
X92394208Y-62770020D01*
X92389347Y-62823129D01*
X92383577Y-62872313D01*
X92378820Y-62901179D01*
X92373691Y-62920474D01*
X92330467Y-62945410D01*
X92323133Y-62945631D01*
X92278681Y-62925359D01*
X92271051Y-62877062D01*
X92272086Y-62841828D01*
G37*
G36*
X92673377Y-62945631D02*
G01*
X92644312Y-62926092D01*
X92625994Y-62885792D01*
X92657795Y-62845532D01*
X92671912Y-62835966D01*
X92716012Y-62806409D01*
X92754820Y-62773516D01*
X92785942Y-62733731D01*
X92796231Y-62706762D01*
X92768943Y-62666078D01*
X92719990Y-62657234D01*
X92693649Y-62656448D01*
X92639977Y-62652433D01*
X92592044Y-62640389D01*
X92544981Y-62617241D01*
X92513398Y-62592212D01*
X92493318Y-62547348D01*
X92494103Y-62542386D01*
X92520237Y-62499155D01*
X92556038Y-62461030D01*
X92589628Y-62420504D01*
X92605478Y-62399016D01*
X92644654Y-62362071D01*
X92692625Y-62326923D01*
X92734318Y-62298816D01*
X92783781Y-62266969D01*
X92825978Y-62240630D01*
X92872544Y-62212186D01*
X92923482Y-62181639D01*
X92969547Y-62164483D01*
X92976971Y-62164054D01*
X93019642Y-62188351D01*
X93020691Y-62189944D01*
X93028751Y-62221451D01*
X93025576Y-62229755D01*
X92987279Y-62262480D01*
X92944500Y-62290157D01*
X92939846Y-62293014D01*
X92897304Y-62317896D01*
X92853293Y-62339909D01*
X92836287Y-62345771D01*
X92836532Y-62347236D01*
X92797651Y-62381674D01*
X92768388Y-62403412D01*
X92727361Y-62433170D01*
X92695359Y-62455680D01*
X92686078Y-62476685D01*
X92696580Y-62505750D01*
X92744663Y-62525019D01*
X92793123Y-62535231D01*
X92803559Y-62537013D01*
X92855686Y-62547046D01*
X92904817Y-62562216D01*
X92917376Y-62568764D01*
X92953491Y-62602151D01*
X92971094Y-62651059D01*
X92968423Y-62686245D01*
X92951850Y-62734060D01*
X92941312Y-62754145D01*
X92905019Y-62790624D01*
X92861811Y-62824670D01*
X92817091Y-62857455D01*
X92809909Y-62862588D01*
X92769686Y-62890810D01*
X92726555Y-62919356D01*
X92682056Y-62943604D01*
X92673377Y-62945631D01*
G37*
D12*
X68655715Y-66718328D02*
X68655715Y-65218328D01*
X68655715Y-66646900D02*
X68512857Y-66718328D01*
X68512857Y-66718328D02*
X68227143Y-66718328D01*
X68227143Y-66718328D02*
X68084286Y-66646900D01*
X68084286Y-66646900D02*
X68012857Y-66575471D01*
X68012857Y-66575471D02*
X67941429Y-66432614D01*
X67941429Y-66432614D02*
X67941429Y-66004042D01*
X67941429Y-66004042D02*
X68012857Y-65861185D01*
X68012857Y-65861185D02*
X68084286Y-65789757D01*
X68084286Y-65789757D02*
X68227143Y-65718328D01*
X68227143Y-65718328D02*
X68512857Y-65718328D01*
X68512857Y-65718328D02*
X68655715Y-65789757D01*
X70012858Y-66646900D02*
X69870000Y-66718328D01*
X69870000Y-66718328D02*
X69584286Y-66718328D01*
X69584286Y-66718328D02*
X69441429Y-66646900D01*
X69441429Y-66646900D02*
X69370000Y-66575471D01*
X69370000Y-66575471D02*
X69298572Y-66432614D01*
X69298572Y-66432614D02*
X69298572Y-66004042D01*
X69298572Y-66004042D02*
X69370000Y-65861185D01*
X69370000Y-65861185D02*
X69441429Y-65789757D01*
X69441429Y-65789757D02*
X69584286Y-65718328D01*
X69584286Y-65718328D02*
X69870000Y-65718328D01*
X69870000Y-65718328D02*
X70012858Y-65789757D01*
X71298572Y-65218328D02*
X71012857Y-65218328D01*
X71012857Y-65218328D02*
X70870000Y-65289757D01*
X70870000Y-65289757D02*
X70798572Y-65361185D01*
X70798572Y-65361185D02*
X70655714Y-65575471D01*
X70655714Y-65575471D02*
X70584286Y-65861185D01*
X70584286Y-65861185D02*
X70584286Y-66432614D01*
X70584286Y-66432614D02*
X70655714Y-66575471D01*
X70655714Y-66575471D02*
X70727143Y-66646900D01*
X70727143Y-66646900D02*
X70870000Y-66718328D01*
X70870000Y-66718328D02*
X71155714Y-66718328D01*
X71155714Y-66718328D02*
X71298572Y-66646900D01*
X71298572Y-66646900D02*
X71370000Y-66575471D01*
X71370000Y-66575471D02*
X71441429Y-66432614D01*
X71441429Y-66432614D02*
X71441429Y-66075471D01*
X71441429Y-66075471D02*
X71370000Y-65932614D01*
X71370000Y-65932614D02*
X71298572Y-65861185D01*
X71298572Y-65861185D02*
X71155714Y-65789757D01*
X71155714Y-65789757D02*
X70870000Y-65789757D01*
X70870000Y-65789757D02*
X70727143Y-65861185D01*
X70727143Y-65861185D02*
X70655714Y-65932614D01*
X70655714Y-65932614D02*
X70584286Y-66075471D01*
X72870000Y-66718328D02*
X72012857Y-66718328D01*
X72441428Y-66718328D02*
X72441428Y-65218328D01*
X72441428Y-65218328D02*
X72298571Y-65432614D01*
X72298571Y-65432614D02*
X72155714Y-65575471D01*
X72155714Y-65575471D02*
X72012857Y-65646900D01*
X74227142Y-65218328D02*
X73512856Y-65218328D01*
X73512856Y-65218328D02*
X73441428Y-65932614D01*
X73441428Y-65932614D02*
X73512856Y-65861185D01*
X73512856Y-65861185D02*
X73655714Y-65789757D01*
X73655714Y-65789757D02*
X74012856Y-65789757D01*
X74012856Y-65789757D02*
X74155714Y-65861185D01*
X74155714Y-65861185D02*
X74227142Y-65932614D01*
X74227142Y-65932614D02*
X74298571Y-66075471D01*
X74298571Y-66075471D02*
X74298571Y-66432614D01*
X74298571Y-66432614D02*
X74227142Y-66575471D01*
X74227142Y-66575471D02*
X74155714Y-66646900D01*
X74155714Y-66646900D02*
X74012856Y-66718328D01*
X74012856Y-66718328D02*
X73655714Y-66718328D01*
X73655714Y-66718328D02*
X73512856Y-66646900D01*
X73512856Y-66646900D02*
X73441428Y-66575471D01*
D10*
X116101905Y-61844819D02*
X116101905Y-60844819D01*
X116101905Y-60844819D02*
X116340000Y-60844819D01*
X116340000Y-60844819D02*
X116482857Y-60892438D01*
X116482857Y-60892438D02*
X116578095Y-60987676D01*
X116578095Y-60987676D02*
X116625714Y-61082914D01*
X116625714Y-61082914D02*
X116673333Y-61273390D01*
X116673333Y-61273390D02*
X116673333Y-61416247D01*
X116673333Y-61416247D02*
X116625714Y-61606723D01*
X116625714Y-61606723D02*
X116578095Y-61701961D01*
X116578095Y-61701961D02*
X116482857Y-61797200D01*
X116482857Y-61797200D02*
X116340000Y-61844819D01*
X116340000Y-61844819D02*
X116101905Y-61844819D01*
X117054286Y-60940057D02*
X117101905Y-60892438D01*
X117101905Y-60892438D02*
X117197143Y-60844819D01*
X117197143Y-60844819D02*
X117435238Y-60844819D01*
X117435238Y-60844819D02*
X117530476Y-60892438D01*
X117530476Y-60892438D02*
X117578095Y-60940057D01*
X117578095Y-60940057D02*
X117625714Y-61035295D01*
X117625714Y-61035295D02*
X117625714Y-61130533D01*
X117625714Y-61130533D02*
X117578095Y-61273390D01*
X117578095Y-61273390D02*
X117006667Y-61844819D01*
X117006667Y-61844819D02*
X117625714Y-61844819D01*
D13*
X118711428Y-64672371D02*
X118368571Y-64672371D01*
X118540000Y-64672371D02*
X118540000Y-64072371D01*
X118540000Y-64072371D02*
X118482857Y-64158085D01*
X118482857Y-64158085D02*
X118425714Y-64215228D01*
X118425714Y-64215228D02*
X118368571Y-64243800D01*
D10*
X52601905Y-99944819D02*
X52601905Y-98944819D01*
X52601905Y-98944819D02*
X52840000Y-98944819D01*
X52840000Y-98944819D02*
X52982857Y-98992438D01*
X52982857Y-98992438D02*
X53078095Y-99087676D01*
X53078095Y-99087676D02*
X53125714Y-99182914D01*
X53125714Y-99182914D02*
X53173333Y-99373390D01*
X53173333Y-99373390D02*
X53173333Y-99516247D01*
X53173333Y-99516247D02*
X53125714Y-99706723D01*
X53125714Y-99706723D02*
X53078095Y-99801961D01*
X53078095Y-99801961D02*
X52982857Y-99897200D01*
X52982857Y-99897200D02*
X52840000Y-99944819D01*
X52840000Y-99944819D02*
X52601905Y-99944819D01*
X54125714Y-99944819D02*
X53554286Y-99944819D01*
X53840000Y-99944819D02*
X53840000Y-98944819D01*
X53840000Y-98944819D02*
X53744762Y-99087676D01*
X53744762Y-99087676D02*
X53649524Y-99182914D01*
X53649524Y-99182914D02*
X53554286Y-99230533D01*
D13*
X55211428Y-102772371D02*
X54868571Y-102772371D01*
X55040000Y-102772371D02*
X55040000Y-102172371D01*
X55040000Y-102172371D02*
X54982857Y-102258085D01*
X54982857Y-102258085D02*
X54925714Y-102315228D01*
X54925714Y-102315228D02*
X54868571Y-102343800D01*
D10*
X159281905Y-102484819D02*
X159281905Y-101484819D01*
X159281905Y-101484819D02*
X159520000Y-101484819D01*
X159520000Y-101484819D02*
X159662857Y-101532438D01*
X159662857Y-101532438D02*
X159758095Y-101627676D01*
X159758095Y-101627676D02*
X159805714Y-101722914D01*
X159805714Y-101722914D02*
X159853333Y-101913390D01*
X159853333Y-101913390D02*
X159853333Y-102056247D01*
X159853333Y-102056247D02*
X159805714Y-102246723D01*
X159805714Y-102246723D02*
X159758095Y-102341961D01*
X159758095Y-102341961D02*
X159662857Y-102437200D01*
X159662857Y-102437200D02*
X159520000Y-102484819D01*
X159520000Y-102484819D02*
X159281905Y-102484819D01*
X160710476Y-101818152D02*
X160710476Y-102484819D01*
X160472381Y-101437200D02*
X160234286Y-102151485D01*
X160234286Y-102151485D02*
X160853333Y-102151485D01*
D13*
X161891428Y-105312371D02*
X161548571Y-105312371D01*
X161720000Y-105312371D02*
X161720000Y-104712371D01*
X161720000Y-104712371D02*
X161662857Y-104798085D01*
X161662857Y-104798085D02*
X161605714Y-104855228D01*
X161605714Y-104855228D02*
X161548571Y-104883800D01*
D10*
X185986210Y-77087182D02*
X185986210Y-76087182D01*
X185986210Y-76087182D02*
X186224305Y-76087182D01*
X186224305Y-76087182D02*
X186367162Y-76134801D01*
X186367162Y-76134801D02*
X186462400Y-76230039D01*
X186462400Y-76230039D02*
X186510019Y-76325277D01*
X186510019Y-76325277D02*
X186557638Y-76515753D01*
X186557638Y-76515753D02*
X186557638Y-76658610D01*
X186557638Y-76658610D02*
X186510019Y-76849086D01*
X186510019Y-76849086D02*
X186462400Y-76944324D01*
X186462400Y-76944324D02*
X186367162Y-77039563D01*
X186367162Y-77039563D02*
X186224305Y-77087182D01*
X186224305Y-77087182D02*
X185986210Y-77087182D01*
X187462400Y-76087182D02*
X186986210Y-76087182D01*
X186986210Y-76087182D02*
X186938591Y-76563372D01*
X186938591Y-76563372D02*
X186986210Y-76515753D01*
X186986210Y-76515753D02*
X187081448Y-76468134D01*
X187081448Y-76468134D02*
X187319543Y-76468134D01*
X187319543Y-76468134D02*
X187414781Y-76515753D01*
X187414781Y-76515753D02*
X187462400Y-76563372D01*
X187462400Y-76563372D02*
X187510019Y-76658610D01*
X187510019Y-76658610D02*
X187510019Y-76896705D01*
X187510019Y-76896705D02*
X187462400Y-76991943D01*
X187462400Y-76991943D02*
X187414781Y-77039563D01*
X187414781Y-77039563D02*
X187319543Y-77087182D01*
X187319543Y-77087182D02*
X187081448Y-77087182D01*
X187081448Y-77087182D02*
X186986210Y-77039563D01*
X186986210Y-77039563D02*
X186938591Y-76991943D01*
D13*
X188595733Y-79914734D02*
X188252876Y-79914734D01*
X188424305Y-79914734D02*
X188424305Y-79314734D01*
X188424305Y-79314734D02*
X188367162Y-79400448D01*
X188367162Y-79400448D02*
X188310019Y-79457591D01*
X188310019Y-79457591D02*
X188252876Y-79486163D01*
D10*
X70136370Y-75367058D02*
X69660179Y-75700391D01*
X70136370Y-75938486D02*
X69136370Y-75938486D01*
X69136370Y-75938486D02*
X69136370Y-75557534D01*
X69136370Y-75557534D02*
X69183989Y-75462296D01*
X69183989Y-75462296D02*
X69231608Y-75414677D01*
X69231608Y-75414677D02*
X69326846Y-75367058D01*
X69326846Y-75367058D02*
X69469703Y-75367058D01*
X69469703Y-75367058D02*
X69564941Y-75414677D01*
X69564941Y-75414677D02*
X69612560Y-75462296D01*
X69612560Y-75462296D02*
X69660179Y-75557534D01*
X69660179Y-75557534D02*
X69660179Y-75938486D01*
X70136370Y-74890867D02*
X70136370Y-74700391D01*
X70136370Y-74700391D02*
X70088751Y-74605153D01*
X70088751Y-74605153D02*
X70041131Y-74557534D01*
X70041131Y-74557534D02*
X69898274Y-74462296D01*
X69898274Y-74462296D02*
X69707798Y-74414677D01*
X69707798Y-74414677D02*
X69326846Y-74414677D01*
X69326846Y-74414677D02*
X69231608Y-74462296D01*
X69231608Y-74462296D02*
X69183989Y-74509915D01*
X69183989Y-74509915D02*
X69136370Y-74605153D01*
X69136370Y-74605153D02*
X69136370Y-74795629D01*
X69136370Y-74795629D02*
X69183989Y-74890867D01*
X69183989Y-74890867D02*
X69231608Y-74938486D01*
X69231608Y-74938486D02*
X69326846Y-74986105D01*
X69326846Y-74986105D02*
X69564941Y-74986105D01*
X69564941Y-74986105D02*
X69660179Y-74938486D01*
X69660179Y-74938486D02*
X69707798Y-74890867D01*
X69707798Y-74890867D02*
X69755417Y-74795629D01*
X69755417Y-74795629D02*
X69755417Y-74605153D01*
X69755417Y-74605153D02*
X69707798Y-74509915D01*
X69707798Y-74509915D02*
X69660179Y-74462296D01*
X69660179Y-74462296D02*
X69564941Y-74414677D01*
X66629895Y-75818321D02*
X66153704Y-76151654D01*
X66629895Y-76389749D02*
X65629895Y-76389749D01*
X65629895Y-76389749D02*
X65629895Y-76008797D01*
X65629895Y-76008797D02*
X65677514Y-75913559D01*
X65677514Y-75913559D02*
X65725133Y-75865940D01*
X65725133Y-75865940D02*
X65820371Y-75818321D01*
X65820371Y-75818321D02*
X65963228Y-75818321D01*
X65963228Y-75818321D02*
X66058466Y-75865940D01*
X66058466Y-75865940D02*
X66106085Y-75913559D01*
X66106085Y-75913559D02*
X66153704Y-76008797D01*
X66153704Y-76008797D02*
X66153704Y-76389749D01*
X66629895Y-74865940D02*
X66629895Y-75437368D01*
X66629895Y-75151654D02*
X65629895Y-75151654D01*
X65629895Y-75151654D02*
X65772752Y-75246892D01*
X65772752Y-75246892D02*
X65867990Y-75342130D01*
X65867990Y-75342130D02*
X65915609Y-75437368D01*
X65629895Y-74246892D02*
X65629895Y-74151654D01*
X65629895Y-74151654D02*
X65677514Y-74056416D01*
X65677514Y-74056416D02*
X65725133Y-74008797D01*
X65725133Y-74008797D02*
X65820371Y-73961178D01*
X65820371Y-73961178D02*
X66010847Y-73913559D01*
X66010847Y-73913559D02*
X66248942Y-73913559D01*
X66248942Y-73913559D02*
X66439418Y-73961178D01*
X66439418Y-73961178D02*
X66534656Y-74008797D01*
X66534656Y-74008797D02*
X66582276Y-74056416D01*
X66582276Y-74056416D02*
X66629895Y-74151654D01*
X66629895Y-74151654D02*
X66629895Y-74246892D01*
X66629895Y-74246892D02*
X66582276Y-74342130D01*
X66582276Y-74342130D02*
X66534656Y-74389749D01*
X66534656Y-74389749D02*
X66439418Y-74437368D01*
X66439418Y-74437368D02*
X66248942Y-74484987D01*
X66248942Y-74484987D02*
X66010847Y-74484987D01*
X66010847Y-74484987D02*
X65820371Y-74437368D01*
X65820371Y-74437368D02*
X65725133Y-74389749D01*
X65725133Y-74389749D02*
X65677514Y-74342130D01*
X65677514Y-74342130D02*
X65629895Y-74246892D01*
X126261905Y-72004819D02*
X126261905Y-71004819D01*
X126261905Y-71004819D02*
X126500000Y-71004819D01*
X126500000Y-71004819D02*
X126642857Y-71052438D01*
X126642857Y-71052438D02*
X126738095Y-71147676D01*
X126738095Y-71147676D02*
X126785714Y-71242914D01*
X126785714Y-71242914D02*
X126833333Y-71433390D01*
X126833333Y-71433390D02*
X126833333Y-71576247D01*
X126833333Y-71576247D02*
X126785714Y-71766723D01*
X126785714Y-71766723D02*
X126738095Y-71861961D01*
X126738095Y-71861961D02*
X126642857Y-71957200D01*
X126642857Y-71957200D02*
X126500000Y-72004819D01*
X126500000Y-72004819D02*
X126261905Y-72004819D01*
X127166667Y-71004819D02*
X127785714Y-71004819D01*
X127785714Y-71004819D02*
X127452381Y-71385771D01*
X127452381Y-71385771D02*
X127595238Y-71385771D01*
X127595238Y-71385771D02*
X127690476Y-71433390D01*
X127690476Y-71433390D02*
X127738095Y-71481009D01*
X127738095Y-71481009D02*
X127785714Y-71576247D01*
X127785714Y-71576247D02*
X127785714Y-71814342D01*
X127785714Y-71814342D02*
X127738095Y-71909580D01*
X127738095Y-71909580D02*
X127690476Y-71957200D01*
X127690476Y-71957200D02*
X127595238Y-72004819D01*
X127595238Y-72004819D02*
X127309524Y-72004819D01*
X127309524Y-72004819D02*
X127214286Y-71957200D01*
X127214286Y-71957200D02*
X127166667Y-71909580D01*
D13*
X128871428Y-74832371D02*
X128528571Y-74832371D01*
X128700000Y-74832371D02*
X128700000Y-74232371D01*
X128700000Y-74232371D02*
X128642857Y-74318085D01*
X128642857Y-74318085D02*
X128585714Y-74375228D01*
X128585714Y-74375228D02*
X128528571Y-74403800D01*
D14*
%TO.C,D2*%
X118040000Y-62100000D02*
X117340000Y-62100000D01*
%TO.C,D6*%
X117835000Y-87650000D02*
X120925000Y-87650000D01*
X117835170Y-87649999D02*
G75*
G02*
X119380462Y-82100001I1544830J2559999D01*
G01*
X119379538Y-82100000D02*
G75*
G02*
X120924830Y-87650000I462J-2990000D01*
G01*
X121880000Y-85090000D02*
G75*
G02*
X116880000Y-85090000I-2500000J0D01*
G01*
X116880000Y-85090000D02*
G75*
G02*
X121880000Y-85090000I2500000J0D01*
G01*
%TO.C,D1*%
X54540000Y-100200000D02*
X53840000Y-100200000D01*
%TO.C,J1*%
X203070000Y-57670000D02*
X218570000Y-57670000D01*
X203070000Y-66790000D02*
X203070000Y-57670000D01*
X204370000Y-58980000D02*
X208770000Y-58980000D01*
X204370000Y-65480000D02*
X204370000Y-58980000D01*
X208770000Y-58980000D02*
X208770000Y-57670000D01*
X208770000Y-58980000D02*
X208770000Y-58980000D01*
X212860000Y-56280000D02*
X213360000Y-57280000D01*
X212870000Y-57670000D02*
X212870000Y-58980000D01*
X212870000Y-58980000D02*
X217270000Y-58980000D01*
X213360000Y-57280000D02*
X213860000Y-56280000D01*
X213860000Y-56280000D02*
X212860000Y-56280000D01*
X217270000Y-58980000D02*
X217270000Y-65480000D01*
X217270000Y-65480000D02*
X204370000Y-65480000D01*
X218570000Y-57670000D02*
X218570000Y-66790000D01*
X218570000Y-66790000D02*
X203070000Y-66790000D01*
X98930000Y-57670000D02*
X114430000Y-57670000D01*
X98930000Y-66790000D02*
X98930000Y-57670000D01*
X100230000Y-58980000D02*
X104630000Y-58980000D01*
X100230000Y-65480000D02*
X100230000Y-58980000D01*
X104630000Y-58980000D02*
X104630000Y-57670000D01*
X104630000Y-58980000D02*
X104630000Y-58980000D01*
X108720000Y-56280000D02*
X109220000Y-57280000D01*
X108730000Y-57670000D02*
X108730000Y-58980000D01*
X108730000Y-58980000D02*
X113130000Y-58980000D01*
X109220000Y-57280000D02*
X109720000Y-56280000D01*
X109720000Y-56280000D02*
X108720000Y-56280000D01*
X113130000Y-58980000D02*
X113130000Y-65480000D01*
X113130000Y-65480000D02*
X100230000Y-65480000D01*
X114430000Y-57670000D02*
X114430000Y-66790000D01*
X114430000Y-66790000D02*
X98930000Y-66790000D01*
%TO.C,D4*%
X161220000Y-102740000D02*
X160520000Y-102740000D01*
%TO.C,D5*%
X187924305Y-77342363D02*
X187224305Y-77342363D01*
%TO.C,J1*%
X162430000Y-95770000D02*
X177930000Y-95770000D01*
X162430000Y-104890000D02*
X162430000Y-95770000D01*
X163730000Y-97080000D02*
X168130000Y-97080000D01*
X163730000Y-103580000D02*
X163730000Y-97080000D01*
X168130000Y-97080000D02*
X168130000Y-95770000D01*
X168130000Y-97080000D02*
X168130000Y-97080000D01*
X172220000Y-94380000D02*
X172720000Y-95380000D01*
X172230000Y-95770000D02*
X172230000Y-97080000D01*
X172230000Y-97080000D02*
X176630000Y-97080000D01*
X172720000Y-95380000D02*
X173220000Y-94380000D01*
X173220000Y-94380000D02*
X172220000Y-94380000D01*
X176630000Y-97080000D02*
X176630000Y-103580000D01*
X176630000Y-103580000D02*
X163730000Y-103580000D01*
X177930000Y-95770000D02*
X177930000Y-104890000D01*
X177930000Y-104890000D02*
X162430000Y-104890000D01*
%TO.C,R9*%
X68319266Y-76727064D02*
X68319266Y-73672936D01*
X71039266Y-76727064D02*
X71039266Y-73672936D01*
%TO.C,R10*%
X64809266Y-73672936D02*
X64809266Y-76727064D01*
X67529266Y-73672936D02*
X67529266Y-76727064D01*
%TO.C,D3*%
X128200000Y-72260000D02*
X127500000Y-72260000D01*
%TO.C,J1*%
X60830000Y-95770000D02*
X76330000Y-95770000D01*
X60830000Y-104890000D02*
X60830000Y-95770000D01*
X62130000Y-97080000D02*
X66530000Y-97080000D01*
X62130000Y-103580000D02*
X62130000Y-97080000D01*
X66530000Y-97080000D02*
X66530000Y-95770000D01*
X66530000Y-97080000D02*
X66530000Y-97080000D01*
X70620000Y-94380000D02*
X71120000Y-95380000D01*
X70630000Y-95770000D02*
X70630000Y-97080000D01*
X70630000Y-97080000D02*
X75030000Y-97080000D01*
X71120000Y-95380000D02*
X71620000Y-94380000D01*
X71620000Y-94380000D02*
X70620000Y-94380000D01*
X75030000Y-97080000D02*
X75030000Y-103580000D01*
X75030000Y-103580000D02*
X62130000Y-103580000D01*
X76330000Y-95770000D02*
X76330000Y-104890000D01*
X76330000Y-104890000D02*
X60830000Y-104890000D01*
%TD*%
%LPC*%
D15*
%TO.C,D2*%
X117690000Y-64400000D03*
D16*
X116840000Y-64340000D03*
D17*
X117690000Y-63500000D03*
D15*
X117690000Y-62600000D03*
X115990000Y-62600000D03*
D17*
X115990000Y-63500000D03*
D18*
X116840000Y-62900000D03*
D15*
X115990000Y-64400000D03*
%TD*%
D19*
%TO.C,D6*%
X119380000Y-86360000D03*
D20*
X119380000Y-83820000D03*
%TD*%
D15*
%TO.C,D1*%
X54190000Y-102500000D03*
D16*
X53340000Y-102440000D03*
D17*
X54190000Y-101600000D03*
D15*
X54190000Y-100700000D03*
X52490000Y-100700000D03*
D17*
X52490000Y-101600000D03*
D18*
X53340000Y-101000000D03*
D15*
X52490000Y-102500000D03*
%TD*%
D21*
%TO.C,fiducial2*%
X236220000Y-60960000D03*
%TD*%
D22*
%TO.C,J1*%
X213360000Y-60960000D03*
D23*
X213360000Y-63500000D03*
X210820000Y-60960000D03*
X210820000Y-63500000D03*
X208280000Y-60960000D03*
X208280000Y-63500000D03*
%TD*%
D22*
%TO.C,J1*%
X109220000Y-60960000D03*
D23*
X109220000Y-63500000D03*
X106680000Y-60960000D03*
X106680000Y-63500000D03*
X104140000Y-60960000D03*
X104140000Y-63500000D03*
%TD*%
D15*
%TO.C,D4*%
X160870000Y-105040000D03*
D16*
X160020000Y-104980000D03*
D17*
X160870000Y-104140000D03*
D15*
X160870000Y-103240000D03*
X159170000Y-103240000D03*
D17*
X159170000Y-104140000D03*
D18*
X160020000Y-103540000D03*
D15*
X159170000Y-105040000D03*
%TD*%
D21*
%TO.C,U2*%
X114960000Y-136020000D03*
X180760000Y-103520000D03*
X180760000Y-136020000D03*
D24*
X137160000Y-102600000D03*
D23*
X139700000Y-102600000D03*
X142240000Y-102600000D03*
X144780000Y-102600000D03*
X147320000Y-102600000D03*
X149860000Y-102600000D03*
X152400000Y-102600000D03*
X154940000Y-102600000D03*
%TD*%
D15*
%TO.C,D5*%
X187574305Y-79642363D03*
D16*
X186724305Y-79582363D03*
D17*
X187574305Y-78742363D03*
D15*
X187574305Y-77842363D03*
X185874305Y-77842363D03*
D17*
X185874305Y-78742363D03*
D18*
X186724305Y-78142363D03*
D15*
X185874305Y-79642363D03*
%TD*%
D21*
%TO.C,fiducial1*%
X55880000Y-88900000D03*
%TD*%
D22*
%TO.C,J1*%
X172720000Y-99060000D03*
D23*
X172720000Y-101600000D03*
X170180000Y-99060000D03*
X170180000Y-101600000D03*
X167640000Y-99060000D03*
X167640000Y-101600000D03*
%TD*%
D25*
%TO.C,R9*%
X69679266Y-77600000D03*
X69679266Y-72800000D03*
%TD*%
D26*
%TO.C,R10*%
X66169266Y-72800000D03*
X66169266Y-77600000D03*
%TD*%
D15*
%TO.C,D3*%
X127850000Y-74560000D03*
D16*
X127000000Y-74500000D03*
D17*
X127850000Y-73660000D03*
D15*
X127850000Y-72760000D03*
X126150000Y-72760000D03*
D17*
X126150000Y-73660000D03*
D18*
X127000000Y-73060000D03*
D15*
X126150000Y-74560000D03*
%TD*%
D22*
%TO.C,J1*%
X71120000Y-99060000D03*
D23*
X71120000Y-101600000D03*
X68580000Y-99060000D03*
X68580000Y-101600000D03*
X66040000Y-99060000D03*
X66040000Y-101600000D03*
%TD*%
D21*
%TO.C,U2*%
X56004294Y-62458587D03*
X53171733Y-94834914D03*
D27*
X78200000Y-63476945D03*
D23*
X80730336Y-63698321D03*
X83260669Y-63919696D03*
X85791004Y-64141072D03*
X88321338Y-64362447D03*
X90851673Y-64583823D03*
X93382007Y-64805199D03*
X95912342Y-65026574D03*
%TD*%
D28*
%TO.C,R2*%
X131980000Y-62200000D03*
X128580000Y-62200000D03*
%TD*%
D29*
%TO.C,U3*%
X107885000Y-88900000D03*
D30*
X107885000Y-86360000D03*
X107885000Y-83820000D03*
%TD*%
D21*
%TO.C,U1*%
X69679266Y-79714877D03*
X66169266Y-79714877D03*
X70470010Y-86659629D03*
%TD*%
%LPD*%
M02*
