%TF.GenerationSoftware,KiCad,Pcbnew,8.0.1*%
%TF.CreationDate,2024-03-19T12:36:32-05:00*%
%TF.ProjectId,badge,62616467-652e-46b6-9963-61645f706362,rev?*%
%TF.SameCoordinates,Original*%
%TF.FileFunction,Copper,L1,Top*%
%TF.FilePolarity,Positive*%
%FSLAX46Y46*%
G04 Gerber Fmt 4.6, Leading zero omitted, Abs format (unit mm)*
G04 Created by KiCad (PCBNEW 8.0.1) date 2024-03-19 12:36:32*
%MOMM*%
%LPD*%
G01*
G04 APERTURE LIST*
G04 Aperture macros list*
%AMRoundRect*
0 Rectangle with rounded corners*
0 $1 Rounding radius*
0 $2 $3 $4 $5 $6 $7 $8 $9 X,Y pos of 4 corners*
0 Add a 4 corners polygon primitive as box body*
4,1,4,$2,$3,$4,$5,$6,$7,$8,$9,$2,$3,0*
0 Add four circle primitives for the rounded corners*
1,1,$1+$1,$2,$3*
1,1,$1+$1,$4,$5*
1,1,$1+$1,$6,$7*
1,1,$1+$1,$8,$9*
0 Add four rect primitives between the rounded corners*
20,1,$1+$1,$2,$3,$4,$5,0*
20,1,$1+$1,$4,$5,$6,$7,0*
20,1,$1+$1,$6,$7,$8,$9,0*
20,1,$1+$1,$8,$9,$2,$3,0*%
%AMRotRect*
0 Rectangle, with rotation*
0 The origin of the aperture is its center*
0 $1 length*
0 $2 width*
0 $3 Rotation angle, in degrees counterclockwise*
0 Add horizontal line*
21,1,$1,$2,0,0,$3*%
G04 Aperture macros list end*
%TA.AperFunction,SMDPad,CuDef*%
%ADD10R,0.800000X0.500000*%
%TD*%
%TA.AperFunction,SMDPad,CuDef*%
%ADD11R,0.500000X0.980000*%
%TD*%
%TA.AperFunction,SMDPad,CuDef*%
%ADD12R,0.800000X0.300000*%
%TD*%
%TA.AperFunction,SMDPad,CuDef*%
%ADD13R,0.500000X1.460000*%
%TD*%
%TA.AperFunction,ComponentPad*%
%ADD14R,1.800000X1.800000*%
%TD*%
%TA.AperFunction,ComponentPad*%
%ADD15C,1.800000*%
%TD*%
%TA.AperFunction,ComponentPad*%
%ADD16C,3.000000*%
%TD*%
%TA.AperFunction,SMDPad,CuDef*%
%ADD17C,1.000000*%
%TD*%
%TA.AperFunction,ComponentPad*%
%ADD18RoundRect,0.250000X-0.600000X0.600000X-0.600000X-0.600000X0.600000X-0.600000X0.600000X0.600000X0*%
%TD*%
%TA.AperFunction,ComponentPad*%
%ADD19C,1.700000*%
%TD*%
%TA.AperFunction,ComponentPad*%
%ADD20O,3.100000X6.000000*%
%TD*%
%TA.AperFunction,ComponentPad*%
%ADD21R,1.700000X1.700000*%
%TD*%
%TA.AperFunction,SMDPad,CuDef*%
%ADD22RoundRect,0.357142X1.142858X-0.642858X1.142858X0.642858X-1.142858X0.642858X-1.142858X-0.642858X0*%
%TD*%
%TA.AperFunction,ComponentPad*%
%ADD23O,6.000000X3.100000*%
%TD*%
%TA.AperFunction,SMDPad,CuDef*%
%ADD24RoundRect,0.357142X-1.142858X0.642858X-1.142858X-0.642858X1.142858X-0.642858X1.142858X0.642858X0*%
%TD*%
%TA.AperFunction,ComponentPad*%
%ADD25RotRect,1.700000X1.700000X355.000000*%
%TD*%
%TA.AperFunction,ComponentPad*%
%ADD26C,1.500000*%
%TD*%
%TA.AperFunction,ComponentPad*%
%ADD27R,2.000000X1.905000*%
%TD*%
%TA.AperFunction,ComponentPad*%
%ADD28O,2.000000X1.905000*%
%TD*%
%TA.AperFunction,HeatsinkPad*%
%ADD29C,3.000000*%
%TD*%
%TA.AperFunction,ViaPad*%
%ADD30C,1.000000*%
%TD*%
%TA.AperFunction,ViaPad*%
%ADD31C,0.800000*%
%TD*%
%TA.AperFunction,Conductor*%
%ADD32C,1.000000*%
%TD*%
%TA.AperFunction,Conductor*%
%ADD33C,0.250000*%
%TD*%
%TA.AperFunction,Conductor*%
%ADD34C,0.500000*%
%TD*%
%TA.AperFunction,Conductor*%
%ADD35C,3.000000*%
%TD*%
%TA.AperFunction,Conductor*%
%ADD36C,0.800000*%
%TD*%
G04 APERTURE END LIST*
D10*
%TO.P,D2,1,VDD*%
%TO.N,+5V*%
X117690000Y-64400000D03*
D11*
X116840000Y-64340000D03*
D12*
%TO.P,D2,2,CKO*%
%TO.N,/D3ck*%
X117690000Y-63500000D03*
D10*
%TO.P,D2,3,SDO*%
%TO.N,/D3in*%
X117690000Y-62600000D03*
%TO.P,D2,4,SDI*%
%TO.N,/D2in*%
X115990000Y-62600000D03*
D12*
%TO.P,D2,5,CKI*%
%TO.N,/D2ck*%
X115990000Y-63500000D03*
D13*
%TO.P,D2,6,GND*%
%TO.N,GND*%
X116840000Y-62900000D03*
D10*
X115990000Y-64400000D03*
%TD*%
D14*
%TO.P,D6,1,K*%
%TO.N,Net-(D6-K)*%
X119380000Y-86360000D03*
D15*
%TO.P,D6,2,A*%
%TO.N,+5V*%
X119380000Y-83820000D03*
%TD*%
D10*
%TO.P,D1,1,VDD*%
%TO.N,+5V*%
X54190000Y-102500000D03*
D11*
X53340000Y-102440000D03*
D12*
%TO.P,D1,2,CKO*%
%TO.N,/D2ck*%
X54190000Y-101600000D03*
D10*
%TO.P,D1,3,SDO*%
%TO.N,/D2in*%
X54190000Y-100700000D03*
%TO.P,D1,4,SDI*%
%TO.N,/ls_MOSI*%
X52490000Y-100700000D03*
D12*
%TO.P,D1,5,CKI*%
%TO.N,/ls_SCLK*%
X52490000Y-101600000D03*
D13*
%TO.P,D1,6,GND*%
%TO.N,GND*%
X53340000Y-101000000D03*
D10*
X52490000Y-102500000D03*
%TD*%
D16*
%TO.P,lanyard1,*%
%TO.N,GND*%
X68580000Y-62230000D03*
%TD*%
D17*
%TO.P,fiducial2,*%
%TO.N,*%
X236220000Y-60960000D03*
%TD*%
D18*
%TO.P,J1,1,GPIO1*%
%TO.N,/GPIO1{slash}DC*%
X213360000Y-60960000D03*
D19*
%TO.P,J1,2,GPIO2*%
%TO.N,/GPIO2{slash}BUSY*%
X213360000Y-63500000D03*
%TO.P,J1,3,SDA*%
%TO.N,/SDA*%
X210820000Y-60960000D03*
%TO.P,J1,4,SCL*%
%TO.N,/SCL*%
X210820000Y-63500000D03*
%TO.P,J1,5,3V3*%
%TO.N,+3V3*%
X208280000Y-60960000D03*
%TO.P,J1,6,GND*%
%TO.N,GND*%
X208280000Y-63500000D03*
%TD*%
D20*
%TO.P,bb1,*%
%TO.N,GND*%
X187960000Y-63500000D03*
%TD*%
D18*
%TO.P,J1,1,GPIO1*%
%TO.N,/GPIO1{slash}DC*%
X109220000Y-60960000D03*
D19*
%TO.P,J1,2,GPIO2*%
%TO.N,/GPIO2{slash}BUSY*%
X109220000Y-63500000D03*
%TO.P,J1,3,SDA*%
%TO.N,/SDA*%
X106680000Y-60960000D03*
%TO.P,J1,4,SCL*%
%TO.N,/SCL*%
X106680000Y-63500000D03*
%TO.P,J1,5,3V3*%
%TO.N,+3V3*%
X104140000Y-60960000D03*
%TO.P,J1,6,GND*%
%TO.N,GND*%
X104140000Y-63500000D03*
%TD*%
D20*
%TO.P,bb2,*%
%TO.N,GND*%
X187960000Y-86360000D03*
%TD*%
D10*
%TO.P,D4,1,VDD*%
%TO.N,+5V*%
X160870000Y-105040000D03*
D11*
X160020000Y-104980000D03*
D12*
%TO.P,D4,2,CKO*%
%TO.N,/D5ck*%
X160870000Y-104140000D03*
D10*
%TO.P,D4,3,SDO*%
%TO.N,/D5in*%
X160870000Y-103240000D03*
%TO.P,D4,4,SDI*%
%TO.N,/D4in*%
X159170000Y-103240000D03*
D12*
%TO.P,D4,5,CKI*%
%TO.N,/D4ck*%
X159170000Y-104140000D03*
D13*
%TO.P,D4,6,GND*%
%TO.N,GND*%
X160020000Y-103540000D03*
D10*
X159170000Y-105040000D03*
%TD*%
D21*
%TO.P,U2,1,BUSY*%
%TO.N,/GPIO2{slash}BUSY*%
X137160000Y-102600000D03*
D19*
%TO.P,U2,2,~{RESET}*%
%TO.N,/LED{slash}RESET*%
X139700000Y-102600000D03*
%TO.P,U2,3,DATA/~{CMD}*%
%TO.N,/GPIO1{slash}DC*%
X142240000Y-102600000D03*
%TO.P,U2,4,~{CS}*%
%TO.N,/CS{slash}OE*%
X144780000Y-102600000D03*
%TO.P,U2,5,SCLK*%
%TO.N,/SCLK*%
X147320000Y-102600000D03*
%TO.P,U2,6,SDI/MOSI*%
%TO.N,/MOSI*%
X149860000Y-102600000D03*
%TO.P,U2,7,GND*%
%TO.N,GND*%
X152400000Y-102600000D03*
%TO.P,U2,8,VCC*%
%TO.N,/sw_+3V3*%
X154940000Y-102600000D03*
%TD*%
D10*
%TO.P,D5,1,VDD*%
%TO.N,+5V*%
X187574305Y-79642363D03*
D11*
X186724305Y-79582363D03*
D12*
%TO.P,D5,2,CKO*%
%TO.N,unconnected-(D5-CKO-Pad2)*%
X187574305Y-78742363D03*
D10*
%TO.P,D5,3,SDO*%
%TO.N,unconnected-(D5-SDO-Pad3)*%
X187574305Y-77842363D03*
%TO.P,D5,4,SDI*%
%TO.N,/D5in*%
X185874305Y-77842363D03*
D12*
%TO.P,D5,5,CKI*%
%TO.N,/D5ck*%
X185874305Y-78742363D03*
D13*
%TO.P,D5,6,GND*%
%TO.N,GND*%
X186724305Y-78142363D03*
D10*
X185874305Y-79642363D03*
%TD*%
D17*
%TO.P,fiducial1,*%
%TO.N,*%
X55880000Y-88900000D03*
%TD*%
D18*
%TO.P,J1,1,GPIO1*%
%TO.N,/GPIO1{slash}DC*%
X172720000Y-99060000D03*
D19*
%TO.P,J1,2,GPIO2*%
%TO.N,/GPIO2{slash}BUSY*%
X172720000Y-101600000D03*
%TO.P,J1,3,SDA*%
%TO.N,/SDA*%
X170180000Y-99060000D03*
%TO.P,J1,4,SCL*%
%TO.N,/SCL*%
X170180000Y-101600000D03*
%TO.P,J1,5,3V3*%
%TO.N,+3V3*%
X167640000Y-99060000D03*
%TO.P,J1,6,GND*%
%TO.N,GND*%
X167640000Y-101600000D03*
%TD*%
D20*
%TO.P,bb5,*%
%TO.N,GND*%
X134620000Y-86360000D03*
%TD*%
D22*
%TO.P,R9,1*%
%TO.N,/BAT+*%
X69679266Y-77600000D03*
%TO.P,R9,2*%
%TO.N,/Vmeasure*%
X69679266Y-72800000D03*
%TD*%
D20*
%TO.P,bb6,*%
%TO.N,GND*%
X134620000Y-63500000D03*
%TD*%
D23*
%TO.P,bb4,*%
%TO.N,GND*%
X142240000Y-95250000D03*
%TD*%
D16*
%TO.P,lanyard2,*%
%TO.N,GND*%
X228600000Y-62230000D03*
%TD*%
D24*
%TO.P,R10,1*%
%TO.N,/Vmeasure*%
X66169266Y-72800000D03*
%TO.P,R10,2*%
%TO.N,GND*%
X66169266Y-77600000D03*
%TD*%
D10*
%TO.P,D3,1,VDD*%
%TO.N,+5V*%
X127850000Y-74560000D03*
D11*
X127000000Y-74500000D03*
D12*
%TO.P,D3,2,CKO*%
%TO.N,/D4ck*%
X127850000Y-73660000D03*
D10*
%TO.P,D3,3,SDO*%
%TO.N,/D4in*%
X127850000Y-72760000D03*
%TO.P,D3,4,SDI*%
%TO.N,/D3in*%
X126150000Y-72760000D03*
D12*
%TO.P,D3,5,CKI*%
%TO.N,/D3ck*%
X126150000Y-73660000D03*
D13*
%TO.P,D3,6,GND*%
%TO.N,GND*%
X127000000Y-73060000D03*
D10*
X126150000Y-74560000D03*
%TD*%
D18*
%TO.P,J1,1,GPIO1*%
%TO.N,/GPIO1{slash}DC*%
X71120000Y-99060000D03*
D19*
%TO.P,J1,2,GPIO2*%
%TO.N,/GPIO2{slash}BUSY*%
X71120000Y-101600000D03*
%TO.P,J1,3,SDA*%
%TO.N,/SDA*%
X68580000Y-99060000D03*
%TO.P,J1,4,SCL*%
%TO.N,/SCL*%
X68580000Y-101600000D03*
%TO.P,J1,5,3V3*%
%TO.N,+3V3*%
X66040000Y-99060000D03*
%TO.P,J1,6,GND*%
%TO.N,GND*%
X66040000Y-101600000D03*
%TD*%
D23*
%TO.P,bb3,*%
%TO.N,GND*%
X180340000Y-95250000D03*
%TD*%
D25*
%TO.P,U2,1,BUSY*%
%TO.N,/GPIO2{slash}BUSY*%
X78200000Y-63476945D03*
D19*
%TO.P,U2,2,~{RESET}*%
%TO.N,/LED{slash}RESET*%
X80730336Y-63698321D03*
%TO.P,U2,3,DATA/~{CMD}*%
%TO.N,/GPIO1{slash}DC*%
X83260669Y-63919696D03*
%TO.P,U2,4,~{CS}*%
%TO.N,/CS{slash}OE*%
X85791004Y-64141072D03*
%TO.P,U2,5,SCLK*%
%TO.N,/SCLK*%
X88321338Y-64362447D03*
%TO.P,U2,6,SDI/MOSI*%
%TO.N,/MOSI*%
X90851673Y-64583823D03*
%TO.P,U2,7,GND*%
%TO.N,GND*%
X93382007Y-64805199D03*
%TO.P,U2,8,VCC*%
%TO.N,/sw_+3V3*%
X95912342Y-65026574D03*
%TD*%
D26*
%TO.P,R2,1*%
%TO.N,/Vdark*%
X131980000Y-62200000D03*
%TO.P,R2,2*%
%TO.N,GND*%
X128580000Y-62200000D03*
%TD*%
D27*
%TO.P,U3,1,OUT*%
%TO.N,+5V*%
X107885000Y-88900000D03*
D28*
%TO.P,U3,2,GND*%
%TO.N,GND*%
X107885000Y-86360000D03*
%TO.P,U3,3,IN*%
%TO.N,/sw_VBAT+*%
X107885000Y-83820000D03*
%TD*%
D16*
%TO.P,U1,15,BAT+*%
%TO.N,/BAT+*%
X69679266Y-79714877D03*
%TO.P,U1,16,BAT-*%
%TO.N,GND*%
X66169266Y-79714877D03*
D29*
%TO.P,U1,GND*%
X70470010Y-86659629D03*
%TD*%
D30*
%TO.N,+3V3*%
X193040000Y-83820000D03*
X97500000Y-86600000D03*
X66040000Y-86300000D03*
D31*
%TO.N,GND*%
X210820000Y-76200000D03*
X61400000Y-81280000D03*
X121553906Y-68193435D03*
X77100000Y-70300000D03*
X78740000Y-60960000D03*
X205740000Y-81280000D03*
X177800000Y-91440000D03*
X126069647Y-74640353D03*
X215900000Y-71120000D03*
X81280000Y-104140000D03*
X159070000Y-105140000D03*
D30*
X95782007Y-70300000D03*
D31*
X116840000Y-67375000D03*
X121920000Y-96520000D03*
X119400000Y-78740000D03*
X84000000Y-79200000D03*
X170180000Y-87000000D03*
X121600000Y-65600000D03*
X129300000Y-69400000D03*
X195580000Y-78740000D03*
X170180000Y-60960000D03*
X170180000Y-71120000D03*
X185420000Y-96520000D03*
X52390000Y-102600000D03*
X109220000Y-104140000D03*
X152400000Y-71120000D03*
X50800000Y-104140000D03*
X81280000Y-96520000D03*
X185420000Y-101600000D03*
X195580000Y-91440000D03*
X116400000Y-78740000D03*
X170180000Y-76200000D03*
X132080000Y-91440000D03*
X121360000Y-60510000D03*
X200660000Y-86360000D03*
X127000000Y-78740000D03*
X53340000Y-91440000D03*
X72800000Y-97600000D03*
X185774305Y-79742363D03*
X84400000Y-65200000D03*
X165100000Y-104140000D03*
X177800000Y-104140000D03*
X71120000Y-60960000D03*
X63500000Y-68580000D03*
X123950000Y-88940000D03*
X137160000Y-60960000D03*
X226060000Y-60960000D03*
X111760000Y-63500000D03*
X185420000Y-76200000D03*
X66040000Y-63500000D03*
X185420000Y-91440000D03*
X81900000Y-64900000D03*
X109220000Y-96520000D03*
X96520000Y-60960000D03*
X185420000Y-71120000D03*
X152646092Y-91686092D03*
X83820000Y-60960000D03*
X110822500Y-90490000D03*
X87000000Y-65400000D03*
X190500000Y-96520000D03*
X66040000Y-104140000D03*
X55900000Y-99700000D03*
X152400000Y-60960000D03*
X152400000Y-76200000D03*
X137160000Y-71120000D03*
X50800000Y-99060000D03*
X111800000Y-60510000D03*
X185420000Y-60960000D03*
X220980000Y-66040000D03*
X89500000Y-65600000D03*
X109220000Y-78740000D03*
X115890000Y-64500000D03*
%TO.N,/SCL*%
X74600000Y-71800000D03*
X174700000Y-92400000D03*
X164900000Y-88200000D03*
X197840000Y-88000000D03*
%TO.N,/SDA*%
X72100000Y-70300000D03*
X169600000Y-94700000D03*
X197840000Y-83820000D03*
X160020000Y-86360000D03*
%TO.N,/CS{slash}OE*%
X76820490Y-100600000D03*
%TO.N,/MOSI*%
X69200000Y-96500000D03*
X92271124Y-97400000D03*
%TO.N,+5V*%
X54340000Y-102600000D03*
X187674305Y-79742363D03*
D30*
X87700000Y-81800000D03*
D31*
X127950000Y-74660000D03*
X164400000Y-101571590D03*
X160970000Y-105140000D03*
X117790000Y-64500000D03*
X155944173Y-101553986D03*
%TO.N,/SCLK*%
X92996124Y-85203830D03*
X74300000Y-98600000D03*
X90300000Y-88700000D03*
%TO.N,/Vdark*%
X109700000Y-68100000D03*
X69900000Y-75500000D03*
%TO.N,/LED{slash}RESET*%
X76800000Y-83700000D03*
X96520000Y-88900000D03*
D30*
%TO.N,/BAT+*%
X104400000Y-71400000D03*
D31*
%TO.N,/GPIO2{slash}BUSY*%
X174700000Y-93800000D03*
%TO.N,/GPIO1{slash}DC*%
X172720000Y-96460500D03*
%TO.N,/Vbutton1*%
X105800000Y-66040000D03*
X83800000Y-71300000D03*
%TO.N,/Vmeasure*%
X66660490Y-73500000D03*
%TO.N,/sw_+3V3*%
X132080000Y-103050000D03*
X98070000Y-68580000D03*
%TO.N,/ls_MOSI*%
X84800000Y-90100000D03*
%TO.N,/ls_SCLK*%
X82600000Y-88500000D03*
%TO.N,/D2ck*%
X58400000Y-101600000D03*
%TO.N,/D2in*%
X58100000Y-99000000D03*
%TO.N,/D3ck*%
X123450000Y-68850000D03*
%TO.N,/D3in*%
X123900000Y-66100000D03*
%TO.N,/D4ck*%
X134200000Y-79100000D03*
%TO.N,/D4in*%
X134250000Y-76550000D03*
%TO.N,/D5ck*%
X182900000Y-80800000D03*
%TO.N,/D5in*%
X182857637Y-77842363D03*
%TD*%
D32*
%TO.N,+3V3*%
X69040000Y-83300000D02*
X66040000Y-86300000D01*
X83600000Y-84100000D02*
X80900000Y-81400000D01*
X80900000Y-81400000D02*
X75900000Y-81400000D01*
X93900000Y-83000000D02*
X91300000Y-83000000D01*
X90200000Y-84100000D02*
X83600000Y-84100000D01*
X74000000Y-83300000D02*
X69040000Y-83300000D01*
X91300000Y-83000000D02*
X90200000Y-84100000D01*
X75900000Y-81400000D02*
X74000000Y-83300000D01*
X193040000Y-76200000D02*
X193040000Y-83820000D01*
X97500000Y-86600000D02*
X93900000Y-83000000D01*
X208280000Y-60960000D02*
X193040000Y-76200000D01*
D33*
%TO.N,GND*%
X186724305Y-78152363D02*
X186724305Y-77504305D01*
X127000000Y-73070000D02*
X127000000Y-71120000D01*
X113200000Y-61900000D02*
X113000000Y-62100000D01*
X53561396Y-99975000D02*
X53340000Y-100196396D01*
X116800000Y-61900000D02*
X113200000Y-61900000D01*
X122205000Y-61900000D02*
X116800000Y-61900000D01*
X116840000Y-67375000D02*
X115900000Y-66435000D01*
X70200305Y-76225000D02*
X69599695Y-76225000D01*
X116840000Y-61940000D02*
X116800000Y-61900000D01*
X69574695Y-76200000D02*
X64400000Y-76200000D01*
X53340000Y-100196396D02*
X53340000Y-101000000D01*
X184600000Y-81500000D02*
X184200000Y-81500000D01*
D32*
X93382007Y-65442007D02*
X93382007Y-65005199D01*
D33*
X55900000Y-99700000D02*
X55625000Y-99975000D01*
X72900000Y-76300000D02*
X72800000Y-76200000D01*
D32*
X71682497Y-85417503D02*
X69417502Y-87682498D01*
X69417502Y-85417503D02*
X71682497Y-87682498D01*
D33*
X70225305Y-76200000D02*
X70200305Y-76225000D01*
D32*
X208280000Y-63500000D02*
X207200000Y-64580000D01*
D33*
X123810000Y-60510000D02*
X123900000Y-60600000D01*
X185774305Y-80325695D02*
X184600000Y-81500000D01*
X111800000Y-60510000D02*
X111890000Y-60600000D01*
D34*
X168670000Y-100400000D02*
X166730000Y-100400000D01*
D33*
X111800000Y-60510000D02*
X123810000Y-60510000D01*
X115900000Y-66435000D02*
X115900000Y-64510000D01*
X115900000Y-64510000D02*
X115890000Y-64500000D01*
X69599695Y-76225000D02*
X69574695Y-76200000D01*
X185774305Y-79742363D02*
X185774305Y-80325695D01*
X55625000Y-99975000D02*
X53561396Y-99975000D01*
X122210000Y-61910000D02*
X122300000Y-62000000D01*
X116840000Y-62900000D02*
X116840000Y-61940000D01*
X160020000Y-103550000D02*
X160020000Y-91680000D01*
D32*
X106200000Y-86400000D02*
X109655000Y-86400000D01*
D34*
X168850000Y-100530000D02*
X168850000Y-102470000D01*
D33*
X72800000Y-76200000D02*
X70225305Y-76200000D01*
D35*
X66169266Y-78100000D02*
X66169266Y-79714877D01*
D33*
X186724305Y-77504305D02*
X185420000Y-76200000D01*
%TO.N,/SCL*%
X197840000Y-88000000D02*
X193440000Y-92400000D01*
X164900000Y-88200000D02*
X158300000Y-88200000D01*
X74600000Y-71800000D02*
X74600000Y-64923793D01*
X74600000Y-64923793D02*
X77292696Y-62231097D01*
X210820000Y-75020000D02*
X197840000Y-88000000D01*
X210820000Y-63500000D02*
X210820000Y-75020000D01*
X77292696Y-62231097D02*
X105411097Y-62231097D01*
X111865000Y-62135000D02*
X108045000Y-62135000D01*
X108045000Y-62135000D02*
X106680000Y-63500000D01*
X135600000Y-74200000D02*
X122700000Y-61300000D01*
X144300000Y-74200000D02*
X135600000Y-74200000D01*
X171545000Y-100235000D02*
X170180000Y-101600000D01*
X193440000Y-92400000D02*
X174700000Y-92400000D01*
X171545000Y-95555000D02*
X171545000Y-100235000D01*
X158300000Y-88200000D02*
X144300000Y-74200000D01*
X174700000Y-92400000D02*
X171545000Y-95555000D01*
X122700000Y-61300000D02*
X112700000Y-61300000D01*
X112700000Y-61300000D02*
X111865000Y-62135000D01*
X105411097Y-62231097D02*
X106680000Y-63500000D01*
%TO.N,/SDA*%
X209455000Y-62325000D02*
X210820000Y-60960000D01*
X145560000Y-71900000D02*
X136300000Y-71900000D01*
X105505000Y-59785000D02*
X106680000Y-60960000D01*
X191060000Y-90600000D02*
X197840000Y-83820000D01*
X197840000Y-83810000D02*
X208300000Y-73350000D01*
X124185000Y-59785000D02*
X107855000Y-59785000D01*
X197840000Y-83820000D02*
X197840000Y-83810000D01*
X208300000Y-65141701D02*
X209455000Y-63986701D01*
X74415000Y-59785000D02*
X105505000Y-59785000D01*
X107855000Y-59785000D02*
X106680000Y-60960000D01*
X72100000Y-62100000D02*
X74415000Y-59785000D01*
X173700000Y-90600000D02*
X191060000Y-90600000D01*
X209455000Y-63986701D02*
X209455000Y-62325000D01*
X136300000Y-71900000D02*
X124185000Y-59785000D01*
X169600000Y-98480000D02*
X170180000Y-99060000D01*
X208300000Y-73350000D02*
X208300000Y-65141701D01*
X169600000Y-94700000D02*
X169600000Y-98480000D01*
X160020000Y-86360000D02*
X145560000Y-71900000D01*
X72100000Y-70300000D02*
X72100000Y-62100000D01*
X169600000Y-94700000D02*
X173700000Y-90600000D01*
%TO.N,/CS{slash}OE*%
X77195490Y-100975000D02*
X143155000Y-100975000D01*
X76820490Y-100600000D02*
X77195490Y-100975000D01*
X143155000Y-100975000D02*
X144780000Y-102600000D01*
X76820490Y-100400000D02*
X76820490Y-100600000D01*
%TO.N,/MOSI*%
X92271124Y-97300000D02*
X92571124Y-97600000D01*
X80200000Y-96500000D02*
X81300000Y-97600000D01*
X69200000Y-96500000D02*
X80200000Y-96500000D01*
X92571124Y-97600000D02*
X144860000Y-97600000D01*
X91971124Y-97600000D02*
X92271124Y-97300000D01*
X81300000Y-97600000D02*
X91971124Y-97600000D01*
X144860000Y-97600000D02*
X149860000Y-102600000D01*
D34*
%TO.N,+5V*%
X67500000Y-95400000D02*
X59000000Y-103900000D01*
X127950000Y-74660000D02*
X127780000Y-74490000D01*
X135000000Y-95400000D02*
X67500000Y-95400000D01*
X187674305Y-79742363D02*
X187504305Y-79572363D01*
D32*
X121100000Y-85200000D02*
X119720000Y-83820000D01*
D34*
X146190187Y-91800000D02*
X138600000Y-91800000D01*
X53340000Y-102430000D02*
X54170000Y-102430000D01*
X127000000Y-74490000D02*
X127000000Y-76200000D01*
D32*
X121100000Y-95400000D02*
X121100000Y-85200000D01*
D34*
X117620000Y-64330000D02*
X117790000Y-64500000D01*
D32*
X119720000Y-83820000D02*
X119380000Y-83820000D01*
D34*
X59000000Y-103900000D02*
X55640000Y-103900000D01*
X162560000Y-105140000D02*
X160970000Y-105140000D01*
X178500000Y-83000000D02*
X164400000Y-97100000D01*
X186724305Y-80775695D02*
X184500000Y-83000000D01*
D32*
X104500000Y-88900000D02*
X107885000Y-88900000D01*
D34*
X184500000Y-83000000D02*
X178500000Y-83000000D01*
X55640000Y-103900000D02*
X54340000Y-102600000D01*
X164400000Y-103300000D02*
X162560000Y-105140000D01*
D32*
X87700000Y-81800000D02*
X89200000Y-80300000D01*
D34*
X164400000Y-97100000D02*
X164400000Y-103300000D01*
X117790000Y-82230000D02*
X117790000Y-64500000D01*
X186724305Y-79572363D02*
X186724305Y-80775695D01*
X116840000Y-64330000D02*
X117620000Y-64330000D01*
X127780000Y-74490000D02*
X127000000Y-74490000D01*
X119380000Y-83820000D02*
X117790000Y-82230000D01*
D32*
X95900000Y-80300000D02*
X104500000Y-88900000D01*
D34*
X187504305Y-79572363D02*
X186724305Y-79572363D01*
X155944173Y-101553986D02*
X146190187Y-91800000D01*
X54170000Y-102430000D02*
X54340000Y-102600000D01*
X127000000Y-76200000D02*
X119380000Y-83820000D01*
X160020000Y-104970000D02*
X160800000Y-104970000D01*
D32*
X89200000Y-80300000D02*
X95900000Y-80300000D01*
D34*
X138600000Y-91800000D02*
X135000000Y-95400000D01*
X160800000Y-104970000D02*
X160970000Y-105140000D01*
D33*
%TO.N,/SCLK*%
X144095000Y-99375000D02*
X147320000Y-102600000D01*
X92996124Y-85203876D02*
X92996124Y-85203830D01*
X90300000Y-87900000D02*
X92996124Y-85203876D01*
X79700000Y-98400000D02*
X80675000Y-99375000D01*
X74500000Y-98400000D02*
X79700000Y-98400000D01*
X90300000Y-89000000D02*
X90300000Y-87900000D01*
X80675000Y-99375000D02*
X144095000Y-99375000D01*
X74300000Y-98600000D02*
X74500000Y-98400000D01*
%TO.N,/Vdark*%
X103800000Y-68100000D02*
X109700000Y-68100000D01*
X69900000Y-75500000D02*
X69924220Y-75475780D01*
X69924220Y-75475780D02*
X78424220Y-75475780D01*
X98600000Y-73300000D02*
X103800000Y-68100000D01*
X80600000Y-73300000D02*
X98600000Y-73300000D01*
X78424220Y-75475780D02*
X80600000Y-73300000D01*
%TO.N,/LED{slash}RESET*%
X94920000Y-90500000D02*
X96520000Y-88900000D01*
X76800000Y-83700000D02*
X79800000Y-86700000D01*
X84700000Y-86700000D02*
X88500000Y-90500000D01*
X79800000Y-86700000D02*
X84700000Y-86700000D01*
X88500000Y-90500000D02*
X94920000Y-90500000D01*
D32*
%TO.N,/BAT+*%
X80600000Y-77600000D02*
X69679266Y-77600000D01*
X99900000Y-75900000D02*
X82300000Y-75900000D01*
D35*
X69679266Y-78100000D02*
X69679266Y-79714877D01*
D32*
X104400000Y-71400000D02*
X99900000Y-75900000D01*
X82300000Y-75900000D02*
X80600000Y-77600000D01*
D33*
%TO.N,/GPIO2{slash}BUSY*%
X137160000Y-102600000D02*
X136435000Y-101875000D01*
X136435000Y-101875000D02*
X71395000Y-101875000D01*
X173895000Y-100425000D02*
X172720000Y-101600000D01*
X173895000Y-94605000D02*
X173895000Y-100425000D01*
X174700000Y-93800000D02*
X173895000Y-94605000D01*
X71395000Y-101875000D02*
X71120000Y-101600000D01*
%TO.N,/GPIO1{slash}DC*%
X73485000Y-101425000D02*
X71120000Y-99060000D01*
X141065000Y-101425000D02*
X73485000Y-101425000D01*
X142240000Y-102600000D02*
X141065000Y-101425000D01*
X172720000Y-99060000D02*
X172720000Y-96460500D01*
%TO.N,/Vbutton1*%
X103460000Y-66040000D02*
X105800000Y-66040000D01*
X83800000Y-71300000D02*
X98200000Y-71300000D01*
X98200000Y-71300000D02*
X103460000Y-66040000D01*
%TO.N,/Vmeasure*%
X66169266Y-72800000D02*
X69679266Y-72800000D01*
D36*
%TO.N,/sw_+3V3*%
X132080000Y-103050000D02*
X133555000Y-104525000D01*
X153015000Y-104525000D02*
X154940000Y-102600000D01*
X133555000Y-104525000D02*
X153015000Y-104525000D01*
X98070000Y-68580000D02*
X98070000Y-67590000D01*
X98070000Y-67590000D02*
X95912342Y-65432342D01*
D33*
%TO.N,/ls_MOSI*%
X84800000Y-90100000D02*
X84500000Y-90400000D01*
X52490000Y-100410000D02*
X52490000Y-100700000D01*
X54775000Y-99525000D02*
X53375000Y-99525000D01*
X84500000Y-90400000D02*
X63900000Y-90400000D01*
X63900000Y-90400000D02*
X54775000Y-99525000D01*
X53375000Y-99525000D02*
X52490000Y-100410000D01*
%TO.N,/ls_SCLK*%
X62659930Y-88803369D02*
X51765000Y-99698299D01*
X51765000Y-99698299D02*
X51765000Y-101125000D01*
X82600000Y-88500000D02*
X82296631Y-88803369D01*
X51765000Y-101125000D02*
X52240000Y-101600000D01*
X82296631Y-88803369D02*
X62659930Y-88803369D01*
%TO.N,/D2ck*%
X115700000Y-63500000D02*
X115990000Y-63500000D01*
X109800000Y-93700000D02*
X115165000Y-88335000D01*
X115165000Y-64035000D02*
X115700000Y-63500000D01*
X58420000Y-101600000D02*
X66320000Y-93700000D01*
X115165000Y-88335000D02*
X115165000Y-64035000D01*
X54190000Y-101600000D02*
X58420000Y-101600000D01*
X66320000Y-93700000D02*
X109800000Y-93700000D01*
%TO.N,/D2in*%
X54465000Y-100425000D02*
X56675000Y-100425000D01*
X114200000Y-62600000D02*
X115990000Y-62600000D01*
X112900000Y-87200000D02*
X112900000Y-63900000D01*
X54190000Y-100700000D02*
X54465000Y-100425000D01*
X58100000Y-99000000D02*
X64995000Y-92105000D01*
X112900000Y-63900000D02*
X114200000Y-62600000D01*
X107995000Y-92105000D02*
X112900000Y-87200000D01*
X56675000Y-100425000D02*
X58100000Y-99000000D01*
X64995000Y-92105000D02*
X107995000Y-92105000D01*
%TO.N,/D3ck*%
X124660000Y-73660000D02*
X126050000Y-73660000D01*
X123450000Y-68850000D02*
X118100000Y-63500000D01*
X118100000Y-63500000D02*
X117790000Y-63500000D01*
X123450000Y-68850000D02*
X123450000Y-72450000D01*
X123450000Y-72450000D02*
X124660000Y-73660000D01*
%TO.N,/D3in*%
X120400000Y-62600000D02*
X126050000Y-68250000D01*
X117690000Y-62600000D02*
X120400000Y-62600000D01*
X126050000Y-68250000D02*
X126050000Y-72660000D01*
%TO.N,/D4ck*%
X128260000Y-73660000D02*
X133700000Y-79100000D01*
X157600000Y-97700000D02*
X157600000Y-103600000D01*
X139000000Y-79100000D02*
X157600000Y-97700000D01*
X157600000Y-103600000D02*
X158140000Y-104140000D01*
X158140000Y-104140000D02*
X159170000Y-104140000D01*
X127850000Y-73660000D02*
X128260000Y-73660000D01*
X133700000Y-79100000D02*
X139000000Y-79100000D01*
%TO.N,/D4in*%
X159300000Y-94800000D02*
X159300000Y-102910000D01*
X141050000Y-76550000D02*
X159300000Y-94800000D01*
X134250000Y-76550000D02*
X141050000Y-76550000D01*
X127850000Y-72760000D02*
X130460000Y-72760000D01*
X159300000Y-102910000D02*
X159070000Y-103140000D01*
X130460000Y-72760000D02*
X134250000Y-76550000D01*
%TO.N,/D5ck*%
X161760000Y-104140000D02*
X160870000Y-104140000D01*
X182600000Y-80800000D02*
X177800000Y-80800000D01*
X185874305Y-78742363D02*
X184957637Y-78742363D01*
X162500000Y-103400000D02*
X161760000Y-104140000D01*
X177800000Y-80800000D02*
X162500000Y-96100000D01*
X184957637Y-78742363D02*
X182900000Y-80800000D01*
X182900000Y-80800000D02*
X182600000Y-80800000D01*
X162500000Y-96100000D02*
X162500000Y-103400000D01*
%TO.N,/D5in*%
X182857637Y-77842363D02*
X185874305Y-77842363D01*
X160800000Y-95000000D02*
X160800000Y-102970000D01*
X182857637Y-77842363D02*
X177957637Y-77842363D01*
X177957637Y-77842363D02*
X160800000Y-95000000D01*
X160800000Y-102970000D02*
X160970000Y-103140000D01*
%TD*%
%TA.AperFunction,Conductor*%
%TO.N,GND*%
G36*
X151999901Y-102907007D02*
G01*
X152092993Y-103000099D01*
X152147839Y-103031764D01*
X151712473Y-103467130D01*
X151712946Y-103487591D01*
X151694522Y-103556155D01*
X151641954Y-103603875D01*
X151586980Y-103616500D01*
X151051452Y-103616500D01*
X150983331Y-103596498D01*
X150936838Y-103542842D01*
X150926734Y-103472568D01*
X150945969Y-103421585D01*
X151015597Y-103315010D01*
X151058860Y-103248791D01*
X151149296Y-103042616D01*
X151149297Y-103042613D01*
X151151389Y-103037844D01*
X151152953Y-103038530D01*
X151189606Y-102986772D01*
X151255448Y-102960212D01*
X151325197Y-102973466D01*
X151376708Y-103022324D01*
X151380545Y-103029447D01*
X151457339Y-103183672D01*
X151534519Y-103285874D01*
X151968234Y-102852159D01*
X151999901Y-102907007D01*
G37*
%TD.AperFunction*%
%TA.AperFunction,Conductor*%
G36*
X185194455Y-79505615D02*
G01*
X185209622Y-79515363D01*
X185839805Y-79515363D01*
X185907926Y-79535365D01*
X185954419Y-79589021D01*
X185965805Y-79641363D01*
X185965805Y-79683672D01*
X185945803Y-79751793D01*
X185892147Y-79798286D01*
X185821873Y-79808390D01*
X185757293Y-79778896D01*
X185750710Y-79772767D01*
X185747306Y-79769363D01*
X185220306Y-79769363D01*
X185220306Y-79917385D01*
X185235042Y-79991468D01*
X185235042Y-79991470D01*
X185291180Y-80075487D01*
X185375198Y-80131625D01*
X185375199Y-80131626D01*
X185449285Y-80146362D01*
X185747305Y-80146362D01*
X185750710Y-80142958D01*
X185813022Y-80108932D01*
X185883837Y-80113997D01*
X185940673Y-80156544D01*
X185965484Y-80223064D01*
X185965805Y-80232053D01*
X185965805Y-80409324D01*
X185945803Y-80477445D01*
X185928900Y-80498419D01*
X184222724Y-82204595D01*
X184160412Y-82238621D01*
X184133629Y-82241500D01*
X178425288Y-82241500D01*
X178352024Y-82256073D01*
X178352024Y-82256074D01*
X178315388Y-82263361D01*
X178278752Y-82270649D01*
X178278748Y-82270650D01*
X178228414Y-82291499D01*
X178228415Y-82291500D01*
X178161805Y-82319091D01*
X178140714Y-82327827D01*
X178077981Y-82369744D01*
X178016488Y-82410832D01*
X178016481Y-82410837D01*
X163810838Y-96616480D01*
X163810833Y-96616486D01*
X163727828Y-96740712D01*
X163727826Y-96740714D01*
X163727826Y-96740716D01*
X163690150Y-96831675D01*
X163690149Y-96831674D01*
X163670650Y-96878749D01*
X163670649Y-96878754D01*
X163641500Y-97025290D01*
X163641500Y-101034589D01*
X163624619Y-101097589D01*
X163565476Y-101200028D01*
X163565473Y-101200035D01*
X163506457Y-101381662D01*
X163486496Y-101571590D01*
X163506457Y-101761517D01*
X163532632Y-101842073D01*
X163565473Y-101943146D01*
X163624619Y-102045590D01*
X163641500Y-102108589D01*
X163641500Y-102933627D01*
X163621498Y-103001748D01*
X163604595Y-103022722D01*
X163348595Y-103278722D01*
X163286283Y-103312748D01*
X163215468Y-103307683D01*
X163158632Y-103265136D01*
X163133821Y-103198616D01*
X163133500Y-103189627D01*
X163133500Y-96414594D01*
X163153502Y-96346473D01*
X163170405Y-96325499D01*
X178025500Y-81470405D01*
X178087812Y-81436379D01*
X178114595Y-81433500D01*
X182191800Y-81433500D01*
X182259921Y-81453502D01*
X182285437Y-81475190D01*
X182288747Y-81478866D01*
X182443248Y-81591118D01*
X182617712Y-81668794D01*
X182804513Y-81708500D01*
X182995487Y-81708500D01*
X183182288Y-81668794D01*
X183356752Y-81591118D01*
X183511253Y-81478866D01*
X183514563Y-81475190D01*
X183639034Y-81336951D01*
X183639035Y-81336949D01*
X183639040Y-81336944D01*
X183734527Y-81171556D01*
X183793542Y-80989928D01*
X183810907Y-80824703D01*
X183837920Y-80759048D01*
X183847113Y-80748789D01*
X185061328Y-79534574D01*
X185123639Y-79500550D01*
X185194455Y-79505615D01*
G37*
%TD.AperFunction*%
%TA.AperFunction,Conductor*%
G36*
X116011813Y-64859351D02*
G01*
X116068649Y-64901897D01*
X116085837Y-64933374D01*
X116139110Y-65076202D01*
X116139112Y-65076207D01*
X116226738Y-65193261D01*
X116343792Y-65280887D01*
X116343794Y-65280888D01*
X116343796Y-65280889D01*
X116402875Y-65302924D01*
X116480795Y-65331988D01*
X116480803Y-65331990D01*
X116541350Y-65338499D01*
X116541355Y-65338499D01*
X116541362Y-65338500D01*
X116905500Y-65338500D01*
X116973621Y-65358502D01*
X117020114Y-65412158D01*
X117031500Y-65464500D01*
X117031500Y-82304707D01*
X117052611Y-82410837D01*
X117060649Y-82451247D01*
X117117826Y-82589284D01*
X117200834Y-82713515D01*
X117200838Y-82713519D01*
X117953256Y-83465937D01*
X117987282Y-83528249D01*
X117986373Y-83582157D01*
X117986807Y-83582230D01*
X117986323Y-83585126D01*
X117986310Y-83585947D01*
X117985950Y-83587368D01*
X117985949Y-83587371D01*
X117985949Y-83587374D01*
X117966673Y-83820000D01*
X117983055Y-84017704D01*
X117985950Y-84052633D01*
X118043249Y-84278903D01*
X118043252Y-84278910D01*
X118137015Y-84492668D01*
X118250838Y-84666888D01*
X118264686Y-84688083D01*
X118349842Y-84780587D01*
X118381263Y-84844251D01*
X118373276Y-84914797D01*
X118328417Y-84969826D01*
X118301175Y-84983979D01*
X118233795Y-85009111D01*
X118233792Y-85009112D01*
X118116738Y-85096738D01*
X118029112Y-85213792D01*
X118029110Y-85213797D01*
X117978011Y-85350795D01*
X117978009Y-85350803D01*
X117971500Y-85411350D01*
X117971500Y-87308649D01*
X117978009Y-87369196D01*
X117978011Y-87369204D01*
X118029110Y-87506202D01*
X118029112Y-87506207D01*
X118116738Y-87623261D01*
X118233792Y-87710887D01*
X118233794Y-87710888D01*
X118233796Y-87710889D01*
X118281616Y-87728725D01*
X118370795Y-87761988D01*
X118370803Y-87761990D01*
X118431350Y-87768499D01*
X118431355Y-87768499D01*
X118431362Y-87768500D01*
X119965500Y-87768500D01*
X120033621Y-87788502D01*
X120080114Y-87842158D01*
X120091500Y-87894500D01*
X120091500Y-94515500D01*
X120071498Y-94583621D01*
X120017842Y-94630114D01*
X119965500Y-94641500D01*
X67425288Y-94641500D01*
X67352024Y-94656073D01*
X67352024Y-94656074D01*
X67278753Y-94670649D01*
X67278751Y-94670649D01*
X67278750Y-94670650D01*
X67278749Y-94670650D01*
X67221576Y-94694331D01*
X67221576Y-94694332D01*
X67148251Y-94724705D01*
X67140716Y-94727826D01*
X67047989Y-94789784D01*
X67047988Y-94789785D01*
X67016483Y-94810835D01*
X67016479Y-94810838D01*
X58722724Y-103104595D01*
X58660412Y-103138621D01*
X58633629Y-103141500D01*
X56006371Y-103141500D01*
X55938250Y-103121498D01*
X55917276Y-103104595D01*
X55261276Y-102448595D01*
X55227250Y-102386283D01*
X55232315Y-102315468D01*
X55274862Y-102258632D01*
X55341382Y-102233821D01*
X55350371Y-102233500D01*
X57691800Y-102233500D01*
X57759921Y-102253502D01*
X57785437Y-102275190D01*
X57788747Y-102278866D01*
X57943248Y-102391118D01*
X58117712Y-102468794D01*
X58304513Y-102508500D01*
X58495487Y-102508500D01*
X58682288Y-102468794D01*
X58856752Y-102391118D01*
X59011253Y-102278866D01*
X59014563Y-102275190D01*
X59139034Y-102136951D01*
X59139035Y-102136949D01*
X59139040Y-102136944D01*
X59234527Y-101971556D01*
X59293542Y-101789928D01*
X59308558Y-101647052D01*
X59335571Y-101581397D01*
X59344764Y-101571138D01*
X66545499Y-94370405D01*
X66607811Y-94336379D01*
X66634594Y-94333500D01*
X109862393Y-94333500D01*
X109862394Y-94333500D01*
X109984785Y-94309155D01*
X110100075Y-94261400D01*
X110203833Y-94192071D01*
X115657072Y-88738833D01*
X115726401Y-88635075D01*
X115774155Y-88519785D01*
X115798500Y-88397394D01*
X115798500Y-88272606D01*
X115798500Y-65020690D01*
X115818502Y-64952569D01*
X115835404Y-64931596D01*
X115878686Y-64888313D01*
X115940997Y-64854287D01*
X116011813Y-64859351D01*
G37*
%TD.AperFunction*%
%TA.AperFunction,Conductor*%
G36*
X182217558Y-78495865D02*
G01*
X182243074Y-78517553D01*
X182246384Y-78521229D01*
X182400885Y-78633481D01*
X182575349Y-78711157D01*
X182762150Y-78750863D01*
X182953124Y-78750863D01*
X183139925Y-78711157D01*
X183314389Y-78633481D01*
X183468890Y-78521229D01*
X183472200Y-78517553D01*
X183532646Y-78480313D01*
X183565837Y-78475863D01*
X184024043Y-78475863D01*
X184092164Y-78495865D01*
X184138657Y-78549521D01*
X184148761Y-78619795D01*
X184119267Y-78684375D01*
X184113138Y-78690958D01*
X182949501Y-79854595D01*
X182887189Y-79888621D01*
X182860406Y-79891500D01*
X182804513Y-79891500D01*
X182617711Y-79931206D01*
X182443247Y-80008882D01*
X182288747Y-80121133D01*
X182285437Y-80124810D01*
X182224991Y-80162050D01*
X182191800Y-80166500D01*
X177737603Y-80166500D01*
X177615214Y-80190845D01*
X177615213Y-80190845D01*
X177591493Y-80200671D01*
X177499923Y-80238600D01*
X177396171Y-80307925D01*
X177396164Y-80307930D01*
X162096167Y-95607929D01*
X162007931Y-95696164D01*
X162007926Y-95696171D01*
X161938601Y-95799923D01*
X161890846Y-95915212D01*
X161866500Y-96037603D01*
X161866500Y-102559740D01*
X161846498Y-102627861D01*
X161792842Y-102674354D01*
X161722568Y-102684458D01*
X161657988Y-102654964D01*
X161639632Y-102635250D01*
X161639071Y-102634500D01*
X161633261Y-102626739D01*
X161633259Y-102626738D01*
X161633259Y-102626737D01*
X161543761Y-102559740D01*
X161516204Y-102539111D01*
X161516203Y-102539110D01*
X161516201Y-102539109D01*
X161515460Y-102538833D01*
X161514824Y-102538357D01*
X161508292Y-102534790D01*
X161508805Y-102533850D01*
X161458627Y-102496283D01*
X161433820Y-102429761D01*
X161433500Y-102420780D01*
X161433500Y-95314594D01*
X161453502Y-95246473D01*
X161470405Y-95225499D01*
X178183136Y-78512768D01*
X178245448Y-78478742D01*
X178272231Y-78475863D01*
X182149437Y-78475863D01*
X182217558Y-78495865D01*
G37*
%TD.AperFunction*%
%TA.AperFunction,Conductor*%
G36*
X130213527Y-73413502D02*
G01*
X130234501Y-73430405D01*
X133302877Y-76498781D01*
X133336903Y-76561093D01*
X133339092Y-76574705D01*
X133356457Y-76739927D01*
X133386526Y-76832470D01*
X133415473Y-76921556D01*
X133429242Y-76945405D01*
X133510958Y-77086941D01*
X133510965Y-77086951D01*
X133638744Y-77228864D01*
X133675689Y-77255706D01*
X133793248Y-77341118D01*
X133967712Y-77418794D01*
X134154513Y-77458500D01*
X134345487Y-77458500D01*
X134532288Y-77418794D01*
X134706752Y-77341118D01*
X134861253Y-77228866D01*
X134864563Y-77225190D01*
X134925009Y-77187950D01*
X134958200Y-77183500D01*
X140735406Y-77183500D01*
X140803527Y-77203502D01*
X140824501Y-77220405D01*
X158629595Y-95025499D01*
X158663621Y-95087811D01*
X158666500Y-95114594D01*
X158666500Y-102398401D01*
X158646498Y-102466522D01*
X158592842Y-102513015D01*
X158584534Y-102516456D01*
X158523795Y-102539111D01*
X158523792Y-102539113D01*
X158435009Y-102605575D01*
X158368488Y-102630386D01*
X158299114Y-102615294D01*
X158248912Y-102565092D01*
X158233500Y-102504707D01*
X158233500Y-97637607D01*
X158233499Y-97637603D01*
X158224340Y-97591557D01*
X158209155Y-97515215D01*
X158161400Y-97399925D01*
X158092071Y-97296167D01*
X158003833Y-97207929D01*
X139403833Y-78607929D01*
X139300075Y-78538600D01*
X139184785Y-78490845D01*
X139109465Y-78475863D01*
X139062396Y-78466500D01*
X139062394Y-78466500D01*
X134908200Y-78466500D01*
X134840079Y-78446498D01*
X134814563Y-78424810D01*
X134811252Y-78421133D01*
X134656752Y-78308882D01*
X134482288Y-78231206D01*
X134295487Y-78191500D01*
X134104513Y-78191500D01*
X133917711Y-78231206D01*
X133864935Y-78254702D01*
X133794567Y-78264135D01*
X133730271Y-78234026D01*
X133724594Y-78228689D01*
X131418628Y-75922723D01*
X129104498Y-73608594D01*
X129070473Y-73546283D01*
X129075538Y-73475468D01*
X129118085Y-73418632D01*
X129184605Y-73393821D01*
X129193594Y-73393500D01*
X130145406Y-73393500D01*
X130213527Y-73413502D01*
G37*
%TD.AperFunction*%
%TA.AperFunction,Conductor*%
G36*
X145891937Y-92578502D02*
G01*
X145912911Y-92595405D01*
X154455711Y-101138205D01*
X154489737Y-101200517D01*
X154484672Y-101271332D01*
X154442125Y-101328168D01*
X154407530Y-101346472D01*
X154392433Y-101351655D01*
X154392426Y-101351658D01*
X154194426Y-101458810D01*
X154194424Y-101458811D01*
X154016762Y-101597091D01*
X153864279Y-101762729D01*
X153864275Y-101762734D01*
X153741141Y-101951206D01*
X153648611Y-102162156D01*
X153647056Y-102161474D01*
X153610351Y-102213260D01*
X153544498Y-102239792D01*
X153474755Y-102226509D01*
X153423265Y-102177629D01*
X153419454Y-102170552D01*
X153342659Y-102016326D01*
X153265480Y-101914124D01*
X153265479Y-101914124D01*
X152831764Y-102347839D01*
X152800099Y-102292993D01*
X152707007Y-102199901D01*
X152652159Y-102168234D01*
X153087525Y-101732868D01*
X153068162Y-101715216D01*
X153068160Y-101715215D01*
X152894203Y-101607506D01*
X152894196Y-101607503D01*
X152703422Y-101533596D01*
X152703423Y-101533596D01*
X152502299Y-101496000D01*
X152297701Y-101496000D01*
X152096576Y-101533596D01*
X151905803Y-101607503D01*
X151905796Y-101607506D01*
X151731841Y-101715213D01*
X151731841Y-101715214D01*
X151712473Y-101732869D01*
X152147839Y-102168235D01*
X152092993Y-102199901D01*
X151999901Y-102292993D01*
X151968235Y-102347839D01*
X151534520Y-101914124D01*
X151534517Y-101914124D01*
X151457341Y-102016325D01*
X151457335Y-102016334D01*
X151380544Y-102170552D01*
X151332275Y-102222616D01*
X151263521Y-102240318D01*
X151196110Y-102218038D01*
X151151446Y-102162851D01*
X151149857Y-102158665D01*
X151149297Y-102157388D01*
X151149296Y-102157384D01*
X151058860Y-101951209D01*
X151034631Y-101914124D01*
X150935724Y-101762734D01*
X150935720Y-101762729D01*
X150783237Y-101597091D01*
X150695533Y-101528828D01*
X150605576Y-101458811D01*
X150407574Y-101351658D01*
X150407572Y-101351657D01*
X150407571Y-101351656D01*
X150194639Y-101278557D01*
X150194630Y-101278555D01*
X150150476Y-101271187D01*
X149972569Y-101241500D01*
X149747431Y-101241500D01*
X149620664Y-101262653D01*
X149525356Y-101278557D01*
X149522227Y-101279350D01*
X149520905Y-101279300D01*
X149520224Y-101279414D01*
X149520200Y-101279273D01*
X149451281Y-101276681D01*
X149402204Y-101246300D01*
X145263835Y-97107931D01*
X145263833Y-97107929D01*
X145160075Y-97038600D01*
X145044785Y-96990845D01*
X144971086Y-96976185D01*
X144922396Y-96966500D01*
X144922394Y-96966500D01*
X93142634Y-96966500D01*
X93074513Y-96946498D01*
X93033516Y-96903501D01*
X93015074Y-96871561D01*
X93010164Y-96863056D01*
X93010161Y-96863052D01*
X93010158Y-96863048D01*
X92882379Y-96721135D01*
X92727876Y-96608882D01*
X92553412Y-96531206D01*
X92366611Y-96491500D01*
X92175637Y-96491500D01*
X91988835Y-96531206D01*
X91814371Y-96608882D01*
X91659868Y-96721135D01*
X91532089Y-96863048D01*
X91532080Y-96863062D01*
X91508732Y-96903501D01*
X91457349Y-96952494D01*
X91399614Y-96966500D01*
X81614594Y-96966500D01*
X81546473Y-96946498D01*
X81525499Y-96929595D01*
X80969499Y-96373595D01*
X80935473Y-96311283D01*
X80940538Y-96240468D01*
X80983085Y-96183632D01*
X81049605Y-96158821D01*
X81058594Y-96158500D01*
X120381752Y-96158500D01*
X120449873Y-96178502D01*
X120451919Y-96179992D01*
X120451972Y-96179914D01*
X120470689Y-96192420D01*
X120622296Y-96293721D01*
X120805831Y-96369744D01*
X121000671Y-96408500D01*
X121000672Y-96408500D01*
X121199328Y-96408500D01*
X121199329Y-96408500D01*
X121394169Y-96369744D01*
X121577704Y-96293721D01*
X121736290Y-96187756D01*
X121748028Y-96179914D01*
X121749624Y-96182303D01*
X121803630Y-96159351D01*
X121818248Y-96158500D01*
X135074701Y-96158500D01*
X135074705Y-96158500D01*
X135074706Y-96158500D01*
X135147976Y-96143925D01*
X135221247Y-96129351D01*
X135359284Y-96072174D01*
X135483515Y-95989166D01*
X138877276Y-92595405D01*
X138939588Y-92561379D01*
X138966371Y-92558500D01*
X145823816Y-92558500D01*
X145891937Y-92578502D01*
G37*
%TD.AperFunction*%
%TA.AperFunction,Conductor*%
G36*
X67393225Y-99735669D02*
G01*
X67415480Y-99761353D01*
X67446533Y-99808882D01*
X67504275Y-99897265D01*
X67504279Y-99897270D01*
X67656762Y-100062908D01*
X67656955Y-100063058D01*
X67834424Y-100201189D01*
X67867680Y-100219186D01*
X67918071Y-100269200D01*
X67933423Y-100338516D01*
X67908862Y-100405129D01*
X67867680Y-100440813D01*
X67834426Y-100458810D01*
X67834424Y-100458811D01*
X67656762Y-100597091D01*
X67504279Y-100762729D01*
X67504275Y-100762734D01*
X67381141Y-100951206D01*
X67288611Y-101162156D01*
X67287056Y-101161474D01*
X67250351Y-101213260D01*
X67184498Y-101239792D01*
X67114755Y-101226509D01*
X67063265Y-101177629D01*
X67059454Y-101170552D01*
X66982659Y-101016326D01*
X66905480Y-100914124D01*
X66905479Y-100914124D01*
X66471764Y-101347839D01*
X66440099Y-101292993D01*
X66347007Y-101199901D01*
X66292159Y-101168234D01*
X66727525Y-100732868D01*
X66708162Y-100715216D01*
X66708160Y-100715215D01*
X66534203Y-100607506D01*
X66534199Y-100607504D01*
X66471579Y-100583245D01*
X66415285Y-100539985D01*
X66391315Y-100473157D01*
X66407280Y-100403979D01*
X66458111Y-100354414D01*
X66476180Y-100346583D01*
X66587574Y-100308342D01*
X66785576Y-100201189D01*
X66963240Y-100062906D01*
X67115722Y-99897268D01*
X67204518Y-99761354D01*
X67258520Y-99715268D01*
X67328868Y-99705692D01*
X67393225Y-99735669D01*
G37*
%TD.AperFunction*%
%TA.AperFunction,Conductor*%
G36*
X68251199Y-96178502D02*
G01*
X68297692Y-96232158D01*
X68307796Y-96302432D01*
X68306488Y-96309775D01*
X68286496Y-96500000D01*
X68306457Y-96689927D01*
X68322959Y-96740712D01*
X68365473Y-96871556D01*
X68393841Y-96920691D01*
X68460958Y-97036941D01*
X68460965Y-97036951D01*
X68588744Y-97178864D01*
X68588747Y-97178866D01*
X68743248Y-97291118D01*
X68917712Y-97368794D01*
X69104513Y-97408500D01*
X69295487Y-97408500D01*
X69482288Y-97368794D01*
X69656752Y-97291118D01*
X69811253Y-97178866D01*
X69814563Y-97175190D01*
X69875009Y-97137950D01*
X69908200Y-97133500D01*
X79885406Y-97133500D01*
X79953527Y-97153502D01*
X79974501Y-97170405D01*
X80807929Y-98003833D01*
X80896167Y-98092071D01*
X80999925Y-98161400D01*
X81115215Y-98209155D01*
X81237606Y-98233500D01*
X91882781Y-98233500D01*
X91934029Y-98244393D01*
X91988833Y-98268793D01*
X91988834Y-98268793D01*
X91988836Y-98268794D01*
X92175637Y-98308500D01*
X92366611Y-98308500D01*
X92553412Y-98268794D01*
X92587759Y-98253502D01*
X92608219Y-98244393D01*
X92659467Y-98233500D01*
X144545406Y-98233500D01*
X144613527Y-98253502D01*
X144634501Y-98270405D01*
X147390501Y-101026405D01*
X147424527Y-101088717D01*
X147419462Y-101159532D01*
X147376915Y-101216368D01*
X147310395Y-101241179D01*
X147301406Y-101241500D01*
X147207431Y-101241500D01*
X147096496Y-101260011D01*
X146985355Y-101278557D01*
X146982213Y-101279353D01*
X146980889Y-101279303D01*
X146980224Y-101279414D01*
X146980201Y-101279277D01*
X146911267Y-101276675D01*
X146862204Y-101246299D01*
X144498835Y-98882931D01*
X144498833Y-98882929D01*
X144395075Y-98813600D01*
X144279785Y-98765845D01*
X144206086Y-98751185D01*
X144157396Y-98741500D01*
X144157394Y-98741500D01*
X80989594Y-98741500D01*
X80921473Y-98721498D01*
X80900499Y-98704595D01*
X80103835Y-97907931D01*
X80103833Y-97907929D01*
X80000075Y-97838600D01*
X79884785Y-97790845D01*
X79811086Y-97776185D01*
X79762396Y-97766500D01*
X79762394Y-97766500D01*
X74688343Y-97766500D01*
X74637095Y-97755607D01*
X74582290Y-97731206D01*
X74395487Y-97691500D01*
X74204513Y-97691500D01*
X74017711Y-97731206D01*
X73843247Y-97808882D01*
X73688744Y-97921135D01*
X73560965Y-98063048D01*
X73560958Y-98063058D01*
X73465476Y-98228438D01*
X73465473Y-98228445D01*
X73406457Y-98410072D01*
X73386496Y-98600000D01*
X73406457Y-98789927D01*
X73421308Y-98835632D01*
X73465473Y-98971556D01*
X73465476Y-98971561D01*
X73560958Y-99136941D01*
X73560965Y-99136951D01*
X73688744Y-99278864D01*
X73688747Y-99278866D01*
X73843248Y-99391118D01*
X74017712Y-99468794D01*
X74204513Y-99508500D01*
X74395487Y-99508500D01*
X74582288Y-99468794D01*
X74756752Y-99391118D01*
X74911253Y-99278866D01*
X74912222Y-99277790D01*
X75039034Y-99136951D01*
X75039034Y-99136949D01*
X75039040Y-99136944D01*
X75051953Y-99114577D01*
X75062392Y-99096499D01*
X75113775Y-99047506D01*
X75171510Y-99033500D01*
X79385406Y-99033500D01*
X79453527Y-99053502D01*
X79474501Y-99070405D01*
X80182929Y-99778833D01*
X80271167Y-99867071D01*
X80374925Y-99936400D01*
X80490215Y-99984155D01*
X80612606Y-100008500D01*
X143780406Y-100008500D01*
X143848527Y-100028502D01*
X143869501Y-100045405D01*
X144850501Y-101026405D01*
X144884527Y-101088717D01*
X144879462Y-101159532D01*
X144836915Y-101216368D01*
X144770395Y-101241179D01*
X144761406Y-101241500D01*
X144667431Y-101241500D01*
X144540664Y-101262653D01*
X144445356Y-101278557D01*
X144442227Y-101279350D01*
X144440905Y-101279300D01*
X144440224Y-101279414D01*
X144440200Y-101279273D01*
X144371281Y-101276681D01*
X144322204Y-101246300D01*
X143558835Y-100482931D01*
X143558833Y-100482929D01*
X143455075Y-100413600D01*
X143339785Y-100365845D01*
X143266086Y-100351185D01*
X143217396Y-100341500D01*
X143217394Y-100341500D01*
X77783296Y-100341500D01*
X77715175Y-100321498D01*
X77668682Y-100267842D01*
X77663463Y-100254437D01*
X77655018Y-100228446D01*
X77655016Y-100228442D01*
X77559531Y-100063058D01*
X77559524Y-100063048D01*
X77431745Y-99921135D01*
X77277242Y-99808882D01*
X77102778Y-99731206D01*
X76915977Y-99691500D01*
X76725003Y-99691500D01*
X76538201Y-99731206D01*
X76363737Y-99808882D01*
X76209234Y-99921135D01*
X76081455Y-100063048D01*
X76081448Y-100063058D01*
X75991308Y-100219186D01*
X75985963Y-100228444D01*
X75977517Y-100254437D01*
X75926947Y-100410072D01*
X75906986Y-100600000D01*
X75912486Y-100652330D01*
X75899714Y-100722168D01*
X75851211Y-100774015D01*
X75787176Y-100791500D01*
X73799594Y-100791500D01*
X73731473Y-100771498D01*
X73710499Y-100754595D01*
X72515404Y-99559500D01*
X72481378Y-99497188D01*
X72478499Y-99470405D01*
X72478499Y-98409455D01*
X72467887Y-98305574D01*
X72456233Y-98270405D01*
X72412115Y-98137262D01*
X72319030Y-97986348D01*
X72319029Y-97986347D01*
X72319024Y-97986341D01*
X72193658Y-97860975D01*
X72193652Y-97860970D01*
X72157386Y-97838601D01*
X72042738Y-97767885D01*
X71919803Y-97727149D01*
X71874427Y-97712113D01*
X71874420Y-97712112D01*
X71770553Y-97701500D01*
X70469455Y-97701500D01*
X70365574Y-97712112D01*
X70197261Y-97767885D01*
X70046347Y-97860970D01*
X70046341Y-97860975D01*
X69920975Y-97986341D01*
X69920970Y-97986347D01*
X69878875Y-98054595D01*
X69831621Y-98131206D01*
X69827883Y-98137266D01*
X69824783Y-98143914D01*
X69822878Y-98143025D01*
X69788389Y-98192822D01*
X69722828Y-98220067D01*
X69652945Y-98207541D01*
X69616515Y-98180142D01*
X69503237Y-98057091D01*
X69414226Y-97987811D01*
X69325576Y-97918811D01*
X69127574Y-97811658D01*
X69127572Y-97811657D01*
X69127571Y-97811656D01*
X68914639Y-97738557D01*
X68914630Y-97738555D01*
X68846276Y-97727149D01*
X68692569Y-97701500D01*
X68467431Y-97701500D01*
X68319211Y-97726233D01*
X68245369Y-97738555D01*
X68245360Y-97738557D01*
X68032428Y-97811656D01*
X68032426Y-97811658D01*
X67834426Y-97918810D01*
X67834424Y-97918811D01*
X67656762Y-98057091D01*
X67504279Y-98222729D01*
X67415483Y-98358643D01*
X67361479Y-98404731D01*
X67291131Y-98414306D01*
X67226774Y-98384329D01*
X67204517Y-98358643D01*
X67115720Y-98222729D01*
X66963237Y-98057091D01*
X66874226Y-97987811D01*
X66785576Y-97918811D01*
X66587574Y-97811658D01*
X66587572Y-97811657D01*
X66587571Y-97811656D01*
X66460944Y-97768186D01*
X66403009Y-97727149D01*
X66376457Y-97661304D01*
X66389718Y-97591557D01*
X66412755Y-97559924D01*
X67777278Y-96195402D01*
X67839588Y-96161379D01*
X67866371Y-96158500D01*
X68183078Y-96158500D01*
X68251199Y-96178502D01*
G37*
%TD.AperFunction*%
%TA.AperFunction,Conductor*%
G36*
X128881280Y-75177202D02*
G01*
X128882568Y-75178472D01*
X133296161Y-79592067D01*
X133296167Y-79592072D01*
X133399925Y-79661401D01*
X133506039Y-79705354D01*
X133551457Y-79737451D01*
X133588747Y-79778866D01*
X133743248Y-79891118D01*
X133917712Y-79968794D01*
X134104513Y-80008500D01*
X134295487Y-80008500D01*
X134482288Y-79968794D01*
X134656752Y-79891118D01*
X134811253Y-79778866D01*
X134814563Y-79775190D01*
X134875009Y-79737950D01*
X134908200Y-79733500D01*
X138685406Y-79733500D01*
X138753527Y-79753502D01*
X138774501Y-79770405D01*
X156929595Y-97925499D01*
X156963621Y-97987811D01*
X156966500Y-98014594D01*
X156966500Y-101037471D01*
X156946498Y-101105592D01*
X156892842Y-101152085D01*
X156822568Y-101162189D01*
X156757988Y-101132695D01*
X156731381Y-101100471D01*
X156683214Y-101017044D01*
X156683207Y-101017034D01*
X156555428Y-100875121D01*
X156400925Y-100762868D01*
X156226461Y-100685192D01*
X156163400Y-100671787D01*
X156100927Y-100638058D01*
X156100504Y-100637636D01*
X146673706Y-91210838D01*
X146673702Y-91210834D01*
X146549471Y-91127826D01*
X146411434Y-91070649D01*
X146338163Y-91056074D01*
X146338162Y-91056073D01*
X146264898Y-91041500D01*
X146264893Y-91041500D01*
X138525294Y-91041500D01*
X138525288Y-91041500D01*
X138452024Y-91056073D01*
X138452024Y-91056074D01*
X138378753Y-91070649D01*
X138378751Y-91070649D01*
X138378750Y-91070650D01*
X138327043Y-91092068D01*
X138285797Y-91109153D01*
X138240714Y-91127827D01*
X138116486Y-91210833D01*
X138116480Y-91210838D01*
X134722724Y-94604595D01*
X134660412Y-94638621D01*
X134633629Y-94641500D01*
X122234500Y-94641500D01*
X122166379Y-94621498D01*
X122119886Y-94567842D01*
X122108500Y-94515500D01*
X122108500Y-85100672D01*
X122108499Y-85100668D01*
X122069744Y-84905831D01*
X122017002Y-84778500D01*
X121993722Y-84722297D01*
X121883354Y-84557119D01*
X121343933Y-84017698D01*
X120888552Y-83562317D01*
X120854526Y-83500005D01*
X120859591Y-83429190D01*
X120888550Y-83384129D01*
X127589165Y-76683516D01*
X127650648Y-76591500D01*
X127672174Y-76559284D01*
X127729351Y-76421246D01*
X127731887Y-76408500D01*
X127758500Y-76274705D01*
X127758500Y-76125295D01*
X127758500Y-75694500D01*
X127778502Y-75626379D01*
X127832158Y-75579886D01*
X127884500Y-75568500D01*
X128045487Y-75568500D01*
X128232288Y-75528794D01*
X128406752Y-75451118D01*
X128561253Y-75338866D01*
X128578173Y-75320075D01*
X128589650Y-75307327D01*
X128689040Y-75196944D01*
X128689047Y-75196931D01*
X128691531Y-75193514D01*
X128747750Y-75150156D01*
X128818486Y-75144075D01*
X128881280Y-75177202D01*
G37*
%TD.AperFunction*%
%TA.AperFunction,Conductor*%
G36*
X114834527Y-63253502D02*
G01*
X114881020Y-63307158D01*
X114891124Y-63377432D01*
X114861630Y-63442012D01*
X114855501Y-63448595D01*
X114672931Y-63631164D01*
X114672926Y-63631171D01*
X114616770Y-63715215D01*
X114603600Y-63734925D01*
X114555845Y-63850215D01*
X114548849Y-63885385D01*
X114531500Y-63972603D01*
X114531500Y-88020405D01*
X114511498Y-88088526D01*
X114494595Y-88109500D01*
X109574501Y-93029595D01*
X109512189Y-93063621D01*
X109485406Y-93066500D01*
X66257603Y-93066500D01*
X66187655Y-93080414D01*
X66135215Y-93090845D01*
X66135213Y-93090845D01*
X66135212Y-93090846D01*
X66019923Y-93138601D01*
X65916171Y-93207926D01*
X65916164Y-93207931D01*
X58469501Y-100654595D01*
X58407189Y-100688621D01*
X58380406Y-100691500D01*
X58304513Y-100691500D01*
X58117711Y-100731206D01*
X57943247Y-100808882D01*
X57788747Y-100921133D01*
X57785437Y-100924810D01*
X57724991Y-100962050D01*
X57691800Y-100966500D01*
X57333594Y-100966500D01*
X57265473Y-100946498D01*
X57218980Y-100892842D01*
X57208876Y-100822568D01*
X57238370Y-100757988D01*
X57244499Y-100751405D01*
X58050499Y-99945405D01*
X58112811Y-99911379D01*
X58139594Y-99908500D01*
X58195487Y-99908500D01*
X58382288Y-99868794D01*
X58556752Y-99791118D01*
X58711253Y-99678866D01*
X58818731Y-99559500D01*
X58839034Y-99536951D01*
X58839035Y-99536949D01*
X58839040Y-99536944D01*
X58934527Y-99371556D01*
X58993542Y-99189928D01*
X59010907Y-99024703D01*
X59037920Y-98959048D01*
X59047113Y-98948789D01*
X65220500Y-92775405D01*
X65282812Y-92741379D01*
X65309595Y-92738500D01*
X108057393Y-92738500D01*
X108057394Y-92738500D01*
X108179785Y-92714155D01*
X108295075Y-92666400D01*
X108398833Y-92597071D01*
X113392072Y-87603833D01*
X113461401Y-87500075D01*
X113509155Y-87384784D01*
X113509440Y-87383354D01*
X113533500Y-87262394D01*
X113533500Y-64214595D01*
X113553502Y-64146474D01*
X113570405Y-64125499D01*
X114425501Y-63270404D01*
X114487813Y-63236379D01*
X114514596Y-63233500D01*
X114766406Y-63233500D01*
X114834527Y-63253502D01*
G37*
%TD.AperFunction*%
%TA.AperFunction,Conductor*%
G36*
X118757012Y-65053370D02*
G01*
X118763594Y-65059498D01*
X120652595Y-66948500D01*
X122502877Y-68798782D01*
X122536903Y-68861094D01*
X122539092Y-68874706D01*
X122556457Y-69039927D01*
X122581482Y-69116944D01*
X122615473Y-69221556D01*
X122615476Y-69221561D01*
X122709896Y-69385102D01*
X122710960Y-69386944D01*
X122784137Y-69468215D01*
X122814853Y-69532220D01*
X122816500Y-69552524D01*
X122816500Y-72387606D01*
X122816500Y-72512394D01*
X122840845Y-72634785D01*
X122888600Y-72750075D01*
X122957929Y-72853833D01*
X124256167Y-74152071D01*
X124359925Y-74221400D01*
X124475215Y-74269155D01*
X124597606Y-74293500D01*
X124722393Y-74293500D01*
X125370000Y-74293500D01*
X125438121Y-74313502D01*
X125484614Y-74367158D01*
X125496000Y-74419500D01*
X125496000Y-74433000D01*
X126115500Y-74433000D01*
X126183621Y-74453002D01*
X126230114Y-74506658D01*
X126241500Y-74559000D01*
X126241500Y-74601309D01*
X126221498Y-74669430D01*
X126167842Y-74715923D01*
X126097568Y-74726027D01*
X126032988Y-74696533D01*
X126026405Y-74690404D01*
X126023001Y-74687000D01*
X125496001Y-74687000D01*
X125496001Y-74835022D01*
X125510737Y-74909105D01*
X125510737Y-74909107D01*
X125566875Y-74993124D01*
X125650893Y-75049262D01*
X125650894Y-75049263D01*
X125724980Y-75063999D01*
X126023000Y-75063999D01*
X126026405Y-75060595D01*
X126088717Y-75026569D01*
X126159532Y-75031634D01*
X126216368Y-75074181D01*
X126241179Y-75140701D01*
X126241500Y-75149690D01*
X126241500Y-75833628D01*
X126221498Y-75901749D01*
X126204595Y-75922723D01*
X119730346Y-82396971D01*
X119668034Y-82430997D01*
X119620513Y-82432158D01*
X119589383Y-82426963D01*
X119496712Y-82411500D01*
X119263288Y-82411500D01*
X119207724Y-82420771D01*
X119139484Y-82432158D01*
X119069000Y-82423640D01*
X119029652Y-82396971D01*
X118585405Y-81952724D01*
X118551379Y-81890412D01*
X118548500Y-81863629D01*
X118548500Y-65148594D01*
X118568502Y-65080473D01*
X118622158Y-65033980D01*
X118692432Y-65023876D01*
X118757012Y-65053370D01*
G37*
%TD.AperFunction*%
%TA.AperFunction,Conductor*%
G36*
X120153527Y-63253502D02*
G01*
X120174501Y-63270405D01*
X122952877Y-66048782D01*
X122986903Y-66111094D01*
X122989092Y-66124706D01*
X123006457Y-66289927D01*
X123019472Y-66329981D01*
X123065473Y-66471556D01*
X123065476Y-66471561D01*
X123160958Y-66636941D01*
X123160965Y-66636951D01*
X123288744Y-66778864D01*
X123288747Y-66778866D01*
X123443248Y-66891118D01*
X123617712Y-66968794D01*
X123804513Y-67008500D01*
X123860405Y-67008500D01*
X123928526Y-67028502D01*
X123949500Y-67045405D01*
X125379595Y-68475499D01*
X125413620Y-68537811D01*
X125416500Y-68564594D01*
X125416500Y-72065045D01*
X125396498Y-72133166D01*
X125391368Y-72140554D01*
X125299112Y-72263792D01*
X125299110Y-72263797D01*
X125248011Y-72400795D01*
X125248009Y-72400803D01*
X125241500Y-72461350D01*
X125241500Y-72900500D01*
X125221498Y-72968621D01*
X125167842Y-73015114D01*
X125115500Y-73026500D01*
X124974594Y-73026500D01*
X124906473Y-73006498D01*
X124885499Y-72989595D01*
X124120405Y-72224501D01*
X124086379Y-72162189D01*
X124083500Y-72135406D01*
X124083500Y-69552524D01*
X124103502Y-69484403D01*
X124115858Y-69468220D01*
X124189040Y-69386944D01*
X124284527Y-69221556D01*
X124343542Y-69039928D01*
X124363504Y-68850000D01*
X124343542Y-68660072D01*
X124284527Y-68478444D01*
X124189040Y-68313056D01*
X124189038Y-68313054D01*
X124189034Y-68313048D01*
X124061255Y-68171135D01*
X123906752Y-68058882D01*
X123732288Y-67981206D01*
X123545487Y-67941500D01*
X123489595Y-67941500D01*
X123421474Y-67921498D01*
X123400500Y-67904595D01*
X121179794Y-65683889D01*
X118944498Y-63448594D01*
X118910473Y-63386283D01*
X118915538Y-63315468D01*
X118958085Y-63258632D01*
X119024605Y-63233821D01*
X119033594Y-63233500D01*
X120085406Y-63233500D01*
X120153527Y-63253502D01*
G37*
%TD.AperFunction*%
%TA.AperFunction,Conductor*%
G36*
X112673206Y-60438502D02*
G01*
X112719699Y-60492158D01*
X112729803Y-60562432D01*
X112700309Y-60627012D01*
X112640583Y-60665396D01*
X112629667Y-60668079D01*
X112597174Y-60674542D01*
X112515215Y-60690845D01*
X112515213Y-60690845D01*
X112515212Y-60690846D01*
X112447675Y-60718821D01*
X112407091Y-60735632D01*
X112399923Y-60738601D01*
X112296171Y-60807926D01*
X112296164Y-60807931D01*
X111639501Y-61464595D01*
X111577189Y-61498621D01*
X111550406Y-61501500D01*
X110704500Y-61501500D01*
X110636379Y-61481498D01*
X110589886Y-61427842D01*
X110578500Y-61375500D01*
X110578499Y-60544500D01*
X110598501Y-60476379D01*
X110652157Y-60429886D01*
X110704499Y-60418500D01*
X112605085Y-60418500D01*
X112673206Y-60438502D01*
G37*
%TD.AperFunction*%
%TA.AperFunction,Conductor*%
G36*
X168993225Y-99735669D02*
G01*
X169015480Y-99761353D01*
X169046533Y-99808882D01*
X169104275Y-99897265D01*
X169104279Y-99897270D01*
X169256762Y-100062908D01*
X169256955Y-100063058D01*
X169434424Y-100201189D01*
X169467680Y-100219186D01*
X169518071Y-100269200D01*
X169533423Y-100338516D01*
X169508862Y-100405129D01*
X169467680Y-100440813D01*
X169434426Y-100458810D01*
X169434424Y-100458811D01*
X169256762Y-100597091D01*
X169104279Y-100762729D01*
X169104275Y-100762734D01*
X168981141Y-100951206D01*
X168888611Y-101162156D01*
X168887056Y-101161474D01*
X168850351Y-101213260D01*
X168784498Y-101239792D01*
X168714755Y-101226509D01*
X168663265Y-101177629D01*
X168659454Y-101170552D01*
X168582659Y-101016326D01*
X168505480Y-100914124D01*
X168505479Y-100914124D01*
X168071764Y-101347839D01*
X168040099Y-101292993D01*
X167947007Y-101199901D01*
X167892159Y-101168234D01*
X168327525Y-100732868D01*
X168308162Y-100715216D01*
X168308160Y-100715215D01*
X168134203Y-100607506D01*
X168134199Y-100607504D01*
X168071579Y-100583245D01*
X168015285Y-100539985D01*
X167991315Y-100473157D01*
X168007280Y-100403979D01*
X168058111Y-100354414D01*
X168076180Y-100346583D01*
X168187574Y-100308342D01*
X168385576Y-100201189D01*
X168563240Y-100062906D01*
X168715722Y-99897268D01*
X168804518Y-99761354D01*
X168858520Y-99715268D01*
X168928868Y-99705692D01*
X168993225Y-99735669D01*
G37*
%TD.AperFunction*%
%TA.AperFunction,Conductor*%
G36*
X209916309Y-64525461D02*
G01*
X209949663Y-64544082D01*
X210026644Y-64604000D01*
X210051977Y-64623718D01*
X210074424Y-64641189D01*
X210120471Y-64666108D01*
X210170859Y-64716118D01*
X210186500Y-64776920D01*
X210186500Y-74705406D01*
X210166498Y-74773527D01*
X210149595Y-74794501D01*
X197889501Y-87054595D01*
X197827189Y-87088621D01*
X197800406Y-87091500D01*
X197744513Y-87091500D01*
X197557711Y-87131206D01*
X197383247Y-87208882D01*
X197228744Y-87321135D01*
X197100965Y-87463048D01*
X197100958Y-87463058D01*
X197005476Y-87628438D01*
X197005473Y-87628445D01*
X196946457Y-87810072D01*
X196929092Y-87975292D01*
X196902079Y-88040949D01*
X196892877Y-88051216D01*
X193214501Y-91729595D01*
X193152189Y-91763620D01*
X193125406Y-91766500D01*
X175408200Y-91766500D01*
X175340079Y-91746498D01*
X175314563Y-91724810D01*
X175311252Y-91721133D01*
X175156752Y-91608882D01*
X174982288Y-91531206D01*
X174795487Y-91491500D01*
X174604513Y-91491500D01*
X174417711Y-91531206D01*
X174243247Y-91608882D01*
X174088744Y-91721135D01*
X173960965Y-91863048D01*
X173960958Y-91863058D01*
X173865476Y-92028438D01*
X173865473Y-92028445D01*
X173806457Y-92210072D01*
X173789092Y-92375292D01*
X173762079Y-92440949D01*
X173752877Y-92451216D01*
X171141167Y-95062929D01*
X171052931Y-95151164D01*
X171052926Y-95151171D01*
X170983601Y-95254923D01*
X170949643Y-95336905D01*
X170935845Y-95370215D01*
X170928316Y-95408068D01*
X170911500Y-95492603D01*
X170911500Y-97699738D01*
X170891498Y-97767859D01*
X170837842Y-97814352D01*
X170767568Y-97824456D01*
X170732705Y-97812928D01*
X170732345Y-97813751D01*
X170727571Y-97811656D01*
X170514639Y-97738557D01*
X170514632Y-97738555D01*
X170338761Y-97709208D01*
X170274862Y-97678266D01*
X170237834Y-97617690D01*
X170233500Y-97584926D01*
X170233500Y-95402524D01*
X170253502Y-95334403D01*
X170265858Y-95318220D01*
X170339040Y-95236944D01*
X170434527Y-95071556D01*
X170493542Y-94889928D01*
X170510907Y-94724703D01*
X170537920Y-94659048D01*
X170547113Y-94648789D01*
X173925500Y-91270405D01*
X173987812Y-91236379D01*
X174014595Y-91233500D01*
X191122393Y-91233500D01*
X191122394Y-91233500D01*
X191244785Y-91209155D01*
X191360075Y-91161400D01*
X191463833Y-91092071D01*
X197790499Y-84765405D01*
X197852811Y-84731379D01*
X197879594Y-84728500D01*
X197935487Y-84728500D01*
X198122288Y-84688794D01*
X198296752Y-84611118D01*
X198451253Y-84498866D01*
X198456834Y-84492668D01*
X198579034Y-84356951D01*
X198579035Y-84356949D01*
X198579040Y-84356944D01*
X198674527Y-84191556D01*
X198733542Y-84009928D01*
X198752082Y-83833528D01*
X198779094Y-83767874D01*
X198788287Y-83757615D01*
X208792071Y-73753833D01*
X208861400Y-73650075D01*
X208909155Y-73534785D01*
X208933500Y-73412394D01*
X208933500Y-73287606D01*
X208933500Y-65456295D01*
X208953502Y-65388174D01*
X208970399Y-65367205D01*
X209783185Y-64554419D01*
X209845494Y-64520397D01*
X209916309Y-64525461D01*
G37*
%TD.AperFunction*%
%TA.AperFunction,Conductor*%
G36*
X236198038Y-58430512D02*
G01*
X236216267Y-58430502D01*
X236223692Y-58430716D01*
X236523846Y-58448281D01*
X236538621Y-58450028D01*
X236830882Y-58502223D01*
X236845363Y-58505703D01*
X237129429Y-58592020D01*
X237143399Y-58597185D01*
X237415293Y-58716417D01*
X237428540Y-58723186D01*
X237503935Y-58767517D01*
X237684472Y-58873671D01*
X237696842Y-58881965D01*
X237933225Y-59061595D01*
X237944529Y-59071291D01*
X238158059Y-59277549D01*
X238168141Y-59288511D01*
X238355847Y-59518532D01*
X238364565Y-59530608D01*
X238523816Y-59781167D01*
X238531045Y-59794181D01*
X238659624Y-60061793D01*
X238665265Y-60075565D01*
X238675372Y-60105108D01*
X238761366Y-60356467D01*
X238765346Y-60370819D01*
X238827631Y-60661104D01*
X238829889Y-60675825D01*
X238857486Y-60971417D01*
X238857992Y-60986303D01*
X238850516Y-61283095D01*
X238849262Y-61297935D01*
X238806819Y-61591777D01*
X238803822Y-61606366D01*
X238727005Y-61893138D01*
X238722308Y-61907271D01*
X238612189Y-62182977D01*
X238605857Y-62196457D01*
X238463976Y-62457245D01*
X238456097Y-62469885D01*
X238284430Y-62712114D01*
X238275116Y-62723735D01*
X238076074Y-62944010D01*
X238065452Y-62954451D01*
X237838981Y-63152166D01*
X237833260Y-63156872D01*
X237819449Y-63167566D01*
X237818406Y-63168685D01*
X183078352Y-106509558D01*
X183066864Y-106517655D01*
X182975809Y-106574500D01*
X182950490Y-106586620D01*
X182766769Y-106650546D01*
X182739397Y-106656760D01*
X182695737Y-106661653D01*
X182632725Y-106668716D01*
X182618692Y-106669500D01*
X50803257Y-106669500D01*
X50796782Y-106669333D01*
X50629655Y-106660730D01*
X50465145Y-106652262D01*
X50452398Y-106650954D01*
X50127350Y-106600773D01*
X50114803Y-106598177D01*
X49796535Y-106515246D01*
X49784316Y-106511389D01*
X49476108Y-106396561D01*
X49464344Y-106391482D01*
X49169410Y-106245953D01*
X49158223Y-106239707D01*
X48879584Y-106064972D01*
X48869089Y-106057622D01*
X48609634Y-105855491D01*
X48599939Y-105847112D01*
X48362354Y-105619674D01*
X48353561Y-105610354D01*
X48140309Y-105359970D01*
X48132508Y-105349806D01*
X47945786Y-105079057D01*
X47939057Y-105068153D01*
X47791040Y-104798500D01*
X47780789Y-104779825D01*
X47775210Y-104768309D01*
X47647042Y-104465395D01*
X47642663Y-104453375D01*
X47545925Y-104139017D01*
X47542784Y-104126596D01*
X47478470Y-103804033D01*
X47476612Y-103791388D01*
X47445389Y-103463949D01*
X47444824Y-103451178D01*
X47447018Y-103122269D01*
X47447755Y-103109483D01*
X47448287Y-103104595D01*
X47483339Y-102782504D01*
X47485365Y-102769892D01*
X47553977Y-102448205D01*
X47557282Y-102435835D01*
X47562260Y-102420395D01*
X47658206Y-102122790D01*
X47662751Y-102110818D01*
X47786148Y-101829683D01*
X47787378Y-101827907D01*
X47796035Y-101807324D01*
X47799535Y-101799719D01*
X47803387Y-101792032D01*
X47805240Y-101785445D01*
X48056871Y-101187396D01*
X51131500Y-101187396D01*
X51134007Y-101200000D01*
X51155845Y-101309785D01*
X51203600Y-101425075D01*
X51272929Y-101528833D01*
X51272931Y-101528835D01*
X51559535Y-101815439D01*
X51588495Y-101860501D01*
X51639110Y-101996202D01*
X51639112Y-101996207D01*
X51726738Y-102113260D01*
X51785509Y-102157256D01*
X51828056Y-102214092D01*
X51836000Y-102258124D01*
X51836000Y-102373000D01*
X52455500Y-102373000D01*
X52523621Y-102393002D01*
X52570114Y-102446658D01*
X52581500Y-102499000D01*
X52581500Y-102541309D01*
X52561498Y-102609430D01*
X52507842Y-102655923D01*
X52437568Y-102666027D01*
X52372988Y-102636533D01*
X52366405Y-102630404D01*
X52363001Y-102627000D01*
X51836001Y-102627000D01*
X51836001Y-102775022D01*
X51850737Y-102849105D01*
X51850737Y-102849107D01*
X51906875Y-102933124D01*
X51990893Y-102989262D01*
X51990894Y-102989263D01*
X52064980Y-103003999D01*
X52362999Y-103003999D01*
X52378686Y-102988312D01*
X52440998Y-102954287D01*
X52511813Y-102959351D01*
X52568649Y-103001897D01*
X52585837Y-103033374D01*
X52639110Y-103176202D01*
X52639112Y-103176207D01*
X52726738Y-103293261D01*
X52843792Y-103380887D01*
X52843794Y-103380888D01*
X52843796Y-103380889D01*
X52886846Y-103396946D01*
X52980795Y-103431988D01*
X52980803Y-103431990D01*
X53041350Y-103438499D01*
X53041355Y-103438499D01*
X53041362Y-103438500D01*
X53041368Y-103438500D01*
X53638632Y-103438500D01*
X53638638Y-103438500D01*
X53638645Y-103438499D01*
X53638649Y-103438499D01*
X53699196Y-103431990D01*
X53699201Y-103431989D01*
X53699204Y-103431988D01*
X53801058Y-103393997D01*
X53871872Y-103388932D01*
X53896335Y-103396944D01*
X54057712Y-103468794D01*
X54120769Y-103482197D01*
X54183243Y-103515925D01*
X54183456Y-103516137D01*
X55156485Y-104489166D01*
X55248780Y-104550835D01*
X55280716Y-104572174D01*
X55418754Y-104629351D01*
X55565294Y-104658500D01*
X59074701Y-104658500D01*
X59074705Y-104658500D01*
X59074706Y-104658500D01*
X59147976Y-104643925D01*
X59221247Y-104629351D01*
X59359284Y-104572174D01*
X59483515Y-104489166D01*
X64537196Y-99435483D01*
X64599506Y-99401460D01*
X64670321Y-99406524D01*
X64727157Y-99449071D01*
X64748432Y-99493647D01*
X64749944Y-99499616D01*
X64750704Y-99502617D01*
X64841141Y-99708793D01*
X64964275Y-99897265D01*
X64964279Y-99897270D01*
X65116762Y-100062908D01*
X65116955Y-100063058D01*
X65294424Y-100201189D01*
X65492426Y-100308342D01*
X65492427Y-100308342D01*
X65492428Y-100308343D01*
X65530710Y-100321485D01*
X65603815Y-100346582D01*
X65661749Y-100387618D01*
X65688301Y-100453462D01*
X65675040Y-100523209D01*
X65626176Y-100574715D01*
X65608420Y-100583245D01*
X65545800Y-100607504D01*
X65545796Y-100607506D01*
X65371841Y-100715213D01*
X65371841Y-100715214D01*
X65352473Y-100732869D01*
X65787839Y-101168235D01*
X65732993Y-101199901D01*
X65639901Y-101292993D01*
X65608235Y-101347839D01*
X65174520Y-100914124D01*
X65174517Y-100914124D01*
X65097341Y-101016325D01*
X65097335Y-101016334D01*
X65006143Y-101199471D01*
X65006138Y-101199485D01*
X64950148Y-101396269D01*
X64931270Y-101600000D01*
X64950148Y-101803730D01*
X65006138Y-102000514D01*
X65006140Y-102000519D01*
X65097339Y-102183672D01*
X65174519Y-102285874D01*
X65608234Y-101852159D01*
X65639901Y-101907007D01*
X65732993Y-102000099D01*
X65787839Y-102031764D01*
X65352473Y-102467130D01*
X65371837Y-102484783D01*
X65371839Y-102484784D01*
X65545796Y-102592493D01*
X65545803Y-102592496D01*
X65736577Y-102666403D01*
X65736576Y-102666403D01*
X65937701Y-102704000D01*
X66142299Y-102704000D01*
X66343423Y-102666403D01*
X66534196Y-102592496D01*
X66534203Y-102592493D01*
X66708161Y-102484783D01*
X66727525Y-102467129D01*
X66292160Y-102031764D01*
X66347007Y-102000099D01*
X66440099Y-101907007D01*
X66471764Y-101852160D01*
X66905478Y-102285874D01*
X66905480Y-102285874D01*
X66982661Y-102183671D01*
X66982661Y-102183670D01*
X67059454Y-102029448D01*
X67107723Y-101977384D01*
X67176477Y-101959681D01*
X67243888Y-101981960D01*
X67288552Y-102037147D01*
X67290139Y-102041329D01*
X67352576Y-102183671D01*
X67377423Y-102240318D01*
X67381141Y-102248793D01*
X67504275Y-102437265D01*
X67504279Y-102437270D01*
X67656762Y-102602908D01*
X67698315Y-102635250D01*
X67834424Y-102741189D01*
X68032426Y-102848342D01*
X68032427Y-102848342D01*
X68032428Y-102848343D01*
X68066594Y-102860072D01*
X68245365Y-102921444D01*
X68467431Y-102958500D01*
X68467435Y-102958500D01*
X68692565Y-102958500D01*
X68692569Y-102958500D01*
X68914635Y-102921444D01*
X69127574Y-102848342D01*
X69325576Y-102741189D01*
X69503240Y-102602906D01*
X69655722Y-102437268D01*
X69744518Y-102301354D01*
X69798520Y-102255268D01*
X69868868Y-102245692D01*
X69933225Y-102275669D01*
X69955480Y-102301353D01*
X69984063Y-102345102D01*
X70044275Y-102437265D01*
X70044279Y-102437270D01*
X70196762Y-102602908D01*
X70238315Y-102635250D01*
X70374424Y-102741189D01*
X70572426Y-102848342D01*
X70572427Y-102848342D01*
X70572428Y-102848343D01*
X70606594Y-102860072D01*
X70785365Y-102921444D01*
X71007431Y-102958500D01*
X71007435Y-102958500D01*
X71232565Y-102958500D01*
X71232569Y-102958500D01*
X71454635Y-102921444D01*
X71667574Y-102848342D01*
X71865576Y-102741189D01*
X72043240Y-102602906D01*
X72092716Y-102549161D01*
X72153569Y-102512591D01*
X72185416Y-102508500D01*
X131127267Y-102508500D01*
X131195388Y-102528502D01*
X131241881Y-102582158D01*
X131251985Y-102652432D01*
X131247099Y-102673438D01*
X131228527Y-102730593D01*
X131225105Y-102739869D01*
X131206415Y-102784992D01*
X131206413Y-102785001D01*
X131200855Y-102812937D01*
X131197111Y-102827283D01*
X131186458Y-102860068D01*
X131186457Y-102860074D01*
X131181432Y-102907876D01*
X131179702Y-102919282D01*
X131171500Y-102960514D01*
X131171500Y-102995784D01*
X131170810Y-103008954D01*
X131166496Y-103049999D01*
X131170810Y-103091045D01*
X131171500Y-103104215D01*
X131171500Y-103139483D01*
X131177269Y-103168484D01*
X131178804Y-103176204D01*
X131179702Y-103180715D01*
X131181432Y-103192122D01*
X131186457Y-103239925D01*
X131186459Y-103239933D01*
X131197111Y-103272716D01*
X131200856Y-103287067D01*
X131206411Y-103314994D01*
X131206416Y-103315010D01*
X131225107Y-103360137D01*
X131228529Y-103369413D01*
X131245470Y-103421549D01*
X131245476Y-103421563D01*
X131259307Y-103445517D01*
X131266599Y-103460303D01*
X131274895Y-103480333D01*
X131274898Y-103480338D01*
X131305801Y-103526589D01*
X131310153Y-103533587D01*
X131324607Y-103558621D01*
X131340960Y-103586944D01*
X131349562Y-103596498D01*
X131354929Y-103602458D01*
X131366053Y-103616760D01*
X131374322Y-103629135D01*
X131418460Y-103673273D01*
X131422984Y-103678041D01*
X131468745Y-103728865D01*
X131480128Y-103737135D01*
X131495164Y-103749977D01*
X132975859Y-105230673D01*
X132975865Y-105230678D01*
X133124664Y-105330103D01*
X133290000Y-105398587D01*
X133465521Y-105433500D01*
X133465522Y-105433500D01*
X153104478Y-105433500D01*
X153104479Y-105433500D01*
X153280000Y-105398587D01*
X153445336Y-105330103D01*
X153594135Y-105230678D01*
X154829408Y-103995405D01*
X154891720Y-103961380D01*
X154918503Y-103958500D01*
X155052565Y-103958500D01*
X155052569Y-103958500D01*
X155274635Y-103921444D01*
X155487574Y-103848342D01*
X155685576Y-103741189D01*
X155863240Y-103602906D01*
X156015722Y-103437268D01*
X156138860Y-103248791D01*
X156229296Y-103042616D01*
X156284564Y-102824368D01*
X156303156Y-102600000D01*
X156293650Y-102485286D01*
X156307959Y-102415747D01*
X156357591Y-102364982D01*
X156367973Y-102359775D01*
X156378771Y-102354967D01*
X156400925Y-102345104D01*
X156555426Y-102232852D01*
X156585095Y-102199901D01*
X156683207Y-102090937D01*
X156683208Y-102090935D01*
X156683213Y-102090930D01*
X156731381Y-102007499D01*
X156782763Y-101958507D01*
X156852477Y-101945071D01*
X156918388Y-101971457D01*
X156959570Y-102029289D01*
X156966500Y-102070500D01*
X156966500Y-103537606D01*
X156966500Y-103662394D01*
X156990845Y-103784785D01*
X157038600Y-103900075D01*
X157107929Y-104003833D01*
X157647929Y-104543833D01*
X157736167Y-104632071D01*
X157839925Y-104701400D01*
X157955215Y-104749155D01*
X158077606Y-104773500D01*
X158390000Y-104773500D01*
X158458121Y-104793502D01*
X158504614Y-104847158D01*
X158516000Y-104899500D01*
X158516000Y-104913000D01*
X159135500Y-104913000D01*
X159203621Y-104933002D01*
X159250114Y-104986658D01*
X159261500Y-105039000D01*
X159261500Y-105081309D01*
X159241498Y-105149430D01*
X159187842Y-105195923D01*
X159117568Y-105206027D01*
X159052988Y-105176533D01*
X159046405Y-105170404D01*
X159043001Y-105167000D01*
X158516001Y-105167000D01*
X158516001Y-105315022D01*
X158530737Y-105389105D01*
X158530737Y-105389107D01*
X158586875Y-105473124D01*
X158670893Y-105529262D01*
X158670894Y-105529263D01*
X158744980Y-105543999D01*
X159042999Y-105543999D01*
X159058686Y-105528312D01*
X159120998Y-105494287D01*
X159191813Y-105499351D01*
X159248649Y-105541897D01*
X159265837Y-105573374D01*
X159319110Y-105716202D01*
X159319112Y-105716207D01*
X159406738Y-105833261D01*
X159523792Y-105920887D01*
X159523794Y-105920888D01*
X159523796Y-105920889D01*
X159582875Y-105942924D01*
X159660795Y-105971988D01*
X159660803Y-105971990D01*
X159721350Y-105978499D01*
X159721355Y-105978499D01*
X159721362Y-105978500D01*
X159721368Y-105978500D01*
X160318632Y-105978500D01*
X160318638Y-105978500D01*
X160318645Y-105978499D01*
X160318649Y-105978499D01*
X160379196Y-105971990D01*
X160379199Y-105971989D01*
X160379201Y-105971989D01*
X160453849Y-105944145D01*
X160524664Y-105939080D01*
X160549130Y-105947093D01*
X160687712Y-106008794D01*
X160874513Y-106048500D01*
X161065487Y-106048500D01*
X161252288Y-106008794D01*
X161426752Y-105931118D01*
X161438524Y-105922564D01*
X161505391Y-105898706D01*
X161512587Y-105898500D01*
X162634701Y-105898500D01*
X162634705Y-105898500D01*
X162634706Y-105898500D01*
X162707976Y-105883925D01*
X162781247Y-105869351D01*
X162919284Y-105812174D01*
X163043515Y-105729166D01*
X164989166Y-103783515D01*
X165072174Y-103659284D01*
X165082234Y-103634998D01*
X179005500Y-103634998D01*
X179035518Y-103863013D01*
X179035520Y-103863020D01*
X179095046Y-104085176D01*
X179183060Y-104297661D01*
X179183061Y-104297662D01*
X179183066Y-104297673D01*
X179298053Y-104496836D01*
X179298055Y-104496839D01*
X179298056Y-104496840D01*
X179438066Y-104679305D01*
X179438070Y-104679309D01*
X179438075Y-104679315D01*
X179600684Y-104841924D01*
X179600689Y-104841928D01*
X179600695Y-104841934D01*
X179783160Y-104981944D01*
X179783163Y-104981946D01*
X179982326Y-105096933D01*
X179982330Y-105096934D01*
X179982339Y-105096940D01*
X180194824Y-105184954D01*
X180416980Y-105244480D01*
X180416984Y-105244480D01*
X180416986Y-105244481D01*
X180475752Y-105252217D01*
X180645004Y-105274500D01*
X180645011Y-105274500D01*
X180874989Y-105274500D01*
X180874996Y-105274500D01*
X181081073Y-105247369D01*
X181103013Y-105244481D01*
X181103013Y-105244480D01*
X181103020Y-105244480D01*
X181325176Y-105184954D01*
X181537661Y-105096940D01*
X181736840Y-104981944D01*
X181919305Y-104841934D01*
X182081934Y-104679305D01*
X182221944Y-104496840D01*
X182336940Y-104297661D01*
X182424954Y-104085176D01*
X182484480Y-103863020D01*
X182514500Y-103634996D01*
X182514500Y-103405004D01*
X182490880Y-103225596D01*
X182484481Y-103176986D01*
X182484480Y-103176984D01*
X182484480Y-103176980D01*
X182424954Y-102954824D01*
X182336940Y-102742339D01*
X182336934Y-102742330D01*
X182336933Y-102742326D01*
X182221946Y-102543163D01*
X182221944Y-102543160D01*
X182081934Y-102360695D01*
X182081928Y-102360689D01*
X182081924Y-102360684D01*
X181919315Y-102198075D01*
X181919309Y-102198070D01*
X181919305Y-102198066D01*
X181736840Y-102058056D01*
X181736839Y-102058055D01*
X181736836Y-102058053D01*
X181537673Y-101943066D01*
X181537665Y-101943062D01*
X181537661Y-101943060D01*
X181325176Y-101855046D01*
X181146454Y-101807158D01*
X181103013Y-101795518D01*
X180874998Y-101765500D01*
X180874996Y-101765500D01*
X180645004Y-101765500D01*
X180645001Y-101765500D01*
X180416986Y-101795518D01*
X180243240Y-101842073D01*
X180194824Y-101855046D01*
X180024632Y-101925542D01*
X179982337Y-101943061D01*
X179982326Y-101943066D01*
X179783163Y-102058053D01*
X179600695Y-102198066D01*
X179600684Y-102198075D01*
X179438075Y-102360684D01*
X179438066Y-102360695D01*
X179298053Y-102543163D01*
X179183066Y-102742326D01*
X179183061Y-102742337D01*
X179183060Y-102742339D01*
X179134293Y-102860074D01*
X179095046Y-102954824D01*
X179035518Y-103176986D01*
X179005500Y-103405001D01*
X179005500Y-103634998D01*
X165082234Y-103634998D01*
X165129351Y-103521247D01*
X165149181Y-103421556D01*
X165158500Y-103374706D01*
X165158500Y-102108589D01*
X165175380Y-102045590D01*
X165234527Y-101943146D01*
X165293542Y-101761518D01*
X165313504Y-101571590D01*
X165293542Y-101381662D01*
X165234527Y-101200034D01*
X165180001Y-101105592D01*
X165175381Y-101097589D01*
X165158500Y-101034589D01*
X165158500Y-99060000D01*
X166276844Y-99060000D01*
X166287610Y-99189928D01*
X166295437Y-99284375D01*
X166350702Y-99502612D01*
X166350703Y-99502613D01*
X166350704Y-99502616D01*
X166428013Y-99678864D01*
X166441141Y-99708793D01*
X166564275Y-99897265D01*
X166564279Y-99897270D01*
X166716762Y-100062908D01*
X166716955Y-100063058D01*
X166894424Y-100201189D01*
X167092426Y-100308342D01*
X167092427Y-100308342D01*
X167092428Y-100308343D01*
X167130710Y-100321485D01*
X167203815Y-100346582D01*
X167261749Y-100387618D01*
X167288301Y-100453462D01*
X167275040Y-100523209D01*
X167226176Y-100574715D01*
X167208420Y-100583245D01*
X167145800Y-100607504D01*
X167145796Y-100607506D01*
X166971841Y-100715213D01*
X166971841Y-100715214D01*
X166952473Y-100732869D01*
X167387839Y-101168235D01*
X167332993Y-101199901D01*
X167239901Y-101292993D01*
X167208235Y-101347839D01*
X166774520Y-100914124D01*
X166774517Y-100914124D01*
X166697341Y-101016325D01*
X166697335Y-101016334D01*
X166606143Y-101199471D01*
X166606138Y-101199485D01*
X166550148Y-101396269D01*
X166531270Y-101600000D01*
X166550148Y-101803730D01*
X166606138Y-102000514D01*
X166606140Y-102000519D01*
X166697339Y-102183672D01*
X166774519Y-102285874D01*
X167208234Y-101852159D01*
X167239901Y-101907007D01*
X167332993Y-102000099D01*
X167387839Y-102031764D01*
X166952473Y-102467130D01*
X166971837Y-102484783D01*
X166971839Y-102484784D01*
X167145796Y-102592493D01*
X167145803Y-102592496D01*
X167336577Y-102666403D01*
X167336576Y-102666403D01*
X167537701Y-102704000D01*
X167742299Y-102704000D01*
X167943423Y-102666403D01*
X168134196Y-102592496D01*
X168134203Y-102592493D01*
X168308161Y-102484783D01*
X168327525Y-102467129D01*
X167892160Y-102031764D01*
X167947007Y-102000099D01*
X168040099Y-101907007D01*
X168071764Y-101852160D01*
X168505478Y-102285874D01*
X168505480Y-102285874D01*
X168582661Y-102183671D01*
X168582661Y-102183670D01*
X168659454Y-102029448D01*
X168707723Y-101977384D01*
X168776477Y-101959681D01*
X168843888Y-101981960D01*
X168888552Y-102037147D01*
X168890139Y-102041329D01*
X168952576Y-102183671D01*
X168977423Y-102240318D01*
X168981141Y-102248793D01*
X169104275Y-102437265D01*
X169104279Y-102437270D01*
X169256762Y-102602908D01*
X169298315Y-102635250D01*
X169434424Y-102741189D01*
X169632426Y-102848342D01*
X169632427Y-102848342D01*
X169632428Y-102848343D01*
X169666594Y-102860072D01*
X169845365Y-102921444D01*
X170067431Y-102958500D01*
X170067435Y-102958500D01*
X170292565Y-102958500D01*
X170292569Y-102958500D01*
X170514635Y-102921444D01*
X170727574Y-102848342D01*
X170925576Y-102741189D01*
X171103240Y-102602906D01*
X171255722Y-102437268D01*
X171344518Y-102301354D01*
X171398520Y-102255268D01*
X171468868Y-102245692D01*
X171533225Y-102275669D01*
X171555480Y-102301353D01*
X171584063Y-102345102D01*
X171644275Y-102437265D01*
X171644279Y-102437270D01*
X171796762Y-102602908D01*
X171838315Y-102635250D01*
X171974424Y-102741189D01*
X172172426Y-102848342D01*
X172172427Y-102848342D01*
X172172428Y-102848343D01*
X172206594Y-102860072D01*
X172385365Y-102921444D01*
X172607431Y-102958500D01*
X172607435Y-102958500D01*
X172832565Y-102958500D01*
X172832569Y-102958500D01*
X173054635Y-102921444D01*
X173267574Y-102848342D01*
X173465576Y-102741189D01*
X173643240Y-102602906D01*
X173795722Y-102437268D01*
X173918860Y-102248791D01*
X174009296Y-102042616D01*
X174064564Y-101824368D01*
X174083156Y-101600000D01*
X174064564Y-101375632D01*
X174036817Y-101266062D01*
X174039484Y-101195118D01*
X174069864Y-101146038D01*
X174387071Y-100828833D01*
X174456400Y-100725075D01*
X174504155Y-100609785D01*
X174528500Y-100487394D01*
X174528500Y-100362606D01*
X174528500Y-94919594D01*
X174548502Y-94851473D01*
X174565405Y-94830499D01*
X174650499Y-94745405D01*
X174712811Y-94711379D01*
X174739594Y-94708500D01*
X174795487Y-94708500D01*
X174982288Y-94668794D01*
X175156752Y-94591118D01*
X175311253Y-94478866D01*
X175385712Y-94396171D01*
X175439034Y-94336951D01*
X175439035Y-94336949D01*
X175439040Y-94336944D01*
X175534527Y-94171556D01*
X175593542Y-93989928D01*
X175613504Y-93800000D01*
X175593542Y-93610072D01*
X175534527Y-93428444D01*
X175439040Y-93263056D01*
X175439038Y-93263054D01*
X175439034Y-93263048D01*
X175421711Y-93243809D01*
X175390994Y-93179802D01*
X175399759Y-93109348D01*
X175445223Y-93054817D01*
X175512950Y-93033523D01*
X175515348Y-93033500D01*
X193502393Y-93033500D01*
X193502394Y-93033500D01*
X193624785Y-93009155D01*
X193740075Y-92961400D01*
X193843833Y-92892071D01*
X197790500Y-88945405D01*
X197852812Y-88911379D01*
X197879595Y-88908500D01*
X197935487Y-88908500D01*
X198122288Y-88868794D01*
X198296752Y-88791118D01*
X198451253Y-88678866D01*
X198547871Y-88571561D01*
X198579034Y-88536951D01*
X198579035Y-88536949D01*
X198579040Y-88536944D01*
X198674527Y-88371556D01*
X198733542Y-88189928D01*
X198750907Y-88024703D01*
X198777920Y-87959048D01*
X198787113Y-87948789D01*
X211312071Y-75423833D01*
X211381400Y-75320075D01*
X211429155Y-75204785D01*
X211453500Y-75082394D01*
X211453500Y-74957606D01*
X211453500Y-64776920D01*
X211473502Y-64708799D01*
X211519527Y-64666108D01*
X211565576Y-64641189D01*
X211743240Y-64502906D01*
X211895722Y-64337268D01*
X211984518Y-64201354D01*
X212038520Y-64155268D01*
X212108868Y-64145692D01*
X212173225Y-64175669D01*
X212195480Y-64201353D01*
X212228607Y-64252058D01*
X212284275Y-64337265D01*
X212284279Y-64337270D01*
X212346342Y-64404687D01*
X212432420Y-64498192D01*
X212436762Y-64502908D01*
X212489667Y-64544086D01*
X212614424Y-64641189D01*
X212812426Y-64748342D01*
X212812427Y-64748342D01*
X212812428Y-64748343D01*
X212895671Y-64776920D01*
X213025365Y-64821444D01*
X213247431Y-64858500D01*
X213247435Y-64858500D01*
X213472565Y-64858500D01*
X213472569Y-64858500D01*
X213694635Y-64821444D01*
X213907574Y-64748342D01*
X214105576Y-64641189D01*
X214283240Y-64502906D01*
X214435722Y-64337268D01*
X214558860Y-64148791D01*
X214649296Y-63942616D01*
X214704564Y-63724368D01*
X214723156Y-63500000D01*
X214704564Y-63275632D01*
X214660063Y-63099901D01*
X214649297Y-63057387D01*
X214649296Y-63057386D01*
X214649296Y-63057384D01*
X214558860Y-62851209D01*
X214546084Y-62831654D01*
X214435724Y-62662734D01*
X214435720Y-62662729D01*
X214283236Y-62497090D01*
X214248436Y-62470004D01*
X214206966Y-62412379D01*
X214203233Y-62341480D01*
X214238423Y-62279819D01*
X214276763Y-62256669D01*
X214276086Y-62255217D01*
X214282728Y-62252118D01*
X214282738Y-62252115D01*
X214433652Y-62159030D01*
X214559030Y-62033652D01*
X214652115Y-61882738D01*
X214707887Y-61714426D01*
X214718500Y-61610545D01*
X214718499Y-60960000D01*
X234714357Y-60960000D01*
X234732949Y-61184375D01*
X234734893Y-61207828D01*
X234795935Y-61448877D01*
X234795938Y-61448884D01*
X234895826Y-61676606D01*
X235031835Y-61884785D01*
X235200249Y-62067732D01*
X235200254Y-62067736D01*
X235200256Y-62067738D01*
X235380904Y-62208342D01*
X235396490Y-62220473D01*
X235396491Y-62220474D01*
X235615190Y-62338828D01*
X235615192Y-62338829D01*
X235673398Y-62358811D01*
X235850386Y-62419571D01*
X236095665Y-62460500D01*
X236095669Y-62460500D01*
X236344331Y-62460500D01*
X236344335Y-62460500D01*
X236589614Y-62419571D01*
X236824810Y-62338828D01*
X237043509Y-62220474D01*
X237239744Y-62067738D01*
X237250219Y-62056360D01*
X237408164Y-61884785D01*
X237461410Y-61803286D01*
X237544173Y-61676607D01*
X237644063Y-61448881D01*
X237705108Y-61207821D01*
X237725643Y-60960000D01*
X237705108Y-60712179D01*
X237699706Y-60690846D01*
X237644064Y-60471122D01*
X237644061Y-60471115D01*
X237625976Y-60429886D01*
X237544173Y-60243393D01*
X237408164Y-60035214D01*
X237239750Y-59852267D01*
X237122458Y-59760975D01*
X237043509Y-59699526D01*
X237043508Y-59699525D01*
X236824809Y-59581171D01*
X236824807Y-59581170D01*
X236589618Y-59500430D01*
X236589609Y-59500428D01*
X236540836Y-59492289D01*
X236344335Y-59459500D01*
X236095665Y-59459500D01*
X235931953Y-59486818D01*
X235850390Y-59500428D01*
X235850381Y-59500430D01*
X235615192Y-59581170D01*
X235615190Y-59581171D01*
X235396491Y-59699525D01*
X235396490Y-59699526D01*
X235200249Y-59852267D01*
X235031835Y-60035214D01*
X234895826Y-60243393D01*
X234795938Y-60471115D01*
X234795935Y-60471122D01*
X234734893Y-60712171D01*
X234734892Y-60712177D01*
X234734892Y-60712179D01*
X234714357Y-60960000D01*
X214718499Y-60960000D01*
X214718499Y-60309456D01*
X214716306Y-60287993D01*
X214707887Y-60205574D01*
X214679553Y-60120067D01*
X214652115Y-60037262D01*
X214559030Y-59886348D01*
X214559029Y-59886347D01*
X214559024Y-59886341D01*
X214433658Y-59760975D01*
X214433652Y-59760970D01*
X214282738Y-59667885D01*
X214188569Y-59636681D01*
X214114427Y-59612113D01*
X214114420Y-59612112D01*
X214010553Y-59601500D01*
X212709455Y-59601500D01*
X212605574Y-59612112D01*
X212437261Y-59667885D01*
X212286347Y-59760970D01*
X212286341Y-59760975D01*
X212160975Y-59886341D01*
X212160970Y-59886347D01*
X212143378Y-59914869D01*
X212069149Y-60035214D01*
X212067883Y-60037266D01*
X212064783Y-60043914D01*
X212062878Y-60043025D01*
X212028389Y-60092822D01*
X211962828Y-60120067D01*
X211892945Y-60107541D01*
X211856515Y-60080142D01*
X211743237Y-59957091D01*
X211661382Y-59893381D01*
X211565576Y-59818811D01*
X211367574Y-59711658D01*
X211367572Y-59711657D01*
X211367571Y-59711656D01*
X211154639Y-59638557D01*
X211154630Y-59638555D01*
X211110476Y-59631187D01*
X210932569Y-59601500D01*
X210707431Y-59601500D01*
X210559211Y-59626233D01*
X210485369Y-59638555D01*
X210485360Y-59638557D01*
X210272428Y-59711656D01*
X210272426Y-59711658D01*
X210074426Y-59818810D01*
X210074424Y-59818811D01*
X209896762Y-59957091D01*
X209744279Y-60122729D01*
X209655483Y-60258643D01*
X209601479Y-60304731D01*
X209531131Y-60314306D01*
X209466774Y-60284329D01*
X209444517Y-60258643D01*
X209355720Y-60122729D01*
X209203237Y-59957091D01*
X209121382Y-59893381D01*
X209025576Y-59818811D01*
X208827574Y-59711658D01*
X208827572Y-59711657D01*
X208827571Y-59711656D01*
X208614639Y-59638557D01*
X208614630Y-59638555D01*
X208570476Y-59631187D01*
X208392569Y-59601500D01*
X208167431Y-59601500D01*
X208019211Y-59626233D01*
X207945369Y-59638555D01*
X207945360Y-59638557D01*
X207732428Y-59711656D01*
X207732426Y-59711658D01*
X207534426Y-59818810D01*
X207534424Y-59818811D01*
X207356762Y-59957091D01*
X207204279Y-60122729D01*
X207204275Y-60122734D01*
X207081141Y-60311206D01*
X206990703Y-60517386D01*
X206990702Y-60517387D01*
X206935437Y-60735624D01*
X206926357Y-60845192D01*
X206900797Y-60911428D01*
X206889882Y-60923881D01*
X192397119Y-75416647D01*
X192256649Y-75557116D01*
X192256644Y-75557123D01*
X192146279Y-75722296D01*
X192070258Y-75905825D01*
X192070256Y-75905830D01*
X192031500Y-76100668D01*
X192031500Y-83764264D01*
X192030893Y-83776615D01*
X192026620Y-83819998D01*
X192026620Y-83820001D01*
X192030893Y-83863383D01*
X192031500Y-83875734D01*
X192031500Y-83919334D01*
X192040004Y-83962085D01*
X192041818Y-83974315D01*
X192046091Y-84017698D01*
X192046092Y-84017704D01*
X192058745Y-84059418D01*
X192061748Y-84071405D01*
X192070255Y-84114165D01*
X192070256Y-84114169D01*
X192086933Y-84154433D01*
X192086937Y-84154441D01*
X192091102Y-84166081D01*
X192103758Y-84207801D01*
X192103761Y-84207808D01*
X192124310Y-84246252D01*
X192129597Y-84257430D01*
X192146279Y-84297704D01*
X192146280Y-84297707D01*
X192170494Y-84333946D01*
X192176849Y-84344548D01*
X192197405Y-84383004D01*
X192225066Y-84416709D01*
X192232432Y-84426641D01*
X192256647Y-84462881D01*
X192287467Y-84493701D01*
X192295766Y-84502857D01*
X192323432Y-84536568D01*
X192357149Y-84564239D01*
X192366289Y-84572523D01*
X192397119Y-84603353D01*
X192397122Y-84603355D01*
X192433352Y-84627563D01*
X192443285Y-84634929D01*
X192476997Y-84662596D01*
X192515446Y-84683147D01*
X192526053Y-84689504D01*
X192538253Y-84697655D01*
X192562296Y-84713721D01*
X192602567Y-84730401D01*
X192613749Y-84735690D01*
X192652194Y-84756240D01*
X192652195Y-84756240D01*
X192652196Y-84756241D01*
X192652203Y-84756243D01*
X192693917Y-84768897D01*
X192705551Y-84773059D01*
X192745831Y-84789744D01*
X192788589Y-84798249D01*
X192800573Y-84801251D01*
X192812628Y-84804907D01*
X192842299Y-84813908D01*
X192885693Y-84818181D01*
X192897899Y-84819991D01*
X192940671Y-84828500D01*
X192984266Y-84828500D01*
X192996614Y-84829106D01*
X193011867Y-84830609D01*
X193039998Y-84833380D01*
X193040000Y-84833380D01*
X193040002Y-84833380D01*
X193068132Y-84830609D01*
X193083385Y-84829106D01*
X193095734Y-84828500D01*
X193139325Y-84828500D01*
X193139329Y-84828500D01*
X193182097Y-84819992D01*
X193194308Y-84818181D01*
X193237701Y-84813908D01*
X193279423Y-84801251D01*
X193291404Y-84798250D01*
X193334169Y-84789744D01*
X193374462Y-84773053D01*
X193386076Y-84768898D01*
X193427804Y-84756241D01*
X193466267Y-84735680D01*
X193477418Y-84730406D01*
X193517704Y-84713721D01*
X193553947Y-84689502D01*
X193564552Y-84683147D01*
X193603004Y-84662595D01*
X193636728Y-84634916D01*
X193646633Y-84627571D01*
X193682881Y-84603353D01*
X193713712Y-84572520D01*
X193722854Y-84564235D01*
X193756568Y-84536568D01*
X193784235Y-84502854D01*
X193792520Y-84493712D01*
X193823353Y-84462881D01*
X193847571Y-84426633D01*
X193854916Y-84416728D01*
X193882595Y-84383004D01*
X193903149Y-84344548D01*
X193909505Y-84333944D01*
X193933721Y-84297704D01*
X193941505Y-84278910D01*
X193950406Y-84257418D01*
X193955680Y-84246267D01*
X193976241Y-84207804D01*
X193988898Y-84166076D01*
X193993053Y-84154462D01*
X194009744Y-84114169D01*
X194018250Y-84071404D01*
X194021253Y-84059418D01*
X194033908Y-84017701D01*
X194038181Y-83974308D01*
X194039993Y-83962091D01*
X194048500Y-83919329D01*
X194048500Y-83875734D01*
X194049107Y-83863383D01*
X194053380Y-83820001D01*
X194053380Y-83819998D01*
X194049107Y-83776615D01*
X194048500Y-83764264D01*
X194048500Y-76669924D01*
X194068502Y-76601803D01*
X194085405Y-76580829D01*
X200366234Y-70300000D01*
X206988119Y-63678115D01*
X207050427Y-63644092D01*
X207121242Y-63649157D01*
X207178078Y-63691704D01*
X207198400Y-63732731D01*
X207246138Y-63900514D01*
X207246140Y-63900519D01*
X207337339Y-64083672D01*
X207414518Y-64185874D01*
X207414520Y-64185874D01*
X207848234Y-63752159D01*
X207879901Y-63807007D01*
X207972993Y-63900099D01*
X208027838Y-63931764D01*
X207592473Y-64367129D01*
X207611837Y-64384783D01*
X207611839Y-64384784D01*
X207785797Y-64492493D01*
X207798295Y-64497335D01*
X207854590Y-64540594D01*
X207878561Y-64607422D01*
X207862597Y-64676600D01*
X207841876Y-64703921D01*
X207807927Y-64737870D01*
X207807926Y-64737872D01*
X207740015Y-64839509D01*
X207738600Y-64841626D01*
X207723269Y-64878638D01*
X207690846Y-64956913D01*
X207666500Y-65079304D01*
X207666500Y-73035406D01*
X207646498Y-73103527D01*
X207629595Y-73124501D01*
X197879501Y-82874595D01*
X197817189Y-82908621D01*
X197790406Y-82911500D01*
X197744513Y-82911500D01*
X197557711Y-82951206D01*
X197383247Y-83028882D01*
X197228744Y-83141135D01*
X197100965Y-83283048D01*
X197100958Y-83283058D01*
X197005476Y-83448438D01*
X197005473Y-83448445D01*
X196946457Y-83630072D01*
X196929092Y-83795293D01*
X196902079Y-83860950D01*
X196892877Y-83871217D01*
X190834501Y-89929595D01*
X190772189Y-89963621D01*
X190745406Y-89966500D01*
X173637603Y-89966500D01*
X173515215Y-89990845D01*
X173515211Y-89990846D01*
X173502364Y-89996167D01*
X173502365Y-89996168D01*
X173399923Y-90038600D01*
X173296167Y-90107927D01*
X173296161Y-90107932D01*
X169649501Y-93754595D01*
X169587189Y-93788620D01*
X169560406Y-93791500D01*
X169504513Y-93791500D01*
X169317711Y-93831206D01*
X169143247Y-93908882D01*
X168988744Y-94021135D01*
X168860965Y-94163048D01*
X168860958Y-94163058D01*
X168765476Y-94328438D01*
X168765473Y-94328445D01*
X168706457Y-94510072D01*
X168686496Y-94700000D01*
X168706457Y-94889927D01*
X168725489Y-94948500D01*
X168765473Y-95071556D01*
X168765476Y-95071561D01*
X168811436Y-95151167D01*
X168860960Y-95236944D01*
X168934137Y-95318215D01*
X168964853Y-95382220D01*
X168966500Y-95402524D01*
X168966500Y-98183349D01*
X168946498Y-98251470D01*
X168892842Y-98297963D01*
X168822568Y-98308067D01*
X168757988Y-98278573D01*
X168735017Y-98252265D01*
X168719454Y-98228445D01*
X168715722Y-98222732D01*
X168715720Y-98222729D01*
X168563237Y-98057091D01*
X168474226Y-97987811D01*
X168385576Y-97918811D01*
X168187574Y-97811658D01*
X168187572Y-97811657D01*
X168187571Y-97811656D01*
X167974639Y-97738557D01*
X167974630Y-97738555D01*
X167906276Y-97727149D01*
X167752569Y-97701500D01*
X167527431Y-97701500D01*
X167379211Y-97726233D01*
X167305369Y-97738555D01*
X167305360Y-97738557D01*
X167092428Y-97811656D01*
X167092426Y-97811658D01*
X166894426Y-97918810D01*
X166894424Y-97918811D01*
X166716762Y-98057091D01*
X166564279Y-98222729D01*
X166564275Y-98222734D01*
X166441141Y-98411206D01*
X166350703Y-98617386D01*
X166350702Y-98617387D01*
X166295437Y-98835624D01*
X166295436Y-98835630D01*
X166295436Y-98835632D01*
X166276844Y-99060000D01*
X165158500Y-99060000D01*
X165158500Y-97466371D01*
X165178502Y-97398250D01*
X165195405Y-97377276D01*
X178777276Y-83795405D01*
X178839588Y-83761379D01*
X178866371Y-83758500D01*
X184574701Y-83758500D01*
X184574705Y-83758500D01*
X184574706Y-83758500D01*
X184647976Y-83743925D01*
X184721247Y-83729351D01*
X184859284Y-83672174D01*
X184983515Y-83589166D01*
X187313470Y-81259211D01*
X187396479Y-81134979D01*
X187435893Y-81039824D01*
X187453656Y-80996942D01*
X187480419Y-80862394D01*
X187480420Y-80862394D01*
X187480420Y-80862388D01*
X187482805Y-80850401D01*
X187482805Y-80776863D01*
X187502807Y-80708742D01*
X187556463Y-80662249D01*
X187608805Y-80650863D01*
X187769792Y-80650863D01*
X187956593Y-80611157D01*
X188131057Y-80533481D01*
X188285558Y-80421229D01*
X188285560Y-80421227D01*
X188413339Y-80279314D01*
X188413340Y-80279312D01*
X188413345Y-80279307D01*
X188508832Y-80113919D01*
X188567847Y-79932291D01*
X188587809Y-79742363D01*
X188567847Y-79552435D01*
X188508832Y-79370807D01*
X188493739Y-79344665D01*
X188477581Y-79295134D01*
X188476294Y-79283162D01*
X188440200Y-79186393D01*
X188435136Y-79115580D01*
X188440202Y-79098330D01*
X188476293Y-79001567D01*
X188476295Y-79001559D01*
X188482804Y-78941012D01*
X188482805Y-78940995D01*
X188482805Y-78543730D01*
X188482804Y-78543713D01*
X188476295Y-78483166D01*
X188476293Y-78483158D01*
X188440202Y-78386396D01*
X188435136Y-78315580D01*
X188440202Y-78298330D01*
X188476293Y-78201567D01*
X188476295Y-78201559D01*
X188482804Y-78141012D01*
X188482805Y-78140995D01*
X188482805Y-77543730D01*
X188482804Y-77543713D01*
X188476295Y-77483166D01*
X188476293Y-77483158D01*
X188426736Y-77350294D01*
X188425194Y-77346159D01*
X188425193Y-77346157D01*
X188425192Y-77346155D01*
X188337566Y-77229101D01*
X188220512Y-77141475D01*
X188220507Y-77141473D01*
X188083509Y-77090374D01*
X188083501Y-77090372D01*
X188022954Y-77083863D01*
X188022943Y-77083863D01*
X187125667Y-77083863D01*
X187125655Y-77083863D01*
X187065108Y-77090372D01*
X187065100Y-77090374D01*
X186928104Y-77141472D01*
X186925391Y-77142954D01*
X186921406Y-77143970D01*
X186919658Y-77144623D01*
X186919587Y-77144434D01*
X186865011Y-77158363D01*
X186851304Y-77158363D01*
X186842279Y-77167387D01*
X186831303Y-77204771D01*
X186814400Y-77225745D01*
X186813400Y-77226745D01*
X186751088Y-77260771D01*
X186680273Y-77255706D01*
X186635210Y-77226745D01*
X186634210Y-77225745D01*
X186600184Y-77163433D01*
X186599919Y-77160976D01*
X186597306Y-77158363D01*
X186583599Y-77158363D01*
X186529022Y-77144434D01*
X186528952Y-77144623D01*
X186527203Y-77143970D01*
X186523219Y-77142954D01*
X186520505Y-77141472D01*
X186383509Y-77090374D01*
X186383501Y-77090372D01*
X186322954Y-77083863D01*
X186322943Y-77083863D01*
X185425667Y-77083863D01*
X185425655Y-77083863D01*
X185365108Y-77090372D01*
X185365100Y-77090374D01*
X185228102Y-77141473D01*
X185228097Y-77141475D01*
X185171652Y-77183731D01*
X185105132Y-77208542D01*
X185096143Y-77208863D01*
X183565837Y-77208863D01*
X183497716Y-77188861D01*
X183472200Y-77167173D01*
X183468889Y-77163496D01*
X183314389Y-77051245D01*
X183139925Y-76973569D01*
X182953124Y-76933863D01*
X182762150Y-76933863D01*
X182575348Y-76973569D01*
X182400884Y-77051245D01*
X182246384Y-77163496D01*
X182243074Y-77167173D01*
X182182628Y-77204413D01*
X182149437Y-77208863D01*
X177895240Y-77208863D01*
X177837217Y-77220405D01*
X177772852Y-77233208D01*
X177772850Y-77233208D01*
X177772849Y-77233209D01*
X177657560Y-77280964D01*
X177553808Y-77350289D01*
X177553801Y-77350294D01*
X160307931Y-94596164D01*
X160307926Y-94596171D01*
X160238601Y-94699923D01*
X160201379Y-94789785D01*
X160190845Y-94815215D01*
X160187805Y-94830499D01*
X160183079Y-94854259D01*
X160150171Y-94917169D01*
X160088476Y-94952300D01*
X160017581Y-94948500D01*
X159959995Y-94906974D01*
X159934001Y-94840907D01*
X159933500Y-94829677D01*
X159933500Y-94737607D01*
X159933499Y-94737603D01*
X159932863Y-94734404D01*
X159909155Y-94615215D01*
X159895168Y-94581447D01*
X159861401Y-94499925D01*
X159792072Y-94396167D01*
X141453833Y-76057929D01*
X141350075Y-75988600D01*
X141234785Y-75940845D01*
X141161086Y-75926185D01*
X141112396Y-75916500D01*
X141112394Y-75916500D01*
X134958200Y-75916500D01*
X134890079Y-75896498D01*
X134864563Y-75874810D01*
X134861252Y-75871133D01*
X134706752Y-75758882D01*
X134532288Y-75681206D01*
X134345487Y-75641500D01*
X134289594Y-75641500D01*
X134221473Y-75621498D01*
X134200499Y-75604595D01*
X130863835Y-72267931D01*
X130863833Y-72267929D01*
X130760075Y-72198600D01*
X130644785Y-72150845D01*
X130567168Y-72135406D01*
X130522396Y-72126500D01*
X130522394Y-72126500D01*
X128628162Y-72126500D01*
X128560041Y-72106498D01*
X128552653Y-72101368D01*
X128496207Y-72059112D01*
X128496202Y-72059110D01*
X128359204Y-72008011D01*
X128359196Y-72008009D01*
X128298649Y-72001500D01*
X128298638Y-72001500D01*
X127401362Y-72001500D01*
X127401350Y-72001500D01*
X127340803Y-72008009D01*
X127340795Y-72008011D01*
X127203799Y-72059109D01*
X127201086Y-72060591D01*
X127197101Y-72061607D01*
X127195353Y-72062260D01*
X127195282Y-72062071D01*
X127140706Y-72076000D01*
X127126999Y-72076000D01*
X127117974Y-72085024D01*
X127106998Y-72122408D01*
X127090095Y-72143382D01*
X127089095Y-72144382D01*
X127026783Y-72178408D01*
X126955968Y-72173343D01*
X126910905Y-72144382D01*
X126909905Y-72143382D01*
X126875879Y-72081070D01*
X126875614Y-72078613D01*
X126873001Y-72076000D01*
X126859294Y-72076000D01*
X126804716Y-72062071D01*
X126804646Y-72062260D01*
X126802895Y-72061607D01*
X126798914Y-72060591D01*
X126796202Y-72059110D01*
X126765466Y-72047646D01*
X126708631Y-72005099D01*
X126683821Y-71938578D01*
X126683500Y-71929591D01*
X126683500Y-68187607D01*
X126683499Y-68187603D01*
X126659155Y-68065215D01*
X126645168Y-68031447D01*
X126611401Y-67949925D01*
X126542072Y-67846167D01*
X124847121Y-66151216D01*
X124813095Y-66088904D01*
X124810908Y-66075306D01*
X124793542Y-65910072D01*
X124734527Y-65728444D01*
X124639040Y-65563056D01*
X124639038Y-65563054D01*
X124639034Y-65563048D01*
X124511255Y-65421135D01*
X124356752Y-65308882D01*
X124182288Y-65231206D01*
X123995487Y-65191500D01*
X123939595Y-65191500D01*
X123871474Y-65171498D01*
X123850500Y-65154595D01*
X120844499Y-62148595D01*
X120810473Y-62086283D01*
X120815538Y-62015468D01*
X120858085Y-61958632D01*
X120924605Y-61933821D01*
X120933594Y-61933500D01*
X122385406Y-61933500D01*
X122453527Y-61953502D01*
X122474501Y-61970405D01*
X135107929Y-74603833D01*
X135196167Y-74692071D01*
X135299925Y-74761400D01*
X135415215Y-74809155D01*
X135537606Y-74833500D01*
X143985406Y-74833500D01*
X144053527Y-74853502D01*
X144074501Y-74870405D01*
X157896167Y-88692071D01*
X157999925Y-88761400D01*
X158115215Y-88809155D01*
X158237606Y-88833500D01*
X158362394Y-88833500D01*
X164191800Y-88833500D01*
X164259921Y-88853502D01*
X164285437Y-88875190D01*
X164288747Y-88878866D01*
X164443248Y-88991118D01*
X164617712Y-89068794D01*
X164804513Y-89108500D01*
X164995487Y-89108500D01*
X165182288Y-89068794D01*
X165356752Y-88991118D01*
X165511253Y-88878866D01*
X165514563Y-88875190D01*
X165639034Y-88736951D01*
X165639035Y-88736949D01*
X165639040Y-88736944D01*
X165734527Y-88571556D01*
X165793542Y-88389928D01*
X165813504Y-88200000D01*
X165793542Y-88010072D01*
X165734527Y-87828444D01*
X165639040Y-87663056D01*
X165639038Y-87663054D01*
X165639034Y-87663048D01*
X165511255Y-87521135D01*
X165356752Y-87408882D01*
X165182288Y-87331206D01*
X164995487Y-87291500D01*
X164804513Y-87291500D01*
X164617711Y-87331206D01*
X164443247Y-87408882D01*
X164288747Y-87521133D01*
X164285437Y-87524810D01*
X164224991Y-87562050D01*
X164191800Y-87566500D01*
X158614594Y-87566500D01*
X158546473Y-87546498D01*
X158525499Y-87529595D01*
X144703835Y-73707931D01*
X144703833Y-73707929D01*
X144600075Y-73638600D01*
X144484785Y-73590845D01*
X144411086Y-73576185D01*
X144362396Y-73566500D01*
X144362394Y-73566500D01*
X135914594Y-73566500D01*
X135846473Y-73546498D01*
X135825499Y-73529595D01*
X123103835Y-60807931D01*
X123103833Y-60807929D01*
X123000075Y-60738600D01*
X122884785Y-60690845D01*
X122794343Y-60672855D01*
X122770333Y-60668079D01*
X122707424Y-60635171D01*
X122672292Y-60573476D01*
X122676092Y-60502581D01*
X122717618Y-60444995D01*
X122783685Y-60419001D01*
X122794915Y-60418500D01*
X123870406Y-60418500D01*
X123938527Y-60438502D01*
X123959501Y-60455405D01*
X135896167Y-72392071D01*
X135999925Y-72461400D01*
X136115215Y-72509155D01*
X136237606Y-72533500D01*
X136362393Y-72533500D01*
X145245406Y-72533500D01*
X145313527Y-72553502D01*
X145334501Y-72570405D01*
X159072877Y-86308781D01*
X159106903Y-86371093D01*
X159109092Y-86384705D01*
X159126457Y-86549927D01*
X159142728Y-86600001D01*
X159185473Y-86731556D01*
X159198621Y-86754329D01*
X159280958Y-86896941D01*
X159280965Y-86896951D01*
X159408744Y-87038864D01*
X159408747Y-87038866D01*
X159563248Y-87151118D01*
X159737712Y-87228794D01*
X159924513Y-87268500D01*
X160115487Y-87268500D01*
X160302288Y-87228794D01*
X160476752Y-87151118D01*
X160631253Y-87038866D01*
X160677228Y-86987806D01*
X160759034Y-86896951D01*
X160759035Y-86896949D01*
X160759040Y-86896944D01*
X160854527Y-86731556D01*
X160913542Y-86549928D01*
X160933504Y-86360000D01*
X160913542Y-86170072D01*
X160854527Y-85988444D01*
X160759040Y-85823056D01*
X160759038Y-85823054D01*
X160759034Y-85823048D01*
X160631255Y-85681135D01*
X160476752Y-85568882D01*
X160302288Y-85491206D01*
X160115487Y-85451500D01*
X160059594Y-85451500D01*
X159991473Y-85431498D01*
X159970499Y-85414595D01*
X145963835Y-71407931D01*
X145963833Y-71407929D01*
X145860075Y-71338600D01*
X145744785Y-71290845D01*
X145671086Y-71276185D01*
X145622396Y-71266500D01*
X145622394Y-71266500D01*
X136614594Y-71266500D01*
X136546473Y-71246498D01*
X136525499Y-71229595D01*
X128699884Y-63403980D01*
X128665858Y-63341668D01*
X128670923Y-63270853D01*
X128713470Y-63214017D01*
X128770941Y-63191701D01*
X128770739Y-63190683D01*
X128776535Y-63189529D01*
X128776635Y-63189491D01*
X128776813Y-63189473D01*
X128966074Y-63132062D01*
X129140485Y-63038837D01*
X129140490Y-63038834D01*
X129194721Y-62994326D01*
X128758955Y-62558560D01*
X128825606Y-62520080D01*
X128900080Y-62445606D01*
X128938560Y-62378956D01*
X129374325Y-62814721D01*
X129418834Y-62760490D01*
X129418837Y-62760485D01*
X129512062Y-62586074D01*
X129569474Y-62396809D01*
X129588858Y-62200003D01*
X129588858Y-62200000D01*
X130716693Y-62200000D01*
X130735885Y-62419371D01*
X130749452Y-62470003D01*
X130792879Y-62632073D01*
X130792881Y-62632079D01*
X130878048Y-62814721D01*
X130885944Y-62831654D01*
X130963017Y-62941725D01*
X131012251Y-63012038D01*
X131012254Y-63012042D01*
X131167957Y-63167745D01*
X131167961Y-63167748D01*
X131167962Y-63167749D01*
X131348346Y-63294056D01*
X131547924Y-63387120D01*
X131760629Y-63444115D01*
X131980000Y-63463307D01*
X132199371Y-63444115D01*
X132412076Y-63387120D01*
X132611654Y-63294056D01*
X132792038Y-63167749D01*
X132947749Y-63012038D01*
X133074056Y-62831654D01*
X133167120Y-62632076D01*
X133224115Y-62419371D01*
X133243307Y-62200000D01*
X133224115Y-61980629D01*
X133167120Y-61767924D01*
X133074056Y-61568347D01*
X132947749Y-61387962D01*
X132792038Y-61232251D01*
X132611654Y-61105944D01*
X132611650Y-61105942D01*
X132412079Y-61012881D01*
X132412073Y-61012879D01*
X132312891Y-60986303D01*
X132199371Y-60955885D01*
X131980000Y-60936693D01*
X131760629Y-60955885D01*
X131547926Y-61012879D01*
X131547920Y-61012881D01*
X131348346Y-61105944D01*
X131167965Y-61232248D01*
X131167959Y-61232253D01*
X131012253Y-61387959D01*
X131012248Y-61387965D01*
X130885944Y-61568346D01*
X130792881Y-61767920D01*
X130792879Y-61767926D01*
X130753414Y-61915212D01*
X130735885Y-61980629D01*
X130716693Y-62200000D01*
X129588858Y-62200000D01*
X129588858Y-62199996D01*
X129569474Y-62003190D01*
X129512062Y-61813925D01*
X129418834Y-61639508D01*
X129374327Y-61585277D01*
X128938560Y-62021043D01*
X128900080Y-61954394D01*
X128825606Y-61879920D01*
X128758955Y-61841439D01*
X129194721Y-61405672D01*
X129140491Y-61361165D01*
X128966074Y-61267937D01*
X128776809Y-61210525D01*
X128580003Y-61191142D01*
X128579997Y-61191142D01*
X128383190Y-61210525D01*
X128193925Y-61267937D01*
X128019508Y-61361165D01*
X127965276Y-61405672D01*
X128401043Y-61841439D01*
X128334394Y-61879920D01*
X128259920Y-61954394D01*
X128221439Y-62021045D01*
X127785671Y-61585277D01*
X127741165Y-61639508D01*
X127647937Y-61813925D01*
X127590525Y-62003191D01*
X127590506Y-62003385D01*
X127590466Y-62003481D01*
X127589317Y-62009261D01*
X127588220Y-62009042D01*
X127563915Y-62069214D01*
X127505956Y-62110217D01*
X127435029Y-62113376D01*
X127376019Y-62080115D01*
X124588835Y-59292931D01*
X124588833Y-59292929D01*
X124485075Y-59223600D01*
X124369785Y-59175845D01*
X124296086Y-59161185D01*
X124247396Y-59151500D01*
X124247394Y-59151500D01*
X107917394Y-59151500D01*
X107792606Y-59151500D01*
X107792603Y-59151500D01*
X107719568Y-59166028D01*
X107670215Y-59175845D01*
X107670213Y-59175845D01*
X107670212Y-59175846D01*
X107554923Y-59223601D01*
X107451168Y-59292928D01*
X107451166Y-59292929D01*
X107137794Y-59606301D01*
X107075482Y-59640326D01*
X107019781Y-59639382D01*
X107019776Y-59639414D01*
X107019563Y-59639378D01*
X107017764Y-59639348D01*
X107014642Y-59638557D01*
X106969968Y-59631102D01*
X106792569Y-59601500D01*
X106567431Y-59601500D01*
X106440664Y-59622653D01*
X106345356Y-59638557D01*
X106342227Y-59639350D01*
X106340905Y-59639300D01*
X106340224Y-59639414D01*
X106340200Y-59639273D01*
X106271281Y-59636681D01*
X106222204Y-59606300D01*
X105908835Y-59292931D01*
X105908833Y-59292929D01*
X105805075Y-59223600D01*
X105689785Y-59175845D01*
X105616086Y-59161185D01*
X105567396Y-59151500D01*
X105567394Y-59151500D01*
X74477393Y-59151500D01*
X74352606Y-59151500D01*
X74352603Y-59151500D01*
X74279568Y-59166028D01*
X74230215Y-59175845D01*
X74230213Y-59175845D01*
X74230212Y-59175846D01*
X74114923Y-59223601D01*
X74011171Y-59292926D01*
X74011164Y-59292931D01*
X71607931Y-61696164D01*
X71607926Y-61696171D01*
X71566889Y-61757588D01*
X71538600Y-61799925D01*
X71532801Y-61813925D01*
X71490846Y-61915212D01*
X71466500Y-62037603D01*
X71466500Y-69597474D01*
X71446498Y-69665595D01*
X71434137Y-69681784D01*
X71360957Y-69763059D01*
X71265476Y-69928438D01*
X71265473Y-69928445D01*
X71206457Y-70110072D01*
X71186496Y-70300000D01*
X71206457Y-70489927D01*
X71228382Y-70557404D01*
X71265473Y-70671556D01*
X71265476Y-70671561D01*
X71360958Y-70836941D01*
X71360965Y-70836951D01*
X71488744Y-70978864D01*
X71488747Y-70978866D01*
X71643248Y-71091118D01*
X71817712Y-71168794D01*
X72004513Y-71208500D01*
X72195487Y-71208500D01*
X72382288Y-71168794D01*
X72556752Y-71091118D01*
X72711253Y-70978866D01*
X72804373Y-70875446D01*
X72839034Y-70836951D01*
X72839035Y-70836949D01*
X72839040Y-70836944D01*
X72934527Y-70671556D01*
X72993542Y-70489928D01*
X73013504Y-70300000D01*
X72993542Y-70110072D01*
X72934527Y-69928444D01*
X72839040Y-69763056D01*
X72765863Y-69681784D01*
X72735146Y-69617776D01*
X72733500Y-69597474D01*
X72733500Y-62414594D01*
X72753502Y-62346473D01*
X72770405Y-62325499D01*
X74640499Y-60455405D01*
X74702811Y-60421379D01*
X74729594Y-60418500D01*
X102713860Y-60418500D01*
X102781981Y-60438502D01*
X102828474Y-60492158D01*
X102838578Y-60562432D01*
X102836004Y-60575431D01*
X102795437Y-60735624D01*
X102795436Y-60735630D01*
X102795436Y-60735632D01*
X102776844Y-60960000D01*
X102788937Y-61105944D01*
X102795437Y-61184375D01*
X102850702Y-61402612D01*
X102850703Y-61402613D01*
X102850704Y-61402616D01*
X102858761Y-61420984D01*
X102867807Y-61491402D01*
X102837346Y-61555532D01*
X102777049Y-61593013D01*
X102743373Y-61597597D01*
X77230299Y-61597597D01*
X77157264Y-61612125D01*
X77107911Y-61621942D01*
X77107909Y-61621942D01*
X77107908Y-61621943D01*
X76992619Y-61669698D01*
X76888867Y-61739023D01*
X76888860Y-61739028D01*
X74107931Y-64519957D01*
X74107926Y-64519964D01*
X74049489Y-64607422D01*
X74038600Y-64623718D01*
X74031364Y-64641187D01*
X73991316Y-64737872D01*
X73990845Y-64739008D01*
X73987273Y-64756966D01*
X73966500Y-64861396D01*
X73966500Y-71097474D01*
X73946498Y-71165595D01*
X73934137Y-71181784D01*
X73860957Y-71263059D01*
X73765476Y-71428438D01*
X73765473Y-71428445D01*
X73706457Y-71610072D01*
X73686496Y-71800000D01*
X73706457Y-71989927D01*
X73725212Y-72047646D01*
X73765473Y-72171556D01*
X73786803Y-72208500D01*
X73860958Y-72336941D01*
X73860965Y-72336951D01*
X73988744Y-72478864D01*
X73988747Y-72478866D01*
X74143248Y-72591118D01*
X74317712Y-72668794D01*
X74504513Y-72708500D01*
X74695487Y-72708500D01*
X74882288Y-72668794D01*
X75056752Y-72591118D01*
X75211253Y-72478866D01*
X75211255Y-72478864D01*
X75339034Y-72336951D01*
X75339035Y-72336949D01*
X75339040Y-72336944D01*
X75434527Y-72171556D01*
X75493542Y-71989928D01*
X75513504Y-71800000D01*
X75493542Y-71610072D01*
X75434527Y-71428444D01*
X75360370Y-71300000D01*
X82886496Y-71300000D01*
X82906457Y-71489927D01*
X82923193Y-71541432D01*
X82965473Y-71671556D01*
X82965476Y-71671561D01*
X83060958Y-71836941D01*
X83060965Y-71836951D01*
X83188744Y-71978864D01*
X83188747Y-71978866D01*
X83343248Y-72091118D01*
X83517712Y-72168794D01*
X83704513Y-72208500D01*
X83895487Y-72208500D01*
X84082288Y-72168794D01*
X84256752Y-72091118D01*
X84411253Y-71978866D01*
X84414563Y-71975190D01*
X84475009Y-71937950D01*
X84508200Y-71933500D01*
X98262393Y-71933500D01*
X98262394Y-71933500D01*
X98384785Y-71909155D01*
X98500075Y-71861400D01*
X98603833Y-71792071D01*
X103685499Y-66710405D01*
X103747811Y-66676379D01*
X103774594Y-66673500D01*
X105091800Y-66673500D01*
X105159921Y-66693502D01*
X105185437Y-66715190D01*
X105188747Y-66718866D01*
X105343248Y-66831118D01*
X105517712Y-66908794D01*
X105704513Y-66948500D01*
X105895487Y-66948500D01*
X106082288Y-66908794D01*
X106256752Y-66831118D01*
X106411253Y-66718866D01*
X106414563Y-66715190D01*
X106539034Y-66576951D01*
X106539035Y-66576949D01*
X106539040Y-66576944D01*
X106634527Y-66411556D01*
X106693542Y-66229928D01*
X106713504Y-66040000D01*
X106693542Y-65850072D01*
X106634527Y-65668444D01*
X106539040Y-65503056D01*
X106539038Y-65503054D01*
X106539034Y-65503048D01*
X106411255Y-65361135D01*
X106256752Y-65248882D01*
X106082288Y-65171206D01*
X105895487Y-65131500D01*
X105704513Y-65131500D01*
X105517711Y-65171206D01*
X105343247Y-65248882D01*
X105188747Y-65361133D01*
X105185437Y-65364810D01*
X105124991Y-65402050D01*
X105091800Y-65406500D01*
X103397603Y-65406500D01*
X103324568Y-65421028D01*
X103275215Y-65430845D01*
X103275213Y-65430845D01*
X103275212Y-65430846D01*
X103213774Y-65456295D01*
X103182648Y-65469188D01*
X103159923Y-65478601D01*
X103056171Y-65547926D01*
X103056164Y-65547931D01*
X97974501Y-70629595D01*
X97912189Y-70663621D01*
X97885406Y-70666500D01*
X84508200Y-70666500D01*
X84440079Y-70646498D01*
X84414563Y-70624810D01*
X84411252Y-70621133D01*
X84256752Y-70508882D01*
X84082288Y-70431206D01*
X83895487Y-70391500D01*
X83704513Y-70391500D01*
X83517711Y-70431206D01*
X83343247Y-70508882D01*
X83188744Y-70621135D01*
X83060965Y-70763048D01*
X83060958Y-70763058D01*
X82965476Y-70928438D01*
X82965473Y-70928445D01*
X82906457Y-71110072D01*
X82886496Y-71300000D01*
X75360370Y-71300000D01*
X75339042Y-71263059D01*
X75339041Y-71263058D01*
X75339040Y-71263056D01*
X75265863Y-71181784D01*
X75235146Y-71117776D01*
X75233500Y-71097474D01*
X75233500Y-65238386D01*
X75253502Y-65170265D01*
X75270400Y-65149296D01*
X76581319Y-63838376D01*
X76643629Y-63804353D01*
X76714444Y-63809417D01*
X76771280Y-63851964D01*
X76796091Y-63918484D01*
X76795933Y-63938454D01*
X76768348Y-64253759D01*
X76768348Y-64253767D01*
X76769555Y-64314658D01*
X76769556Y-64314662D01*
X76808519Y-64455595D01*
X76808521Y-64455599D01*
X76885612Y-64579846D01*
X76885613Y-64579847D01*
X76994587Y-64677343D01*
X77126615Y-64740189D01*
X77186381Y-64751954D01*
X78976817Y-64908597D01*
X79037717Y-64907389D01*
X79158112Y-64874102D01*
X79178650Y-64868425D01*
X79178650Y-64868424D01*
X79178653Y-64868424D01*
X79302902Y-64791332D01*
X79400398Y-64682358D01*
X79452940Y-64571976D01*
X79500275Y-64519069D01*
X79568705Y-64500150D01*
X79636500Y-64521230D01*
X79659407Y-64540796D01*
X79807098Y-64701229D01*
X79857154Y-64740189D01*
X79984760Y-64839510D01*
X80182762Y-64946663D01*
X80182763Y-64946663D01*
X80182764Y-64946664D01*
X80275025Y-64978337D01*
X80395701Y-65019765D01*
X80617767Y-65056821D01*
X80617771Y-65056821D01*
X80842901Y-65056821D01*
X80842905Y-65056821D01*
X81064971Y-65019765D01*
X81277910Y-64946663D01*
X81475912Y-64839510D01*
X81653576Y-64701227D01*
X81806058Y-64535589D01*
X81823096Y-64509510D01*
X81877096Y-64463422D01*
X81947443Y-64453844D01*
X82011802Y-64483820D01*
X82043966Y-64527810D01*
X82061808Y-64568486D01*
X82184944Y-64756961D01*
X82184948Y-64756966D01*
X82296957Y-64878638D01*
X82324535Y-64908596D01*
X82337431Y-64922604D01*
X82375534Y-64952261D01*
X82515093Y-65060885D01*
X82713095Y-65168038D01*
X82713096Y-65168038D01*
X82713097Y-65168039D01*
X82786567Y-65193261D01*
X82926034Y-65241140D01*
X83148100Y-65278196D01*
X83148104Y-65278196D01*
X83373234Y-65278196D01*
X83373238Y-65278196D01*
X83595304Y-65241140D01*
X83808243Y-65168038D01*
X84006245Y-65060885D01*
X84183909Y-64922602D01*
X84336391Y-64756964D01*
X84353430Y-64730882D01*
X84407431Y-64684795D01*
X84477778Y-64675218D01*
X84542136Y-64705194D01*
X84574300Y-64749184D01*
X84592143Y-64789862D01*
X84715279Y-64978337D01*
X84715283Y-64978342D01*
X84867766Y-65143980D01*
X84898676Y-65168038D01*
X85045428Y-65282261D01*
X85243430Y-65389414D01*
X85243431Y-65389414D01*
X85243432Y-65389415D01*
X85309681Y-65412158D01*
X85456369Y-65462516D01*
X85678435Y-65499572D01*
X85678439Y-65499572D01*
X85903569Y-65499572D01*
X85903573Y-65499572D01*
X86125639Y-65462516D01*
X86338578Y-65389414D01*
X86536580Y-65282261D01*
X86714244Y-65143978D01*
X86866726Y-64978340D01*
X86883764Y-64952260D01*
X86937768Y-64906172D01*
X87008115Y-64896596D01*
X87072473Y-64926573D01*
X87104635Y-64970561D01*
X87122477Y-65011237D01*
X87245613Y-65199712D01*
X87245617Y-65199717D01*
X87398100Y-65365355D01*
X87445246Y-65402050D01*
X87575762Y-65503636D01*
X87773764Y-65610789D01*
X87773765Y-65610789D01*
X87773766Y-65610790D01*
X87885565Y-65649170D01*
X87986703Y-65683891D01*
X88208769Y-65720947D01*
X88208773Y-65720947D01*
X88433903Y-65720947D01*
X88433907Y-65720947D01*
X88655973Y-65683891D01*
X88868912Y-65610789D01*
X89066914Y-65503636D01*
X89244578Y-65365353D01*
X89397060Y-65199715D01*
X89414099Y-65173633D01*
X89468100Y-65127546D01*
X89538447Y-65117969D01*
X89602805Y-65147945D01*
X89634969Y-65191935D01*
X89652812Y-65232613D01*
X89775948Y-65421088D01*
X89775952Y-65421093D01*
X89928435Y-65586731D01*
X89959345Y-65610789D01*
X90106097Y-65725012D01*
X90304099Y-65832165D01*
X90304100Y-65832165D01*
X90304101Y-65832166D01*
X90356260Y-65850072D01*
X90517038Y-65905267D01*
X90739104Y-65942323D01*
X90739108Y-65942323D01*
X90964238Y-65942323D01*
X90964242Y-65942323D01*
X91186308Y-65905267D01*
X91399247Y-65832165D01*
X91597249Y-65725012D01*
X91774913Y-65586729D01*
X91927395Y-65421091D01*
X92050533Y-65232614D01*
X92094981Y-65131281D01*
X92140661Y-65076934D01*
X92208474Y-65055910D01*
X92276887Y-65074886D01*
X92324182Y-65127836D01*
X92331558Y-65147415D01*
X92348144Y-65205710D01*
X92348150Y-65205727D01*
X92439344Y-65388867D01*
X92439346Y-65388870D01*
X92458541Y-65414289D01*
X92928596Y-65019867D01*
X92981908Y-65112206D01*
X93075000Y-65205298D01*
X93091446Y-65214793D01*
X92623401Y-65607531D01*
X92713848Y-65689985D01*
X92887803Y-65797692D01*
X92887810Y-65797695D01*
X93078584Y-65871602D01*
X93078583Y-65871602D01*
X93279708Y-65909199D01*
X93484306Y-65909199D01*
X93685430Y-65871602D01*
X93876204Y-65797695D01*
X93876219Y-65797688D01*
X93989935Y-65727277D01*
X93989936Y-65727277D01*
X93596676Y-65258608D01*
X93689014Y-65205298D01*
X93782106Y-65112206D01*
X93791602Y-65095758D01*
X94186176Y-65565993D01*
X94201369Y-65552144D01*
X94324667Y-65388870D01*
X94324668Y-65388869D01*
X94357475Y-65322984D01*
X94405744Y-65270920D01*
X94474498Y-65253217D01*
X94541908Y-65275496D01*
X94586573Y-65330683D01*
X94592410Y-65348214D01*
X94623045Y-65469188D01*
X94627174Y-65478601D01*
X94683727Y-65607531D01*
X94713483Y-65675367D01*
X94836617Y-65863839D01*
X94836621Y-65863844D01*
X94989104Y-66029482D01*
X95002618Y-66040000D01*
X95166766Y-66167763D01*
X95364768Y-66274916D01*
X95364769Y-66274916D01*
X95364770Y-66274917D01*
X95435638Y-66299245D01*
X95497598Y-66320516D01*
X95545781Y-66350594D01*
X97124595Y-67929408D01*
X97158621Y-67991720D01*
X97161500Y-68018503D01*
X97161500Y-68525784D01*
X97160810Y-68538954D01*
X97156496Y-68579999D01*
X97160810Y-68621045D01*
X97161500Y-68634215D01*
X97161500Y-68669483D01*
X97169702Y-68710715D01*
X97171432Y-68722122D01*
X97176457Y-68769925D01*
X97176459Y-68769933D01*
X97187111Y-68802716D01*
X97190856Y-68817067D01*
X97196412Y-68844995D01*
X97196413Y-68845000D01*
X97215100Y-68890114D01*
X97218523Y-68899393D01*
X97235473Y-68951557D01*
X97249311Y-68975524D01*
X97256601Y-68990307D01*
X97264895Y-69010331D01*
X97264897Y-69010335D01*
X97264898Y-69010336D01*
X97295790Y-69056570D01*
X97295798Y-69056581D01*
X97300152Y-69063583D01*
X97330958Y-69116942D01*
X97330960Y-69116944D01*
X97344930Y-69132459D01*
X97356055Y-69146762D01*
X97364322Y-69159135D01*
X97408460Y-69203273D01*
X97412984Y-69208041D01*
X97458744Y-69258864D01*
X97458747Y-69258866D01*
X97470117Y-69267127D01*
X97470126Y-69267133D01*
X97485161Y-69279974D01*
X97490865Y-69285678D01*
X97548366Y-69324098D01*
X97552420Y-69326923D01*
X97613248Y-69371118D01*
X97619880Y-69374071D01*
X97638626Y-69384409D01*
X97639662Y-69385101D01*
X97639663Y-69385101D01*
X97639664Y-69385102D01*
X97709862Y-69414178D01*
X97712847Y-69415461D01*
X97787712Y-69448794D01*
X97788113Y-69448879D01*
X97798936Y-69452242D01*
X97799074Y-69451789D01*
X97805003Y-69453588D01*
X97835271Y-69459608D01*
X97886244Y-69469746D01*
X97887607Y-69470027D01*
X97974513Y-69488500D01*
X97974515Y-69488500D01*
X98165486Y-69488500D01*
X98165487Y-69488500D01*
X98252391Y-69470026D01*
X98253753Y-69469746D01*
X98335000Y-69453587D01*
X98335008Y-69453583D01*
X98340931Y-69451787D01*
X98341070Y-69452246D01*
X98351886Y-69448879D01*
X98352288Y-69448794D01*
X98427206Y-69415437D01*
X98430107Y-69414190D01*
X98500336Y-69385102D01*
X98501374Y-69384408D01*
X98520122Y-69374069D01*
X98526752Y-69371118D01*
X98587596Y-69326910D01*
X98591633Y-69324098D01*
X98649135Y-69285678D01*
X98654840Y-69279971D01*
X98669868Y-69267136D01*
X98681253Y-69258866D01*
X98727053Y-69207998D01*
X98731520Y-69203291D01*
X98775678Y-69159135D01*
X98783942Y-69146764D01*
X98795069Y-69132459D01*
X98809040Y-69116944D01*
X98839859Y-69063562D01*
X98844185Y-69056604D01*
X98875102Y-69010336D01*
X98883398Y-68990304D01*
X98890691Y-68975519D01*
X98904523Y-68951563D01*
X98904523Y-68951562D01*
X98904527Y-68951556D01*
X98921481Y-68899373D01*
X98924885Y-68890148D01*
X98943587Y-68845000D01*
X98949143Y-68817063D01*
X98952886Y-68802720D01*
X98963542Y-68769928D01*
X98968565Y-68722128D01*
X98970296Y-68710720D01*
X98970297Y-68710715D01*
X98978500Y-68669479D01*
X98978500Y-68634215D01*
X98979190Y-68621045D01*
X98983504Y-68580000D01*
X98979190Y-68538954D01*
X98978500Y-68525784D01*
X98978500Y-67500522D01*
X98978499Y-67500518D01*
X98943587Y-67325000D01*
X98875102Y-67159664D01*
X98775678Y-67010865D01*
X98649135Y-66884322D01*
X97258801Y-65493988D01*
X97224775Y-65431676D01*
X97225751Y-65373963D01*
X97256906Y-65250942D01*
X97275498Y-65026574D01*
X97256906Y-64802206D01*
X97245448Y-64756961D01*
X97201639Y-64583961D01*
X97201638Y-64583960D01*
X97201638Y-64583958D01*
X97111202Y-64377783D01*
X97091164Y-64347112D01*
X96988066Y-64189308D01*
X96988062Y-64189303D01*
X96835579Y-64023665D01*
X96753724Y-63959955D01*
X96657918Y-63885385D01*
X96459916Y-63778232D01*
X96459914Y-63778231D01*
X96459913Y-63778230D01*
X96246981Y-63705131D01*
X96246972Y-63705129D01*
X96174243Y-63692993D01*
X96024911Y-63668074D01*
X95799773Y-63668074D01*
X95658165Y-63691704D01*
X95577711Y-63705129D01*
X95577702Y-63705131D01*
X95364770Y-63778230D01*
X95364768Y-63778232D01*
X95316501Y-63804353D01*
X95166768Y-63885384D01*
X95166766Y-63885385D01*
X94989104Y-64023665D01*
X94836621Y-64189303D01*
X94836617Y-64189308D01*
X94713481Y-64377783D01*
X94669033Y-64479116D01*
X94623352Y-64533464D01*
X94555540Y-64554488D01*
X94487126Y-64535512D01*
X94439832Y-64482561D01*
X94432456Y-64462983D01*
X94415869Y-64404687D01*
X94415866Y-64404679D01*
X94324666Y-64221526D01*
X94305470Y-64196106D01*
X93835416Y-64590528D01*
X93782106Y-64498192D01*
X93689014Y-64405100D01*
X93672564Y-64395603D01*
X94140611Y-64002865D01*
X94050168Y-63920414D01*
X93876210Y-63812705D01*
X93876203Y-63812702D01*
X93685429Y-63738795D01*
X93685430Y-63738795D01*
X93484306Y-63701199D01*
X93279708Y-63701199D01*
X93078583Y-63738795D01*
X92887810Y-63812702D01*
X92887798Y-63812708D01*
X92774076Y-63883119D01*
X93167337Y-64351789D01*
X93075000Y-64405100D01*
X92981908Y-64498192D01*
X92972411Y-64514639D01*
X92577836Y-64044403D01*
X92562647Y-64058250D01*
X92562643Y-64058254D01*
X92439346Y-64221527D01*
X92439345Y-64221528D01*
X92406538Y-64287414D01*
X92358269Y-64339477D01*
X92289515Y-64357179D01*
X92222104Y-64334899D01*
X92177440Y-64279712D01*
X92171604Y-64262181D01*
X92140970Y-64141210D01*
X92140969Y-64141209D01*
X92140969Y-64141207D01*
X92050533Y-63935032D01*
X92018097Y-63885385D01*
X91927397Y-63746557D01*
X91927393Y-63746552D01*
X91786580Y-63593591D01*
X91774913Y-63580917D01*
X91774912Y-63580916D01*
X91774910Y-63580914D01*
X91670952Y-63500000D01*
X91597249Y-63442634D01*
X91399247Y-63335481D01*
X91399245Y-63335480D01*
X91399244Y-63335479D01*
X91186312Y-63262380D01*
X91186303Y-63262378D01*
X91142149Y-63255010D01*
X90964242Y-63225323D01*
X90739104Y-63225323D01*
X90590884Y-63250056D01*
X90517042Y-63262378D01*
X90517033Y-63262380D01*
X90304101Y-63335479D01*
X90304099Y-63335481D01*
X90107247Y-63442012D01*
X90106099Y-63442633D01*
X90106097Y-63442634D01*
X89928435Y-63580914D01*
X89775952Y-63746552D01*
X89775949Y-63746556D01*
X89758910Y-63772637D01*
X89704906Y-63818724D01*
X89634558Y-63828299D01*
X89570201Y-63798320D01*
X89538040Y-63754333D01*
X89520198Y-63713656D01*
X89466308Y-63631171D01*
X89397062Y-63525181D01*
X89397058Y-63525176D01*
X89280908Y-63399006D01*
X89244578Y-63359541D01*
X89244577Y-63359540D01*
X89244575Y-63359538D01*
X89136773Y-63275632D01*
X89066914Y-63221258D01*
X88868912Y-63114105D01*
X88868909Y-63114104D01*
X88868908Y-63114103D01*
X88856285Y-63109770D01*
X88798350Y-63068733D01*
X88771798Y-63002888D01*
X88785059Y-62933141D01*
X88833924Y-62881636D01*
X88897197Y-62864597D01*
X103019601Y-62864597D01*
X103087722Y-62884599D01*
X103134215Y-62938255D01*
X103144319Y-63008529D01*
X103132392Y-63046760D01*
X103106140Y-63099480D01*
X103106138Y-63099485D01*
X103050148Y-63296269D01*
X103031270Y-63500000D01*
X103050148Y-63703730D01*
X103106138Y-63900514D01*
X103106140Y-63900519D01*
X103197339Y-64083672D01*
X103274518Y-64185874D01*
X103274520Y-64185874D01*
X103708234Y-63752159D01*
X103739901Y-63807007D01*
X103832993Y-63900099D01*
X103887839Y-63931764D01*
X103452473Y-64367130D01*
X103471837Y-64384783D01*
X103471839Y-64384784D01*
X103645796Y-64492493D01*
X103645803Y-64492496D01*
X103836577Y-64566403D01*
X103836576Y-64566403D01*
X104037701Y-64604000D01*
X104242299Y-64604000D01*
X104443423Y-64566403D01*
X104634196Y-64492496D01*
X104634203Y-64492493D01*
X104808161Y-64384783D01*
X104827525Y-64367129D01*
X104392160Y-63931764D01*
X104447007Y-63900099D01*
X104540099Y-63807007D01*
X104571765Y-63752159D01*
X105005479Y-64185874D01*
X105005480Y-64185874D01*
X105082661Y-64083671D01*
X105082661Y-64083670D01*
X105159454Y-63929448D01*
X105207723Y-63877384D01*
X105276477Y-63859681D01*
X105343888Y-63881960D01*
X105388552Y-63937147D01*
X105390139Y-63941329D01*
X105481141Y-64148793D01*
X105604275Y-64337265D01*
X105604279Y-64337270D01*
X105666342Y-64404687D01*
X105752420Y-64498192D01*
X105756762Y-64502908D01*
X105809667Y-64544086D01*
X105934424Y-64641189D01*
X106132426Y-64748342D01*
X106132427Y-64748342D01*
X106132428Y-64748343D01*
X106215671Y-64776920D01*
X106345365Y-64821444D01*
X106567431Y-64858500D01*
X106567435Y-64858500D01*
X106792565Y-64858500D01*
X106792569Y-64858500D01*
X107014635Y-64821444D01*
X107227574Y-64748342D01*
X107425576Y-64641189D01*
X107603240Y-64502906D01*
X107755722Y-64337268D01*
X107844518Y-64201354D01*
X107898520Y-64155268D01*
X107968868Y-64145692D01*
X108033225Y-64175669D01*
X108055480Y-64201353D01*
X108088607Y-64252058D01*
X108144275Y-64337265D01*
X108144279Y-64337270D01*
X108206342Y-64404687D01*
X108292420Y-64498192D01*
X108296762Y-64502908D01*
X108349667Y-64544086D01*
X108474424Y-64641189D01*
X108672426Y-64748342D01*
X108672427Y-64748342D01*
X108672428Y-64748343D01*
X108755671Y-64776920D01*
X108885365Y-64821444D01*
X109107431Y-64858500D01*
X109107435Y-64858500D01*
X109332565Y-64858500D01*
X109332569Y-64858500D01*
X109554635Y-64821444D01*
X109767574Y-64748342D01*
X109965576Y-64641189D01*
X110143240Y-64502906D01*
X110295722Y-64337268D01*
X110418860Y-64148791D01*
X110509296Y-63942616D01*
X110564564Y-63724368D01*
X110583156Y-63500000D01*
X110564564Y-63275632D01*
X110520063Y-63099901D01*
X110509297Y-63057387D01*
X110509294Y-63057380D01*
X110502110Y-63041003D01*
X110460049Y-62945113D01*
X110451003Y-62874696D01*
X110481463Y-62810566D01*
X110541760Y-62773084D01*
X110575437Y-62768500D01*
X111927393Y-62768500D01*
X111927394Y-62768500D01*
X112049785Y-62744155D01*
X112165075Y-62696400D01*
X112268833Y-62627071D01*
X112925499Y-61970405D01*
X112987811Y-61936379D01*
X113014594Y-61933500D01*
X113666404Y-61933500D01*
X113734525Y-61953502D01*
X113781018Y-62007158D01*
X113791122Y-62077432D01*
X113761628Y-62142012D01*
X113755499Y-62148595D01*
X112496167Y-63407929D01*
X112407931Y-63496164D01*
X112407926Y-63496171D01*
X112338601Y-63599923D01*
X112296651Y-63701199D01*
X112290845Y-63715215D01*
X112286155Y-63738795D01*
X112266500Y-63837603D01*
X112266500Y-86885405D01*
X112246498Y-86953526D01*
X112229595Y-86974500D01*
X109608595Y-89595500D01*
X109546283Y-89629526D01*
X109475468Y-89624461D01*
X109418632Y-89581914D01*
X109393821Y-89515394D01*
X109393500Y-89506405D01*
X109393500Y-87898867D01*
X109393499Y-87898850D01*
X109386990Y-87838303D01*
X109386988Y-87838295D01*
X109357924Y-87760375D01*
X109335889Y-87701296D01*
X109335888Y-87701294D01*
X109335887Y-87701292D01*
X109248261Y-87584238D01*
X109131207Y-87496612D01*
X109131202Y-87496610D01*
X108994204Y-87445511D01*
X108994196Y-87445509D01*
X108933649Y-87439000D01*
X108933638Y-87439000D01*
X108863940Y-87439000D01*
X108795819Y-87418998D01*
X108749326Y-87365342D01*
X108739222Y-87295068D01*
X108768716Y-87230488D01*
X108774845Y-87223905D01*
X108852762Y-87145987D01*
X108852765Y-87145984D01*
X108964389Y-86992347D01*
X109050606Y-86823136D01*
X109050609Y-86823130D01*
X109109290Y-86642527D01*
X109133923Y-86487000D01*
X108420372Y-86487000D01*
X108435000Y-86432409D01*
X108435000Y-86287591D01*
X108420372Y-86233000D01*
X109133923Y-86233000D01*
X109109290Y-86077472D01*
X109050609Y-85896869D01*
X109050606Y-85896863D01*
X108964389Y-85727652D01*
X108852765Y-85574015D01*
X108718484Y-85439734D01*
X108577002Y-85336941D01*
X108533648Y-85280718D01*
X108527573Y-85209982D01*
X108560705Y-85147190D01*
X108593857Y-85122740D01*
X108698231Y-85069560D01*
X108884278Y-84934389D01*
X109046889Y-84771778D01*
X109182060Y-84585731D01*
X109286462Y-84380829D01*
X109357526Y-84162118D01*
X109393500Y-83934983D01*
X109393500Y-83705017D01*
X109357526Y-83477882D01*
X109286462Y-83259171D01*
X109182060Y-83054269D01*
X109046889Y-82868222D01*
X109046886Y-82868219D01*
X109046884Y-82868216D01*
X108884283Y-82705615D01*
X108884280Y-82705613D01*
X108884278Y-82705611D01*
X108698231Y-82570440D01*
X108663086Y-82552533D01*
X108493336Y-82466041D01*
X108493332Y-82466039D01*
X108493329Y-82466038D01*
X108377806Y-82428502D01*
X108274620Y-82394974D01*
X108161050Y-82376987D01*
X108047483Y-82359000D01*
X107722517Y-82359000D01*
X107654681Y-82369744D01*
X107495379Y-82394974D01*
X107347940Y-82442881D01*
X107276671Y-82466038D01*
X107276669Y-82466038D01*
X107276663Y-82466041D01*
X107071768Y-82570440D01*
X106885719Y-82705613D01*
X106885716Y-82705615D01*
X106723115Y-82868216D01*
X106723113Y-82868219D01*
X106587940Y-83054268D01*
X106483541Y-83259163D01*
X106483538Y-83259172D01*
X106412474Y-83477879D01*
X106395358Y-83585947D01*
X106376500Y-83705017D01*
X106376500Y-83934983D01*
X106395134Y-84052633D01*
X106412474Y-84162120D01*
X106436789Y-84236951D01*
X106483538Y-84380829D01*
X106483539Y-84380832D01*
X106483541Y-84380836D01*
X106573364Y-84557123D01*
X106587940Y-84585731D01*
X106723111Y-84771778D01*
X106723113Y-84771780D01*
X106723115Y-84771783D01*
X106885716Y-84934384D01*
X106885719Y-84934386D01*
X106885722Y-84934389D01*
X107071769Y-85069560D01*
X107176138Y-85122738D01*
X107227754Y-85171486D01*
X107244820Y-85240401D01*
X107221920Y-85307602D01*
X107192998Y-85336941D01*
X107051511Y-85439738D01*
X106917234Y-85574015D01*
X106805610Y-85727652D01*
X106719393Y-85896863D01*
X106719390Y-85896869D01*
X106660709Y-86077472D01*
X106636077Y-86233000D01*
X107349628Y-86233000D01*
X107335000Y-86287591D01*
X107335000Y-86432409D01*
X107349628Y-86487000D01*
X106636077Y-86487000D01*
X106660709Y-86642527D01*
X106719390Y-86823130D01*
X106719393Y-86823136D01*
X106805610Y-86992347D01*
X106917234Y-87145984D01*
X106995155Y-87223905D01*
X107029181Y-87286217D01*
X107024116Y-87357032D01*
X106981569Y-87413868D01*
X106915049Y-87438679D01*
X106906060Y-87439000D01*
X106836350Y-87439000D01*
X106775803Y-87445509D01*
X106775795Y-87445511D01*
X106638797Y-87496610D01*
X106638792Y-87496612D01*
X106521738Y-87584238D01*
X106434112Y-87701292D01*
X106434110Y-87701296D01*
X106393740Y-87809533D01*
X106351194Y-87866369D01*
X106284673Y-87891179D01*
X106275685Y-87891500D01*
X104969925Y-87891500D01*
X104901804Y-87871498D01*
X104880830Y-87854595D01*
X96542883Y-79516649D01*
X96542881Y-79516647D01*
X96377704Y-79406279D01*
X96321692Y-79383078D01*
X96292065Y-79370806D01*
X96194174Y-79330258D01*
X96194169Y-79330256D01*
X95999331Y-79291500D01*
X95999329Y-79291500D01*
X89100671Y-79291500D01*
X89100668Y-79291500D01*
X88905830Y-79330256D01*
X88905825Y-79330258D01*
X88722296Y-79406279D01*
X88557123Y-79516644D01*
X88557121Y-79516645D01*
X87026301Y-81047464D01*
X87017142Y-81055765D01*
X86983431Y-81083431D01*
X86955769Y-81117137D01*
X86947470Y-81126294D01*
X86916648Y-81157117D01*
X86916647Y-81157119D01*
X86892430Y-81193361D01*
X86885066Y-81203289D01*
X86857410Y-81236988D01*
X86857404Y-81236997D01*
X86836848Y-81275453D01*
X86830494Y-81286053D01*
X86806279Y-81322295D01*
X86806278Y-81322297D01*
X86789596Y-81362569D01*
X86784312Y-81373741D01*
X86763757Y-81412197D01*
X86751102Y-81453918D01*
X86746937Y-81465560D01*
X86730257Y-81505828D01*
X86730254Y-81505836D01*
X86721750Y-81548588D01*
X86718748Y-81560575D01*
X86706090Y-81602305D01*
X86701818Y-81645684D01*
X86700004Y-81657913D01*
X86691500Y-81700663D01*
X86691500Y-81744264D01*
X86690893Y-81756615D01*
X86686620Y-81799998D01*
X86686620Y-81800001D01*
X86690893Y-81843383D01*
X86691500Y-81855734D01*
X86691500Y-81899329D01*
X86700005Y-81942085D01*
X86701819Y-81954319D01*
X86706090Y-81997695D01*
X86718748Y-82039424D01*
X86721751Y-82051411D01*
X86730256Y-82094168D01*
X86746943Y-82134454D01*
X86751102Y-82146079D01*
X86763759Y-82187804D01*
X86784312Y-82226256D01*
X86789592Y-82237420D01*
X86806279Y-82277705D01*
X86806280Y-82277707D01*
X86830494Y-82313946D01*
X86836849Y-82324548D01*
X86857405Y-82363004D01*
X86885066Y-82396709D01*
X86892432Y-82406641D01*
X86903790Y-82423640D01*
X86916647Y-82442881D01*
X86947470Y-82473704D01*
X86955766Y-82482857D01*
X86983432Y-82516568D01*
X87017149Y-82544239D01*
X87026289Y-82552523D01*
X87057119Y-82583353D01*
X87057122Y-82583355D01*
X87093352Y-82607563D01*
X87103285Y-82614929D01*
X87136997Y-82642596D01*
X87175446Y-82663147D01*
X87186054Y-82669505D01*
X87222293Y-82693720D01*
X87247442Y-82704136D01*
X87262563Y-82710400D01*
X87262566Y-82710401D01*
X87273746Y-82715689D01*
X87312188Y-82736237D01*
X87312190Y-82736237D01*
X87312196Y-82736241D01*
X87353923Y-82748898D01*
X87365557Y-82753061D01*
X87381574Y-82759696D01*
X87405828Y-82769743D01*
X87405831Y-82769743D01*
X87405832Y-82769744D01*
X87448594Y-82778249D01*
X87460577Y-82781251D01*
X87502299Y-82793908D01*
X87545691Y-82798181D01*
X87557907Y-82799993D01*
X87561107Y-82800629D01*
X87600671Y-82808500D01*
X87644266Y-82808500D01*
X87656614Y-82809106D01*
X87671867Y-82810609D01*
X87699998Y-82813380D01*
X87700000Y-82813380D01*
X87700002Y-82813380D01*
X87728132Y-82810609D01*
X87743385Y-82809106D01*
X87755734Y-82808500D01*
X87799325Y-82808500D01*
X87799329Y-82808500D01*
X87842076Y-82799996D01*
X87854307Y-82798182D01*
X87894016Y-82794270D01*
X87897701Y-82793908D01*
X87939426Y-82781249D01*
X87951408Y-82778248D01*
X87994168Y-82769744D01*
X88034459Y-82753054D01*
X88046064Y-82748901D01*
X88087804Y-82736241D01*
X88126260Y-82715685D01*
X88137412Y-82710409D01*
X88177704Y-82693721D01*
X88213947Y-82669502D01*
X88224552Y-82663147D01*
X88263004Y-82642595D01*
X88296728Y-82614916D01*
X88306633Y-82607571D01*
X88342881Y-82583353D01*
X88373712Y-82552520D01*
X88382854Y-82544235D01*
X88416568Y-82516568D01*
X88444239Y-82482849D01*
X88452514Y-82473718D01*
X89580831Y-81345402D01*
X89643141Y-81311379D01*
X89669924Y-81308500D01*
X95430076Y-81308500D01*
X95498197Y-81328502D01*
X95519170Y-81345404D01*
X103857119Y-89683354D01*
X104022297Y-89793722D01*
X104129269Y-89838031D01*
X104205831Y-89869744D01*
X104400671Y-89908500D01*
X104400672Y-89908500D01*
X104599329Y-89908500D01*
X106275685Y-89908500D01*
X106343806Y-89928502D01*
X106390299Y-89982158D01*
X106393740Y-89990467D01*
X106434110Y-90098703D01*
X106434112Y-90098707D01*
X106521738Y-90215761D01*
X106638792Y-90303387D01*
X106638794Y-90303388D01*
X106638796Y-90303389D01*
X106697875Y-90325424D01*
X106775795Y-90354488D01*
X106775803Y-90354490D01*
X106836350Y-90360999D01*
X106836355Y-90360999D01*
X106836362Y-90361000D01*
X108538906Y-90361000D01*
X108607027Y-90381002D01*
X108653520Y-90434658D01*
X108663624Y-90504932D01*
X108634130Y-90569512D01*
X108628001Y-90576095D01*
X107769501Y-91434595D01*
X107707189Y-91468621D01*
X107680406Y-91471500D01*
X64932600Y-91471500D01*
X64810217Y-91495844D01*
X64810209Y-91495846D01*
X64776447Y-91509830D01*
X64776447Y-91509831D01*
X64724844Y-91531206D01*
X64694925Y-91543599D01*
X64591171Y-91612925D01*
X64591164Y-91612930D01*
X58149501Y-98054595D01*
X58087189Y-98088621D01*
X58060406Y-98091500D01*
X58004513Y-98091500D01*
X57817711Y-98131206D01*
X57643247Y-98208882D01*
X57488744Y-98321135D01*
X57360965Y-98463048D01*
X57360958Y-98463058D01*
X57265476Y-98628438D01*
X57265473Y-98628445D01*
X57206457Y-98810072D01*
X57189092Y-98975292D01*
X57162079Y-99040949D01*
X57152878Y-99051216D01*
X56449501Y-99754595D01*
X56387188Y-99788620D01*
X56360405Y-99791500D01*
X55708594Y-99791500D01*
X55640473Y-99771498D01*
X55593980Y-99717842D01*
X55583876Y-99647568D01*
X55613370Y-99582988D01*
X55619499Y-99576405D01*
X59787837Y-95408068D01*
X64125500Y-91070405D01*
X64187812Y-91036379D01*
X64214595Y-91033500D01*
X84562393Y-91033500D01*
X84562394Y-91033500D01*
X84563726Y-91033234D01*
X84675909Y-91010921D01*
X84700490Y-91008500D01*
X84895487Y-91008500D01*
X85082288Y-90968794D01*
X85256752Y-90891118D01*
X85411253Y-90778866D01*
X85539040Y-90636944D01*
X85634527Y-90471556D01*
X85693542Y-90289928D01*
X85713504Y-90100000D01*
X85693542Y-89910072D01*
X85634527Y-89728444D01*
X85539040Y-89563056D01*
X85539038Y-89563054D01*
X85539034Y-89563048D01*
X85411255Y-89421135D01*
X85256752Y-89308882D01*
X85082288Y-89231206D01*
X84895487Y-89191500D01*
X84704513Y-89191500D01*
X84517711Y-89231206D01*
X84343247Y-89308882D01*
X84188744Y-89421135D01*
X84060965Y-89563048D01*
X84060958Y-89563058D01*
X83979874Y-89703500D01*
X83928491Y-89752493D01*
X83870755Y-89766500D01*
X63837603Y-89766500D01*
X63715214Y-89790845D01*
X63715209Y-89790847D01*
X63599924Y-89838599D01*
X63496171Y-89907925D01*
X63496164Y-89907930D01*
X54549501Y-98854595D01*
X54487189Y-98888621D01*
X54460406Y-98891500D01*
X53771893Y-98891500D01*
X53703772Y-98871498D01*
X53657279Y-98817842D01*
X53647175Y-98747568D01*
X53676669Y-98682988D01*
X53682798Y-98676405D01*
X58196146Y-94163058D01*
X62885430Y-89473774D01*
X62947742Y-89439748D01*
X62974525Y-89436869D01*
X82359024Y-89436869D01*
X82359025Y-89436869D01*
X82481416Y-89412524D01*
X82481417Y-89412523D01*
X82487487Y-89411316D01*
X82487684Y-89412310D01*
X82513371Y-89408500D01*
X82695487Y-89408500D01*
X82882288Y-89368794D01*
X83056752Y-89291118D01*
X83211253Y-89178866D01*
X83307871Y-89071561D01*
X83339034Y-89036951D01*
X83339035Y-89036949D01*
X83339040Y-89036944D01*
X83434527Y-88871556D01*
X83493542Y-88689928D01*
X83513504Y-88500000D01*
X83493542Y-88310072D01*
X83434527Y-88128444D01*
X83339040Y-87963056D01*
X83339038Y-87963054D01*
X83339034Y-87963048D01*
X83211255Y-87821135D01*
X83056752Y-87708882D01*
X82882288Y-87631206D01*
X82695487Y-87591500D01*
X82504513Y-87591500D01*
X82317711Y-87631206D01*
X82143247Y-87708882D01*
X81988744Y-87821135D01*
X81860965Y-87963048D01*
X81860958Y-87963058D01*
X81777929Y-88106869D01*
X81726546Y-88155862D01*
X81668810Y-88169869D01*
X71742153Y-88169869D01*
X71674032Y-88149867D01*
X71627539Y-88096211D01*
X71619574Y-88040818D01*
X71616978Y-88040770D01*
X71617979Y-87987202D01*
X71260885Y-87630108D01*
X71284330Y-87613075D01*
X71423456Y-87473949D01*
X71440489Y-87450504D01*
X71797805Y-87807820D01*
X71797806Y-87807820D01*
X71923298Y-87650459D01*
X72054738Y-87422799D01*
X72054741Y-87422791D01*
X72150782Y-87178082D01*
X72150784Y-87178077D01*
X72209281Y-86921786D01*
X72228927Y-86659629D01*
X72209281Y-86397471D01*
X72150784Y-86141180D01*
X72150782Y-86141175D01*
X72054741Y-85896466D01*
X72054738Y-85896458D01*
X71923298Y-85668798D01*
X71797806Y-85511436D01*
X71797805Y-85511436D01*
X71440488Y-85868752D01*
X71423456Y-85845309D01*
X71284330Y-85706183D01*
X71260885Y-85689149D01*
X71617979Y-85332055D01*
X71617978Y-85332053D01*
X71566682Y-85284457D01*
X71566676Y-85284451D01*
X71349471Y-85136363D01*
X71349471Y-85136362D01*
X71112619Y-85022299D01*
X71112606Y-85022294D01*
X70861416Y-84944813D01*
X70861404Y-84944811D01*
X70601450Y-84905629D01*
X70338570Y-84905629D01*
X70078615Y-84944811D01*
X70078603Y-84944813D01*
X69827413Y-85022294D01*
X69827400Y-85022299D01*
X69590548Y-85136362D01*
X69590548Y-85136363D01*
X69373343Y-85284451D01*
X69373336Y-85284457D01*
X69322039Y-85332054D01*
X69679134Y-85689149D01*
X69655690Y-85706183D01*
X69516564Y-85845309D01*
X69499530Y-85868753D01*
X69142213Y-85511436D01*
X69142211Y-85511436D01*
X69016725Y-85668791D01*
X69016722Y-85668796D01*
X68885281Y-85896458D01*
X68885278Y-85896466D01*
X68789237Y-86141175D01*
X68789235Y-86141180D01*
X68730738Y-86397471D01*
X68711092Y-86659629D01*
X68730738Y-86921786D01*
X68789235Y-87178077D01*
X68789237Y-87178082D01*
X68885278Y-87422791D01*
X68885281Y-87422799D01*
X69016719Y-87650455D01*
X69016724Y-87650462D01*
X69142211Y-87807820D01*
X69142213Y-87807820D01*
X69499529Y-87450503D01*
X69516564Y-87473949D01*
X69655690Y-87613075D01*
X69679134Y-87630108D01*
X69322040Y-87987202D01*
X69323042Y-88040768D01*
X69318934Y-88040844D01*
X69317489Y-88083445D01*
X69277103Y-88141835D01*
X69211560Y-88169123D01*
X69197866Y-88169869D01*
X62597533Y-88169869D01*
X62475144Y-88194214D01*
X62475139Y-88194216D01*
X62359854Y-88241968D01*
X62256101Y-88311294D01*
X62256094Y-88311299D01*
X55048180Y-95519214D01*
X54985868Y-95553240D01*
X54915053Y-95548175D01*
X54858217Y-95505628D01*
X54833406Y-95439108D01*
X54837377Y-95397512D01*
X54896213Y-95177934D01*
X54926233Y-94949910D01*
X54926233Y-94719918D01*
X54896213Y-94491894D01*
X54836687Y-94269738D01*
X54748673Y-94057253D01*
X54748667Y-94057244D01*
X54748666Y-94057240D01*
X54633679Y-93858077D01*
X54633677Y-93858074D01*
X54493667Y-93675609D01*
X54493661Y-93675603D01*
X54493657Y-93675598D01*
X54331048Y-93512989D01*
X54331042Y-93512984D01*
X54331038Y-93512980D01*
X54148573Y-93372970D01*
X54148572Y-93372969D01*
X54148569Y-93372967D01*
X53949406Y-93257980D01*
X53949398Y-93257976D01*
X53949394Y-93257974D01*
X53736909Y-93169960D01*
X53514753Y-93110434D01*
X53514746Y-93110432D01*
X53286731Y-93080414D01*
X53286729Y-93080414D01*
X53056737Y-93080414D01*
X53056734Y-93080414D01*
X52828719Y-93110432D01*
X52723591Y-93138601D01*
X52606557Y-93169960D01*
X52428270Y-93243809D01*
X52394070Y-93257975D01*
X52394059Y-93257980D01*
X52194896Y-93372967D01*
X52012428Y-93512980D01*
X52012417Y-93512989D01*
X51849808Y-93675598D01*
X51849799Y-93675609D01*
X51709786Y-93858077D01*
X51594799Y-94057240D01*
X51594794Y-94057251D01*
X51506779Y-94269738D01*
X51447251Y-94491900D01*
X51417233Y-94719915D01*
X51417233Y-94949912D01*
X51447251Y-95177927D01*
X51447253Y-95177934D01*
X51506779Y-95400090D01*
X51594793Y-95612575D01*
X51594794Y-95612576D01*
X51594799Y-95612587D01*
X51709786Y-95811750D01*
X51709788Y-95811753D01*
X51709789Y-95811754D01*
X51849799Y-95994219D01*
X51849803Y-95994223D01*
X51849808Y-95994229D01*
X52012417Y-96156838D01*
X52012422Y-96156842D01*
X52012428Y-96156848D01*
X52190805Y-96293721D01*
X52194896Y-96296860D01*
X52394059Y-96411847D01*
X52394063Y-96411848D01*
X52394072Y-96411854D01*
X52606557Y-96499868D01*
X52828713Y-96559394D01*
X52828717Y-96559394D01*
X52828719Y-96559395D01*
X52887485Y-96567131D01*
X53056737Y-96589414D01*
X53056744Y-96589414D01*
X53286722Y-96589414D01*
X53286729Y-96589414D01*
X53492806Y-96562283D01*
X53514746Y-96559395D01*
X53514746Y-96559394D01*
X53514753Y-96559394D01*
X53734329Y-96500559D01*
X53805303Y-96502249D01*
X53864099Y-96542043D01*
X53892047Y-96607307D01*
X53880274Y-96677321D01*
X53856033Y-96711361D01*
X51361167Y-99206228D01*
X51272931Y-99294463D01*
X51272926Y-99294470D01*
X51208349Y-99391117D01*
X51203600Y-99398224D01*
X51155845Y-99513514D01*
X51151183Y-99536951D01*
X51131500Y-99635902D01*
X51131500Y-101187396D01*
X48056871Y-101187396D01*
X53226833Y-88900000D01*
X54374357Y-88900000D01*
X54388572Y-89071554D01*
X54394893Y-89147828D01*
X54455935Y-89388877D01*
X54455938Y-89388884D01*
X54555826Y-89616606D01*
X54691835Y-89824785D01*
X54860249Y-90007732D01*
X54860254Y-90007736D01*
X54860256Y-90007738D01*
X55056490Y-90160473D01*
X55056491Y-90160474D01*
X55275190Y-90278828D01*
X55275192Y-90278829D01*
X55398677Y-90321221D01*
X55510386Y-90359571D01*
X55755665Y-90400500D01*
X55755669Y-90400500D01*
X56004331Y-90400500D01*
X56004335Y-90400500D01*
X56249614Y-90359571D01*
X56484810Y-90278828D01*
X56703509Y-90160474D01*
X56899744Y-90007738D01*
X56915295Y-89990846D01*
X57068164Y-89824785D01*
X57095843Y-89782419D01*
X57204173Y-89616607D01*
X57304063Y-89388881D01*
X57365108Y-89147821D01*
X57385643Y-88900000D01*
X57365108Y-88652179D01*
X57335928Y-88536951D01*
X57304064Y-88411122D01*
X57304061Y-88411115D01*
X57298043Y-88397396D01*
X57204173Y-88183393D01*
X57186186Y-88155862D01*
X57068164Y-87975214D01*
X56899750Y-87792267D01*
X56869214Y-87768500D01*
X56703509Y-87639526D01*
X56703508Y-87639525D01*
X56484809Y-87521171D01*
X56484807Y-87521170D01*
X56249618Y-87440430D01*
X56249609Y-87440428D01*
X56200836Y-87432289D01*
X56004335Y-87399500D01*
X55755665Y-87399500D01*
X55591953Y-87426818D01*
X55510390Y-87440428D01*
X55510381Y-87440430D01*
X55275192Y-87521170D01*
X55275190Y-87521171D01*
X55056491Y-87639525D01*
X55056490Y-87639526D01*
X54860249Y-87792267D01*
X54691835Y-87975214D01*
X54555826Y-88183393D01*
X54455938Y-88411115D01*
X54455935Y-88411122D01*
X54394893Y-88652171D01*
X54394892Y-88652177D01*
X54394892Y-88652179D01*
X54374357Y-88900000D01*
X53226833Y-88900000D01*
X54320791Y-86300001D01*
X65026620Y-86300001D01*
X65030893Y-86343383D01*
X65031500Y-86355734D01*
X65031500Y-86399329D01*
X65040005Y-86442085D01*
X65041819Y-86454319D01*
X65046090Y-86497695D01*
X65058748Y-86539424D01*
X65061751Y-86551411D01*
X65070256Y-86594168D01*
X65086943Y-86634454D01*
X65091102Y-86646079D01*
X65103759Y-86687804D01*
X65124312Y-86726256D01*
X65129592Y-86737420D01*
X65146279Y-86777705D01*
X65146280Y-86777707D01*
X65170494Y-86813946D01*
X65176849Y-86824548D01*
X65197405Y-86863004D01*
X65225066Y-86896709D01*
X65232432Y-86906641D01*
X65254831Y-86940164D01*
X65256647Y-86942881D01*
X65287470Y-86973704D01*
X65295766Y-86982857D01*
X65323432Y-87016568D01*
X65357149Y-87044239D01*
X65366289Y-87052523D01*
X65397119Y-87083353D01*
X65397122Y-87083355D01*
X65433352Y-87107563D01*
X65443285Y-87114929D01*
X65476997Y-87142596D01*
X65515446Y-87163147D01*
X65526054Y-87169505D01*
X65562293Y-87193720D01*
X65569483Y-87196698D01*
X65602563Y-87210400D01*
X65602566Y-87210401D01*
X65613746Y-87215689D01*
X65652188Y-87236237D01*
X65652190Y-87236237D01*
X65652196Y-87236241D01*
X65693923Y-87248898D01*
X65705557Y-87253061D01*
X65721574Y-87259696D01*
X65745828Y-87269743D01*
X65745831Y-87269743D01*
X65745832Y-87269744D01*
X65788594Y-87278249D01*
X65800577Y-87281251D01*
X65842299Y-87293908D01*
X65885691Y-87298181D01*
X65897907Y-87299993D01*
X65901107Y-87300629D01*
X65940671Y-87308500D01*
X65984266Y-87308500D01*
X65996614Y-87309106D01*
X66011867Y-87310609D01*
X66039998Y-87313380D01*
X66040000Y-87313380D01*
X66040002Y-87313380D01*
X66068132Y-87310609D01*
X66083385Y-87309106D01*
X66095734Y-87308500D01*
X66139325Y-87308500D01*
X66139329Y-87308500D01*
X66182076Y-87299996D01*
X66194307Y-87298182D01*
X66234016Y-87294270D01*
X66237701Y-87293908D01*
X66279426Y-87281249D01*
X66291408Y-87278248D01*
X66334168Y-87269744D01*
X66374459Y-87253054D01*
X66386064Y-87248901D01*
X66427804Y-87236241D01*
X66466260Y-87215685D01*
X66477412Y-87210409D01*
X66517704Y-87193721D01*
X66553947Y-87169502D01*
X66564552Y-87163147D01*
X66603004Y-87142595D01*
X66636728Y-87114916D01*
X66646633Y-87107571D01*
X66682881Y-87083353D01*
X66713712Y-87052520D01*
X66722854Y-87044235D01*
X66756568Y-87016568D01*
X66784239Y-86982849D01*
X66792514Y-86973718D01*
X69420832Y-84345402D01*
X69483142Y-84311379D01*
X69509925Y-84308500D01*
X74099328Y-84308500D01*
X74099329Y-84308500D01*
X74294169Y-84269744D01*
X74477704Y-84193721D01*
X74642881Y-84083353D01*
X74783353Y-83942881D01*
X74783352Y-83942881D01*
X74842880Y-83883353D01*
X74842879Y-83883353D01*
X75026232Y-83700000D01*
X75886496Y-83700000D01*
X75906457Y-83889927D01*
X75929903Y-83962085D01*
X75965473Y-84071556D01*
X75965476Y-84071561D01*
X76060958Y-84236941D01*
X76060965Y-84236951D01*
X76188744Y-84378864D01*
X76194442Y-84383004D01*
X76343248Y-84491118D01*
X76517712Y-84568794D01*
X76704513Y-84608500D01*
X76760406Y-84608500D01*
X76828527Y-84628502D01*
X76849501Y-84645405D01*
X79396161Y-87192067D01*
X79396167Y-87192072D01*
X79499925Y-87261401D01*
X79547851Y-87281252D01*
X79571009Y-87290844D01*
X79571011Y-87290846D01*
X79571011Y-87290845D01*
X79615215Y-87309155D01*
X79737606Y-87333500D01*
X79737607Y-87333500D01*
X79862394Y-87333500D01*
X84385406Y-87333500D01*
X84453527Y-87353502D01*
X84474501Y-87370405D01*
X88096161Y-90992067D01*
X88096166Y-90992071D01*
X88096167Y-90992072D01*
X88199925Y-91061401D01*
X88273964Y-91092068D01*
X88273969Y-91092070D01*
X88273970Y-91092071D01*
X88273971Y-91092071D01*
X88315215Y-91109155D01*
X88437606Y-91133500D01*
X88437607Y-91133500D01*
X94982393Y-91133500D01*
X94982394Y-91133500D01*
X95104785Y-91109155D01*
X95220075Y-91061400D01*
X95323833Y-90992071D01*
X96470500Y-89845405D01*
X96532812Y-89811379D01*
X96559595Y-89808500D01*
X96615487Y-89808500D01*
X96802288Y-89768794D01*
X96976752Y-89691118D01*
X97131253Y-89578866D01*
X97131255Y-89578864D01*
X97259034Y-89436951D01*
X97259035Y-89436949D01*
X97259040Y-89436944D01*
X97354527Y-89271556D01*
X97413542Y-89089928D01*
X97433504Y-88900000D01*
X97413542Y-88710072D01*
X97354527Y-88528444D01*
X97259040Y-88363056D01*
X97259038Y-88363054D01*
X97259034Y-88363048D01*
X97131255Y-88221135D01*
X96976752Y-88108882D01*
X96802288Y-88031206D01*
X96615487Y-87991500D01*
X96424513Y-87991500D01*
X96237711Y-88031206D01*
X96063247Y-88108882D01*
X95908744Y-88221135D01*
X95780965Y-88363048D01*
X95780958Y-88363058D01*
X95685476Y-88528438D01*
X95685473Y-88528445D01*
X95626457Y-88710072D01*
X95609093Y-88875290D01*
X95582080Y-88940947D01*
X95572878Y-88951215D01*
X94899635Y-89624461D01*
X94694501Y-89829595D01*
X94632188Y-89863620D01*
X94605405Y-89866500D01*
X90470324Y-89866500D01*
X90402203Y-89846498D01*
X90355710Y-89792842D01*
X90345606Y-89722568D01*
X90375100Y-89657988D01*
X90434826Y-89619604D01*
X90445739Y-89616921D01*
X90484785Y-89609155D01*
X90577304Y-89570830D01*
X90579659Y-89569966D01*
X90581539Y-89569127D01*
X90584651Y-89567787D01*
X90600075Y-89561400D01*
X90600082Y-89561395D01*
X90601937Y-89560404D01*
X90610109Y-89556406D01*
X90756752Y-89491118D01*
X90911253Y-89378866D01*
X90990262Y-89291118D01*
X91039034Y-89236951D01*
X91039035Y-89236949D01*
X91039040Y-89236944D01*
X91134527Y-89071556D01*
X91193542Y-88889928D01*
X91213504Y-88700000D01*
X91193542Y-88510072D01*
X91134527Y-88328444D01*
X91048509Y-88179458D01*
X91031773Y-88110467D01*
X91054993Y-88043375D01*
X91068523Y-88027379D01*
X92946671Y-86149232D01*
X93008981Y-86115209D01*
X93035764Y-86112330D01*
X93091611Y-86112330D01*
X93278412Y-86072624D01*
X93452876Y-85994948D01*
X93607377Y-85882696D01*
X93620353Y-85868285D01*
X93735158Y-85740781D01*
X93735159Y-85740779D01*
X93735164Y-85740774D01*
X93830651Y-85575386D01*
X93889666Y-85393758D01*
X93909628Y-85203830D01*
X93889666Y-85013902D01*
X93830651Y-84832274D01*
X93735164Y-84666886D01*
X93735162Y-84666884D01*
X93735158Y-84666878D01*
X93607379Y-84524965D01*
X93452876Y-84412712D01*
X93278412Y-84335036D01*
X93091611Y-84295330D01*
X92900637Y-84295330D01*
X92713835Y-84335036D01*
X92539371Y-84412712D01*
X92384868Y-84524965D01*
X92257089Y-84666878D01*
X92257082Y-84666888D01*
X92163425Y-84829107D01*
X92161597Y-84832274D01*
X92152647Y-84859818D01*
X92102581Y-85013902D01*
X92085211Y-85179174D01*
X92058198Y-85244830D01*
X92048996Y-85255098D01*
X89896167Y-87407929D01*
X89807931Y-87496164D01*
X89807926Y-87496171D01*
X89749082Y-87584238D01*
X89738600Y-87599925D01*
X89726787Y-87628444D01*
X89690846Y-87715212D01*
X89666500Y-87837603D01*
X89666500Y-87997474D01*
X89646498Y-88065595D01*
X89634137Y-88081784D01*
X89560957Y-88163059D01*
X89465476Y-88328438D01*
X89465473Y-88328445D01*
X89406457Y-88510072D01*
X89386496Y-88700000D01*
X89406457Y-88889927D01*
X89436526Y-88982470D01*
X89465473Y-89071556D01*
X89465476Y-89071561D01*
X89560958Y-89236941D01*
X89560965Y-89236951D01*
X89688744Y-89378864D01*
X89688743Y-89378864D01*
X89819376Y-89473774D01*
X89843248Y-89491118D01*
X89989890Y-89556406D01*
X89998045Y-89560395D01*
X89999918Y-89561396D01*
X89999920Y-89561397D01*
X89999925Y-89561400D01*
X90015356Y-89567791D01*
X90018396Y-89569098D01*
X90020346Y-89569967D01*
X90022704Y-89570835D01*
X90082249Y-89595500D01*
X90115215Y-89609155D01*
X90154258Y-89616921D01*
X90217168Y-89649829D01*
X90252299Y-89711524D01*
X90248499Y-89782419D01*
X90206973Y-89840005D01*
X90140906Y-89865999D01*
X90129676Y-89866500D01*
X88814595Y-89866500D01*
X88746474Y-89846498D01*
X88725500Y-89829595D01*
X85103835Y-86207931D01*
X85103833Y-86207929D01*
X85000075Y-86138600D01*
X84884785Y-86090845D01*
X84793177Y-86072623D01*
X84762396Y-86066500D01*
X84762394Y-86066500D01*
X80114595Y-86066500D01*
X80046474Y-86046498D01*
X80025500Y-86029595D01*
X77747121Y-83751216D01*
X77713095Y-83688904D01*
X77710908Y-83675306D01*
X77693542Y-83510072D01*
X77634527Y-83328444D01*
X77539040Y-83163056D01*
X77539038Y-83163054D01*
X77539034Y-83163048D01*
X77411255Y-83021135D01*
X77256752Y-82908882D01*
X77082288Y-82831206D01*
X76895487Y-82791500D01*
X76704513Y-82791500D01*
X76517711Y-82831206D01*
X76343247Y-82908882D01*
X76188744Y-83021135D01*
X76060965Y-83163048D01*
X76060958Y-83163058D01*
X75965476Y-83328438D01*
X75965473Y-83328445D01*
X75906457Y-83510072D01*
X75886496Y-83700000D01*
X75026232Y-83700000D01*
X76280831Y-82445404D01*
X76343143Y-82411379D01*
X76369926Y-82408500D01*
X80430076Y-82408500D01*
X80498197Y-82428502D01*
X80519170Y-82445404D01*
X82957119Y-84883354D01*
X83122297Y-84993722D01*
X83229809Y-85038254D01*
X83305831Y-85069744D01*
X83500671Y-85108500D01*
X83500672Y-85108500D01*
X90299328Y-85108500D01*
X90299329Y-85108500D01*
X90494169Y-85069744D01*
X90677704Y-84993721D01*
X90842881Y-84883353D01*
X90983353Y-84742881D01*
X91680829Y-84045405D01*
X91743141Y-84011379D01*
X91769924Y-84008500D01*
X93430076Y-84008500D01*
X93498197Y-84028502D01*
X93519170Y-84045404D01*
X95142556Y-85668791D01*
X96747466Y-87273701D01*
X96755770Y-87282862D01*
X96783432Y-87316568D01*
X96817124Y-87344218D01*
X96817135Y-87344227D01*
X96826287Y-87352522D01*
X96842961Y-87369196D01*
X96857119Y-87383354D01*
X96857123Y-87383358D01*
X96893363Y-87407572D01*
X96903294Y-87414936D01*
X96936996Y-87442595D01*
X96975261Y-87463048D01*
X96975441Y-87463144D01*
X96986045Y-87469499D01*
X97022296Y-87493722D01*
X97062581Y-87510407D01*
X97073742Y-87515687D01*
X97073748Y-87515690D01*
X97112196Y-87536241D01*
X97153921Y-87548898D01*
X97165550Y-87553059D01*
X97205832Y-87569744D01*
X97248594Y-87578249D01*
X97260577Y-87581251D01*
X97302299Y-87593908D01*
X97345691Y-87598181D01*
X97357908Y-87599993D01*
X97400671Y-87608500D01*
X97444266Y-87608500D01*
X97456614Y-87609106D01*
X97471867Y-87610609D01*
X97499998Y-87613380D01*
X97500000Y-87613380D01*
X97500002Y-87613380D01*
X97528132Y-87610609D01*
X97543385Y-87609106D01*
X97555734Y-87608500D01*
X97599325Y-87608500D01*
X97599329Y-87608500D01*
X97642097Y-87599992D01*
X97654308Y-87598181D01*
X97697701Y-87593908D01*
X97739423Y-87581251D01*
X97751404Y-87578250D01*
X97794169Y-87569744D01*
X97834445Y-87553061D01*
X97846091Y-87548894D01*
X97853990Y-87546498D01*
X97887804Y-87536241D01*
X97915998Y-87521171D01*
X97926252Y-87515690D01*
X97937411Y-87510411D01*
X97977704Y-87493722D01*
X98013954Y-87469499D01*
X98024542Y-87463152D01*
X98063004Y-87442595D01*
X98096702Y-87414938D01*
X98106633Y-87407574D01*
X98142878Y-87383356D01*
X98142877Y-87383356D01*
X98142881Y-87383354D01*
X98173717Y-87352516D01*
X98182859Y-87344231D01*
X98216568Y-87316568D01*
X98244231Y-87282859D01*
X98252516Y-87273717D01*
X98283354Y-87242881D01*
X98291635Y-87230488D01*
X98307574Y-87206633D01*
X98314942Y-87196698D01*
X98342595Y-87163004D01*
X98363152Y-87124542D01*
X98369499Y-87113954D01*
X98393722Y-87077704D01*
X98410411Y-87037411D01*
X98415690Y-87026252D01*
X98436240Y-86987806D01*
X98436241Y-86987803D01*
X98437742Y-86982857D01*
X98448894Y-86946088D01*
X98453061Y-86934445D01*
X98456275Y-86926684D01*
X98469744Y-86894169D01*
X98478250Y-86851404D01*
X98481251Y-86839423D01*
X98493908Y-86797701D01*
X98498181Y-86754308D01*
X98499993Y-86742091D01*
X98508500Y-86699329D01*
X98508500Y-86655734D01*
X98509107Y-86643383D01*
X98513380Y-86600001D01*
X98513380Y-86599998D01*
X98509107Y-86556615D01*
X98508500Y-86544264D01*
X98508500Y-86500674D01*
X98508500Y-86500671D01*
X98499993Y-86457907D01*
X98498181Y-86445691D01*
X98493908Y-86402299D01*
X98481251Y-86360577D01*
X98478249Y-86348594D01*
X98469744Y-86305832D01*
X98453059Y-86265550D01*
X98448898Y-86253921D01*
X98447846Y-86250452D01*
X98436241Y-86212196D01*
X98415687Y-86173742D01*
X98410407Y-86162581D01*
X98393722Y-86122296D01*
X98369499Y-86086045D01*
X98363144Y-86075441D01*
X98342594Y-86036995D01*
X98314938Y-86003296D01*
X98307572Y-85993363D01*
X98283358Y-85957123D01*
X98283354Y-85957119D01*
X98280153Y-85953918D01*
X98252522Y-85926287D01*
X98244227Y-85917135D01*
X98216568Y-85883432D01*
X98216565Y-85883429D01*
X98182862Y-85855770D01*
X98173701Y-85847466D01*
X94542883Y-82216649D01*
X94542881Y-82216647D01*
X94377704Y-82106279D01*
X94377702Y-82106278D01*
X94194169Y-82030256D01*
X93999331Y-81991500D01*
X93999329Y-81991500D01*
X91200671Y-81991500D01*
X91200668Y-81991500D01*
X91005831Y-82030256D01*
X90975349Y-82042882D01*
X90822296Y-82106278D01*
X90657119Y-82216646D01*
X90445264Y-82428502D01*
X89819169Y-83054596D01*
X89756859Y-83088620D01*
X89730076Y-83091500D01*
X84069925Y-83091500D01*
X84001804Y-83071498D01*
X83980830Y-83054595D01*
X81542883Y-80616649D01*
X81542881Y-80616647D01*
X81377704Y-80506279D01*
X81207128Y-80435624D01*
X81207127Y-80435623D01*
X81194176Y-80430258D01*
X81194170Y-80430256D01*
X81194169Y-80430256D01*
X81129222Y-80417337D01*
X80999331Y-80391500D01*
X80999329Y-80391500D01*
X75800671Y-80391500D01*
X75800668Y-80391500D01*
X75605831Y-80430256D01*
X75605823Y-80430258D01*
X75592873Y-80435623D01*
X75592872Y-80435624D01*
X75422295Y-80506278D01*
X75257119Y-80616645D01*
X74969926Y-80903839D01*
X73619169Y-82254596D01*
X73556859Y-82288620D01*
X73530076Y-82291500D01*
X68940668Y-82291500D01*
X68745830Y-82330256D01*
X68745825Y-82330258D01*
X68680978Y-82357119D01*
X68562296Y-82406278D01*
X68397123Y-82516643D01*
X68397116Y-82516648D01*
X65366301Y-85547463D01*
X65357142Y-85555765D01*
X65323431Y-85583431D01*
X65295769Y-85617137D01*
X65287470Y-85626294D01*
X65256648Y-85657117D01*
X65256647Y-85657119D01*
X65232430Y-85693361D01*
X65225066Y-85703289D01*
X65197410Y-85736988D01*
X65197404Y-85736997D01*
X65176848Y-85775453D01*
X65170494Y-85786053D01*
X65146279Y-85822295D01*
X65146278Y-85822297D01*
X65129596Y-85862569D01*
X65124312Y-85873741D01*
X65103757Y-85912197D01*
X65091102Y-85953918D01*
X65086937Y-85965560D01*
X65070257Y-86005828D01*
X65070254Y-86005836D01*
X65061750Y-86048588D01*
X65058748Y-86060575D01*
X65046090Y-86102305D01*
X65041818Y-86145684D01*
X65040004Y-86157913D01*
X65031500Y-86200663D01*
X65031500Y-86244264D01*
X65030893Y-86256615D01*
X65026620Y-86299998D01*
X65026620Y-86300001D01*
X54320791Y-86300001D01*
X57091503Y-79714877D01*
X64410348Y-79714877D01*
X64429994Y-79977034D01*
X64488491Y-80233325D01*
X64488493Y-80233330D01*
X64584534Y-80478039D01*
X64584537Y-80478047D01*
X64715975Y-80705703D01*
X64715980Y-80705710D01*
X64841467Y-80863068D01*
X64841469Y-80863068D01*
X65198785Y-80505751D01*
X65215820Y-80529197D01*
X65354946Y-80668323D01*
X65378390Y-80685356D01*
X65021296Y-81042450D01*
X65072592Y-81090048D01*
X65072599Y-81090054D01*
X65289804Y-81238142D01*
X65289804Y-81238143D01*
X65526656Y-81352206D01*
X65526669Y-81352211D01*
X65777859Y-81429692D01*
X65777871Y-81429694D01*
X66037826Y-81468877D01*
X66300706Y-81468877D01*
X66560660Y-81429694D01*
X66560672Y-81429692D01*
X66811862Y-81352211D01*
X66811875Y-81352206D01*
X67048727Y-81238143D01*
X67048727Y-81238142D01*
X67265934Y-81090052D01*
X67265935Y-81090051D01*
X67317235Y-81042451D01*
X67317235Y-81042450D01*
X66960141Y-80685356D01*
X66983586Y-80668323D01*
X67122712Y-80529197D01*
X67139745Y-80505752D01*
X67497061Y-80863068D01*
X67497062Y-80863068D01*
X67622554Y-80705707D01*
X67668211Y-80626627D01*
X67719593Y-80577634D01*
X67789307Y-80564197D01*
X67855218Y-80590584D01*
X67886449Y-80626627D01*
X67915552Y-80677035D01*
X67918306Y-80682066D01*
X67959156Y-80760902D01*
X67982297Y-80793685D01*
X67988477Y-80803346D01*
X68005674Y-80833132D01*
X68059945Y-80903860D01*
X68062900Y-80907874D01*
X68117609Y-80985379D01*
X68121857Y-80989928D01*
X68140840Y-81010253D01*
X68148717Y-81019551D01*
X68165947Y-81042005D01*
X68165955Y-81042015D01*
X68233301Y-81109361D01*
X68236263Y-81112426D01*
X68305152Y-81186188D01*
X68305160Y-81186195D01*
X68326838Y-81203832D01*
X68336408Y-81212468D01*
X68352128Y-81228188D01*
X68432532Y-81289883D01*
X68435295Y-81292067D01*
X68518290Y-81359590D01*
X68518292Y-81359591D01*
X68518297Y-81359595D01*
X68536973Y-81370952D01*
X68536978Y-81370955D01*
X68548212Y-81378648D01*
X68561009Y-81388467D01*
X68653996Y-81442152D01*
X68656424Y-81443591D01*
X68753063Y-81502359D01*
X68753068Y-81502362D01*
X68767525Y-81508641D01*
X68780337Y-81515096D01*
X68789014Y-81520106D01*
X68789023Y-81520111D01*
X68893862Y-81563537D01*
X68895815Y-81564366D01*
X69005086Y-81611829D01*
X69005089Y-81611830D01*
X69014407Y-81614441D01*
X69028628Y-81619359D01*
X69032264Y-81620865D01*
X69032269Y-81620867D01*
X69147841Y-81651833D01*
X69149042Y-81652163D01*
X69269670Y-81685962D01*
X69273209Y-81686448D01*
X69282504Y-81688326D01*
X69282529Y-81688204D01*
X69286577Y-81689008D01*
X69286586Y-81689011D01*
X69411286Y-81705427D01*
X69411690Y-81705481D01*
X69541881Y-81723377D01*
X69541888Y-81723377D01*
X69816644Y-81723377D01*
X69816651Y-81723377D01*
X69946920Y-81705470D01*
X69947186Y-81705434D01*
X70071946Y-81689011D01*
X70071948Y-81689010D01*
X70071951Y-81689010D01*
X70075999Y-81688205D01*
X70076023Y-81688326D01*
X70085326Y-81686447D01*
X70088862Y-81685962D01*
X70209528Y-81652151D01*
X70210687Y-81651834D01*
X70276753Y-81634132D01*
X70326253Y-81620870D01*
X70326255Y-81620869D01*
X70326263Y-81620867D01*
X70329909Y-81619356D01*
X70344138Y-81614436D01*
X70353443Y-81611830D01*
X70462792Y-81564332D01*
X70464657Y-81563541D01*
X70569509Y-81520111D01*
X70578199Y-81515092D01*
X70590999Y-81508643D01*
X70605466Y-81502361D01*
X70702099Y-81443595D01*
X70704515Y-81442163D01*
X70797523Y-81388467D01*
X70810319Y-81378647D01*
X70821558Y-81370952D01*
X70835344Y-81362569D01*
X70840235Y-81359595D01*
X70923242Y-81292062D01*
X70926029Y-81289860D01*
X71006404Y-81228188D01*
X71022128Y-81212462D01*
X71031697Y-81203827D01*
X71053377Y-81186191D01*
X71122282Y-81112410D01*
X71125215Y-81109375D01*
X71192577Y-81042015D01*
X71209814Y-81019550D01*
X71217686Y-81010259D01*
X71221678Y-81005984D01*
X71240923Y-80985379D01*
X71295630Y-80907873D01*
X71298601Y-80903839D01*
X71352856Y-80833134D01*
X71370068Y-80803319D01*
X71376234Y-80793685D01*
X71399377Y-80760900D01*
X71440233Y-80682048D01*
X71442956Y-80677074D01*
X71484500Y-80605120D01*
X71500002Y-80567692D01*
X71504529Y-80557963D01*
X71517215Y-80533481D01*
X71525789Y-80516935D01*
X71553492Y-80438981D01*
X71555778Y-80433037D01*
X71585256Y-80361874D01*
X71597312Y-80316878D01*
X71600288Y-80307312D01*
X71617804Y-80258030D01*
X71633398Y-80182985D01*
X71635043Y-80176062D01*
X71653400Y-80107557D01*
X71660271Y-80055361D01*
X71661829Y-80046166D01*
X71673708Y-79989007D01*
X71675091Y-79968794D01*
X71678521Y-79918632D01*
X71679303Y-79910797D01*
X71687766Y-79846521D01*
X71687766Y-79787787D01*
X71688060Y-79779188D01*
X71692459Y-79714879D01*
X71692459Y-79714874D01*
X71688060Y-79650565D01*
X71687766Y-79641966D01*
X71687766Y-78734500D01*
X71707768Y-78666379D01*
X71761424Y-78619886D01*
X71813766Y-78608500D01*
X80699328Y-78608500D01*
X80699329Y-78608500D01*
X80894169Y-78569744D01*
X81077704Y-78493721D01*
X81242881Y-78383353D01*
X81383353Y-78242881D01*
X82680829Y-76945405D01*
X82743141Y-76911379D01*
X82769924Y-76908500D01*
X99999328Y-76908500D01*
X99999329Y-76908500D01*
X100194169Y-76869744D01*
X100377704Y-76793721D01*
X100542881Y-76683353D01*
X100683353Y-76542881D01*
X105073708Y-72152524D01*
X105082849Y-72144239D01*
X105116568Y-72116568D01*
X105144235Y-72082854D01*
X105152520Y-72073712D01*
X105183353Y-72042881D01*
X105207571Y-72006633D01*
X105214916Y-71996728D01*
X105242595Y-71963004D01*
X105263148Y-71924549D01*
X105269505Y-71913944D01*
X105272705Y-71909155D01*
X105293721Y-71877704D01*
X105310409Y-71837412D01*
X105315685Y-71826260D01*
X105336241Y-71787804D01*
X105348901Y-71746064D01*
X105353054Y-71734459D01*
X105369744Y-71694168D01*
X105378248Y-71651408D01*
X105381251Y-71639422D01*
X105393908Y-71597701D01*
X105394270Y-71594016D01*
X105398182Y-71554307D01*
X105399997Y-71542070D01*
X105400695Y-71538563D01*
X105408500Y-71499329D01*
X105408500Y-71455734D01*
X105409107Y-71443383D01*
X105413380Y-71400001D01*
X105413380Y-71399998D01*
X105409107Y-71356615D01*
X105408500Y-71344264D01*
X105408500Y-71300674D01*
X105408500Y-71300671D01*
X105399993Y-71257907D01*
X105398181Y-71245691D01*
X105393908Y-71202299D01*
X105381251Y-71160577D01*
X105378249Y-71148594D01*
X105369744Y-71105832D01*
X105369743Y-71105831D01*
X105369743Y-71105828D01*
X105353064Y-71065565D01*
X105348896Y-71053917D01*
X105336241Y-71012196D01*
X105315689Y-70973746D01*
X105310401Y-70962566D01*
X105293720Y-70922293D01*
X105269505Y-70886054D01*
X105263147Y-70875446D01*
X105242596Y-70836997D01*
X105214929Y-70803285D01*
X105207563Y-70793352D01*
X105183355Y-70757122D01*
X105183351Y-70757117D01*
X105152523Y-70726289D01*
X105144239Y-70717149D01*
X105116568Y-70683432D01*
X105082857Y-70655766D01*
X105073704Y-70647470D01*
X105042881Y-70616647D01*
X105006638Y-70592430D01*
X104996709Y-70585066D01*
X104963004Y-70557405D01*
X104924548Y-70536849D01*
X104913946Y-70530494D01*
X104877707Y-70506280D01*
X104877705Y-70506279D01*
X104837420Y-70489592D01*
X104826256Y-70484312D01*
X104787804Y-70463759D01*
X104787797Y-70463756D01*
X104787795Y-70463756D01*
X104772194Y-70459024D01*
X104746079Y-70451102D01*
X104734454Y-70446943D01*
X104694168Y-70430256D01*
X104651411Y-70421751D01*
X104639424Y-70418748D01*
X104597694Y-70406090D01*
X104597697Y-70406090D01*
X104554319Y-70401819D01*
X104542089Y-70400005D01*
X104499329Y-70391500D01*
X104455734Y-70391500D01*
X104443385Y-70390893D01*
X104428132Y-70389390D01*
X104400002Y-70386620D01*
X104399998Y-70386620D01*
X104371867Y-70389390D01*
X104356614Y-70390893D01*
X104344266Y-70391500D01*
X104300663Y-70391500D01*
X104257913Y-70400004D01*
X104245684Y-70401818D01*
X104202305Y-70406090D01*
X104160575Y-70418748D01*
X104148588Y-70421750D01*
X104105836Y-70430254D01*
X104105828Y-70430257D01*
X104076274Y-70442498D01*
X104065555Y-70446938D01*
X104053918Y-70451102D01*
X104012197Y-70463757D01*
X103973741Y-70484312D01*
X103962569Y-70489596D01*
X103922297Y-70506278D01*
X103922295Y-70506279D01*
X103886053Y-70530494D01*
X103875453Y-70536848D01*
X103836997Y-70557404D01*
X103836988Y-70557410D01*
X103803289Y-70585066D01*
X103793361Y-70592430D01*
X103757119Y-70616647D01*
X103757117Y-70616648D01*
X103726294Y-70647470D01*
X103717137Y-70655769D01*
X103683431Y-70683431D01*
X103655765Y-70717142D01*
X103647463Y-70726301D01*
X99519171Y-74854595D01*
X99456859Y-74888620D01*
X99430076Y-74891500D01*
X82200668Y-74891500D01*
X82005830Y-74930256D01*
X82005825Y-74930258D01*
X81901395Y-74973515D01*
X81822296Y-75006279D01*
X81657123Y-75116644D01*
X81657116Y-75116649D01*
X80219171Y-76554595D01*
X80156859Y-76588621D01*
X80130076Y-76591500D01*
X71685193Y-76591500D01*
X71617072Y-76571498D01*
X71572312Y-76521482D01*
X71555800Y-76488187D01*
X71514153Y-76436376D01*
X71437834Y-76341432D01*
X71427947Y-76333485D01*
X71387386Y-76275219D01*
X71384764Y-76204270D01*
X71420916Y-76143168D01*
X71484364Y-76111310D01*
X71506889Y-76109280D01*
X78486613Y-76109280D01*
X78486614Y-76109280D01*
X78609005Y-76084935D01*
X78724295Y-76037180D01*
X78828053Y-75967851D01*
X80825500Y-73970405D01*
X80887812Y-73936379D01*
X80914595Y-73933500D01*
X98662393Y-73933500D01*
X98662394Y-73933500D01*
X98784785Y-73909155D01*
X98900075Y-73861400D01*
X99003833Y-73792071D01*
X104025500Y-68770405D01*
X104087812Y-68736379D01*
X104114595Y-68733500D01*
X108991800Y-68733500D01*
X109059921Y-68753502D01*
X109085437Y-68775190D01*
X109088747Y-68778866D01*
X109243248Y-68891118D01*
X109417712Y-68968794D01*
X109604513Y-69008500D01*
X109795487Y-69008500D01*
X109982288Y-68968794D01*
X110156752Y-68891118D01*
X110311253Y-68778866D01*
X110314563Y-68775190D01*
X110439034Y-68636951D01*
X110439035Y-68636949D01*
X110439040Y-68636944D01*
X110534527Y-68471556D01*
X110593542Y-68289928D01*
X110613504Y-68100000D01*
X110593542Y-67910072D01*
X110534527Y-67728444D01*
X110439040Y-67563056D01*
X110439038Y-67563054D01*
X110439034Y-67563048D01*
X110311255Y-67421135D01*
X110156752Y-67308882D01*
X109982288Y-67231206D01*
X109795487Y-67191500D01*
X109604513Y-67191500D01*
X109417711Y-67231206D01*
X109243247Y-67308882D01*
X109088747Y-67421133D01*
X109085437Y-67424810D01*
X109024991Y-67462050D01*
X108991800Y-67466500D01*
X103737600Y-67466500D01*
X103615217Y-67490844D01*
X103615209Y-67490846D01*
X103581447Y-67504830D01*
X103581447Y-67504831D01*
X103499925Y-67538599D01*
X103396167Y-67607927D01*
X103396161Y-67607932D01*
X98374501Y-72629595D01*
X98312189Y-72663620D01*
X98285406Y-72666500D01*
X80537603Y-72666500D01*
X80415217Y-72690844D01*
X80415215Y-72690845D01*
X80398893Y-72697606D01*
X80299924Y-72738599D01*
X80196167Y-72807927D01*
X80196161Y-72807932D01*
X78198721Y-74805375D01*
X78136409Y-74839400D01*
X78109626Y-74842280D01*
X70581298Y-74842280D01*
X70513177Y-74822278D01*
X70507237Y-74818216D01*
X70356752Y-74708882D01*
X70182288Y-74631206D01*
X69995487Y-74591500D01*
X69804513Y-74591500D01*
X69617711Y-74631206D01*
X69443247Y-74708882D01*
X69288744Y-74821135D01*
X69160965Y-74963048D01*
X69160958Y-74963058D01*
X69065476Y-75128438D01*
X69065473Y-75128444D01*
X69060394Y-75144075D01*
X69006457Y-75310072D01*
X68986496Y-75500000D01*
X69006457Y-75689927D01*
X69016975Y-75722296D01*
X69065473Y-75871556D01*
X69065473Y-75871557D01*
X69065474Y-75871558D01*
X69083339Y-75902501D01*
X69100076Y-75971496D01*
X69076855Y-76038588D01*
X69021048Y-76082475D01*
X68974219Y-76091500D01*
X68461129Y-76091500D01*
X68418861Y-76094366D01*
X68418858Y-76094366D01*
X68294492Y-76125295D01*
X68236134Y-76139808D01*
X68106159Y-76204270D01*
X68067450Y-76223468D01*
X67920695Y-76341434D01*
X67844378Y-76436376D01*
X67786110Y-76476938D01*
X67715162Y-76479559D01*
X67682034Y-76465888D01*
X67556771Y-76391807D01*
X67408485Y-76348726D01*
X67373845Y-76346000D01*
X66296266Y-76346000D01*
X66296266Y-77601000D01*
X66276264Y-77669121D01*
X66222608Y-77715614D01*
X66170266Y-77727000D01*
X64415267Y-77727000D01*
X64415267Y-78304569D01*
X64417992Y-78339218D01*
X64461073Y-78487505D01*
X64539670Y-78620404D01*
X64539675Y-78620411D01*
X64621014Y-78701750D01*
X64655040Y-78764062D01*
X64649975Y-78834877D01*
X64641038Y-78853845D01*
X64584537Y-78951706D01*
X64584534Y-78951714D01*
X64488493Y-79196423D01*
X64488491Y-79196428D01*
X64429994Y-79452719D01*
X64410348Y-79714877D01*
X57091503Y-79714877D01*
X58034780Y-77473000D01*
X64415266Y-77473000D01*
X66042266Y-77473000D01*
X66042266Y-76346000D01*
X64964696Y-76346000D01*
X64930047Y-76348726D01*
X64781760Y-76391807D01*
X64648861Y-76470404D01*
X64648854Y-76470409D01*
X64539675Y-76579588D01*
X64539670Y-76579595D01*
X64461073Y-76712494D01*
X64417992Y-76860780D01*
X64415266Y-76895420D01*
X64415266Y-77473000D01*
X58034780Y-77473000D01*
X59698801Y-73518137D01*
X64160766Y-73518137D01*
X64163632Y-73560404D01*
X64163632Y-73560407D01*
X64171202Y-73590845D01*
X64209074Y-73743132D01*
X64292733Y-73911814D01*
X64410698Y-74058568D01*
X64557452Y-74176533D01*
X64726134Y-74260192D01*
X64908857Y-74305633D01*
X64919427Y-74306349D01*
X64951129Y-74308500D01*
X64951138Y-74308500D01*
X66215996Y-74308500D01*
X66267245Y-74319393D01*
X66378202Y-74368794D01*
X66565003Y-74408500D01*
X66755977Y-74408500D01*
X66942778Y-74368794D01*
X67053735Y-74319393D01*
X67104984Y-74308500D01*
X67387403Y-74308500D01*
X67414574Y-74306656D01*
X67429675Y-74305633D01*
X67612398Y-74260192D01*
X67781080Y-74176533D01*
X67845325Y-74124890D01*
X67910950Y-74097802D01*
X67980803Y-74110493D01*
X68003207Y-74124891D01*
X68067447Y-74176530D01*
X68067450Y-74176531D01*
X68067452Y-74176533D01*
X68236134Y-74260192D01*
X68418857Y-74305633D01*
X68429427Y-74306349D01*
X68461129Y-74308500D01*
X68461138Y-74308500D01*
X70897403Y-74308500D01*
X70924574Y-74306656D01*
X70939675Y-74305633D01*
X71122398Y-74260192D01*
X71291080Y-74176533D01*
X71437834Y-74058568D01*
X71555799Y-73911814D01*
X71639458Y-73743132D01*
X71684899Y-73560409D01*
X71685922Y-73545308D01*
X71687766Y-73518137D01*
X71687766Y-72081862D01*
X71684899Y-72039595D01*
X71684899Y-72039592D01*
X71675426Y-72001500D01*
X71639458Y-71856868D01*
X71555799Y-71688186D01*
X71437834Y-71541432D01*
X71291080Y-71423467D01*
X71122398Y-71339808D01*
X70939675Y-71294367D01*
X70939671Y-71294366D01*
X70897403Y-71291500D01*
X70897394Y-71291500D01*
X68461138Y-71291500D01*
X68461129Y-71291500D01*
X68418861Y-71294366D01*
X68418858Y-71294366D01*
X68281576Y-71328507D01*
X68236134Y-71339808D01*
X68067452Y-71423467D01*
X68067448Y-71423469D01*
X68003206Y-71475109D01*
X67937581Y-71502198D01*
X67867728Y-71489506D01*
X67845326Y-71475109D01*
X67781083Y-71423469D01*
X67781081Y-71423468D01*
X67781080Y-71423467D01*
X67612398Y-71339808D01*
X67429675Y-71294367D01*
X67429671Y-71294366D01*
X67387403Y-71291500D01*
X67387394Y-71291500D01*
X64951138Y-71291500D01*
X64951129Y-71291500D01*
X64908861Y-71294366D01*
X64908858Y-71294366D01*
X64771576Y-71328507D01*
X64726134Y-71339808D01*
X64557452Y-71423467D01*
X64557450Y-71423468D01*
X64410698Y-71541432D01*
X64292734Y-71688184D01*
X64292733Y-71688185D01*
X64292733Y-71688186D01*
X64209074Y-71856868D01*
X64207947Y-71861400D01*
X64163632Y-72039592D01*
X64163632Y-72039595D01*
X64160766Y-72081862D01*
X64160766Y-73518137D01*
X59698801Y-73518137D01*
X65831275Y-58943148D01*
X65836553Y-58932139D01*
X65869409Y-58871419D01*
X65883141Y-58851074D01*
X65991808Y-58719785D01*
X66009252Y-58702471D01*
X66141335Y-58594790D01*
X66161808Y-58581191D01*
X66312290Y-58501205D01*
X66335015Y-58491843D01*
X66498157Y-58442602D01*
X66522268Y-58437829D01*
X66568630Y-58433284D01*
X66590910Y-58431101D01*
X66603201Y-58430500D01*
X236197951Y-58430500D01*
X236198038Y-58430512D01*
G37*
%TD.AperFunction*%
%TD*%
M02*
