%TF.GenerationSoftware,KiCad,Pcbnew,8.0.1*%
%TF.CreationDate,2024-04-20T14:56:34-05:00*%
%TF.ProjectId,badge,62616467-652e-46b6-9963-61645f706362,rev?*%
%TF.SameCoordinates,Original*%
%TF.FileFunction,Drillmap*%
%TF.FilePolarity,Positive*%
%FSLAX45Y45*%
G04 Gerber Fmt 4.5, Leading zero omitted, Abs format (unit mm)*
G04 Created by KiCad (PCBNEW 8.0.1) date 2024-04-20 14:56:34*
%MOMM*%
%LPD*%
G01*
G04 APERTURE LIST*
%ADD10C,0.050000*%
%ADD11C,0.200000*%
%ADD12C,0.300000*%
G04 APERTURE END LIST*
D10*
X5080000Y-10668000D02*
X18288000Y-10668000D01*
X5080000Y-10668000D02*
G75*
G02*
X4778813Y-10179909I190J337090D01*
G01*
X23622000Y-5842000D02*
X6604000Y-5842000D01*
X18288000Y-10668000D02*
X23784261Y-6316291D01*
X6604000Y-5842000D02*
X4778811Y-10179908D01*
X23622000Y-5842000D02*
G75*
G02*
X23784261Y-6316291I180J-264840D01*
G01*
D11*
D12*
X5167173Y-9333491D02*
X5467173Y-9633491D01*
X5467173Y-9333491D02*
X5167173Y-9633491D01*
X5450429Y-6095859D02*
X5750429Y-6395859D01*
X5750429Y-6095859D02*
X5450429Y-6395859D01*
X11346000Y-13452000D02*
X11646000Y-13752000D01*
X11646000Y-13452000D02*
X11346000Y-13752000D01*
X17926000Y-10202000D02*
X18226000Y-10502000D01*
X18226000Y-10202000D02*
X17926000Y-10502000D01*
X17926000Y-13452000D02*
X18226000Y-13752000D01*
X18226000Y-13452000D02*
X17926000Y-13752000D01*
D11*
X5001377Y-10981984D02*
X5001377Y-10781984D01*
X5001377Y-10781984D02*
X5048996Y-10781984D01*
X5048996Y-10781984D02*
X5077567Y-10791508D01*
X5077567Y-10791508D02*
X5096615Y-10810555D01*
X5096615Y-10810555D02*
X5106139Y-10829603D01*
X5106139Y-10829603D02*
X5115662Y-10867698D01*
X5115662Y-10867698D02*
X5115662Y-10896270D01*
X5115662Y-10896270D02*
X5106139Y-10934365D01*
X5106139Y-10934365D02*
X5096615Y-10953412D01*
X5096615Y-10953412D02*
X5077567Y-10972460D01*
X5077567Y-10972460D02*
X5048996Y-10981984D01*
X5048996Y-10981984D02*
X5001377Y-10981984D01*
X5201377Y-10981984D02*
X5201377Y-10848650D01*
X5201377Y-10886746D02*
X5210901Y-10867698D01*
X5210901Y-10867698D02*
X5220424Y-10858174D01*
X5220424Y-10858174D02*
X5239472Y-10848650D01*
X5239472Y-10848650D02*
X5258520Y-10848650D01*
X5325186Y-10981984D02*
X5325186Y-10848650D01*
X5325186Y-10781984D02*
X5315662Y-10791508D01*
X5315662Y-10791508D02*
X5325186Y-10801031D01*
X5325186Y-10801031D02*
X5334710Y-10791508D01*
X5334710Y-10791508D02*
X5325186Y-10781984D01*
X5325186Y-10781984D02*
X5325186Y-10801031D01*
X5448996Y-10981984D02*
X5429948Y-10972460D01*
X5429948Y-10972460D02*
X5420424Y-10953412D01*
X5420424Y-10953412D02*
X5420424Y-10781984D01*
X5553758Y-10981984D02*
X5534710Y-10972460D01*
X5534710Y-10972460D02*
X5525186Y-10953412D01*
X5525186Y-10953412D02*
X5525186Y-10781984D01*
X5782329Y-10981984D02*
X5782329Y-10781984D01*
X5782329Y-10781984D02*
X5848996Y-10924841D01*
X5848996Y-10924841D02*
X5915662Y-10781984D01*
X5915662Y-10781984D02*
X5915662Y-10981984D01*
X6096615Y-10981984D02*
X6096615Y-10877222D01*
X6096615Y-10877222D02*
X6087091Y-10858174D01*
X6087091Y-10858174D02*
X6068043Y-10848650D01*
X6068043Y-10848650D02*
X6029948Y-10848650D01*
X6029948Y-10848650D02*
X6010900Y-10858174D01*
X6096615Y-10972460D02*
X6077567Y-10981984D01*
X6077567Y-10981984D02*
X6029948Y-10981984D01*
X6029948Y-10981984D02*
X6010900Y-10972460D01*
X6010900Y-10972460D02*
X6001377Y-10953412D01*
X6001377Y-10953412D02*
X6001377Y-10934365D01*
X6001377Y-10934365D02*
X6010900Y-10915317D01*
X6010900Y-10915317D02*
X6029948Y-10905793D01*
X6029948Y-10905793D02*
X6077567Y-10905793D01*
X6077567Y-10905793D02*
X6096615Y-10896270D01*
X6191853Y-10848650D02*
X6191853Y-11048650D01*
X6191853Y-10858174D02*
X6210900Y-10848650D01*
X6210900Y-10848650D02*
X6248996Y-10848650D01*
X6248996Y-10848650D02*
X6268043Y-10858174D01*
X6268043Y-10858174D02*
X6277567Y-10867698D01*
X6277567Y-10867698D02*
X6287091Y-10886746D01*
X6287091Y-10886746D02*
X6287091Y-10943889D01*
X6287091Y-10943889D02*
X6277567Y-10962936D01*
X6277567Y-10962936D02*
X6268043Y-10972460D01*
X6268043Y-10972460D02*
X6248996Y-10981984D01*
X6248996Y-10981984D02*
X6210900Y-10981984D01*
X6210900Y-10981984D02*
X6191853Y-10972460D01*
X6372805Y-10962936D02*
X6382329Y-10972460D01*
X6382329Y-10972460D02*
X6372805Y-10981984D01*
X6372805Y-10981984D02*
X6363281Y-10972460D01*
X6363281Y-10972460D02*
X6372805Y-10962936D01*
X6372805Y-10962936D02*
X6372805Y-10981984D01*
X6372805Y-10858174D02*
X6382329Y-10867698D01*
X6382329Y-10867698D02*
X6372805Y-10877222D01*
X6372805Y-10877222D02*
X6363281Y-10867698D01*
X6363281Y-10867698D02*
X6372805Y-10858174D01*
X6372805Y-10858174D02*
X6372805Y-10877222D01*
X4540600Y-11210500D02*
X4740600Y-11410500D01*
X4740600Y-11210500D02*
X4540600Y-11410500D01*
X4982329Y-11201984D02*
X5106139Y-11201984D01*
X5106139Y-11201984D02*
X5039472Y-11278174D01*
X5039472Y-11278174D02*
X5068043Y-11278174D01*
X5068043Y-11278174D02*
X5087091Y-11287698D01*
X5087091Y-11287698D02*
X5096615Y-11297222D01*
X5096615Y-11297222D02*
X5106139Y-11316269D01*
X5106139Y-11316269D02*
X5106139Y-11363888D01*
X5106139Y-11363888D02*
X5096615Y-11382936D01*
X5096615Y-11382936D02*
X5087091Y-11392460D01*
X5087091Y-11392460D02*
X5068043Y-11401984D01*
X5068043Y-11401984D02*
X5010901Y-11401984D01*
X5010901Y-11401984D02*
X4991853Y-11392460D01*
X4991853Y-11392460D02*
X4982329Y-11382936D01*
X5191853Y-11382936D02*
X5201377Y-11392460D01*
X5201377Y-11392460D02*
X5191853Y-11401984D01*
X5191853Y-11401984D02*
X5182329Y-11392460D01*
X5182329Y-11392460D02*
X5191853Y-11382936D01*
X5191853Y-11382936D02*
X5191853Y-11401984D01*
X5325186Y-11201984D02*
X5344234Y-11201984D01*
X5344234Y-11201984D02*
X5363282Y-11211508D01*
X5363282Y-11211508D02*
X5372805Y-11221031D01*
X5372805Y-11221031D02*
X5382329Y-11240079D01*
X5382329Y-11240079D02*
X5391853Y-11278174D01*
X5391853Y-11278174D02*
X5391853Y-11325793D01*
X5391853Y-11325793D02*
X5382329Y-11363888D01*
X5382329Y-11363888D02*
X5372805Y-11382936D01*
X5372805Y-11382936D02*
X5363282Y-11392460D01*
X5363282Y-11392460D02*
X5344234Y-11401984D01*
X5344234Y-11401984D02*
X5325186Y-11401984D01*
X5325186Y-11401984D02*
X5306139Y-11392460D01*
X5306139Y-11392460D02*
X5296615Y-11382936D01*
X5296615Y-11382936D02*
X5287091Y-11363888D01*
X5287091Y-11363888D02*
X5277567Y-11325793D01*
X5277567Y-11325793D02*
X5277567Y-11278174D01*
X5277567Y-11278174D02*
X5287091Y-11240079D01*
X5287091Y-11240079D02*
X5296615Y-11221031D01*
X5296615Y-11221031D02*
X5306139Y-11211508D01*
X5306139Y-11211508D02*
X5325186Y-11201984D01*
X5515662Y-11201984D02*
X5534710Y-11201984D01*
X5534710Y-11201984D02*
X5553758Y-11211508D01*
X5553758Y-11211508D02*
X5563282Y-11221031D01*
X5563282Y-11221031D02*
X5572805Y-11240079D01*
X5572805Y-11240079D02*
X5582329Y-11278174D01*
X5582329Y-11278174D02*
X5582329Y-11325793D01*
X5582329Y-11325793D02*
X5572805Y-11363888D01*
X5572805Y-11363888D02*
X5563282Y-11382936D01*
X5563282Y-11382936D02*
X5553758Y-11392460D01*
X5553758Y-11392460D02*
X5534710Y-11401984D01*
X5534710Y-11401984D02*
X5515662Y-11401984D01*
X5515662Y-11401984D02*
X5496615Y-11392460D01*
X5496615Y-11392460D02*
X5487091Y-11382936D01*
X5487091Y-11382936D02*
X5477567Y-11363888D01*
X5477567Y-11363888D02*
X5468043Y-11325793D01*
X5468043Y-11325793D02*
X5468043Y-11278174D01*
X5468043Y-11278174D02*
X5477567Y-11240079D01*
X5477567Y-11240079D02*
X5487091Y-11221031D01*
X5487091Y-11221031D02*
X5496615Y-11211508D01*
X5496615Y-11211508D02*
X5515662Y-11201984D01*
X5706139Y-11201984D02*
X5725186Y-11201984D01*
X5725186Y-11201984D02*
X5744234Y-11211508D01*
X5744234Y-11211508D02*
X5753758Y-11221031D01*
X5753758Y-11221031D02*
X5763281Y-11240079D01*
X5763281Y-11240079D02*
X5772805Y-11278174D01*
X5772805Y-11278174D02*
X5772805Y-11325793D01*
X5772805Y-11325793D02*
X5763281Y-11363888D01*
X5763281Y-11363888D02*
X5753758Y-11382936D01*
X5753758Y-11382936D02*
X5744234Y-11392460D01*
X5744234Y-11392460D02*
X5725186Y-11401984D01*
X5725186Y-11401984D02*
X5706139Y-11401984D01*
X5706139Y-11401984D02*
X5687091Y-11392460D01*
X5687091Y-11392460D02*
X5677567Y-11382936D01*
X5677567Y-11382936D02*
X5668043Y-11363888D01*
X5668043Y-11363888D02*
X5658520Y-11325793D01*
X5658520Y-11325793D02*
X5658520Y-11278174D01*
X5658520Y-11278174D02*
X5668043Y-11240079D01*
X5668043Y-11240079D02*
X5677567Y-11221031D01*
X5677567Y-11221031D02*
X5687091Y-11211508D01*
X5687091Y-11211508D02*
X5706139Y-11201984D01*
X5858520Y-11401984D02*
X5858520Y-11268650D01*
X5858520Y-11287698D02*
X5868043Y-11278174D01*
X5868043Y-11278174D02*
X5887091Y-11268650D01*
X5887091Y-11268650D02*
X5915662Y-11268650D01*
X5915662Y-11268650D02*
X5934710Y-11278174D01*
X5934710Y-11278174D02*
X5944234Y-11297222D01*
X5944234Y-11297222D02*
X5944234Y-11401984D01*
X5944234Y-11297222D02*
X5953758Y-11278174D01*
X5953758Y-11278174D02*
X5972805Y-11268650D01*
X5972805Y-11268650D02*
X6001377Y-11268650D01*
X6001377Y-11268650D02*
X6020424Y-11278174D01*
X6020424Y-11278174D02*
X6029948Y-11297222D01*
X6029948Y-11297222D02*
X6029948Y-11401984D01*
X6125186Y-11401984D02*
X6125186Y-11268650D01*
X6125186Y-11287698D02*
X6134710Y-11278174D01*
X6134710Y-11278174D02*
X6153758Y-11268650D01*
X6153758Y-11268650D02*
X6182329Y-11268650D01*
X6182329Y-11268650D02*
X6201377Y-11278174D01*
X6201377Y-11278174D02*
X6210901Y-11297222D01*
X6210901Y-11297222D02*
X6210901Y-11401984D01*
X6210901Y-11297222D02*
X6220424Y-11278174D01*
X6220424Y-11278174D02*
X6239472Y-11268650D01*
X6239472Y-11268650D02*
X6268043Y-11268650D01*
X6268043Y-11268650D02*
X6287091Y-11278174D01*
X6287091Y-11278174D02*
X6296615Y-11297222D01*
X6296615Y-11297222D02*
X6296615Y-11401984D01*
X6687091Y-11192460D02*
X6515663Y-11449603D01*
X6944234Y-11201984D02*
X6963282Y-11201984D01*
X6963282Y-11201984D02*
X6982329Y-11211508D01*
X6982329Y-11211508D02*
X6991853Y-11221031D01*
X6991853Y-11221031D02*
X7001377Y-11240079D01*
X7001377Y-11240079D02*
X7010901Y-11278174D01*
X7010901Y-11278174D02*
X7010901Y-11325793D01*
X7010901Y-11325793D02*
X7001377Y-11363888D01*
X7001377Y-11363888D02*
X6991853Y-11382936D01*
X6991853Y-11382936D02*
X6982329Y-11392460D01*
X6982329Y-11392460D02*
X6963282Y-11401984D01*
X6963282Y-11401984D02*
X6944234Y-11401984D01*
X6944234Y-11401984D02*
X6925186Y-11392460D01*
X6925186Y-11392460D02*
X6915663Y-11382936D01*
X6915663Y-11382936D02*
X6906139Y-11363888D01*
X6906139Y-11363888D02*
X6896615Y-11325793D01*
X6896615Y-11325793D02*
X6896615Y-11278174D01*
X6896615Y-11278174D02*
X6906139Y-11240079D01*
X6906139Y-11240079D02*
X6915663Y-11221031D01*
X6915663Y-11221031D02*
X6925186Y-11211508D01*
X6925186Y-11211508D02*
X6944234Y-11201984D01*
X7096615Y-11382936D02*
X7106139Y-11392460D01*
X7106139Y-11392460D02*
X7096615Y-11401984D01*
X7096615Y-11401984D02*
X7087091Y-11392460D01*
X7087091Y-11392460D02*
X7096615Y-11382936D01*
X7096615Y-11382936D02*
X7096615Y-11401984D01*
X7296615Y-11401984D02*
X7182329Y-11401984D01*
X7239472Y-11401984D02*
X7239472Y-11201984D01*
X7239472Y-11201984D02*
X7220424Y-11230555D01*
X7220424Y-11230555D02*
X7201377Y-11249603D01*
X7201377Y-11249603D02*
X7182329Y-11259127D01*
X7487091Y-11401984D02*
X7372805Y-11401984D01*
X7429948Y-11401984D02*
X7429948Y-11201984D01*
X7429948Y-11201984D02*
X7410901Y-11230555D01*
X7410901Y-11230555D02*
X7391853Y-11249603D01*
X7391853Y-11249603D02*
X7372805Y-11259127D01*
X7601377Y-11287698D02*
X7582329Y-11278174D01*
X7582329Y-11278174D02*
X7572805Y-11268650D01*
X7572805Y-11268650D02*
X7563282Y-11249603D01*
X7563282Y-11249603D02*
X7563282Y-11240079D01*
X7563282Y-11240079D02*
X7572805Y-11221031D01*
X7572805Y-11221031D02*
X7582329Y-11211508D01*
X7582329Y-11211508D02*
X7601377Y-11201984D01*
X7601377Y-11201984D02*
X7639472Y-11201984D01*
X7639472Y-11201984D02*
X7658520Y-11211508D01*
X7658520Y-11211508D02*
X7668044Y-11221031D01*
X7668044Y-11221031D02*
X7677567Y-11240079D01*
X7677567Y-11240079D02*
X7677567Y-11249603D01*
X7677567Y-11249603D02*
X7668044Y-11268650D01*
X7668044Y-11268650D02*
X7658520Y-11278174D01*
X7658520Y-11278174D02*
X7639472Y-11287698D01*
X7639472Y-11287698D02*
X7601377Y-11287698D01*
X7601377Y-11287698D02*
X7582329Y-11297222D01*
X7582329Y-11297222D02*
X7572805Y-11306746D01*
X7572805Y-11306746D02*
X7563282Y-11325793D01*
X7563282Y-11325793D02*
X7563282Y-11363888D01*
X7563282Y-11363888D02*
X7572805Y-11382936D01*
X7572805Y-11382936D02*
X7582329Y-11392460D01*
X7582329Y-11392460D02*
X7601377Y-11401984D01*
X7601377Y-11401984D02*
X7639472Y-11401984D01*
X7639472Y-11401984D02*
X7658520Y-11392460D01*
X7658520Y-11392460D02*
X7668044Y-11382936D01*
X7668044Y-11382936D02*
X7677567Y-11363888D01*
X7677567Y-11363888D02*
X7677567Y-11325793D01*
X7677567Y-11325793D02*
X7668044Y-11306746D01*
X7668044Y-11306746D02*
X7658520Y-11297222D01*
X7658520Y-11297222D02*
X7639472Y-11287698D01*
X7868044Y-11401984D02*
X7753758Y-11401984D01*
X7810901Y-11401984D02*
X7810901Y-11201984D01*
X7810901Y-11201984D02*
X7791853Y-11230555D01*
X7791853Y-11230555D02*
X7772805Y-11249603D01*
X7772805Y-11249603D02*
X7753758Y-11259127D01*
X7944234Y-11201984D02*
X7944234Y-11240079D01*
X8020425Y-11201984D02*
X8020425Y-11240079D01*
X8315663Y-11478174D02*
X8306139Y-11468650D01*
X8306139Y-11468650D02*
X8287091Y-11440079D01*
X8287091Y-11440079D02*
X8277567Y-11421031D01*
X8277567Y-11421031D02*
X8268044Y-11392460D01*
X8268044Y-11392460D02*
X8258520Y-11344841D01*
X8258520Y-11344841D02*
X8258520Y-11306746D01*
X8258520Y-11306746D02*
X8268044Y-11259127D01*
X8268044Y-11259127D02*
X8277567Y-11230555D01*
X8277567Y-11230555D02*
X8287091Y-11211508D01*
X8287091Y-11211508D02*
X8306139Y-11182936D01*
X8306139Y-11182936D02*
X8315663Y-11173412D01*
X8487091Y-11201984D02*
X8391853Y-11201984D01*
X8391853Y-11201984D02*
X8382329Y-11297222D01*
X8382329Y-11297222D02*
X8391853Y-11287698D01*
X8391853Y-11287698D02*
X8410901Y-11278174D01*
X8410901Y-11278174D02*
X8458520Y-11278174D01*
X8458520Y-11278174D02*
X8477568Y-11287698D01*
X8477568Y-11287698D02*
X8487091Y-11297222D01*
X8487091Y-11297222D02*
X8496615Y-11316269D01*
X8496615Y-11316269D02*
X8496615Y-11363888D01*
X8496615Y-11363888D02*
X8487091Y-11382936D01*
X8487091Y-11382936D02*
X8477568Y-11392460D01*
X8477568Y-11392460D02*
X8458520Y-11401984D01*
X8458520Y-11401984D02*
X8410901Y-11401984D01*
X8410901Y-11401984D02*
X8391853Y-11392460D01*
X8391853Y-11392460D02*
X8382329Y-11382936D01*
X8734710Y-11401984D02*
X8734710Y-11201984D01*
X8820425Y-11401984D02*
X8820425Y-11297222D01*
X8820425Y-11297222D02*
X8810901Y-11278174D01*
X8810901Y-11278174D02*
X8791853Y-11268650D01*
X8791853Y-11268650D02*
X8763282Y-11268650D01*
X8763282Y-11268650D02*
X8744234Y-11278174D01*
X8744234Y-11278174D02*
X8734710Y-11287698D01*
X8944234Y-11401984D02*
X8925187Y-11392460D01*
X8925187Y-11392460D02*
X8915663Y-11382936D01*
X8915663Y-11382936D02*
X8906139Y-11363888D01*
X8906139Y-11363888D02*
X8906139Y-11306746D01*
X8906139Y-11306746D02*
X8915663Y-11287698D01*
X8915663Y-11287698D02*
X8925187Y-11278174D01*
X8925187Y-11278174D02*
X8944234Y-11268650D01*
X8944234Y-11268650D02*
X8972806Y-11268650D01*
X8972806Y-11268650D02*
X8991853Y-11278174D01*
X8991853Y-11278174D02*
X9001377Y-11287698D01*
X9001377Y-11287698D02*
X9010901Y-11306746D01*
X9010901Y-11306746D02*
X9010901Y-11363888D01*
X9010901Y-11363888D02*
X9001377Y-11382936D01*
X9001377Y-11382936D02*
X8991853Y-11392460D01*
X8991853Y-11392460D02*
X8972806Y-11401984D01*
X8972806Y-11401984D02*
X8944234Y-11401984D01*
X9125187Y-11401984D02*
X9106139Y-11392460D01*
X9106139Y-11392460D02*
X9096615Y-11373412D01*
X9096615Y-11373412D02*
X9096615Y-11201984D01*
X9277568Y-11392460D02*
X9258520Y-11401984D01*
X9258520Y-11401984D02*
X9220425Y-11401984D01*
X9220425Y-11401984D02*
X9201377Y-11392460D01*
X9201377Y-11392460D02*
X9191853Y-11373412D01*
X9191853Y-11373412D02*
X9191853Y-11297222D01*
X9191853Y-11297222D02*
X9201377Y-11278174D01*
X9201377Y-11278174D02*
X9220425Y-11268650D01*
X9220425Y-11268650D02*
X9258520Y-11268650D01*
X9258520Y-11268650D02*
X9277568Y-11278174D01*
X9277568Y-11278174D02*
X9287091Y-11297222D01*
X9287091Y-11297222D02*
X9287091Y-11316269D01*
X9287091Y-11316269D02*
X9191853Y-11335317D01*
X9363282Y-11392460D02*
X9382330Y-11401984D01*
X9382330Y-11401984D02*
X9420425Y-11401984D01*
X9420425Y-11401984D02*
X9439472Y-11392460D01*
X9439472Y-11392460D02*
X9448996Y-11373412D01*
X9448996Y-11373412D02*
X9448996Y-11363888D01*
X9448996Y-11363888D02*
X9439472Y-11344841D01*
X9439472Y-11344841D02*
X9420425Y-11335317D01*
X9420425Y-11335317D02*
X9391853Y-11335317D01*
X9391853Y-11335317D02*
X9372806Y-11325793D01*
X9372806Y-11325793D02*
X9363282Y-11306746D01*
X9363282Y-11306746D02*
X9363282Y-11297222D01*
X9363282Y-11297222D02*
X9372806Y-11278174D01*
X9372806Y-11278174D02*
X9391853Y-11268650D01*
X9391853Y-11268650D02*
X9420425Y-11268650D01*
X9420425Y-11268650D02*
X9439472Y-11278174D01*
X9515663Y-11478174D02*
X9525187Y-11468650D01*
X9525187Y-11468650D02*
X9544234Y-11440079D01*
X9544234Y-11440079D02*
X9553758Y-11421031D01*
X9553758Y-11421031D02*
X9563282Y-11392460D01*
X9563282Y-11392460D02*
X9572806Y-11344841D01*
X9572806Y-11344841D02*
X9572806Y-11306746D01*
X9572806Y-11306746D02*
X9563282Y-11259127D01*
X9563282Y-11259127D02*
X9553758Y-11230555D01*
X9553758Y-11230555D02*
X9544234Y-11211508D01*
X9544234Y-11211508D02*
X9525187Y-11182936D01*
X9525187Y-11182936D02*
X9515663Y-11173412D01*
X9877568Y-11478174D02*
X9868044Y-11468650D01*
X9868044Y-11468650D02*
X9848996Y-11440079D01*
X9848996Y-11440079D02*
X9839472Y-11421031D01*
X9839472Y-11421031D02*
X9829949Y-11392460D01*
X9829949Y-11392460D02*
X9820425Y-11344841D01*
X9820425Y-11344841D02*
X9820425Y-11306746D01*
X9820425Y-11306746D02*
X9829949Y-11259127D01*
X9829949Y-11259127D02*
X9839472Y-11230555D01*
X9839472Y-11230555D02*
X9848996Y-11211508D01*
X9848996Y-11211508D02*
X9868044Y-11182936D01*
X9868044Y-11182936D02*
X9877568Y-11173412D01*
X9953758Y-11268650D02*
X9953758Y-11401984D01*
X9953758Y-11287698D02*
X9963282Y-11278174D01*
X9963282Y-11278174D02*
X9982330Y-11268650D01*
X9982330Y-11268650D02*
X10010901Y-11268650D01*
X10010901Y-11268650D02*
X10029949Y-11278174D01*
X10029949Y-11278174D02*
X10039472Y-11297222D01*
X10039472Y-11297222D02*
X10039472Y-11401984D01*
X10163282Y-11401984D02*
X10144234Y-11392460D01*
X10144234Y-11392460D02*
X10134711Y-11382936D01*
X10134711Y-11382936D02*
X10125187Y-11363888D01*
X10125187Y-11363888D02*
X10125187Y-11306746D01*
X10125187Y-11306746D02*
X10134711Y-11287698D01*
X10134711Y-11287698D02*
X10144234Y-11278174D01*
X10144234Y-11278174D02*
X10163282Y-11268650D01*
X10163282Y-11268650D02*
X10191853Y-11268650D01*
X10191853Y-11268650D02*
X10210901Y-11278174D01*
X10210901Y-11278174D02*
X10220425Y-11287698D01*
X10220425Y-11287698D02*
X10229949Y-11306746D01*
X10229949Y-11306746D02*
X10229949Y-11363888D01*
X10229949Y-11363888D02*
X10220425Y-11382936D01*
X10220425Y-11382936D02*
X10210901Y-11392460D01*
X10210901Y-11392460D02*
X10191853Y-11401984D01*
X10191853Y-11401984D02*
X10163282Y-11401984D01*
X10287092Y-11268650D02*
X10363282Y-11268650D01*
X10315663Y-11201984D02*
X10315663Y-11373412D01*
X10315663Y-11373412D02*
X10325187Y-11392460D01*
X10325187Y-11392460D02*
X10344234Y-11401984D01*
X10344234Y-11401984D02*
X10363282Y-11401984D01*
X10582330Y-11268650D02*
X10582330Y-11468650D01*
X10582330Y-11278174D02*
X10601377Y-11268650D01*
X10601377Y-11268650D02*
X10639473Y-11268650D01*
X10639473Y-11268650D02*
X10658520Y-11278174D01*
X10658520Y-11278174D02*
X10668044Y-11287698D01*
X10668044Y-11287698D02*
X10677568Y-11306746D01*
X10677568Y-11306746D02*
X10677568Y-11363888D01*
X10677568Y-11363888D02*
X10668044Y-11382936D01*
X10668044Y-11382936D02*
X10658520Y-11392460D01*
X10658520Y-11392460D02*
X10639473Y-11401984D01*
X10639473Y-11401984D02*
X10601377Y-11401984D01*
X10601377Y-11401984D02*
X10582330Y-11392460D01*
X10791853Y-11401984D02*
X10772806Y-11392460D01*
X10772806Y-11392460D02*
X10763282Y-11373412D01*
X10763282Y-11373412D02*
X10763282Y-11201984D01*
X10953758Y-11401984D02*
X10953758Y-11297222D01*
X10953758Y-11297222D02*
X10944234Y-11278174D01*
X10944234Y-11278174D02*
X10925187Y-11268650D01*
X10925187Y-11268650D02*
X10887092Y-11268650D01*
X10887092Y-11268650D02*
X10868044Y-11278174D01*
X10953758Y-11392460D02*
X10934711Y-11401984D01*
X10934711Y-11401984D02*
X10887092Y-11401984D01*
X10887092Y-11401984D02*
X10868044Y-11392460D01*
X10868044Y-11392460D02*
X10858520Y-11373412D01*
X10858520Y-11373412D02*
X10858520Y-11354365D01*
X10858520Y-11354365D02*
X10868044Y-11335317D01*
X10868044Y-11335317D02*
X10887092Y-11325793D01*
X10887092Y-11325793D02*
X10934711Y-11325793D01*
X10934711Y-11325793D02*
X10953758Y-11316269D01*
X11020425Y-11268650D02*
X11096615Y-11268650D01*
X11048996Y-11201984D02*
X11048996Y-11373412D01*
X11048996Y-11373412D02*
X11058520Y-11392460D01*
X11058520Y-11392460D02*
X11077568Y-11401984D01*
X11077568Y-11401984D02*
X11096615Y-11401984D01*
X11239472Y-11392460D02*
X11220425Y-11401984D01*
X11220425Y-11401984D02*
X11182330Y-11401984D01*
X11182330Y-11401984D02*
X11163282Y-11392460D01*
X11163282Y-11392460D02*
X11153758Y-11373412D01*
X11153758Y-11373412D02*
X11153758Y-11297222D01*
X11153758Y-11297222D02*
X11163282Y-11278174D01*
X11163282Y-11278174D02*
X11182330Y-11268650D01*
X11182330Y-11268650D02*
X11220425Y-11268650D01*
X11220425Y-11268650D02*
X11239472Y-11278174D01*
X11239472Y-11278174D02*
X11248996Y-11297222D01*
X11248996Y-11297222D02*
X11248996Y-11316269D01*
X11248996Y-11316269D02*
X11153758Y-11335317D01*
X11420425Y-11401984D02*
X11420425Y-11201984D01*
X11420425Y-11392460D02*
X11401377Y-11401984D01*
X11401377Y-11401984D02*
X11363282Y-11401984D01*
X11363282Y-11401984D02*
X11344234Y-11392460D01*
X11344234Y-11392460D02*
X11334711Y-11382936D01*
X11334711Y-11382936D02*
X11325187Y-11363888D01*
X11325187Y-11363888D02*
X11325187Y-11306746D01*
X11325187Y-11306746D02*
X11334711Y-11287698D01*
X11334711Y-11287698D02*
X11344234Y-11278174D01*
X11344234Y-11278174D02*
X11363282Y-11268650D01*
X11363282Y-11268650D02*
X11401377Y-11268650D01*
X11401377Y-11268650D02*
X11420425Y-11278174D01*
X11496615Y-11478174D02*
X11506139Y-11468650D01*
X11506139Y-11468650D02*
X11525187Y-11440079D01*
X11525187Y-11440079D02*
X11534711Y-11421031D01*
X11534711Y-11421031D02*
X11544234Y-11392460D01*
X11544234Y-11392460D02*
X11553758Y-11344841D01*
X11553758Y-11344841D02*
X11553758Y-11306746D01*
X11553758Y-11306746D02*
X11544234Y-11259127D01*
X11544234Y-11259127D02*
X11534711Y-11230555D01*
X11534711Y-11230555D02*
X11525187Y-11211508D01*
X11525187Y-11211508D02*
X11506139Y-11182936D01*
X11506139Y-11182936D02*
X11496615Y-11173412D01*
M02*
