%TF.GenerationSoftware,KiCad,Pcbnew,8.0.1*%
%TF.CreationDate,2024-04-05T23:02:15-05:00*%
%TF.ProjectId,badge,62616467-652e-46b6-9963-61645f706362,rev?*%
%TF.SameCoordinates,Original*%
%TF.FileFunction,Paste,Top*%
%TF.FilePolarity,Positive*%
%FSLAX46Y46*%
G04 Gerber Fmt 4.6, Leading zero omitted, Abs format (unit mm)*
G04 Created by KiCad (PCBNEW 8.0.1) date 2024-04-05 23:02:15*
%MOMM*%
%LPD*%
G01*
G04 APERTURE LIST*
G04 Aperture macros list*
%AMRoundRect*
0 Rectangle with rounded corners*
0 $1 Rounding radius*
0 $2 $3 $4 $5 $6 $7 $8 $9 X,Y pos of 4 corners*
0 Add a 4 corners polygon primitive as box body*
4,1,4,$2,$3,$4,$5,$6,$7,$8,$9,$2,$3,0*
0 Add four circle primitives for the rounded corners*
1,1,$1+$1,$2,$3*
1,1,$1+$1,$4,$5*
1,1,$1+$1,$6,$7*
1,1,$1+$1,$8,$9*
0 Add four rect primitives between the rounded corners*
20,1,$1+$1,$2,$3,$4,$5,0*
20,1,$1+$1,$4,$5,$6,$7,0*
20,1,$1+$1,$6,$7,$8,$9,0*
20,1,$1+$1,$8,$9,$2,$3,0*%
G04 Aperture macros list end*
%ADD10R,0.800000X0.500000*%
%ADD11R,0.500000X0.980000*%
%ADD12R,0.800000X0.300000*%
%ADD13R,0.500000X1.460000*%
%ADD14C,3.000000*%
%ADD15RoundRect,0.357142X1.142858X-0.642858X1.142858X0.642858X-1.142858X0.642858X-1.142858X-0.642858X0*%
%ADD16RoundRect,0.357142X-1.142858X0.642858X-1.142858X-0.642858X1.142858X-0.642858X1.142858X0.642858X0*%
G04 APERTURE END LIST*
D10*
%TO.C,D2*%
X117690000Y-64400000D03*
D11*
X116840000Y-64340000D03*
D12*
X117690000Y-63500000D03*
D10*
X117690000Y-62600000D03*
X115990000Y-62600000D03*
D12*
X115990000Y-63500000D03*
D13*
X116840000Y-62900000D03*
D10*
X115990000Y-64400000D03*
%TD*%
%TO.C,D1*%
X54190000Y-102500000D03*
D11*
X53340000Y-102440000D03*
D12*
X54190000Y-101600000D03*
D10*
X54190000Y-100700000D03*
X52490000Y-100700000D03*
D12*
X52490000Y-101600000D03*
D13*
X53340000Y-101000000D03*
D10*
X52490000Y-102500000D03*
%TD*%
D14*
%TO.C,lanyard1*%
X68580000Y-62230000D03*
%TD*%
D10*
%TO.C,D4*%
X160870000Y-105040000D03*
D11*
X160020000Y-104980000D03*
D12*
X160870000Y-104140000D03*
D10*
X160870000Y-103240000D03*
X159170000Y-103240000D03*
D12*
X159170000Y-104140000D03*
D13*
X160020000Y-103540000D03*
D10*
X159170000Y-105040000D03*
%TD*%
D14*
%TO.C,U2*%
X114960000Y-136020000D03*
X180760000Y-103520000D03*
X180760000Y-136020000D03*
%TD*%
D10*
%TO.C,D5*%
X187574305Y-79642363D03*
D11*
X186724305Y-79582363D03*
D12*
X187574305Y-78742363D03*
D10*
X187574305Y-77842363D03*
X185874305Y-77842363D03*
D12*
X185874305Y-78742363D03*
D13*
X186724305Y-78142363D03*
D10*
X185874305Y-79642363D03*
%TD*%
D15*
%TO.C,R9*%
X69679266Y-77600000D03*
X69679266Y-72800000D03*
%TD*%
D14*
%TO.C,lanyard2*%
X228600000Y-62230000D03*
%TD*%
D16*
%TO.C,R10*%
X66169266Y-72800000D03*
X66169266Y-77600000D03*
%TD*%
D10*
%TO.C,D3*%
X127850000Y-74560000D03*
D11*
X127000000Y-74500000D03*
D12*
X127850000Y-73660000D03*
D10*
X127850000Y-72760000D03*
X126150000Y-72760000D03*
D12*
X126150000Y-73660000D03*
D13*
X127000000Y-73060000D03*
D10*
X126150000Y-74560000D03*
%TD*%
D14*
%TO.C,U2*%
X56004294Y-62458587D03*
X53171733Y-94834914D03*
%TD*%
M02*
