M48
; DRILL file {KiCad 8.0.1} date 2024-03-19T12:38:19-0500
; FORMAT={-:-/ absolute / metric / decimal}
; #@! TF.CreationDate,2024-03-19T12:38:19-05:00
; #@! TF.GenerationSoftware,Kicad,Pcbnew,8.0.1
; #@! TF.FileFunction,Plated,1,2,PTH
FMAT,2
METRIC
; #@! TA.AperFunction,Plated,PTH,ViaDrill
T1C0.400
; #@! TA.AperFunction,Plated,PTH,ViaDrill
T2C0.600
; #@! TA.AperFunction,Plated,PTH,ComponentDrill
T3C0.800
; #@! TA.AperFunction,Plated,PTH,ComponentDrill
T4C0.900
; #@! TA.AperFunction,Plated,PTH,ComponentDrill
T5C1.000
; #@! TA.AperFunction,Plated,PTH,ComponentDrill
T6C1.100
; #@! TA.AperFunction,Plated,PTH,ComponentDrill
T7C2.500
; #@! TA.AperFunction,Plated,PTH,ComponentDrill
T8C3.000
%
G90
G05
T1
X50.8Y-99.06
X50.8Y-104.14
X52.39Y-102.6
X53.34Y-91.44
X54.34Y-102.6
X55.9Y-99.7
X58.1Y-99.0
X58.4Y-101.6
X61.4Y-81.28
X63.5Y-68.58
X66.04Y-63.5
X66.04Y-104.14
X66.66Y-73.5
X69.2Y-96.5
X69.9Y-75.5
X71.12Y-60.96
X72.1Y-70.3
X72.8Y-97.6
X74.3Y-98.6
X74.6Y-71.8
X76.8Y-83.7
X76.82Y-100.6
X77.1Y-70.3
X78.74Y-60.96
X81.28Y-96.52
X81.28Y-104.14
X81.9Y-64.9
X82.6Y-88.5
X83.8Y-71.3
X83.82Y-60.96
X84.0Y-79.2
X84.4Y-65.2
X84.8Y-90.1
X87.0Y-65.4
X89.5Y-65.6
X90.3Y-88.7
X92.271Y-97.4
X92.996Y-85.204
X96.52Y-60.96
X96.52Y-88.9
X98.07Y-68.58
X105.8Y-66.04
X109.22Y-78.74
X109.22Y-96.52
X109.22Y-104.14
X109.7Y-68.1
X110.822Y-90.49
X111.76Y-63.5
X111.8Y-60.51
X115.89Y-64.5
X116.4Y-78.74
X116.84Y-67.375
X117.79Y-64.5
X119.4Y-78.74
X121.36Y-60.51
X121.554Y-68.193
X121.6Y-65.6
X121.92Y-96.52
X123.45Y-68.85
X123.9Y-66.1
X123.95Y-88.94
X126.07Y-74.64
X127.0Y-78.74
X127.95Y-74.66
X129.3Y-69.4
X132.08Y-91.44
X132.08Y-103.05
X134.2Y-79.1
X134.25Y-76.55
X137.16Y-60.96
X137.16Y-71.12
X152.4Y-60.96
X152.4Y-71.12
X152.4Y-76.2
X152.646Y-91.686
X155.944Y-101.554
X159.07Y-105.14
X160.02Y-86.36
X160.97Y-105.14
X164.4Y-101.572
X164.9Y-88.2
X165.1Y-104.14
X169.6Y-94.7
X170.18Y-60.96
X170.18Y-71.12
X170.18Y-76.2
X170.18Y-87.0
X172.72Y-96.46
X174.7Y-92.4
X174.7Y-93.8
X177.8Y-91.44
X177.8Y-104.14
X182.858Y-77.842
X182.9Y-80.8
X185.42Y-60.96
X185.42Y-71.12
X185.42Y-76.2
X185.42Y-91.44
X185.42Y-96.52
X185.42Y-101.6
X185.774Y-79.742
X187.674Y-79.742
X190.5Y-96.52
X195.58Y-78.74
X195.58Y-91.44
X197.84Y-83.82
X197.84Y-88.0
X200.66Y-86.36
X205.74Y-81.28
X210.82Y-76.2
X215.9Y-71.12
X220.98Y-66.04
X226.06Y-60.96
T2
X66.04Y-86.3
X87.7Y-81.8
X95.782Y-70.3
X97.5Y-86.6
X104.4Y-71.4
X193.04Y-83.82
T3
X128.58Y-62.2
X131.98Y-62.2
T4
X119.38Y-83.82
X119.38Y-86.36
T5
X66.04Y-99.06
X66.04Y-101.6
X68.58Y-99.06
X68.58Y-101.6
X71.12Y-99.06
X71.12Y-101.6
X78.2Y-63.477
X80.73Y-63.698
X83.261Y-63.92
X85.791Y-64.141
X88.321Y-64.362
X90.852Y-64.584
X93.382Y-64.805
X95.912Y-65.027
X104.14Y-60.96
X104.14Y-63.5
X106.68Y-60.96
X106.68Y-63.5
X109.22Y-60.96
X109.22Y-63.5
X137.16Y-102.6
X139.7Y-102.6
X142.24Y-102.6
X144.78Y-102.6
X147.32Y-102.6
X149.86Y-102.6
X152.4Y-102.6
X154.94Y-102.6
X167.64Y-99.06
X167.64Y-101.6
X170.18Y-99.06
X170.18Y-101.6
X172.72Y-99.06
X172.72Y-101.6
X208.28Y-60.96
X208.28Y-63.5
X210.82Y-60.96
X210.82Y-63.5
X213.36Y-60.96
X213.36Y-63.5
T6
X107.885Y-83.82
X107.885Y-86.36
X107.885Y-88.9
T7
X66.169Y-79.715
X69.679Y-79.715
X70.47Y-86.66
T8
X68.58Y-62.23
X228.6Y-62.23
T8
X134.62Y-62.0G85X134.62Y-65.0
G05
X134.62Y-84.86G85X134.62Y-87.86
G05
X140.74Y-95.25G85X143.74Y-95.25
G05
X178.84Y-95.25G85X181.84Y-95.25
G05
X187.96Y-62.0G85X187.96Y-65.0
G05
X187.96Y-84.86G85X187.96Y-87.86
G05
M30
