%TF.GenerationSoftware,KiCad,Pcbnew,8.0.1*%
%TF.CreationDate,2024-04-20T15:08:51-05:00*%
%TF.ProjectId,badge,62616467-652e-46b6-9963-61645f706362,rev?*%
%TF.SameCoordinates,Original*%
%TF.FileFunction,Legend,Top*%
%TF.FilePolarity,Positive*%
%FSLAX46Y46*%
G04 Gerber Fmt 4.6, Leading zero omitted, Abs format (unit mm)*
G04 Created by KiCad (PCBNEW 8.0.1) date 2024-04-20 15:08:51*
%MOMM*%
%LPD*%
G01*
G04 APERTURE LIST*
G04 Aperture macros list*
%AMRoundRect*
0 Rectangle with rounded corners*
0 $1 Rounding radius*
0 $2 $3 $4 $5 $6 $7 $8 $9 X,Y pos of 4 corners*
0 Add a 4 corners polygon primitive as box body*
4,1,4,$2,$3,$4,$5,$6,$7,$8,$9,$2,$3,0*
0 Add four circle primitives for the rounded corners*
1,1,$1+$1,$2,$3*
1,1,$1+$1,$4,$5*
1,1,$1+$1,$6,$7*
1,1,$1+$1,$8,$9*
0 Add four rect primitives between the rounded corners*
20,1,$1+$1,$2,$3,$4,$5,0*
20,1,$1+$1,$4,$5,$6,$7,0*
20,1,$1+$1,$6,$7,$8,$9,0*
20,1,$1+$1,$8,$9,$2,$3,0*%
%AMRotRect*
0 Rectangle, with rotation*
0 The origin of the aperture is its center*
0 $1 length*
0 $2 width*
0 $3 Rotation angle, in degrees counterclockwise*
0 Add horizontal line*
21,1,$1,$2,0,0,$3*%
G04 Aperture macros list end*
%ADD10C,0.000000*%
%ADD11C,0.500000*%
%ADD12C,0.100000*%
%ADD13C,0.150000*%
%ADD14C,0.120000*%
%ADD15R,0.800000X0.500000*%
%ADD16R,0.500000X0.980000*%
%ADD17R,0.800000X0.300000*%
%ADD18R,0.500000X1.460000*%
%ADD19C,3.000000*%
%ADD20RoundRect,0.250000X-0.600000X0.600000X-0.600000X-0.600000X0.600000X-0.600000X0.600000X0.600000X0*%
%ADD21C,1.700000*%
%ADD22R,1.700000X1.700000*%
%ADD23RoundRect,0.357142X1.142858X-0.642858X1.142858X0.642858X-1.142858X0.642858X-1.142858X-0.642858X0*%
%ADD24RoundRect,0.357142X-1.142858X0.642858X-1.142858X-0.642858X1.142858X-0.642858X1.142858X0.642858X0*%
%ADD25RotRect,1.700000X1.700000X355.000000*%
%ADD26R,1.800000X1.800000*%
%ADD27C,1.800000*%
%ADD28C,1.500000*%
%ADD29R,2.000000X1.905000*%
%ADD30O,2.000000X1.905000*%
G04 APERTURE END LIST*
D10*
G36*
X168993980Y-79373156D02*
G01*
X168987569Y-79379504D01*
X168984807Y-79372199D01*
X168993980Y-79373156D01*
G37*
G36*
X92264172Y-60737405D02*
G01*
X92274175Y-60792104D01*
X92277173Y-60841604D01*
X92276570Y-60901502D01*
X92274571Y-60953302D01*
X92270574Y-61010900D01*
X92267598Y-61031400D01*
X92262601Y-61082200D01*
X92260602Y-61107099D01*
X92277905Y-61150300D01*
X92330304Y-61157102D01*
X92382001Y-61163202D01*
X92407597Y-61166002D01*
X92457799Y-61173200D01*
X92474095Y-61178399D01*
X92473798Y-61179200D01*
X92443997Y-61220399D01*
X92430600Y-61239698D01*
X92396199Y-61257596D01*
X92347302Y-61263597D01*
X92297604Y-61273698D01*
X92251805Y-61291200D01*
X92248807Y-61292699D01*
X92222905Y-61335698D01*
X92213902Y-61371099D01*
X92204900Y-61423600D01*
X92198903Y-61473401D01*
X92194905Y-61522203D01*
X92191907Y-61576803D01*
X92189908Y-61616403D01*
X92187909Y-61669202D01*
X92183911Y-61719003D01*
X92178914Y-61749204D01*
X92166013Y-61778802D01*
X92119611Y-61796003D01*
X92091710Y-61800004D01*
X92062207Y-61789804D01*
X92041104Y-61750203D01*
X92043103Y-61746103D01*
X92043301Y-61744603D01*
X92043401Y-61693002D01*
X92042798Y-61669603D01*
X92101697Y-61385804D01*
X92105695Y-61335504D01*
X92086491Y-61308404D01*
X92075589Y-61307103D01*
X92059186Y-61312005D01*
X92044484Y-61315507D01*
X92025487Y-61312307D01*
X92012288Y-61267309D01*
X92028088Y-61219808D01*
X92028890Y-61218007D01*
X92054990Y-61206006D01*
X92061986Y-61206006D01*
X92104688Y-61183107D01*
X92124486Y-61140306D01*
X92127484Y-61121507D01*
X92129483Y-61069906D01*
X92132481Y-61006406D01*
X92135480Y-60948808D01*
X92139478Y-60897310D01*
X92144475Y-60841409D01*
X92150472Y-60786809D01*
X92157475Y-60745611D01*
X92177075Y-60702909D01*
X92225675Y-60698007D01*
X92228673Y-60698007D01*
X92264172Y-60737405D01*
G37*
G36*
X87647801Y-61091100D02*
G01*
X87684201Y-61125299D01*
X87699300Y-61166700D01*
X87702298Y-61211400D01*
X87697301Y-61225301D01*
X87682004Y-61273702D01*
X87678006Y-61292001D01*
X87673009Y-61315900D01*
X87670010Y-61331601D01*
X87655309Y-61386503D01*
X87634511Y-61439401D01*
X87607610Y-61490300D01*
X87574513Y-61539300D01*
X87535314Y-61586301D01*
X87489911Y-61631402D01*
X87451909Y-61663801D01*
X87410413Y-61695199D01*
X87380811Y-61715501D01*
X87338513Y-61742402D01*
X87291615Y-61767202D01*
X87241918Y-61783304D01*
X87228619Y-61784402D01*
X87218617Y-61783700D01*
X87172017Y-61763501D01*
X87139516Y-61721902D01*
X87123715Y-61673204D01*
X87119718Y-61643705D01*
X87122716Y-61612905D01*
X87127712Y-61594407D01*
X87248036Y-61594407D01*
X87248038Y-61594404D01*
X87248616Y-61594404D01*
X87250615Y-61638105D01*
X87268216Y-61646406D01*
X87314916Y-61631604D01*
X87359715Y-61606206D01*
X87378812Y-61593908D01*
X87418515Y-61564508D01*
X87459119Y-61525907D01*
X87493619Y-61482908D01*
X87522221Y-61435308D01*
X87538823Y-61398507D01*
X87555722Y-61351007D01*
X87563725Y-61319806D01*
X87566724Y-61269407D01*
X87556126Y-61250005D01*
X87518430Y-61229505D01*
X87502828Y-61246606D01*
X87502324Y-61285707D01*
X87458127Y-61306806D01*
X87452130Y-61308908D01*
X87405629Y-61324609D01*
X87400632Y-61326009D01*
X87368733Y-61368207D01*
X87339436Y-61414209D01*
X87311238Y-61459607D01*
X87284840Y-61504808D01*
X87261739Y-61552308D01*
X87248038Y-61594404D01*
X87127713Y-61594404D01*
X87127712Y-61594407D01*
X87127133Y-61594407D01*
X87136136Y-61564306D01*
X87153935Y-61518407D01*
X87174733Y-61471109D01*
X87196332Y-61425107D01*
X87220929Y-61375406D01*
X87247731Y-61324106D01*
X87275029Y-61276006D01*
X87304128Y-61232606D01*
X87317227Y-61217508D01*
X87357427Y-61182107D01*
X87399228Y-61151708D01*
X87442326Y-61126310D01*
X87486928Y-61106008D01*
X87513127Y-61096608D01*
X87561925Y-61084409D01*
X87598523Y-61081010D01*
X87647801Y-61091100D01*
G37*
G36*
X136135901Y-72318701D02*
G01*
X136179007Y-72768302D01*
X136016104Y-73238101D01*
X135622901Y-73653399D01*
X135102500Y-73969500D01*
X134539206Y-74207099D01*
X134322638Y-74282305D01*
X133712532Y-74463805D01*
X133145729Y-74607306D01*
X132554329Y-74745105D01*
X131944633Y-74885306D01*
X132246940Y-82545706D01*
X130511833Y-83177306D01*
X130221840Y-75310607D01*
X130162636Y-75328707D01*
X129596840Y-75513106D01*
X129212944Y-75659205D01*
X128523536Y-75964106D01*
X127944130Y-76291407D01*
X127481331Y-76647807D01*
X127141624Y-77039607D01*
X126931617Y-77473506D01*
X126857811Y-77956004D01*
X126895805Y-78353705D01*
X127016899Y-78785205D01*
X127072197Y-78923403D01*
X127293403Y-79288005D01*
X127655006Y-79553103D01*
X127502006Y-79605204D01*
X126925407Y-79721305D01*
X126370704Y-79636004D01*
X126032509Y-79375205D01*
X125823113Y-78993006D01*
X125726815Y-78604106D01*
X125716210Y-78191405D01*
X125798516Y-77759703D01*
X125981316Y-77313903D01*
X126272011Y-76858603D01*
X126677818Y-76398802D01*
X127206215Y-75939204D01*
X127864708Y-75484706D01*
X128379509Y-75186804D01*
X128957603Y-74894705D01*
X129601097Y-74609904D01*
X130312202Y-74333705D01*
X130620903Y-74224406D01*
X131193107Y-74038405D01*
X131839714Y-73852404D01*
X132433311Y-73697905D01*
X133110908Y-73523204D01*
X133675804Y-73360903D01*
X134267401Y-73160304D01*
X134504203Y-73071105D01*
X135067298Y-72831404D01*
X135588202Y-72566504D01*
X136112296Y-72239302D01*
X136135901Y-72318701D01*
G37*
G36*
X181227498Y-59096001D02*
G01*
X181625401Y-59339800D01*
X181860509Y-59732399D01*
X181938908Y-60069500D01*
X181912404Y-60527199D01*
X181741200Y-60989899D01*
X181431096Y-61452900D01*
X180987599Y-61911099D01*
X180416295Y-62359898D01*
X179907490Y-62687298D01*
X179332188Y-63004597D01*
X178692982Y-63309796D01*
X178796086Y-63644497D01*
X179002980Y-64041198D01*
X179393285Y-64326397D01*
X179961278Y-64353496D01*
X180552083Y-64192695D01*
X180869984Y-64062195D01*
X181399480Y-63770195D01*
X181862385Y-63412995D01*
X182245286Y-63000393D01*
X182235291Y-63403694D01*
X182091294Y-63852092D01*
X181751301Y-64315693D01*
X181261006Y-64706894D01*
X180654607Y-65034992D01*
X180085210Y-65266990D01*
X179741612Y-65377792D01*
X179172505Y-65494194D01*
X178521611Y-65503296D01*
X178030705Y-65384796D01*
X177609212Y-65135696D01*
X177336217Y-64832596D01*
X177132115Y-64428894D01*
X177058018Y-64185196D01*
X176980626Y-63755497D01*
X176952733Y-63264599D01*
X176985036Y-62730297D01*
X177044530Y-62406597D01*
X178605427Y-62406597D01*
X178622426Y-62867596D01*
X179216832Y-62547795D01*
X179731831Y-62205296D01*
X180162236Y-61845394D01*
X180573033Y-61379494D01*
X180832829Y-60905693D01*
X180931126Y-60434494D01*
X180857625Y-59976795D01*
X180658528Y-59700894D01*
X180104024Y-59722893D01*
X179996724Y-59765892D01*
X179441823Y-60144592D01*
X179092030Y-60589394D01*
X178882527Y-61006195D01*
X178733220Y-61459194D01*
X178641621Y-61931595D01*
X178605427Y-62406594D01*
X177044530Y-62406594D01*
X177087926Y-62170193D01*
X177271931Y-61601895D01*
X177547536Y-61043293D01*
X177925236Y-60511894D01*
X178415532Y-60025395D01*
X179028828Y-59601593D01*
X179775731Y-59258093D01*
X180020131Y-59176194D01*
X180657338Y-59045794D01*
X181227498Y-59096001D01*
G37*
G36*
X156882100Y-81906298D02*
G01*
X157085896Y-82347300D01*
X157271596Y-82741000D01*
X157518590Y-83251200D01*
X157731084Y-83676299D01*
X157966984Y-84132800D01*
X158198079Y-84568999D01*
X158404378Y-84973597D01*
X158561070Y-85345198D01*
X158658269Y-85715296D01*
X158816975Y-85577098D01*
X159212376Y-85208899D01*
X159586980Y-84830397D01*
X160250783Y-84588896D01*
X160101582Y-84801696D01*
X159740880Y-85264796D01*
X159369282Y-85684596D01*
X158994786Y-86065596D01*
X158573582Y-86459395D01*
X158478688Y-86676596D01*
X158157887Y-87134497D01*
X157734791Y-87520297D01*
X157254689Y-87829495D01*
X156694386Y-88083195D01*
X156259389Y-88221196D01*
X155612294Y-88340996D01*
X155063801Y-88339795D01*
X154537495Y-88206197D01*
X154157490Y-87959996D01*
X153901997Y-87575396D01*
X153886891Y-87530097D01*
X153859898Y-87123297D01*
X153874895Y-87083605D01*
X153874898Y-87083605D01*
X154596303Y-87083605D01*
X154596308Y-87083606D01*
X154840398Y-87447699D01*
X155330693Y-87603099D01*
X155903691Y-87478999D01*
X155978093Y-87450900D01*
X156493291Y-87183699D01*
X156869694Y-86788100D01*
X156982701Y-86347602D01*
X156907094Y-85959700D01*
X156845891Y-85804301D01*
X156647984Y-85405802D01*
X156444478Y-85041602D01*
X156222584Y-84636401D01*
X156002492Y-84215201D01*
X155808690Y-83828501D01*
X155587392Y-83370902D01*
X155575795Y-83781901D01*
X155532094Y-84272601D01*
X155456700Y-84766402D01*
X155370595Y-85185103D01*
X155263692Y-85614104D01*
X155136693Y-86057204D01*
X155150593Y-86059005D01*
X155483296Y-86324103D01*
X155445592Y-86737704D01*
X155029896Y-87092105D01*
X154596308Y-87083606D01*
X154596303Y-87083598D01*
X153874901Y-87083598D01*
X153874898Y-87083605D01*
X153874895Y-87083605D01*
X153874898Y-87083598D01*
X153874901Y-87083598D01*
X154018895Y-86701506D01*
X154381688Y-86296706D01*
X154556889Y-85790908D01*
X154705495Y-85295108D01*
X154830189Y-84808509D01*
X154933797Y-84330107D01*
X155019002Y-83859107D01*
X155088597Y-83394606D01*
X155145299Y-82935607D01*
X155192006Y-82481406D01*
X156773106Y-81666808D01*
X156882100Y-81906298D01*
G37*
G36*
X188410371Y-70418007D02*
G01*
X189624970Y-69975906D01*
X189649064Y-70385105D01*
X188417969Y-70833206D01*
X188584367Y-74478003D01*
X188588364Y-74573504D01*
X188639069Y-74980006D01*
X188865662Y-75272204D01*
X189423264Y-75266406D01*
X189632859Y-75167006D01*
X190066865Y-74796607D01*
X190358369Y-74383307D01*
X190568375Y-73953807D01*
X190735383Y-73464205D01*
X191319276Y-73251704D01*
X191161774Y-73774806D01*
X190983369Y-74239905D01*
X190718766Y-74775103D01*
X190430665Y-75220103D01*
X190049271Y-75660903D01*
X189580170Y-76039801D01*
X189050172Y-76306700D01*
X188838669Y-76376101D01*
X188209977Y-76470900D01*
X187682877Y-76343299D01*
X187329270Y-76031100D01*
X187137376Y-75661700D01*
X187128373Y-75636199D01*
X187033677Y-75232100D01*
X186992478Y-74826499D01*
X186839783Y-71407501D01*
X186319291Y-71597000D01*
X186295182Y-71187908D01*
X186815674Y-70998409D01*
X186746079Y-69333210D01*
X188332078Y-68583408D01*
X188410371Y-70418007D01*
G37*
G36*
X85618695Y-60737405D02*
G01*
X85627698Y-60792104D01*
X85630696Y-60841604D01*
X85630193Y-60901502D01*
X85628194Y-60953302D01*
X85624196Y-61010900D01*
X85621198Y-61031400D01*
X85616200Y-61082200D01*
X85614201Y-61107099D01*
X85631505Y-61150300D01*
X85683904Y-61157102D01*
X85735501Y-61163202D01*
X85761205Y-61166002D01*
X85811406Y-61173200D01*
X85827603Y-61178399D01*
X85827405Y-61179200D01*
X85797604Y-61220399D01*
X85784207Y-61239698D01*
X85749707Y-61257596D01*
X85700910Y-61263597D01*
X85651112Y-61273698D01*
X85605313Y-61291200D01*
X85602315Y-61292699D01*
X85576314Y-61335698D01*
X85567311Y-61371099D01*
X85558309Y-61423600D01*
X85553311Y-61473401D01*
X85549313Y-61522203D01*
X85546315Y-61576803D01*
X85544316Y-61616403D01*
X85542317Y-61669202D01*
X85538319Y-61719003D01*
X85533322Y-61749204D01*
X85520322Y-61778802D01*
X85474019Y-61796003D01*
X85446118Y-61800004D01*
X85416516Y-61789804D01*
X85395512Y-61750203D01*
X85397511Y-61746103D01*
X85397809Y-61744603D01*
X85397908Y-61693002D01*
X85397305Y-61669603D01*
X85456105Y-61385804D01*
X85460103Y-61335504D01*
X85441007Y-61308404D01*
X85430005Y-61307103D01*
X85413709Y-61312005D01*
X85399007Y-61315507D01*
X85379910Y-61312307D01*
X85366811Y-61267309D01*
X85382611Y-61219808D01*
X85383412Y-61218007D01*
X85409512Y-61206006D01*
X85416509Y-61206006D01*
X85459309Y-61183107D01*
X85479108Y-61140306D01*
X85482106Y-61121507D01*
X85484105Y-61069906D01*
X85487103Y-61006406D01*
X85490102Y-60948808D01*
X85494100Y-60897310D01*
X85499097Y-60841409D01*
X85505093Y-60786809D01*
X85512097Y-60745611D01*
X85531598Y-60702909D01*
X85580197Y-60698007D01*
X85583196Y-60698007D01*
X85618695Y-60737405D01*
G37*
G36*
X144859168Y-72465605D02*
G01*
X145178275Y-72744204D01*
X145381369Y-73128306D01*
X145437964Y-73310107D01*
X145509757Y-73698508D01*
X145540061Y-74110709D01*
X145545066Y-74535308D01*
X145540061Y-74961108D01*
X145541068Y-75376807D01*
X145576163Y-75865008D01*
X145677359Y-76297709D01*
X145818762Y-76556609D01*
X146340155Y-76644908D01*
X146806449Y-76318507D01*
X147077643Y-75911505D01*
X147270438Y-75439505D01*
X147404242Y-74949706D01*
X147988135Y-74737105D01*
X147910132Y-75121707D01*
X147770529Y-75632506D01*
X147607825Y-76069506D01*
X147362326Y-76548606D01*
X147024527Y-77001807D01*
X146530234Y-77417308D01*
X146000128Y-77673106D01*
X145705924Y-77765204D01*
X145114630Y-77837004D01*
X144594336Y-77702903D01*
X144267035Y-77427302D01*
X144051642Y-77032801D01*
X143995642Y-76852500D01*
X143923941Y-76464400D01*
X143893241Y-76051001D01*
X143888236Y-75625701D01*
X143894232Y-75202101D01*
X143895240Y-74793601D01*
X143867346Y-74325000D01*
X143779044Y-73927699D01*
X143753638Y-73864100D01*
X143450232Y-73546698D01*
X142869635Y-73597499D01*
X142748328Y-73646498D01*
X142266028Y-73964698D01*
X141920325Y-74380297D01*
X141677924Y-74845198D01*
X141512320Y-75318297D01*
X141663413Y-79118396D01*
X140082511Y-79693797D01*
X139832404Y-73796298D01*
X141427161Y-73215899D01*
X141480567Y-74150901D01*
X141532874Y-74055800D01*
X141865668Y-73559802D01*
X142280265Y-73125403D01*
X142760962Y-72783904D01*
X143322058Y-72526305D01*
X143662558Y-72418303D01*
X144318762Y-72330004D01*
X144859168Y-72465605D01*
G37*
G36*
X127642616Y-90331387D02*
G01*
X128002510Y-90599087D01*
X128245109Y-91010686D01*
X128300605Y-91207886D01*
X128289711Y-91638188D01*
X128015312Y-92062192D01*
X127485618Y-92360089D01*
X127315513Y-92411893D01*
X126755012Y-92417996D01*
X126844719Y-92317799D01*
X127043312Y-91897298D01*
X127102318Y-91460896D01*
X127031624Y-91061398D01*
X127014717Y-91018998D01*
X126735618Y-90716798D01*
X126224022Y-90634598D01*
X125606621Y-90779599D01*
X124954522Y-91099297D01*
X124408120Y-91531697D01*
X123963113Y-92058301D01*
X123615014Y-92660199D01*
X123434518Y-93094197D01*
X123293923Y-93547795D01*
X123191827Y-94015591D01*
X123126824Y-94492093D01*
X123097726Y-94971593D01*
X123102730Y-95448689D01*
X123141427Y-95917889D01*
X123212121Y-96373486D01*
X123313424Y-96810185D01*
X123444024Y-97222287D01*
X123638024Y-97664990D01*
X123902825Y-98050290D01*
X124265725Y-98345692D01*
X124754220Y-98518491D01*
X125395516Y-98535992D01*
X126036812Y-98416295D01*
X126601906Y-98237492D01*
X126864311Y-98136494D01*
X127459312Y-97858197D01*
X127973106Y-97539998D01*
X128413200Y-97178296D01*
X128786705Y-96769696D01*
X129100898Y-96310696D01*
X129363197Y-95797696D01*
X129765724Y-95770077D01*
X129677620Y-96063878D01*
X129493019Y-96494679D01*
X129249626Y-96911381D01*
X128842231Y-97440884D01*
X128350639Y-97935284D01*
X127786445Y-98388783D01*
X127161140Y-98795582D01*
X126486244Y-99149983D01*
X125773339Y-99445981D01*
X125207635Y-99628483D01*
X124504342Y-99778287D01*
X123861748Y-99817685D01*
X123282143Y-99742184D01*
X122768044Y-99547787D01*
X122321847Y-99230084D01*
X122033349Y-98908383D01*
X121785348Y-98513280D01*
X121579049Y-98042783D01*
X121457742Y-97659985D01*
X121358437Y-97233487D01*
X121286233Y-96770085D01*
X121246331Y-96276784D01*
X121243325Y-95760380D01*
X121283318Y-95227681D01*
X121370919Y-94685582D01*
X121511315Y-94140980D01*
X121709710Y-93600682D01*
X121971108Y-93071484D01*
X122300713Y-92560384D01*
X122703606Y-92074086D01*
X123185113Y-91619488D01*
X123750115Y-91203591D01*
X124403817Y-90832989D01*
X125151513Y-90514790D01*
X125282906Y-90468289D01*
X125926110Y-90281487D01*
X126532509Y-90180989D01*
X127083015Y-90180588D01*
X127642616Y-90331387D01*
G37*
G36*
X158819600Y-67251800D02*
G01*
X159217503Y-67495498D01*
X159452702Y-67888199D01*
X159531102Y-68225200D01*
X159504506Y-68683002D01*
X159333409Y-69145702D01*
X159023305Y-69608600D01*
X158579808Y-70066902D01*
X158008504Y-70515701D01*
X157499608Y-70843101D01*
X156924412Y-71160400D01*
X156285207Y-71465599D01*
X156388310Y-71800196D01*
X156595204Y-72196997D01*
X156985509Y-72482196D01*
X157553410Y-72509295D01*
X158144215Y-72348494D01*
X158603718Y-72153193D01*
X159130421Y-71849795D01*
X159617924Y-71468296D01*
X159984822Y-71088596D01*
X160308018Y-70651096D01*
X160579915Y-70153995D01*
X161086720Y-69969597D01*
X160877522Y-70478096D01*
X160597523Y-70988895D01*
X160251225Y-71489994D01*
X159842931Y-71969092D01*
X159376927Y-72413993D01*
X158857823Y-72812792D01*
X158289921Y-73153094D01*
X157677525Y-73422793D01*
X157333928Y-73533492D01*
X156764928Y-73649993D01*
X156114033Y-73659095D01*
X155623128Y-73540595D01*
X155201634Y-73291495D01*
X154928639Y-72988394D01*
X154724446Y-72584693D01*
X154650441Y-72340892D01*
X154572941Y-71911292D01*
X154545140Y-71420395D01*
X154577443Y-70886093D01*
X154636845Y-70562393D01*
X154636861Y-70562393D01*
X156197850Y-70562393D01*
X156214757Y-71023391D01*
X156809163Y-70703590D01*
X157324269Y-70361091D01*
X157754674Y-70001190D01*
X158165471Y-69535289D01*
X158425267Y-69061390D01*
X158523564Y-68590290D01*
X158450062Y-68132488D01*
X158250966Y-67856689D01*
X157696461Y-67878689D01*
X157589055Y-67921688D01*
X157034260Y-68300388D01*
X156684361Y-68745189D01*
X156474965Y-69161991D01*
X156325566Y-69614990D01*
X156233967Y-70087291D01*
X156197865Y-70562393D01*
X156197850Y-70562393D01*
X154636861Y-70562393D01*
X154680363Y-70325893D01*
X154864369Y-69757694D01*
X155139973Y-69198993D01*
X155517567Y-68667595D01*
X156007863Y-68181194D01*
X156621266Y-67757393D01*
X157368169Y-67413894D01*
X157612569Y-67331894D01*
X158249776Y-67201595D01*
X158819600Y-67251800D01*
G37*
G36*
X93916112Y-61042795D02*
G01*
X93917111Y-61044294D01*
X93925115Y-61075895D01*
X93922116Y-61084195D01*
X93883817Y-61116895D01*
X93841016Y-61144594D01*
X93836018Y-61147394D01*
X93793515Y-61172292D01*
X93749516Y-61194291D01*
X93732518Y-61200193D01*
X93732716Y-61201593D01*
X93693814Y-61236093D01*
X93664616Y-61257795D01*
X93623616Y-61287595D01*
X93591618Y-61310094D01*
X93582616Y-61331094D01*
X93593114Y-61360093D01*
X93641217Y-61379392D01*
X93689618Y-61389592D01*
X93700116Y-61391393D01*
X93752217Y-61401391D01*
X93801320Y-61416593D01*
X93813924Y-61423192D01*
X93850026Y-61456594D01*
X93867627Y-61505494D01*
X93864629Y-61540593D01*
X93848027Y-61588495D01*
X93837529Y-61608495D01*
X93801228Y-61644994D01*
X93758031Y-61679094D01*
X93713330Y-61711892D01*
X93706326Y-61716993D01*
X93666127Y-61745191D01*
X93623029Y-61773790D01*
X93578526Y-61797990D01*
X93570401Y-61800000D01*
X93541303Y-61780500D01*
X93523000Y-61740201D01*
X93554799Y-61699903D01*
X93568898Y-61690404D01*
X93612996Y-61660806D01*
X93651799Y-61627904D01*
X93682897Y-61588105D01*
X93693196Y-61561204D01*
X93665898Y-61520505D01*
X93617001Y-61511606D01*
X93590604Y-61510804D01*
X93537007Y-61506803D01*
X93489011Y-61494802D01*
X93442014Y-61471601D01*
X93410413Y-61446599D01*
X93390309Y-61401700D01*
X93391110Y-61396798D01*
X93417210Y-61353597D01*
X93453008Y-61315397D01*
X93486607Y-61274896D01*
X93502507Y-61253396D01*
X93541608Y-61216497D01*
X93589604Y-61181299D01*
X93631307Y-61153199D01*
X93680806Y-61121400D01*
X93723004Y-61094999D01*
X93769505Y-61066598D01*
X93820508Y-61035997D01*
X93866506Y-61018895D01*
X93873509Y-61018495D01*
X93916112Y-61042795D01*
G37*
G36*
X152229329Y-69783107D02*
G01*
X152548436Y-70061706D01*
X152751637Y-70445808D01*
X152808140Y-70627609D01*
X152880040Y-71016010D01*
X152910237Y-71428211D01*
X152915242Y-71852809D01*
X152910237Y-72278609D01*
X152911244Y-72694308D01*
X152946248Y-73182509D01*
X153047444Y-73615210D01*
X153188847Y-73874110D01*
X153710240Y-73962409D01*
X154176640Y-73636008D01*
X154447743Y-73229006D01*
X154640538Y-72757006D01*
X154774434Y-72267108D01*
X155358327Y-72054606D01*
X155280232Y-72439208D01*
X155140629Y-72950007D01*
X154977925Y-73387007D01*
X154732426Y-73866107D01*
X154394627Y-74319308D01*
X153900334Y-74734809D01*
X153370228Y-74990607D01*
X153076024Y-75082705D01*
X152484730Y-75154505D01*
X151964436Y-75020304D01*
X151637135Y-74744704D01*
X151421742Y-74350302D01*
X151365742Y-74170001D01*
X151294041Y-73781901D01*
X151263341Y-73368502D01*
X151258336Y-72943202D01*
X151264332Y-72519503D01*
X151265340Y-72111102D01*
X151237446Y-71642502D01*
X151149144Y-71245201D01*
X151123738Y-71181602D01*
X150820332Y-70864200D01*
X150239827Y-70915001D01*
X150118519Y-70964000D01*
X149636115Y-71282200D01*
X149290412Y-71697799D01*
X149048117Y-72162699D01*
X148882422Y-72635798D01*
X149033515Y-76435897D01*
X147452613Y-77011298D01*
X147202506Y-71113800D01*
X148797415Y-70533405D01*
X148850714Y-71468406D01*
X148903113Y-71373306D01*
X149235816Y-70877205D01*
X149650519Y-70442905D01*
X150131215Y-70101406D01*
X150692219Y-69843807D01*
X151032719Y-69735805D01*
X151688924Y-69647506D01*
X152229329Y-69783107D01*
G37*
G36*
X163274495Y-65277099D02*
G01*
X163478291Y-65718101D01*
X163663991Y-66111801D01*
X163910985Y-66622001D01*
X164123387Y-67047100D01*
X164359379Y-67503601D01*
X164590474Y-67939800D01*
X164796681Y-68344398D01*
X164953374Y-68716099D01*
X165050679Y-69086097D01*
X165209279Y-68947899D01*
X165604771Y-68579700D01*
X165979268Y-68201301D01*
X166643071Y-67959701D01*
X166493870Y-68172500D01*
X166133275Y-68635601D01*
X165761571Y-69055401D01*
X165387074Y-69436500D01*
X164965871Y-69830200D01*
X164870976Y-70047401D01*
X164550282Y-70505401D01*
X164127186Y-70891201D01*
X163646992Y-71200302D01*
X163086690Y-71454002D01*
X162651692Y-71592003D01*
X162004597Y-71711803D01*
X161456105Y-71710602D01*
X160929799Y-71577003D01*
X160549794Y-71330803D01*
X160294392Y-70946201D01*
X160279195Y-70900902D01*
X160252293Y-70494102D01*
X160267290Y-70454410D01*
X160267293Y-70454410D01*
X160988698Y-70454410D01*
X160988703Y-70454410D01*
X161232701Y-70818504D01*
X161723103Y-70973903D01*
X162296010Y-70849804D01*
X162370412Y-70821804D01*
X162885609Y-70554603D01*
X163262105Y-70158905D01*
X163375004Y-69718406D01*
X163299397Y-69330608D01*
X163238194Y-69175110D01*
X163040394Y-68776611D01*
X162836888Y-68412410D01*
X162614995Y-68007209D01*
X162394902Y-67586109D01*
X162201009Y-67199310D01*
X161979802Y-66741810D01*
X161968098Y-67152809D01*
X161924397Y-67643409D01*
X161849095Y-68137310D01*
X161762898Y-68555908D01*
X161655995Y-68984909D01*
X161528996Y-69428108D01*
X161543004Y-69429809D01*
X161875600Y-69694908D01*
X161837895Y-70108608D01*
X161422200Y-70462909D01*
X160988703Y-70454410D01*
X160988698Y-70454403D01*
X160267296Y-70454403D01*
X160267293Y-70454410D01*
X160267290Y-70454410D01*
X160267293Y-70454403D01*
X160267296Y-70454403D01*
X160411290Y-70072311D01*
X160773991Y-69667511D01*
X160949193Y-69161712D01*
X161097798Y-68666012D01*
X161222493Y-68179313D01*
X161326100Y-67700912D01*
X161411397Y-67229912D01*
X161480992Y-66765411D01*
X161537694Y-66306511D01*
X161584294Y-65852310D01*
X163165394Y-65037712D01*
X163274495Y-65277099D01*
G37*
G36*
X88166303Y-61155095D02*
G01*
X88203206Y-61189897D01*
X88224805Y-61235696D01*
X88226804Y-61241697D01*
X88242505Y-61288095D01*
X88261807Y-61334295D01*
X88265805Y-61337694D01*
X88266805Y-61334695D01*
X88268803Y-61324495D01*
X88269505Y-61321096D01*
X88300504Y-61281595D01*
X88343404Y-61245595D01*
X88389302Y-61211194D01*
X88396306Y-61205793D01*
X88441205Y-61180791D01*
X88491803Y-61166089D01*
X88542905Y-61161790D01*
X88591206Y-61178590D01*
X88625508Y-61214189D01*
X88630505Y-61221387D01*
X88654904Y-61266786D01*
X88670201Y-61316987D01*
X88676198Y-61372087D01*
X88674199Y-61424188D01*
X88673398Y-61431989D01*
X88666394Y-61480687D01*
X88662396Y-61502786D01*
X88649999Y-61553586D01*
X88634099Y-61603185D01*
X88614896Y-61651685D01*
X88602796Y-61678186D01*
X88575597Y-61724286D01*
X88539800Y-61761586D01*
X88497701Y-61784887D01*
X88454801Y-61793886D01*
X88421803Y-61784185D01*
X88406400Y-61741884D01*
X88410397Y-61728685D01*
X88447301Y-61692884D01*
X88474103Y-61669782D01*
X88504804Y-61630281D01*
X88525205Y-61588479D01*
X88543301Y-61542280D01*
X88555203Y-61498880D01*
X88561200Y-61447980D01*
X88559201Y-61411382D01*
X88547604Y-61361383D01*
X88523908Y-61317384D01*
X88493810Y-61299783D01*
X88489812Y-61299783D01*
X88443211Y-61316884D01*
X88398709Y-61343484D01*
X88358212Y-61371984D01*
X88322316Y-61406583D01*
X88318318Y-61411882D01*
X88289319Y-61458982D01*
X88262219Y-61503583D01*
X88242619Y-61538183D01*
X88228322Y-61599584D01*
X88212521Y-61652784D01*
X88190625Y-61707685D01*
X88161427Y-61756784D01*
X88123227Y-61790784D01*
X88086827Y-61799985D01*
X88066098Y-61796602D01*
X88063100Y-61744802D01*
X88063702Y-61741700D01*
X88075604Y-61693799D01*
X88091008Y-61641900D01*
X88105206Y-61597600D01*
X88120709Y-61550500D01*
X88135213Y-61501401D01*
X88141210Y-61475400D01*
X88145207Y-61453901D01*
X88139211Y-61403600D01*
X88126309Y-61368501D01*
X88101712Y-61324003D01*
X88063809Y-61299802D01*
X88057813Y-61300603D01*
X88014409Y-61326104D01*
X87978009Y-61363706D01*
X87948911Y-61399705D01*
X87920613Y-61440206D01*
X87892415Y-61489404D01*
X87869313Y-61540506D01*
X87851514Y-61593705D01*
X87841512Y-61633004D01*
X87829312Y-61685804D01*
X87814313Y-61733705D01*
X87793912Y-61766805D01*
X87750211Y-61789007D01*
X87743207Y-61789808D01*
X87725408Y-61752607D01*
X87729405Y-61697507D01*
X87732404Y-61646108D01*
X87733304Y-61592008D01*
X87732304Y-61542909D01*
X87731603Y-61531408D01*
X87728604Y-61477506D01*
X87726605Y-61428407D01*
X87725606Y-61374006D01*
X87725804Y-61318506D01*
X87728803Y-61267705D01*
X87732800Y-61235807D01*
X87743298Y-61208505D01*
X87778500Y-61171705D01*
X87811200Y-61154706D01*
X87834599Y-61187208D01*
X87841603Y-61239606D01*
X87844602Y-61288507D01*
X87843800Y-61339406D01*
X87839803Y-61376005D01*
X87841802Y-61363603D01*
X87859403Y-61312501D01*
X87886105Y-61271200D01*
X87923108Y-61233598D01*
X87963910Y-61203798D01*
X88008107Y-61177396D01*
X88053204Y-61156797D01*
X88102002Y-61144395D01*
X88118001Y-61143495D01*
X88166303Y-61155095D01*
G37*
G36*
X182581116Y-73101001D02*
G01*
X182616410Y-73384902D01*
X182397217Y-73802401D01*
X181911915Y-74116000D01*
X181594716Y-74138098D01*
X181029408Y-74141997D01*
X180603108Y-74372897D01*
X180153615Y-74742297D01*
X179746220Y-75141295D01*
X179921513Y-79496196D01*
X178340611Y-80071597D01*
X178090504Y-74174098D01*
X179685109Y-73593703D01*
X179734914Y-74613204D01*
X179817815Y-74488803D01*
X180122014Y-74053801D01*
X180465214Y-73640601D01*
X180934010Y-73230799D01*
X181516606Y-72927100D01*
X181631413Y-72888098D01*
X182246613Y-72821200D01*
X182581116Y-73101001D01*
G37*
G36*
X91138822Y-60872194D02*
G01*
X91178624Y-60893895D01*
X91217725Y-60925996D01*
X91242421Y-60970296D01*
X91241818Y-60976697D01*
X91233815Y-60992597D01*
X91196713Y-61026098D01*
X91188710Y-61028997D01*
X91184712Y-61027696D01*
X91154614Y-60999395D01*
X91153912Y-60999395D01*
X91134610Y-60986894D01*
X91119008Y-60979394D01*
X91107007Y-60983495D01*
X91072209Y-61018895D01*
X91049413Y-61062894D01*
X91046414Y-61070993D01*
X91030011Y-61117494D01*
X91026013Y-61133695D01*
X91026517Y-61164495D01*
X91069615Y-61190397D01*
X91115712Y-61190397D01*
X91165013Y-61194295D01*
X91181912Y-61201394D01*
X91188916Y-61232194D01*
X91187917Y-61238496D01*
X91162816Y-61282598D01*
X91120717Y-61308999D01*
X91067120Y-61324998D01*
X91031499Y-61330400D01*
X91000401Y-61345701D01*
X90988500Y-61381902D01*
X90979497Y-61416601D01*
X90971494Y-61465799D01*
X90965497Y-61515397D01*
X90962499Y-61551896D01*
X90958501Y-61602895D01*
X90953504Y-61657396D01*
X90947507Y-61706495D01*
X90939504Y-61755994D01*
X90935506Y-61777993D01*
X90931508Y-61799093D01*
X90920308Y-61847291D01*
X90908605Y-61879190D01*
X90877805Y-61893789D01*
X90828801Y-61890790D01*
X90803601Y-61879892D01*
X90802602Y-61830793D01*
X90803601Y-61822992D01*
X90810605Y-61773492D01*
X90812604Y-61723291D01*
X90812505Y-61710389D01*
X90815503Y-61659288D01*
X90821500Y-61607789D01*
X90830502Y-61555089D01*
X90840505Y-61504190D01*
X90842503Y-61495191D01*
X90852605Y-61445192D01*
X90862607Y-61392591D01*
X90869611Y-61343690D01*
X90869412Y-61332792D01*
X90855214Y-61317891D01*
X90852216Y-61317891D01*
X90818219Y-61333993D01*
X90797719Y-61341592D01*
X90778722Y-61337392D01*
X90759320Y-61289892D01*
X90756322Y-61252393D01*
X90758321Y-61242395D01*
X90784924Y-61215093D01*
X90813924Y-61204793D01*
X90862821Y-61196695D01*
X90884824Y-61183095D01*
X90902226Y-61133596D01*
X90913426Y-61083894D01*
X90919423Y-61055795D01*
X90922421Y-61042394D01*
X90934125Y-60993093D01*
X90951123Y-60945691D01*
X90967824Y-60920793D01*
X91008923Y-60887391D01*
X91054120Y-60866792D01*
X91088223Y-60862092D01*
X91138822Y-60872194D01*
G37*
G36*
X84731908Y-61184797D02*
G01*
X84740910Y-61234895D01*
X84735913Y-61285795D01*
X84731915Y-61307893D01*
X84730916Y-61334993D01*
X84716618Y-61384893D01*
X84688420Y-61424894D01*
X84670323Y-61445592D01*
X84670323Y-61466192D01*
X84669324Y-61513791D01*
X84664327Y-61563993D01*
X84664029Y-61576993D01*
X84665028Y-61626191D01*
X84663030Y-61677892D01*
X84657033Y-61723790D01*
X84640134Y-61770089D01*
X84609631Y-61795389D01*
X84561330Y-61809888D01*
X84533727Y-61815687D01*
X84530728Y-61814386D01*
X84528729Y-61763185D01*
X84530728Y-61711084D01*
X84532727Y-61674486D01*
X84534726Y-61625585D01*
X84525723Y-61576886D01*
X84518720Y-61573385D01*
X84493817Y-61591184D01*
X84457814Y-61624883D01*
X84418614Y-61652982D01*
X84375417Y-61677484D01*
X84347218Y-61685685D01*
X84323819Y-61698884D01*
X84288617Y-61736284D01*
X84281613Y-61741685D01*
X84239812Y-61767083D01*
X84231809Y-61768785D01*
X84225812Y-61768785D01*
X84209409Y-61779485D01*
X84160405Y-61794187D01*
X84121709Y-61798086D01*
X84085408Y-61799985D01*
X84036405Y-61791185D01*
X84032407Y-61786584D01*
X84005505Y-61768785D01*
X83978604Y-61727285D01*
X83976605Y-61681085D01*
X83980603Y-61630384D01*
X83984601Y-61608983D01*
X83999104Y-61560483D01*
X84011205Y-61534482D01*
X84055905Y-61454683D01*
X84083707Y-61408681D01*
X84115506Y-61366281D01*
X84151303Y-61331582D01*
X84183202Y-61312284D01*
X84223302Y-61281785D01*
X84233998Y-61270284D01*
X84271397Y-61238485D01*
X84277394Y-61237283D01*
X84293996Y-61225084D01*
X84333096Y-61207982D01*
X84351598Y-61205983D01*
X84376798Y-61216485D01*
X84376500Y-61268087D01*
X84374501Y-61279989D01*
X84359502Y-61329587D01*
X84332402Y-61371988D01*
X84302205Y-61393087D01*
X84262402Y-61424886D01*
X84244603Y-61443685D01*
X84207700Y-61477285D01*
X84200696Y-61479585D01*
X84196698Y-61478586D01*
X84193700Y-61477586D01*
X84155202Y-61509485D01*
X84153203Y-61511586D01*
X84123402Y-61552087D01*
X84114400Y-61573087D01*
X84140103Y-61615087D01*
X84179700Y-61649602D01*
X84218602Y-61659303D01*
X84227605Y-61659303D01*
X84275502Y-61649503D01*
X84308202Y-61634202D01*
X84352101Y-61606702D01*
X84395505Y-61576101D01*
X84436307Y-61545801D01*
X84441304Y-61541601D01*
X84484105Y-61508901D01*
X84524106Y-61478402D01*
X84532109Y-61472001D01*
X84560811Y-61427400D01*
X84579411Y-61382100D01*
X84593411Y-61329599D01*
X84606908Y-61278497D01*
X84627606Y-61230497D01*
X84648610Y-61201597D01*
X84687108Y-61171098D01*
X84703809Y-61166997D01*
X84731908Y-61184797D01*
G37*
G36*
X185172120Y-75721900D02*
G01*
X185179124Y-75838801D01*
X185270524Y-76231002D01*
X185400223Y-76457900D01*
X185933716Y-76536399D01*
X186408219Y-76194400D01*
X186687821Y-75771601D01*
X186882615Y-75297202D01*
X187009721Y-74822402D01*
X187593613Y-74609801D01*
X187515809Y-74994902D01*
X187376404Y-75506701D01*
X187154710Y-76076300D01*
X186901307Y-76530600D01*
X186554612Y-76959300D01*
X186120011Y-77308299D01*
X185563508Y-77575698D01*
X185368409Y-77639697D01*
X184781113Y-77727397D01*
X184276307Y-77603995D01*
X183926408Y-77294795D01*
X183729005Y-76914695D01*
X183712098Y-76865996D01*
X183622193Y-76475997D01*
X183583588Y-76069396D01*
X183405991Y-72239398D01*
X185000214Y-71659000D01*
X185172120Y-75721900D01*
G37*
G36*
X169462102Y-77626399D02*
G01*
X169873997Y-77848300D01*
X170101292Y-78215201D01*
X170170796Y-78578101D01*
X170054799Y-79033900D01*
X169586201Y-79404898D01*
X169516606Y-79427699D01*
X168993980Y-79373156D01*
X169008275Y-79359004D01*
X169222081Y-78926703D01*
X169210683Y-78518603D01*
X168922780Y-78280303D01*
X168345784Y-78353102D01*
X167844289Y-78626403D01*
X167449284Y-79021002D01*
X167155385Y-79506404D01*
X166956792Y-80052405D01*
X166867085Y-80483405D01*
X166825581Y-80918505D01*
X166829579Y-81345004D01*
X166877278Y-81750106D01*
X167004277Y-82234706D01*
X167213383Y-82637007D01*
X167605977Y-82922606D01*
X168178975Y-82945605D01*
X168778081Y-82780604D01*
X169179585Y-82614604D01*
X169731480Y-82308505D01*
X170216786Y-81934603D01*
X170629079Y-81493502D01*
X170911885Y-81075003D01*
X171135380Y-80610602D01*
X171669682Y-80416102D01*
X171463078Y-80925002D01*
X171187581Y-81435301D01*
X170846776Y-81935000D01*
X170444478Y-82412402D01*
X169984471Y-82855502D01*
X169470372Y-83252600D01*
X168905873Y-83591700D01*
X168294881Y-83860999D01*
X167951283Y-83971698D01*
X167382085Y-84087897D01*
X166730885Y-84096198D01*
X166239384Y-83975997D01*
X165816991Y-83724196D01*
X165542790Y-83417895D01*
X165337086Y-83009993D01*
X165262990Y-82767493D01*
X165183995Y-82340193D01*
X165154195Y-81851893D01*
X165185094Y-81319892D01*
X165288396Y-80761393D01*
X165475590Y-80193595D01*
X165758488Y-79633696D01*
X166148686Y-79098998D01*
X166657689Y-78606700D01*
X167297291Y-78173899D01*
X168079091Y-77817900D01*
X168276097Y-77750399D01*
X168894704Y-77607299D01*
X169462102Y-77626399D01*
G37*
G36*
X90679295Y-61091100D02*
G01*
X90715695Y-61125299D01*
X90730794Y-61166700D01*
X90733792Y-61211400D01*
X90728795Y-61225301D01*
X90713597Y-61273702D01*
X90709599Y-61292001D01*
X90704602Y-61315900D01*
X90701604Y-61331601D01*
X90686902Y-61386503D01*
X90666104Y-61439401D01*
X90639203Y-61490300D01*
X90606107Y-61539300D01*
X90566907Y-61586301D01*
X90521603Y-61631402D01*
X90483502Y-61663801D01*
X90442006Y-61695199D01*
X90412404Y-61715501D01*
X90370206Y-61742402D01*
X90323209Y-61767202D01*
X90273511Y-61783304D01*
X90260312Y-61784402D01*
X90250310Y-61783700D01*
X90203809Y-61763501D01*
X90171307Y-61721902D01*
X90155408Y-61673204D01*
X90150411Y-61643705D01*
X90153409Y-61612905D01*
X90159404Y-61594407D01*
X90278714Y-61594407D01*
X90278715Y-61594404D01*
X90280202Y-61594404D01*
X90282201Y-61638105D01*
X90299802Y-61646406D01*
X90346501Y-61631604D01*
X90391301Y-61606206D01*
X90410504Y-61593908D01*
X90450101Y-61564508D01*
X90490704Y-61525907D01*
X90525304Y-61482908D01*
X90553807Y-61435308D01*
X90570409Y-61398507D01*
X90587308Y-61351007D01*
X90595311Y-61319806D01*
X90597310Y-61269407D01*
X90586713Y-61250005D01*
X90549115Y-61229505D01*
X90533513Y-61246606D01*
X90533009Y-61285707D01*
X90488812Y-61306806D01*
X90482816Y-61308908D01*
X90436414Y-61324609D01*
X90431416Y-61326009D01*
X90399518Y-61368207D01*
X90370114Y-61414209D01*
X90342015Y-61459607D01*
X90315518Y-61504808D01*
X90292416Y-61552308D01*
X90278715Y-61594404D01*
X90159406Y-61594404D01*
X90159404Y-61594407D01*
X90157918Y-61594407D01*
X90166921Y-61564306D01*
X90184819Y-61518407D01*
X90205518Y-61471109D01*
X90227116Y-61425107D01*
X90251813Y-61375406D01*
X90278516Y-61324106D01*
X90305913Y-61276006D01*
X90334912Y-61232606D01*
X90348012Y-61217508D01*
X90388310Y-61182107D01*
X90430013Y-61151708D01*
X90473210Y-61126310D01*
X90517812Y-61106008D01*
X90543912Y-61096608D01*
X90592709Y-61084409D01*
X90629407Y-61081010D01*
X90679295Y-61091100D01*
G37*
G36*
X137900000Y-89267998D02*
G01*
X138210807Y-88939999D01*
X138692404Y-88574300D01*
X139234809Y-88316399D01*
X139423514Y-88251099D01*
X140006507Y-88103299D01*
X140588309Y-88073498D01*
X141134207Y-88220299D01*
X141536902Y-88520199D01*
X141810599Y-88900899D01*
X141980796Y-89279797D01*
X142074393Y-89601197D01*
X142142386Y-90119096D01*
X142124182Y-90667794D01*
X142020087Y-91233994D01*
X141830680Y-91803998D01*
X141556372Y-92364400D01*
X141197867Y-92901601D01*
X140755362Y-93402203D01*
X140229666Y-93852605D01*
X139620963Y-94239407D01*
X138929969Y-94548909D01*
X138826972Y-94585507D01*
X138242667Y-94751607D01*
X137644568Y-94807408D01*
X137151969Y-94681409D01*
X136826163Y-94402310D01*
X136630362Y-94032208D01*
X136622367Y-94010106D01*
X136523566Y-93622006D01*
X136476966Y-93216809D01*
X136338172Y-89813519D01*
X136337973Y-89813519D01*
X136337973Y-89813508D01*
X136338172Y-89813508D01*
X136338172Y-89813519D01*
X137954779Y-89813519D01*
X137954790Y-89813508D01*
X137954978Y-89813508D01*
X138046485Y-92961606D01*
X138047492Y-92992406D01*
X138113898Y-93396405D01*
X138156394Y-93491109D01*
X138528891Y-93750210D01*
X139106085Y-93663312D01*
X139478781Y-93485715D01*
X139998175Y-93057217D01*
X140319174Y-92619115D01*
X140553473Y-92119115D01*
X140698477Y-91578618D01*
X140747077Y-91159318D01*
X140743079Y-90738118D01*
X140684973Y-90323918D01*
X140571875Y-89925618D01*
X140543372Y-89850918D01*
X140340872Y-89460820D01*
X140038474Y-89138421D01*
X139550971Y-88950421D01*
X138960578Y-89037820D01*
X138811972Y-89099618D01*
X138327277Y-89426419D01*
X137954790Y-89813508D01*
X136338172Y-89813508D01*
X136337973Y-89813508D01*
X136230673Y-87184821D01*
X137784278Y-86448821D01*
X137900000Y-89267998D01*
G37*
G36*
X87146710Y-61042795D02*
G01*
X87147710Y-61044294D01*
X87155713Y-61075895D01*
X87152715Y-61084195D01*
X87114415Y-61116895D01*
X87071614Y-61144594D01*
X87066617Y-61147394D01*
X87024114Y-61172292D01*
X86980115Y-61194291D01*
X86963117Y-61200193D01*
X86963315Y-61201593D01*
X86924413Y-61236093D01*
X86895215Y-61257795D01*
X86854115Y-61287595D01*
X86822118Y-61310094D01*
X86813115Y-61331094D01*
X86823613Y-61360093D01*
X86871610Y-61379392D01*
X86920110Y-61389592D01*
X86930509Y-61391393D01*
X86982709Y-61401391D01*
X87031812Y-61416593D01*
X87044415Y-61423192D01*
X87080518Y-61456594D01*
X87098119Y-61505494D01*
X87095120Y-61540593D01*
X87078519Y-61588495D01*
X87068021Y-61608495D01*
X87031720Y-61644994D01*
X86988522Y-61679094D01*
X86943822Y-61711892D01*
X86936818Y-61716993D01*
X86896619Y-61745191D01*
X86853421Y-61773790D01*
X86808919Y-61797990D01*
X86800000Y-61800000D01*
X86770902Y-61780500D01*
X86752599Y-61740201D01*
X86784398Y-61699903D01*
X86798497Y-61690404D01*
X86842595Y-61660806D01*
X86881398Y-61627904D01*
X86912496Y-61588105D01*
X86922795Y-61561204D01*
X86895497Y-61520505D01*
X86846600Y-61511606D01*
X86820203Y-61510804D01*
X86766606Y-61506803D01*
X86718610Y-61494802D01*
X86671613Y-61471601D01*
X86640012Y-61446599D01*
X86619908Y-61401700D01*
X86620709Y-61396798D01*
X86646809Y-61353597D01*
X86682607Y-61315397D01*
X86716206Y-61274896D01*
X86732106Y-61253396D01*
X86771207Y-61216497D01*
X86819203Y-61181299D01*
X86860906Y-61153199D01*
X86910405Y-61121400D01*
X86952603Y-61094999D01*
X86999104Y-61066598D01*
X87050107Y-61035997D01*
X87096105Y-61018895D01*
X87104108Y-61018495D01*
X87146710Y-61042795D01*
G37*
G36*
X82490598Y-60857698D02*
G01*
X82521794Y-60896097D01*
X82532193Y-60952695D01*
X82533193Y-61015596D01*
X82530194Y-61072995D01*
X82523190Y-61139196D01*
X82516187Y-61188196D01*
X82508183Y-61241094D01*
X82498181Y-61297895D01*
X82486783Y-61358594D01*
X82473683Y-61423196D01*
X82463086Y-61474798D01*
X82452390Y-61525998D01*
X82445386Y-61560899D01*
X82434285Y-61614099D01*
X82423589Y-61664499D01*
X82412389Y-61714799D01*
X82406392Y-61738199D01*
X82381993Y-61780698D01*
X82369794Y-61784398D01*
X82338101Y-61770002D01*
X82306302Y-61732801D01*
X82288602Y-61682901D01*
X82290601Y-61637101D01*
X82302197Y-61578901D01*
X82312497Y-61521001D01*
X82321500Y-61463502D01*
X82329503Y-61406404D01*
X82335500Y-61349702D01*
X82340497Y-61293401D01*
X82342496Y-61271001D01*
X82346494Y-61215802D01*
X82351491Y-61164602D01*
X82358495Y-61109700D01*
X82366498Y-61060300D01*
X82373502Y-61022100D01*
X82385098Y-60973798D01*
X82400800Y-60926599D01*
X82424703Y-60881997D01*
X82467099Y-60854497D01*
X82471097Y-60854299D01*
X82490598Y-60857698D01*
G37*
G36*
X147128302Y-85809600D02*
G01*
X147526206Y-86053401D01*
X147761405Y-86446002D01*
X147839698Y-86783103D01*
X147813193Y-87240802D01*
X147642096Y-87703501D01*
X147331900Y-88166501D01*
X146888404Y-88624802D01*
X146317206Y-89073502D01*
X145808310Y-89401002D01*
X145233115Y-89718301D01*
X144593909Y-90023400D01*
X144697013Y-90358102D01*
X144903815Y-90754903D01*
X145294120Y-91040101D01*
X145862113Y-91067200D01*
X146452918Y-90906300D01*
X146912421Y-90711098D01*
X147439124Y-90407700D01*
X147926627Y-90026101D01*
X148293524Y-89646401D01*
X148616721Y-89208901D01*
X148888617Y-88711899D01*
X149395423Y-88527398D01*
X149186118Y-89035897D01*
X148906211Y-89546796D01*
X148559806Y-90047795D01*
X148151511Y-90526894D01*
X147685614Y-90971894D01*
X147166510Y-91370595D01*
X146598609Y-91710896D01*
X145986212Y-91980694D01*
X145642615Y-92091397D01*
X145073508Y-92207799D01*
X144422614Y-92217000D01*
X143931708Y-92098401D01*
X143510306Y-91849400D01*
X143237311Y-91546200D01*
X143033118Y-91142499D01*
X142959113Y-90898801D01*
X142881613Y-90469102D01*
X142853720Y-89978303D01*
X142886023Y-89443902D01*
X142945517Y-89120202D01*
X144506415Y-89120202D01*
X144523413Y-89581200D01*
X145117819Y-89261502D01*
X145632926Y-88918900D01*
X146063224Y-88558999D01*
X146474021Y-88093098D01*
X146733817Y-87619300D01*
X146832114Y-87148200D01*
X146758612Y-86690398D01*
X146559607Y-86414599D01*
X146005011Y-86436499D01*
X145897711Y-86479598D01*
X145342810Y-86858298D01*
X144993018Y-87302996D01*
X144783621Y-87719897D01*
X144634223Y-88172795D01*
X144542624Y-88645196D01*
X144506430Y-89120194D01*
X142945533Y-89120194D01*
X142988928Y-88883794D01*
X143172934Y-88315594D01*
X143448538Y-87756894D01*
X143826239Y-87225497D01*
X144316535Y-86738997D01*
X144929831Y-86315196D01*
X145676825Y-85971698D01*
X145921225Y-85889796D01*
X146558325Y-85759497D01*
X147128302Y-85809600D01*
G37*
G36*
X89291997Y-61080503D02*
G01*
X89324994Y-61121602D01*
X89348393Y-61165803D01*
X89357396Y-61216905D01*
X89355397Y-61234605D01*
X89334699Y-61280107D01*
X89311902Y-61305906D01*
X89267301Y-61347005D01*
X89227399Y-61382505D01*
X89184102Y-61419305D01*
X89141805Y-61452104D01*
X89098203Y-61478303D01*
X89086499Y-61481004D01*
X89044202Y-61508603D01*
X89003201Y-61536504D01*
X88980000Y-61540902D01*
X88934003Y-61557702D01*
X88928006Y-61567804D01*
X88927205Y-61571203D01*
X88956006Y-61610002D01*
X89003903Y-61623002D01*
X89055600Y-61627401D01*
X89089597Y-61628103D01*
X89243497Y-61628103D01*
X89289197Y-61641301D01*
X89316296Y-61680402D01*
X89279897Y-61713601D01*
X89266499Y-61720701D01*
X89220296Y-61737100D01*
X89214299Y-61737500D01*
X89195294Y-61737500D01*
X89147694Y-61753099D01*
X89098691Y-61765298D01*
X89078587Y-61766099D01*
X89024991Y-61762399D01*
X88973592Y-61753999D01*
X88921994Y-61742299D01*
X88894193Y-61735101D01*
X88847196Y-61712800D01*
X88809499Y-61675199D01*
X88784100Y-61629598D01*
X88767903Y-61581098D01*
X88761907Y-61553598D01*
X88756909Y-61502599D01*
X88759908Y-61453100D01*
X88762906Y-61439298D01*
X88777608Y-61390798D01*
X88784612Y-61377496D01*
X88913510Y-61377496D01*
X88913709Y-61426694D01*
X88918706Y-61429994D01*
X88920705Y-61429994D01*
X88967801Y-61412893D01*
X89015698Y-61393392D01*
X89036496Y-61384591D01*
X89081693Y-61360391D01*
X89124791Y-61329892D01*
X89161290Y-61299093D01*
X89215489Y-61250192D01*
X89223493Y-61213792D01*
X89188992Y-61176091D01*
X89167493Y-61174791D01*
X89119893Y-61193189D01*
X89108693Y-61200689D01*
X89058896Y-61235589D01*
X89011998Y-61255288D01*
X88981198Y-61277589D01*
X88942502Y-61308690D01*
X88935498Y-61313989D01*
X88920300Y-61348188D01*
X88914304Y-61377488D01*
X88785405Y-61377488D01*
X88802503Y-61344087D01*
X88835301Y-61299287D01*
X88871503Y-61261586D01*
X88877499Y-61256288D01*
X88919103Y-61220987D01*
X88962705Y-61188485D01*
X89008305Y-61158784D01*
X89055905Y-61131986D01*
X89105504Y-61107885D01*
X89122502Y-61100484D01*
X89170400Y-61081983D01*
X89218396Y-61068784D01*
X89250699Y-61065282D01*
X89291997Y-61080503D01*
G37*
G36*
X84938290Y-61258104D02*
G01*
X84952794Y-61304902D01*
X84947797Y-61344003D01*
X84943799Y-61360902D01*
X84936795Y-61396501D01*
X84927792Y-61449003D01*
X84919789Y-61503301D01*
X84913793Y-61556699D01*
X84908795Y-61606798D01*
X84907796Y-61624399D01*
X84902799Y-61677499D01*
X84896802Y-61726697D01*
X84891805Y-61755597D01*
X84886807Y-61774896D01*
X84843511Y-61799794D01*
X84836507Y-61799993D01*
X84792104Y-61779794D01*
X84784100Y-61731492D01*
X84786694Y-61696203D01*
X84788693Y-61645803D01*
X84792691Y-61588304D01*
X84796689Y-61536905D01*
X84801686Y-61483205D01*
X84808690Y-61431707D01*
X84813687Y-61402208D01*
X84815686Y-61391206D01*
X84828488Y-61343805D01*
X84850385Y-61298806D01*
X84863583Y-61282705D01*
X84903287Y-61253003D01*
X84917790Y-61249803D01*
X84938290Y-61258104D01*
G37*
G36*
X93400380Y-60834604D02*
G01*
X93408696Y-60852601D01*
X93424497Y-60899801D01*
X93428494Y-60948602D01*
X93427495Y-60956701D01*
X93403294Y-61001802D01*
X93371495Y-61024602D01*
X93338094Y-61034101D01*
X93306592Y-60994600D01*
X93308591Y-60945199D01*
X93314587Y-60909299D01*
X93316586Y-60899301D01*
X93328885Y-60851102D01*
X93351682Y-60805803D01*
X93365178Y-60799604D01*
X93400380Y-60834604D01*
G37*
G36*
X175421696Y-61209099D02*
G01*
X175819600Y-61452900D01*
X176054799Y-61845501D01*
X176133092Y-62182602D01*
X176106587Y-62640301D01*
X175935490Y-63103001D01*
X175625294Y-63566002D01*
X175181798Y-64024303D01*
X174610600Y-64473003D01*
X174101704Y-64800502D01*
X173526509Y-65117801D01*
X172887303Y-65422901D01*
X172990407Y-65757602D01*
X173197301Y-66154403D01*
X173587498Y-66439602D01*
X174155492Y-66466701D01*
X174746297Y-66305801D01*
X175205800Y-66110599D01*
X175732503Y-65807098D01*
X176220006Y-65425598D01*
X176586903Y-65045898D01*
X176910100Y-64608398D01*
X177181996Y-64111397D01*
X177688801Y-63926895D01*
X177479603Y-64435394D01*
X177199605Y-64946293D01*
X176853200Y-65447292D01*
X176444905Y-65926391D01*
X175979008Y-66371391D01*
X175459904Y-66770092D01*
X174892003Y-67110393D01*
X174279607Y-67380192D01*
X173936009Y-67490890D01*
X173366902Y-67607292D01*
X172716008Y-67616493D01*
X172225102Y-67497894D01*
X171803700Y-67248794D01*
X171530705Y-66945694D01*
X171326512Y-66541992D01*
X171252507Y-66298294D01*
X171175008Y-65868595D01*
X171147114Y-65377796D01*
X171179417Y-64843395D01*
X171238911Y-64519695D01*
X172799809Y-64519695D01*
X172816807Y-64980694D01*
X173411214Y-64660995D01*
X173926320Y-64318393D01*
X174356724Y-63958492D01*
X174767522Y-63492592D01*
X175027226Y-63018791D01*
X175125630Y-62547692D01*
X175052037Y-62089890D01*
X174853032Y-61814091D01*
X174298436Y-61835991D01*
X174191136Y-61879090D01*
X173636235Y-62257790D01*
X173286442Y-62702488D01*
X173077046Y-63119389D01*
X172927647Y-63572289D01*
X172836049Y-64044689D01*
X172799855Y-64519687D01*
X171238957Y-64519687D01*
X171282353Y-64283287D01*
X171466359Y-63714989D01*
X171741963Y-63156388D01*
X172119664Y-62624989D01*
X172609959Y-62138489D01*
X173223256Y-61714688D01*
X173970250Y-61371189D01*
X174214650Y-61289288D01*
X174851750Y-61158989D01*
X175421696Y-61209099D01*
G37*
G36*
X184791398Y-69609298D02*
G01*
X185079591Y-69912800D01*
X185082596Y-70255298D01*
X184779191Y-70695797D01*
X184274293Y-70991798D01*
X183794587Y-71090099D01*
X183261292Y-70985100D01*
X182980698Y-70676700D01*
X182972596Y-70338997D01*
X183259690Y-69895298D01*
X183765397Y-69592697D01*
X184293900Y-69499199D01*
X184791398Y-69609298D01*
G37*
G36*
X92685902Y-60684614D02*
G01*
X92734906Y-60699315D01*
X92761205Y-60732915D01*
X92760701Y-60735616D01*
X92746999Y-60782716D01*
X92734395Y-60832116D01*
X92726392Y-60867818D01*
X92717389Y-60916719D01*
X92711392Y-60966020D01*
X92710393Y-60982820D01*
X92705396Y-61032419D01*
X92698392Y-61083318D01*
X92695393Y-61097619D01*
X92685391Y-61134218D01*
X92677388Y-61191316D01*
X92670384Y-61242814D01*
X92662381Y-61302713D01*
X92655377Y-61352613D01*
X92647374Y-61408811D01*
X92641377Y-61453710D01*
X92649800Y-61417802D01*
X92651799Y-61408002D01*
X92673497Y-61360704D01*
X92716000Y-61326906D01*
X92770398Y-61308404D01*
X92818997Y-61301503D01*
X92863797Y-61299802D01*
X92875699Y-61299802D01*
X92926396Y-61303602D01*
X92972897Y-61319803D01*
X92976895Y-61322503D01*
X93011998Y-61360902D01*
X93033597Y-61408502D01*
X93045300Y-61459703D01*
X93050298Y-61509702D01*
X93050801Y-61566404D01*
X93050404Y-61578504D01*
X93045407Y-61627805D01*
X93044408Y-61632707D01*
X93030408Y-61680806D01*
X93008511Y-61726606D01*
X92995809Y-61747007D01*
X92964009Y-61787305D01*
X92923612Y-61817407D01*
X92896413Y-61823507D01*
X92869313Y-61781408D01*
X92873311Y-61754609D01*
X92886411Y-61706609D01*
X92890408Y-61693811D01*
X92905011Y-61645009D01*
X92908009Y-61630510D01*
X92916013Y-61581010D01*
X92920010Y-61527612D01*
X92920613Y-61475911D01*
X92889417Y-61437410D01*
X92869817Y-61422708D01*
X92830014Y-61409208D01*
X92795514Y-61418809D01*
X92748715Y-61447511D01*
X92709515Y-61480611D01*
X92677815Y-61518110D01*
X92650319Y-61567308D01*
X92634915Y-61614209D01*
X92632916Y-61622510D01*
X92625913Y-61672712D01*
X92625516Y-61714811D01*
X92623517Y-61763410D01*
X92593419Y-61800008D01*
X92572415Y-61800008D01*
X92524815Y-61787710D01*
X92508412Y-61765111D01*
X92494809Y-61715612D01*
X92488812Y-61680612D01*
X92494809Y-61629010D01*
X92504811Y-61576909D01*
X92505811Y-61571908D01*
X92508809Y-61558008D01*
X92509107Y-61556009D01*
X92517110Y-61506410D01*
X92523106Y-61449811D01*
X92528104Y-61392911D01*
X92532102Y-61340913D01*
X92535100Y-61283315D01*
X92538098Y-61219915D01*
X92539098Y-61186014D01*
X92567700Y-61048715D01*
X92574704Y-61016515D01*
X92585103Y-60966813D01*
X92592107Y-60931512D01*
X92604306Y-60818212D01*
X92611310Y-60768510D01*
X92616307Y-60741712D01*
X92630505Y-60697313D01*
X92662206Y-60682412D01*
X92685902Y-60684614D01*
G37*
G36*
X153177800Y-83803008D02*
G01*
X153213002Y-84086806D01*
X152993809Y-84504405D01*
X152508610Y-84818003D01*
X152191304Y-84840102D01*
X151626012Y-84844001D01*
X151199712Y-85074801D01*
X150750218Y-85444300D01*
X150342915Y-85843299D01*
X150518117Y-90198098D01*
X148937216Y-90773499D01*
X148687110Y-84876101D01*
X150281697Y-84295710D01*
X150331502Y-85315112D01*
X150414403Y-85190711D01*
X150718602Y-84755709D01*
X151061803Y-84342608D01*
X151530598Y-83932708D01*
X152113194Y-83629008D01*
X152228001Y-83590007D01*
X152843205Y-83523207D01*
X153177800Y-83803008D01*
G37*
G36*
X196169800Y-74555400D02*
G01*
X196169694Y-74981299D01*
X196122300Y-75466998D01*
X195988099Y-75958197D01*
X195719498Y-76406798D01*
X195261597Y-76784098D01*
X194652497Y-77062197D01*
X194472993Y-77123996D01*
X193873398Y-77271697D01*
X193276093Y-77287696D01*
X192820389Y-77109194D01*
X192577088Y-76767493D01*
X192579087Y-76533797D01*
X192579285Y-76533797D01*
X193191090Y-76533797D01*
X193355683Y-76722995D01*
X193916688Y-76710494D01*
X194333283Y-76411593D01*
X194521683Y-75986994D01*
X194579087Y-75567996D01*
X194586091Y-75154998D01*
X194579087Y-74793597D01*
X194481980Y-74863295D01*
X193972184Y-75265994D01*
X193534791Y-75695494D01*
X193242890Y-76121196D01*
X193191285Y-76533797D01*
X193191090Y-76533797D01*
X193191086Y-76533793D01*
X192579285Y-76533793D01*
X192579285Y-76533797D01*
X192579087Y-76533797D01*
X192579087Y-76533793D01*
X192579285Y-76533793D01*
X192580292Y-76364897D01*
X192819398Y-75914496D01*
X193156892Y-75520095D01*
X193583985Y-75123393D01*
X194066682Y-74738192D01*
X194571183Y-74378394D01*
X194534486Y-73643195D01*
X194462983Y-73753493D01*
X194099580Y-74190795D01*
X193632981Y-74564795D01*
X193074387Y-74842097D01*
X192985490Y-74872699D01*
X192368088Y-74988700D01*
X191790589Y-74931201D01*
X191360383Y-74741999D01*
X191019181Y-74422000D01*
X190822678Y-74054301D01*
X190767579Y-73869101D01*
X190717179Y-73473101D01*
X190539582Y-69643104D01*
X192134278Y-69062706D01*
X192308976Y-73124503D01*
X192373872Y-73500102D01*
X192422669Y-73609000D01*
X192748872Y-73887702D01*
X193306977Y-73852900D01*
X193419175Y-73806502D01*
X193902772Y-73469702D01*
X194249970Y-73024802D01*
X194437073Y-72552401D01*
X194476670Y-72104800D01*
X194296265Y-68275802D01*
X195877167Y-67700401D01*
X196169800Y-74555400D01*
G37*
G36*
X138273596Y-74729899D02*
G01*
X138671500Y-74973700D01*
X138906699Y-75366301D01*
X138985099Y-75703402D01*
X138958502Y-76161101D01*
X138787406Y-76623801D01*
X138477210Y-77086802D01*
X138033713Y-77545104D01*
X137462516Y-77993804D01*
X136953620Y-78321303D01*
X136378424Y-78638602D01*
X135739218Y-78943701D01*
X135842322Y-79278403D01*
X136049216Y-79675204D01*
X136439414Y-79960402D01*
X137007407Y-79987403D01*
X137598212Y-79826602D01*
X138057715Y-79631400D01*
X138584418Y-79327899D01*
X139071921Y-78946398D01*
X139438819Y-78566699D01*
X139762015Y-78129199D01*
X140033911Y-77632197D01*
X140540717Y-77447695D01*
X140331519Y-77956195D01*
X140051520Y-78467093D01*
X139705115Y-78968093D01*
X139296820Y-79447192D01*
X138830924Y-79892192D01*
X138311820Y-80290892D01*
X137743918Y-80631194D01*
X137131522Y-80900992D01*
X136787924Y-81011691D01*
X136218817Y-81128092D01*
X135567923Y-81137294D01*
X135077124Y-81018695D01*
X134655631Y-80769595D01*
X134382636Y-80466494D01*
X134178443Y-80062792D01*
X134104438Y-79819094D01*
X134026938Y-79389395D01*
X133999138Y-78898596D01*
X134031333Y-78364196D01*
X134090827Y-78040496D01*
X135651725Y-78040496D01*
X135668723Y-78501494D01*
X136263129Y-78181796D01*
X136778235Y-77839194D01*
X137208640Y-77479293D01*
X137619437Y-77013392D01*
X137879142Y-76539592D01*
X137977545Y-76068492D01*
X137904044Y-75610690D01*
X137704947Y-75334891D01*
X137150351Y-75356791D01*
X137043051Y-75399890D01*
X136488150Y-75778590D01*
X136138358Y-76223288D01*
X135928961Y-76640189D01*
X135779563Y-77093089D01*
X135687964Y-77565489D01*
X135651770Y-78040488D01*
X134090872Y-78040488D01*
X134134268Y-77804087D01*
X134318274Y-77235789D01*
X134593878Y-76677188D01*
X134971579Y-76145789D01*
X135461875Y-75659289D01*
X136075278Y-75235488D01*
X136822180Y-74891989D01*
X137066580Y-74810088D01*
X137703681Y-74679789D01*
X138273596Y-74729899D01*
G37*
G36*
X85297490Y-60791787D02*
G01*
X85319287Y-60837388D01*
X85321286Y-60890687D01*
X85316289Y-60939885D01*
X85309285Y-60983484D01*
X85297185Y-61032483D01*
X85288182Y-61061685D01*
X85274083Y-61111585D01*
X85264081Y-61153985D01*
X85254079Y-61203885D01*
X85245076Y-61254285D01*
X85237073Y-61302984D01*
X85230069Y-61356084D01*
X85229070Y-61364084D01*
X85218266Y-61415483D01*
X85208264Y-61461484D01*
X85197865Y-61511285D01*
X85190862Y-61543287D01*
X85180859Y-61591188D01*
X85176862Y-61611490D01*
X85164060Y-61659890D01*
X85146062Y-61706090D01*
X85131261Y-61735792D01*
X85099164Y-61773691D01*
X85061162Y-61784391D01*
X85038999Y-61781701D01*
X85022199Y-61735700D01*
X85027196Y-61683599D01*
X85035199Y-61638097D01*
X85041196Y-61608499D01*
X85051198Y-61559697D01*
X85061498Y-61510198D01*
X85072095Y-61459298D01*
X85082295Y-61409898D01*
X85084294Y-61401197D01*
X85094792Y-61350095D01*
X85105191Y-61300195D01*
X85115491Y-61251294D01*
X85117490Y-61241693D01*
X85127789Y-61191892D01*
X85137990Y-61143091D01*
X85148991Y-61090089D01*
X85152989Y-61069288D01*
X85163487Y-61018186D01*
X85174184Y-60966886D01*
X85184186Y-60920987D01*
X85194486Y-60870889D01*
X85202489Y-60833589D01*
X85224889Y-60789789D01*
X85248692Y-60773988D01*
X85270390Y-60768289D01*
X85297490Y-60791787D01*
G37*
G36*
X168672597Y-63312302D02*
G01*
X168876393Y-63753402D01*
X169062092Y-64147102D01*
X169309087Y-64657303D01*
X169521580Y-65082302D01*
X169757481Y-65538902D01*
X169988576Y-65975101D01*
X170194874Y-66379600D01*
X170351567Y-66751301D01*
X170448765Y-67121399D01*
X170607472Y-66983200D01*
X171002873Y-66614898D01*
X171377476Y-66236500D01*
X172041173Y-65994899D01*
X171892079Y-66207699D01*
X171531377Y-66670799D01*
X171159779Y-67090599D01*
X170785283Y-67471698D01*
X170364079Y-67865398D01*
X170269185Y-68082699D01*
X169948384Y-68540600D01*
X169525288Y-68926399D01*
X169045186Y-69235599D01*
X168484883Y-69489299D01*
X168049885Y-69627300D01*
X167402791Y-69747001D01*
X166854298Y-69745903D01*
X166327992Y-69612201D01*
X165947987Y-69366001D01*
X165692494Y-68981502D01*
X165677388Y-68936104D01*
X165650395Y-68529403D01*
X165665393Y-68489608D01*
X165665410Y-68489608D01*
X166386802Y-68489608D01*
X166630894Y-68853706D01*
X167121190Y-69009205D01*
X167694188Y-68885006D01*
X167768483Y-68857006D01*
X168283787Y-68589805D01*
X168660191Y-68194206D01*
X168773198Y-67753605D01*
X168697591Y-67365806D01*
X168636388Y-67210308D01*
X168438481Y-66811809D01*
X168234975Y-66447708D01*
X168013081Y-66042507D01*
X167792988Y-65621307D01*
X167599187Y-65234607D01*
X167377888Y-64777008D01*
X167366292Y-65188007D01*
X167322499Y-65678608D01*
X167247197Y-66172508D01*
X167161000Y-66591106D01*
X167054204Y-67020206D01*
X166927205Y-67463306D01*
X166941106Y-67465008D01*
X167273808Y-67730106D01*
X167236012Y-68143806D01*
X166820409Y-68498207D01*
X166386815Y-68489608D01*
X166386802Y-68489608D01*
X166386800Y-68489605D01*
X165665411Y-68489605D01*
X165665410Y-68489608D01*
X165665393Y-68489608D01*
X165665394Y-68489605D01*
X165665411Y-68489605D01*
X165809407Y-68107609D01*
X166172200Y-67702709D01*
X166347401Y-67197010D01*
X166496007Y-66701210D01*
X166620701Y-66214611D01*
X166724309Y-65736210D01*
X166809514Y-65265110D01*
X166879109Y-64800609D01*
X166935811Y-64341709D01*
X166982411Y-63887508D01*
X168563618Y-63072907D01*
X168672597Y-63312302D01*
G37*
G36*
X83486295Y-60774900D02*
G01*
X83505795Y-60807500D01*
X83509793Y-60857900D01*
X83506795Y-60917001D01*
X83499791Y-60975400D01*
X83491788Y-61025701D01*
X83481786Y-61081601D01*
X83469487Y-61143003D01*
X83466489Y-61169603D01*
X83461491Y-61221002D01*
X83456494Y-61276700D01*
X83451497Y-61334298D01*
X83446500Y-61387697D01*
X83438496Y-61434995D01*
X83428494Y-61482995D01*
X83458493Y-61472394D01*
X83503095Y-61451196D01*
X83551595Y-61427095D01*
X83593396Y-61414995D01*
X83645200Y-61412095D01*
X83694699Y-61415197D01*
X83743497Y-61421499D01*
X83759999Y-61424100D01*
X83810597Y-61434099D01*
X83860295Y-61448800D01*
X83902799Y-61475702D01*
X83918401Y-61518300D01*
X83915402Y-61567800D01*
X83900205Y-61617101D01*
X83873105Y-61659601D01*
X83858502Y-61672700D01*
X83814000Y-61700502D01*
X83767301Y-61723802D01*
X83716603Y-61746301D01*
X83693601Y-61755903D01*
X83645497Y-61774602D01*
X83594998Y-61791204D01*
X83544896Y-61800004D01*
X83480397Y-61799505D01*
X83424497Y-61798005D01*
X83366498Y-61794607D01*
X83314298Y-61788408D01*
X83266896Y-61767106D01*
X83267896Y-61730607D01*
X83272893Y-61680307D01*
X83277890Y-61641805D01*
X83426488Y-61641805D01*
X83451085Y-61673204D01*
X83494382Y-61698205D01*
X83520986Y-61704404D01*
X83570584Y-61692804D01*
X83599484Y-61691003D01*
X83649686Y-61690603D01*
X83663083Y-61685003D01*
X83704884Y-61657201D01*
X83745183Y-61627099D01*
X83754186Y-61618398D01*
X83758183Y-61569200D01*
X83755185Y-61565400D01*
X83707288Y-61551301D01*
X83656888Y-61545801D01*
X83621686Y-61551999D01*
X83570989Y-61571199D01*
X83520986Y-61593999D01*
X83471486Y-61618501D01*
X83426885Y-61641801D01*
X83278287Y-61641801D01*
X83280286Y-61627702D01*
X83288289Y-61578603D01*
X83298291Y-61523404D01*
X83310292Y-61462003D01*
X83320592Y-61411905D01*
X83324590Y-61380105D01*
X83331593Y-61325704D01*
X83337590Y-61274705D01*
X83344594Y-61211805D01*
X83351598Y-61156904D01*
X83358601Y-61095403D01*
X83366605Y-61027204D01*
X83371602Y-60991304D01*
X83379605Y-60938703D01*
X83389806Y-60886705D01*
X83402409Y-60837705D01*
X83409413Y-60816606D01*
X83435910Y-60772504D01*
X83486295Y-60774900D01*
G37*
G36*
X134715796Y-95772999D02*
G01*
X135261298Y-95400197D01*
X135703894Y-95006596D01*
X136046988Y-94566495D01*
X136259787Y-94145398D01*
X136408087Y-93659100D01*
X136481894Y-93213002D01*
X137068595Y-92999402D01*
X137048194Y-93161801D01*
X136966696Y-93612599D01*
X136810797Y-94137196D01*
X136600501Y-94586995D01*
X136260794Y-95064892D01*
X135835395Y-95474194D01*
X135323691Y-95841496D01*
X134725394Y-96193593D01*
X134752097Y-96909596D01*
X134751990Y-97335499D01*
X134704489Y-97821202D01*
X134570395Y-98312405D01*
X134301795Y-98761006D01*
X133843895Y-99138409D01*
X133234794Y-99416508D01*
X133055290Y-99478306D01*
X132455696Y-99625905D01*
X131858391Y-99642003D01*
X131402687Y-99463505D01*
X131159385Y-99121808D01*
X131161384Y-98888013D01*
X131161583Y-98888013D01*
X131773390Y-98888013D01*
X131937980Y-99077306D01*
X132498985Y-99064809D01*
X132915580Y-98765912D01*
X133103981Y-98341214D01*
X133161277Y-97922314D01*
X133168281Y-97509213D01*
X133161277Y-97147816D01*
X133064277Y-97217519D01*
X132554481Y-97620221D01*
X132117088Y-98049718D01*
X131825187Y-98475514D01*
X131773582Y-98888013D01*
X131773390Y-98888013D01*
X131773384Y-98888005D01*
X131161583Y-98888005D01*
X131161583Y-98888013D01*
X131161384Y-98888013D01*
X131161384Y-98888005D01*
X131161583Y-98888005D01*
X131162590Y-98719113D01*
X131401695Y-98268712D01*
X131739189Y-97874409D01*
X132166282Y-97477612D01*
X132648979Y-97092412D01*
X133153480Y-96732609D01*
X133116676Y-95997510D01*
X133045280Y-96107709D01*
X132681877Y-96545010D01*
X132215278Y-96919011D01*
X131656685Y-97196309D01*
X131567787Y-97226910D01*
X130950386Y-97342908D01*
X130372780Y-97285504D01*
X129942573Y-97096303D01*
X129601478Y-96776303D01*
X129404976Y-96408604D01*
X129349876Y-96223302D01*
X129299476Y-95827298D01*
X129121879Y-91997296D01*
X130716575Y-91416897D01*
X130891182Y-95478795D01*
X130956184Y-95854397D01*
X131004982Y-95963200D01*
X131331184Y-96241902D01*
X131889290Y-96207204D01*
X132001396Y-96160702D01*
X132485099Y-95823903D01*
X132832206Y-95379002D01*
X133019401Y-94906605D01*
X133058906Y-94459004D01*
X132878608Y-90630006D01*
X134459510Y-90054604D01*
X134715796Y-95772999D01*
G37*
G36*
X93320691Y-61258104D02*
G01*
X93335194Y-61304902D01*
X93330197Y-61344003D01*
X93327199Y-61360902D01*
X93319196Y-61396501D01*
X93310193Y-61449003D01*
X93303189Y-61503301D01*
X93297192Y-61556699D01*
X93292195Y-61606798D01*
X93291196Y-61624399D01*
X93286199Y-61677499D01*
X93280202Y-61726697D01*
X93275205Y-61755597D01*
X93270207Y-61774896D01*
X93227010Y-61799794D01*
X93220006Y-61799993D01*
X93175603Y-61779794D01*
X93167600Y-61731492D01*
X93169095Y-61696203D01*
X93171094Y-61645803D01*
X93175092Y-61588304D01*
X93179089Y-61536905D01*
X93184087Y-61483205D01*
X93191090Y-61431707D01*
X93196088Y-61402208D01*
X93198087Y-61391206D01*
X93210988Y-61343805D01*
X93232785Y-61298806D01*
X93245984Y-61282705D01*
X93285687Y-61253003D01*
X93300191Y-61249803D01*
X93320691Y-61258104D01*
G37*
G36*
X163631200Y-79803000D02*
G01*
X164029103Y-80046801D01*
X164264302Y-80439501D01*
X164342702Y-80776503D01*
X164316106Y-81234202D01*
X164145009Y-81697001D01*
X163834813Y-82159899D01*
X163391316Y-82618201D01*
X162820119Y-83067000D01*
X162311223Y-83394400D01*
X161736027Y-83711699D01*
X161096821Y-84016799D01*
X161199925Y-84351500D01*
X161406819Y-84748301D01*
X161797017Y-85033499D01*
X162365010Y-85060599D01*
X162955815Y-84899699D01*
X163415318Y-84704497D01*
X163942021Y-84401099D01*
X164429524Y-84019499D01*
X164796422Y-83639899D01*
X165119618Y-83202300D01*
X165391514Y-82705298D01*
X165898320Y-82520899D01*
X165689122Y-83029399D01*
X165409123Y-83540198D01*
X165062718Y-84041297D01*
X164654423Y-84520297D01*
X164188527Y-84965296D01*
X163669423Y-85363997D01*
X163101521Y-85704299D01*
X162489125Y-85974097D01*
X162145528Y-86084796D01*
X161576420Y-86201297D01*
X160925526Y-86210398D01*
X160434727Y-86091799D01*
X160013234Y-85842799D01*
X159740239Y-85539599D01*
X159536046Y-85136000D01*
X159462041Y-84892199D01*
X159384541Y-84462500D01*
X159356740Y-83971701D01*
X159388936Y-83437400D01*
X159448430Y-83113700D01*
X159448476Y-83113700D01*
X161009328Y-83113700D01*
X161026326Y-83574698D01*
X161620732Y-83254897D01*
X162135838Y-82912398D01*
X162566243Y-82552497D01*
X162977040Y-82086596D01*
X163236745Y-81612696D01*
X163335149Y-81141597D01*
X163261647Y-80683795D01*
X163062550Y-80407996D01*
X162507954Y-80429995D01*
X162400654Y-80472995D01*
X161845753Y-80851695D01*
X161495961Y-81296496D01*
X161286565Y-81713298D01*
X161137166Y-82166297D01*
X161045567Y-82638598D01*
X161009373Y-83113700D01*
X161009328Y-83113700D01*
X159448476Y-83113700D01*
X159491872Y-82877200D01*
X159675877Y-82309001D01*
X159951482Y-81750300D01*
X160329182Y-81218901D01*
X160819478Y-80732501D01*
X161432881Y-80308600D01*
X162179784Y-79965102D01*
X162424184Y-79883200D01*
X163061284Y-79752902D01*
X163631200Y-79803000D01*
G37*
G36*
X176455693Y-78894488D02*
G01*
X176461690Y-79011687D01*
X176550786Y-79404689D01*
X176681279Y-79631289D01*
X177216786Y-79709090D01*
X177689290Y-79367789D01*
X177968297Y-78945288D01*
X178162999Y-78470889D01*
X178290105Y-77996089D01*
X178876698Y-77782489D01*
X178798802Y-78167590D01*
X178659306Y-78679492D01*
X178437306Y-79249190D01*
X178183400Y-79703688D01*
X177836003Y-80132590D01*
X177400700Y-80481791D01*
X176843800Y-80749392D01*
X176410496Y-80857791D01*
X175849599Y-80807090D01*
X175473195Y-80567691D01*
X175213490Y-80194991D01*
X175108098Y-80447093D01*
X174848195Y-80899092D01*
X174476994Y-81337992D01*
X173989293Y-81721892D01*
X173464390Y-81979392D01*
X173375493Y-82009993D01*
X172758092Y-82125994D01*
X172180485Y-82068495D01*
X171750386Y-81879397D01*
X171409184Y-81559397D01*
X171212681Y-81191596D01*
X171157582Y-81006396D01*
X171107182Y-80610396D01*
X170929585Y-76780398D01*
X172524281Y-76200000D01*
X172698888Y-80261901D01*
X172763890Y-80637500D01*
X172812688Y-80746299D01*
X173138890Y-81025000D01*
X173696995Y-80990199D01*
X173809193Y-80943801D01*
X174292790Y-80607001D01*
X174639897Y-80162101D01*
X174827092Y-79689700D01*
X174866597Y-79242099D01*
X174686299Y-75413100D01*
X176281087Y-74832686D01*
X176455693Y-78894488D01*
G37*
G36*
X85017987Y-60834604D02*
G01*
X85026296Y-60852601D01*
X85042096Y-60899801D01*
X85046094Y-60948602D01*
X85045094Y-60956701D01*
X85020894Y-61001802D01*
X84989194Y-61024602D01*
X84955792Y-61034101D01*
X84924191Y-60994600D01*
X84926190Y-60945199D01*
X84932187Y-60909299D01*
X84934186Y-60899301D01*
X84946385Y-60851102D01*
X84969289Y-60805803D01*
X84982785Y-60799604D01*
X85017987Y-60834604D01*
G37*
D11*
X118757142Y-68647571D02*
X118899999Y-68504714D01*
X118899999Y-68504714D02*
X119185714Y-68361857D01*
X119185714Y-68361857D02*
X119899999Y-68361857D01*
X119899999Y-68361857D02*
X120185714Y-68504714D01*
X120185714Y-68504714D02*
X120328571Y-68647571D01*
X120328571Y-68647571D02*
X120471428Y-68933285D01*
X120471428Y-68933285D02*
X120471428Y-69219000D01*
X120471428Y-69219000D02*
X120328571Y-69647571D01*
X120328571Y-69647571D02*
X118614285Y-71361857D01*
X118614285Y-71361857D02*
X120471428Y-71361857D01*
X122328571Y-68361857D02*
X122614285Y-68361857D01*
X122614285Y-68361857D02*
X122899999Y-68504714D01*
X122899999Y-68504714D02*
X123042857Y-68647571D01*
X123042857Y-68647571D02*
X123185714Y-68933285D01*
X123185714Y-68933285D02*
X123328571Y-69504714D01*
X123328571Y-69504714D02*
X123328571Y-70219000D01*
X123328571Y-70219000D02*
X123185714Y-70790428D01*
X123185714Y-70790428D02*
X123042857Y-71076142D01*
X123042857Y-71076142D02*
X122899999Y-71219000D01*
X122899999Y-71219000D02*
X122614285Y-71361857D01*
X122614285Y-71361857D02*
X122328571Y-71361857D01*
X122328571Y-71361857D02*
X122042857Y-71219000D01*
X122042857Y-71219000D02*
X121899999Y-71076142D01*
X121899999Y-71076142D02*
X121757142Y-70790428D01*
X121757142Y-70790428D02*
X121614285Y-70219000D01*
X121614285Y-70219000D02*
X121614285Y-69504714D01*
X121614285Y-69504714D02*
X121757142Y-68933285D01*
X121757142Y-68933285D02*
X121899999Y-68647571D01*
X121899999Y-68647571D02*
X122042857Y-68504714D01*
X122042857Y-68504714D02*
X122328571Y-68361857D01*
X124471428Y-68647571D02*
X124614285Y-68504714D01*
X124614285Y-68504714D02*
X124900000Y-68361857D01*
X124900000Y-68361857D02*
X125614285Y-68361857D01*
X125614285Y-68361857D02*
X125900000Y-68504714D01*
X125900000Y-68504714D02*
X126042857Y-68647571D01*
X126042857Y-68647571D02*
X126185714Y-68933285D01*
X126185714Y-68933285D02*
X126185714Y-69219000D01*
X126185714Y-69219000D02*
X126042857Y-69647571D01*
X126042857Y-69647571D02*
X124328571Y-71361857D01*
X124328571Y-71361857D02*
X126185714Y-71361857D01*
X128757143Y-69361857D02*
X128757143Y-71361857D01*
X128042857Y-68219000D02*
X127328571Y-70361857D01*
X127328571Y-70361857D02*
X129185714Y-70361857D01*
X118671428Y-67261857D02*
X118671428Y-64261857D01*
X118671428Y-67119000D02*
X118385713Y-67261857D01*
X118385713Y-67261857D02*
X117814285Y-67261857D01*
X117814285Y-67261857D02*
X117528570Y-67119000D01*
X117528570Y-67119000D02*
X117385713Y-66976142D01*
X117385713Y-66976142D02*
X117242856Y-66690428D01*
X117242856Y-66690428D02*
X117242856Y-65833285D01*
X117242856Y-65833285D02*
X117385713Y-65547571D01*
X117385713Y-65547571D02*
X117528570Y-65404714D01*
X117528570Y-65404714D02*
X117814285Y-65261857D01*
X117814285Y-65261857D02*
X118385713Y-65261857D01*
X118385713Y-65261857D02*
X118671428Y-65404714D01*
X121385714Y-67119000D02*
X121099999Y-67261857D01*
X121099999Y-67261857D02*
X120528571Y-67261857D01*
X120528571Y-67261857D02*
X120242856Y-67119000D01*
X120242856Y-67119000D02*
X120099999Y-66976142D01*
X120099999Y-66976142D02*
X119957142Y-66690428D01*
X119957142Y-66690428D02*
X119957142Y-65833285D01*
X119957142Y-65833285D02*
X120099999Y-65547571D01*
X120099999Y-65547571D02*
X120242856Y-65404714D01*
X120242856Y-65404714D02*
X120528571Y-65261857D01*
X120528571Y-65261857D02*
X121099999Y-65261857D01*
X121099999Y-65261857D02*
X121385714Y-65404714D01*
X123957143Y-64261857D02*
X123385714Y-64261857D01*
X123385714Y-64261857D02*
X123100000Y-64404714D01*
X123100000Y-64404714D02*
X122957143Y-64547571D01*
X122957143Y-64547571D02*
X122671428Y-64976142D01*
X122671428Y-64976142D02*
X122528571Y-65547571D01*
X122528571Y-65547571D02*
X122528571Y-66690428D01*
X122528571Y-66690428D02*
X122671428Y-66976142D01*
X122671428Y-66976142D02*
X122814285Y-67119000D01*
X122814285Y-67119000D02*
X123100000Y-67261857D01*
X123100000Y-67261857D02*
X123671428Y-67261857D01*
X123671428Y-67261857D02*
X123957143Y-67119000D01*
X123957143Y-67119000D02*
X124100000Y-66976142D01*
X124100000Y-66976142D02*
X124242857Y-66690428D01*
X124242857Y-66690428D02*
X124242857Y-65976142D01*
X124242857Y-65976142D02*
X124100000Y-65690428D01*
X124100000Y-65690428D02*
X123957143Y-65547571D01*
X123957143Y-65547571D02*
X123671428Y-65404714D01*
X123671428Y-65404714D02*
X123100000Y-65404714D01*
X123100000Y-65404714D02*
X122814285Y-65547571D01*
X122814285Y-65547571D02*
X122671428Y-65690428D01*
X122671428Y-65690428D02*
X122528571Y-65976142D01*
X127100000Y-67261857D02*
X125385714Y-67261857D01*
X126242857Y-67261857D02*
X126242857Y-64261857D01*
X126242857Y-64261857D02*
X125957143Y-64690428D01*
X125957143Y-64690428D02*
X125671428Y-64976142D01*
X125671428Y-64976142D02*
X125385714Y-65119000D01*
X129814286Y-64261857D02*
X128385714Y-64261857D01*
X128385714Y-64261857D02*
X128242857Y-65690428D01*
X128242857Y-65690428D02*
X128385714Y-65547571D01*
X128385714Y-65547571D02*
X128671429Y-65404714D01*
X128671429Y-65404714D02*
X129385714Y-65404714D01*
X129385714Y-65404714D02*
X129671429Y-65547571D01*
X129671429Y-65547571D02*
X129814286Y-65690428D01*
X129814286Y-65690428D02*
X129957143Y-65976142D01*
X129957143Y-65976142D02*
X129957143Y-66690428D01*
X129957143Y-66690428D02*
X129814286Y-66976142D01*
X129814286Y-66976142D02*
X129671429Y-67119000D01*
X129671429Y-67119000D02*
X129385714Y-67261857D01*
X129385714Y-67261857D02*
X128671429Y-67261857D01*
X128671429Y-67261857D02*
X128385714Y-67119000D01*
X128385714Y-67119000D02*
X128242857Y-66976142D01*
D12*
X188595733Y-79914734D02*
X188252876Y-79914734D01*
X188424305Y-79914734D02*
X188424305Y-79314734D01*
X188424305Y-79314734D02*
X188367162Y-79400448D01*
X188367162Y-79400448D02*
X188310019Y-79457591D01*
X188310019Y-79457591D02*
X188252876Y-79486163D01*
D13*
X70136370Y-75367058D02*
X69660179Y-75700391D01*
X70136370Y-75938486D02*
X69136370Y-75938486D01*
X69136370Y-75938486D02*
X69136370Y-75557534D01*
X69136370Y-75557534D02*
X69183989Y-75462296D01*
X69183989Y-75462296D02*
X69231608Y-75414677D01*
X69231608Y-75414677D02*
X69326846Y-75367058D01*
X69326846Y-75367058D02*
X69469703Y-75367058D01*
X69469703Y-75367058D02*
X69564941Y-75414677D01*
X69564941Y-75414677D02*
X69612560Y-75462296D01*
X69612560Y-75462296D02*
X69660179Y-75557534D01*
X69660179Y-75557534D02*
X69660179Y-75938486D01*
X70136370Y-74890867D02*
X70136370Y-74700391D01*
X70136370Y-74700391D02*
X70088751Y-74605153D01*
X70088751Y-74605153D02*
X70041131Y-74557534D01*
X70041131Y-74557534D02*
X69898274Y-74462296D01*
X69898274Y-74462296D02*
X69707798Y-74414677D01*
X69707798Y-74414677D02*
X69326846Y-74414677D01*
X69326846Y-74414677D02*
X69231608Y-74462296D01*
X69231608Y-74462296D02*
X69183989Y-74509915D01*
X69183989Y-74509915D02*
X69136370Y-74605153D01*
X69136370Y-74605153D02*
X69136370Y-74795629D01*
X69136370Y-74795629D02*
X69183989Y-74890867D01*
X69183989Y-74890867D02*
X69231608Y-74938486D01*
X69231608Y-74938486D02*
X69326846Y-74986105D01*
X69326846Y-74986105D02*
X69564941Y-74986105D01*
X69564941Y-74986105D02*
X69660179Y-74938486D01*
X69660179Y-74938486D02*
X69707798Y-74890867D01*
X69707798Y-74890867D02*
X69755417Y-74795629D01*
X69755417Y-74795629D02*
X69755417Y-74605153D01*
X69755417Y-74605153D02*
X69707798Y-74509915D01*
X69707798Y-74509915D02*
X69660179Y-74462296D01*
X69660179Y-74462296D02*
X69564941Y-74414677D01*
X66629895Y-75818321D02*
X66153704Y-76151654D01*
X66629895Y-76389749D02*
X65629895Y-76389749D01*
X65629895Y-76389749D02*
X65629895Y-76008797D01*
X65629895Y-76008797D02*
X65677514Y-75913559D01*
X65677514Y-75913559D02*
X65725133Y-75865940D01*
X65725133Y-75865940D02*
X65820371Y-75818321D01*
X65820371Y-75818321D02*
X65963228Y-75818321D01*
X65963228Y-75818321D02*
X66058466Y-75865940D01*
X66058466Y-75865940D02*
X66106085Y-75913559D01*
X66106085Y-75913559D02*
X66153704Y-76008797D01*
X66153704Y-76008797D02*
X66153704Y-76389749D01*
X66629895Y-74865940D02*
X66629895Y-75437368D01*
X66629895Y-75151654D02*
X65629895Y-75151654D01*
X65629895Y-75151654D02*
X65772752Y-75246892D01*
X65772752Y-75246892D02*
X65867990Y-75342130D01*
X65867990Y-75342130D02*
X65915609Y-75437368D01*
X65629895Y-74246892D02*
X65629895Y-74151654D01*
X65629895Y-74151654D02*
X65677514Y-74056416D01*
X65677514Y-74056416D02*
X65725133Y-74008797D01*
X65725133Y-74008797D02*
X65820371Y-73961178D01*
X65820371Y-73961178D02*
X66010847Y-73913559D01*
X66010847Y-73913559D02*
X66248942Y-73913559D01*
X66248942Y-73913559D02*
X66439418Y-73961178D01*
X66439418Y-73961178D02*
X66534656Y-74008797D01*
X66534656Y-74008797D02*
X66582276Y-74056416D01*
X66582276Y-74056416D02*
X66629895Y-74151654D01*
X66629895Y-74151654D02*
X66629895Y-74246892D01*
X66629895Y-74246892D02*
X66582276Y-74342130D01*
X66582276Y-74342130D02*
X66534656Y-74389749D01*
X66534656Y-74389749D02*
X66439418Y-74437368D01*
X66439418Y-74437368D02*
X66248942Y-74484987D01*
X66248942Y-74484987D02*
X66010847Y-74484987D01*
X66010847Y-74484987D02*
X65820371Y-74437368D01*
X65820371Y-74437368D02*
X65725133Y-74389749D01*
X65725133Y-74389749D02*
X65677514Y-74342130D01*
X65677514Y-74342130D02*
X65629895Y-74246892D01*
D14*
%TO.C,D2*%
X118040000Y-62100000D02*
X117340000Y-62100000D01*
%TO.C,D1*%
X54540000Y-100200000D02*
X53840000Y-100200000D01*
%TO.C,J1*%
X203070000Y-57670000D02*
X218570000Y-57670000D01*
X203070000Y-66790000D02*
X203070000Y-57670000D01*
X204370000Y-58980000D02*
X208770000Y-58980000D01*
X204370000Y-65480000D02*
X204370000Y-58980000D01*
X208770000Y-58980000D02*
X208770000Y-57670000D01*
X208770000Y-58980000D02*
X208770000Y-58980000D01*
X212860000Y-56280000D02*
X213360000Y-57280000D01*
X212870000Y-57670000D02*
X212870000Y-58980000D01*
X212870000Y-58980000D02*
X217270000Y-58980000D01*
X213360000Y-57280000D02*
X213860000Y-56280000D01*
X213860000Y-56280000D02*
X212860000Y-56280000D01*
X217270000Y-58980000D02*
X217270000Y-65480000D01*
X217270000Y-65480000D02*
X204370000Y-65480000D01*
X218570000Y-57670000D02*
X218570000Y-66790000D01*
X218570000Y-66790000D02*
X203070000Y-66790000D01*
X98930000Y-57670000D02*
X114430000Y-57670000D01*
X98930000Y-66790000D02*
X98930000Y-57670000D01*
X100230000Y-58980000D02*
X104630000Y-58980000D01*
X100230000Y-65480000D02*
X100230000Y-58980000D01*
X104630000Y-58980000D02*
X104630000Y-57670000D01*
X104630000Y-58980000D02*
X104630000Y-58980000D01*
X108720000Y-56280000D02*
X109220000Y-57280000D01*
X108730000Y-57670000D02*
X108730000Y-58980000D01*
X108730000Y-58980000D02*
X113130000Y-58980000D01*
X109220000Y-57280000D02*
X109720000Y-56280000D01*
X109720000Y-56280000D02*
X108720000Y-56280000D01*
X113130000Y-58980000D02*
X113130000Y-65480000D01*
X113130000Y-65480000D02*
X100230000Y-65480000D01*
X114430000Y-57670000D02*
X114430000Y-66790000D01*
X114430000Y-66790000D02*
X98930000Y-66790000D01*
%TO.C,D4*%
X161220000Y-102740000D02*
X160520000Y-102740000D01*
%TO.C,D5*%
X187924305Y-77342363D02*
X187224305Y-77342363D01*
%TO.C,J1*%
X162430000Y-95770000D02*
X177930000Y-95770000D01*
X162430000Y-104890000D02*
X162430000Y-95770000D01*
X163730000Y-97080000D02*
X168130000Y-97080000D01*
X163730000Y-103580000D02*
X163730000Y-97080000D01*
X168130000Y-97080000D02*
X168130000Y-95770000D01*
X168130000Y-97080000D02*
X168130000Y-97080000D01*
X172220000Y-94380000D02*
X172720000Y-95380000D01*
X172230000Y-95770000D02*
X172230000Y-97080000D01*
X172230000Y-97080000D02*
X176630000Y-97080000D01*
X172720000Y-95380000D02*
X173220000Y-94380000D01*
X173220000Y-94380000D02*
X172220000Y-94380000D01*
X176630000Y-97080000D02*
X176630000Y-103580000D01*
X176630000Y-103580000D02*
X163730000Y-103580000D01*
X177930000Y-95770000D02*
X177930000Y-104890000D01*
X177930000Y-104890000D02*
X162430000Y-104890000D01*
%TO.C,R9*%
X68319266Y-76727064D02*
X68319266Y-73672936D01*
X71039266Y-76727064D02*
X71039266Y-73672936D01*
%TO.C,R10*%
X64809266Y-73672936D02*
X64809266Y-76727064D01*
X67529266Y-73672936D02*
X67529266Y-76727064D01*
%TO.C,D3*%
X128200000Y-72260000D02*
X127500000Y-72260000D01*
%TO.C,J1*%
X60830000Y-95770000D02*
X76330000Y-95770000D01*
X60830000Y-104890000D02*
X60830000Y-95770000D01*
X62130000Y-97080000D02*
X66530000Y-97080000D01*
X62130000Y-103580000D02*
X62130000Y-97080000D01*
X66530000Y-97080000D02*
X66530000Y-95770000D01*
X66530000Y-97080000D02*
X66530000Y-97080000D01*
X70620000Y-94380000D02*
X71120000Y-95380000D01*
X70630000Y-95770000D02*
X70630000Y-97080000D01*
X70630000Y-97080000D02*
X75030000Y-97080000D01*
X71120000Y-95380000D02*
X71620000Y-94380000D01*
X71620000Y-94380000D02*
X70620000Y-94380000D01*
X75030000Y-97080000D02*
X75030000Y-103580000D01*
X75030000Y-103580000D02*
X62130000Y-103580000D01*
X76330000Y-95770000D02*
X76330000Y-104890000D01*
X76330000Y-104890000D02*
X60830000Y-104890000D01*
%TD*%
%LPC*%
D15*
%TO.C,D2*%
X117690000Y-64400000D03*
D16*
X116840000Y-64340000D03*
D17*
X117690000Y-63500000D03*
D15*
X117690000Y-62600000D03*
X115990000Y-62600000D03*
D17*
X115990000Y-63500000D03*
D18*
X116840000Y-62900000D03*
D15*
X115990000Y-64400000D03*
%TD*%
%TO.C,D1*%
X54190000Y-102500000D03*
D16*
X53340000Y-102440000D03*
D17*
X54190000Y-101600000D03*
D15*
X54190000Y-100700000D03*
X52490000Y-100700000D03*
D17*
X52490000Y-101600000D03*
D18*
X53340000Y-101000000D03*
D15*
X52490000Y-102500000D03*
%TD*%
D19*
%TO.C,fiducial2*%
X236220000Y-60960000D03*
%TD*%
D20*
%TO.C,J1*%
X213360000Y-60960000D03*
D21*
X213360000Y-63500000D03*
X210820000Y-60960000D03*
X210820000Y-63500000D03*
X208280000Y-60960000D03*
X208280000Y-63500000D03*
%TD*%
D20*
%TO.C,J1*%
X109220000Y-60960000D03*
D21*
X109220000Y-63500000D03*
X106680000Y-60960000D03*
X106680000Y-63500000D03*
X104140000Y-60960000D03*
X104140000Y-63500000D03*
%TD*%
D15*
%TO.C,D4*%
X160870000Y-105040000D03*
D16*
X160020000Y-104980000D03*
D17*
X160870000Y-104140000D03*
D15*
X160870000Y-103240000D03*
X159170000Y-103240000D03*
D17*
X159170000Y-104140000D03*
D18*
X160020000Y-103540000D03*
D15*
X159170000Y-105040000D03*
%TD*%
D19*
%TO.C,U2*%
X114960000Y-136020000D03*
X180760000Y-103520000D03*
X180760000Y-136020000D03*
D22*
X137160000Y-102600000D03*
D21*
X139700000Y-102600000D03*
X142240000Y-102600000D03*
X144780000Y-102600000D03*
X147320000Y-102600000D03*
X149860000Y-102600000D03*
X152400000Y-102600000D03*
X154940000Y-102600000D03*
%TD*%
D15*
%TO.C,D5*%
X187574305Y-79642363D03*
D16*
X186724305Y-79582363D03*
D17*
X187574305Y-78742363D03*
D15*
X187574305Y-77842363D03*
X185874305Y-77842363D03*
D17*
X185874305Y-78742363D03*
D18*
X186724305Y-78142363D03*
D15*
X185874305Y-79642363D03*
%TD*%
D19*
%TO.C,fiducial1*%
X55880000Y-88900000D03*
%TD*%
D20*
%TO.C,J1*%
X172720000Y-99060000D03*
D21*
X172720000Y-101600000D03*
X170180000Y-99060000D03*
X170180000Y-101600000D03*
X167640000Y-99060000D03*
X167640000Y-101600000D03*
%TD*%
D23*
%TO.C,R9*%
X69679266Y-77600000D03*
X69679266Y-72800000D03*
%TD*%
D24*
%TO.C,R10*%
X66169266Y-72800000D03*
X66169266Y-77600000D03*
%TD*%
D15*
%TO.C,D3*%
X127850000Y-74560000D03*
D16*
X127000000Y-74500000D03*
D17*
X127850000Y-73660000D03*
D15*
X127850000Y-72760000D03*
X126150000Y-72760000D03*
D17*
X126150000Y-73660000D03*
D18*
X127000000Y-73060000D03*
D15*
X126150000Y-74560000D03*
%TD*%
D20*
%TO.C,J1*%
X71120000Y-99060000D03*
D21*
X71120000Y-101600000D03*
X68580000Y-99060000D03*
X68580000Y-101600000D03*
X66040000Y-99060000D03*
X66040000Y-101600000D03*
%TD*%
D19*
%TO.C,U2*%
X56004294Y-62458587D03*
X53171733Y-94834914D03*
D25*
X78200000Y-63476945D03*
D21*
X80730336Y-63698321D03*
X83260669Y-63919696D03*
X85791004Y-64141072D03*
X88321338Y-64362447D03*
X90851673Y-64583823D03*
X93382007Y-64805199D03*
X95912342Y-65026574D03*
%TD*%
D26*
%TO.C,D6*%
X117000000Y-88975000D03*
D27*
X117000000Y-86435000D03*
%TD*%
D28*
%TO.C,R2*%
X131980000Y-62200000D03*
X128580000Y-62200000D03*
%TD*%
D29*
%TO.C,U3*%
X107400000Y-87980000D03*
D30*
X107400000Y-85440000D03*
X107400000Y-82900000D03*
%TD*%
D19*
%TO.C,U1*%
X69679266Y-79714877D03*
X66169266Y-79714877D03*
X70470010Y-86659629D03*
%TD*%
%LPD*%
M02*
