M48
; DRILL file {KiCad 8.0.1} date 2024-04-07T13:01:25-0500
; FORMAT={-:-/ absolute / metric / decimal}
; #@! TF.CreationDate,2024-04-07T13:01:25-05:00
; #@! TF.GenerationSoftware,Kicad,Pcbnew,8.0.1
; #@! TF.FileFunction,Plated,1,2,PTH
FMAT,2
METRIC
; #@! TA.AperFunction,Plated,PTH,ViaDrill
T1C0.400
; #@! TA.AperFunction,Plated,PTH,ViaDrill
T2C0.600
; #@! TA.AperFunction,Plated,PTH,ComponentDrill
T3C0.800
; #@! TA.AperFunction,Plated,PTH,ComponentDrill
T4C0.900
; #@! TA.AperFunction,Plated,PTH,ComponentDrill
T5C1.000
; #@! TA.AperFunction,Plated,PTH,ComponentDrill
T6C1.100
; #@! TA.AperFunction,Plated,PTH,ComponentDrill
T7C2.500
; #@! TA.AperFunction,Plated,PTH,ComponentDrill
T8C3.000
%
G90
G05
T1
X50.8Y-99.06
X50.8Y-105.0
X52.39Y-102.6
X53.34Y-91.44
X54.34Y-102.6
X55.9Y-99.7
X58.1Y-99.0
X58.4Y-101.6
X61.4Y-81.28
X63.5Y-68.58
X66.0Y-103.8
X66.04Y-63.5
X66.66Y-73.5
X69.2Y-97.2
X69.9Y-75.5
X71.12Y-60.96
X72.1Y-70.3
X72.9Y-99.4
X72.923Y-102.1
X73.4Y-65.5
X74.3Y-99.4
X74.6Y-71.8
X75.2Y-81.9
X75.7Y-70.3
X76.2Y-98.1
X76.8Y-79.9
X79.0Y-70.4
X79.4Y-86.1
X79.6Y-60.8
X81.1Y-80.5
X81.1Y-87.6
X81.28Y-105.0
X81.9Y-96.8
X82.0Y-81.7
X86.3Y-71.1
X86.4Y-88.5
X86.7Y-80.3
X86.9Y-70.4
X87.35Y-81.65
X87.5Y-71.1
X87.8Y-79.4
X88.1Y-70.4
X88.7Y-71.1
X89.2Y-92.6
X90.0Y-88.3
X90.1Y-69.6
X91.1Y-71.1
X91.3Y-85.4
X91.7Y-70.4
X91.8Y-76.3
X92.3Y-71.1
X92.4Y-96.5
X92.9Y-70.4
X93.5Y-71.1
X93.6Y-77.4
X95.97Y-71.1
X96.3Y-84.0
X96.6Y-70.4
X97.2Y-71.1
X97.8Y-70.4
X98.4Y-71.1
X99.0Y-70.4
X99.6Y-71.1
X100.2Y-70.4
X100.8Y-71.1
X105.8Y-67.2
X109.95Y-78.74
X110.0Y-66.04
X111.1Y-85.25
X111.12Y-61.0
X111.2Y-67.9
X111.4Y-94.7
X111.76Y-63.5
X113.5Y-88.1
X115.89Y-64.55
X116.2Y-67.067
X116.2Y-78.74
X117.79Y-64.55
X119.4Y-78.74
X121.0Y-68.85
X121.36Y-60.51
X121.9Y-65.7
X123.45Y-68.85
X123.5Y-65.7
X123.95Y-88.94
X125.97Y-74.7
X128.05Y-74.7
X128.6Y-69.4
X128.7Y-78.74
X132.08Y-91.44
X134.2Y-79.1
X134.25Y-76.55
X137.1Y-104.05
X137.16Y-59.96
X137.16Y-70.12
X145.2Y-96.9
X151.3Y-85.8
X152.2Y-91.686
X152.4Y-59.96
X152.4Y-70.12
X152.4Y-76.2
X152.5Y-83.7
X154.0Y-99.1
X158.7Y-105.2
X161.35Y-105.14
X164.372Y-99.1
X165.3Y-105.0
X170.18Y-59.96
X170.18Y-70.12
X170.18Y-76.2
X170.18Y-78.9
X170.18Y-81.1
X170.18Y-83.58
X171.545Y-90.8
X172.4Y-88.5
X172.6Y-97.2
X174.3Y-96.2
X176.78Y-92.581
X177.8Y-105.0
X182.8Y-80.0
X182.858Y-77.842
X183.4Y-87.7
X185.42Y-59.96
X185.42Y-70.12
X185.42Y-76.2
X185.874Y-79.742
X187.574Y-79.742
X197.6Y-78.7
X198.5Y-73.0
X198.8Y-68.4
X208.28Y-71.12
X215.9Y-71.12
X220.98Y-66.04
X226.06Y-60.96
T2
X66.04Y-86.3
X111.1Y-71.4
T3
X128.58Y-62.2
X131.98Y-62.2
T4
X117.0Y-86.435
X117.0Y-88.975
T5
X66.04Y-99.06
X66.04Y-101.6
X68.58Y-99.06
X68.58Y-101.6
X71.12Y-99.06
X71.12Y-101.6
X78.2Y-63.477
X80.73Y-63.698
X83.261Y-63.92
X85.791Y-64.141
X88.321Y-64.362
X90.852Y-64.584
X93.382Y-64.805
X95.912Y-65.027
X104.14Y-60.96
X104.14Y-63.5
X106.68Y-60.96
X106.68Y-63.5
X109.22Y-60.96
X109.22Y-63.5
X137.16Y-102.6
X139.7Y-102.6
X142.24Y-102.6
X144.78Y-102.6
X147.32Y-102.6
X149.86Y-102.6
X152.4Y-102.6
X154.94Y-102.6
X167.64Y-99.06
X167.64Y-101.6
X170.18Y-99.06
X170.18Y-101.6
X172.72Y-99.06
X172.72Y-101.6
X208.28Y-60.96
X208.28Y-63.5
X210.82Y-60.96
X210.82Y-63.5
X213.36Y-60.96
X213.36Y-63.5
T6
X107.4Y-82.9
X107.4Y-85.44
X107.4Y-87.98
T7
X66.169Y-79.715
X69.679Y-79.715
X70.47Y-86.66
T8
X68.58Y-62.23
X228.6Y-62.23
T8
X134.62Y-62.0G85X134.62Y-65.0
G05
X134.62Y-84.86G85X134.62Y-87.86
G05
X187.96Y-62.0G85X187.96Y-65.0
G05
X187.96Y-84.86G85X187.96Y-87.86
G05
M30
