%TF.GenerationSoftware,KiCad,Pcbnew,8.0.1*%
%TF.CreationDate,2024-04-20T15:08:51-05:00*%
%TF.ProjectId,badge,62616467-652e-46b6-9963-61645f706362,rev?*%
%TF.SameCoordinates,Original*%
%TF.FileFunction,Copper,L1,Top*%
%TF.FilePolarity,Positive*%
%FSLAX46Y46*%
G04 Gerber Fmt 4.6, Leading zero omitted, Abs format (unit mm)*
G04 Created by KiCad (PCBNEW 8.0.1) date 2024-04-20 15:08:51*
%MOMM*%
%LPD*%
G01*
G04 APERTURE LIST*
G04 Aperture macros list*
%AMRoundRect*
0 Rectangle with rounded corners*
0 $1 Rounding radius*
0 $2 $3 $4 $5 $6 $7 $8 $9 X,Y pos of 4 corners*
0 Add a 4 corners polygon primitive as box body*
4,1,4,$2,$3,$4,$5,$6,$7,$8,$9,$2,$3,0*
0 Add four circle primitives for the rounded corners*
1,1,$1+$1,$2,$3*
1,1,$1+$1,$4,$5*
1,1,$1+$1,$6,$7*
1,1,$1+$1,$8,$9*
0 Add four rect primitives between the rounded corners*
20,1,$1+$1,$2,$3,$4,$5,0*
20,1,$1+$1,$4,$5,$6,$7,0*
20,1,$1+$1,$6,$7,$8,$9,0*
20,1,$1+$1,$8,$9,$2,$3,0*%
%AMRotRect*
0 Rectangle, with rotation*
0 The origin of the aperture is its center*
0 $1 length*
0 $2 width*
0 $3 Rotation angle, in degrees counterclockwise*
0 Add horizontal line*
21,1,$1,$2,0,0,$3*%
G04 Aperture macros list end*
%TA.AperFunction,SMDPad,CuDef*%
%ADD10R,0.800000X0.500000*%
%TD*%
%TA.AperFunction,SMDPad,CuDef*%
%ADD11R,0.500000X0.980000*%
%TD*%
%TA.AperFunction,SMDPad,CuDef*%
%ADD12R,0.800000X0.300000*%
%TD*%
%TA.AperFunction,SMDPad,CuDef*%
%ADD13R,0.500000X1.460000*%
%TD*%
%TA.AperFunction,ComponentPad*%
%ADD14C,3.000000*%
%TD*%
%TA.AperFunction,SMDPad,CuDef*%
%ADD15C,1.000000*%
%TD*%
%TA.AperFunction,ComponentPad*%
%ADD16RoundRect,0.250000X-0.600000X0.600000X-0.600000X-0.600000X0.600000X-0.600000X0.600000X0.600000X0*%
%TD*%
%TA.AperFunction,ComponentPad*%
%ADD17C,1.700000*%
%TD*%
%TA.AperFunction,ComponentPad*%
%ADD18O,3.100000X6.000000*%
%TD*%
%TA.AperFunction,ComponentPad*%
%ADD19R,1.700000X1.700000*%
%TD*%
%TA.AperFunction,SMDPad,CuDef*%
%ADD20RoundRect,0.357142X1.142858X-0.642858X1.142858X0.642858X-1.142858X0.642858X-1.142858X-0.642858X0*%
%TD*%
%TA.AperFunction,SMDPad,CuDef*%
%ADD21RoundRect,0.357142X-1.142858X0.642858X-1.142858X-0.642858X1.142858X-0.642858X1.142858X0.642858X0*%
%TD*%
%TA.AperFunction,ComponentPad*%
%ADD22RotRect,1.700000X1.700000X355.000000*%
%TD*%
%TA.AperFunction,ComponentPad*%
%ADD23R,1.800000X1.800000*%
%TD*%
%TA.AperFunction,ComponentPad*%
%ADD24C,1.800000*%
%TD*%
%TA.AperFunction,ComponentPad*%
%ADD25C,1.500000*%
%TD*%
%TA.AperFunction,ComponentPad*%
%ADD26R,2.000000X1.905000*%
%TD*%
%TA.AperFunction,ComponentPad*%
%ADD27O,2.000000X1.905000*%
%TD*%
%TA.AperFunction,HeatsinkPad*%
%ADD28C,3.000000*%
%TD*%
%TA.AperFunction,ViaPad*%
%ADD29C,0.800000*%
%TD*%
%TA.AperFunction,ViaPad*%
%ADD30C,1.000000*%
%TD*%
%TA.AperFunction,Conductor*%
%ADD31C,1.000000*%
%TD*%
%TA.AperFunction,Conductor*%
%ADD32C,0.800000*%
%TD*%
%TA.AperFunction,Conductor*%
%ADD33C,0.250000*%
%TD*%
%TA.AperFunction,Conductor*%
%ADD34C,0.500000*%
%TD*%
%TA.AperFunction,Conductor*%
%ADD35C,2.500000*%
%TD*%
G04 APERTURE END LIST*
D10*
%TO.P,D2,1,VDD*%
%TO.N,+5V*%
X117690000Y-64400000D03*
D11*
X116840000Y-64340000D03*
D12*
%TO.P,D2,2,CKO*%
%TO.N,/D3ck*%
X117690000Y-63500000D03*
D10*
%TO.P,D2,3,SDO*%
%TO.N,/D3in*%
X117690000Y-62600000D03*
%TO.P,D2,4,SDI*%
%TO.N,/D2in*%
X115990000Y-62600000D03*
D12*
%TO.P,D2,5,CKI*%
%TO.N,/D2ck*%
X115990000Y-63500000D03*
D13*
%TO.P,D2,6,GND*%
%TO.N,GND*%
X116840000Y-62900000D03*
D10*
X115990000Y-64400000D03*
%TD*%
%TO.P,D1,1,VDD*%
%TO.N,+5V*%
X54190000Y-102500000D03*
D11*
X53340000Y-102440000D03*
D12*
%TO.P,D1,2,CKO*%
%TO.N,/D2ck*%
X54190000Y-101600000D03*
D10*
%TO.P,D1,3,SDO*%
%TO.N,/D2in*%
X54190000Y-100700000D03*
%TO.P,D1,4,SDI*%
%TO.N,/ls_MOSI*%
X52490000Y-100700000D03*
D12*
%TO.P,D1,5,CKI*%
%TO.N,/ls_SCLK*%
X52490000Y-101600000D03*
D13*
%TO.P,D1,6,GND*%
%TO.N,GND*%
X53340000Y-101000000D03*
D10*
X52490000Y-102500000D03*
%TD*%
D14*
%TO.P,lanyard1,*%
%TO.N,GND*%
X68580000Y-62230000D03*
%TD*%
D15*
%TO.P,fiducial2,*%
%TO.N,*%
X236220000Y-60960000D03*
%TD*%
D16*
%TO.P,J1,1,GPIO1*%
%TO.N,/GPIO1{slash}DC*%
X213360000Y-60960000D03*
D17*
%TO.P,J1,2,GPIO2*%
%TO.N,/GPIO2{slash}BUSY*%
X213360000Y-63500000D03*
%TO.P,J1,3,SDA*%
%TO.N,/SDA*%
X210820000Y-60960000D03*
%TO.P,J1,4,SCL*%
%TO.N,/SCL*%
X210820000Y-63500000D03*
%TO.P,J1,5,3V3*%
%TO.N,+3V3*%
X208280000Y-60960000D03*
%TO.P,J1,6,GND*%
%TO.N,GND*%
X208280000Y-63500000D03*
%TD*%
D18*
%TO.P,bb1,*%
%TO.N,GND*%
X187960000Y-63500000D03*
%TD*%
D16*
%TO.P,J1,1,GPIO1*%
%TO.N,/GPIO1{slash}DC*%
X109220000Y-60960000D03*
D17*
%TO.P,J1,2,GPIO2*%
%TO.N,/GPIO2{slash}BUSY*%
X109220000Y-63500000D03*
%TO.P,J1,3,SDA*%
%TO.N,/SDA*%
X106680000Y-60960000D03*
%TO.P,J1,4,SCL*%
%TO.N,/SCL*%
X106680000Y-63500000D03*
%TO.P,J1,5,3V3*%
%TO.N,+3V3*%
X104140000Y-60960000D03*
%TO.P,J1,6,GND*%
%TO.N,GND*%
X104140000Y-63500000D03*
%TD*%
D18*
%TO.P,bb2,*%
%TO.N,GND*%
X187960000Y-86360000D03*
%TD*%
D10*
%TO.P,D4,1,VDD*%
%TO.N,+5V*%
X160870000Y-105040000D03*
D11*
X160020000Y-104980000D03*
D12*
%TO.P,D4,2,CKO*%
%TO.N,/D5ck*%
X160870000Y-104140000D03*
D10*
%TO.P,D4,3,SDO*%
%TO.N,/D5in*%
X160870000Y-103240000D03*
%TO.P,D4,4,SDI*%
%TO.N,/D4in*%
X159170000Y-103240000D03*
D12*
%TO.P,D4,5,CKI*%
%TO.N,/D4ck*%
X159170000Y-104140000D03*
D13*
%TO.P,D4,6,GND*%
%TO.N,GND*%
X160020000Y-103540000D03*
D10*
X159170000Y-105040000D03*
%TD*%
D19*
%TO.P,U2,1,BUSY*%
%TO.N,/GPIO2{slash}BUSY*%
X137160000Y-102600000D03*
D17*
%TO.P,U2,2,~{RESET}*%
%TO.N,/LED{slash}RESET*%
X139700000Y-102600000D03*
%TO.P,U2,3,DATA/~{CMD}*%
%TO.N,/GPIO1{slash}DC*%
X142240000Y-102600000D03*
%TO.P,U2,4,~{CS}*%
%TO.N,/Vdark{slash}cs*%
X144780000Y-102600000D03*
%TO.P,U2,5,SCLK*%
%TO.N,/SCLK*%
X147320000Y-102600000D03*
%TO.P,U2,6,SDI/MOSI*%
%TO.N,/MOSI*%
X149860000Y-102600000D03*
%TO.P,U2,7,GND*%
%TO.N,GND*%
X152400000Y-102600000D03*
%TO.P,U2,8,VCC*%
%TO.N,/sw_+3V3*%
X154940000Y-102600000D03*
%TD*%
D10*
%TO.P,D5,1,VDD*%
%TO.N,+5V*%
X187574305Y-79642363D03*
D11*
X186724305Y-79582363D03*
D12*
%TO.P,D5,2,CKO*%
%TO.N,unconnected-(D5-CKO-Pad2)*%
X187574305Y-78742363D03*
D10*
%TO.P,D5,3,SDO*%
%TO.N,unconnected-(D5-SDO-Pad3)*%
X187574305Y-77842363D03*
%TO.P,D5,4,SDI*%
%TO.N,/D5in*%
X185874305Y-77842363D03*
D12*
%TO.P,D5,5,CKI*%
%TO.N,/D5ck*%
X185874305Y-78742363D03*
D13*
%TO.P,D5,6,GND*%
%TO.N,GND*%
X186724305Y-78142363D03*
D10*
X185874305Y-79642363D03*
%TD*%
D15*
%TO.P,fiducial1,*%
%TO.N,*%
X55880000Y-88900000D03*
%TD*%
D16*
%TO.P,J1,1,GPIO1*%
%TO.N,/GPIO1{slash}DC*%
X172720000Y-99060000D03*
D17*
%TO.P,J1,2,GPIO2*%
%TO.N,/GPIO2{slash}BUSY*%
X172720000Y-101600000D03*
%TO.P,J1,3,SDA*%
%TO.N,/SDA*%
X170180000Y-99060000D03*
%TO.P,J1,4,SCL*%
%TO.N,/SCL*%
X170180000Y-101600000D03*
%TO.P,J1,5,3V3*%
%TO.N,+3V3*%
X167640000Y-99060000D03*
%TO.P,J1,6,GND*%
%TO.N,GND*%
X167640000Y-101600000D03*
%TD*%
D18*
%TO.P,bb5,*%
%TO.N,GND*%
X134620000Y-86360000D03*
%TD*%
D20*
%TO.P,R9,1*%
%TO.N,/BAT+*%
X69679266Y-77600000D03*
%TO.P,R9,2*%
%TO.N,/Vmeasure*%
X69679266Y-72800000D03*
%TD*%
D18*
%TO.P,bb6,*%
%TO.N,GND*%
X134620000Y-63500000D03*
%TD*%
D14*
%TO.P,lanyard2,*%
%TO.N,GND*%
X228600000Y-62230000D03*
%TD*%
D21*
%TO.P,R10,1*%
%TO.N,/Vmeasure*%
X66169266Y-72800000D03*
%TO.P,R10,2*%
%TO.N,GND*%
X66169266Y-77600000D03*
%TD*%
D10*
%TO.P,D3,1,VDD*%
%TO.N,+5V*%
X127850000Y-74560000D03*
D11*
X127000000Y-74500000D03*
D12*
%TO.P,D3,2,CKO*%
%TO.N,/D4ck*%
X127850000Y-73660000D03*
D10*
%TO.P,D3,3,SDO*%
%TO.N,/D4in*%
X127850000Y-72760000D03*
%TO.P,D3,4,SDI*%
%TO.N,/D3in*%
X126150000Y-72760000D03*
D12*
%TO.P,D3,5,CKI*%
%TO.N,/D3ck*%
X126150000Y-73660000D03*
D13*
%TO.P,D3,6,GND*%
%TO.N,GND*%
X127000000Y-73060000D03*
D10*
X126150000Y-74560000D03*
%TD*%
D16*
%TO.P,J1,1,GPIO1*%
%TO.N,/GPIO1{slash}DC*%
X71120000Y-99060000D03*
D17*
%TO.P,J1,2,GPIO2*%
%TO.N,/GPIO2{slash}BUSY*%
X71120000Y-101600000D03*
%TO.P,J1,3,SDA*%
%TO.N,/SDA*%
X68580000Y-99060000D03*
%TO.P,J1,4,SCL*%
%TO.N,/SCL*%
X68580000Y-101600000D03*
%TO.P,J1,5,3V3*%
%TO.N,+3V3*%
X66040000Y-99060000D03*
%TO.P,J1,6,GND*%
%TO.N,GND*%
X66040000Y-101600000D03*
%TD*%
D22*
%TO.P,U2,1,BUSY*%
%TO.N,/GPIO2{slash}BUSY*%
X78200000Y-63476945D03*
D17*
%TO.P,U2,2,~{RESET}*%
%TO.N,/LED{slash}RESET*%
X80730336Y-63698321D03*
%TO.P,U2,3,DATA/~{CMD}*%
%TO.N,/GPIO1{slash}DC*%
X83260669Y-63919696D03*
%TO.P,U2,4,~{CS}*%
%TO.N,/Vdark{slash}cs*%
X85791004Y-64141072D03*
%TO.P,U2,5,SCLK*%
%TO.N,/SCLK*%
X88321338Y-64362447D03*
%TO.P,U2,6,SDI/MOSI*%
%TO.N,/MOSI*%
X90851673Y-64583823D03*
%TO.P,U2,7,GND*%
%TO.N,GND*%
X93382007Y-64805199D03*
%TO.P,U2,8,VCC*%
%TO.N,/sw_+3V3*%
X95912342Y-65026574D03*
%TD*%
D23*
%TO.P,D6,1,K*%
%TO.N,Net-(D6-K)*%
X117000000Y-88975000D03*
D24*
%TO.P,D6,2,A*%
%TO.N,Net-(D6-A)*%
X117000000Y-86435000D03*
%TD*%
D25*
%TO.P,R2,1*%
%TO.N,/Vdark{slash}cs*%
X131980000Y-62200000D03*
%TO.P,R2,2*%
%TO.N,GND*%
X128580000Y-62200000D03*
%TD*%
D26*
%TO.P,U3,1,OUT*%
%TO.N,+5V*%
X107400000Y-87980000D03*
D27*
%TO.P,U3,2,GND*%
%TO.N,GND*%
X107400000Y-85440000D03*
%TO.P,U3,3,IN*%
%TO.N,Net-(SW3A-B)*%
X107400000Y-82900000D03*
%TD*%
D14*
%TO.P,U1,15,BAT+*%
%TO.N,/BAT+*%
X69679266Y-79714877D03*
%TO.P,U1,16,BAT-*%
%TO.N,GND*%
X66169266Y-79714877D03*
D28*
%TO.P,U1,thermal,GND*%
X70470010Y-86659629D03*
%TD*%
D29*
%TO.N,+3V3*%
X96300000Y-84000000D03*
D30*
X66040000Y-86300000D03*
D29*
%TO.N,GND*%
X91100000Y-71100000D03*
X61400000Y-81280000D03*
X121000000Y-68850000D03*
X206500000Y-69400000D03*
X75700000Y-70300000D03*
X100800000Y-71100000D03*
X95970000Y-71100000D03*
X125969647Y-74700000D03*
X97200000Y-71100000D03*
X215900000Y-71120000D03*
X88100000Y-70400000D03*
X81280000Y-105000000D03*
X158700000Y-105200000D03*
X99600000Y-71100000D03*
X116200000Y-67067500D03*
X170180000Y-81100000D03*
X198800000Y-68400000D03*
X119400000Y-78740000D03*
X170180000Y-78900000D03*
X81100000Y-87600000D03*
X121900000Y-65700000D03*
X128600000Y-69400000D03*
X73400000Y-65500000D03*
X79600000Y-60800000D03*
X170180000Y-59960000D03*
X170180000Y-70120000D03*
X52390000Y-102600000D03*
X79400000Y-86100000D03*
X183400000Y-87700000D03*
X172600000Y-97200000D03*
X152400000Y-70120000D03*
X50800000Y-105000000D03*
X208280000Y-71120000D03*
X116200000Y-78740000D03*
X170180000Y-76200000D03*
X132080000Y-91440000D03*
X89200000Y-92600000D03*
X86700000Y-80300000D03*
X96600000Y-70400000D03*
X97800000Y-70400000D03*
X81900000Y-96800000D03*
X121360000Y-60510000D03*
X86900000Y-70400000D03*
X86300000Y-71100000D03*
X91300000Y-85400000D03*
X113500000Y-88100000D03*
X128700000Y-78740000D03*
X53340000Y-91440000D03*
X185874305Y-79742363D03*
X99000000Y-70400000D03*
X165300000Y-105000000D03*
X177800000Y-105000000D03*
X71120000Y-60960000D03*
X72922653Y-102100000D03*
X63500000Y-68580000D03*
X123950000Y-88940000D03*
X100200000Y-70400000D03*
X137160000Y-59960000D03*
X92900000Y-70400000D03*
X226060000Y-60960000D03*
X88700000Y-71100000D03*
X111760000Y-63500000D03*
X185420000Y-76200000D03*
X66040000Y-63500000D03*
X185420000Y-70120000D03*
X184900000Y-91500000D03*
X98400000Y-71100000D03*
X72900000Y-99400000D03*
X152200000Y-91686092D03*
X92300000Y-71100000D03*
X66000000Y-103800000D03*
X91700000Y-70400000D03*
X55900000Y-99700000D03*
X87500000Y-71100000D03*
X152400000Y-59960000D03*
X152400000Y-76200000D03*
X170180000Y-83580000D03*
X82000000Y-81700000D03*
X75200000Y-81900000D03*
X137160000Y-70120000D03*
X50800000Y-99060000D03*
X111120000Y-61000000D03*
X185420000Y-59960000D03*
X220980000Y-66040000D03*
X109950000Y-78740000D03*
X115890000Y-64550000D03*
X93500000Y-71100000D03*
%TO.N,/SCL*%
X74600000Y-71800000D03*
X198500000Y-73000000D03*
X171545000Y-90800000D03*
X151300000Y-85800000D03*
%TO.N,/SDA*%
X72100000Y-70300000D03*
X172400000Y-88500000D03*
X197600000Y-78700000D03*
X152500000Y-83700000D03*
%TO.N,/MOSI*%
X69200490Y-97200000D03*
X76200000Y-98100000D03*
%TO.N,+5V*%
X54340000Y-102600000D03*
X187574305Y-79742363D03*
X128050000Y-74700000D03*
X87350000Y-81650000D03*
X111400000Y-94700000D03*
X164371590Y-99100000D03*
X161350000Y-105140000D03*
X117790000Y-64550000D03*
X154000000Y-99100000D03*
%TO.N,/SCLK*%
X81100000Y-80500000D03*
X74300000Y-99400000D03*
X91800000Y-76300000D03*
%TO.N,/LED{slash}RESET*%
X93600000Y-77400000D03*
X76800000Y-79900000D03*
D30*
%TO.N,/BAT+*%
X111100000Y-71400000D03*
D29*
%TO.N,/GPIO2{slash}BUSY*%
X176780500Y-92580500D03*
%TO.N,/GPIO1{slash}DC*%
X174300000Y-96200000D03*
%TO.N,/Vmeasure*%
X66660490Y-73500000D03*
%TO.N,/sw_+3V3*%
X137100000Y-104050002D03*
X105800000Y-67200000D03*
%TO.N,/ls_MOSI*%
X90000000Y-88300000D03*
%TO.N,/ls_SCLK*%
X86400000Y-88500000D03*
%TO.N,/D2ck*%
X58400000Y-101600000D03*
%TO.N,/D2in*%
X58100000Y-99000000D03*
%TO.N,/D3ck*%
X123450000Y-68850000D03*
%TO.N,/D3in*%
X123500000Y-65700000D03*
%TO.N,/D4ck*%
X134200000Y-79100000D03*
%TO.N,/D4in*%
X134250000Y-76550000D03*
%TO.N,/D5ck*%
X182800000Y-80000000D03*
%TO.N,/D5in*%
X182857637Y-77842363D03*
%TO.N,Net-(D6-A)*%
X87800000Y-79400000D03*
X111100000Y-85250000D03*
%TO.N,/Vbutton*%
X110000000Y-66040000D03*
X79000000Y-70400000D03*
%TO.N,/Vdark{slash}cs*%
X111200000Y-67900000D03*
X69900000Y-75500000D03*
X92400000Y-96500000D03*
X90100000Y-69600000D03*
X145200000Y-96900000D03*
%TD*%
D31*
%TO.N,+3V3*%
X66040000Y-85260000D02*
X66040000Y-86300000D01*
X73900000Y-84000000D02*
X73200000Y-83300000D01*
X68000000Y-83300000D02*
X66040000Y-85260000D01*
D32*
X188900000Y-80300000D02*
X188900000Y-76400000D01*
X188900000Y-76400000D02*
X204340000Y-60960000D01*
D31*
X96300000Y-84000000D02*
X73900000Y-84000000D01*
D32*
X170300000Y-86200000D02*
X183000000Y-86200000D01*
D31*
X73200000Y-83300000D02*
X68000000Y-83300000D01*
D32*
X183000000Y-86200000D02*
X188900000Y-80300000D01*
X167640000Y-99060000D02*
X167640000Y-88860000D01*
X204340000Y-60960000D02*
X208280000Y-60960000D01*
X167640000Y-88860000D02*
X170300000Y-86200000D01*
D33*
%TO.N,GND*%
X186724305Y-78152363D02*
X186724305Y-77504305D01*
X127000000Y-73070000D02*
X127000000Y-71120000D01*
X113200000Y-61900000D02*
X113000000Y-62100000D01*
X181500000Y-80900000D02*
X184300000Y-80900000D01*
X53561396Y-99975000D02*
X53340000Y-100196396D01*
D31*
X71682497Y-85417503D02*
X69200000Y-87900000D01*
D33*
X116800000Y-61900000D02*
X113200000Y-61900000D01*
X111120000Y-61000000D02*
X111610000Y-60510000D01*
X111610000Y-60510000D02*
X123810000Y-60510000D01*
D31*
X71799999Y-87800000D02*
X73500000Y-87800000D01*
D33*
X122205000Y-61900000D02*
X116800000Y-61900000D01*
D31*
X69200000Y-87900000D02*
X67400000Y-87900000D01*
D33*
X115750000Y-66617500D02*
X116200000Y-67067500D01*
X116840000Y-61940000D02*
X116800000Y-61900000D01*
X72900000Y-76300000D02*
X72825000Y-76225000D01*
X184300000Y-80900000D02*
X185700000Y-79500000D01*
X53340000Y-100196396D02*
X53340000Y-101000000D01*
D31*
X69417502Y-85417503D02*
X71799999Y-87800000D01*
D33*
X69574695Y-76200000D02*
X64400000Y-76200000D01*
D31*
X93382007Y-65442007D02*
X93382007Y-65005199D01*
D34*
X166200000Y-100600000D02*
X168500000Y-100600000D01*
D33*
X55900000Y-99700000D02*
X55625000Y-99975000D01*
X111120000Y-61000000D02*
X111490000Y-61000000D01*
D34*
X168600000Y-100700000D02*
X168600000Y-102700000D01*
X168500000Y-100600000D02*
X168600000Y-100700000D01*
D33*
X69599695Y-76225000D02*
X69574695Y-76200000D01*
X208500000Y-64800000D02*
X208900000Y-64400000D01*
X186149305Y-79850695D02*
X184600000Y-81400000D01*
X206800000Y-62900000D02*
X208300000Y-62900000D01*
X208900000Y-64400000D02*
X208900000Y-63800000D01*
D31*
X208280000Y-63500000D02*
X207500000Y-64280000D01*
D33*
X159170000Y-105040000D02*
X159170000Y-105770000D01*
X115990000Y-64400000D02*
X115750000Y-64640000D01*
X123810000Y-60510000D02*
X123900000Y-60600000D01*
X206000000Y-64800000D02*
X208500000Y-64800000D01*
X111490000Y-61000000D02*
X111890000Y-60600000D01*
X206800000Y-62900000D02*
X205500000Y-64200000D01*
X55625000Y-99975000D02*
X53561396Y-99975000D01*
X122210000Y-61910000D02*
X122300000Y-62000000D01*
X72825000Y-76225000D02*
X69599695Y-76225000D01*
X115750000Y-64640000D02*
X115750000Y-66617500D01*
X116840000Y-62900000D02*
X116840000Y-61940000D01*
X160020000Y-103550000D02*
X160020000Y-91680000D01*
D35*
X66169266Y-78100000D02*
X66169266Y-79714877D01*
D33*
X186724305Y-77504305D02*
X185420000Y-76200000D01*
%TO.N,/SCL*%
X105480000Y-62300000D02*
X106680000Y-63500000D01*
X108045000Y-62135000D02*
X106680000Y-63500000D01*
X74600000Y-63600000D02*
X76475000Y-61725000D01*
X76475000Y-61725000D02*
X89425000Y-61725000D01*
X89425000Y-61725000D02*
X90000000Y-62300000D01*
X186400000Y-91400000D02*
X189500000Y-91400000D01*
X122700000Y-61300000D02*
X112700000Y-61300000D01*
X206300000Y-65500000D02*
X208820000Y-65500000D01*
X171845000Y-90500000D02*
X185500000Y-90500000D01*
X208820000Y-65500000D02*
X210820000Y-63500000D01*
X200000000Y-80900000D02*
X200000000Y-74500000D01*
X135600000Y-74200000D02*
X122700000Y-61300000D01*
X90000000Y-62300000D02*
X105480000Y-62300000D01*
X200000000Y-74500000D02*
X198500000Y-73000000D01*
X171545000Y-90800000D02*
X171845000Y-90500000D01*
X198500000Y-73000000D02*
X198800000Y-73000000D01*
X189500000Y-91400000D02*
X200000000Y-80900000D01*
X111865000Y-62135000D02*
X108045000Y-62135000D01*
X139700000Y-74200000D02*
X135600000Y-74200000D01*
X171545000Y-90800000D02*
X171545000Y-100235000D01*
X151300000Y-85800000D02*
X139700000Y-74200000D01*
X112700000Y-61300000D02*
X111865000Y-62135000D01*
X74600000Y-71800000D02*
X74600000Y-63600000D01*
X171545000Y-100235000D02*
X170180000Y-101600000D01*
X198800000Y-73000000D02*
X206300000Y-65500000D01*
X185500000Y-90500000D02*
X186400000Y-91400000D01*
%TO.N,/SDA*%
X196500000Y-72300000D02*
X206475000Y-62325000D01*
X136300000Y-71900000D02*
X124185000Y-59785000D01*
X152500000Y-83700000D02*
X140700000Y-71900000D01*
X197600000Y-80877307D02*
X188738307Y-89739000D01*
X169600000Y-98480000D02*
X170180000Y-99060000D01*
X124185000Y-59785000D02*
X107855000Y-59785000D01*
X105505000Y-59785000D02*
X106680000Y-60960000D01*
X197600000Y-78700000D02*
X197600000Y-75000000D01*
X172700000Y-88800000D02*
X172400000Y-88500000D01*
X206475000Y-62325000D02*
X209455000Y-62325000D01*
X107855000Y-59785000D02*
X106680000Y-60960000D01*
X197600000Y-75000000D02*
X196500000Y-73900000D01*
X72100000Y-62800000D02*
X75115000Y-59785000D01*
X172400000Y-88500000D02*
X172100000Y-88800000D01*
X186242693Y-88800000D02*
X172700000Y-88800000D01*
X170600000Y-88800000D02*
X169600000Y-89800000D01*
X172100000Y-88800000D02*
X170600000Y-88800000D01*
X209455000Y-62325000D02*
X210820000Y-60960000D01*
X140700000Y-71900000D02*
X136300000Y-71900000D01*
X188738307Y-89739000D02*
X187181693Y-89739000D01*
X187181693Y-89739000D02*
X186242693Y-88800000D01*
X196500000Y-73900000D02*
X196500000Y-72300000D01*
X197600000Y-78700000D02*
X197600000Y-80877307D01*
X169600000Y-89800000D02*
X169600000Y-98480000D01*
X75115000Y-59785000D02*
X105505000Y-59785000D01*
X72100000Y-70300000D02*
X72100000Y-62800000D01*
%TO.N,/MOSI*%
X74600000Y-96900000D02*
X75800000Y-98100000D01*
X76200000Y-98100000D02*
X76400000Y-98300000D01*
X149860000Y-101860000D02*
X149860000Y-102600000D01*
X142500000Y-98300000D02*
X142900000Y-98700000D01*
X75800000Y-98100000D02*
X76200000Y-98100000D01*
X146700000Y-98700000D02*
X149860000Y-101860000D01*
X142900000Y-98700000D02*
X146700000Y-98700000D01*
X69200490Y-97200000D02*
X69500490Y-96900000D01*
X69500490Y-96900000D02*
X74600000Y-96900000D01*
X76400000Y-98300000D02*
X142500000Y-98300000D01*
D34*
%TO.N,+5V*%
X160140000Y-105100000D02*
X160790000Y-105100000D01*
X60300000Y-102600000D02*
X54340000Y-102600000D01*
X127000000Y-77640000D02*
X127000000Y-74490000D01*
X54170000Y-102430000D02*
X54340000Y-102600000D01*
X117350000Y-81790000D02*
X117350000Y-64850000D01*
X120100000Y-84540000D02*
X127000000Y-77640000D01*
X161230000Y-104970000D02*
X160020000Y-104970000D01*
X67700000Y-95200000D02*
X60300000Y-102600000D01*
D31*
X97250000Y-81650000D02*
X103580000Y-87980000D01*
X120100000Y-84540000D02*
X120100000Y-94700000D01*
D34*
X184816668Y-82400000D02*
X169600000Y-82400000D01*
X127780000Y-74490000D02*
X127950000Y-74660000D01*
X169600000Y-82400000D02*
X164400000Y-87600000D01*
X187574305Y-79642363D02*
X187514305Y-79582363D01*
X164400000Y-103300000D02*
X162560000Y-105140000D01*
X111100000Y-95000000D02*
X94000000Y-95000000D01*
X127010000Y-74600000D02*
X127790000Y-74600000D01*
X94000000Y-95000000D02*
X93400000Y-94400000D01*
X161400000Y-105140000D02*
X161230000Y-104970000D01*
X117350000Y-64850000D02*
X116840000Y-64340000D01*
X120100000Y-84540000D02*
X117350000Y-81790000D01*
X164400000Y-87600000D02*
X164400000Y-103300000D01*
X117690000Y-64400000D02*
X116910000Y-64400000D01*
X162560000Y-105140000D02*
X161400000Y-105140000D01*
X187574305Y-79642363D02*
X184816668Y-82400000D01*
X53340000Y-102430000D02*
X54170000Y-102430000D01*
X116910000Y-64400000D02*
X116840000Y-64330000D01*
X111400000Y-94700000D02*
X111100000Y-95000000D01*
D31*
X149600000Y-94700000D02*
X154000000Y-99100000D01*
D34*
X187514305Y-79582363D02*
X186724305Y-79582363D01*
D31*
X87350000Y-81650000D02*
X97250000Y-81650000D01*
D34*
X187595000Y-79700000D02*
X186805000Y-79700000D01*
X90500000Y-95200000D02*
X67700000Y-95200000D01*
X53385000Y-102600000D02*
X54215000Y-102600000D01*
X127000000Y-74490000D02*
X127780000Y-74490000D01*
D31*
X103580000Y-87980000D02*
X107400000Y-87980000D01*
X111400000Y-94700000D02*
X149600000Y-94700000D01*
D34*
X93400000Y-94400000D02*
X91300000Y-94400000D01*
X91300000Y-94400000D02*
X90500000Y-95200000D01*
D33*
%TO.N,/SCLK*%
X147320000Y-101920000D02*
X147320000Y-102600000D01*
X85300000Y-76300000D02*
X81100000Y-80500000D01*
X91800000Y-76300000D02*
X85300000Y-76300000D01*
X74300000Y-99400000D02*
X74800000Y-99900000D01*
X142200000Y-100300000D02*
X145700000Y-100300000D01*
X141800000Y-99900000D02*
X142200000Y-100300000D01*
X74800000Y-99900000D02*
X141800000Y-99900000D01*
X145700000Y-100300000D02*
X147320000Y-101920000D01*
%TO.N,/LED{slash}RESET*%
X92800000Y-74500000D02*
X83500000Y-74500000D01*
X78100000Y-79900000D02*
X76800000Y-79900000D01*
X93600000Y-75300000D02*
X92800000Y-74500000D01*
X83500000Y-74500000D02*
X78100000Y-79900000D01*
X93600000Y-77400000D02*
X93600000Y-75300000D01*
D31*
%TO.N,/BAT+*%
X77500000Y-77600000D02*
X69679266Y-77600000D01*
X110000000Y-72500000D02*
X82600000Y-72500000D01*
X111100000Y-71400000D02*
X110000000Y-72500000D01*
D35*
X69679266Y-78100000D02*
X69679266Y-79714877D01*
D31*
X82600000Y-72500000D02*
X77500000Y-77600000D01*
D33*
%TO.N,/GPIO2{slash}BUSY*%
X176780500Y-92580500D02*
X176961000Y-92761000D01*
X72620000Y-103100000D02*
X71120000Y-101600000D01*
X176961000Y-92761000D02*
X176961000Y-97359000D01*
X136660000Y-103100000D02*
X72620000Y-103100000D01*
X176961000Y-97359000D02*
X172720000Y-101600000D01*
%TO.N,/GPIO1{slash}DC*%
X174300000Y-96200000D02*
X174300000Y-97480000D01*
X141065000Y-101425000D02*
X73485000Y-101425000D01*
X174300000Y-97480000D02*
X172720000Y-99060000D01*
X73485000Y-101425000D02*
X71120000Y-99060000D01*
X142240000Y-102600000D02*
X141065000Y-101425000D01*
%TO.N,/Vmeasure*%
X66169266Y-72800000D02*
X69679266Y-72800000D01*
D32*
%TO.N,/sw_+3V3*%
X105800000Y-67200000D02*
X103920000Y-67200000D01*
X137100000Y-104050002D02*
X137100002Y-104050000D01*
X103920000Y-67200000D02*
X101720000Y-65000000D01*
X101720000Y-65000000D02*
X95938916Y-65000000D01*
X153490000Y-104050000D02*
X154940000Y-102600000D01*
X95938916Y-65000000D02*
X95912342Y-65026574D01*
X137100002Y-104050000D02*
X153490000Y-104050000D01*
D33*
%TO.N,/ls_MOSI*%
X90000000Y-88300000D02*
X89900000Y-88300000D01*
X64000000Y-90300000D02*
X54775000Y-99525000D01*
X53375000Y-99525000D02*
X52490000Y-100410000D01*
X54775000Y-99525000D02*
X53375000Y-99525000D01*
X87900000Y-90300000D02*
X64000000Y-90300000D01*
X89900000Y-88300000D02*
X87900000Y-90300000D01*
X52490000Y-100410000D02*
X52490000Y-100700000D01*
%TO.N,/ls_SCLK*%
X86400000Y-88500000D02*
X86175000Y-88725000D01*
X51765000Y-101125000D02*
X52240000Y-101600000D01*
X51765000Y-99698299D02*
X51765000Y-101125000D01*
X86175000Y-88725000D02*
X62738299Y-88725000D01*
X62738299Y-88725000D02*
X51765000Y-99698299D01*
%TO.N,/D2ck*%
X54190000Y-101600000D02*
X58420000Y-101600000D01*
X115700000Y-63500000D02*
X115990000Y-63500000D01*
X90500000Y-92700000D02*
X110500000Y-92700000D01*
X58420000Y-101600000D02*
X66520000Y-93500000D01*
X89700000Y-93500000D02*
X90500000Y-92700000D01*
X110500000Y-92700000D02*
X114600000Y-88600000D01*
X66520000Y-93500000D02*
X89700000Y-93500000D01*
X114600000Y-88600000D02*
X114600000Y-64600000D01*
X114600000Y-64600000D02*
X115700000Y-63500000D01*
%TO.N,/D2in*%
X88500000Y-91900000D02*
X89300000Y-91100000D01*
X65200000Y-91900000D02*
X88500000Y-91900000D01*
X54465000Y-100425000D02*
X56675000Y-100425000D01*
X113000000Y-63800000D02*
X114200000Y-62600000D01*
X89300000Y-91100000D02*
X109000000Y-91100000D01*
X54190000Y-100700000D02*
X54465000Y-100425000D01*
X56675000Y-100425000D02*
X58100000Y-99000000D01*
X58100000Y-99000000D02*
X65200000Y-91900000D01*
X113000000Y-87100000D02*
X113000000Y-63800000D01*
X109000000Y-91100000D02*
X113000000Y-87100000D01*
X114200000Y-62600000D02*
X115990000Y-62600000D01*
%TO.N,/D3ck*%
X124660000Y-73660000D02*
X126050000Y-73660000D01*
X123450000Y-68850000D02*
X118100000Y-63500000D01*
X118100000Y-63500000D02*
X117790000Y-63500000D01*
X123450000Y-68850000D02*
X123450000Y-72450000D01*
X123450000Y-72450000D02*
X124660000Y-73660000D01*
%TO.N,/D3in*%
X120400000Y-62600000D02*
X126050000Y-68250000D01*
X117690000Y-62600000D02*
X120400000Y-62600000D01*
X126050000Y-68250000D02*
X126050000Y-72660000D01*
%TO.N,/D4ck*%
X133700000Y-79100000D02*
X137900000Y-79100000D01*
X157600000Y-103600000D02*
X158140000Y-104140000D01*
X127850000Y-73660000D02*
X128260000Y-73660000D01*
X137900000Y-79100000D02*
X157600000Y-98800000D01*
X158140000Y-104140000D02*
X159170000Y-104140000D01*
X157600000Y-98800000D02*
X157600000Y-103600000D01*
X128260000Y-73660000D02*
X133700000Y-79100000D01*
%TO.N,/D4in*%
X138650000Y-76550000D02*
X159300000Y-97200000D01*
X127850000Y-72760000D02*
X130460000Y-72760000D01*
X159300000Y-97200000D02*
X159300000Y-102910000D01*
X159300000Y-102910000D02*
X159070000Y-103140000D01*
X134250000Y-76550000D02*
X138650000Y-76550000D01*
X130460000Y-72760000D02*
X134250000Y-76550000D01*
%TO.N,/D5ck*%
X162500000Y-86900000D02*
X162500000Y-103400000D01*
X169400000Y-80000000D02*
X162500000Y-86900000D01*
X184200000Y-80000000D02*
X185457637Y-78742363D01*
X182800000Y-80000000D02*
X184200000Y-80000000D01*
X162500000Y-103400000D02*
X161760000Y-104140000D01*
X182800000Y-80000000D02*
X169400000Y-80000000D01*
X161760000Y-104140000D02*
X160870000Y-104140000D01*
X185457637Y-78742363D02*
X185874305Y-78742363D01*
%TO.N,/D5in*%
X182857637Y-77842363D02*
X185874305Y-77842363D01*
X160800000Y-86200000D02*
X160800000Y-102970000D01*
X182857637Y-77842363D02*
X169157637Y-77842363D01*
X160800000Y-102970000D02*
X160970000Y-103140000D01*
X169157637Y-77842363D02*
X160800000Y-86200000D01*
D34*
%TO.N,Net-(D6-A)*%
X108000000Y-79400000D02*
X111100000Y-82500000D01*
X111100000Y-82500000D02*
X111100000Y-85250000D01*
X87800000Y-79400000D02*
X108000000Y-79400000D01*
D33*
%TO.N,/Vbutton*%
X110000000Y-66500000D02*
X110000000Y-66040000D01*
X107500000Y-69000000D02*
X110000000Y-66500000D01*
X81600000Y-67800000D02*
X101800000Y-67800000D01*
X101800000Y-67800000D02*
X103000000Y-69000000D01*
X103000000Y-69000000D02*
X107500000Y-69000000D01*
X79000000Y-70400000D02*
X81600000Y-67800000D01*
%TO.N,/Vdark{slash}cs*%
X102200000Y-70600000D02*
X109200000Y-70600000D01*
X84400000Y-66200000D02*
X78900000Y-66200000D01*
X78900000Y-66200000D02*
X76800000Y-68300000D01*
X90100000Y-69600000D02*
X90300000Y-69400000D01*
X101000000Y-69400000D02*
X102200000Y-70600000D01*
X76800000Y-73600000D02*
X73400000Y-73600000D01*
X109200000Y-70600000D02*
X111200000Y-68600000D01*
X71500000Y-75500000D02*
X69900000Y-75500000D01*
X90100000Y-69600000D02*
X89900000Y-69400000D01*
X73400000Y-73600000D02*
X71500000Y-75500000D01*
X111200000Y-68600000D02*
X111200000Y-67900000D01*
X90300000Y-69400000D02*
X101000000Y-69400000D01*
X85791004Y-64808996D02*
X84400000Y-66200000D01*
X85791004Y-64141072D02*
X85791004Y-64808996D01*
X145000000Y-96700000D02*
X145200000Y-96900000D01*
X82800000Y-69400000D02*
X78600000Y-73600000D01*
X89900000Y-69400000D02*
X82800000Y-69400000D01*
X92600000Y-96700000D02*
X145000000Y-96700000D01*
X92400000Y-96500000D02*
X92600000Y-96700000D01*
X76800000Y-68300000D02*
X76800000Y-73600000D01*
X78600000Y-73600000D02*
X76800000Y-73600000D01*
%TD*%
%TA.AperFunction,Conductor*%
%TO.N,GND*%
G36*
X185207292Y-79992778D02*
G01*
X185264128Y-80035325D01*
X185268025Y-80040832D01*
X185291180Y-80075487D01*
X185375198Y-80131625D01*
X185375199Y-80131626D01*
X185449285Y-80146362D01*
X185693432Y-80146362D01*
X185761553Y-80166364D01*
X185808046Y-80220019D01*
X185818151Y-80290293D01*
X185788658Y-80354874D01*
X185782529Y-80361457D01*
X184539390Y-81604596D01*
X184477080Y-81638620D01*
X184450297Y-81641500D01*
X169525290Y-81641500D01*
X169378753Y-81670649D01*
X169378750Y-81670650D01*
X169240716Y-81727826D01*
X169116486Y-81810833D01*
X169116480Y-81810838D01*
X163810838Y-87116480D01*
X163810833Y-87116486D01*
X163727826Y-87240716D01*
X163670651Y-87378747D01*
X163670649Y-87378752D01*
X163658381Y-87440429D01*
X163641500Y-87525290D01*
X163641500Y-98513793D01*
X163624619Y-98576793D01*
X163537066Y-98728438D01*
X163537063Y-98728445D01*
X163478047Y-98910072D01*
X163458086Y-99100000D01*
X163478047Y-99289927D01*
X163504197Y-99370405D01*
X163537063Y-99471556D01*
X163604172Y-99587792D01*
X163624619Y-99623207D01*
X163641500Y-99686207D01*
X163641500Y-102933627D01*
X163621498Y-103001748D01*
X163604595Y-103022722D01*
X163348595Y-103278722D01*
X163286283Y-103312748D01*
X163215468Y-103307683D01*
X163158632Y-103265136D01*
X163133821Y-103198616D01*
X163133500Y-103189627D01*
X163133500Y-87214594D01*
X163153502Y-87146473D01*
X163170405Y-87125499D01*
X169625500Y-80670405D01*
X169687812Y-80636379D01*
X169714595Y-80633500D01*
X182091800Y-80633500D01*
X182159921Y-80653502D01*
X182185437Y-80675190D01*
X182188747Y-80678866D01*
X182343248Y-80791118D01*
X182517712Y-80868794D01*
X182704513Y-80908500D01*
X182895487Y-80908500D01*
X183082288Y-80868794D01*
X183256752Y-80791118D01*
X183411253Y-80678866D01*
X183414563Y-80675190D01*
X183475009Y-80637950D01*
X183508200Y-80633500D01*
X184262393Y-80633500D01*
X184262394Y-80633500D01*
X184384785Y-80609155D01*
X184500075Y-80561400D01*
X184603833Y-80492071D01*
X185074166Y-80021737D01*
X185136477Y-79987714D01*
X185207292Y-79992778D01*
G37*
%TD.AperFunction*%
%TA.AperFunction,Conductor*%
G36*
X182217558Y-78495865D02*
G01*
X182243074Y-78517553D01*
X182246384Y-78521229D01*
X182400885Y-78633481D01*
X182575349Y-78711157D01*
X182762150Y-78750863D01*
X182953124Y-78750863D01*
X183139925Y-78711157D01*
X183314389Y-78633481D01*
X183468890Y-78521229D01*
X183472200Y-78517553D01*
X183532646Y-78480313D01*
X183565837Y-78475863D01*
X184524043Y-78475863D01*
X184592164Y-78495865D01*
X184638657Y-78549521D01*
X184648761Y-78619795D01*
X184619267Y-78684375D01*
X184613138Y-78690958D01*
X183974501Y-79329595D01*
X183912189Y-79363621D01*
X183885406Y-79366500D01*
X183508200Y-79366500D01*
X183440079Y-79346498D01*
X183414563Y-79324810D01*
X183411252Y-79321133D01*
X183256752Y-79208882D01*
X183082288Y-79131206D01*
X182895487Y-79091500D01*
X182704513Y-79091500D01*
X182517711Y-79131206D01*
X182343247Y-79208882D01*
X182188747Y-79321133D01*
X182185437Y-79324810D01*
X182124991Y-79362050D01*
X182091800Y-79366500D01*
X169337603Y-79366500D01*
X169215214Y-79390845D01*
X169215213Y-79390845D01*
X169193113Y-79400000D01*
X169191030Y-79400863D01*
X169099923Y-79438600D01*
X168996171Y-79507925D01*
X168996164Y-79507930D01*
X162096167Y-86407929D01*
X162007931Y-86496164D01*
X162007926Y-86496171D01*
X161938601Y-86599923D01*
X161911961Y-86664238D01*
X161890845Y-86715215D01*
X161886426Y-86737430D01*
X161866500Y-86837603D01*
X161866500Y-102559740D01*
X161846498Y-102627861D01*
X161792842Y-102674354D01*
X161722568Y-102684458D01*
X161657988Y-102654964D01*
X161639632Y-102635250D01*
X161633261Y-102626739D01*
X161633259Y-102626738D01*
X161633259Y-102626737D01*
X161519140Y-102541309D01*
X161516204Y-102539111D01*
X161516203Y-102539110D01*
X161516201Y-102539109D01*
X161515460Y-102538833D01*
X161514824Y-102538357D01*
X161508292Y-102534790D01*
X161508805Y-102533850D01*
X161458627Y-102496283D01*
X161433820Y-102429761D01*
X161433500Y-102420780D01*
X161433500Y-86514594D01*
X161453502Y-86446473D01*
X161470405Y-86425499D01*
X169383137Y-78512768D01*
X169445449Y-78478742D01*
X169472232Y-78475863D01*
X182149437Y-78475863D01*
X182217558Y-78495865D01*
G37*
%TD.AperFunction*%
%TA.AperFunction,Conductor*%
G36*
X130213527Y-73413502D02*
G01*
X130234501Y-73430405D01*
X133302877Y-76498781D01*
X133336903Y-76561093D01*
X133339092Y-76574705D01*
X133356457Y-76739927D01*
X133368280Y-76776313D01*
X133415473Y-76921556D01*
X133424031Y-76936379D01*
X133510958Y-77086941D01*
X133510965Y-77086951D01*
X133638744Y-77228864D01*
X133663972Y-77247193D01*
X133793248Y-77341118D01*
X133967712Y-77418794D01*
X134154513Y-77458500D01*
X134345487Y-77458500D01*
X134532288Y-77418794D01*
X134706752Y-77341118D01*
X134861253Y-77228866D01*
X134864563Y-77225190D01*
X134925009Y-77187950D01*
X134958200Y-77183500D01*
X138335406Y-77183500D01*
X138403527Y-77203502D01*
X138424501Y-77220405D01*
X158629595Y-97425499D01*
X158663621Y-97487811D01*
X158666500Y-97514594D01*
X158666500Y-102398401D01*
X158646498Y-102466522D01*
X158592842Y-102513015D01*
X158584534Y-102516456D01*
X158523795Y-102539111D01*
X158523792Y-102539113D01*
X158435009Y-102605575D01*
X158368488Y-102630386D01*
X158299114Y-102615294D01*
X158248912Y-102565092D01*
X158233500Y-102504707D01*
X158233500Y-98737607D01*
X158233499Y-98737603D01*
X158209155Y-98615215D01*
X158161400Y-98499925D01*
X158092071Y-98396167D01*
X158003833Y-98307929D01*
X138303833Y-78607929D01*
X138200075Y-78538600D01*
X138084785Y-78490845D01*
X138009465Y-78475863D01*
X137962396Y-78466500D01*
X137962394Y-78466500D01*
X134908200Y-78466500D01*
X134840079Y-78446498D01*
X134814563Y-78424810D01*
X134811252Y-78421133D01*
X134656752Y-78308882D01*
X134482288Y-78231206D01*
X134295487Y-78191500D01*
X134104513Y-78191500D01*
X133917711Y-78231206D01*
X133864935Y-78254702D01*
X133794567Y-78264135D01*
X133730271Y-78234026D01*
X133724594Y-78228689D01*
X131424343Y-75928438D01*
X129104498Y-73608594D01*
X129070473Y-73546283D01*
X129075538Y-73475468D01*
X129118085Y-73418632D01*
X129184605Y-73393821D01*
X129193594Y-73393500D01*
X130145406Y-73393500D01*
X130213527Y-73413502D01*
G37*
%TD.AperFunction*%
%TA.AperFunction,Conductor*%
G36*
X72696870Y-101532774D02*
G01*
X73081167Y-101917071D01*
X73184925Y-101986400D01*
X73300215Y-102034155D01*
X73422606Y-102058500D01*
X73547394Y-102058500D01*
X135675500Y-102058500D01*
X135743621Y-102078502D01*
X135790114Y-102132158D01*
X135801500Y-102184500D01*
X135801500Y-102340500D01*
X135781498Y-102408621D01*
X135727842Y-102455114D01*
X135675500Y-102466500D01*
X72934594Y-102466500D01*
X72866473Y-102446498D01*
X72845499Y-102429595D01*
X72469866Y-102053962D01*
X72435840Y-101991650D01*
X72436816Y-101933937D01*
X72464564Y-101824368D01*
X72482206Y-101611460D01*
X72507764Y-101545228D01*
X72565076Y-101503324D01*
X72635944Y-101499058D01*
X72696870Y-101532774D01*
G37*
%TD.AperFunction*%
%TA.AperFunction,Conductor*%
G36*
X74353527Y-97553502D02*
G01*
X74374501Y-97570405D01*
X75307929Y-98503833D01*
X75396167Y-98592071D01*
X75426303Y-98612207D01*
X75444293Y-98624228D01*
X75467927Y-98644683D01*
X75588744Y-98778864D01*
X75588747Y-98778866D01*
X75743248Y-98891118D01*
X75917712Y-98968794D01*
X76104513Y-99008500D01*
X76295487Y-99008500D01*
X76482288Y-98968794D01*
X76516635Y-98953502D01*
X76537095Y-98944393D01*
X76588343Y-98933500D01*
X142185406Y-98933500D01*
X142253527Y-98953502D01*
X142274501Y-98970405D01*
X142407929Y-99103833D01*
X142496167Y-99192071D01*
X142599925Y-99261400D01*
X142715215Y-99309155D01*
X142837606Y-99333500D01*
X146385406Y-99333500D01*
X146453527Y-99353502D01*
X146474501Y-99370405D01*
X148744546Y-101640450D01*
X148778572Y-101702762D01*
X148773507Y-101773577D01*
X148760935Y-101798460D01*
X148695484Y-101898642D01*
X148641480Y-101944730D01*
X148571133Y-101954306D01*
X148506775Y-101924329D01*
X148484517Y-101898643D01*
X148402807Y-101773577D01*
X148395722Y-101762732D01*
X148395721Y-101762731D01*
X148395720Y-101762729D01*
X148279570Y-101636559D01*
X148243240Y-101597094D01*
X148243239Y-101597093D01*
X148243237Y-101597091D01*
X148155533Y-101528828D01*
X148065576Y-101458811D01*
X147867574Y-101351658D01*
X147867572Y-101351657D01*
X147867571Y-101351656D01*
X147654635Y-101278556D01*
X147654622Y-101278553D01*
X147598214Y-101269140D01*
X147534314Y-101238199D01*
X147529858Y-101233954D01*
X146103835Y-99807931D01*
X146103833Y-99807929D01*
X146000075Y-99738600D01*
X145884785Y-99690845D01*
X145811086Y-99676185D01*
X145762396Y-99666500D01*
X145762394Y-99666500D01*
X142514594Y-99666500D01*
X142446473Y-99646498D01*
X142425499Y-99629595D01*
X142203835Y-99407931D01*
X142203833Y-99407929D01*
X142100075Y-99338600D01*
X141984785Y-99290845D01*
X141911086Y-99276185D01*
X141862396Y-99266500D01*
X141862394Y-99266500D01*
X75303421Y-99266500D01*
X75235300Y-99246498D01*
X75188807Y-99192842D01*
X75183588Y-99179437D01*
X75167687Y-99130500D01*
X75134527Y-99028444D01*
X75039040Y-98863056D01*
X75039038Y-98863054D01*
X75039034Y-98863048D01*
X74911255Y-98721135D01*
X74756752Y-98608882D01*
X74582288Y-98531206D01*
X74395487Y-98491500D01*
X74204513Y-98491500D01*
X74017711Y-98531206D01*
X73843247Y-98608882D01*
X73688744Y-98721135D01*
X73560965Y-98863048D01*
X73560958Y-98863058D01*
X73465476Y-99028438D01*
X73465473Y-99028445D01*
X73406457Y-99210072D01*
X73386496Y-99400000D01*
X73406457Y-99589927D01*
X73431338Y-99666500D01*
X73465473Y-99771556D01*
X73465476Y-99771561D01*
X73560958Y-99936941D01*
X73560965Y-99936951D01*
X73688744Y-100078864D01*
X73749999Y-100123368D01*
X73843248Y-100191118D01*
X74017712Y-100268794D01*
X74204513Y-100308500D01*
X74260405Y-100308500D01*
X74328526Y-100328502D01*
X74349500Y-100345405D01*
X74396167Y-100392072D01*
X74499925Y-100461401D01*
X74615215Y-100509155D01*
X74737606Y-100533500D01*
X141485406Y-100533500D01*
X141553527Y-100553502D01*
X141574501Y-100570405D01*
X141707929Y-100703833D01*
X141796167Y-100792071D01*
X141899925Y-100861400D01*
X142015215Y-100909155D01*
X142137606Y-100933500D01*
X145385406Y-100933500D01*
X145453527Y-100953502D01*
X145474501Y-100970405D01*
X146180837Y-101676741D01*
X146214863Y-101739053D01*
X146209798Y-101809868D01*
X146197224Y-101834753D01*
X146155481Y-101898644D01*
X146101477Y-101944731D01*
X146031129Y-101954306D01*
X145966772Y-101924328D01*
X145944516Y-101898642D01*
X145855724Y-101762734D01*
X145855720Y-101762729D01*
X145739570Y-101636559D01*
X145703240Y-101597094D01*
X145703239Y-101597093D01*
X145703237Y-101597091D01*
X145615533Y-101528828D01*
X145525576Y-101458811D01*
X145327574Y-101351658D01*
X145327572Y-101351657D01*
X145327571Y-101351656D01*
X145114639Y-101278557D01*
X145114630Y-101278555D01*
X145070476Y-101271187D01*
X144892569Y-101241500D01*
X144667431Y-101241500D01*
X144520232Y-101266063D01*
X144445369Y-101278555D01*
X144445360Y-101278557D01*
X144232428Y-101351656D01*
X144232426Y-101351658D01*
X144034426Y-101458810D01*
X144034424Y-101458811D01*
X143856762Y-101597091D01*
X143704279Y-101762729D01*
X143615483Y-101898643D01*
X143561479Y-101944731D01*
X143491131Y-101954306D01*
X143426774Y-101924329D01*
X143404517Y-101898643D01*
X143322807Y-101773577D01*
X143315722Y-101762732D01*
X143315721Y-101762731D01*
X143315720Y-101762729D01*
X143199570Y-101636559D01*
X143163240Y-101597094D01*
X143163239Y-101597093D01*
X143163237Y-101597091D01*
X143075533Y-101528828D01*
X142985576Y-101458811D01*
X142787574Y-101351658D01*
X142787572Y-101351657D01*
X142787571Y-101351656D01*
X142574639Y-101278557D01*
X142574630Y-101278555D01*
X142530476Y-101271187D01*
X142352569Y-101241500D01*
X142127431Y-101241500D01*
X142001602Y-101262497D01*
X141905356Y-101278557D01*
X141902227Y-101279350D01*
X141900905Y-101279300D01*
X141900224Y-101279414D01*
X141900200Y-101279273D01*
X141831281Y-101276681D01*
X141782204Y-101246300D01*
X141468835Y-100932931D01*
X141468833Y-100932929D01*
X141365075Y-100863600D01*
X141249785Y-100815845D01*
X141176086Y-100801185D01*
X141127396Y-100791500D01*
X141127394Y-100791500D01*
X73799594Y-100791500D01*
X73731473Y-100771498D01*
X73710499Y-100754595D01*
X72515404Y-99559500D01*
X72481378Y-99497188D01*
X72478499Y-99470405D01*
X72478499Y-98409455D01*
X72467887Y-98305574D01*
X72440436Y-98222732D01*
X72412115Y-98137262D01*
X72319030Y-97986348D01*
X72319029Y-97986347D01*
X72319024Y-97986341D01*
X72193658Y-97860975D01*
X72193652Y-97860970D01*
X72042738Y-97767885D01*
X72042735Y-97767884D01*
X72040882Y-97766741D01*
X71993404Y-97713955D01*
X71982001Y-97643880D01*
X72010293Y-97578765D01*
X72069299Y-97539282D01*
X72107029Y-97533500D01*
X74285406Y-97533500D01*
X74353527Y-97553502D01*
G37*
%TD.AperFunction*%
%TA.AperFunction,Conductor*%
G36*
X115429502Y-64848242D02*
G01*
X115490893Y-64889262D01*
X115490894Y-64889263D01*
X115564980Y-64903999D01*
X115862999Y-64903999D01*
X115878686Y-64888312D01*
X115940998Y-64854287D01*
X116011813Y-64859351D01*
X116068649Y-64901897D01*
X116085837Y-64933374D01*
X116139110Y-65076202D01*
X116139112Y-65076207D01*
X116226738Y-65193261D01*
X116343792Y-65280887D01*
X116343794Y-65280888D01*
X116343796Y-65280889D01*
X116402875Y-65302924D01*
X116480795Y-65331988D01*
X116488474Y-65333803D01*
X116488058Y-65335560D01*
X116544548Y-65358951D01*
X116585047Y-65417263D01*
X116591500Y-65457070D01*
X116591500Y-81864707D01*
X116620649Y-82011247D01*
X116677826Y-82149284D01*
X116760834Y-82273515D01*
X116760838Y-82273519D01*
X119054595Y-84567276D01*
X119088621Y-84629588D01*
X119091500Y-84656371D01*
X119091500Y-93565500D01*
X119071498Y-93633621D01*
X119017842Y-93680114D01*
X118965500Y-93691500D01*
X111300668Y-93691500D01*
X111105830Y-93730256D01*
X111105825Y-93730258D01*
X110922296Y-93806279D01*
X110757123Y-93916644D01*
X110757116Y-93916649D01*
X110616649Y-94057116D01*
X110616644Y-94057123D01*
X110530864Y-94185502D01*
X110476387Y-94231030D01*
X110426099Y-94241500D01*
X94366371Y-94241500D01*
X94298250Y-94221498D01*
X94277276Y-94204595D01*
X93883519Y-93810838D01*
X93883515Y-93810834D01*
X93759284Y-93727826D01*
X93621247Y-93670649D01*
X93547976Y-93656074D01*
X93547975Y-93656073D01*
X93474711Y-93641500D01*
X93474706Y-93641500D01*
X91225294Y-93641500D01*
X91225288Y-93641500D01*
X91152024Y-93656073D01*
X91152024Y-93656074D01*
X91078753Y-93670649D01*
X91078751Y-93670649D01*
X91078750Y-93670650D01*
X90940714Y-93727827D01*
X90816486Y-93810833D01*
X90816480Y-93810838D01*
X90222724Y-94404595D01*
X90160412Y-94438621D01*
X90133629Y-94441500D01*
X67625288Y-94441500D01*
X67552024Y-94456073D01*
X67552024Y-94456074D01*
X67515388Y-94463361D01*
X67478752Y-94470649D01*
X67427464Y-94491894D01*
X67340715Y-94527826D01*
X67231696Y-94600671D01*
X67231695Y-94600671D01*
X67216487Y-94610832D01*
X67216477Y-94610840D01*
X60022724Y-101804595D01*
X59960412Y-101838621D01*
X59933629Y-101841500D01*
X59428059Y-101841500D01*
X59359938Y-101821498D01*
X59313445Y-101767842D01*
X59302749Y-101702331D01*
X59308558Y-101647055D01*
X59335570Y-101581398D01*
X59344764Y-101571138D01*
X66745499Y-94170405D01*
X66807811Y-94136379D01*
X66834594Y-94133500D01*
X89762393Y-94133500D01*
X89762394Y-94133500D01*
X89884785Y-94109155D01*
X90000075Y-94061400D01*
X90103833Y-93992071D01*
X90725499Y-93370405D01*
X90787811Y-93336379D01*
X90814594Y-93333500D01*
X110562393Y-93333500D01*
X110562394Y-93333500D01*
X110684785Y-93309155D01*
X110800075Y-93261400D01*
X110903833Y-93192071D01*
X115092072Y-89003833D01*
X115161401Y-88900075D01*
X115201945Y-88802191D01*
X115209155Y-88784785D01*
X115233500Y-88662394D01*
X115233500Y-86435000D01*
X115586673Y-86435000D01*
X115605668Y-86664239D01*
X115605950Y-86667633D01*
X115663249Y-86893903D01*
X115663252Y-86893910D01*
X115757015Y-87107668D01*
X115878691Y-87293908D01*
X115884686Y-87303083D01*
X115969842Y-87395587D01*
X116001263Y-87459251D01*
X115993276Y-87529797D01*
X115948417Y-87584826D01*
X115921175Y-87598979D01*
X115853795Y-87624111D01*
X115853792Y-87624112D01*
X115736738Y-87711738D01*
X115649112Y-87828792D01*
X115649110Y-87828797D01*
X115598011Y-87965795D01*
X115598009Y-87965803D01*
X115591500Y-88026350D01*
X115591500Y-89923649D01*
X115598009Y-89984196D01*
X115598011Y-89984204D01*
X115649110Y-90121202D01*
X115649112Y-90121207D01*
X115736738Y-90238261D01*
X115853792Y-90325887D01*
X115853794Y-90325888D01*
X115853796Y-90325889D01*
X115875993Y-90334168D01*
X115990795Y-90376988D01*
X115990803Y-90376990D01*
X116051350Y-90383499D01*
X116051355Y-90383499D01*
X116051362Y-90383500D01*
X116051368Y-90383500D01*
X117948632Y-90383500D01*
X117948638Y-90383500D01*
X117948645Y-90383499D01*
X117948649Y-90383499D01*
X118009196Y-90376990D01*
X118009199Y-90376989D01*
X118009201Y-90376989D01*
X118146204Y-90325889D01*
X118263261Y-90238261D01*
X118350889Y-90121204D01*
X118401989Y-89984201D01*
X118406892Y-89938601D01*
X118408499Y-89923649D01*
X118408500Y-89923632D01*
X118408500Y-88026367D01*
X118408499Y-88026350D01*
X118401990Y-87965803D01*
X118401988Y-87965795D01*
X118350889Y-87828797D01*
X118350887Y-87828792D01*
X118263261Y-87711738D01*
X118146207Y-87624112D01*
X118146204Y-87624111D01*
X118078824Y-87598979D01*
X118021989Y-87556432D01*
X117997179Y-87489911D01*
X118012271Y-87420538D01*
X118030156Y-87395588D01*
X118115314Y-87303083D01*
X118242984Y-87107669D01*
X118336749Y-86893907D01*
X118394051Y-86667626D01*
X118413327Y-86435000D01*
X118394051Y-86202374D01*
X118394049Y-86202366D01*
X118336750Y-85976096D01*
X118336747Y-85976089D01*
X118303338Y-85899925D01*
X118242984Y-85762331D01*
X118216979Y-85722527D01*
X118115314Y-85566916D01*
X117957225Y-85395186D01*
X117957221Y-85395182D01*
X117820311Y-85288621D01*
X117773017Y-85251810D01*
X117567727Y-85140713D01*
X117567724Y-85140712D01*
X117567723Y-85140711D01*
X117346955Y-85064921D01*
X117346948Y-85064919D01*
X117248411Y-85048476D01*
X117116712Y-85026500D01*
X116883288Y-85026500D01*
X116768066Y-85045727D01*
X116653051Y-85064919D01*
X116653044Y-85064921D01*
X116432276Y-85140711D01*
X116432273Y-85140713D01*
X116226985Y-85251809D01*
X116226983Y-85251810D01*
X116042778Y-85395182D01*
X116042774Y-85395186D01*
X115884685Y-85566916D01*
X115757015Y-85762331D01*
X115663252Y-85976089D01*
X115663249Y-85976096D01*
X115605950Y-86202366D01*
X115605949Y-86202372D01*
X115605949Y-86202374D01*
X115586673Y-86435000D01*
X115233500Y-86435000D01*
X115233500Y-64953007D01*
X115253502Y-64884886D01*
X115307158Y-64838393D01*
X115377432Y-64828289D01*
X115429502Y-64848242D01*
G37*
%TD.AperFunction*%
%TA.AperFunction,Conductor*%
G36*
X67393225Y-99735669D02*
G01*
X67415480Y-99761353D01*
X67445908Y-99807926D01*
X67504275Y-99897265D01*
X67504279Y-99897270D01*
X67656762Y-100062908D01*
X67677265Y-100078866D01*
X67834424Y-100201189D01*
X67867680Y-100219186D01*
X67918071Y-100269200D01*
X67933423Y-100338516D01*
X67908862Y-100405129D01*
X67867680Y-100440813D01*
X67834426Y-100458810D01*
X67834424Y-100458811D01*
X67656762Y-100597091D01*
X67504279Y-100762729D01*
X67504275Y-100762734D01*
X67381141Y-100951206D01*
X67288611Y-101162156D01*
X67287056Y-101161474D01*
X67250351Y-101213260D01*
X67184498Y-101239792D01*
X67114755Y-101226509D01*
X67063265Y-101177629D01*
X67059454Y-101170552D01*
X66982659Y-101016326D01*
X66905480Y-100914124D01*
X66905479Y-100914124D01*
X66471764Y-101347839D01*
X66440099Y-101292993D01*
X66347007Y-101199901D01*
X66292159Y-101168234D01*
X66727525Y-100732868D01*
X66708162Y-100715216D01*
X66708160Y-100715215D01*
X66534203Y-100607506D01*
X66534199Y-100607504D01*
X66471579Y-100583245D01*
X66415285Y-100539985D01*
X66391315Y-100473157D01*
X66407280Y-100403979D01*
X66458111Y-100354414D01*
X66476180Y-100346583D01*
X66587574Y-100308342D01*
X66785576Y-100201189D01*
X66963240Y-100062906D01*
X67115722Y-99897268D01*
X67204518Y-99761354D01*
X67258520Y-99715268D01*
X67328868Y-99705692D01*
X67393225Y-99735669D01*
G37*
%TD.AperFunction*%
%TA.AperFunction,Conductor*%
G36*
X168993225Y-99735669D02*
G01*
X169015480Y-99761353D01*
X169045908Y-99807926D01*
X169104275Y-99897265D01*
X169104279Y-99897270D01*
X169256762Y-100062908D01*
X169277265Y-100078866D01*
X169434424Y-100201189D01*
X169467680Y-100219186D01*
X169518071Y-100269200D01*
X169533423Y-100338516D01*
X169508862Y-100405129D01*
X169467680Y-100440813D01*
X169434426Y-100458810D01*
X169434424Y-100458811D01*
X169256762Y-100597091D01*
X169104279Y-100762729D01*
X169104275Y-100762734D01*
X168981141Y-100951206D01*
X168888611Y-101162156D01*
X168887056Y-101161474D01*
X168850351Y-101213260D01*
X168784498Y-101239792D01*
X168714755Y-101226509D01*
X168663265Y-101177629D01*
X168659454Y-101170552D01*
X168582659Y-101016326D01*
X168505480Y-100914124D01*
X168505479Y-100914124D01*
X168071764Y-101347839D01*
X168040099Y-101292993D01*
X167947007Y-101199901D01*
X167892159Y-101168234D01*
X168327525Y-100732868D01*
X168308162Y-100715216D01*
X168308160Y-100715215D01*
X168134203Y-100607506D01*
X168134199Y-100607504D01*
X168071579Y-100583245D01*
X168015285Y-100539985D01*
X167991315Y-100473157D01*
X168007280Y-100403979D01*
X168058111Y-100354414D01*
X168076180Y-100346583D01*
X168187574Y-100308342D01*
X168385576Y-100201189D01*
X168563240Y-100062906D01*
X168715722Y-99897268D01*
X168804518Y-99761354D01*
X168858520Y-99715268D01*
X168928868Y-99705692D01*
X168993225Y-99735669D01*
G37*
%TD.AperFunction*%
%TA.AperFunction,Conductor*%
G36*
X114834527Y-63253502D02*
G01*
X114881020Y-63307158D01*
X114891124Y-63377432D01*
X114861630Y-63442012D01*
X114855501Y-63448595D01*
X114107931Y-64196164D01*
X114107926Y-64196171D01*
X114042344Y-64294322D01*
X114038600Y-64299925D01*
X114032497Y-64314658D01*
X113990846Y-64415212D01*
X113966500Y-64537603D01*
X113966500Y-88285405D01*
X113946498Y-88353526D01*
X113929595Y-88374500D01*
X110274501Y-92029595D01*
X110212189Y-92063621D01*
X110185406Y-92066500D01*
X90437603Y-92066500D01*
X90364568Y-92081028D01*
X90315215Y-92090845D01*
X90315213Y-92090845D01*
X90315212Y-92090846D01*
X90199923Y-92138601D01*
X90096171Y-92207926D01*
X90096164Y-92207931D01*
X89474501Y-92829595D01*
X89412189Y-92863621D01*
X89385406Y-92866500D01*
X66457603Y-92866500D01*
X66384568Y-92881028D01*
X66335215Y-92890845D01*
X66335213Y-92890845D01*
X66335212Y-92890846D01*
X66219923Y-92938601D01*
X66116171Y-93007926D01*
X66116164Y-93007931D01*
X58469501Y-100654595D01*
X58407189Y-100688621D01*
X58380406Y-100691500D01*
X58304513Y-100691500D01*
X58117711Y-100731206D01*
X57943247Y-100808882D01*
X57788747Y-100921133D01*
X57785437Y-100924810D01*
X57724991Y-100962050D01*
X57691800Y-100966500D01*
X57333594Y-100966500D01*
X57265473Y-100946498D01*
X57218980Y-100892842D01*
X57208876Y-100822568D01*
X57238370Y-100757988D01*
X57244499Y-100751405D01*
X58050499Y-99945405D01*
X58112811Y-99911379D01*
X58139594Y-99908500D01*
X58195487Y-99908500D01*
X58382288Y-99868794D01*
X58556752Y-99791118D01*
X58711253Y-99678866D01*
X58711255Y-99678864D01*
X58839034Y-99536951D01*
X58839035Y-99536949D01*
X58839040Y-99536944D01*
X58934527Y-99371556D01*
X58993542Y-99189928D01*
X59010907Y-99024703D01*
X59037920Y-98959048D01*
X59047113Y-98948789D01*
X65425499Y-92570405D01*
X65487811Y-92536379D01*
X65514594Y-92533500D01*
X88562393Y-92533500D01*
X88562394Y-92533500D01*
X88684785Y-92509155D01*
X88800075Y-92461400D01*
X88903833Y-92392071D01*
X89525499Y-91770405D01*
X89587811Y-91736379D01*
X89614594Y-91733500D01*
X109062393Y-91733500D01*
X109062394Y-91733500D01*
X109184785Y-91709155D01*
X109300075Y-91661400D01*
X109403833Y-91592071D01*
X113492071Y-87503833D01*
X113561400Y-87400075D01*
X113609155Y-87284785D01*
X113633500Y-87162394D01*
X113633500Y-87037606D01*
X113633500Y-64114594D01*
X113653502Y-64046473D01*
X113670405Y-64025499D01*
X114425499Y-63270405D01*
X114487811Y-63236379D01*
X114514594Y-63233500D01*
X114766406Y-63233500D01*
X114834527Y-63253502D01*
G37*
%TD.AperFunction*%
%TA.AperFunction,Conductor*%
G36*
X205799527Y-61888502D02*
G01*
X205846020Y-61942158D01*
X205856124Y-62012432D01*
X205826630Y-62077012D01*
X205820501Y-62083595D01*
X196007931Y-71896164D01*
X196007926Y-71896171D01*
X195945280Y-71989928D01*
X195938600Y-71999925D01*
X195935251Y-72008011D01*
X195896581Y-72101368D01*
X195890845Y-72115215D01*
X195884575Y-72146739D01*
X195866500Y-72237603D01*
X195866500Y-72237606D01*
X195866500Y-73837606D01*
X195866500Y-73962394D01*
X195890845Y-74084785D01*
X195938600Y-74200075D01*
X196007929Y-74303833D01*
X196007931Y-74303835D01*
X196929595Y-75225499D01*
X196963621Y-75287811D01*
X196966500Y-75314594D01*
X196966500Y-77997474D01*
X196946498Y-78065595D01*
X196934137Y-78081784D01*
X196860957Y-78163059D01*
X196765476Y-78328438D01*
X196765473Y-78328444D01*
X196760103Y-78344971D01*
X196706457Y-78510072D01*
X196686496Y-78700000D01*
X196706457Y-78889927D01*
X196736526Y-78982470D01*
X196765473Y-79071556D01*
X196765476Y-79071561D01*
X196851832Y-79221135D01*
X196860960Y-79236944D01*
X196934137Y-79318215D01*
X196964853Y-79382220D01*
X196966500Y-79402524D01*
X196966500Y-80562713D01*
X196946498Y-80630834D01*
X196929595Y-80651808D01*
X188512808Y-89068595D01*
X188450496Y-89102621D01*
X188423713Y-89105500D01*
X187496289Y-89105500D01*
X187428168Y-89085498D01*
X187407194Y-89068596D01*
X187238598Y-88900000D01*
X186646526Y-88307929D01*
X186542768Y-88238600D01*
X186427478Y-88190845D01*
X186353779Y-88176185D01*
X186305089Y-88166500D01*
X186305087Y-88166500D01*
X173329245Y-88166500D01*
X173261124Y-88146498D01*
X173220126Y-88103500D01*
X173139041Y-87963058D01*
X173139034Y-87963048D01*
X173011255Y-87821135D01*
X172856752Y-87708882D01*
X172682288Y-87631206D01*
X172495487Y-87591500D01*
X172304513Y-87591500D01*
X172117711Y-87631206D01*
X171943247Y-87708882D01*
X171788744Y-87821135D01*
X171660965Y-87963048D01*
X171660958Y-87963058D01*
X171579874Y-88103500D01*
X171528491Y-88152493D01*
X171470755Y-88166500D01*
X170537603Y-88166500D01*
X170415215Y-88190845D01*
X170415211Y-88190846D01*
X170402364Y-88196167D01*
X170313622Y-88232926D01*
X170299923Y-88238600D01*
X170196167Y-88307927D01*
X170014168Y-88489927D01*
X169196167Y-89307929D01*
X169107931Y-89396164D01*
X169107926Y-89396171D01*
X169058325Y-89470405D01*
X169038600Y-89499925D01*
X168990845Y-89615215D01*
X168987985Y-89629595D01*
X168966500Y-89737603D01*
X168966500Y-98183349D01*
X168946498Y-98251470D01*
X168892842Y-98297963D01*
X168822568Y-98308067D01*
X168757988Y-98278573D01*
X168735017Y-98252265D01*
X168715723Y-98222734D01*
X168715722Y-98222732D01*
X168679467Y-98183349D01*
X168581799Y-98077253D01*
X168550378Y-98013588D01*
X168548500Y-97991915D01*
X168548500Y-89288503D01*
X168568502Y-89220382D01*
X168585405Y-89199408D01*
X170639408Y-87145405D01*
X170701720Y-87111379D01*
X170728503Y-87108500D01*
X183089478Y-87108500D01*
X183089479Y-87108500D01*
X183265000Y-87073587D01*
X183430336Y-87005103D01*
X183579135Y-86905678D01*
X189605678Y-80879135D01*
X189705103Y-80730336D01*
X189773587Y-80565000D01*
X189808500Y-80389479D01*
X189808500Y-80210521D01*
X189808500Y-76828503D01*
X189828502Y-76760382D01*
X189845405Y-76739408D01*
X204679408Y-61905405D01*
X204741720Y-61871379D01*
X204768503Y-61868500D01*
X205731406Y-61868500D01*
X205799527Y-61888502D01*
G37*
%TD.AperFunction*%
%TA.AperFunction,Conductor*%
G36*
X207187522Y-62978502D02*
G01*
X207234015Y-63032158D01*
X207244119Y-63102432D01*
X207240591Y-63118981D01*
X207190148Y-63296267D01*
X207171270Y-63500000D01*
X207190148Y-63703730D01*
X207246138Y-63900514D01*
X207246140Y-63900519D01*
X207337339Y-64083672D01*
X207414518Y-64185874D01*
X207414520Y-64185874D01*
X207848234Y-63752159D01*
X207879901Y-63807007D01*
X207972993Y-63900099D01*
X208027838Y-63931764D01*
X207592473Y-64367129D01*
X207611837Y-64384783D01*
X207611839Y-64384784D01*
X207785796Y-64492493D01*
X207785803Y-64492496D01*
X207976577Y-64566403D01*
X207976576Y-64566403D01*
X208177701Y-64604000D01*
X208382298Y-64604000D01*
X208520784Y-64578112D01*
X208591420Y-64585257D01*
X208646981Y-64629455D01*
X208669826Y-64696676D01*
X208652702Y-64765577D01*
X208633034Y-64791061D01*
X208594502Y-64829594D01*
X208532190Y-64863620D01*
X208505405Y-64866500D01*
X206237603Y-64866500D01*
X206115209Y-64890846D01*
X206092934Y-64900074D01*
X206092932Y-64900075D01*
X205999923Y-64938600D01*
X205896171Y-65007925D01*
X205896164Y-65007930D01*
X198822912Y-72081182D01*
X198760600Y-72115208D01*
X198707621Y-72115334D01*
X198595489Y-72091500D01*
X198595487Y-72091500D01*
X198404513Y-72091500D01*
X198217711Y-72131206D01*
X198043247Y-72208882D01*
X197888744Y-72321135D01*
X197760965Y-72463048D01*
X197760958Y-72463058D01*
X197665476Y-72628438D01*
X197665473Y-72628445D01*
X197606457Y-72810072D01*
X197586496Y-73000000D01*
X197606457Y-73189927D01*
X197622433Y-73239095D01*
X197665473Y-73371556D01*
X197665476Y-73371561D01*
X197760958Y-73536941D01*
X197760965Y-73536951D01*
X197888744Y-73678864D01*
X197888747Y-73678866D01*
X198043248Y-73791118D01*
X198217712Y-73868794D01*
X198404513Y-73908500D01*
X198460406Y-73908500D01*
X198528527Y-73928502D01*
X198549501Y-73945405D01*
X199329595Y-74725499D01*
X199363621Y-74787811D01*
X199366500Y-74814594D01*
X199366500Y-80585406D01*
X199346498Y-80653527D01*
X199329595Y-80674501D01*
X189274501Y-90729595D01*
X189212189Y-90763621D01*
X189185406Y-90766500D01*
X186714594Y-90766500D01*
X186646473Y-90746498D01*
X186625499Y-90729595D01*
X185903835Y-90007931D01*
X185903833Y-90007929D01*
X185800075Y-89938600D01*
X185684785Y-89890845D01*
X185611086Y-89876185D01*
X185562396Y-89866500D01*
X185562394Y-89866500D01*
X171907394Y-89866500D01*
X171782606Y-89866500D01*
X171782600Y-89866500D01*
X171669091Y-89889079D01*
X171644510Y-89891500D01*
X171449513Y-89891500D01*
X171262711Y-89931206D01*
X171088247Y-90008882D01*
X170933744Y-90121135D01*
X170805965Y-90263048D01*
X170805958Y-90263058D01*
X170710476Y-90428438D01*
X170710473Y-90428445D01*
X170651457Y-90610072D01*
X170631496Y-90800000D01*
X170651457Y-90989927D01*
X170681526Y-91082470D01*
X170710473Y-91171556D01*
X170805960Y-91336944D01*
X170879137Y-91418215D01*
X170909853Y-91482220D01*
X170911500Y-91502524D01*
X170911500Y-97699738D01*
X170891498Y-97767859D01*
X170837842Y-97814352D01*
X170767568Y-97824456D01*
X170732705Y-97812928D01*
X170732345Y-97813751D01*
X170727571Y-97811656D01*
X170514639Y-97738557D01*
X170514632Y-97738555D01*
X170338761Y-97709208D01*
X170274862Y-97678266D01*
X170237834Y-97617690D01*
X170233500Y-97584926D01*
X170233500Y-90114595D01*
X170253502Y-90046474D01*
X170270405Y-90025499D01*
X170825501Y-89470404D01*
X170887813Y-89436379D01*
X170914596Y-89433500D01*
X172162393Y-89433500D01*
X172162394Y-89433500D01*
X172163726Y-89433234D01*
X172275909Y-89410921D01*
X172300490Y-89408500D01*
X172499511Y-89408500D01*
X172524092Y-89410921D01*
X172637600Y-89433499D01*
X172637603Y-89433499D01*
X172637606Y-89433500D01*
X185928098Y-89433500D01*
X185996219Y-89453502D01*
X186017193Y-89470404D01*
X186777860Y-90231072D01*
X186881618Y-90300401D01*
X186963140Y-90334168D01*
X186996908Y-90348155D01*
X187119299Y-90372500D01*
X187119300Y-90372500D01*
X188800700Y-90372500D01*
X188800701Y-90372500D01*
X188923092Y-90348155D01*
X189038382Y-90300400D01*
X189142140Y-90231071D01*
X198092071Y-81281140D01*
X198161400Y-81177382D01*
X198209155Y-81062092D01*
X198215240Y-81031500D01*
X198233500Y-80939701D01*
X198233500Y-79402524D01*
X198253502Y-79334403D01*
X198265858Y-79318220D01*
X198339040Y-79236944D01*
X198434527Y-79071556D01*
X198493542Y-78889928D01*
X198513504Y-78700000D01*
X198493542Y-78510072D01*
X198434527Y-78328444D01*
X198339040Y-78163056D01*
X198265863Y-78081784D01*
X198235146Y-78017776D01*
X198233500Y-77997474D01*
X198233500Y-74937607D01*
X198233499Y-74937603D01*
X198227831Y-74909107D01*
X198209155Y-74815215D01*
X198161400Y-74699925D01*
X198092071Y-74596167D01*
X198003833Y-74507929D01*
X197170405Y-73674501D01*
X197136379Y-73612189D01*
X197133500Y-73585406D01*
X197133500Y-72614594D01*
X197153502Y-72546473D01*
X197170405Y-72525499D01*
X206700499Y-62995405D01*
X206762811Y-62961379D01*
X206789594Y-62958500D01*
X207119401Y-62958500D01*
X207187522Y-62978502D01*
G37*
%TD.AperFunction*%
%TA.AperFunction,Conductor*%
G36*
X118729840Y-65027005D02*
G01*
X118741049Y-65036954D01*
X122502877Y-68798782D01*
X122536903Y-68861094D01*
X122539092Y-68874706D01*
X122556457Y-69039927D01*
X122586526Y-69132470D01*
X122615473Y-69221556D01*
X122710960Y-69386944D01*
X122784137Y-69468215D01*
X122814853Y-69532220D01*
X122816500Y-69552524D01*
X122816500Y-72512396D01*
X122820698Y-72533499D01*
X122840845Y-72634785D01*
X122888600Y-72750075D01*
X122957929Y-72853833D01*
X124256167Y-74152071D01*
X124359925Y-74221400D01*
X124475215Y-74269155D01*
X124597606Y-74293500D01*
X124722393Y-74293500D01*
X125370000Y-74293500D01*
X125438121Y-74313502D01*
X125484614Y-74367158D01*
X125496000Y-74419500D01*
X125496000Y-74433000D01*
X126115500Y-74433000D01*
X126183621Y-74453002D01*
X126230114Y-74506658D01*
X126241500Y-74559000D01*
X126241500Y-74601309D01*
X126221498Y-74669430D01*
X126167842Y-74715923D01*
X126097568Y-74726027D01*
X126032988Y-74696533D01*
X126026405Y-74690404D01*
X126023001Y-74687000D01*
X125496001Y-74687000D01*
X125496001Y-74835022D01*
X125510737Y-74909105D01*
X125510737Y-74909107D01*
X125566875Y-74993124D01*
X125650893Y-75049262D01*
X125650894Y-75049263D01*
X125724980Y-75063999D01*
X126023000Y-75063999D01*
X126026405Y-75060595D01*
X126088717Y-75026569D01*
X126159532Y-75031634D01*
X126216368Y-75074181D01*
X126241179Y-75140701D01*
X126241500Y-75149690D01*
X126241500Y-77273629D01*
X126221498Y-77341750D01*
X126204595Y-77362724D01*
X120189095Y-83378224D01*
X120126783Y-83412250D01*
X120055968Y-83407185D01*
X120010905Y-83378224D01*
X118145405Y-81512724D01*
X118111379Y-81450412D01*
X118108500Y-81423629D01*
X118108500Y-65484496D01*
X118128502Y-65416375D01*
X118182158Y-65369882D01*
X118183207Y-65369409D01*
X118246752Y-65341118D01*
X118401253Y-65228866D01*
X118401255Y-65228864D01*
X118529034Y-65086951D01*
X118529035Y-65086949D01*
X118529040Y-65086944D01*
X118542835Y-65063049D01*
X118594216Y-65014057D01*
X118663929Y-65000619D01*
X118729840Y-65027005D01*
G37*
%TD.AperFunction*%
%TA.AperFunction,Conductor*%
G36*
X120153527Y-63253502D02*
G01*
X120174501Y-63270405D01*
X122552877Y-65648782D01*
X122586903Y-65711094D01*
X122589092Y-65724706D01*
X122606457Y-65889927D01*
X122625704Y-65949162D01*
X122665473Y-66071556D01*
X122665476Y-66071561D01*
X122760958Y-66236941D01*
X122760965Y-66236951D01*
X122888744Y-66378864D01*
X122910809Y-66394895D01*
X123043248Y-66491118D01*
X123217712Y-66568794D01*
X123404513Y-66608500D01*
X123460405Y-66608500D01*
X123528526Y-66628502D01*
X123549500Y-66645405D01*
X125379595Y-68475499D01*
X125413620Y-68537811D01*
X125416500Y-68564594D01*
X125416500Y-72065045D01*
X125396498Y-72133166D01*
X125391368Y-72140554D01*
X125299112Y-72263792D01*
X125299110Y-72263797D01*
X125248011Y-72400795D01*
X125248009Y-72400803D01*
X125241500Y-72461350D01*
X125241500Y-72900500D01*
X125221498Y-72968621D01*
X125167842Y-73015114D01*
X125115500Y-73026500D01*
X124974594Y-73026500D01*
X124906473Y-73006498D01*
X124885499Y-72989595D01*
X124120405Y-72224501D01*
X124086379Y-72162189D01*
X124083500Y-72135406D01*
X124083500Y-69552524D01*
X124103502Y-69484403D01*
X124115858Y-69468220D01*
X124189040Y-69386944D01*
X124284527Y-69221556D01*
X124343542Y-69039928D01*
X124363504Y-68850000D01*
X124343542Y-68660072D01*
X124284527Y-68478444D01*
X124189040Y-68313056D01*
X124189038Y-68313054D01*
X124189034Y-68313048D01*
X124061255Y-68171135D01*
X123906752Y-68058882D01*
X123732288Y-67981206D01*
X123545487Y-67941500D01*
X123489595Y-67941500D01*
X123421474Y-67921498D01*
X123400500Y-67904595D01*
X121179794Y-65683889D01*
X118944498Y-63448594D01*
X118910473Y-63386283D01*
X118915538Y-63315468D01*
X118958085Y-63258632D01*
X119024605Y-63233821D01*
X119033594Y-63233500D01*
X120085406Y-63233500D01*
X120153527Y-63253502D01*
G37*
%TD.AperFunction*%
%TA.AperFunction,Conductor*%
G36*
X112673206Y-60438502D02*
G01*
X112719699Y-60492158D01*
X112729803Y-60562432D01*
X112700309Y-60627012D01*
X112640583Y-60665396D01*
X112629667Y-60668079D01*
X112597174Y-60674542D01*
X112515215Y-60690845D01*
X112515213Y-60690845D01*
X112515212Y-60690846D01*
X112447675Y-60718821D01*
X112407091Y-60735632D01*
X112399923Y-60738601D01*
X112296171Y-60807926D01*
X112296164Y-60807931D01*
X111639501Y-61464595D01*
X111577189Y-61498621D01*
X111550406Y-61501500D01*
X110704500Y-61501500D01*
X110636379Y-61481498D01*
X110589886Y-61427842D01*
X110578500Y-61375500D01*
X110578499Y-60544500D01*
X110598501Y-60476379D01*
X110652157Y-60429886D01*
X110704499Y-60418500D01*
X112605085Y-60418500D01*
X112673206Y-60438502D01*
G37*
%TD.AperFunction*%
%TA.AperFunction,Conductor*%
G36*
X236198038Y-58430512D02*
G01*
X236216267Y-58430502D01*
X236223692Y-58430716D01*
X236523846Y-58448281D01*
X236538621Y-58450028D01*
X236830882Y-58502223D01*
X236845363Y-58505703D01*
X237129429Y-58592020D01*
X237143399Y-58597185D01*
X237415293Y-58716417D01*
X237428540Y-58723186D01*
X237503935Y-58767517D01*
X237684472Y-58873671D01*
X237696842Y-58881965D01*
X237933225Y-59061595D01*
X237944529Y-59071291D01*
X238158059Y-59277549D01*
X238168141Y-59288511D01*
X238355847Y-59518532D01*
X238364565Y-59530608D01*
X238523816Y-59781167D01*
X238531045Y-59794181D01*
X238659624Y-60061793D01*
X238665265Y-60075565D01*
X238675372Y-60105108D01*
X238761366Y-60356467D01*
X238765346Y-60370819D01*
X238827631Y-60661104D01*
X238829889Y-60675825D01*
X238857486Y-60971417D01*
X238857992Y-60986303D01*
X238850516Y-61283095D01*
X238849262Y-61297935D01*
X238806819Y-61591777D01*
X238803822Y-61606366D01*
X238727005Y-61893138D01*
X238722308Y-61907271D01*
X238612189Y-62182977D01*
X238605857Y-62196457D01*
X238463976Y-62457245D01*
X238456097Y-62469885D01*
X238284430Y-62712114D01*
X238275116Y-62723735D01*
X238076074Y-62944010D01*
X238065452Y-62954451D01*
X237838981Y-63152166D01*
X237833260Y-63156872D01*
X237819449Y-63167566D01*
X237818406Y-63168685D01*
X183078352Y-106509558D01*
X183066864Y-106517655D01*
X182975809Y-106574500D01*
X182950490Y-106586620D01*
X182766769Y-106650546D01*
X182739397Y-106656760D01*
X182695737Y-106661653D01*
X182632725Y-106668716D01*
X182618692Y-106669500D01*
X50803257Y-106669500D01*
X50796782Y-106669333D01*
X50629655Y-106660730D01*
X50465145Y-106652262D01*
X50452398Y-106650954D01*
X50127350Y-106600773D01*
X50114803Y-106598177D01*
X49796535Y-106515246D01*
X49784316Y-106511389D01*
X49476108Y-106396561D01*
X49464344Y-106391482D01*
X49169410Y-106245953D01*
X49158223Y-106239707D01*
X48879584Y-106064972D01*
X48869089Y-106057622D01*
X48609634Y-105855491D01*
X48599939Y-105847112D01*
X48362354Y-105619674D01*
X48353561Y-105610354D01*
X48140309Y-105359970D01*
X48132508Y-105349806D01*
X47945786Y-105079057D01*
X47939057Y-105068153D01*
X47822110Y-104855102D01*
X47780789Y-104779825D01*
X47775210Y-104768309D01*
X47647042Y-104465395D01*
X47642663Y-104453375D01*
X47640245Y-104445519D01*
X47596981Y-104304928D01*
X47545925Y-104139017D01*
X47542784Y-104126596D01*
X47535696Y-104091047D01*
X47478470Y-103804033D01*
X47476612Y-103791388D01*
X47445389Y-103463949D01*
X47444824Y-103451178D01*
X47447018Y-103122269D01*
X47447755Y-103109483D01*
X47450245Y-103086606D01*
X47483339Y-102782504D01*
X47485365Y-102769892D01*
X47553977Y-102448205D01*
X47557282Y-102435835D01*
X47581507Y-102360695D01*
X47658206Y-102122790D01*
X47662751Y-102110818D01*
X47786148Y-101829683D01*
X47787378Y-101827907D01*
X47796035Y-101807324D01*
X47799535Y-101799719D01*
X47803387Y-101792032D01*
X47805240Y-101785445D01*
X48056871Y-101187396D01*
X51131500Y-101187396D01*
X51134007Y-101200000D01*
X51155845Y-101309785D01*
X51203600Y-101425075D01*
X51272929Y-101528833D01*
X51272931Y-101528835D01*
X51559535Y-101815439D01*
X51588495Y-101860501D01*
X51639110Y-101996202D01*
X51639112Y-101996207D01*
X51706785Y-102086606D01*
X51726739Y-102113261D01*
X51731329Y-102116697D01*
X51785509Y-102157256D01*
X51828056Y-102214092D01*
X51836000Y-102258124D01*
X51836000Y-102373000D01*
X52455500Y-102373000D01*
X52523621Y-102393002D01*
X52570114Y-102446658D01*
X52581500Y-102499000D01*
X52581500Y-102541309D01*
X52561498Y-102609430D01*
X52507842Y-102655923D01*
X52437568Y-102666027D01*
X52372988Y-102636533D01*
X52366405Y-102630404D01*
X52363001Y-102627000D01*
X51836001Y-102627000D01*
X51836001Y-102775022D01*
X51850737Y-102849105D01*
X51850737Y-102849107D01*
X51906875Y-102933124D01*
X51990893Y-102989262D01*
X51990894Y-102989263D01*
X52064980Y-103003999D01*
X52362999Y-103003999D01*
X52378686Y-102988312D01*
X52440998Y-102954287D01*
X52511813Y-102959351D01*
X52568649Y-103001897D01*
X52585837Y-103033374D01*
X52639110Y-103176202D01*
X52639112Y-103176207D01*
X52726738Y-103293261D01*
X52843792Y-103380887D01*
X52843794Y-103380888D01*
X52843796Y-103380889D01*
X52886846Y-103396946D01*
X52980795Y-103431988D01*
X52980803Y-103431990D01*
X53041350Y-103438499D01*
X53041355Y-103438499D01*
X53041362Y-103438500D01*
X53041368Y-103438500D01*
X53638632Y-103438500D01*
X53638638Y-103438500D01*
X53638645Y-103438499D01*
X53638649Y-103438499D01*
X53699196Y-103431990D01*
X53699201Y-103431989D01*
X53699204Y-103431988D01*
X53801058Y-103393997D01*
X53871872Y-103388932D01*
X53896335Y-103396944D01*
X54057712Y-103468794D01*
X54244513Y-103508500D01*
X54435487Y-103508500D01*
X54622288Y-103468794D01*
X54796752Y-103391118D01*
X54808524Y-103382564D01*
X54875391Y-103358706D01*
X54882587Y-103358500D01*
X60374706Y-103358500D01*
X60479746Y-103337606D01*
X60521247Y-103329351D01*
X60659284Y-103272174D01*
X60783515Y-103189166D01*
X64537196Y-99435483D01*
X64599506Y-99401460D01*
X64670321Y-99406524D01*
X64727157Y-99449071D01*
X64748432Y-99493647D01*
X64749944Y-99499616D01*
X64750704Y-99502617D01*
X64841141Y-99708793D01*
X64964275Y-99897265D01*
X64964279Y-99897270D01*
X65116762Y-100062908D01*
X65137265Y-100078866D01*
X65294424Y-100201189D01*
X65492426Y-100308342D01*
X65492427Y-100308342D01*
X65492428Y-100308343D01*
X65530710Y-100321485D01*
X65603815Y-100346582D01*
X65661749Y-100387618D01*
X65688301Y-100453462D01*
X65675040Y-100523209D01*
X65626176Y-100574715D01*
X65608420Y-100583245D01*
X65545800Y-100607504D01*
X65545796Y-100607506D01*
X65371841Y-100715213D01*
X65371841Y-100715214D01*
X65352473Y-100732869D01*
X65787839Y-101168235D01*
X65732993Y-101199901D01*
X65639901Y-101292993D01*
X65608235Y-101347839D01*
X65174520Y-100914124D01*
X65174517Y-100914124D01*
X65097341Y-101016325D01*
X65097335Y-101016334D01*
X65006143Y-101199471D01*
X65006138Y-101199485D01*
X64950148Y-101396269D01*
X64931270Y-101600000D01*
X64950148Y-101803730D01*
X65006138Y-102000514D01*
X65006140Y-102000519D01*
X65097339Y-102183672D01*
X65174519Y-102285874D01*
X65608234Y-101852159D01*
X65639901Y-101907007D01*
X65732993Y-102000099D01*
X65787839Y-102031764D01*
X65352473Y-102467130D01*
X65371837Y-102484783D01*
X65371839Y-102484784D01*
X65545796Y-102592493D01*
X65545803Y-102592496D01*
X65736577Y-102666403D01*
X65736576Y-102666403D01*
X65937701Y-102704000D01*
X66142299Y-102704000D01*
X66343423Y-102666403D01*
X66534196Y-102592496D01*
X66534203Y-102592493D01*
X66708161Y-102484783D01*
X66727525Y-102467129D01*
X66292160Y-102031764D01*
X66347007Y-102000099D01*
X66440099Y-101907007D01*
X66471764Y-101852160D01*
X66905478Y-102285874D01*
X66905480Y-102285874D01*
X66982661Y-102183671D01*
X66982661Y-102183670D01*
X67059454Y-102029448D01*
X67107723Y-101977384D01*
X67176477Y-101959681D01*
X67243888Y-101981960D01*
X67288552Y-102037147D01*
X67290139Y-102041329D01*
X67352576Y-102183671D01*
X67377423Y-102240318D01*
X67381141Y-102248793D01*
X67504275Y-102437265D01*
X67504279Y-102437270D01*
X67656762Y-102602908D01*
X67687790Y-102627058D01*
X67834424Y-102741189D01*
X68032426Y-102848342D01*
X68032427Y-102848342D01*
X68032428Y-102848343D01*
X68126970Y-102880799D01*
X68245365Y-102921444D01*
X68467431Y-102958500D01*
X68467435Y-102958500D01*
X68692565Y-102958500D01*
X68692569Y-102958500D01*
X68914635Y-102921444D01*
X69127574Y-102848342D01*
X69325576Y-102741189D01*
X69503240Y-102602906D01*
X69655722Y-102437268D01*
X69744518Y-102301354D01*
X69798520Y-102255268D01*
X69868868Y-102245692D01*
X69933225Y-102275669D01*
X69955480Y-102301353D01*
X69988607Y-102352058D01*
X70044275Y-102437265D01*
X70044279Y-102437270D01*
X70196762Y-102602908D01*
X70227790Y-102627058D01*
X70374424Y-102741189D01*
X70572426Y-102848342D01*
X70572427Y-102848342D01*
X70572428Y-102848343D01*
X70666970Y-102880799D01*
X70785365Y-102921444D01*
X71007431Y-102958500D01*
X71007435Y-102958500D01*
X71232565Y-102958500D01*
X71232569Y-102958500D01*
X71454635Y-102921444D01*
X71454651Y-102921438D01*
X71457751Y-102920654D01*
X71459072Y-102920703D01*
X71459777Y-102920586D01*
X71459801Y-102920730D01*
X71528698Y-102923311D01*
X71577795Y-102953699D01*
X72127929Y-103503833D01*
X72216167Y-103592071D01*
X72319925Y-103661400D01*
X72435215Y-103709155D01*
X72557606Y-103733500D01*
X135823960Y-103733500D01*
X135892081Y-103753502D01*
X135924827Y-103783990D01*
X135925424Y-103784787D01*
X135946739Y-103813261D01*
X136063791Y-103900886D01*
X136063792Y-103900886D01*
X136063796Y-103900889D01*
X136105467Y-103916431D01*
X136162300Y-103958977D01*
X136187111Y-104025498D01*
X136186743Y-104047646D01*
X136186496Y-104049998D01*
X136186496Y-104050000D01*
X136190810Y-104091047D01*
X136191500Y-104104217D01*
X136191500Y-104139485D01*
X136199702Y-104180717D01*
X136201432Y-104192124D01*
X136206457Y-104239927D01*
X136206459Y-104239935D01*
X136217111Y-104272718D01*
X136220856Y-104287069D01*
X136226411Y-104314996D01*
X136226416Y-104315012D01*
X136245107Y-104360139D01*
X136248529Y-104369415D01*
X136265470Y-104421551D01*
X136265476Y-104421565D01*
X136279307Y-104445519D01*
X136286599Y-104460305D01*
X136294895Y-104480335D01*
X136294898Y-104480340D01*
X136325801Y-104526591D01*
X136330153Y-104533589D01*
X136360958Y-104586943D01*
X136360961Y-104586947D01*
X136374929Y-104602460D01*
X136386053Y-104616762D01*
X136394322Y-104629137D01*
X136438460Y-104673275D01*
X136442984Y-104678043D01*
X136488744Y-104728866D01*
X136500126Y-104737135D01*
X136515161Y-104749976D01*
X136520865Y-104755680D01*
X136578391Y-104794117D01*
X136582421Y-104796926D01*
X136643248Y-104841120D01*
X136643252Y-104841122D01*
X136649867Y-104844067D01*
X136668620Y-104854407D01*
X136669664Y-104855105D01*
X136739889Y-104884193D01*
X136742847Y-104885464D01*
X136774372Y-104899500D01*
X136817705Y-104918793D01*
X136817707Y-104918794D01*
X136817712Y-104918796D01*
X136818113Y-104918881D01*
X136828936Y-104922244D01*
X136829074Y-104921791D01*
X136835003Y-104923590D01*
X136865271Y-104929610D01*
X136916244Y-104939748D01*
X136917607Y-104940029D01*
X137004513Y-104958502D01*
X137004515Y-104958502D01*
X137202364Y-104958502D01*
X137202400Y-104958500D01*
X153579478Y-104958500D01*
X153579479Y-104958500D01*
X153755000Y-104923587D01*
X153920336Y-104855103D01*
X154069135Y-104755678D01*
X154829409Y-103995403D01*
X154891720Y-103961380D01*
X154918503Y-103958500D01*
X155052565Y-103958500D01*
X155052569Y-103958500D01*
X155274635Y-103921444D01*
X155487574Y-103848342D01*
X155685576Y-103741189D01*
X155863240Y-103602906D01*
X156015722Y-103437268D01*
X156138860Y-103248791D01*
X156229296Y-103042616D01*
X156284564Y-102824368D01*
X156303156Y-102600000D01*
X156284564Y-102375632D01*
X156284562Y-102375624D01*
X156229297Y-102157387D01*
X156229296Y-102157386D01*
X156229296Y-102157384D01*
X156138860Y-101951209D01*
X156127574Y-101933934D01*
X156015724Y-101762734D01*
X156015720Y-101762729D01*
X155899570Y-101636559D01*
X155863240Y-101597094D01*
X155863239Y-101597093D01*
X155863237Y-101597091D01*
X155775533Y-101528828D01*
X155685576Y-101458811D01*
X155487574Y-101351658D01*
X155487572Y-101351657D01*
X155487571Y-101351656D01*
X155274639Y-101278557D01*
X155274630Y-101278555D01*
X155230476Y-101271187D01*
X155052569Y-101241500D01*
X154827431Y-101241500D01*
X154680232Y-101266063D01*
X154605369Y-101278555D01*
X154605360Y-101278557D01*
X154392428Y-101351656D01*
X154392426Y-101351658D01*
X154194426Y-101458810D01*
X154194424Y-101458811D01*
X154016762Y-101597091D01*
X153864279Y-101762729D01*
X153864275Y-101762734D01*
X153741141Y-101951206D01*
X153648611Y-102162156D01*
X153647056Y-102161474D01*
X153610351Y-102213260D01*
X153544498Y-102239792D01*
X153474755Y-102226509D01*
X153423265Y-102177629D01*
X153419454Y-102170552D01*
X153342659Y-102016326D01*
X153265480Y-101914124D01*
X153265478Y-101914124D01*
X152831764Y-102347838D01*
X152800099Y-102292993D01*
X152707007Y-102199901D01*
X152652159Y-102168234D01*
X153087525Y-101732868D01*
X153068162Y-101715216D01*
X153068160Y-101715215D01*
X152894203Y-101607506D01*
X152894196Y-101607503D01*
X152703422Y-101533596D01*
X152703423Y-101533596D01*
X152502299Y-101496000D01*
X152297701Y-101496000D01*
X152096576Y-101533596D01*
X151905803Y-101607503D01*
X151905796Y-101607506D01*
X151731841Y-101715213D01*
X151731841Y-101715214D01*
X151712473Y-101732869D01*
X152147839Y-102168235D01*
X152092993Y-102199901D01*
X151999901Y-102292993D01*
X151968234Y-102347840D01*
X151534519Y-101914124D01*
X151534517Y-101914124D01*
X151457341Y-102016325D01*
X151457335Y-102016334D01*
X151380544Y-102170552D01*
X151332275Y-102222616D01*
X151263521Y-102240318D01*
X151196110Y-102218038D01*
X151151446Y-102162851D01*
X151149857Y-102158665D01*
X151149297Y-102157388D01*
X151149296Y-102157384D01*
X151058860Y-101951209D01*
X151047574Y-101933934D01*
X150935724Y-101762734D01*
X150935720Y-101762729D01*
X150819570Y-101636559D01*
X150783240Y-101597094D01*
X150783239Y-101597093D01*
X150783237Y-101597091D01*
X150695533Y-101528828D01*
X150605576Y-101458811D01*
X150407574Y-101351658D01*
X150407572Y-101351657D01*
X150407571Y-101351656D01*
X150196802Y-101279300D01*
X150194635Y-101278556D01*
X150194634Y-101278555D01*
X150191483Y-101277474D01*
X150143300Y-101247396D01*
X147103835Y-98207931D01*
X147103833Y-98207929D01*
X147000075Y-98138600D01*
X146884785Y-98090845D01*
X146811086Y-98076185D01*
X146762396Y-98066500D01*
X146762394Y-98066500D01*
X143214594Y-98066500D01*
X143146473Y-98046498D01*
X143125499Y-98029595D01*
X142903835Y-97807931D01*
X142903833Y-97807929D01*
X142800075Y-97738600D01*
X142684785Y-97690845D01*
X142611086Y-97676185D01*
X142562396Y-97666500D01*
X142562394Y-97666500D01*
X77071510Y-97666500D01*
X77003389Y-97646498D01*
X76962392Y-97603501D01*
X76944053Y-97571739D01*
X76939040Y-97563056D01*
X76939037Y-97563052D01*
X76939034Y-97563048D01*
X76811255Y-97421135D01*
X76656752Y-97308882D01*
X76482288Y-97231206D01*
X76295487Y-97191500D01*
X76104513Y-97191500D01*
X75911253Y-97232579D01*
X75910689Y-97229925D01*
X75851706Y-97231568D01*
X75794730Y-97198826D01*
X75095904Y-96500000D01*
X91486496Y-96500000D01*
X91506457Y-96689927D01*
X91521735Y-96736945D01*
X91565473Y-96871556D01*
X91565476Y-96871561D01*
X91660958Y-97036941D01*
X91660965Y-97036951D01*
X91788744Y-97178864D01*
X91788747Y-97178866D01*
X91943248Y-97291118D01*
X92117712Y-97368794D01*
X92304513Y-97408500D01*
X92495487Y-97408500D01*
X92682288Y-97368794D01*
X92716635Y-97353502D01*
X92737095Y-97344393D01*
X92788343Y-97333500D01*
X144328490Y-97333500D01*
X144396611Y-97353502D01*
X144437608Y-97396499D01*
X144451981Y-97421392D01*
X144460960Y-97436944D01*
X144460961Y-97436945D01*
X144460965Y-97436951D01*
X144588744Y-97578864D01*
X144622654Y-97603501D01*
X144743248Y-97691118D01*
X144917712Y-97768794D01*
X145104513Y-97808500D01*
X145295487Y-97808500D01*
X145482288Y-97768794D01*
X145656752Y-97691118D01*
X145811253Y-97578866D01*
X145817835Y-97571556D01*
X145939034Y-97436951D01*
X145939035Y-97436949D01*
X145939040Y-97436944D01*
X146034527Y-97271556D01*
X146093542Y-97089928D01*
X146113504Y-96900000D01*
X146093542Y-96710072D01*
X146034527Y-96528444D01*
X145939040Y-96363056D01*
X145939038Y-96363054D01*
X145939034Y-96363048D01*
X145811255Y-96221135D01*
X145656752Y-96108882D01*
X145482288Y-96031206D01*
X145295487Y-95991500D01*
X145104513Y-95991500D01*
X144917709Y-96031206D01*
X144862905Y-96055607D01*
X144811657Y-96066500D01*
X93271510Y-96066500D01*
X93203389Y-96046498D01*
X93162392Y-96003501D01*
X93139043Y-95963062D01*
X93139040Y-95963056D01*
X93139037Y-95963052D01*
X93139034Y-95963048D01*
X93011255Y-95821135D01*
X92856752Y-95708882D01*
X92682288Y-95631206D01*
X92495487Y-95591500D01*
X92304513Y-95591500D01*
X92117711Y-95631206D01*
X91943247Y-95708882D01*
X91788744Y-95821135D01*
X91660965Y-95963048D01*
X91660958Y-95963058D01*
X91565476Y-96128438D01*
X91565473Y-96128445D01*
X91506457Y-96310072D01*
X91486496Y-96500000D01*
X75095904Y-96500000D01*
X75003835Y-96407931D01*
X75003833Y-96407929D01*
X74900075Y-96338600D01*
X74784785Y-96290845D01*
X74711086Y-96276185D01*
X74662396Y-96266500D01*
X74662394Y-96266500D01*
X69562884Y-96266500D01*
X69438096Y-96266500D01*
X69438090Y-96266500D01*
X69324581Y-96289079D01*
X69300000Y-96291500D01*
X69105003Y-96291500D01*
X68918201Y-96331206D01*
X68743737Y-96408882D01*
X68589234Y-96521135D01*
X68461455Y-96663048D01*
X68461448Y-96663058D01*
X68365966Y-96828438D01*
X68365963Y-96828445D01*
X68306947Y-97010072D01*
X68286986Y-97200000D01*
X68306947Y-97389928D01*
X68366022Y-97571739D01*
X68368050Y-97642706D01*
X68331387Y-97703504D01*
X68267675Y-97734830D01*
X68266933Y-97734956D01*
X68245371Y-97738554D01*
X68245360Y-97738557D01*
X68032428Y-97811656D01*
X68032426Y-97811658D01*
X67834426Y-97918810D01*
X67834424Y-97918811D01*
X67656762Y-98057091D01*
X67504279Y-98222729D01*
X67415483Y-98358643D01*
X67361479Y-98404731D01*
X67291131Y-98414306D01*
X67226774Y-98384329D01*
X67204517Y-98358643D01*
X67115720Y-98222729D01*
X66963237Y-98057091D01*
X66878475Y-97991118D01*
X66785576Y-97918811D01*
X66587574Y-97811658D01*
X66587572Y-97811657D01*
X66587571Y-97811656D01*
X66460944Y-97768186D01*
X66403009Y-97727149D01*
X66376457Y-97661304D01*
X66389718Y-97591557D01*
X66412755Y-97559924D01*
X67977278Y-95995402D01*
X68039588Y-95961379D01*
X68066371Y-95958500D01*
X90574706Y-95958500D01*
X90674749Y-95938600D01*
X90721247Y-95929351D01*
X90859284Y-95872174D01*
X90983515Y-95789166D01*
X91577276Y-95195405D01*
X91639588Y-95161379D01*
X91666371Y-95158500D01*
X93033629Y-95158500D01*
X93101750Y-95178502D01*
X93122724Y-95195405D01*
X93516485Y-95589166D01*
X93551606Y-95612633D01*
X93640711Y-95672171D01*
X93640713Y-95672172D01*
X93640716Y-95672174D01*
X93721576Y-95705667D01*
X93778753Y-95729351D01*
X93852022Y-95743924D01*
X93852023Y-95743925D01*
X93859464Y-95745405D01*
X93925294Y-95758500D01*
X93925295Y-95758500D01*
X93925299Y-95758500D01*
X111174701Y-95758500D01*
X111174705Y-95758500D01*
X111174706Y-95758500D01*
X111247976Y-95743925D01*
X111321247Y-95729351D01*
X111348432Y-95718090D01*
X111396649Y-95708500D01*
X120000671Y-95708500D01*
X120199329Y-95708500D01*
X149130076Y-95708500D01*
X149198197Y-95728502D01*
X149219170Y-95745404D01*
X153357119Y-99883354D01*
X153522297Y-99993722D01*
X153705832Y-100069744D01*
X153900672Y-100108500D01*
X153900673Y-100108500D01*
X154099328Y-100108500D01*
X154099329Y-100108500D01*
X154294169Y-100069744D01*
X154477704Y-99993722D01*
X154642881Y-99883354D01*
X154783354Y-99742881D01*
X154893722Y-99577704D01*
X154969744Y-99394169D01*
X155008500Y-99199329D01*
X155008500Y-99000672D01*
X154969744Y-98805832D01*
X154893722Y-98622297D01*
X154783354Y-98457119D01*
X150242881Y-93916647D01*
X150077704Y-93806279D01*
X150042024Y-93791500D01*
X149894174Y-93730258D01*
X149894172Y-93730257D01*
X149894170Y-93730256D01*
X149894169Y-93730256D01*
X149796089Y-93710746D01*
X149699331Y-93691500D01*
X149699329Y-93691500D01*
X121234500Y-93691500D01*
X121166379Y-93671498D01*
X121119886Y-93617842D01*
X121108500Y-93565500D01*
X121108500Y-84656371D01*
X121128502Y-84588250D01*
X121145405Y-84567276D01*
X124360475Y-81352206D01*
X127589166Y-78123515D01*
X127672174Y-77999284D01*
X127729351Y-77861246D01*
X127740771Y-77803833D01*
X127758500Y-77714706D01*
X127758500Y-75722433D01*
X127778502Y-75654312D01*
X127832158Y-75607819D01*
X127902432Y-75597715D01*
X127910699Y-75599187D01*
X127954510Y-75608500D01*
X127954513Y-75608500D01*
X128145487Y-75608500D01*
X128332288Y-75568794D01*
X128506752Y-75491118D01*
X128661253Y-75378866D01*
X128772214Y-75255631D01*
X128832657Y-75218393D01*
X128903641Y-75219744D01*
X128954943Y-75250848D01*
X133296167Y-79592072D01*
X133399925Y-79661401D01*
X133506039Y-79705354D01*
X133551457Y-79737451D01*
X133588747Y-79778866D01*
X133743248Y-79891118D01*
X133917712Y-79968794D01*
X134104513Y-80008500D01*
X134295487Y-80008500D01*
X134482288Y-79968794D01*
X134656752Y-79891118D01*
X134811253Y-79778866D01*
X134814563Y-79775190D01*
X134875009Y-79737950D01*
X134908200Y-79733500D01*
X137585406Y-79733500D01*
X137653527Y-79753502D01*
X137674501Y-79770405D01*
X156929595Y-99025499D01*
X156963621Y-99087811D01*
X156966500Y-99114594D01*
X156966500Y-103537606D01*
X156966500Y-103662394D01*
X156990845Y-103784785D01*
X157038600Y-103900075D01*
X157107929Y-104003833D01*
X157647929Y-104543833D01*
X157736167Y-104632071D01*
X157839925Y-104701400D01*
X157955215Y-104749155D01*
X158077606Y-104773500D01*
X158390000Y-104773500D01*
X158458121Y-104793502D01*
X158504614Y-104847158D01*
X158516000Y-104899500D01*
X158516000Y-104913000D01*
X159135500Y-104913000D01*
X159203621Y-104933002D01*
X159250114Y-104986658D01*
X159261500Y-105039000D01*
X159261500Y-105081309D01*
X159241498Y-105149430D01*
X159187842Y-105195923D01*
X159117568Y-105206027D01*
X159052988Y-105176533D01*
X159046405Y-105170404D01*
X159043001Y-105167000D01*
X158516001Y-105167000D01*
X158516001Y-105315022D01*
X158530737Y-105389105D01*
X158530737Y-105389107D01*
X158586875Y-105473124D01*
X158670893Y-105529262D01*
X158670894Y-105529263D01*
X158744980Y-105543999D01*
X159042999Y-105543999D01*
X159058686Y-105528312D01*
X159120998Y-105494287D01*
X159191813Y-105499351D01*
X159248649Y-105541897D01*
X159265837Y-105573374D01*
X159319110Y-105716202D01*
X159319112Y-105716207D01*
X159406738Y-105833261D01*
X159523792Y-105920887D01*
X159523794Y-105920888D01*
X159523796Y-105920889D01*
X159551221Y-105931118D01*
X159660795Y-105971988D01*
X159660803Y-105971990D01*
X159721350Y-105978499D01*
X159721355Y-105978499D01*
X159721362Y-105978500D01*
X159721368Y-105978500D01*
X160318632Y-105978500D01*
X160318638Y-105978500D01*
X160318645Y-105978499D01*
X160318649Y-105978499D01*
X160379196Y-105971990D01*
X160379199Y-105971989D01*
X160379201Y-105971989D01*
X160516204Y-105920889D01*
X160545837Y-105898706D01*
X160565974Y-105883632D01*
X160632494Y-105858821D01*
X160641483Y-105858500D01*
X160752358Y-105858500D01*
X160820479Y-105878502D01*
X160826406Y-105882554D01*
X160893248Y-105931118D01*
X161067712Y-106008794D01*
X161254513Y-106048500D01*
X161445487Y-106048500D01*
X161632288Y-106008794D01*
X161806752Y-105931118D01*
X161818524Y-105922564D01*
X161885391Y-105898706D01*
X161892587Y-105898500D01*
X162634701Y-105898500D01*
X162634705Y-105898500D01*
X162634706Y-105898500D01*
X162707976Y-105883925D01*
X162781247Y-105869351D01*
X162919284Y-105812174D01*
X163043515Y-105729166D01*
X164989166Y-103783515D01*
X165072174Y-103659284D01*
X165082234Y-103634998D01*
X179005500Y-103634998D01*
X179035518Y-103863013D01*
X179035520Y-103863020D01*
X179095046Y-104085176D01*
X179183060Y-104297661D01*
X179183061Y-104297662D01*
X179183066Y-104297673D01*
X179298053Y-104496836D01*
X179298055Y-104496839D01*
X179298056Y-104496840D01*
X179438066Y-104679305D01*
X179438070Y-104679309D01*
X179438075Y-104679315D01*
X179600684Y-104841924D01*
X179600689Y-104841928D01*
X179600695Y-104841934D01*
X179752610Y-104958502D01*
X179783163Y-104981946D01*
X179982326Y-105096933D01*
X179982330Y-105096934D01*
X179982339Y-105096940D01*
X180194824Y-105184954D01*
X180416980Y-105244480D01*
X180416984Y-105244480D01*
X180416986Y-105244481D01*
X180475752Y-105252217D01*
X180645004Y-105274500D01*
X180645011Y-105274500D01*
X180874989Y-105274500D01*
X180874996Y-105274500D01*
X181081073Y-105247369D01*
X181103013Y-105244481D01*
X181103013Y-105244480D01*
X181103020Y-105244480D01*
X181325176Y-105184954D01*
X181537661Y-105096940D01*
X181736840Y-104981944D01*
X181919305Y-104841934D01*
X182081934Y-104679305D01*
X182221944Y-104496840D01*
X182336940Y-104297661D01*
X182424954Y-104085176D01*
X182484480Y-103863020D01*
X182514500Y-103634996D01*
X182514500Y-103405004D01*
X182490841Y-103225295D01*
X182484481Y-103176986D01*
X182484480Y-103176984D01*
X182484480Y-103176980D01*
X182424954Y-102954824D01*
X182336940Y-102742339D01*
X182336934Y-102742330D01*
X182336933Y-102742326D01*
X182221946Y-102543163D01*
X182221944Y-102543160D01*
X182081934Y-102360695D01*
X182081928Y-102360689D01*
X182081924Y-102360684D01*
X181919315Y-102198075D01*
X181919309Y-102198070D01*
X181919305Y-102198066D01*
X181736840Y-102058056D01*
X181736839Y-102058055D01*
X181736836Y-102058053D01*
X181537673Y-101943066D01*
X181537665Y-101943062D01*
X181537661Y-101943060D01*
X181325176Y-101855046D01*
X181136889Y-101804595D01*
X181103013Y-101795518D01*
X180874998Y-101765500D01*
X180874996Y-101765500D01*
X180645004Y-101765500D01*
X180645001Y-101765500D01*
X180416986Y-101795518D01*
X180243240Y-101842073D01*
X180194824Y-101855046D01*
X180004372Y-101933934D01*
X179982337Y-101943061D01*
X179982326Y-101943066D01*
X179783163Y-102058053D01*
X179600695Y-102198066D01*
X179600684Y-102198075D01*
X179438075Y-102360684D01*
X179438066Y-102360695D01*
X179298053Y-102543163D01*
X179183066Y-102742326D01*
X179183061Y-102742337D01*
X179183060Y-102742339D01*
X179149083Y-102824368D01*
X179095046Y-102954824D01*
X179035518Y-103176986D01*
X179005500Y-103405001D01*
X179005500Y-103634998D01*
X165082234Y-103634998D01*
X165129351Y-103521247D01*
X165158500Y-103374705D01*
X165158500Y-103225295D01*
X165158500Y-99587792D01*
X165175382Y-99524791D01*
X165206114Y-99471561D01*
X165206113Y-99471561D01*
X165206117Y-99471556D01*
X165265132Y-99289928D01*
X165285094Y-99100000D01*
X165265132Y-98910072D01*
X165206117Y-98728444D01*
X165179873Y-98682988D01*
X165175381Y-98675207D01*
X165158500Y-98612207D01*
X165158500Y-87966371D01*
X165178502Y-87898250D01*
X165195405Y-87877276D01*
X169877276Y-83195405D01*
X169939588Y-83161379D01*
X169966371Y-83158500D01*
X184452497Y-83158500D01*
X184520618Y-83178502D01*
X184567111Y-83232158D01*
X184577215Y-83302432D01*
X184547721Y-83367012D01*
X184541592Y-83373595D01*
X182660592Y-85254595D01*
X182598280Y-85288621D01*
X182571497Y-85291500D01*
X170210518Y-85291500D01*
X170034999Y-85326413D01*
X170034994Y-85326415D01*
X169869664Y-85394897D01*
X169720865Y-85494321D01*
X169720859Y-85494326D01*
X166934326Y-88280859D01*
X166934321Y-88280865D01*
X166834897Y-88429664D01*
X166789106Y-88540214D01*
X166766415Y-88594993D01*
X166766413Y-88595001D01*
X166731500Y-88770518D01*
X166731500Y-97991915D01*
X166711498Y-98060036D01*
X166698201Y-98077253D01*
X166564280Y-98222729D01*
X166564275Y-98222734D01*
X166441141Y-98411206D01*
X166350703Y-98617386D01*
X166350702Y-98617387D01*
X166295437Y-98835624D01*
X166295436Y-98835630D01*
X166295436Y-98835632D01*
X166276844Y-99060000D01*
X166293955Y-99266500D01*
X166295437Y-99284375D01*
X166350702Y-99502612D01*
X166350703Y-99502613D01*
X166350704Y-99502616D01*
X166422590Y-99666500D01*
X166441141Y-99708793D01*
X166564275Y-99897265D01*
X166564279Y-99897270D01*
X166716762Y-100062908D01*
X166737265Y-100078866D01*
X166894424Y-100201189D01*
X167092426Y-100308342D01*
X167092427Y-100308342D01*
X167092428Y-100308343D01*
X167130710Y-100321485D01*
X167203815Y-100346582D01*
X167261749Y-100387618D01*
X167288301Y-100453462D01*
X167275040Y-100523209D01*
X167226176Y-100574715D01*
X167208420Y-100583245D01*
X167145800Y-100607504D01*
X167145796Y-100607506D01*
X166971841Y-100715213D01*
X166971841Y-100715214D01*
X166952473Y-100732869D01*
X167387839Y-101168235D01*
X167332993Y-101199901D01*
X167239901Y-101292993D01*
X167208235Y-101347839D01*
X166774520Y-100914124D01*
X166774517Y-100914124D01*
X166697341Y-101016325D01*
X166697335Y-101016334D01*
X166606143Y-101199471D01*
X166606138Y-101199485D01*
X166550148Y-101396269D01*
X166531270Y-101600000D01*
X166550148Y-101803730D01*
X166606138Y-102000514D01*
X166606140Y-102000519D01*
X166697339Y-102183672D01*
X166774519Y-102285874D01*
X167208234Y-101852159D01*
X167239901Y-101907007D01*
X167332993Y-102000099D01*
X167387839Y-102031764D01*
X166952473Y-102467130D01*
X166971837Y-102484783D01*
X166971839Y-102484784D01*
X167145796Y-102592493D01*
X167145803Y-102592496D01*
X167336577Y-102666403D01*
X167336576Y-102666403D01*
X167537701Y-102704000D01*
X167742299Y-102704000D01*
X167943423Y-102666403D01*
X168134196Y-102592496D01*
X168134203Y-102592493D01*
X168308161Y-102484783D01*
X168327525Y-102467129D01*
X167892160Y-102031764D01*
X167947007Y-102000099D01*
X168040099Y-101907007D01*
X168071764Y-101852160D01*
X168505478Y-102285874D01*
X168505480Y-102285874D01*
X168582661Y-102183671D01*
X168582661Y-102183670D01*
X168659454Y-102029448D01*
X168707723Y-101977384D01*
X168776477Y-101959681D01*
X168843888Y-101981960D01*
X168888552Y-102037147D01*
X168890139Y-102041329D01*
X168952576Y-102183671D01*
X168977423Y-102240318D01*
X168981141Y-102248793D01*
X169104275Y-102437265D01*
X169104279Y-102437270D01*
X169256762Y-102602908D01*
X169287790Y-102627058D01*
X169434424Y-102741189D01*
X169632426Y-102848342D01*
X169632427Y-102848342D01*
X169632428Y-102848343D01*
X169726970Y-102880799D01*
X169845365Y-102921444D01*
X170067431Y-102958500D01*
X170067435Y-102958500D01*
X170292565Y-102958500D01*
X170292569Y-102958500D01*
X170514635Y-102921444D01*
X170727574Y-102848342D01*
X170925576Y-102741189D01*
X171103240Y-102602906D01*
X171255722Y-102437268D01*
X171344518Y-102301354D01*
X171398520Y-102255268D01*
X171468868Y-102245692D01*
X171533225Y-102275669D01*
X171555480Y-102301353D01*
X171588607Y-102352058D01*
X171644275Y-102437265D01*
X171644279Y-102437270D01*
X171796762Y-102602908D01*
X171827790Y-102627058D01*
X171974424Y-102741189D01*
X172172426Y-102848342D01*
X172172427Y-102848342D01*
X172172428Y-102848343D01*
X172266970Y-102880799D01*
X172385365Y-102921444D01*
X172607431Y-102958500D01*
X172607435Y-102958500D01*
X172832565Y-102958500D01*
X172832569Y-102958500D01*
X173054635Y-102921444D01*
X173267574Y-102848342D01*
X173465576Y-102741189D01*
X173643240Y-102602906D01*
X173795722Y-102437268D01*
X173918860Y-102248791D01*
X174009296Y-102042616D01*
X174064564Y-101824368D01*
X174083156Y-101600000D01*
X174064564Y-101375632D01*
X174036817Y-101266062D01*
X174039484Y-101195116D01*
X174069862Y-101146040D01*
X177453072Y-97762833D01*
X177522401Y-97659075D01*
X177560404Y-97567325D01*
X177570155Y-97543785D01*
X177594500Y-97421394D01*
X177594500Y-93021370D01*
X177611381Y-92958370D01*
X177615027Y-92952056D01*
X177674042Y-92770428D01*
X177694004Y-92580500D01*
X177674042Y-92390572D01*
X177615027Y-92208944D01*
X177519540Y-92043556D01*
X177519538Y-92043554D01*
X177519534Y-92043548D01*
X177391755Y-91901635D01*
X177237252Y-91789382D01*
X177062788Y-91711706D01*
X176875987Y-91672000D01*
X176685013Y-91672000D01*
X176498211Y-91711706D01*
X176323747Y-91789382D01*
X176169244Y-91901635D01*
X176041465Y-92043548D01*
X176041458Y-92043558D01*
X175945976Y-92208938D01*
X175945973Y-92208945D01*
X175886957Y-92390572D01*
X175866996Y-92580500D01*
X175886957Y-92770427D01*
X175917026Y-92862970D01*
X175945973Y-92952056D01*
X175945976Y-92952061D01*
X176041458Y-93117441D01*
X176041465Y-93117451D01*
X176169243Y-93259363D01*
X176169246Y-93259365D01*
X176169247Y-93259366D01*
X176275562Y-93336608D01*
X176318915Y-93392829D01*
X176327500Y-93438543D01*
X176327500Y-97044404D01*
X176307498Y-97112525D01*
X176290595Y-97133499D01*
X174293594Y-99130500D01*
X174231282Y-99164526D01*
X174160467Y-99159461D01*
X174103631Y-99116914D01*
X174078820Y-99050394D01*
X174078499Y-99041405D01*
X174078499Y-98649595D01*
X174098501Y-98581474D01*
X174115404Y-98560499D01*
X174424433Y-98251470D01*
X174792071Y-97883833D01*
X174861400Y-97780075D01*
X174909155Y-97664785D01*
X174916725Y-97626727D01*
X174933500Y-97542394D01*
X174933500Y-96902524D01*
X174953502Y-96834403D01*
X174965858Y-96818220D01*
X175039040Y-96736944D01*
X175134527Y-96571556D01*
X175193542Y-96389928D01*
X175213504Y-96200000D01*
X175193542Y-96010072D01*
X175134527Y-95828444D01*
X175039040Y-95663056D01*
X175039038Y-95663054D01*
X175039034Y-95663048D01*
X174911255Y-95521135D01*
X174756752Y-95408882D01*
X174582288Y-95331206D01*
X174395487Y-95291500D01*
X174204513Y-95291500D01*
X174017711Y-95331206D01*
X173843247Y-95408882D01*
X173688744Y-95521135D01*
X173560965Y-95663048D01*
X173560958Y-95663058D01*
X173465476Y-95828438D01*
X173465473Y-95828445D01*
X173406457Y-96010072D01*
X173386496Y-96200000D01*
X173406457Y-96389927D01*
X173413582Y-96411854D01*
X173465473Y-96571556D01*
X173465476Y-96571561D01*
X173546189Y-96711361D01*
X173560960Y-96736944D01*
X173634137Y-96818215D01*
X173664853Y-96882220D01*
X173666500Y-96902524D01*
X173666500Y-97165404D01*
X173646498Y-97233525D01*
X173629595Y-97254499D01*
X173219499Y-97664595D01*
X173157187Y-97698621D01*
X173130404Y-97701500D01*
X172304500Y-97701500D01*
X172236379Y-97681498D01*
X172189886Y-97627842D01*
X172178500Y-97575500D01*
X172178500Y-91502524D01*
X172198502Y-91434403D01*
X172210858Y-91418220D01*
X172284040Y-91336944D01*
X172365126Y-91196500D01*
X172416509Y-91147507D01*
X172474245Y-91133500D01*
X185185406Y-91133500D01*
X185253527Y-91153502D01*
X185274501Y-91170405D01*
X185996167Y-91892071D01*
X186099925Y-91961400D01*
X186215215Y-92009155D01*
X186337606Y-92033500D01*
X186337607Y-92033500D01*
X189562393Y-92033500D01*
X189562394Y-92033500D01*
X189684785Y-92009155D01*
X189800075Y-91961400D01*
X189903833Y-91892071D01*
X200492071Y-81303833D01*
X200561400Y-81200075D01*
X200609155Y-81084785D01*
X200633500Y-80962394D01*
X200633500Y-80837607D01*
X200633500Y-74437606D01*
X200609155Y-74315215D01*
X200561400Y-74199925D01*
X200492071Y-74096167D01*
X200403833Y-74007929D01*
X199634999Y-73239095D01*
X199600973Y-73176783D01*
X199606038Y-73105968D01*
X199634999Y-73060905D01*
X203062405Y-69633500D01*
X206525500Y-66170405D01*
X206587812Y-66136379D01*
X206614595Y-66133500D01*
X208882393Y-66133500D01*
X208882394Y-66133500D01*
X209004785Y-66109155D01*
X209120075Y-66061400D01*
X209223833Y-65992071D01*
X210362206Y-64853696D01*
X210424515Y-64819674D01*
X210480218Y-64820616D01*
X210480224Y-64820586D01*
X210480430Y-64820620D01*
X210482236Y-64820651D01*
X210485356Y-64821441D01*
X210485365Y-64821444D01*
X210707431Y-64858500D01*
X210707435Y-64858500D01*
X210932565Y-64858500D01*
X210932569Y-64858500D01*
X211154635Y-64821444D01*
X211367574Y-64748342D01*
X211565576Y-64641189D01*
X211743240Y-64502906D01*
X211895722Y-64337268D01*
X211984518Y-64201354D01*
X212038520Y-64155268D01*
X212108868Y-64145692D01*
X212173225Y-64175669D01*
X212195480Y-64201353D01*
X212228607Y-64252058D01*
X212284275Y-64337265D01*
X212284279Y-64337270D01*
X212346342Y-64404687D01*
X212432420Y-64498192D01*
X212436762Y-64502908D01*
X212491331Y-64545381D01*
X212614424Y-64641189D01*
X212812426Y-64748342D01*
X212812427Y-64748342D01*
X212812428Y-64748343D01*
X212879877Y-64771498D01*
X213025365Y-64821444D01*
X213247431Y-64858500D01*
X213247435Y-64858500D01*
X213472565Y-64858500D01*
X213472569Y-64858500D01*
X213694635Y-64821444D01*
X213907574Y-64748342D01*
X214105576Y-64641189D01*
X214283240Y-64502906D01*
X214435722Y-64337268D01*
X214558860Y-64148791D01*
X214649296Y-63942616D01*
X214704564Y-63724368D01*
X214723156Y-63500000D01*
X214704564Y-63275632D01*
X214673914Y-63154598D01*
X214649297Y-63057387D01*
X214649296Y-63057386D01*
X214649296Y-63057384D01*
X214558860Y-62851209D01*
X214546084Y-62831654D01*
X214435724Y-62662734D01*
X214435720Y-62662729D01*
X214283236Y-62497090D01*
X214248436Y-62470004D01*
X214206966Y-62412379D01*
X214203233Y-62341480D01*
X214238423Y-62279819D01*
X214276763Y-62256669D01*
X214276086Y-62255217D01*
X214282728Y-62252118D01*
X214282738Y-62252115D01*
X214433652Y-62159030D01*
X214559030Y-62033652D01*
X214652115Y-61882738D01*
X214707887Y-61714426D01*
X214718500Y-61610545D01*
X214718499Y-60960000D01*
X234714357Y-60960000D01*
X234732949Y-61184375D01*
X234734893Y-61207828D01*
X234795935Y-61448877D01*
X234795938Y-61448884D01*
X234895826Y-61676606D01*
X235031835Y-61884785D01*
X235200249Y-62067732D01*
X235200254Y-62067736D01*
X235200256Y-62067738D01*
X235370190Y-62200003D01*
X235396490Y-62220473D01*
X235396491Y-62220474D01*
X235615190Y-62338828D01*
X235615192Y-62338829D01*
X235722125Y-62375539D01*
X235850386Y-62419571D01*
X236095665Y-62460500D01*
X236095669Y-62460500D01*
X236344331Y-62460500D01*
X236344335Y-62460500D01*
X236589614Y-62419571D01*
X236824810Y-62338828D01*
X237043509Y-62220474D01*
X237239744Y-62067738D01*
X237250219Y-62056360D01*
X237408164Y-61884785D01*
X237461410Y-61803286D01*
X237544173Y-61676607D01*
X237644063Y-61448881D01*
X237705108Y-61207821D01*
X237725643Y-60960000D01*
X237705108Y-60712179D01*
X237699706Y-60690846D01*
X237644064Y-60471122D01*
X237644061Y-60471115D01*
X237625976Y-60429886D01*
X237593772Y-60356467D01*
X237544173Y-60243392D01*
X237408164Y-60035214D01*
X237239750Y-59852267D01*
X237122458Y-59760975D01*
X237043509Y-59699526D01*
X237043508Y-59699525D01*
X236824809Y-59581171D01*
X236824807Y-59581170D01*
X236589618Y-59500430D01*
X236589609Y-59500428D01*
X236540836Y-59492289D01*
X236344335Y-59459500D01*
X236095665Y-59459500D01*
X235931953Y-59486818D01*
X235850390Y-59500428D01*
X235850381Y-59500430D01*
X235615192Y-59581170D01*
X235615190Y-59581171D01*
X235396491Y-59699525D01*
X235396490Y-59699526D01*
X235200249Y-59852267D01*
X235031835Y-60035214D01*
X234895827Y-60243392D01*
X234895826Y-60243392D01*
X234795938Y-60471115D01*
X234795935Y-60471122D01*
X234734893Y-60712171D01*
X234734892Y-60712177D01*
X234734892Y-60712179D01*
X234714357Y-60960000D01*
X214718499Y-60960000D01*
X214718499Y-60309456D01*
X214716306Y-60287993D01*
X214707887Y-60205574D01*
X214679553Y-60120067D01*
X214652115Y-60037262D01*
X214559030Y-59886348D01*
X214559029Y-59886347D01*
X214559024Y-59886341D01*
X214433658Y-59760975D01*
X214433652Y-59760970D01*
X214282738Y-59667885D01*
X214188569Y-59636681D01*
X214114427Y-59612113D01*
X214114420Y-59612112D01*
X214010553Y-59601500D01*
X212709455Y-59601500D01*
X212605574Y-59612112D01*
X212437261Y-59667885D01*
X212286347Y-59760970D01*
X212286341Y-59760975D01*
X212160975Y-59886341D01*
X212160970Y-59886347D01*
X212143378Y-59914869D01*
X212069149Y-60035214D01*
X212067883Y-60037266D01*
X212064783Y-60043914D01*
X212062878Y-60043025D01*
X212028389Y-60092822D01*
X211962828Y-60120067D01*
X211892945Y-60107541D01*
X211856515Y-60080142D01*
X211743237Y-59957091D01*
X211661382Y-59893381D01*
X211565576Y-59818811D01*
X211367574Y-59711658D01*
X211367572Y-59711657D01*
X211367571Y-59711656D01*
X211154639Y-59638557D01*
X211154630Y-59638555D01*
X211110476Y-59631187D01*
X210932569Y-59601500D01*
X210707431Y-59601500D01*
X210559211Y-59626233D01*
X210485369Y-59638555D01*
X210485360Y-59638557D01*
X210272428Y-59711656D01*
X210272426Y-59711658D01*
X210074426Y-59818810D01*
X210074424Y-59818811D01*
X209896762Y-59957091D01*
X209744279Y-60122729D01*
X209655483Y-60258643D01*
X209601479Y-60304731D01*
X209531131Y-60314306D01*
X209466774Y-60284329D01*
X209444517Y-60258643D01*
X209355720Y-60122729D01*
X209203237Y-59957091D01*
X209121382Y-59893381D01*
X209025576Y-59818811D01*
X208827574Y-59711658D01*
X208827572Y-59711657D01*
X208827571Y-59711656D01*
X208614639Y-59638557D01*
X208614630Y-59638555D01*
X208570476Y-59631187D01*
X208392569Y-59601500D01*
X208167431Y-59601500D01*
X208019211Y-59626233D01*
X207945369Y-59638555D01*
X207945360Y-59638557D01*
X207732428Y-59711656D01*
X207732426Y-59711658D01*
X207534426Y-59818810D01*
X207534424Y-59818811D01*
X207356762Y-59957091D01*
X207307285Y-60010838D01*
X207246431Y-60047409D01*
X207214584Y-60051500D01*
X204250515Y-60051500D01*
X204221400Y-60057291D01*
X204221399Y-60057292D01*
X204129531Y-60075566D01*
X204075000Y-60086413D01*
X203909664Y-60154898D01*
X203777222Y-60243393D01*
X203760868Y-60254319D01*
X203760859Y-60254327D01*
X188194326Y-75820859D01*
X188194321Y-75820865D01*
X188094897Y-75969664D01*
X188034608Y-76115212D01*
X188034609Y-76115213D01*
X188026414Y-76134997D01*
X188026413Y-76135000D01*
X187991500Y-76310518D01*
X187991500Y-76957863D01*
X187971498Y-77025984D01*
X187917842Y-77072477D01*
X187865500Y-77083863D01*
X187125655Y-77083863D01*
X187065108Y-77090372D01*
X187065100Y-77090374D01*
X186928104Y-77141472D01*
X186925391Y-77142954D01*
X186921406Y-77143970D01*
X186919658Y-77144623D01*
X186919587Y-77144434D01*
X186865011Y-77158363D01*
X186851304Y-77158363D01*
X186842279Y-77167387D01*
X186831303Y-77204771D01*
X186814400Y-77225745D01*
X186813400Y-77226745D01*
X186751088Y-77260771D01*
X186680273Y-77255706D01*
X186635210Y-77226745D01*
X186634210Y-77225745D01*
X186600184Y-77163433D01*
X186599919Y-77160976D01*
X186597306Y-77158363D01*
X186583599Y-77158363D01*
X186529022Y-77144434D01*
X186528952Y-77144623D01*
X186527203Y-77143970D01*
X186523219Y-77142954D01*
X186520505Y-77141472D01*
X186383509Y-77090374D01*
X186383501Y-77090372D01*
X186322954Y-77083863D01*
X186322943Y-77083863D01*
X185425667Y-77083863D01*
X185425655Y-77083863D01*
X185365108Y-77090372D01*
X185365100Y-77090374D01*
X185228102Y-77141473D01*
X185228097Y-77141475D01*
X185171652Y-77183731D01*
X185105132Y-77208542D01*
X185096143Y-77208863D01*
X183565837Y-77208863D01*
X183497716Y-77188861D01*
X183472200Y-77167173D01*
X183468889Y-77163496D01*
X183314389Y-77051245D01*
X183139925Y-76973569D01*
X182953124Y-76933863D01*
X182762150Y-76933863D01*
X182575348Y-76973569D01*
X182400884Y-77051245D01*
X182246384Y-77163496D01*
X182243074Y-77167173D01*
X182182628Y-77204413D01*
X182149437Y-77208863D01*
X169095237Y-77208863D01*
X168972854Y-77233207D01*
X168972846Y-77233209D01*
X168939084Y-77247193D01*
X168939084Y-77247194D01*
X168918535Y-77255706D01*
X168857562Y-77280962D01*
X168753808Y-77350288D01*
X168753801Y-77350293D01*
X160396167Y-85707929D01*
X160307931Y-85796164D01*
X160307926Y-85796171D01*
X160240917Y-85896458D01*
X160238600Y-85899925D01*
X160237270Y-85903136D01*
X160190846Y-86015212D01*
X160166500Y-86137603D01*
X160166500Y-97029677D01*
X160146498Y-97097798D01*
X160092842Y-97144291D01*
X160022568Y-97154395D01*
X159957988Y-97124901D01*
X159919604Y-97065175D01*
X159916921Y-97054259D01*
X159909155Y-97015215D01*
X159861400Y-96899925D01*
X159792071Y-96796167D01*
X159703833Y-96707929D01*
X139053833Y-76057929D01*
X138950075Y-75988600D01*
X138834785Y-75940845D01*
X138761086Y-75926185D01*
X138712396Y-75916500D01*
X138712394Y-75916500D01*
X134958200Y-75916500D01*
X134890079Y-75896498D01*
X134864563Y-75874810D01*
X134861252Y-75871133D01*
X134706752Y-75758882D01*
X134532288Y-75681206D01*
X134345487Y-75641500D01*
X134289594Y-75641500D01*
X134221473Y-75621498D01*
X134200499Y-75604595D01*
X130863835Y-72267931D01*
X130863833Y-72267929D01*
X130760075Y-72198600D01*
X130644785Y-72150845D01*
X130567168Y-72135406D01*
X130522396Y-72126500D01*
X130522394Y-72126500D01*
X128628162Y-72126500D01*
X128560041Y-72106498D01*
X128552653Y-72101368D01*
X128496207Y-72059112D01*
X128496202Y-72059110D01*
X128359204Y-72008011D01*
X128359196Y-72008009D01*
X128298649Y-72001500D01*
X128298638Y-72001500D01*
X127401362Y-72001500D01*
X127401350Y-72001500D01*
X127340803Y-72008009D01*
X127340795Y-72008011D01*
X127203799Y-72059109D01*
X127201086Y-72060591D01*
X127197101Y-72061607D01*
X127195353Y-72062260D01*
X127195282Y-72062071D01*
X127140706Y-72076000D01*
X127126999Y-72076000D01*
X127117974Y-72085024D01*
X127106998Y-72122408D01*
X127090095Y-72143382D01*
X127089095Y-72144382D01*
X127026783Y-72178408D01*
X126955968Y-72173343D01*
X126910905Y-72144382D01*
X126909905Y-72143382D01*
X126875879Y-72081070D01*
X126875614Y-72078613D01*
X126873001Y-72076000D01*
X126859294Y-72076000D01*
X126804716Y-72062071D01*
X126804646Y-72062260D01*
X126802895Y-72061607D01*
X126798914Y-72060591D01*
X126796202Y-72059110D01*
X126765466Y-72047646D01*
X126708631Y-72005099D01*
X126683821Y-71938578D01*
X126683500Y-71929591D01*
X126683500Y-68187607D01*
X126683499Y-68187603D01*
X126659155Y-68065215D01*
X126634256Y-68005103D01*
X126611401Y-67949925D01*
X126542072Y-67846167D01*
X124447121Y-65751216D01*
X124413095Y-65688904D01*
X124410908Y-65675306D01*
X124393542Y-65510072D01*
X124334527Y-65328444D01*
X124239040Y-65163056D01*
X124239038Y-65163054D01*
X124239034Y-65163048D01*
X124111255Y-65021135D01*
X123956752Y-64908882D01*
X123782288Y-64831206D01*
X123595487Y-64791500D01*
X123539594Y-64791500D01*
X123471473Y-64771498D01*
X123450499Y-64754595D01*
X120844499Y-62148595D01*
X120810473Y-62086283D01*
X120815538Y-62015468D01*
X120858085Y-61958632D01*
X120924605Y-61933821D01*
X120933594Y-61933500D01*
X122385406Y-61933500D01*
X122453527Y-61953502D01*
X122474501Y-61970405D01*
X135107929Y-74603833D01*
X135196167Y-74692071D01*
X135299925Y-74761400D01*
X135415215Y-74809155D01*
X135537606Y-74833500D01*
X139385406Y-74833500D01*
X139453527Y-74853502D01*
X139474501Y-74870405D01*
X150352877Y-85748781D01*
X150386903Y-85811093D01*
X150389092Y-85824705D01*
X150406457Y-85989927D01*
X150433238Y-86072347D01*
X150465473Y-86171556D01*
X150465476Y-86171561D01*
X150560958Y-86336941D01*
X150560965Y-86336951D01*
X150688744Y-86478864D01*
X150712560Y-86496167D01*
X150843248Y-86591118D01*
X151017712Y-86668794D01*
X151204513Y-86708500D01*
X151395487Y-86708500D01*
X151582288Y-86668794D01*
X151756752Y-86591118D01*
X151911253Y-86478866D01*
X151911255Y-86478864D01*
X152039034Y-86336951D01*
X152039035Y-86336949D01*
X152039040Y-86336944D01*
X152134527Y-86171556D01*
X152193542Y-85989928D01*
X152213504Y-85800000D01*
X152193542Y-85610072D01*
X152134527Y-85428444D01*
X152039040Y-85263056D01*
X152039038Y-85263054D01*
X152039034Y-85263048D01*
X151911255Y-85121135D01*
X151756752Y-85008882D01*
X151582288Y-84931206D01*
X151395487Y-84891500D01*
X151339594Y-84891500D01*
X151271473Y-84871498D01*
X151250499Y-84854595D01*
X140103835Y-73707931D01*
X140103833Y-73707929D01*
X140000075Y-73638600D01*
X139884785Y-73590845D01*
X139811086Y-73576185D01*
X139762396Y-73566500D01*
X139762394Y-73566500D01*
X135914594Y-73566500D01*
X135846473Y-73546498D01*
X135825499Y-73529595D01*
X123103835Y-60807931D01*
X123103833Y-60807929D01*
X123000075Y-60738600D01*
X122884785Y-60690845D01*
X122794343Y-60672855D01*
X122770333Y-60668079D01*
X122707424Y-60635171D01*
X122672292Y-60573476D01*
X122676092Y-60502581D01*
X122717618Y-60444995D01*
X122783685Y-60419001D01*
X122794915Y-60418500D01*
X123870406Y-60418500D01*
X123938527Y-60438502D01*
X123959501Y-60455405D01*
X135807929Y-72303833D01*
X135896167Y-72392071D01*
X135999925Y-72461400D01*
X136115215Y-72509155D01*
X136237606Y-72533500D01*
X140385406Y-72533500D01*
X140453527Y-72553502D01*
X140474501Y-72570405D01*
X151552877Y-83648781D01*
X151586903Y-83711093D01*
X151589092Y-83724705D01*
X151606457Y-83889927D01*
X151636526Y-83982470D01*
X151665473Y-84071556D01*
X151665476Y-84071561D01*
X151760958Y-84236941D01*
X151760965Y-84236951D01*
X151888744Y-84378864D01*
X151949999Y-84423368D01*
X152043248Y-84491118D01*
X152217712Y-84568794D01*
X152404513Y-84608500D01*
X152595487Y-84608500D01*
X152782288Y-84568794D01*
X152956752Y-84491118D01*
X153111253Y-84378866D01*
X153127594Y-84360718D01*
X153239034Y-84236951D01*
X153239035Y-84236949D01*
X153239040Y-84236944D01*
X153334527Y-84071556D01*
X153393542Y-83889928D01*
X153413504Y-83700000D01*
X153393542Y-83510072D01*
X153334527Y-83328444D01*
X153239040Y-83163056D01*
X153239038Y-83163054D01*
X153239034Y-83163048D01*
X153111255Y-83021135D01*
X152956752Y-82908882D01*
X152782288Y-82831206D01*
X152595487Y-82791500D01*
X152539594Y-82791500D01*
X152471473Y-82771498D01*
X152450499Y-82754595D01*
X141103835Y-71407931D01*
X141103833Y-71407929D01*
X141000075Y-71338600D01*
X140884785Y-71290845D01*
X140811086Y-71276185D01*
X140762396Y-71266500D01*
X140762394Y-71266500D01*
X136614594Y-71266500D01*
X136546473Y-71246498D01*
X136525499Y-71229595D01*
X128699884Y-63403980D01*
X128665858Y-63341668D01*
X128670923Y-63270853D01*
X128713470Y-63214017D01*
X128770941Y-63191701D01*
X128770739Y-63190683D01*
X128776535Y-63189529D01*
X128776635Y-63189491D01*
X128776813Y-63189473D01*
X128966074Y-63132062D01*
X129140485Y-63038837D01*
X129140490Y-63038834D01*
X129194721Y-62994326D01*
X128758955Y-62558560D01*
X128825606Y-62520080D01*
X128900080Y-62445606D01*
X128938560Y-62378956D01*
X129374325Y-62814721D01*
X129418834Y-62760490D01*
X129418837Y-62760485D01*
X129512062Y-62586074D01*
X129569474Y-62396809D01*
X129588858Y-62200003D01*
X129588858Y-62200000D01*
X130716693Y-62200000D01*
X130735885Y-62419371D01*
X130762870Y-62520080D01*
X130792879Y-62632073D01*
X130792881Y-62632079D01*
X130878048Y-62814721D01*
X130885944Y-62831654D01*
X130971928Y-62954451D01*
X131012251Y-63012038D01*
X131012254Y-63012042D01*
X131167957Y-63167745D01*
X131167961Y-63167748D01*
X131167962Y-63167749D01*
X131348346Y-63294056D01*
X131547924Y-63387120D01*
X131760629Y-63444115D01*
X131980000Y-63463307D01*
X132199371Y-63444115D01*
X132412076Y-63387120D01*
X132611654Y-63294056D01*
X132792038Y-63167749D01*
X132947749Y-63012038D01*
X133074056Y-62831654D01*
X133167120Y-62632076D01*
X133224115Y-62419371D01*
X133243307Y-62200000D01*
X133224115Y-61980629D01*
X133167120Y-61767924D01*
X133074056Y-61568347D01*
X132947749Y-61387962D01*
X132792038Y-61232251D01*
X132611654Y-61105944D01*
X132611650Y-61105942D01*
X132412079Y-61012881D01*
X132412073Y-61012879D01*
X132312891Y-60986303D01*
X132199371Y-60955885D01*
X131980000Y-60936693D01*
X131760629Y-60955885D01*
X131547926Y-61012879D01*
X131547920Y-61012881D01*
X131348346Y-61105944D01*
X131167965Y-61232248D01*
X131167959Y-61232253D01*
X131012253Y-61387959D01*
X131012248Y-61387965D01*
X130885944Y-61568346D01*
X130792881Y-61767920D01*
X130792879Y-61767926D01*
X130748513Y-61933500D01*
X130735885Y-61980629D01*
X130716693Y-62200000D01*
X129588858Y-62200000D01*
X129588858Y-62199996D01*
X129569474Y-62003190D01*
X129512062Y-61813925D01*
X129418834Y-61639508D01*
X129374327Y-61585277D01*
X128938560Y-62021043D01*
X128900080Y-61954394D01*
X128825606Y-61879920D01*
X128758955Y-61841439D01*
X129194721Y-61405672D01*
X129140491Y-61361165D01*
X128966074Y-61267937D01*
X128776809Y-61210525D01*
X128580003Y-61191142D01*
X128579997Y-61191142D01*
X128383190Y-61210525D01*
X128193925Y-61267937D01*
X128019508Y-61361165D01*
X127965276Y-61405672D01*
X128401043Y-61841439D01*
X128334394Y-61879920D01*
X128259920Y-61954394D01*
X128221439Y-62021045D01*
X127785671Y-61585277D01*
X127741165Y-61639508D01*
X127647937Y-61813925D01*
X127590525Y-62003191D01*
X127590506Y-62003385D01*
X127590466Y-62003481D01*
X127589317Y-62009261D01*
X127588220Y-62009042D01*
X127563915Y-62069214D01*
X127505956Y-62110217D01*
X127435029Y-62113376D01*
X127376019Y-62080115D01*
X124588835Y-59292931D01*
X124588833Y-59292929D01*
X124485075Y-59223600D01*
X124369785Y-59175845D01*
X124296086Y-59161185D01*
X124247396Y-59151500D01*
X124247394Y-59151500D01*
X107917394Y-59151500D01*
X107792606Y-59151500D01*
X107792603Y-59151500D01*
X107719568Y-59166028D01*
X107670215Y-59175845D01*
X107670213Y-59175845D01*
X107670212Y-59175846D01*
X107554923Y-59223601D01*
X107451168Y-59292928D01*
X107451166Y-59292929D01*
X107137794Y-59606301D01*
X107075482Y-59640326D01*
X107019781Y-59639382D01*
X107019776Y-59639414D01*
X107019563Y-59639378D01*
X107017764Y-59639348D01*
X107014642Y-59638557D01*
X106969968Y-59631102D01*
X106792569Y-59601500D01*
X106567431Y-59601500D01*
X106440664Y-59622653D01*
X106345356Y-59638557D01*
X106342227Y-59639350D01*
X106340905Y-59639300D01*
X106340224Y-59639414D01*
X106340200Y-59639273D01*
X106271281Y-59636681D01*
X106222204Y-59606300D01*
X105908835Y-59292931D01*
X105908833Y-59292929D01*
X105805075Y-59223600D01*
X105689785Y-59175845D01*
X105616086Y-59161185D01*
X105567396Y-59151500D01*
X105567394Y-59151500D01*
X75177394Y-59151500D01*
X75052606Y-59151500D01*
X75052603Y-59151500D01*
X74979568Y-59166028D01*
X74930215Y-59175845D01*
X74930213Y-59175845D01*
X74930212Y-59175846D01*
X74814923Y-59223601D01*
X74711171Y-59292926D01*
X74711164Y-59292931D01*
X71607931Y-62396164D01*
X71607926Y-62396171D01*
X71540492Y-62497094D01*
X71538600Y-62499925D01*
X71490845Y-62615215D01*
X71487492Y-62632073D01*
X71466500Y-62737603D01*
X71466500Y-69597474D01*
X71446498Y-69665595D01*
X71434137Y-69681784D01*
X71360957Y-69763059D01*
X71265476Y-69928438D01*
X71265473Y-69928445D01*
X71206457Y-70110072D01*
X71186496Y-70300000D01*
X71206457Y-70489927D01*
X71219641Y-70530502D01*
X71265473Y-70671556D01*
X71265476Y-70671561D01*
X71360958Y-70836941D01*
X71360965Y-70836951D01*
X71488744Y-70978864D01*
X71488747Y-70978866D01*
X71643248Y-71091118D01*
X71817712Y-71168794D01*
X72004513Y-71208500D01*
X72195487Y-71208500D01*
X72382288Y-71168794D01*
X72556752Y-71091118D01*
X72711253Y-70978866D01*
X72725935Y-70962560D01*
X72839034Y-70836951D01*
X72839035Y-70836949D01*
X72839040Y-70836944D01*
X72934527Y-70671556D01*
X72993542Y-70489928D01*
X73013504Y-70300000D01*
X72993542Y-70110072D01*
X72934527Y-69928444D01*
X72839040Y-69763056D01*
X72765863Y-69681784D01*
X72735146Y-69617776D01*
X72733500Y-69597474D01*
X72733500Y-63114594D01*
X72753502Y-63046473D01*
X72770405Y-63025499D01*
X75340499Y-60455405D01*
X75402811Y-60421379D01*
X75429594Y-60418500D01*
X102713860Y-60418500D01*
X102781981Y-60438502D01*
X102828474Y-60492158D01*
X102838578Y-60562432D01*
X102836004Y-60575431D01*
X102795437Y-60735624D01*
X102795436Y-60735630D01*
X102795436Y-60735632D01*
X102776844Y-60960000D01*
X102793715Y-61163601D01*
X102795437Y-61184375D01*
X102850702Y-61402612D01*
X102850705Y-61402619D01*
X102888984Y-61489886D01*
X102898031Y-61560304D01*
X102867571Y-61624434D01*
X102807274Y-61661916D01*
X102773597Y-61666500D01*
X90314596Y-61666500D01*
X90246475Y-61646498D01*
X90225501Y-61629596D01*
X90156209Y-61560304D01*
X89828833Y-61232929D01*
X89725075Y-61163600D01*
X89609785Y-61115845D01*
X89536086Y-61101185D01*
X89487396Y-61091500D01*
X89487394Y-61091500D01*
X76412606Y-61091500D01*
X76412600Y-61091500D01*
X76293381Y-61115215D01*
X76293380Y-61115214D01*
X76290220Y-61115843D01*
X76290217Y-61115844D01*
X76174924Y-61163600D01*
X76071171Y-61232926D01*
X76071164Y-61232931D01*
X74107931Y-63196164D01*
X74107926Y-63196171D01*
X74042522Y-63294056D01*
X74038600Y-63299925D01*
X74032162Y-63315468D01*
X73992631Y-63410904D01*
X73990845Y-63415215D01*
X73984205Y-63448595D01*
X73966500Y-63537603D01*
X73966500Y-71097474D01*
X73946498Y-71165595D01*
X73934137Y-71181784D01*
X73860957Y-71263059D01*
X73765476Y-71428438D01*
X73765473Y-71428445D01*
X73706457Y-71610072D01*
X73686496Y-71800000D01*
X73706457Y-71989927D01*
X73725212Y-72047646D01*
X73765473Y-72171556D01*
X73787023Y-72208882D01*
X73860958Y-72336941D01*
X73860965Y-72336951D01*
X73988744Y-72478864D01*
X73988747Y-72478866D01*
X74143248Y-72591118D01*
X74317712Y-72668794D01*
X74504513Y-72708500D01*
X74695487Y-72708500D01*
X74882288Y-72668794D01*
X75056752Y-72591118D01*
X75211253Y-72478866D01*
X75225487Y-72463058D01*
X75339034Y-72336951D01*
X75339035Y-72336949D01*
X75339040Y-72336944D01*
X75434527Y-72171556D01*
X75493542Y-71989928D01*
X75513504Y-71800000D01*
X75493542Y-71610072D01*
X75434527Y-71428444D01*
X75360757Y-71300671D01*
X75339042Y-71263059D01*
X75339041Y-71263058D01*
X75339040Y-71263056D01*
X75265863Y-71181784D01*
X75235146Y-71117776D01*
X75233500Y-71097474D01*
X75233500Y-63914594D01*
X75253502Y-63846473D01*
X75270405Y-63825499D01*
X76700499Y-62395405D01*
X76762811Y-62361379D01*
X76789594Y-62358500D01*
X76796658Y-62358500D01*
X76864779Y-62378502D01*
X76911272Y-62432158D01*
X76922178Y-62495477D01*
X76786102Y-64050837D01*
X76768348Y-64253761D01*
X76768348Y-64253767D01*
X76769555Y-64314658D01*
X76769556Y-64314662D01*
X76808519Y-64455595D01*
X76808521Y-64455599D01*
X76884536Y-64578112D01*
X76885613Y-64579847D01*
X76994587Y-64677343D01*
X77126615Y-64740189D01*
X77186381Y-64751954D01*
X78976817Y-64908597D01*
X79037717Y-64907389D01*
X79158112Y-64874102D01*
X79178650Y-64868425D01*
X79178650Y-64868424D01*
X79178653Y-64868424D01*
X79302902Y-64791332D01*
X79400398Y-64682358D01*
X79452940Y-64571976D01*
X79500275Y-64519069D01*
X79568705Y-64500150D01*
X79636500Y-64521230D01*
X79659407Y-64540796D01*
X79751826Y-64641188D01*
X79802906Y-64696676D01*
X79807098Y-64701229D01*
X79857154Y-64740189D01*
X79984760Y-64839510D01*
X80182762Y-64946663D01*
X80182763Y-64946663D01*
X80182764Y-64946664D01*
X80275034Y-64978340D01*
X80395701Y-65019765D01*
X80617767Y-65056821D01*
X80617771Y-65056821D01*
X80842901Y-65056821D01*
X80842905Y-65056821D01*
X81064971Y-65019765D01*
X81277910Y-64946663D01*
X81475912Y-64839510D01*
X81653576Y-64701227D01*
X81806058Y-64535589D01*
X81823096Y-64509510D01*
X81877096Y-64463422D01*
X81947443Y-64453844D01*
X82011802Y-64483820D01*
X82043966Y-64527810D01*
X82061808Y-64568486D01*
X82184944Y-64756961D01*
X82184948Y-64756966D01*
X82306737Y-64889262D01*
X82324535Y-64908596D01*
X82337431Y-64922604D01*
X82375534Y-64952261D01*
X82515093Y-65060885D01*
X82713095Y-65168038D01*
X82713096Y-65168038D01*
X82713097Y-65168039D01*
X82786567Y-65193261D01*
X82926034Y-65241140D01*
X83148100Y-65278196D01*
X83148104Y-65278196D01*
X83373234Y-65278196D01*
X83373238Y-65278196D01*
X83595304Y-65241140D01*
X83808243Y-65168038D01*
X84006245Y-65060885D01*
X84183909Y-64922602D01*
X84336391Y-64756964D01*
X84353430Y-64730882D01*
X84407431Y-64684795D01*
X84477778Y-64675218D01*
X84542136Y-64705194D01*
X84574300Y-64749184D01*
X84592143Y-64789862D01*
X84663456Y-64899015D01*
X84683969Y-64966983D01*
X84664480Y-65035252D01*
X84647069Y-65057025D01*
X84174501Y-65529595D01*
X84112188Y-65563620D01*
X84085405Y-65566500D01*
X78837603Y-65566500D01*
X78764960Y-65580950D01*
X78715215Y-65590845D01*
X78715213Y-65590845D01*
X78715207Y-65590847D01*
X78605800Y-65636166D01*
X78605794Y-65636169D01*
X78599926Y-65638599D01*
X78496171Y-65707926D01*
X78496164Y-65707931D01*
X76307931Y-67896164D01*
X76307926Y-67896171D01*
X76238601Y-67999923D01*
X76190846Y-68115212D01*
X76166500Y-68237603D01*
X76166500Y-72840500D01*
X76146498Y-72908621D01*
X76092842Y-72955114D01*
X76040500Y-72966500D01*
X73337603Y-72966500D01*
X73215214Y-72990845D01*
X73215209Y-72990847D01*
X73099924Y-73038599D01*
X72996167Y-73107927D01*
X72690593Y-73413502D01*
X71274499Y-74829596D01*
X71212189Y-74863620D01*
X71185406Y-74866500D01*
X70608200Y-74866500D01*
X70540079Y-74846498D01*
X70514563Y-74824810D01*
X70511252Y-74821133D01*
X70356752Y-74708882D01*
X70182288Y-74631206D01*
X69995487Y-74591500D01*
X69804513Y-74591500D01*
X69617711Y-74631206D01*
X69443247Y-74708882D01*
X69288744Y-74821135D01*
X69160965Y-74963048D01*
X69160958Y-74963058D01*
X69065476Y-75128438D01*
X69065473Y-75128444D01*
X69058570Y-75149690D01*
X69006457Y-75310072D01*
X68986496Y-75500000D01*
X69006457Y-75689927D01*
X69036526Y-75782470D01*
X69065473Y-75871556D01*
X69065473Y-75871557D01*
X69065474Y-75871558D01*
X69083339Y-75902501D01*
X69100076Y-75971496D01*
X69076855Y-76038588D01*
X69021048Y-76082475D01*
X68974219Y-76091500D01*
X68461129Y-76091500D01*
X68418861Y-76094366D01*
X68418858Y-76094366D01*
X68281576Y-76128507D01*
X68236134Y-76139808D01*
X68067452Y-76223467D01*
X68067450Y-76223468D01*
X67920695Y-76341434D01*
X67844378Y-76436376D01*
X67786110Y-76476938D01*
X67715162Y-76479559D01*
X67682034Y-76465888D01*
X67556771Y-76391807D01*
X67408485Y-76348726D01*
X67373845Y-76346000D01*
X66296266Y-76346000D01*
X66296266Y-77601000D01*
X66276264Y-77669121D01*
X66222608Y-77715614D01*
X66170266Y-77727000D01*
X64415267Y-77727000D01*
X64415267Y-78304569D01*
X64417992Y-78339218D01*
X64461073Y-78487505D01*
X64539670Y-78620404D01*
X64539675Y-78620411D01*
X64621014Y-78701750D01*
X64655040Y-78764062D01*
X64649975Y-78834877D01*
X64641038Y-78853845D01*
X64584537Y-78951706D01*
X64584534Y-78951714D01*
X64488493Y-79196423D01*
X64488491Y-79196428D01*
X64429994Y-79452719D01*
X64410348Y-79714877D01*
X64429994Y-79977034D01*
X64488491Y-80233325D01*
X64488493Y-80233330D01*
X64584534Y-80478039D01*
X64584537Y-80478047D01*
X64715975Y-80705703D01*
X64715980Y-80705710D01*
X64841467Y-80863068D01*
X64841469Y-80863068D01*
X65198785Y-80505751D01*
X65215820Y-80529197D01*
X65354946Y-80668323D01*
X65378390Y-80685356D01*
X65021296Y-81042450D01*
X65072592Y-81090048D01*
X65072599Y-81090054D01*
X65289804Y-81238142D01*
X65289804Y-81238143D01*
X65526656Y-81352206D01*
X65526669Y-81352211D01*
X65777859Y-81429692D01*
X65777871Y-81429694D01*
X66037826Y-81468877D01*
X66300706Y-81468877D01*
X66560660Y-81429694D01*
X66560672Y-81429692D01*
X66811862Y-81352211D01*
X66811875Y-81352206D01*
X67048727Y-81238143D01*
X67048727Y-81238142D01*
X67265934Y-81090052D01*
X67265935Y-81090051D01*
X67317235Y-81042451D01*
X67317235Y-81042450D01*
X66960141Y-80685356D01*
X66983586Y-80668323D01*
X67122712Y-80529197D01*
X67139745Y-80505752D01*
X67497061Y-80863068D01*
X67497062Y-80863068D01*
X67622554Y-80705707D01*
X67669784Y-80623903D01*
X67721166Y-80574910D01*
X67790880Y-80561474D01*
X67856791Y-80587860D01*
X67890775Y-80628933D01*
X67956761Y-80756279D01*
X67959158Y-80760905D01*
X68027063Y-80857104D01*
X68117609Y-80985379D01*
X68305155Y-81186191D01*
X68518297Y-81359595D01*
X68753066Y-81502361D01*
X69005089Y-81611830D01*
X69269670Y-81685962D01*
X69364770Y-81699033D01*
X69541870Y-81723376D01*
X69541881Y-81723377D01*
X69816651Y-81723377D01*
X69816661Y-81723376D01*
X69946211Y-81705569D01*
X70088862Y-81685962D01*
X70353443Y-81611830D01*
X70605466Y-81502361D01*
X70840235Y-81359595D01*
X71053377Y-81186191D01*
X71240923Y-80985379D01*
X71399377Y-80760900D01*
X71525789Y-80516935D01*
X71617804Y-80258030D01*
X71673708Y-79989007D01*
X71679796Y-79900000D01*
X75886496Y-79900000D01*
X75906457Y-80089927D01*
X75931294Y-80166364D01*
X75965473Y-80271556D01*
X75965476Y-80271561D01*
X76060958Y-80436941D01*
X76060965Y-80436951D01*
X76188744Y-80578864D01*
X76201126Y-80587860D01*
X76343248Y-80691118D01*
X76517712Y-80768794D01*
X76704513Y-80808500D01*
X76895487Y-80808500D01*
X77082288Y-80768794D01*
X77256752Y-80691118D01*
X77411253Y-80578866D01*
X77414563Y-80575190D01*
X77475009Y-80537950D01*
X77508200Y-80533500D01*
X78162393Y-80533500D01*
X78162394Y-80533500D01*
X78284785Y-80509155D01*
X78306887Y-80500000D01*
X80186496Y-80500000D01*
X80206457Y-80689927D01*
X80219587Y-80730335D01*
X80265473Y-80871556D01*
X80265476Y-80871561D01*
X80360958Y-81036941D01*
X80360965Y-81036951D01*
X80488744Y-81178864D01*
X80517940Y-81200076D01*
X80643248Y-81291118D01*
X80817712Y-81368794D01*
X81004513Y-81408500D01*
X81195487Y-81408500D01*
X81382288Y-81368794D01*
X81556752Y-81291118D01*
X81711253Y-81178866D01*
X81791220Y-81090054D01*
X81839034Y-81036951D01*
X81839035Y-81036949D01*
X81839040Y-81036944D01*
X81934527Y-80871556D01*
X81993542Y-80689928D01*
X82010907Y-80524703D01*
X82037920Y-80459048D01*
X82047113Y-80448789D01*
X83095903Y-79400000D01*
X86886496Y-79400000D01*
X86906457Y-79589927D01*
X86936526Y-79682470D01*
X86965473Y-79771556D01*
X86989547Y-79813254D01*
X87060958Y-79936941D01*
X87060965Y-79936951D01*
X87188744Y-80078864D01*
X87188747Y-80078866D01*
X87343248Y-80191118D01*
X87517712Y-80268794D01*
X87704513Y-80308500D01*
X87895487Y-80308500D01*
X88082288Y-80268794D01*
X88256752Y-80191118D01*
X88268524Y-80182564D01*
X88335391Y-80158706D01*
X88342587Y-80158500D01*
X107633629Y-80158500D01*
X107701750Y-80178502D01*
X107722724Y-80195405D01*
X110304595Y-82777276D01*
X110338621Y-82839588D01*
X110341500Y-82866371D01*
X110341500Y-84712999D01*
X110324619Y-84775999D01*
X110279242Y-84854595D01*
X110265473Y-84878444D01*
X110260509Y-84893721D01*
X110206457Y-85060072D01*
X110186496Y-85250000D01*
X110206457Y-85439927D01*
X110230009Y-85512409D01*
X110265473Y-85621556D01*
X110288710Y-85661803D01*
X110360958Y-85786941D01*
X110360965Y-85786951D01*
X110488744Y-85928864D01*
X110488747Y-85928866D01*
X110643248Y-86041118D01*
X110817712Y-86118794D01*
X111004513Y-86158500D01*
X111195487Y-86158500D01*
X111382288Y-86118794D01*
X111556752Y-86041118D01*
X111711253Y-85928866D01*
X111711255Y-85928864D01*
X111839034Y-85786951D01*
X111839035Y-85786949D01*
X111839040Y-85786944D01*
X111934527Y-85621556D01*
X111993542Y-85439928D01*
X112013504Y-85250000D01*
X111993542Y-85060072D01*
X111934527Y-84878444D01*
X111903345Y-84824435D01*
X111875381Y-84775999D01*
X111858500Y-84712999D01*
X111858500Y-82425293D01*
X111858499Y-82425290D01*
X111854717Y-82406279D01*
X111832161Y-82292881D01*
X111829351Y-82278753D01*
X111827181Y-82273515D01*
X111818185Y-82251797D01*
X111772174Y-82140715D01*
X111689166Y-82016485D01*
X108483515Y-78810834D01*
X108359284Y-78727826D01*
X108221247Y-78670649D01*
X108147976Y-78656074D01*
X108147975Y-78656073D01*
X108074711Y-78641500D01*
X108074706Y-78641500D01*
X88342587Y-78641500D01*
X88274466Y-78621498D01*
X88268524Y-78617435D01*
X88256754Y-78608883D01*
X88254611Y-78607929D01*
X88082288Y-78531206D01*
X87895487Y-78491500D01*
X87704513Y-78491500D01*
X87517711Y-78531206D01*
X87343247Y-78608882D01*
X87188744Y-78721135D01*
X87060965Y-78863048D01*
X87060958Y-78863058D01*
X86965476Y-79028438D01*
X86965473Y-79028445D01*
X86906457Y-79210072D01*
X86886496Y-79400000D01*
X83095903Y-79400000D01*
X85525499Y-76970405D01*
X85587811Y-76936379D01*
X85614594Y-76933500D01*
X91091800Y-76933500D01*
X91159921Y-76953502D01*
X91185437Y-76975190D01*
X91188747Y-76978866D01*
X91343248Y-77091118D01*
X91517712Y-77168794D01*
X91704513Y-77208500D01*
X91895487Y-77208500D01*
X92082288Y-77168794D01*
X92256752Y-77091118D01*
X92411253Y-76978866D01*
X92414563Y-76975190D01*
X92539034Y-76836951D01*
X92539035Y-76836949D01*
X92539040Y-76836944D01*
X92634527Y-76671556D01*
X92693542Y-76489928D01*
X92713504Y-76300000D01*
X92693542Y-76110072D01*
X92634527Y-75928444D01*
X92539040Y-75763056D01*
X92539038Y-75763054D01*
X92539034Y-75763048D01*
X92411255Y-75621135D01*
X92256752Y-75508882D01*
X92082288Y-75431206D01*
X91895487Y-75391500D01*
X91704513Y-75391500D01*
X91517711Y-75431206D01*
X91343247Y-75508882D01*
X91188747Y-75621133D01*
X91185437Y-75624810D01*
X91124991Y-75662050D01*
X91091800Y-75666500D01*
X85237603Y-75666500D01*
X85164568Y-75681028D01*
X85115215Y-75690845D01*
X85115213Y-75690845D01*
X85115212Y-75690846D01*
X84999923Y-75738601D01*
X84896171Y-75807926D01*
X84896164Y-75807931D01*
X81149501Y-79554595D01*
X81087189Y-79588621D01*
X81060406Y-79591500D01*
X81004513Y-79591500D01*
X80817711Y-79631206D01*
X80643247Y-79708882D01*
X80488744Y-79821135D01*
X80360965Y-79963048D01*
X80360958Y-79963058D01*
X80287710Y-80089928D01*
X80265473Y-80128444D01*
X80264439Y-80131626D01*
X80206457Y-80310072D01*
X80186496Y-80500000D01*
X78306887Y-80500000D01*
X78400075Y-80461400D01*
X78503833Y-80392071D01*
X83725499Y-75170405D01*
X83787811Y-75136379D01*
X83814594Y-75133500D01*
X92485406Y-75133500D01*
X92553527Y-75153502D01*
X92574501Y-75170405D01*
X92929595Y-75525499D01*
X92963621Y-75587811D01*
X92966500Y-75614594D01*
X92966500Y-76697474D01*
X92946498Y-76765595D01*
X92934137Y-76781784D01*
X92860957Y-76863059D01*
X92766893Y-77025984D01*
X92765473Y-77028444D01*
X92751166Y-77072477D01*
X92706457Y-77210072D01*
X92686496Y-77400000D01*
X92706457Y-77589927D01*
X92736526Y-77682470D01*
X92765473Y-77771556D01*
X92765476Y-77771561D01*
X92860958Y-77936941D01*
X92860965Y-77936951D01*
X92988744Y-78078864D01*
X92988747Y-78078866D01*
X93143248Y-78191118D01*
X93317712Y-78268794D01*
X93504513Y-78308500D01*
X93695487Y-78308500D01*
X93882288Y-78268794D01*
X94056752Y-78191118D01*
X94211253Y-78078866D01*
X94339040Y-77936944D01*
X94434527Y-77771556D01*
X94493542Y-77589928D01*
X94513504Y-77400000D01*
X94493542Y-77210072D01*
X94434527Y-77028444D01*
X94370869Y-76918185D01*
X94339042Y-76863059D01*
X94339041Y-76863058D01*
X94339040Y-76863056D01*
X94265863Y-76781784D01*
X94235146Y-76717776D01*
X94233500Y-76697474D01*
X94233500Y-75237607D01*
X94233499Y-75237603D01*
X94233368Y-75236944D01*
X94209155Y-75115215D01*
X94161400Y-74999925D01*
X94092071Y-74896167D01*
X94003833Y-74807929D01*
X93203833Y-74007929D01*
X93100075Y-73938600D01*
X92984785Y-73890845D01*
X92911086Y-73876185D01*
X92862396Y-73866500D01*
X92862394Y-73866500D01*
X83562394Y-73866500D01*
X83437606Y-73866500D01*
X83437603Y-73866500D01*
X83364568Y-73881028D01*
X83315215Y-73890845D01*
X83315213Y-73890845D01*
X83315212Y-73890846D01*
X83199923Y-73938601D01*
X83096171Y-74007926D01*
X83096164Y-74007931D01*
X77874501Y-79229595D01*
X77812189Y-79263621D01*
X77785406Y-79266500D01*
X77508200Y-79266500D01*
X77440079Y-79246498D01*
X77414563Y-79224810D01*
X77411252Y-79221133D01*
X77256752Y-79108882D01*
X77082288Y-79031206D01*
X76895487Y-78991500D01*
X76704513Y-78991500D01*
X76517711Y-79031206D01*
X76343247Y-79108882D01*
X76188744Y-79221135D01*
X76060965Y-79363048D01*
X76060958Y-79363058D01*
X75965476Y-79528438D01*
X75965473Y-79528445D01*
X75906457Y-79710072D01*
X75886496Y-79900000D01*
X71679796Y-79900000D01*
X71688082Y-79778866D01*
X71692459Y-79714881D01*
X71692459Y-79714872D01*
X71673709Y-79440760D01*
X71673708Y-79440754D01*
X71673708Y-79440747D01*
X71617804Y-79171724D01*
X71525789Y-78912819D01*
X71511999Y-78886207D01*
X71498419Y-78816523D01*
X71524669Y-78750557D01*
X71525601Y-78749381D01*
X71555799Y-78711814D01*
X71566143Y-78690958D01*
X71572314Y-78678516D01*
X71620500Y-78626376D01*
X71685193Y-78608500D01*
X77599328Y-78608500D01*
X77599329Y-78608500D01*
X77794169Y-78569744D01*
X77977704Y-78493721D01*
X78142881Y-78383353D01*
X78283353Y-78242881D01*
X82980829Y-73545405D01*
X83043141Y-73511379D01*
X83069924Y-73508500D01*
X110099328Y-73508500D01*
X110099329Y-73508500D01*
X110294169Y-73469744D01*
X110477704Y-73393721D01*
X110642881Y-73283353D01*
X110783353Y-73142881D01*
X111773718Y-72152514D01*
X111782849Y-72144239D01*
X111816568Y-72116568D01*
X111844235Y-72082854D01*
X111852520Y-72073712D01*
X111883353Y-72042881D01*
X111907584Y-72006615D01*
X111914913Y-71996732D01*
X111942595Y-71963004D01*
X111963150Y-71924546D01*
X111969502Y-71913950D01*
X111993721Y-71877705D01*
X111993722Y-71877704D01*
X112010409Y-71837413D01*
X112015688Y-71826254D01*
X112036241Y-71787804D01*
X112048896Y-71746084D01*
X112053063Y-71734440D01*
X112069742Y-71694173D01*
X112069742Y-71694172D01*
X112069744Y-71694168D01*
X112078248Y-71651408D01*
X112081251Y-71639422D01*
X112093908Y-71597701D01*
X112094270Y-71594016D01*
X112098182Y-71554307D01*
X112099997Y-71542070D01*
X112102347Y-71530258D01*
X112108500Y-71499329D01*
X112108500Y-71455734D01*
X112109107Y-71443383D01*
X112113380Y-71400001D01*
X112113380Y-71399998D01*
X112109107Y-71356615D01*
X112108500Y-71344264D01*
X112108500Y-71300674D01*
X112108500Y-71300671D01*
X112099993Y-71257907D01*
X112098181Y-71245691D01*
X112093908Y-71202299D01*
X112081251Y-71160577D01*
X112078249Y-71148594D01*
X112069744Y-71105832D01*
X112053059Y-71065550D01*
X112048898Y-71053921D01*
X112036241Y-71012196D01*
X112018426Y-70978866D01*
X112015687Y-70973742D01*
X112010407Y-70962581D01*
X111993722Y-70922296D01*
X111969499Y-70886044D01*
X111963149Y-70875451D01*
X111942595Y-70836996D01*
X111914933Y-70803290D01*
X111907576Y-70793370D01*
X111893003Y-70771561D01*
X111883353Y-70757119D01*
X111852523Y-70726289D01*
X111844239Y-70717149D01*
X111816568Y-70683432D01*
X111782857Y-70655766D01*
X111773704Y-70647470D01*
X111742881Y-70616647D01*
X111706638Y-70592429D01*
X111696713Y-70585068D01*
X111663005Y-70557406D01*
X111663006Y-70557406D01*
X111663004Y-70557405D01*
X111624554Y-70536853D01*
X111613950Y-70530497D01*
X111581029Y-70508500D01*
X111577704Y-70506278D01*
X111537425Y-70489594D01*
X111526247Y-70484307D01*
X111487807Y-70463760D01*
X111487804Y-70463759D01*
X111446080Y-70451101D01*
X111434448Y-70446939D01*
X111394174Y-70430258D01*
X111394169Y-70430256D01*
X111372370Y-70425920D01*
X111351411Y-70421751D01*
X111339424Y-70418748D01*
X111297694Y-70406090D01*
X111297697Y-70406090D01*
X111254319Y-70401819D01*
X111242089Y-70400005D01*
X111199329Y-70391500D01*
X111155734Y-70391500D01*
X111143385Y-70390893D01*
X111128132Y-70389390D01*
X111100002Y-70386620D01*
X111099998Y-70386620D01*
X111071867Y-70389390D01*
X111056614Y-70390893D01*
X111044266Y-70391500D01*
X111000663Y-70391500D01*
X110957913Y-70400004D01*
X110945684Y-70401818D01*
X110902305Y-70406090D01*
X110860575Y-70418748D01*
X110848588Y-70421750D01*
X110805838Y-70430254D01*
X110805829Y-70430257D01*
X110765554Y-70446938D01*
X110753921Y-70451100D01*
X110712198Y-70463757D01*
X110712196Y-70463758D01*
X110673748Y-70484308D01*
X110662577Y-70489592D01*
X110622296Y-70506277D01*
X110586041Y-70530502D01*
X110575443Y-70536853D01*
X110565741Y-70542039D01*
X110536996Y-70557404D01*
X110536995Y-70557405D01*
X110503286Y-70585068D01*
X110493363Y-70592427D01*
X110457120Y-70616646D01*
X110457115Y-70616650D01*
X110426294Y-70647470D01*
X110417137Y-70655769D01*
X110383431Y-70683431D01*
X110355770Y-70717136D01*
X110347469Y-70726295D01*
X109619171Y-71454595D01*
X109556858Y-71488620D01*
X109530075Y-71491500D01*
X82500668Y-71491500D01*
X82305830Y-71530256D01*
X82305825Y-71530258D01*
X82122296Y-71606279D01*
X81957123Y-71716644D01*
X81957116Y-71716649D01*
X77119171Y-76554595D01*
X77056859Y-76588621D01*
X77030076Y-76591500D01*
X71685193Y-76591500D01*
X71617072Y-76571498D01*
X71572312Y-76521482D01*
X71555800Y-76488187D01*
X71514153Y-76436376D01*
X71437834Y-76341432D01*
X71437831Y-76341430D01*
X71435429Y-76338441D01*
X71408341Y-76272815D01*
X71421032Y-76202962D01*
X71469474Y-76151059D01*
X71533635Y-76133500D01*
X71562393Y-76133500D01*
X71562394Y-76133500D01*
X71684785Y-76109155D01*
X71800075Y-76061400D01*
X71903833Y-75992071D01*
X73625500Y-74270405D01*
X73687812Y-74236379D01*
X73714595Y-74233500D01*
X78662393Y-74233500D01*
X78662394Y-74233500D01*
X78784785Y-74209155D01*
X78900075Y-74161400D01*
X79003833Y-74092071D01*
X83025499Y-70070405D01*
X83087811Y-70036379D01*
X83114594Y-70033500D01*
X89228490Y-70033500D01*
X89296611Y-70053502D01*
X89337608Y-70096499D01*
X89345445Y-70110072D01*
X89360960Y-70136944D01*
X89360961Y-70136945D01*
X89360965Y-70136951D01*
X89488744Y-70278864D01*
X89488747Y-70278866D01*
X89643248Y-70391118D01*
X89817712Y-70468794D01*
X90004513Y-70508500D01*
X90195487Y-70508500D01*
X90382288Y-70468794D01*
X90556752Y-70391118D01*
X90711253Y-70278866D01*
X90711255Y-70278864D01*
X90839034Y-70136951D01*
X90839034Y-70136949D01*
X90839040Y-70136944D01*
X90854555Y-70110072D01*
X90862392Y-70096499D01*
X90913775Y-70047506D01*
X90971510Y-70033500D01*
X100685406Y-70033500D01*
X100753527Y-70053502D01*
X100774501Y-70070405D01*
X101796167Y-71092071D01*
X101899925Y-71161400D01*
X102015215Y-71209155D01*
X102137606Y-71233500D01*
X102137607Y-71233500D01*
X109262393Y-71233500D01*
X109262394Y-71233500D01*
X109384785Y-71209155D01*
X109500075Y-71161400D01*
X109603833Y-71092071D01*
X111692071Y-69003833D01*
X111761400Y-68900075D01*
X111809155Y-68784785D01*
X111833500Y-68662394D01*
X111833500Y-68602524D01*
X111853502Y-68534403D01*
X111865858Y-68518220D01*
X111939040Y-68436944D01*
X112034527Y-68271556D01*
X112093542Y-68089928D01*
X112113504Y-67900000D01*
X112093542Y-67710072D01*
X112034527Y-67528444D01*
X111939040Y-67363056D01*
X111939038Y-67363054D01*
X111939034Y-67363048D01*
X111811255Y-67221135D01*
X111656752Y-67108882D01*
X111482288Y-67031206D01*
X111295487Y-66991500D01*
X111104513Y-66991500D01*
X110917711Y-67031206D01*
X110743247Y-67108882D01*
X110588744Y-67221135D01*
X110460965Y-67363048D01*
X110460958Y-67363058D01*
X110365476Y-67528438D01*
X110365473Y-67528445D01*
X110306457Y-67710072D01*
X110286496Y-67900000D01*
X110306457Y-68089927D01*
X110312492Y-68108499D01*
X110365473Y-68271556D01*
X110365476Y-68271561D01*
X110414884Y-68357139D01*
X110431622Y-68426135D01*
X110408401Y-68493226D01*
X110394860Y-68509234D01*
X108974499Y-69929596D01*
X108912189Y-69963620D01*
X108885406Y-69966500D01*
X102514594Y-69966500D01*
X102446473Y-69946498D01*
X102425499Y-69929595D01*
X101403835Y-68907931D01*
X101403833Y-68907929D01*
X101300075Y-68838600D01*
X101184785Y-68790845D01*
X101111086Y-68776185D01*
X101062396Y-68766500D01*
X101062394Y-68766500D01*
X90488343Y-68766500D01*
X90437095Y-68755607D01*
X90382290Y-68731206D01*
X90195487Y-68691500D01*
X90004513Y-68691500D01*
X89817709Y-68731206D01*
X89762905Y-68755607D01*
X89711657Y-68766500D01*
X82737603Y-68766500D01*
X82664568Y-68781028D01*
X82615215Y-68790845D01*
X82615213Y-68790845D01*
X82615212Y-68790846D01*
X82499923Y-68838601D01*
X82396171Y-68907926D01*
X82396164Y-68907931D01*
X78374501Y-72929595D01*
X78312189Y-72963621D01*
X78285406Y-72966500D01*
X77559500Y-72966500D01*
X77491379Y-72946498D01*
X77444886Y-72892842D01*
X77433500Y-72840500D01*
X77433500Y-70400000D01*
X78086496Y-70400000D01*
X78106457Y-70589927D01*
X78126576Y-70651844D01*
X78165473Y-70771556D01*
X78165476Y-70771561D01*
X78260958Y-70936941D01*
X78260965Y-70936951D01*
X78388744Y-71078864D01*
X78425862Y-71105832D01*
X78543248Y-71191118D01*
X78717712Y-71268794D01*
X78904513Y-71308500D01*
X79095487Y-71308500D01*
X79282288Y-71268794D01*
X79456752Y-71191118D01*
X79611253Y-71078866D01*
X79671284Y-71012195D01*
X79739034Y-70936951D01*
X79739035Y-70936949D01*
X79739040Y-70936944D01*
X79834527Y-70771556D01*
X79893542Y-70589928D01*
X79910907Y-70424703D01*
X79937920Y-70359048D01*
X79947104Y-70348798D01*
X81825501Y-68470402D01*
X81887811Y-68436379D01*
X81914594Y-68433500D01*
X101485406Y-68433500D01*
X101553527Y-68453502D01*
X101574500Y-68470404D01*
X102507929Y-69403833D01*
X102596167Y-69492071D01*
X102699925Y-69561400D01*
X102815215Y-69609155D01*
X102937606Y-69633500D01*
X102937607Y-69633500D01*
X107562393Y-69633500D01*
X107562394Y-69633500D01*
X107684785Y-69609155D01*
X107800075Y-69561400D01*
X107903833Y-69492071D01*
X110492071Y-66903833D01*
X110561400Y-66800075D01*
X110574482Y-66768490D01*
X110606590Y-66723063D01*
X110611242Y-66718873D01*
X110611253Y-66718866D01*
X110739040Y-66576944D01*
X110834527Y-66411556D01*
X110893542Y-66229928D01*
X110913504Y-66040000D01*
X110893542Y-65850072D01*
X110834527Y-65668444D01*
X110739040Y-65503056D01*
X110739038Y-65503054D01*
X110739034Y-65503048D01*
X110611255Y-65361135D01*
X110456752Y-65248882D01*
X110282288Y-65171206D01*
X110095487Y-65131500D01*
X109904513Y-65131500D01*
X109717711Y-65171206D01*
X109543247Y-65248882D01*
X109388744Y-65361135D01*
X109260965Y-65503048D01*
X109260958Y-65503058D01*
X109165476Y-65668438D01*
X109165473Y-65668444D01*
X109158825Y-65688904D01*
X109106457Y-65850072D01*
X109086496Y-66040000D01*
X109106457Y-66229928D01*
X109148250Y-66358551D01*
X109150278Y-66429518D01*
X109117512Y-66486582D01*
X107274499Y-68329596D01*
X107212189Y-68363620D01*
X107185406Y-68366500D01*
X103314594Y-68366500D01*
X103246473Y-68346498D01*
X103225499Y-68329595D01*
X102203835Y-67307931D01*
X102203833Y-67307929D01*
X102100075Y-67238600D01*
X101984785Y-67190845D01*
X101911086Y-67176185D01*
X101862396Y-67166500D01*
X101862394Y-67166500D01*
X81662394Y-67166500D01*
X81537606Y-67166500D01*
X81537603Y-67166500D01*
X81464568Y-67181028D01*
X81415215Y-67190845D01*
X81415213Y-67190845D01*
X81415212Y-67190846D01*
X81299923Y-67238601D01*
X81196171Y-67307926D01*
X81196164Y-67307931D01*
X79049501Y-69454595D01*
X78987189Y-69488621D01*
X78960406Y-69491500D01*
X78904513Y-69491500D01*
X78717711Y-69531206D01*
X78543247Y-69608882D01*
X78388744Y-69721135D01*
X78260965Y-69863048D01*
X78260958Y-69863058D01*
X78202899Y-69963620D01*
X78165473Y-70028444D01*
X78157331Y-70053502D01*
X78106457Y-70210072D01*
X78086496Y-70400000D01*
X77433500Y-70400000D01*
X77433500Y-68614594D01*
X77453502Y-68546473D01*
X77470405Y-68525499D01*
X79125499Y-66870405D01*
X79187811Y-66836379D01*
X79214594Y-66833500D01*
X84462393Y-66833500D01*
X84462394Y-66833500D01*
X84584785Y-66809155D01*
X84700075Y-66761400D01*
X84803833Y-66692071D01*
X85986370Y-65509532D01*
X86048679Y-65475510D01*
X86054698Y-65474353D01*
X86125639Y-65462516D01*
X86338578Y-65389414D01*
X86536580Y-65282261D01*
X86714244Y-65143978D01*
X86866726Y-64978340D01*
X86883764Y-64952260D01*
X86937768Y-64906172D01*
X87008115Y-64896596D01*
X87072473Y-64926573D01*
X87104635Y-64970561D01*
X87122477Y-65011237D01*
X87245613Y-65199712D01*
X87245617Y-65199717D01*
X87364121Y-65328445D01*
X87392204Y-65358951D01*
X87398100Y-65365355D01*
X87446044Y-65402671D01*
X87575762Y-65503636D01*
X87773764Y-65610789D01*
X87773765Y-65610789D01*
X87773766Y-65610790D01*
X87884434Y-65648782D01*
X87986703Y-65683891D01*
X88208769Y-65720947D01*
X88208773Y-65720947D01*
X88433903Y-65720947D01*
X88433907Y-65720947D01*
X88655973Y-65683891D01*
X88868912Y-65610789D01*
X89066914Y-65503636D01*
X89244578Y-65365353D01*
X89397060Y-65199715D01*
X89414099Y-65173633D01*
X89468100Y-65127546D01*
X89538447Y-65117969D01*
X89602805Y-65147945D01*
X89634969Y-65191935D01*
X89652812Y-65232613D01*
X89775948Y-65421088D01*
X89775952Y-65421093D01*
X89928435Y-65586731D01*
X89959345Y-65610789D01*
X90106097Y-65725012D01*
X90304099Y-65832165D01*
X90304100Y-65832165D01*
X90304101Y-65832166D01*
X90356260Y-65850072D01*
X90517038Y-65905267D01*
X90739104Y-65942323D01*
X90739108Y-65942323D01*
X90964238Y-65942323D01*
X90964242Y-65942323D01*
X91186308Y-65905267D01*
X91399247Y-65832165D01*
X91597249Y-65725012D01*
X91774913Y-65586729D01*
X91927395Y-65421091D01*
X92050533Y-65232614D01*
X92094981Y-65131281D01*
X92140661Y-65076934D01*
X92208474Y-65055910D01*
X92276887Y-65074886D01*
X92324182Y-65127836D01*
X92331558Y-65147415D01*
X92348144Y-65205710D01*
X92348150Y-65205727D01*
X92439344Y-65388867D01*
X92439346Y-65388870D01*
X92458541Y-65414289D01*
X92928596Y-65019867D01*
X92981908Y-65112206D01*
X93075000Y-65205298D01*
X93091446Y-65214793D01*
X92623401Y-65607531D01*
X92713848Y-65689985D01*
X92887803Y-65797692D01*
X92887810Y-65797695D01*
X93078584Y-65871602D01*
X93078583Y-65871602D01*
X93279708Y-65909199D01*
X93484306Y-65909199D01*
X93685430Y-65871602D01*
X93876204Y-65797695D01*
X93876219Y-65797688D01*
X93989935Y-65727277D01*
X93989936Y-65727277D01*
X93596676Y-65258608D01*
X93689014Y-65205298D01*
X93782106Y-65112206D01*
X93791602Y-65095758D01*
X94186176Y-65565993D01*
X94201369Y-65552144D01*
X94324667Y-65388870D01*
X94324668Y-65388869D01*
X94357475Y-65322984D01*
X94405744Y-65270920D01*
X94474498Y-65253217D01*
X94541908Y-65275496D01*
X94586573Y-65330683D01*
X94592410Y-65348214D01*
X94623045Y-65469188D01*
X94623046Y-65469190D01*
X94683727Y-65607531D01*
X94713483Y-65675367D01*
X94836617Y-65863839D01*
X94836621Y-65863844D01*
X94989104Y-66029482D01*
X95002618Y-66040000D01*
X95166766Y-66167763D01*
X95364768Y-66274916D01*
X95364769Y-66274916D01*
X95364770Y-66274917D01*
X95466804Y-66309945D01*
X95577707Y-66348018D01*
X95799773Y-66385074D01*
X95799777Y-66385074D01*
X96024907Y-66385074D01*
X96024911Y-66385074D01*
X96246977Y-66348018D01*
X96459916Y-66274916D01*
X96657918Y-66167763D01*
X96835582Y-66029480D01*
X96909521Y-65949161D01*
X96970373Y-65912591D01*
X97002221Y-65908500D01*
X101291497Y-65908500D01*
X101359618Y-65928502D01*
X101380592Y-65945405D01*
X103340859Y-67905673D01*
X103340865Y-67905678D01*
X103489664Y-68005103D01*
X103561345Y-68034794D01*
X103606572Y-68053527D01*
X103606574Y-68053529D01*
X103649452Y-68071289D01*
X103655000Y-68073587D01*
X103830521Y-68108500D01*
X103830522Y-68108500D01*
X105895486Y-68108500D01*
X105895487Y-68108500D01*
X105982391Y-68090026D01*
X105983753Y-68089746D01*
X106065000Y-68073587D01*
X106065008Y-68073583D01*
X106070931Y-68071787D01*
X106071070Y-68072246D01*
X106081886Y-68068879D01*
X106082288Y-68068794D01*
X106157206Y-68035437D01*
X106160107Y-68034190D01*
X106230336Y-68005102D01*
X106231374Y-68004408D01*
X106250122Y-67994069D01*
X106256752Y-67991118D01*
X106317596Y-67946910D01*
X106321619Y-67944107D01*
X106379135Y-67905678D01*
X106384840Y-67899971D01*
X106399868Y-67887136D01*
X106411253Y-67878866D01*
X106457053Y-67827998D01*
X106461520Y-67823291D01*
X106505678Y-67779135D01*
X106513942Y-67766764D01*
X106525067Y-67752460D01*
X106539040Y-67736944D01*
X106569859Y-67683562D01*
X106574185Y-67676604D01*
X106605102Y-67630336D01*
X106613398Y-67610304D01*
X106620691Y-67595519D01*
X106634523Y-67571563D01*
X106634523Y-67571562D01*
X106634527Y-67571556D01*
X106651481Y-67519373D01*
X106654885Y-67510148D01*
X106673587Y-67465000D01*
X106679143Y-67437063D01*
X106682886Y-67422720D01*
X106693542Y-67389928D01*
X106698565Y-67342128D01*
X106700296Y-67330720D01*
X106708500Y-67289479D01*
X106708500Y-67254215D01*
X106709190Y-67241045D01*
X106709447Y-67238600D01*
X106713504Y-67200000D01*
X106709190Y-67158954D01*
X106708500Y-67145784D01*
X106708500Y-67110522D01*
X106708500Y-67110521D01*
X106700293Y-67069266D01*
X106698565Y-67057866D01*
X106695763Y-67031206D01*
X106693542Y-67010072D01*
X106690516Y-67000761D01*
X106682886Y-66977275D01*
X106679139Y-66962917D01*
X106673587Y-66935001D01*
X106654893Y-66889870D01*
X106651469Y-66880587D01*
X106636169Y-66833500D01*
X106634527Y-66828444D01*
X106620681Y-66804462D01*
X106613398Y-66789692D01*
X106605105Y-66769670D01*
X106605103Y-66769667D01*
X106605102Y-66769664D01*
X106574183Y-66723392D01*
X106569858Y-66716436D01*
X106539040Y-66663056D01*
X106525069Y-66647540D01*
X106513938Y-66633228D01*
X106505679Y-66620866D01*
X106493313Y-66608500D01*
X106461537Y-66576724D01*
X106457014Y-66571957D01*
X106411256Y-66521137D01*
X106411255Y-66521136D01*
X106411253Y-66521134D01*
X106399864Y-66512859D01*
X106384835Y-66500022D01*
X106379135Y-66494322D01*
X106321628Y-66455897D01*
X106317576Y-66453074D01*
X106256751Y-66408881D01*
X106250114Y-66405926D01*
X106231378Y-66395594D01*
X106230333Y-66394895D01*
X106160182Y-66365839D01*
X106157168Y-66364544D01*
X106082288Y-66331206D01*
X106082284Y-66331204D01*
X106081863Y-66331115D01*
X106071064Y-66327765D01*
X106070929Y-66328211D01*
X106065008Y-66326415D01*
X106065001Y-66326413D01*
X106065000Y-66326413D01*
X106000333Y-66313549D01*
X105983880Y-66310277D01*
X105982267Y-66309945D01*
X105895489Y-66291500D01*
X105895487Y-66291500D01*
X105889479Y-66291500D01*
X104348503Y-66291500D01*
X104280382Y-66271498D01*
X104259408Y-66254595D01*
X102299140Y-64294326D01*
X102299134Y-64294321D01*
X102249760Y-64261330D01*
X102150336Y-64194897D01*
X101985000Y-64126413D01*
X101809481Y-64091500D01*
X101809479Y-64091500D01*
X96953295Y-64091500D01*
X96885174Y-64071498D01*
X96860594Y-64050837D01*
X96835593Y-64023679D01*
X96835586Y-64023672D01*
X96835582Y-64023668D01*
X96792880Y-63990431D01*
X96657925Y-63885390D01*
X96657922Y-63885388D01*
X96657918Y-63885385D01*
X96459916Y-63778232D01*
X96459914Y-63778231D01*
X96459913Y-63778230D01*
X96246981Y-63705131D01*
X96246972Y-63705129D01*
X96174243Y-63692993D01*
X96024911Y-63668074D01*
X95799773Y-63668074D01*
X95651553Y-63692807D01*
X95577711Y-63705129D01*
X95577702Y-63705131D01*
X95364770Y-63778230D01*
X95364768Y-63778232D01*
X95166768Y-63885384D01*
X95166766Y-63885385D01*
X94989104Y-64023665D01*
X94836621Y-64189303D01*
X94836617Y-64189308D01*
X94713481Y-64377783D01*
X94669033Y-64479116D01*
X94623352Y-64533464D01*
X94555540Y-64554488D01*
X94487126Y-64535512D01*
X94439832Y-64482561D01*
X94432456Y-64462983D01*
X94415869Y-64404687D01*
X94415866Y-64404679D01*
X94324666Y-64221526D01*
X94305470Y-64196106D01*
X93835416Y-64590528D01*
X93782106Y-64498192D01*
X93689014Y-64405100D01*
X93672564Y-64395603D01*
X94140611Y-64002865D01*
X94050168Y-63920414D01*
X93876210Y-63812705D01*
X93876203Y-63812702D01*
X93685429Y-63738795D01*
X93685430Y-63738795D01*
X93484306Y-63701199D01*
X93279708Y-63701199D01*
X93078583Y-63738795D01*
X92887810Y-63812702D01*
X92887798Y-63812708D01*
X92774076Y-63883119D01*
X93167337Y-64351789D01*
X93075000Y-64405100D01*
X92981908Y-64498192D01*
X92972411Y-64514639D01*
X92577836Y-64044403D01*
X92562647Y-64058250D01*
X92562643Y-64058254D01*
X92439346Y-64221527D01*
X92439345Y-64221528D01*
X92406538Y-64287414D01*
X92358269Y-64339477D01*
X92289515Y-64357179D01*
X92222104Y-64334899D01*
X92177440Y-64279712D01*
X92171604Y-64262181D01*
X92140970Y-64141210D01*
X92140969Y-64141209D01*
X92140969Y-64141207D01*
X92050533Y-63935032D01*
X92018097Y-63885385D01*
X91927397Y-63746557D01*
X91927393Y-63746552D01*
X91790039Y-63597348D01*
X91774913Y-63580917D01*
X91774912Y-63580916D01*
X91774910Y-63580914D01*
X91670952Y-63500000D01*
X91597249Y-63442634D01*
X91399247Y-63335481D01*
X91399245Y-63335480D01*
X91399244Y-63335479D01*
X91186312Y-63262380D01*
X91186303Y-63262378D01*
X91142149Y-63255010D01*
X90964242Y-63225323D01*
X90739104Y-63225323D01*
X90590884Y-63250056D01*
X90517042Y-63262378D01*
X90517033Y-63262380D01*
X90304101Y-63335479D01*
X90304099Y-63335481D01*
X90107247Y-63442012D01*
X90106099Y-63442633D01*
X90106097Y-63442634D01*
X89928435Y-63580914D01*
X89775952Y-63746552D01*
X89775949Y-63746556D01*
X89758910Y-63772637D01*
X89704906Y-63818724D01*
X89634558Y-63828299D01*
X89570201Y-63798320D01*
X89538040Y-63754333D01*
X89520198Y-63713656D01*
X89490418Y-63668074D01*
X89397062Y-63525181D01*
X89397058Y-63525176D01*
X89278292Y-63396164D01*
X89244578Y-63359541D01*
X89244577Y-63359540D01*
X89244575Y-63359538D01*
X89136773Y-63275632D01*
X89066914Y-63221258D01*
X88868912Y-63114105D01*
X88868910Y-63114104D01*
X88868909Y-63114103D01*
X88655977Y-63041004D01*
X88655968Y-63041002D01*
X88602967Y-63032158D01*
X88433907Y-63003947D01*
X88208769Y-63003947D01*
X88060549Y-63028680D01*
X87986707Y-63041002D01*
X87986698Y-63041004D01*
X87773766Y-63114103D01*
X87773764Y-63114105D01*
X87634463Y-63189491D01*
X87575764Y-63221257D01*
X87575762Y-63221258D01*
X87398100Y-63359538D01*
X87245617Y-63525176D01*
X87245614Y-63525180D01*
X87228575Y-63551261D01*
X87174571Y-63597348D01*
X87104223Y-63606923D01*
X87039866Y-63576944D01*
X87007706Y-63532957D01*
X86989864Y-63492281D01*
X86914830Y-63377432D01*
X86866728Y-63303806D01*
X86866724Y-63303801D01*
X86741309Y-63167566D01*
X86714244Y-63138166D01*
X86714243Y-63138165D01*
X86714241Y-63138163D01*
X86610451Y-63057380D01*
X86536580Y-62999883D01*
X86338578Y-62892730D01*
X86338576Y-62892729D01*
X86338575Y-62892728D01*
X86125643Y-62819629D01*
X86125634Y-62819627D01*
X86071333Y-62810566D01*
X85903573Y-62782572D01*
X85678435Y-62782572D01*
X85530215Y-62807305D01*
X85456373Y-62819627D01*
X85456364Y-62819629D01*
X85243432Y-62892728D01*
X85243430Y-62892730D01*
X85055697Y-62994326D01*
X85045430Y-62999882D01*
X85045428Y-62999883D01*
X84867766Y-63138163D01*
X84715283Y-63303801D01*
X84715280Y-63303805D01*
X84698241Y-63329886D01*
X84644237Y-63375973D01*
X84573889Y-63385548D01*
X84509532Y-63355569D01*
X84477371Y-63311582D01*
X84475769Y-63307929D01*
X84459529Y-63270905D01*
X84436972Y-63236379D01*
X84336393Y-63082430D01*
X84336389Y-63082425D01*
X84199291Y-62933499D01*
X84183909Y-62916790D01*
X84183908Y-62916789D01*
X84183906Y-62916787D01*
X84059078Y-62819629D01*
X84006245Y-62778507D01*
X83808243Y-62671354D01*
X83808241Y-62671353D01*
X83808240Y-62671352D01*
X83611095Y-62603673D01*
X83553160Y-62562636D01*
X83526608Y-62496791D01*
X83539869Y-62427044D01*
X83588734Y-62375539D01*
X83652007Y-62358500D01*
X89110405Y-62358500D01*
X89178526Y-62378502D01*
X89199500Y-62395404D01*
X89596167Y-62792072D01*
X89699925Y-62861401D01*
X89793294Y-62900075D01*
X89815215Y-62909155D01*
X89937606Y-62933500D01*
X102986514Y-62933500D01*
X103054635Y-62953502D01*
X103101128Y-63007158D01*
X103111232Y-63077432D01*
X103107704Y-63093981D01*
X103050148Y-63296267D01*
X103031270Y-63500000D01*
X103050148Y-63703730D01*
X103106138Y-63900514D01*
X103106140Y-63900519D01*
X103197339Y-64083672D01*
X103274518Y-64185874D01*
X103274520Y-64185874D01*
X103708234Y-63752159D01*
X103739901Y-63807007D01*
X103832993Y-63900099D01*
X103887839Y-63931764D01*
X103452473Y-64367130D01*
X103471837Y-64384783D01*
X103471839Y-64384784D01*
X103645796Y-64492493D01*
X103645803Y-64492496D01*
X103836577Y-64566403D01*
X103836576Y-64566403D01*
X104037701Y-64604000D01*
X104242299Y-64604000D01*
X104443423Y-64566403D01*
X104634196Y-64492496D01*
X104634203Y-64492493D01*
X104808161Y-64384783D01*
X104827525Y-64367129D01*
X104392160Y-63931764D01*
X104447007Y-63900099D01*
X104540099Y-63807007D01*
X104571765Y-63752159D01*
X105005479Y-64185874D01*
X105005480Y-64185874D01*
X105082661Y-64083671D01*
X105082661Y-64083670D01*
X105159454Y-63929448D01*
X105207723Y-63877384D01*
X105276477Y-63859681D01*
X105343888Y-63881960D01*
X105388552Y-63937147D01*
X105390139Y-63941329D01*
X105481141Y-64148793D01*
X105604275Y-64337265D01*
X105604279Y-64337270D01*
X105666342Y-64404687D01*
X105752420Y-64498192D01*
X105756762Y-64502908D01*
X105811331Y-64545381D01*
X105934424Y-64641189D01*
X106132426Y-64748342D01*
X106132427Y-64748342D01*
X106132428Y-64748343D01*
X106199877Y-64771498D01*
X106345365Y-64821444D01*
X106567431Y-64858500D01*
X106567435Y-64858500D01*
X106792565Y-64858500D01*
X106792569Y-64858500D01*
X107014635Y-64821444D01*
X107227574Y-64748342D01*
X107425576Y-64641189D01*
X107603240Y-64502906D01*
X107755722Y-64337268D01*
X107844518Y-64201354D01*
X107898520Y-64155268D01*
X107968868Y-64145692D01*
X108033225Y-64175669D01*
X108055480Y-64201353D01*
X108088607Y-64252058D01*
X108144275Y-64337265D01*
X108144279Y-64337270D01*
X108206342Y-64404687D01*
X108292420Y-64498192D01*
X108296762Y-64502908D01*
X108351331Y-64545381D01*
X108474424Y-64641189D01*
X108672426Y-64748342D01*
X108672427Y-64748342D01*
X108672428Y-64748343D01*
X108739877Y-64771498D01*
X108885365Y-64821444D01*
X109107431Y-64858500D01*
X109107435Y-64858500D01*
X109332565Y-64858500D01*
X109332569Y-64858500D01*
X109554635Y-64821444D01*
X109767574Y-64748342D01*
X109965576Y-64641189D01*
X110143240Y-64502906D01*
X110295722Y-64337268D01*
X110418860Y-64148791D01*
X110509296Y-63942616D01*
X110564564Y-63724368D01*
X110583156Y-63500000D01*
X110564564Y-63275632D01*
X110533914Y-63154598D01*
X110509297Y-63057387D01*
X110509294Y-63057380D01*
X110505849Y-63049527D01*
X110460049Y-62945113D01*
X110451003Y-62874696D01*
X110481463Y-62810566D01*
X110541760Y-62773084D01*
X110575437Y-62768500D01*
X111927393Y-62768500D01*
X111927394Y-62768500D01*
X112049785Y-62744155D01*
X112165075Y-62696400D01*
X112268833Y-62627071D01*
X112925499Y-61970405D01*
X112987811Y-61936379D01*
X113014594Y-61933500D01*
X113666406Y-61933500D01*
X113734527Y-61953502D01*
X113781020Y-62007158D01*
X113791124Y-62077432D01*
X113761630Y-62142012D01*
X113755501Y-62148595D01*
X112507931Y-63396164D01*
X112507926Y-63396171D01*
X112438601Y-63499923D01*
X112390846Y-63615212D01*
X112366500Y-63737603D01*
X112366500Y-86785406D01*
X112346498Y-86853527D01*
X112329595Y-86874501D01*
X108774501Y-90429595D01*
X108712189Y-90463621D01*
X108685406Y-90466500D01*
X89237603Y-90466500D01*
X89164568Y-90481028D01*
X89115215Y-90490845D01*
X89115213Y-90490845D01*
X89115212Y-90490846D01*
X88999923Y-90538601D01*
X88896171Y-90607926D01*
X88896164Y-90607931D01*
X88274501Y-91229595D01*
X88212189Y-91263621D01*
X88185406Y-91266500D01*
X65137603Y-91266500D01*
X65064568Y-91281028D01*
X65015215Y-91290845D01*
X65015213Y-91290845D01*
X65015212Y-91290846D01*
X64947675Y-91318821D01*
X64903921Y-91336945D01*
X64899923Y-91338601D01*
X64796171Y-91407926D01*
X64796164Y-91407931D01*
X58149501Y-98054595D01*
X58087189Y-98088621D01*
X58060406Y-98091500D01*
X58004513Y-98091500D01*
X57817711Y-98131206D01*
X57643247Y-98208882D01*
X57488744Y-98321135D01*
X57360965Y-98463048D01*
X57360958Y-98463058D01*
X57265476Y-98628438D01*
X57265473Y-98628445D01*
X57206457Y-98810072D01*
X57189092Y-98975292D01*
X57162079Y-99040949D01*
X57152878Y-99051216D01*
X56449501Y-99754595D01*
X56387188Y-99788620D01*
X56360405Y-99791500D01*
X55708594Y-99791500D01*
X55640473Y-99771498D01*
X55593980Y-99717842D01*
X55583876Y-99647568D01*
X55613370Y-99582988D01*
X55619499Y-99576405D01*
X64225499Y-90970405D01*
X64287811Y-90936379D01*
X64314594Y-90933500D01*
X87962393Y-90933500D01*
X87962394Y-90933500D01*
X88084785Y-90909155D01*
X88200075Y-90861400D01*
X88303833Y-90792071D01*
X89850499Y-89245403D01*
X89912810Y-89211380D01*
X89939593Y-89208500D01*
X90095487Y-89208500D01*
X90282288Y-89168794D01*
X90456752Y-89091118D01*
X90611253Y-88978866D01*
X90637475Y-88949744D01*
X90739034Y-88836951D01*
X90739035Y-88836949D01*
X90739040Y-88836944D01*
X90834527Y-88671556D01*
X90893542Y-88489928D01*
X90913504Y-88300000D01*
X90893542Y-88110072D01*
X90834527Y-87928444D01*
X90739040Y-87763056D01*
X90739038Y-87763054D01*
X90739034Y-87763048D01*
X90611255Y-87621135D01*
X90456752Y-87508882D01*
X90282288Y-87431206D01*
X90095487Y-87391500D01*
X89904513Y-87391500D01*
X89717711Y-87431206D01*
X89543247Y-87508882D01*
X89388744Y-87621135D01*
X89260965Y-87763048D01*
X89260958Y-87763058D01*
X89165476Y-87928438D01*
X89165473Y-87928444D01*
X89154227Y-87963056D01*
X89106458Y-88110070D01*
X89106457Y-88110073D01*
X89100836Y-88163550D01*
X89073822Y-88229206D01*
X89064622Y-88239472D01*
X87674499Y-89629596D01*
X87612189Y-89663620D01*
X87585406Y-89666500D01*
X63937603Y-89666500D01*
X63864568Y-89681028D01*
X63815215Y-89690845D01*
X63815213Y-89690845D01*
X63815212Y-89690846D01*
X63699923Y-89738601D01*
X63596171Y-89807926D01*
X63596164Y-89807931D01*
X54549501Y-98854595D01*
X54487189Y-98888621D01*
X54460406Y-98891500D01*
X53771893Y-98891500D01*
X53703772Y-98871498D01*
X53657279Y-98817842D01*
X53647175Y-98747568D01*
X53676669Y-98682988D01*
X53682798Y-98676405D01*
X62963798Y-89395405D01*
X63026110Y-89361379D01*
X63052893Y-89358500D01*
X86067809Y-89358500D01*
X86111122Y-89367707D01*
X86111432Y-89366754D01*
X86117706Y-89368792D01*
X86117708Y-89368792D01*
X86117712Y-89368794D01*
X86304513Y-89408500D01*
X86495487Y-89408500D01*
X86682288Y-89368794D01*
X86856752Y-89291118D01*
X87011253Y-89178866D01*
X87090262Y-89091118D01*
X87139034Y-89036951D01*
X87139035Y-89036949D01*
X87139040Y-89036944D01*
X87234527Y-88871556D01*
X87293542Y-88689928D01*
X87313504Y-88500000D01*
X87293542Y-88310072D01*
X87234527Y-88128444D01*
X87139040Y-87963056D01*
X87139038Y-87963054D01*
X87139034Y-87963048D01*
X87011255Y-87821135D01*
X86856752Y-87708882D01*
X86682288Y-87631206D01*
X86495487Y-87591500D01*
X86304513Y-87591500D01*
X86117711Y-87631206D01*
X85943247Y-87708882D01*
X85788744Y-87821135D01*
X85660960Y-87963054D01*
X85643049Y-87994078D01*
X85624408Y-88026367D01*
X85623177Y-88028499D01*
X85571795Y-88077493D01*
X85514057Y-88091500D01*
X71744407Y-88091500D01*
X71676286Y-88071498D01*
X71629793Y-88017842D01*
X71624855Y-87994078D01*
X71260885Y-87630108D01*
X71284330Y-87613075D01*
X71423456Y-87473949D01*
X71440489Y-87450504D01*
X71797805Y-87807820D01*
X71797806Y-87807820D01*
X71923298Y-87650459D01*
X72054738Y-87422799D01*
X72054741Y-87422791D01*
X72150782Y-87178082D01*
X72150784Y-87178077D01*
X72209281Y-86921786D01*
X72228927Y-86659629D01*
X72209281Y-86397471D01*
X72150784Y-86141180D01*
X72150782Y-86141175D01*
X72054741Y-85896466D01*
X72054738Y-85896458D01*
X71923298Y-85668798D01*
X71797806Y-85511436D01*
X71797805Y-85511436D01*
X71440488Y-85868752D01*
X71423456Y-85845309D01*
X71284330Y-85706183D01*
X71260885Y-85689149D01*
X71617979Y-85332055D01*
X71617978Y-85332053D01*
X71566682Y-85284457D01*
X71566676Y-85284451D01*
X71349471Y-85136363D01*
X71349471Y-85136362D01*
X71112619Y-85022299D01*
X71112606Y-85022294D01*
X70861416Y-84944813D01*
X70861404Y-84944811D01*
X70601450Y-84905629D01*
X70338570Y-84905629D01*
X70078615Y-84944811D01*
X70078603Y-84944813D01*
X69827413Y-85022294D01*
X69827400Y-85022299D01*
X69590548Y-85136362D01*
X69590548Y-85136363D01*
X69373343Y-85284451D01*
X69373336Y-85284457D01*
X69322039Y-85332054D01*
X69679134Y-85689149D01*
X69655690Y-85706183D01*
X69516564Y-85845309D01*
X69499530Y-85868753D01*
X69142213Y-85511436D01*
X69142211Y-85511436D01*
X69016725Y-85668791D01*
X69016722Y-85668796D01*
X68885281Y-85896458D01*
X68885278Y-85896466D01*
X68789237Y-86141175D01*
X68789235Y-86141180D01*
X68730738Y-86397471D01*
X68711092Y-86659629D01*
X68730738Y-86921786D01*
X68789235Y-87178077D01*
X68789237Y-87178082D01*
X68885278Y-87422791D01*
X68885281Y-87422799D01*
X69016719Y-87650455D01*
X69016724Y-87650462D01*
X69142211Y-87807820D01*
X69142213Y-87807820D01*
X69499529Y-87450503D01*
X69516564Y-87473949D01*
X69655690Y-87613075D01*
X69679133Y-87630107D01*
X69312367Y-87996874D01*
X69302866Y-88031626D01*
X69250089Y-88079115D01*
X69195612Y-88091500D01*
X62675902Y-88091500D01*
X62602867Y-88106028D01*
X62553514Y-88115845D01*
X62553512Y-88115845D01*
X62553511Y-88115846D01*
X62523095Y-88128445D01*
X62465039Y-88152493D01*
X62438222Y-88163601D01*
X62334470Y-88232926D01*
X62334463Y-88232931D01*
X55048180Y-95519214D01*
X54985868Y-95553240D01*
X54915053Y-95548175D01*
X54858217Y-95505628D01*
X54833406Y-95439108D01*
X54837377Y-95397512D01*
X54896213Y-95177934D01*
X54926233Y-94949910D01*
X54926233Y-94719918D01*
X54896213Y-94491894D01*
X54836687Y-94269738D01*
X54748673Y-94057253D01*
X54748667Y-94057244D01*
X54748666Y-94057240D01*
X54633679Y-93858077D01*
X54633677Y-93858074D01*
X54493667Y-93675609D01*
X54493661Y-93675603D01*
X54493657Y-93675598D01*
X54331048Y-93512989D01*
X54331042Y-93512984D01*
X54331038Y-93512980D01*
X54148573Y-93372970D01*
X54148572Y-93372969D01*
X54148569Y-93372967D01*
X53949406Y-93257980D01*
X53949398Y-93257976D01*
X53949394Y-93257974D01*
X53736909Y-93169960D01*
X53514753Y-93110434D01*
X53514746Y-93110432D01*
X53286731Y-93080414D01*
X53286729Y-93080414D01*
X53056737Y-93080414D01*
X53056734Y-93080414D01*
X52828719Y-93110432D01*
X52606557Y-93169960D01*
X52553184Y-93192068D01*
X52394070Y-93257975D01*
X52394059Y-93257980D01*
X52194896Y-93372967D01*
X52012428Y-93512980D01*
X52012417Y-93512989D01*
X51849808Y-93675598D01*
X51849799Y-93675609D01*
X51709786Y-93858077D01*
X51594799Y-94057240D01*
X51594794Y-94057251D01*
X51506779Y-94269738D01*
X51447251Y-94491900D01*
X51417233Y-94719915D01*
X51417233Y-94949912D01*
X51447251Y-95177927D01*
X51447253Y-95177934D01*
X51506779Y-95400090D01*
X51594793Y-95612575D01*
X51594794Y-95612576D01*
X51594799Y-95612587D01*
X51709786Y-95811750D01*
X51709788Y-95811753D01*
X51709789Y-95811754D01*
X51849799Y-95994219D01*
X51849803Y-95994223D01*
X51849808Y-95994229D01*
X52012417Y-96156838D01*
X52012422Y-96156842D01*
X52012428Y-96156848D01*
X52194893Y-96296858D01*
X52194896Y-96296860D01*
X52394059Y-96411847D01*
X52394063Y-96411848D01*
X52394072Y-96411854D01*
X52606557Y-96499868D01*
X52828713Y-96559394D01*
X52828717Y-96559394D01*
X52828719Y-96559395D01*
X52887485Y-96567131D01*
X53056737Y-96589414D01*
X53056744Y-96589414D01*
X53286722Y-96589414D01*
X53286729Y-96589414D01*
X53492806Y-96562283D01*
X53514746Y-96559395D01*
X53514746Y-96559394D01*
X53514753Y-96559394D01*
X53734329Y-96500559D01*
X53805303Y-96502249D01*
X53864099Y-96542043D01*
X53892047Y-96607307D01*
X53880274Y-96677321D01*
X53856033Y-96711361D01*
X51361167Y-99206228D01*
X51272931Y-99294463D01*
X51272926Y-99294470D01*
X51221416Y-99371561D01*
X51203600Y-99398224D01*
X51202260Y-99401460D01*
X51173226Y-99471554D01*
X51155845Y-99513514D01*
X51151183Y-99536951D01*
X51131500Y-99635902D01*
X51131500Y-101187396D01*
X48056871Y-101187396D01*
X53226833Y-88900000D01*
X54374357Y-88900000D01*
X54391385Y-89105500D01*
X54394893Y-89147828D01*
X54455935Y-89388877D01*
X54455938Y-89388884D01*
X54555826Y-89616606D01*
X54691835Y-89824785D01*
X54860249Y-90007732D01*
X54860254Y-90007736D01*
X54860256Y-90007738D01*
X55006037Y-90121204D01*
X55056490Y-90160473D01*
X55056491Y-90160474D01*
X55275190Y-90278828D01*
X55275192Y-90278829D01*
X55398677Y-90321221D01*
X55510386Y-90359571D01*
X55755665Y-90400500D01*
X55755669Y-90400500D01*
X56004331Y-90400500D01*
X56004335Y-90400500D01*
X56249614Y-90359571D01*
X56484810Y-90278828D01*
X56703509Y-90160474D01*
X56899744Y-90007738D01*
X56921412Y-89984201D01*
X57068164Y-89824785D01*
X57079175Y-89807931D01*
X57204173Y-89616607D01*
X57304063Y-89388881D01*
X57365108Y-89147821D01*
X57385643Y-88900000D01*
X57365108Y-88652179D01*
X57365106Y-88652171D01*
X57304064Y-88411122D01*
X57304061Y-88411115D01*
X57259739Y-88310072D01*
X57204173Y-88183393D01*
X57168269Y-88128438D01*
X57068164Y-87975214D01*
X56899750Y-87792267D01*
X56862222Y-87763058D01*
X56703509Y-87639526D01*
X56703508Y-87639525D01*
X56484809Y-87521171D01*
X56484807Y-87521170D01*
X56249618Y-87440430D01*
X56249609Y-87440428D01*
X56194342Y-87431206D01*
X56004335Y-87399500D01*
X55755665Y-87399500D01*
X55591953Y-87426818D01*
X55510390Y-87440428D01*
X55510381Y-87440430D01*
X55275192Y-87521170D01*
X55275190Y-87521171D01*
X55056491Y-87639525D01*
X55056490Y-87639526D01*
X54860249Y-87792267D01*
X54691835Y-87975214D01*
X54555826Y-88183393D01*
X54455938Y-88411115D01*
X54455935Y-88411122D01*
X54394893Y-88652171D01*
X54394892Y-88652177D01*
X54394892Y-88652179D01*
X54374357Y-88900000D01*
X53226833Y-88900000D01*
X54320791Y-86300001D01*
X65026620Y-86300001D01*
X65030893Y-86343383D01*
X65031500Y-86355734D01*
X65031500Y-86399334D01*
X65040004Y-86442085D01*
X65041818Y-86454315D01*
X65046091Y-86497698D01*
X65046092Y-86497704D01*
X65058745Y-86539418D01*
X65061748Y-86551405D01*
X65066763Y-86576611D01*
X65070256Y-86594169D01*
X65086933Y-86634433D01*
X65086937Y-86634441D01*
X65091102Y-86646081D01*
X65103758Y-86687801D01*
X65103761Y-86687808D01*
X65124310Y-86726252D01*
X65129597Y-86737430D01*
X65146279Y-86777704D01*
X65146280Y-86777707D01*
X65170494Y-86813946D01*
X65176849Y-86824548D01*
X65197405Y-86863004D01*
X65225066Y-86896709D01*
X65232432Y-86906641D01*
X65256647Y-86942881D01*
X65287467Y-86973701D01*
X65295766Y-86982857D01*
X65323432Y-87016568D01*
X65357149Y-87044239D01*
X65366289Y-87052523D01*
X65397119Y-87083353D01*
X65397122Y-87083355D01*
X65433352Y-87107563D01*
X65443285Y-87114929D01*
X65476997Y-87142596D01*
X65515446Y-87163147D01*
X65526053Y-87169504D01*
X65538253Y-87177655D01*
X65562296Y-87193721D01*
X65602567Y-87210401D01*
X65613749Y-87215690D01*
X65652194Y-87236240D01*
X65652195Y-87236240D01*
X65652196Y-87236241D01*
X65652203Y-87236243D01*
X65693917Y-87248897D01*
X65705551Y-87253059D01*
X65745831Y-87269744D01*
X65788589Y-87278249D01*
X65800573Y-87281251D01*
X65812224Y-87284785D01*
X65842299Y-87293908D01*
X65885693Y-87298181D01*
X65897899Y-87299991D01*
X65940671Y-87308500D01*
X65984266Y-87308500D01*
X65996614Y-87309106D01*
X66011867Y-87310609D01*
X66039998Y-87313380D01*
X66040000Y-87313380D01*
X66040002Y-87313380D01*
X66068132Y-87310609D01*
X66083385Y-87309106D01*
X66095734Y-87308500D01*
X66139325Y-87308500D01*
X66139329Y-87308500D01*
X66182097Y-87299992D01*
X66194308Y-87298181D01*
X66237701Y-87293908D01*
X66279423Y-87281251D01*
X66291404Y-87278250D01*
X66334169Y-87269744D01*
X66374462Y-87253053D01*
X66386076Y-87248898D01*
X66427804Y-87236241D01*
X66466267Y-87215680D01*
X66477418Y-87210406D01*
X66517704Y-87193721D01*
X66553947Y-87169502D01*
X66564552Y-87163147D01*
X66603004Y-87142595D01*
X66636728Y-87114916D01*
X66646633Y-87107571D01*
X66682881Y-87083353D01*
X66713712Y-87052520D01*
X66722854Y-87044235D01*
X66756568Y-87016568D01*
X66784235Y-86982854D01*
X66792520Y-86973712D01*
X66823353Y-86942881D01*
X66847571Y-86906633D01*
X66854916Y-86896728D01*
X66882595Y-86863004D01*
X66903149Y-86824548D01*
X66909505Y-86813944D01*
X66933721Y-86777704D01*
X66950406Y-86737418D01*
X66955680Y-86726267D01*
X66976241Y-86687804D01*
X66988898Y-86646076D01*
X66993053Y-86634462D01*
X67009744Y-86594169D01*
X67018250Y-86551404D01*
X67021253Y-86539418D01*
X67033908Y-86497701D01*
X67038181Y-86454308D01*
X67039993Y-86442091D01*
X67048500Y-86399329D01*
X67048500Y-86355734D01*
X67049107Y-86343383D01*
X67053380Y-86300001D01*
X67053380Y-86299998D01*
X67049107Y-86256615D01*
X67048500Y-86244264D01*
X67048500Y-85729924D01*
X67068502Y-85661803D01*
X67085405Y-85640829D01*
X68380830Y-84345405D01*
X68443142Y-84311379D01*
X68469925Y-84308500D01*
X72730076Y-84308500D01*
X72798197Y-84328502D01*
X72819171Y-84345405D01*
X73116647Y-84642881D01*
X73257119Y-84783353D01*
X73422296Y-84893721D01*
X73605831Y-84969744D01*
X73800671Y-85008500D01*
X73800672Y-85008500D01*
X96399328Y-85008500D01*
X96399329Y-85008500D01*
X96594169Y-84969744D01*
X96777704Y-84893721D01*
X96942881Y-84783353D01*
X97083353Y-84642881D01*
X97193721Y-84477704D01*
X97269744Y-84294169D01*
X97308500Y-84099329D01*
X97308500Y-83900671D01*
X97269744Y-83705831D01*
X97193721Y-83522296D01*
X97083353Y-83357119D01*
X96942881Y-83216647D01*
X96777704Y-83106279D01*
X96594169Y-83030256D01*
X96548310Y-83021134D01*
X96399331Y-82991500D01*
X96399329Y-82991500D01*
X74369924Y-82991500D01*
X74301803Y-82971498D01*
X74280829Y-82954595D01*
X73842883Y-82516649D01*
X73842882Y-82516648D01*
X73842881Y-82516647D01*
X73677704Y-82406279D01*
X73612245Y-82379165D01*
X73515692Y-82339171D01*
X73494172Y-82330257D01*
X73494170Y-82330256D01*
X73494169Y-82330256D01*
X73396089Y-82310746D01*
X73299331Y-82291500D01*
X73299329Y-82291500D01*
X67900671Y-82291500D01*
X67900668Y-82291500D01*
X67705830Y-82330256D01*
X67705825Y-82330258D01*
X67637644Y-82358500D01*
X67522296Y-82406278D01*
X67357123Y-82516643D01*
X67357116Y-82516648D01*
X65397119Y-84476647D01*
X65256649Y-84617116D01*
X65256644Y-84617123D01*
X65146279Y-84782296D01*
X65070258Y-84965825D01*
X65070256Y-84965830D01*
X65031500Y-85160668D01*
X65031500Y-86244264D01*
X65030893Y-86256615D01*
X65026620Y-86299998D01*
X65026620Y-86300001D01*
X54320791Y-86300001D01*
X56235500Y-81749331D01*
X86341500Y-81749331D01*
X86353734Y-81810833D01*
X86380256Y-81944169D01*
X86456279Y-82127704D01*
X86566647Y-82292881D01*
X86707119Y-82433353D01*
X86872296Y-82543721D01*
X87055831Y-82619744D01*
X87250671Y-82658500D01*
X96780076Y-82658500D01*
X96848197Y-82678502D01*
X96869171Y-82695405D01*
X102937113Y-88763349D01*
X102937119Y-88763354D01*
X103102296Y-88873722D01*
X103209269Y-88918031D01*
X103285831Y-88949744D01*
X103480671Y-88988500D01*
X105790685Y-88988500D01*
X105858806Y-89008502D01*
X105905299Y-89062158D01*
X105908740Y-89070467D01*
X105949110Y-89178703D01*
X105949112Y-89178707D01*
X106036738Y-89295761D01*
X106153792Y-89383387D01*
X106153794Y-89383388D01*
X106153796Y-89383389D01*
X106168529Y-89388884D01*
X106290795Y-89434488D01*
X106290803Y-89434490D01*
X106351350Y-89440999D01*
X106351355Y-89440999D01*
X106351362Y-89441000D01*
X106351368Y-89441000D01*
X108448632Y-89441000D01*
X108448638Y-89441000D01*
X108448645Y-89440999D01*
X108448649Y-89440999D01*
X108509196Y-89434490D01*
X108509199Y-89434489D01*
X108509201Y-89434489D01*
X108511856Y-89433499D01*
X108528045Y-89427460D01*
X108646204Y-89383389D01*
X108665704Y-89368792D01*
X108763261Y-89295761D01*
X108850887Y-89178707D01*
X108850887Y-89178706D01*
X108850889Y-89178704D01*
X108901989Y-89041701D01*
X108902501Y-89036944D01*
X108908499Y-88981149D01*
X108908500Y-88981132D01*
X108908500Y-86978867D01*
X108908499Y-86978850D01*
X108901990Y-86918303D01*
X108901988Y-86918295D01*
X108850889Y-86781297D01*
X108850887Y-86781292D01*
X108763261Y-86664238D01*
X108646207Y-86576612D01*
X108646202Y-86576610D01*
X108509204Y-86525511D01*
X108509196Y-86525509D01*
X108448649Y-86519000D01*
X108448638Y-86519000D01*
X108378940Y-86519000D01*
X108310819Y-86498998D01*
X108264326Y-86445342D01*
X108254222Y-86375068D01*
X108283716Y-86310488D01*
X108289845Y-86303905D01*
X108367762Y-86225987D01*
X108367765Y-86225984D01*
X108479389Y-86072347D01*
X108565606Y-85903136D01*
X108565609Y-85903130D01*
X108624290Y-85722527D01*
X108648923Y-85567000D01*
X107935372Y-85567000D01*
X107950000Y-85512409D01*
X107950000Y-85367591D01*
X107935372Y-85313000D01*
X108648923Y-85313000D01*
X108624290Y-85157472D01*
X108565609Y-84976869D01*
X108565606Y-84976863D01*
X108479389Y-84807652D01*
X108367765Y-84654015D01*
X108233484Y-84519734D01*
X108092002Y-84416941D01*
X108048648Y-84360718D01*
X108042573Y-84289982D01*
X108075705Y-84227190D01*
X108108857Y-84202740D01*
X108213231Y-84149560D01*
X108399278Y-84014389D01*
X108561889Y-83851778D01*
X108697060Y-83665731D01*
X108801462Y-83460829D01*
X108872526Y-83242118D01*
X108908500Y-83014983D01*
X108908500Y-82785017D01*
X108872526Y-82557882D01*
X108801462Y-82339171D01*
X108697060Y-82134269D01*
X108561889Y-81948222D01*
X108561886Y-81948219D01*
X108561884Y-81948216D01*
X108399283Y-81785615D01*
X108399280Y-81785613D01*
X108399278Y-81785611D01*
X108213231Y-81650440D01*
X108137454Y-81611830D01*
X108008336Y-81546041D01*
X108008332Y-81546039D01*
X108008329Y-81546038D01*
X107873906Y-81502361D01*
X107789620Y-81474974D01*
X107676050Y-81456987D01*
X107562483Y-81439000D01*
X107237517Y-81439000D01*
X107146663Y-81453389D01*
X107010379Y-81474974D01*
X106846348Y-81528272D01*
X106791671Y-81546038D01*
X106791669Y-81546038D01*
X106791663Y-81546041D01*
X106586768Y-81650440D01*
X106400719Y-81785613D01*
X106400716Y-81785615D01*
X106238115Y-81948216D01*
X106238113Y-81948219D01*
X106102940Y-82134268D01*
X105998541Y-82339163D01*
X105998538Y-82339172D01*
X105927474Y-82557879D01*
X105917676Y-82619743D01*
X105891500Y-82785017D01*
X105891500Y-83014983D01*
X105905960Y-83106279D01*
X105927474Y-83242120D01*
X105963006Y-83351473D01*
X105998538Y-83460829D01*
X105998539Y-83460832D01*
X105998541Y-83460836D01*
X106094304Y-83648781D01*
X106102940Y-83665731D01*
X106238111Y-83851778D01*
X106238113Y-83851780D01*
X106238115Y-83851783D01*
X106400716Y-84014384D01*
X106400719Y-84014386D01*
X106400722Y-84014389D01*
X106586769Y-84149560D01*
X106691138Y-84202738D01*
X106742754Y-84251486D01*
X106759820Y-84320401D01*
X106736920Y-84387602D01*
X106707998Y-84416941D01*
X106566511Y-84519738D01*
X106432234Y-84654015D01*
X106320610Y-84807652D01*
X106234393Y-84976863D01*
X106234390Y-84976869D01*
X106175709Y-85157472D01*
X106151077Y-85313000D01*
X106864628Y-85313000D01*
X106850000Y-85367591D01*
X106850000Y-85512409D01*
X106864628Y-85567000D01*
X106151077Y-85567000D01*
X106175709Y-85722527D01*
X106234390Y-85903130D01*
X106234393Y-85903136D01*
X106320610Y-86072347D01*
X106432234Y-86225984D01*
X106510155Y-86303905D01*
X106544181Y-86366217D01*
X106539116Y-86437032D01*
X106496569Y-86493868D01*
X106430049Y-86518679D01*
X106421060Y-86519000D01*
X106351350Y-86519000D01*
X106290803Y-86525509D01*
X106290795Y-86525511D01*
X106153797Y-86576610D01*
X106153792Y-86576612D01*
X106036738Y-86664238D01*
X105949112Y-86781292D01*
X105949110Y-86781296D01*
X105908740Y-86889533D01*
X105866194Y-86946369D01*
X105799673Y-86971179D01*
X105790685Y-86971500D01*
X104049925Y-86971500D01*
X103981804Y-86951498D01*
X103960830Y-86934595D01*
X97892883Y-80866649D01*
X97892881Y-80866647D01*
X97727704Y-80756279D01*
X97665072Y-80730336D01*
X97544174Y-80680258D01*
X97544172Y-80680257D01*
X97544170Y-80680256D01*
X97544169Y-80680256D01*
X97446089Y-80660746D01*
X97349331Y-80641500D01*
X97349329Y-80641500D01*
X87250671Y-80641500D01*
X87250668Y-80641500D01*
X87055830Y-80680256D01*
X87055825Y-80680258D01*
X86872296Y-80756279D01*
X86707123Y-80866644D01*
X86707116Y-80866649D01*
X86566649Y-81007116D01*
X86566644Y-81007123D01*
X86456279Y-81172296D01*
X86380258Y-81355825D01*
X86380256Y-81355830D01*
X86341500Y-81550668D01*
X86341500Y-81749331D01*
X56235500Y-81749331D01*
X58034780Y-77473000D01*
X64415266Y-77473000D01*
X66042266Y-77473000D01*
X66042266Y-76346000D01*
X64964696Y-76346000D01*
X64930047Y-76348726D01*
X64781760Y-76391807D01*
X64648861Y-76470404D01*
X64648854Y-76470409D01*
X64539675Y-76579588D01*
X64539670Y-76579595D01*
X64461073Y-76712494D01*
X64417992Y-76860780D01*
X64415266Y-76895420D01*
X64415266Y-77473000D01*
X58034780Y-77473000D01*
X59698801Y-73518137D01*
X64160766Y-73518137D01*
X64163632Y-73560404D01*
X64163632Y-73560407D01*
X64169849Y-73585406D01*
X64209074Y-73743132D01*
X64292733Y-73911814D01*
X64410698Y-74058568D01*
X64557452Y-74176533D01*
X64726134Y-74260192D01*
X64908857Y-74305633D01*
X64919427Y-74306349D01*
X64951129Y-74308500D01*
X64951138Y-74308500D01*
X66215996Y-74308500D01*
X66267245Y-74319393D01*
X66378202Y-74368794D01*
X66565003Y-74408500D01*
X66755977Y-74408500D01*
X66942778Y-74368794D01*
X67053735Y-74319393D01*
X67104984Y-74308500D01*
X67387403Y-74308500D01*
X67414574Y-74306656D01*
X67429675Y-74305633D01*
X67612398Y-74260192D01*
X67781080Y-74176533D01*
X67845325Y-74124890D01*
X67910950Y-74097802D01*
X67980803Y-74110493D01*
X68003207Y-74124891D01*
X68067447Y-74176530D01*
X68067450Y-74176531D01*
X68067452Y-74176533D01*
X68236134Y-74260192D01*
X68418857Y-74305633D01*
X68429427Y-74306349D01*
X68461129Y-74308500D01*
X68461138Y-74308500D01*
X70897403Y-74308500D01*
X70924574Y-74306656D01*
X70939675Y-74305633D01*
X71122398Y-74260192D01*
X71291080Y-74176533D01*
X71437834Y-74058568D01*
X71555799Y-73911814D01*
X71639458Y-73743132D01*
X71684899Y-73560409D01*
X71686490Y-73536944D01*
X71687766Y-73518137D01*
X71687766Y-72081862D01*
X71684899Y-72039595D01*
X71684899Y-72039592D01*
X71675424Y-72001492D01*
X71639458Y-71856868D01*
X71555799Y-71688186D01*
X71437834Y-71541432D01*
X71291080Y-71423467D01*
X71122398Y-71339808D01*
X70939675Y-71294367D01*
X70939671Y-71294366D01*
X70897403Y-71291500D01*
X70897394Y-71291500D01*
X68461138Y-71291500D01*
X68461129Y-71291500D01*
X68418861Y-71294366D01*
X68418858Y-71294366D01*
X68281576Y-71328507D01*
X68236134Y-71339808D01*
X68067452Y-71423467D01*
X68067448Y-71423469D01*
X68003206Y-71475109D01*
X67937581Y-71502198D01*
X67867728Y-71489506D01*
X67845326Y-71475109D01*
X67781083Y-71423469D01*
X67781081Y-71423468D01*
X67781080Y-71423467D01*
X67612398Y-71339808D01*
X67429675Y-71294367D01*
X67429671Y-71294366D01*
X67387403Y-71291500D01*
X67387394Y-71291500D01*
X64951138Y-71291500D01*
X64951129Y-71291500D01*
X64908861Y-71294366D01*
X64908858Y-71294366D01*
X64771576Y-71328507D01*
X64726134Y-71339808D01*
X64557452Y-71423467D01*
X64557450Y-71423468D01*
X64410698Y-71541432D01*
X64292734Y-71688184D01*
X64292733Y-71688185D01*
X64292733Y-71688186D01*
X64218716Y-71837428D01*
X64209074Y-71856869D01*
X64163632Y-72039592D01*
X64163632Y-72039595D01*
X64160766Y-72081862D01*
X64160766Y-73518137D01*
X59698801Y-73518137D01*
X65831275Y-58943148D01*
X65836553Y-58932139D01*
X65869409Y-58871419D01*
X65883141Y-58851074D01*
X65991808Y-58719785D01*
X66009252Y-58702471D01*
X66141335Y-58594790D01*
X66161808Y-58581191D01*
X66312290Y-58501205D01*
X66335015Y-58491843D01*
X66498157Y-58442602D01*
X66522268Y-58437829D01*
X66568630Y-58433284D01*
X66590910Y-58431101D01*
X66603201Y-58430500D01*
X236197951Y-58430500D01*
X236198038Y-58430512D01*
G37*
%TD.AperFunction*%
%TD*%
M02*
