%TF.GenerationSoftware,KiCad,Pcbnew,8.0.1*%
%TF.CreationDate,2024-04-05T23:02:15-05:00*%
%TF.ProjectId,badge,62616467-652e-46b6-9963-61645f706362,rev?*%
%TF.SameCoordinates,Original*%
%TF.FileFunction,Copper,L1,Top*%
%TF.FilePolarity,Positive*%
%FSLAX46Y46*%
G04 Gerber Fmt 4.6, Leading zero omitted, Abs format (unit mm)*
G04 Created by KiCad (PCBNEW 8.0.1) date 2024-04-05 23:02:15*
%MOMM*%
%LPD*%
G01*
G04 APERTURE LIST*
G04 Aperture macros list*
%AMRoundRect*
0 Rectangle with rounded corners*
0 $1 Rounding radius*
0 $2 $3 $4 $5 $6 $7 $8 $9 X,Y pos of 4 corners*
0 Add a 4 corners polygon primitive as box body*
4,1,4,$2,$3,$4,$5,$6,$7,$8,$9,$2,$3,0*
0 Add four circle primitives for the rounded corners*
1,1,$1+$1,$2,$3*
1,1,$1+$1,$4,$5*
1,1,$1+$1,$6,$7*
1,1,$1+$1,$8,$9*
0 Add four rect primitives between the rounded corners*
20,1,$1+$1,$2,$3,$4,$5,0*
20,1,$1+$1,$4,$5,$6,$7,0*
20,1,$1+$1,$6,$7,$8,$9,0*
20,1,$1+$1,$8,$9,$2,$3,0*%
%AMRotRect*
0 Rectangle, with rotation*
0 The origin of the aperture is its center*
0 $1 length*
0 $2 width*
0 $3 Rotation angle, in degrees counterclockwise*
0 Add horizontal line*
21,1,$1,$2,0,0,$3*%
G04 Aperture macros list end*
%TA.AperFunction,Conductor*%
%ADD10C,0.250000*%
%TD*%
%TA.AperFunction,Conductor*%
%ADD11C,0.200000*%
%TD*%
%TA.AperFunction,SMDPad,CuDef*%
%ADD12R,0.800000X0.500000*%
%TD*%
%TA.AperFunction,SMDPad,CuDef*%
%ADD13R,0.500000X0.980000*%
%TD*%
%TA.AperFunction,SMDPad,CuDef*%
%ADD14R,0.800000X0.300000*%
%TD*%
%TA.AperFunction,SMDPad,CuDef*%
%ADD15R,0.500000X1.460000*%
%TD*%
%TA.AperFunction,ComponentPad*%
%ADD16R,1.800000X1.800000*%
%TD*%
%TA.AperFunction,ComponentPad*%
%ADD17C,1.800000*%
%TD*%
%TA.AperFunction,ComponentPad*%
%ADD18C,3.000000*%
%TD*%
%TA.AperFunction,SMDPad,CuDef*%
%ADD19C,1.000000*%
%TD*%
%TA.AperFunction,ComponentPad*%
%ADD20RoundRect,0.250000X-0.600000X0.600000X-0.600000X-0.600000X0.600000X-0.600000X0.600000X0.600000X0*%
%TD*%
%TA.AperFunction,ComponentPad*%
%ADD21C,1.700000*%
%TD*%
%TA.AperFunction,ComponentPad*%
%ADD22O,3.100000X6.000000*%
%TD*%
%TA.AperFunction,ComponentPad*%
%ADD23R,1.700000X1.700000*%
%TD*%
%TA.AperFunction,SMDPad,CuDef*%
%ADD24RoundRect,0.357142X1.142858X-0.642858X1.142858X0.642858X-1.142858X0.642858X-1.142858X-0.642858X0*%
%TD*%
%TA.AperFunction,SMDPad,CuDef*%
%ADD25RoundRect,0.357142X-1.142858X0.642858X-1.142858X-0.642858X1.142858X-0.642858X1.142858X0.642858X0*%
%TD*%
%TA.AperFunction,ComponentPad*%
%ADD26RotRect,1.700000X1.700000X355.000000*%
%TD*%
%TA.AperFunction,ComponentPad*%
%ADD27C,1.500000*%
%TD*%
%TA.AperFunction,ComponentPad*%
%ADD28R,1.905000X2.000000*%
%TD*%
%TA.AperFunction,ComponentPad*%
%ADD29O,1.905000X2.000000*%
%TD*%
%TA.AperFunction,HeatsinkPad*%
%ADD30C,3.000000*%
%TD*%
%TA.AperFunction,ViaPad*%
%ADD31C,0.800000*%
%TD*%
%TA.AperFunction,ViaPad*%
%ADD32C,1.000000*%
%TD*%
%TA.AperFunction,Conductor*%
%ADD33C,1.000000*%
%TD*%
%TA.AperFunction,Conductor*%
%ADD34C,0.800000*%
%TD*%
%TA.AperFunction,Conductor*%
%ADD35C,0.500000*%
%TD*%
%TA.AperFunction,Conductor*%
%ADD36C,3.000000*%
%TD*%
G04 APERTURE END LIST*
D10*
%TO.N,GND*%
X185600000Y-79700000D02*
X184800000Y-80500000D01*
D11*
X208300000Y-63000000D02*
X206900000Y-63000000D01*
X208600000Y-64700000D02*
X208600000Y-63100000D01*
%TD*%
D12*
%TO.P,D2,1,VDD*%
%TO.N,+5V*%
X117690000Y-64400000D03*
D13*
X116840000Y-64340000D03*
D14*
%TO.P,D2,2,CKO*%
%TO.N,/D3ck*%
X117690000Y-63500000D03*
D12*
%TO.P,D2,3,SDO*%
%TO.N,/D3in*%
X117690000Y-62600000D03*
%TO.P,D2,4,SDI*%
%TO.N,/D2in*%
X115990000Y-62600000D03*
D14*
%TO.P,D2,5,CKI*%
%TO.N,/D2ck*%
X115990000Y-63500000D03*
D15*
%TO.P,D2,6,GND*%
%TO.N,GND*%
X116840000Y-62900000D03*
D12*
X115990000Y-64400000D03*
%TD*%
D16*
%TO.P,D6,1,K*%
%TO.N,Net-(D6-K)*%
X117040000Y-89000000D03*
D17*
%TO.P,D6,2,A*%
%TO.N,Net-(D6-A)*%
X114500000Y-89000000D03*
%TD*%
D12*
%TO.P,D1,1,VDD*%
%TO.N,+5V*%
X54190000Y-102500000D03*
D13*
X53340000Y-102440000D03*
D14*
%TO.P,D1,2,CKO*%
%TO.N,/D2ck*%
X54190000Y-101600000D03*
D12*
%TO.P,D1,3,SDO*%
%TO.N,/D2in*%
X54190000Y-100700000D03*
%TO.P,D1,4,SDI*%
%TO.N,/ls_MOSI*%
X52490000Y-100700000D03*
D14*
%TO.P,D1,5,CKI*%
%TO.N,/ls_SCLK*%
X52490000Y-101600000D03*
D15*
%TO.P,D1,6,GND*%
%TO.N,GND*%
X53340000Y-101000000D03*
D12*
X52490000Y-102500000D03*
%TD*%
D18*
%TO.P,lanyard1,*%
%TO.N,GND*%
X68580000Y-62230000D03*
%TD*%
D19*
%TO.P,fiducial2,*%
%TO.N,*%
X236220000Y-60960000D03*
%TD*%
D20*
%TO.P,J1,1,GPIO1*%
%TO.N,/GPIO1{slash}DC*%
X213360000Y-60960000D03*
D21*
%TO.P,J1,2,GPIO2*%
%TO.N,/GPIO2{slash}BUSY*%
X213360000Y-63500000D03*
%TO.P,J1,3,SDA*%
%TO.N,/SDA*%
X210820000Y-60960000D03*
%TO.P,J1,4,SCL*%
%TO.N,/SCL*%
X210820000Y-63500000D03*
%TO.P,J1,5,3V3*%
%TO.N,+3V3*%
X208280000Y-60960000D03*
%TO.P,J1,6,GND*%
%TO.N,GND*%
X208280000Y-63500000D03*
%TD*%
D22*
%TO.P,bb1,*%
%TO.N,GND*%
X187960000Y-63500000D03*
%TD*%
D20*
%TO.P,J1,1,GPIO1*%
%TO.N,/GPIO1{slash}DC*%
X109220000Y-60960000D03*
D21*
%TO.P,J1,2,GPIO2*%
%TO.N,/GPIO2{slash}BUSY*%
X109220000Y-63500000D03*
%TO.P,J1,3,SDA*%
%TO.N,/SDA*%
X106680000Y-60960000D03*
%TO.P,J1,4,SCL*%
%TO.N,/SCL*%
X106680000Y-63500000D03*
%TO.P,J1,5,3V3*%
%TO.N,+3V3*%
X104140000Y-60960000D03*
%TO.P,J1,6,GND*%
%TO.N,GND*%
X104140000Y-63500000D03*
%TD*%
D22*
%TO.P,bb2,*%
%TO.N,GND*%
X187960000Y-86360000D03*
%TD*%
D12*
%TO.P,D4,1,VDD*%
%TO.N,+5V*%
X160870000Y-105040000D03*
D13*
X160020000Y-104980000D03*
D14*
%TO.P,D4,2,CKO*%
%TO.N,/D5ck*%
X160870000Y-104140000D03*
D12*
%TO.P,D4,3,SDO*%
%TO.N,/D5in*%
X160870000Y-103240000D03*
%TO.P,D4,4,SDI*%
%TO.N,/D4in*%
X159170000Y-103240000D03*
D14*
%TO.P,D4,5,CKI*%
%TO.N,/D4ck*%
X159170000Y-104140000D03*
D15*
%TO.P,D4,6,GND*%
%TO.N,GND*%
X160020000Y-103540000D03*
D12*
X159170000Y-105040000D03*
%TD*%
D23*
%TO.P,U2,1,BUSY*%
%TO.N,/GPIO2{slash}BUSY*%
X137160000Y-102600000D03*
D21*
%TO.P,U2,2,~{RESET}*%
%TO.N,/LED{slash}RESET*%
X139700000Y-102600000D03*
%TO.P,U2,3,DATA/~{CMD}*%
%TO.N,/GPIO1{slash}DC*%
X142240000Y-102600000D03*
%TO.P,U2,4,~{CS}*%
%TO.N,GND*%
X144780000Y-102600000D03*
%TO.P,U2,5,SCLK*%
%TO.N,/SCLK*%
X147320000Y-102600000D03*
%TO.P,U2,6,SDI/MOSI*%
%TO.N,/MOSI*%
X149860000Y-102600000D03*
%TO.P,U2,7,GND*%
%TO.N,GND*%
X152400000Y-102600000D03*
%TO.P,U2,8,VCC*%
%TO.N,/sw_+3V3*%
X154940000Y-102600000D03*
%TD*%
D12*
%TO.P,D5,1,VDD*%
%TO.N,+5V*%
X187574305Y-79642363D03*
D13*
X186724305Y-79582363D03*
D14*
%TO.P,D5,2,CKO*%
%TO.N,unconnected-(D5-CKO-Pad2)*%
X187574305Y-78742363D03*
D12*
%TO.P,D5,3,SDO*%
%TO.N,unconnected-(D5-SDO-Pad3)*%
X187574305Y-77842363D03*
%TO.P,D5,4,SDI*%
%TO.N,/D5in*%
X185874305Y-77842363D03*
D14*
%TO.P,D5,5,CKI*%
%TO.N,/D5ck*%
X185874305Y-78742363D03*
D15*
%TO.P,D5,6,GND*%
%TO.N,GND*%
X186724305Y-78142363D03*
D12*
X185874305Y-79642363D03*
%TD*%
D19*
%TO.P,fiducial1,*%
%TO.N,*%
X55880000Y-88900000D03*
%TD*%
D20*
%TO.P,J1,1,GPIO1*%
%TO.N,/GPIO1{slash}DC*%
X172720000Y-99060000D03*
D21*
%TO.P,J1,2,GPIO2*%
%TO.N,/GPIO2{slash}BUSY*%
X172720000Y-101600000D03*
%TO.P,J1,3,SDA*%
%TO.N,/SDA*%
X170180000Y-99060000D03*
%TO.P,J1,4,SCL*%
%TO.N,/SCL*%
X170180000Y-101600000D03*
%TO.P,J1,5,3V3*%
%TO.N,+3V3*%
X167640000Y-99060000D03*
%TO.P,J1,6,GND*%
%TO.N,GND*%
X167640000Y-101600000D03*
%TD*%
D22*
%TO.P,bb5,*%
%TO.N,GND*%
X134620000Y-86360000D03*
%TD*%
D24*
%TO.P,R9,1*%
%TO.N,/BAT+*%
X69679266Y-77600000D03*
%TO.P,R9,2*%
%TO.N,/Vmeasure*%
X69679266Y-72800000D03*
%TD*%
D22*
%TO.P,bb6,*%
%TO.N,GND*%
X134620000Y-63500000D03*
%TD*%
D18*
%TO.P,lanyard2,*%
%TO.N,GND*%
X228600000Y-62230000D03*
%TD*%
D25*
%TO.P,R10,1*%
%TO.N,/Vmeasure*%
X66169266Y-72800000D03*
%TO.P,R10,2*%
%TO.N,GND*%
X66169266Y-77600000D03*
%TD*%
D12*
%TO.P,D3,1,VDD*%
%TO.N,+5V*%
X127850000Y-74560000D03*
D13*
X127000000Y-74500000D03*
D14*
%TO.P,D3,2,CKO*%
%TO.N,/D4ck*%
X127850000Y-73660000D03*
D12*
%TO.P,D3,3,SDO*%
%TO.N,/D4in*%
X127850000Y-72760000D03*
%TO.P,D3,4,SDI*%
%TO.N,/D3in*%
X126150000Y-72760000D03*
D14*
%TO.P,D3,5,CKI*%
%TO.N,/D3ck*%
X126150000Y-73660000D03*
D15*
%TO.P,D3,6,GND*%
%TO.N,GND*%
X127000000Y-73060000D03*
D12*
X126150000Y-74560000D03*
%TD*%
D20*
%TO.P,J1,1,GPIO1*%
%TO.N,/GPIO1{slash}DC*%
X71120000Y-99060000D03*
D21*
%TO.P,J1,2,GPIO2*%
%TO.N,/GPIO2{slash}BUSY*%
X71120000Y-101600000D03*
%TO.P,J1,3,SDA*%
%TO.N,/SDA*%
X68580000Y-99060000D03*
%TO.P,J1,4,SCL*%
%TO.N,/SCL*%
X68580000Y-101600000D03*
%TO.P,J1,5,3V3*%
%TO.N,+3V3*%
X66040000Y-99060000D03*
%TO.P,J1,6,GND*%
%TO.N,GND*%
X66040000Y-101600000D03*
%TD*%
D26*
%TO.P,U2,1,BUSY*%
%TO.N,/GPIO2{slash}BUSY*%
X78200000Y-63476945D03*
D21*
%TO.P,U2,2,~{RESET}*%
%TO.N,/LED{slash}RESET*%
X80730336Y-63698321D03*
%TO.P,U2,3,DATA/~{CMD}*%
%TO.N,/GPIO1{slash}DC*%
X83260669Y-63919696D03*
%TO.P,U2,4,~{CS}*%
%TO.N,GND*%
X85791004Y-64141072D03*
%TO.P,U2,5,SCLK*%
%TO.N,/SCLK*%
X88321338Y-64362447D03*
%TO.P,U2,6,SDI/MOSI*%
%TO.N,/MOSI*%
X90851673Y-64583823D03*
%TO.P,U2,7,GND*%
%TO.N,GND*%
X93382007Y-64805199D03*
%TO.P,U2,8,VCC*%
%TO.N,/sw_+3V3*%
X95912342Y-65026574D03*
%TD*%
D27*
%TO.P,R2,1*%
%TO.N,/Vdark*%
X131980000Y-62200000D03*
%TO.P,R2,2*%
%TO.N,GND*%
X128580000Y-62200000D03*
%TD*%
D28*
%TO.P,U3,1,OUT*%
%TO.N,+5V*%
X101760000Y-89150000D03*
D29*
%TO.P,U3,2,GND*%
%TO.N,GND*%
X104300000Y-89150000D03*
%TO.P,U3,3,IN*%
%TO.N,Net-(SW3A-B)*%
X106840000Y-89150000D03*
%TD*%
D18*
%TO.P,U1,15,BAT+*%
%TO.N,/BAT+*%
X69679266Y-79714877D03*
%TO.P,U1,16,BAT-*%
%TO.N,GND*%
X66169266Y-79714877D03*
D30*
%TO.P,U1,thermal,GND*%
X70470010Y-86659629D03*
%TD*%
D31*
%TO.N,+3V3*%
X96300000Y-84000000D03*
D32*
X66040000Y-86300000D03*
D31*
%TO.N,GND*%
X61400000Y-81280000D03*
X121527640Y-68285539D03*
X77100000Y-70300000D03*
X125969647Y-74700000D03*
X215900000Y-71120000D03*
X81280000Y-105000000D03*
X159070000Y-105040000D03*
D32*
X96600000Y-70200000D03*
D31*
X116200000Y-67067500D03*
X170180000Y-81100000D03*
X198800000Y-68400000D03*
X119400000Y-78740000D03*
X170180000Y-78900000D03*
X121900000Y-65700000D03*
X128600000Y-69400000D03*
X73400000Y-65500000D03*
X83500000Y-61000000D03*
X170180000Y-59960000D03*
X170180000Y-70120000D03*
X52390000Y-102600000D03*
X172600000Y-97200000D03*
X152400000Y-70120000D03*
X50800000Y-105000000D03*
X208280000Y-71120000D03*
X116200000Y-78740000D03*
X170180000Y-76200000D03*
X132080000Y-91440000D03*
X121360000Y-60510000D03*
X127000000Y-78740000D03*
X53340000Y-91440000D03*
X185874305Y-79642363D03*
X84400000Y-65200000D03*
X165300000Y-105000000D03*
X177800000Y-105000000D03*
X71120000Y-60960000D03*
X72922653Y-102100000D03*
X63500000Y-68580000D03*
X123950000Y-88940000D03*
X137160000Y-59960000D03*
X226060000Y-60960000D03*
X111760000Y-63500000D03*
X185420000Y-76200000D03*
X66040000Y-63500000D03*
X81900000Y-64900000D03*
X185420000Y-70120000D03*
X72900000Y-99400000D03*
X152200000Y-91686092D03*
X114000000Y-82000000D03*
X87000000Y-65400000D03*
X66000000Y-103800000D03*
X55900000Y-99700000D03*
X152400000Y-59960000D03*
X152400000Y-76200000D03*
X170180000Y-83580000D03*
X137160000Y-70120000D03*
X50800000Y-99060000D03*
X111120000Y-61000000D03*
X79300000Y-95100000D03*
X185420000Y-59960000D03*
X220980000Y-66040000D03*
X89500000Y-65600000D03*
X109950000Y-78740000D03*
X115890000Y-64400000D03*
%TO.N,/SCL*%
X74600000Y-71800000D03*
X198500000Y-73000000D03*
X171545000Y-90800000D03*
X151300000Y-85800000D03*
%TO.N,/SDA*%
X72100000Y-70300000D03*
X172400000Y-88500000D03*
X197200000Y-78700000D03*
X152500000Y-83700000D03*
%TO.N,/MOSI*%
X69200000Y-97400000D03*
X75600000Y-97400000D03*
%TO.N,+5V*%
X54340000Y-102600000D03*
X187574305Y-79642363D03*
X128050000Y-74700000D03*
X88400000Y-81650000D03*
X101750000Y-96350000D03*
X164371590Y-99100000D03*
X160970000Y-105040000D03*
X117790000Y-64400000D03*
X154000000Y-99100000D03*
%TO.N,/SCLK*%
X74300000Y-99400000D03*
X78000000Y-83900000D03*
X91500000Y-83850000D03*
%TO.N,/Vdark*%
X109700000Y-68100000D03*
X69900000Y-75500000D03*
%TO.N,/LED{slash}RESET*%
X91900000Y-77400000D03*
X76800000Y-79900000D03*
D32*
%TO.N,/BAT+*%
X104400000Y-71400000D03*
D31*
%TO.N,/GPIO2{slash}BUSY*%
X176961000Y-92400000D03*
%TO.N,/GPIO1{slash}DC*%
X174300000Y-96200000D03*
%TO.N,/Vmeasure*%
X66660490Y-73500000D03*
%TO.N,/sw_+3V3*%
X137100000Y-104050002D03*
X98070000Y-68580000D03*
%TO.N,/ls_MOSI*%
X90100000Y-89200000D03*
%TO.N,/ls_SCLK*%
X86700000Y-88600000D03*
%TO.N,/D2ck*%
X58400000Y-101600000D03*
%TO.N,/D2in*%
X58100000Y-99000000D03*
%TO.N,/D3ck*%
X123450000Y-68850000D03*
%TO.N,/D3in*%
X123900000Y-66100000D03*
%TO.N,/D4ck*%
X134200000Y-79100000D03*
%TO.N,/D4in*%
X134250000Y-76550000D03*
%TO.N,/D5ck*%
X182800000Y-80000000D03*
%TO.N,/D5in*%
X182857637Y-77842363D03*
%TO.N,Net-(D6-A)*%
X89650000Y-79400000D03*
X111100000Y-86300000D03*
%TO.N,/Vbutton*%
X105800000Y-66040000D03*
X81300000Y-71300000D03*
%TD*%
D33*
%TO.N,+3V3*%
X68000000Y-83300000D02*
X66040000Y-85260000D01*
X73500000Y-83300000D02*
X68000000Y-83300000D01*
D34*
X188900000Y-80300000D02*
X188900000Y-76400000D01*
D33*
X76300000Y-86100000D02*
X73500000Y-83300000D01*
X96300000Y-84000000D02*
X96300000Y-85000000D01*
D34*
X188900000Y-76400000D02*
X204340000Y-60960000D01*
X170300000Y-86200000D02*
X183000000Y-86200000D01*
D33*
X95200000Y-86100000D02*
X76300000Y-86100000D01*
D34*
X183000000Y-86200000D02*
X188900000Y-80300000D01*
X167640000Y-99060000D02*
X167640000Y-88860000D01*
X204340000Y-60960000D02*
X208280000Y-60960000D01*
D33*
X96300000Y-85000000D02*
X95200000Y-86100000D01*
D34*
X167640000Y-88860000D02*
X170300000Y-86200000D01*
D33*
X66040000Y-85260000D02*
X66040000Y-86300000D01*
D10*
%TO.N,GND*%
X186724305Y-78152363D02*
X186724305Y-77504305D01*
X127000000Y-73070000D02*
X127000000Y-71120000D01*
X113200000Y-61900000D02*
X113000000Y-62100000D01*
X53561396Y-99975000D02*
X53340000Y-100196396D01*
D33*
X71682497Y-85417503D02*
X69200000Y-87900000D01*
D10*
X116800000Y-61900000D02*
X113200000Y-61900000D01*
X111120000Y-61000000D02*
X111610000Y-60510000D01*
X111610000Y-60510000D02*
X123810000Y-60510000D01*
D33*
X71799999Y-87800000D02*
X73500000Y-87800000D01*
D10*
X122205000Y-61900000D02*
X116800000Y-61900000D01*
D33*
X69200000Y-87900000D02*
X67400000Y-87900000D01*
D10*
X70200305Y-76225000D02*
X69599695Y-76225000D01*
X115750000Y-66617500D02*
X116200000Y-67067500D01*
X116840000Y-61940000D02*
X116800000Y-61900000D01*
X69574695Y-76200000D02*
X64400000Y-76200000D01*
X53340000Y-100196396D02*
X53340000Y-101000000D01*
D33*
X69417502Y-85417503D02*
X71799999Y-87800000D01*
X93382007Y-65442007D02*
X93382007Y-65005199D01*
D10*
X55900000Y-99700000D02*
X55625000Y-99975000D01*
X72900000Y-76300000D02*
X72800000Y-76200000D01*
X111120000Y-61000000D02*
X111490000Y-61000000D01*
X185874305Y-79642363D02*
X185857637Y-79642363D01*
X70225305Y-76200000D02*
X70200305Y-76225000D01*
X185874305Y-80125695D02*
X184800000Y-81200000D01*
D35*
X168670000Y-100400000D02*
X166730000Y-100400000D01*
D33*
X208280000Y-63500000D02*
X207500000Y-64280000D01*
X207500000Y-64280000D02*
X207500000Y-64300000D01*
D10*
X159170000Y-105040000D02*
X159170000Y-105770000D01*
X115990000Y-64400000D02*
X115750000Y-64640000D01*
X123810000Y-60510000D02*
X123900000Y-60600000D01*
X111490000Y-61000000D02*
X111890000Y-60600000D01*
X69599695Y-76225000D02*
X69574695Y-76200000D01*
X185874305Y-79642363D02*
X185874305Y-80125695D01*
X55625000Y-99975000D02*
X53561396Y-99975000D01*
X122210000Y-61910000D02*
X122300000Y-62000000D01*
X184800000Y-81200000D02*
X184700000Y-81200000D01*
X115750000Y-64640000D02*
X115750000Y-66617500D01*
X116840000Y-62900000D02*
X116840000Y-61940000D01*
X160020000Y-103550000D02*
X160020000Y-91680000D01*
D35*
X168850000Y-100530000D02*
X168850000Y-102470000D01*
D10*
X72800000Y-76200000D02*
X70225305Y-76200000D01*
D36*
X66169266Y-78100000D02*
X66169266Y-79714877D01*
D10*
X186724305Y-77504305D02*
X185420000Y-76200000D01*
%TO.N,/SCL*%
X108045000Y-62135000D02*
X106680000Y-63500000D01*
X199000000Y-81900000D02*
X199000000Y-73500000D01*
X74600000Y-71800000D02*
X74600000Y-64923793D01*
X74600000Y-64923793D02*
X77292696Y-62231097D01*
X185500000Y-90500000D02*
X186400000Y-91400000D01*
X199000000Y-73500000D02*
X198500000Y-73000000D01*
X171545000Y-90800000D02*
X171845000Y-90500000D01*
X77292696Y-62231097D02*
X105411097Y-62231097D01*
X122700000Y-61300000D02*
X112700000Y-61300000D01*
X186400000Y-91400000D02*
X189500000Y-91400000D01*
X206300000Y-65500000D02*
X208820000Y-65500000D01*
X208820000Y-65500000D02*
X210820000Y-63500000D01*
X135600000Y-74200000D02*
X122700000Y-61300000D01*
X189500000Y-91400000D02*
X199000000Y-81900000D01*
X198500000Y-73000000D02*
X198800000Y-73000000D01*
X111865000Y-62135000D02*
X108045000Y-62135000D01*
X139700000Y-74200000D02*
X135600000Y-74200000D01*
X171545000Y-90800000D02*
X171545000Y-100235000D01*
X151300000Y-85800000D02*
X139700000Y-74200000D01*
X112700000Y-61300000D02*
X111865000Y-62135000D01*
X171545000Y-100235000D02*
X170180000Y-101600000D01*
X171845000Y-90500000D02*
X185500000Y-90500000D01*
X105411097Y-62231097D02*
X106680000Y-63500000D01*
X198800000Y-73000000D02*
X206300000Y-65500000D01*
%TO.N,/SDA*%
X196500000Y-73900000D02*
X196500000Y-72300000D01*
X197200000Y-78700000D02*
X197200000Y-74600000D01*
X136300000Y-71900000D02*
X124185000Y-59785000D01*
X152500000Y-83700000D02*
X140700000Y-71900000D01*
X169600000Y-98480000D02*
X170180000Y-99060000D01*
X124185000Y-59785000D02*
X107855000Y-59785000D01*
X172700000Y-88800000D02*
X186242693Y-88800000D01*
X197200000Y-81277307D02*
X197200000Y-78700000D01*
X186242693Y-88800000D02*
X187181693Y-89739000D01*
X76215000Y-59785000D02*
X105505000Y-59785000D01*
X196500000Y-72300000D02*
X206475000Y-62325000D01*
X107855000Y-59785000D02*
X106680000Y-60960000D01*
X206475000Y-62325000D02*
X209455000Y-62325000D01*
X172400000Y-88500000D02*
X172100000Y-88800000D01*
X188738307Y-89739000D02*
X197200000Y-81277307D01*
X187181693Y-89739000D02*
X188738307Y-89739000D01*
X170600000Y-88800000D02*
X169600000Y-89800000D01*
X209455000Y-62325000D02*
X210820000Y-60960000D01*
X172400000Y-88500000D02*
X172700000Y-88800000D01*
X172100000Y-88800000D02*
X170600000Y-88800000D01*
X140700000Y-71900000D02*
X136300000Y-71900000D01*
X72100000Y-70300000D02*
X72100000Y-63900000D01*
X169600000Y-89800000D02*
X169600000Y-98480000D01*
X197200000Y-74600000D02*
X196500000Y-73900000D01*
X72100000Y-63900000D02*
X76215000Y-59785000D01*
X105505000Y-59785000D02*
X106680000Y-60960000D01*
%TO.N,/MOSI*%
X75300000Y-97100000D02*
X76500000Y-98300000D01*
X145560000Y-98300000D02*
X149860000Y-102600000D01*
X69200000Y-97400000D02*
X69500000Y-97100000D01*
X69500000Y-97100000D02*
X75300000Y-97100000D01*
X76500000Y-98300000D02*
X145560000Y-98300000D01*
D33*
%TO.N,+5V*%
X88400000Y-81650000D02*
X98850000Y-81650000D01*
D35*
X54170000Y-102430000D02*
X54340000Y-102600000D01*
X76400000Y-95400000D02*
X67500000Y-95400000D01*
X164400000Y-103300000D02*
X162560000Y-105140000D01*
D33*
X98850000Y-81650000D02*
X101760000Y-84560000D01*
X119380000Y-83820000D02*
X121100000Y-85540000D01*
D35*
X119380000Y-83820000D02*
X127000000Y-76200000D01*
X187574305Y-79642363D02*
X187514305Y-79582363D01*
D33*
X101760000Y-84560000D02*
X101760000Y-89150000D01*
D35*
X117350000Y-64850000D02*
X117350000Y-81790000D01*
X160970000Y-105140000D02*
X160800000Y-104970000D01*
X77500000Y-96500000D02*
X76400000Y-95400000D01*
D33*
X154000000Y-99100000D02*
X151250000Y-96350000D01*
D35*
X127010000Y-74600000D02*
X127790000Y-74600000D01*
X60300000Y-102600000D02*
X54340000Y-102600000D01*
X117690000Y-64400000D02*
X116910000Y-64400000D01*
X164400000Y-87600000D02*
X164400000Y-103300000D01*
X53340000Y-102430000D02*
X54170000Y-102430000D01*
X116840000Y-64340000D02*
X117350000Y-64850000D01*
X116910000Y-64400000D02*
X116840000Y-64330000D01*
X160800000Y-104970000D02*
X160020000Y-104970000D01*
X117350000Y-81790000D02*
X119380000Y-83820000D01*
X187514305Y-79582363D02*
X186724305Y-79582363D01*
X101750000Y-96350000D02*
X101600000Y-96500000D01*
X187595000Y-79700000D02*
X186805000Y-79700000D01*
X184816668Y-82400000D02*
X169600000Y-82400000D01*
X53385000Y-102600000D02*
X54215000Y-102600000D01*
X67500000Y-95400000D02*
X60300000Y-102600000D01*
D33*
X151250000Y-96350000D02*
X101750000Y-96350000D01*
D35*
X160010000Y-105100000D02*
X160790000Y-105100000D01*
X187574305Y-79642363D02*
X184816668Y-82400000D01*
X162560000Y-105140000D02*
X160970000Y-105140000D01*
X169600000Y-82400000D02*
X164400000Y-87600000D01*
X101600000Y-96500000D02*
X77500000Y-96500000D01*
X127780000Y-74490000D02*
X127950000Y-74660000D01*
D33*
X121100000Y-85540000D02*
X121100000Y-96300000D01*
D35*
X127000000Y-76200000D02*
X127000000Y-74490000D01*
X127000000Y-74490000D02*
X127780000Y-74490000D01*
D10*
%TO.N,/SCLK*%
X144620000Y-99900000D02*
X147320000Y-102600000D01*
X74300000Y-99400000D02*
X74800000Y-99900000D01*
X78000000Y-83900000D02*
X78050000Y-83850000D01*
X78050000Y-83850000D02*
X91450000Y-83850000D01*
X74800000Y-99900000D02*
X144620000Y-99900000D01*
X91450000Y-83850000D02*
X91500000Y-83800000D01*
%TO.N,/Vdark*%
X99900000Y-73000000D02*
X104800000Y-68100000D01*
X79924220Y-75475780D02*
X82400000Y-73000000D01*
X69900000Y-75500000D02*
X69924220Y-75475780D01*
X82400000Y-73000000D02*
X99900000Y-73000000D01*
X69924220Y-75475780D02*
X79924220Y-75475780D01*
X104800000Y-68100000D02*
X109700000Y-68100000D01*
%TO.N,/LED{slash}RESET*%
X81800000Y-79900000D02*
X76800000Y-79900000D01*
X84300000Y-77400000D02*
X81800000Y-79900000D01*
X91900000Y-77400000D02*
X84300000Y-77400000D01*
D33*
%TO.N,/BAT+*%
X83600000Y-75000000D02*
X81000000Y-77600000D01*
X100800000Y-75000000D02*
X83600000Y-75000000D01*
D36*
X69679266Y-78100000D02*
X69679266Y-79714877D01*
D33*
X104400000Y-71400000D02*
X100800000Y-75000000D01*
X81000000Y-77600000D02*
X69679266Y-77600000D01*
D10*
%TO.N,/GPIO2{slash}BUSY*%
X72620000Y-103100000D02*
X71120000Y-101600000D01*
X176961000Y-97359000D02*
X172720000Y-101600000D01*
X136660000Y-103100000D02*
X72620000Y-103100000D01*
X137160000Y-102600000D02*
X136660000Y-103100000D01*
X176961000Y-92400000D02*
X176961000Y-97359000D01*
%TO.N,/GPIO1{slash}DC*%
X174300000Y-96200000D02*
X174300000Y-97480000D01*
X141065000Y-101425000D02*
X73485000Y-101425000D01*
X174300000Y-97480000D02*
X172720000Y-99060000D01*
X73485000Y-101425000D02*
X71120000Y-99060000D01*
X142240000Y-102600000D02*
X141065000Y-101425000D01*
%TO.N,/Vmeasure*%
X66169266Y-72800000D02*
X69679266Y-72800000D01*
D34*
%TO.N,/sw_+3V3*%
X137100000Y-104050002D02*
X137100002Y-104050000D01*
X98070000Y-68580000D02*
X98070000Y-67590000D01*
X98070000Y-67590000D02*
X95912342Y-65432342D01*
X153490000Y-104050000D02*
X154940000Y-102600000D01*
X137100002Y-104050000D02*
X153490000Y-104050000D01*
D10*
%TO.N,/ls_MOSI*%
X52490000Y-100410000D02*
X52490000Y-100700000D01*
X90100000Y-89200000D02*
X88800000Y-90500000D01*
X53375000Y-99525000D02*
X52490000Y-100410000D01*
X63800000Y-90500000D02*
X54775000Y-99525000D01*
X54775000Y-99525000D02*
X53375000Y-99525000D01*
X88800000Y-90500000D02*
X63800000Y-90500000D01*
%TO.N,/ls_SCLK*%
X51765000Y-99698299D02*
X51765000Y-101125000D01*
X86700000Y-88600000D02*
X86400000Y-88900000D01*
X62563299Y-88900000D02*
X51765000Y-99698299D01*
X86400000Y-88900000D02*
X62563299Y-88900000D01*
X51765000Y-101125000D02*
X52240000Y-101600000D01*
%TO.N,/D2ck*%
X115800000Y-89500000D02*
X115800000Y-83650000D01*
X54190000Y-101600000D02*
X58420000Y-101600000D01*
X115165000Y-64035000D02*
X115700000Y-63500000D01*
X66320000Y-93700000D02*
X111600000Y-93700000D01*
X111600000Y-93700000D02*
X115800000Y-89500000D01*
X115700000Y-63500000D02*
X115990000Y-63500000D01*
X58420000Y-101600000D02*
X66320000Y-93700000D01*
X115165000Y-83015000D02*
X115165000Y-64035000D01*
X115800000Y-83650000D02*
X115165000Y-83015000D01*
%TO.N,/D2in*%
X113250000Y-86850000D02*
X113250000Y-83950000D01*
X54465000Y-100425000D02*
X56675000Y-100425000D01*
X107995000Y-92105000D02*
X113250000Y-86850000D01*
X54190000Y-100700000D02*
X54465000Y-100425000D01*
X58100000Y-99000000D02*
X64995000Y-92105000D01*
X113250000Y-83950000D02*
X112900000Y-83600000D01*
X114200000Y-62600000D02*
X115990000Y-62600000D01*
X112900000Y-63900000D02*
X114200000Y-62600000D01*
X56675000Y-100425000D02*
X58100000Y-99000000D01*
X64995000Y-92105000D02*
X107995000Y-92105000D01*
X112900000Y-83600000D02*
X112900000Y-63900000D01*
%TO.N,/D3ck*%
X124660000Y-73660000D02*
X126050000Y-73660000D01*
X123450000Y-68850000D02*
X118100000Y-63500000D01*
X118100000Y-63500000D02*
X117790000Y-63500000D01*
X123450000Y-68850000D02*
X123450000Y-72450000D01*
X123450000Y-72450000D02*
X124660000Y-73660000D01*
%TO.N,/D3in*%
X120400000Y-62600000D02*
X126050000Y-68250000D01*
X117690000Y-62600000D02*
X120400000Y-62600000D01*
X126050000Y-68250000D02*
X126050000Y-72660000D01*
%TO.N,/D4ck*%
X133700000Y-79100000D02*
X137900000Y-79100000D01*
X157600000Y-103600000D02*
X158140000Y-104140000D01*
X127850000Y-73660000D02*
X128260000Y-73660000D01*
X137900000Y-79100000D02*
X157600000Y-98800000D01*
X158140000Y-104140000D02*
X159170000Y-104140000D01*
X157600000Y-98800000D02*
X157600000Y-103600000D01*
X128260000Y-73660000D02*
X133700000Y-79100000D01*
%TO.N,/D4in*%
X138650000Y-76550000D02*
X159300000Y-97200000D01*
X127850000Y-72760000D02*
X130460000Y-72760000D01*
X159300000Y-97200000D02*
X159300000Y-102910000D01*
X159300000Y-102910000D02*
X159070000Y-103140000D01*
X134250000Y-76550000D02*
X138650000Y-76550000D01*
X130460000Y-72760000D02*
X134250000Y-76550000D01*
%TO.N,/D5ck*%
X162500000Y-86900000D02*
X162500000Y-103400000D01*
X169400000Y-80000000D02*
X162500000Y-86900000D01*
X184200000Y-80000000D02*
X185457637Y-78742363D01*
X182800000Y-80000000D02*
X184200000Y-80000000D01*
X162500000Y-103400000D02*
X161760000Y-104140000D01*
X182800000Y-80000000D02*
X169400000Y-80000000D01*
X161760000Y-104140000D02*
X160870000Y-104140000D01*
X185457637Y-78742363D02*
X185874305Y-78742363D01*
%TO.N,/D5in*%
X182857637Y-77842363D02*
X185874305Y-77842363D01*
X160800000Y-86200000D02*
X160800000Y-102970000D01*
X182857637Y-77842363D02*
X169157637Y-77842363D01*
X160800000Y-102970000D02*
X160970000Y-103140000D01*
X169157637Y-77842363D02*
X160800000Y-86200000D01*
D35*
%TO.N,Net-(D6-A)*%
X89650000Y-79400000D02*
X104200000Y-79400000D01*
X104200000Y-79400000D02*
X111100000Y-86300000D01*
D10*
%TO.N,/Vbutton*%
X99400000Y-71300000D02*
X104660000Y-66040000D01*
X104660000Y-66040000D02*
X105800000Y-66040000D01*
X81300000Y-71300000D02*
X99400000Y-71300000D01*
%TD*%
%TA.AperFunction,Conductor*%
%TO.N,GND*%
G36*
X185207292Y-79992778D02*
G01*
X185264128Y-80035325D01*
X185268025Y-80040832D01*
X185291180Y-80075487D01*
X185375198Y-80131625D01*
X185375199Y-80131626D01*
X185449285Y-80146362D01*
X185693432Y-80146362D01*
X185761553Y-80166364D01*
X185808046Y-80220019D01*
X185818151Y-80290293D01*
X185788658Y-80354874D01*
X185782529Y-80361457D01*
X184539390Y-81604596D01*
X184477080Y-81638620D01*
X184450297Y-81641500D01*
X169525290Y-81641500D01*
X169378753Y-81670649D01*
X169378750Y-81670650D01*
X169240716Y-81727826D01*
X169116486Y-81810833D01*
X169116480Y-81810838D01*
X163810838Y-87116480D01*
X163810833Y-87116486D01*
X163730815Y-87236243D01*
X163727826Y-87240716D01*
X163704025Y-87298178D01*
X163685844Y-87342071D01*
X163670649Y-87378754D01*
X163641500Y-87525290D01*
X163641500Y-98513793D01*
X163624619Y-98576793D01*
X163537066Y-98728438D01*
X163537063Y-98728445D01*
X163478047Y-98910072D01*
X163458086Y-99100000D01*
X163478047Y-99289927D01*
X163493863Y-99338601D01*
X163537063Y-99471556D01*
X163604172Y-99587792D01*
X163624619Y-99623207D01*
X163641500Y-99686207D01*
X163641500Y-102933627D01*
X163621498Y-103001748D01*
X163604595Y-103022722D01*
X163348595Y-103278722D01*
X163286283Y-103312748D01*
X163215468Y-103307683D01*
X163158632Y-103265136D01*
X163133821Y-103198616D01*
X163133500Y-103189627D01*
X163133500Y-87214594D01*
X163153502Y-87146473D01*
X163170405Y-87125499D01*
X169625500Y-80670405D01*
X169687812Y-80636379D01*
X169714595Y-80633500D01*
X182091800Y-80633500D01*
X182159921Y-80653502D01*
X182185437Y-80675190D01*
X182188747Y-80678866D01*
X182343248Y-80791118D01*
X182517712Y-80868794D01*
X182704513Y-80908500D01*
X182895487Y-80908500D01*
X183082288Y-80868794D01*
X183256752Y-80791118D01*
X183411253Y-80678866D01*
X183414563Y-80675190D01*
X183475009Y-80637950D01*
X183508200Y-80633500D01*
X184262393Y-80633500D01*
X184262394Y-80633500D01*
X184384785Y-80609155D01*
X184500075Y-80561400D01*
X184603833Y-80492071D01*
X185074166Y-80021737D01*
X185136477Y-79987714D01*
X185207292Y-79992778D01*
G37*
%TD.AperFunction*%
%TA.AperFunction,Conductor*%
G36*
X182217558Y-78495865D02*
G01*
X182243074Y-78517553D01*
X182246384Y-78521229D01*
X182400885Y-78633481D01*
X182575349Y-78711157D01*
X182762150Y-78750863D01*
X182953124Y-78750863D01*
X183139925Y-78711157D01*
X183314389Y-78633481D01*
X183468890Y-78521229D01*
X183472200Y-78517553D01*
X183532646Y-78480313D01*
X183565837Y-78475863D01*
X184524043Y-78475863D01*
X184592164Y-78495865D01*
X184638657Y-78549521D01*
X184648761Y-78619795D01*
X184619267Y-78684375D01*
X184613138Y-78690958D01*
X183974501Y-79329595D01*
X183912189Y-79363621D01*
X183885406Y-79366500D01*
X183508200Y-79366500D01*
X183440079Y-79346498D01*
X183414563Y-79324810D01*
X183411252Y-79321133D01*
X183256752Y-79208882D01*
X183082288Y-79131206D01*
X182895487Y-79091500D01*
X182704513Y-79091500D01*
X182517711Y-79131206D01*
X182343247Y-79208882D01*
X182188747Y-79321133D01*
X182185437Y-79324810D01*
X182124991Y-79362050D01*
X182091800Y-79366500D01*
X169337603Y-79366500D01*
X169215214Y-79390845D01*
X169215213Y-79390845D01*
X169193113Y-79400000D01*
X169191030Y-79400863D01*
X169099923Y-79438600D01*
X168996171Y-79507925D01*
X168996164Y-79507930D01*
X162096167Y-86407929D01*
X162007931Y-86496164D01*
X162007926Y-86496171D01*
X161942449Y-86594165D01*
X161938600Y-86599925D01*
X161890845Y-86715215D01*
X161886426Y-86737430D01*
X161866500Y-86837603D01*
X161866500Y-102559740D01*
X161846498Y-102627861D01*
X161792842Y-102674354D01*
X161722568Y-102684458D01*
X161657988Y-102654964D01*
X161639632Y-102635250D01*
X161633261Y-102626739D01*
X161633259Y-102626738D01*
X161633259Y-102626737D01*
X161519140Y-102541309D01*
X161516204Y-102539111D01*
X161516203Y-102539110D01*
X161516201Y-102539109D01*
X161515460Y-102538833D01*
X161514824Y-102538357D01*
X161508292Y-102534790D01*
X161508805Y-102533850D01*
X161458627Y-102496283D01*
X161433820Y-102429761D01*
X161433500Y-102420780D01*
X161433500Y-86514594D01*
X161453502Y-86446473D01*
X161470405Y-86425499D01*
X169383137Y-78512768D01*
X169445449Y-78478742D01*
X169472232Y-78475863D01*
X182149437Y-78475863D01*
X182217558Y-78495865D01*
G37*
%TD.AperFunction*%
%TA.AperFunction,Conductor*%
G36*
X130213527Y-73413502D02*
G01*
X130234501Y-73430405D01*
X133302877Y-76498781D01*
X133336903Y-76561093D01*
X133339092Y-76574705D01*
X133356457Y-76739927D01*
X133368280Y-76776313D01*
X133415473Y-76921556D01*
X133436435Y-76957863D01*
X133510958Y-77086941D01*
X133510965Y-77086951D01*
X133638744Y-77228864D01*
X133663972Y-77247193D01*
X133793248Y-77341118D01*
X133967712Y-77418794D01*
X134154513Y-77458500D01*
X134345487Y-77458500D01*
X134532288Y-77418794D01*
X134706752Y-77341118D01*
X134861253Y-77228866D01*
X134864563Y-77225190D01*
X134925009Y-77187950D01*
X134958200Y-77183500D01*
X138335406Y-77183500D01*
X138403527Y-77203502D01*
X138424501Y-77220405D01*
X158629595Y-97425499D01*
X158663621Y-97487811D01*
X158666500Y-97514594D01*
X158666500Y-102398401D01*
X158646498Y-102466522D01*
X158592842Y-102513015D01*
X158584534Y-102516456D01*
X158523795Y-102539111D01*
X158523792Y-102539113D01*
X158435009Y-102605575D01*
X158368488Y-102630386D01*
X158299114Y-102615294D01*
X158248912Y-102565092D01*
X158233500Y-102504707D01*
X158233500Y-98737607D01*
X158233499Y-98737603D01*
X158209155Y-98615215D01*
X158161400Y-98499925D01*
X158092071Y-98396167D01*
X158003833Y-98307929D01*
X138303833Y-78607929D01*
X138200075Y-78538600D01*
X138084785Y-78490845D01*
X138009465Y-78475863D01*
X137962396Y-78466500D01*
X137962394Y-78466500D01*
X134908200Y-78466500D01*
X134840079Y-78446498D01*
X134814563Y-78424810D01*
X134811252Y-78421133D01*
X134656752Y-78308882D01*
X134482288Y-78231206D01*
X134295487Y-78191500D01*
X134104513Y-78191500D01*
X133917711Y-78231206D01*
X133864935Y-78254702D01*
X133794567Y-78264135D01*
X133730271Y-78234026D01*
X133724594Y-78228689D01*
X131418629Y-75922724D01*
X129104498Y-73608594D01*
X129070473Y-73546283D01*
X129075538Y-73475468D01*
X129118085Y-73418632D01*
X129184605Y-73393821D01*
X129193594Y-73393500D01*
X130145406Y-73393500D01*
X130213527Y-73413502D01*
G37*
%TD.AperFunction*%
%TA.AperFunction,Conductor*%
G36*
X72696870Y-101532774D02*
G01*
X73081167Y-101917071D01*
X73184925Y-101986400D01*
X73300215Y-102034155D01*
X73422606Y-102058500D01*
X73547394Y-102058500D01*
X135675500Y-102058500D01*
X135743621Y-102078502D01*
X135790114Y-102132158D01*
X135801500Y-102184500D01*
X135801500Y-102340500D01*
X135781498Y-102408621D01*
X135727842Y-102455114D01*
X135675500Y-102466500D01*
X72934594Y-102466500D01*
X72866473Y-102446498D01*
X72845499Y-102429595D01*
X72469866Y-102053962D01*
X72435840Y-101991650D01*
X72436816Y-101933937D01*
X72464564Y-101824368D01*
X72482206Y-101611460D01*
X72507764Y-101545228D01*
X72565076Y-101503324D01*
X72635944Y-101499058D01*
X72696870Y-101532774D01*
G37*
%TD.AperFunction*%
%TA.AperFunction,Conductor*%
G36*
X74738876Y-97753502D02*
G01*
X74779874Y-97796500D01*
X74860958Y-97936941D01*
X74860965Y-97936951D01*
X74988744Y-98078864D01*
X75006136Y-98091500D01*
X75143248Y-98191118D01*
X75317712Y-98268794D01*
X75504513Y-98308500D01*
X75560406Y-98308500D01*
X75628527Y-98328502D01*
X75649501Y-98345405D01*
X76007929Y-98703833D01*
X76096167Y-98792071D01*
X76199925Y-98861400D01*
X76315215Y-98909155D01*
X76437606Y-98933500D01*
X145245406Y-98933500D01*
X145313527Y-98953502D01*
X145334501Y-98970405D01*
X147390501Y-101026405D01*
X147424527Y-101088717D01*
X147419462Y-101159532D01*
X147376915Y-101216368D01*
X147310395Y-101241179D01*
X147301406Y-101241500D01*
X147207431Y-101241500D01*
X147096496Y-101260011D01*
X146985355Y-101278557D01*
X146982213Y-101279353D01*
X146980889Y-101279303D01*
X146980224Y-101279414D01*
X146980201Y-101279277D01*
X146911267Y-101276675D01*
X146862204Y-101246299D01*
X145023835Y-99407931D01*
X145023833Y-99407929D01*
X144920075Y-99338600D01*
X144804785Y-99290845D01*
X144731086Y-99276185D01*
X144682396Y-99266500D01*
X144682394Y-99266500D01*
X75303421Y-99266500D01*
X75235300Y-99246498D01*
X75188807Y-99192842D01*
X75183588Y-99179437D01*
X75167687Y-99130500D01*
X75134527Y-99028444D01*
X75039040Y-98863056D01*
X75039038Y-98863054D01*
X75039034Y-98863048D01*
X74911255Y-98721135D01*
X74756752Y-98608882D01*
X74582288Y-98531206D01*
X74395487Y-98491500D01*
X74204513Y-98491500D01*
X74017711Y-98531206D01*
X73843247Y-98608882D01*
X73688744Y-98721135D01*
X73560965Y-98863048D01*
X73560958Y-98863058D01*
X73465476Y-99028438D01*
X73465473Y-99028445D01*
X73406457Y-99210072D01*
X73386496Y-99400000D01*
X73406457Y-99589927D01*
X73435355Y-99678864D01*
X73465473Y-99771556D01*
X73465476Y-99771561D01*
X73560958Y-99936941D01*
X73560965Y-99936951D01*
X73688744Y-100078864D01*
X73749999Y-100123368D01*
X73843248Y-100191118D01*
X74017712Y-100268794D01*
X74204513Y-100308500D01*
X74260405Y-100308500D01*
X74328526Y-100328502D01*
X74349500Y-100345405D01*
X74396167Y-100392072D01*
X74499925Y-100461401D01*
X74615215Y-100509155D01*
X74737606Y-100533500D01*
X144305406Y-100533500D01*
X144373527Y-100553502D01*
X144394501Y-100570405D01*
X145133033Y-101308937D01*
X145167059Y-101371249D01*
X145161994Y-101442064D01*
X145119447Y-101498900D01*
X145052927Y-101523711D01*
X145020786Y-101521887D01*
X144882299Y-101496000D01*
X144677701Y-101496000D01*
X144476576Y-101533596D01*
X144285803Y-101607503D01*
X144285796Y-101607506D01*
X144111841Y-101715213D01*
X144111841Y-101715214D01*
X144092473Y-101732869D01*
X144527839Y-102168235D01*
X144472993Y-102199901D01*
X144379901Y-102292993D01*
X144348235Y-102347839D01*
X143914520Y-101914124D01*
X143914517Y-101914124D01*
X143837341Y-102016325D01*
X143837335Y-102016334D01*
X143760544Y-102170552D01*
X143712275Y-102222616D01*
X143643521Y-102240318D01*
X143576110Y-102218038D01*
X143531446Y-102162851D01*
X143529857Y-102158665D01*
X143529297Y-102157388D01*
X143529296Y-102157384D01*
X143438860Y-101951209D01*
X143414631Y-101914124D01*
X143315724Y-101762734D01*
X143315720Y-101762729D01*
X143199570Y-101636559D01*
X143163240Y-101597094D01*
X143163239Y-101597093D01*
X143163237Y-101597091D01*
X143075533Y-101528828D01*
X142985576Y-101458811D01*
X142787574Y-101351658D01*
X142787572Y-101351657D01*
X142787571Y-101351656D01*
X142574639Y-101278557D01*
X142574630Y-101278555D01*
X142530476Y-101271187D01*
X142352569Y-101241500D01*
X142127431Y-101241500D01*
X142000664Y-101262653D01*
X141905356Y-101278557D01*
X141902227Y-101279350D01*
X141900905Y-101279300D01*
X141900224Y-101279414D01*
X141900200Y-101279273D01*
X141831281Y-101276681D01*
X141782204Y-101246300D01*
X141468835Y-100932931D01*
X141468833Y-100932929D01*
X141365075Y-100863600D01*
X141249785Y-100815845D01*
X141176086Y-100801185D01*
X141127396Y-100791500D01*
X141127394Y-100791500D01*
X73799594Y-100791500D01*
X73731473Y-100771498D01*
X73710499Y-100754595D01*
X72515404Y-99559500D01*
X72481378Y-99497188D01*
X72478499Y-99470405D01*
X72478499Y-98409455D01*
X72467887Y-98305574D01*
X72458940Y-98278573D01*
X72412115Y-98137262D01*
X72319030Y-97986348D01*
X72319029Y-97986347D01*
X72319024Y-97986341D01*
X72281278Y-97948595D01*
X72247252Y-97886283D01*
X72252317Y-97815468D01*
X72294864Y-97758632D01*
X72361384Y-97733821D01*
X72370373Y-97733500D01*
X74670755Y-97733500D01*
X74738876Y-97753502D01*
G37*
%TD.AperFunction*%
%TA.AperFunction,Conductor*%
G36*
X116011813Y-64859351D02*
G01*
X116068649Y-64901897D01*
X116085837Y-64933374D01*
X116139110Y-65076202D01*
X116139112Y-65076207D01*
X116226738Y-65193261D01*
X116343792Y-65280887D01*
X116343794Y-65280888D01*
X116343796Y-65280889D01*
X116402875Y-65302924D01*
X116480795Y-65331988D01*
X116488474Y-65333803D01*
X116488058Y-65335560D01*
X116544548Y-65358951D01*
X116585047Y-65417263D01*
X116591500Y-65457070D01*
X116591500Y-81864707D01*
X116610932Y-81962396D01*
X116620649Y-82011247D01*
X116677826Y-82149284D01*
X116760834Y-82273515D01*
X116760838Y-82273519D01*
X118335780Y-83848461D01*
X118369806Y-83910773D01*
X118370200Y-83913275D01*
X118370292Y-83913257D01*
X118401780Y-84071556D01*
X118410256Y-84114168D01*
X118486279Y-84297704D01*
X118596647Y-84462881D01*
X118596649Y-84462883D01*
X120054595Y-85920829D01*
X120088621Y-85983141D01*
X120091500Y-86009924D01*
X120091500Y-95215500D01*
X120071498Y-95283621D01*
X120017842Y-95330114D01*
X119965500Y-95341500D01*
X101650668Y-95341500D01*
X101455830Y-95380256D01*
X101455825Y-95380258D01*
X101272296Y-95456279D01*
X101107123Y-95566644D01*
X101107121Y-95566645D01*
X100969170Y-95704596D01*
X100906858Y-95738621D01*
X100880075Y-95741500D01*
X77866371Y-95741500D01*
X77798250Y-95721498D01*
X77777276Y-95704595D01*
X76883519Y-94810838D01*
X76883515Y-94810834D01*
X76759284Y-94727826D01*
X76621247Y-94670649D01*
X76547976Y-94656074D01*
X76547975Y-94656073D01*
X76474711Y-94641500D01*
X76474706Y-94641500D01*
X67425294Y-94641500D01*
X67425290Y-94641500D01*
X67278753Y-94670649D01*
X67278750Y-94670650D01*
X67140716Y-94727826D01*
X67016486Y-94810833D01*
X67016480Y-94810838D01*
X60022724Y-101804595D01*
X59960412Y-101838621D01*
X59933629Y-101841500D01*
X59428059Y-101841500D01*
X59359938Y-101821498D01*
X59313445Y-101767842D01*
X59302749Y-101702331D01*
X59308558Y-101647055D01*
X59335570Y-101581398D01*
X59344764Y-101571138D01*
X66545499Y-94370405D01*
X66607811Y-94336379D01*
X66634594Y-94333500D01*
X111662393Y-94333500D01*
X111662394Y-94333500D01*
X111784785Y-94309155D01*
X111900075Y-94261400D01*
X112003833Y-94192071D01*
X115801009Y-90394893D01*
X115863319Y-90360870D01*
X115934132Y-90365933D01*
X115934134Y-90365934D01*
X115934135Y-90365935D01*
X116030795Y-90401988D01*
X116030803Y-90401990D01*
X116091350Y-90408499D01*
X116091355Y-90408499D01*
X116091362Y-90408500D01*
X116091368Y-90408500D01*
X117988632Y-90408500D01*
X117988638Y-90408500D01*
X117988645Y-90408499D01*
X117988649Y-90408499D01*
X118049196Y-90401990D01*
X118049199Y-90401989D01*
X118049201Y-90401989D01*
X118186204Y-90350889D01*
X118189857Y-90348155D01*
X118303261Y-90263261D01*
X118390887Y-90146207D01*
X118390887Y-90146206D01*
X118390889Y-90146204D01*
X118435910Y-90025499D01*
X118441988Y-90009204D01*
X118441990Y-90009196D01*
X118448499Y-89948649D01*
X118448500Y-89948632D01*
X118448500Y-88051367D01*
X118448499Y-88051350D01*
X118441990Y-87990803D01*
X118441988Y-87990795D01*
X118400234Y-87878850D01*
X118390889Y-87853796D01*
X118390888Y-87853794D01*
X118390887Y-87853792D01*
X118303261Y-87736738D01*
X118186207Y-87649112D01*
X118186202Y-87649110D01*
X118049204Y-87598011D01*
X118049196Y-87598009D01*
X117988649Y-87591500D01*
X117988638Y-87591500D01*
X116559500Y-87591500D01*
X116491379Y-87571498D01*
X116444886Y-87517842D01*
X116433500Y-87465500D01*
X116433500Y-83587607D01*
X116433499Y-83587603D01*
X116409155Y-83465215D01*
X116381864Y-83399328D01*
X116361401Y-83349925D01*
X116292072Y-83246167D01*
X115835405Y-82789500D01*
X115801379Y-82727188D01*
X115798500Y-82700405D01*
X115798500Y-65020690D01*
X115818502Y-64952569D01*
X115835404Y-64931596D01*
X115878686Y-64888313D01*
X115940997Y-64854287D01*
X116011813Y-64859351D01*
G37*
%TD.AperFunction*%
%TA.AperFunction,Conductor*%
G36*
X67393225Y-99735669D02*
G01*
X67415480Y-99761353D01*
X67448607Y-99812058D01*
X67504275Y-99897265D01*
X67504279Y-99897270D01*
X67656762Y-100062908D01*
X67677265Y-100078866D01*
X67834424Y-100201189D01*
X67867680Y-100219186D01*
X67918071Y-100269200D01*
X67933423Y-100338516D01*
X67908862Y-100405129D01*
X67867680Y-100440813D01*
X67834426Y-100458810D01*
X67834424Y-100458811D01*
X67656762Y-100597091D01*
X67504279Y-100762729D01*
X67504275Y-100762734D01*
X67381141Y-100951206D01*
X67288611Y-101162156D01*
X67287056Y-101161474D01*
X67250351Y-101213260D01*
X67184498Y-101239792D01*
X67114755Y-101226509D01*
X67063265Y-101177629D01*
X67059454Y-101170552D01*
X66982659Y-101016326D01*
X66905480Y-100914124D01*
X66905479Y-100914124D01*
X66471764Y-101347839D01*
X66440099Y-101292993D01*
X66347007Y-101199901D01*
X66292159Y-101168234D01*
X66727525Y-100732868D01*
X66708162Y-100715216D01*
X66708160Y-100715215D01*
X66534203Y-100607506D01*
X66534199Y-100607504D01*
X66471579Y-100583245D01*
X66415285Y-100539985D01*
X66391315Y-100473157D01*
X66407280Y-100403979D01*
X66458111Y-100354414D01*
X66476180Y-100346583D01*
X66587574Y-100308342D01*
X66785576Y-100201189D01*
X66963240Y-100062906D01*
X67115722Y-99897268D01*
X67204518Y-99761354D01*
X67258520Y-99715268D01*
X67328868Y-99705692D01*
X67393225Y-99735669D01*
G37*
%TD.AperFunction*%
%TA.AperFunction,Conductor*%
G36*
X168993225Y-99735669D02*
G01*
X169015480Y-99761353D01*
X169048607Y-99812058D01*
X169104275Y-99897265D01*
X169104279Y-99897270D01*
X169256762Y-100062908D01*
X169277265Y-100078866D01*
X169434424Y-100201189D01*
X169467680Y-100219186D01*
X169518071Y-100269200D01*
X169533423Y-100338516D01*
X169508862Y-100405129D01*
X169467680Y-100440813D01*
X169434426Y-100458810D01*
X169434424Y-100458811D01*
X169256762Y-100597091D01*
X169104279Y-100762729D01*
X169104275Y-100762734D01*
X168981141Y-100951206D01*
X168888611Y-101162156D01*
X168887056Y-101161474D01*
X168850351Y-101213260D01*
X168784498Y-101239792D01*
X168714755Y-101226509D01*
X168663265Y-101177629D01*
X168659454Y-101170552D01*
X168582659Y-101016326D01*
X168505480Y-100914124D01*
X168505479Y-100914124D01*
X168071764Y-101347839D01*
X168040099Y-101292993D01*
X167947007Y-101199901D01*
X167892159Y-101168234D01*
X168327525Y-100732868D01*
X168308162Y-100715216D01*
X168308160Y-100715215D01*
X168134203Y-100607506D01*
X168134199Y-100607504D01*
X168071579Y-100583245D01*
X168015285Y-100539985D01*
X167991315Y-100473157D01*
X168007280Y-100403979D01*
X168058111Y-100354414D01*
X168076180Y-100346583D01*
X168187574Y-100308342D01*
X168385576Y-100201189D01*
X168563240Y-100062906D01*
X168715722Y-99897268D01*
X168804518Y-99761354D01*
X168858520Y-99715268D01*
X168928868Y-99705692D01*
X168993225Y-99735669D01*
G37*
%TD.AperFunction*%
%TA.AperFunction,Conductor*%
G36*
X114834527Y-63253502D02*
G01*
X114881020Y-63307158D01*
X114891124Y-63377432D01*
X114861630Y-63442012D01*
X114855501Y-63448595D01*
X114672931Y-63631164D01*
X114672926Y-63631171D01*
X114603601Y-63734923D01*
X114562535Y-63834065D01*
X114555845Y-63850215D01*
X114548849Y-63885385D01*
X114531500Y-63972603D01*
X114531500Y-83077396D01*
X114537763Y-83108882D01*
X114555845Y-83199785D01*
X114603600Y-83315075D01*
X114672929Y-83418833D01*
X114672931Y-83418835D01*
X115129595Y-83875499D01*
X115163621Y-83937811D01*
X115166500Y-83964594D01*
X115166500Y-87563147D01*
X115146498Y-87631268D01*
X115092842Y-87677761D01*
X115022568Y-87687865D01*
X114999588Y-87682320D01*
X114846955Y-87629921D01*
X114846948Y-87629919D01*
X114720415Y-87608805D01*
X114616712Y-87591500D01*
X114383288Y-87591500D01*
X114279585Y-87608805D01*
X114153051Y-87629919D01*
X114153044Y-87629921D01*
X113932276Y-87705711D01*
X113932273Y-87705713D01*
X113726985Y-87816809D01*
X113726983Y-87816810D01*
X113542778Y-87960182D01*
X113542774Y-87960186D01*
X113384685Y-88131916D01*
X113257015Y-88327331D01*
X113163252Y-88541089D01*
X113163249Y-88541096D01*
X113105950Y-88767366D01*
X113105949Y-88767372D01*
X113105949Y-88767374D01*
X113086673Y-89000000D01*
X113105102Y-89222409D01*
X113105950Y-89232633D01*
X113163249Y-89458903D01*
X113163252Y-89458910D01*
X113257015Y-89672668D01*
X113384685Y-89868083D01*
X113542774Y-90039813D01*
X113542778Y-90039817D01*
X113580008Y-90068794D01*
X113726983Y-90183190D01*
X113874567Y-90263058D01*
X113898857Y-90276203D01*
X113949248Y-90326216D01*
X113964600Y-90395533D01*
X113940039Y-90462146D01*
X113927983Y-90476112D01*
X111374501Y-93029595D01*
X111312189Y-93063620D01*
X111285406Y-93066500D01*
X66257603Y-93066500D01*
X66187655Y-93080414D01*
X66135215Y-93090845D01*
X66135213Y-93090845D01*
X66135212Y-93090846D01*
X66019923Y-93138601D01*
X65916171Y-93207926D01*
X65916164Y-93207931D01*
X58469501Y-100654595D01*
X58407189Y-100688621D01*
X58380406Y-100691500D01*
X58304513Y-100691500D01*
X58117711Y-100731206D01*
X57943247Y-100808882D01*
X57788747Y-100921133D01*
X57785437Y-100924810D01*
X57724991Y-100962050D01*
X57691800Y-100966500D01*
X57333594Y-100966500D01*
X57265473Y-100946498D01*
X57218980Y-100892842D01*
X57208876Y-100822568D01*
X57238370Y-100757988D01*
X57244499Y-100751405D01*
X58050499Y-99945405D01*
X58112811Y-99911379D01*
X58139594Y-99908500D01*
X58195487Y-99908500D01*
X58382288Y-99868794D01*
X58556752Y-99791118D01*
X58711253Y-99678866D01*
X58791334Y-99589927D01*
X58839034Y-99536951D01*
X58839035Y-99536949D01*
X58839040Y-99536944D01*
X58934527Y-99371556D01*
X58993542Y-99189928D01*
X59010907Y-99024703D01*
X59037920Y-98959048D01*
X59047113Y-98948789D01*
X65220500Y-92775405D01*
X65282812Y-92741379D01*
X65309595Y-92738500D01*
X108057393Y-92738500D01*
X108057394Y-92738500D01*
X108179785Y-92714155D01*
X108295075Y-92666400D01*
X108398833Y-92597071D01*
X113742071Y-87253833D01*
X113811400Y-87150075D01*
X113859155Y-87034785D01*
X113883500Y-86912394D01*
X113883500Y-86787607D01*
X113883500Y-83887606D01*
X113859155Y-83765215D01*
X113811401Y-83649925D01*
X113742072Y-83546167D01*
X113570405Y-83374500D01*
X113536379Y-83312188D01*
X113533500Y-83285405D01*
X113533500Y-64214595D01*
X113553502Y-64146474D01*
X113570405Y-64125499D01*
X114425501Y-63270404D01*
X114487813Y-63236379D01*
X114514596Y-63233500D01*
X114766406Y-63233500D01*
X114834527Y-63253502D01*
G37*
%TD.AperFunction*%
%TA.AperFunction,Conductor*%
G36*
X205799527Y-61888502D02*
G01*
X205846020Y-61942158D01*
X205856124Y-62012432D01*
X205826630Y-62077012D01*
X205820501Y-62083595D01*
X196007931Y-71896164D01*
X196007926Y-71896171D01*
X195945280Y-71989928D01*
X195938600Y-71999925D01*
X195935251Y-72008011D01*
X195896581Y-72101368D01*
X195890845Y-72115215D01*
X195884575Y-72146739D01*
X195866500Y-72237603D01*
X195866500Y-73962396D01*
X195874468Y-74002453D01*
X195890845Y-74084785D01*
X195938600Y-74200075D01*
X196007929Y-74303833D01*
X196007931Y-74303835D01*
X196529595Y-74825499D01*
X196563621Y-74887811D01*
X196566500Y-74914594D01*
X196566500Y-77997474D01*
X196546498Y-78065595D01*
X196534137Y-78081784D01*
X196460957Y-78163059D01*
X196376767Y-78308882D01*
X196365473Y-78328444D01*
X196360103Y-78344971D01*
X196306457Y-78510072D01*
X196286496Y-78700000D01*
X196306457Y-78889927D01*
X196336526Y-78982470D01*
X196365473Y-79071556D01*
X196365476Y-79071561D01*
X196451832Y-79221135D01*
X196460960Y-79236944D01*
X196534137Y-79318215D01*
X196564853Y-79382220D01*
X196566500Y-79402524D01*
X196566500Y-80962713D01*
X196546498Y-81030834D01*
X196529595Y-81051808D01*
X188512808Y-89068595D01*
X188450496Y-89102621D01*
X188423713Y-89105500D01*
X187496289Y-89105500D01*
X187428168Y-89085498D01*
X187407194Y-89068596D01*
X187238598Y-88900000D01*
X186646526Y-88307929D01*
X186542768Y-88238600D01*
X186427478Y-88190845D01*
X186353779Y-88176185D01*
X186305089Y-88166500D01*
X186305087Y-88166500D01*
X173329245Y-88166500D01*
X173261124Y-88146498D01*
X173220126Y-88103500D01*
X173153507Y-87988113D01*
X173139040Y-87963056D01*
X173139038Y-87963054D01*
X173139034Y-87963048D01*
X173011255Y-87821135D01*
X172856752Y-87708882D01*
X172682288Y-87631206D01*
X172495487Y-87591500D01*
X172304513Y-87591500D01*
X172117711Y-87631206D01*
X171943247Y-87708882D01*
X171788744Y-87821135D01*
X171660965Y-87963048D01*
X171660958Y-87963058D01*
X171579874Y-88103500D01*
X171528491Y-88152493D01*
X171470755Y-88166500D01*
X170537603Y-88166500D01*
X170415215Y-88190845D01*
X170415211Y-88190846D01*
X170402364Y-88196167D01*
X170324440Y-88228445D01*
X170299923Y-88238600D01*
X170196167Y-88307927D01*
X170017176Y-88486919D01*
X169196167Y-89307929D01*
X169107931Y-89396164D01*
X169107926Y-89396171D01*
X169058325Y-89470405D01*
X169038600Y-89499925D01*
X168990845Y-89615215D01*
X168981436Y-89662518D01*
X168966500Y-89737603D01*
X168966500Y-98183349D01*
X168946498Y-98251470D01*
X168892842Y-98297963D01*
X168822568Y-98308067D01*
X168757988Y-98278573D01*
X168735017Y-98252265D01*
X168715723Y-98222734D01*
X168715722Y-98222732D01*
X168631466Y-98131206D01*
X168581799Y-98077253D01*
X168550378Y-98013588D01*
X168548500Y-97991915D01*
X168548500Y-89288503D01*
X168568502Y-89220382D01*
X168585405Y-89199408D01*
X170639408Y-87145405D01*
X170701720Y-87111379D01*
X170728503Y-87108500D01*
X183089478Y-87108500D01*
X183089479Y-87108500D01*
X183265000Y-87073587D01*
X183430336Y-87005103D01*
X183579135Y-86905678D01*
X189605678Y-80879135D01*
X189705103Y-80730336D01*
X189773587Y-80565000D01*
X189808500Y-80389479D01*
X189808500Y-80210521D01*
X189808500Y-76828503D01*
X189828502Y-76760382D01*
X189845405Y-76739408D01*
X204679408Y-61905405D01*
X204741720Y-61871379D01*
X204768503Y-61868500D01*
X205731406Y-61868500D01*
X205799527Y-61888502D01*
G37*
%TD.AperFunction*%
%TA.AperFunction,Conductor*%
G36*
X207187522Y-62978502D02*
G01*
X207234015Y-63032158D01*
X207244119Y-63102432D01*
X207240591Y-63118981D01*
X207190148Y-63296267D01*
X207171270Y-63500000D01*
X207190148Y-63703730D01*
X207246138Y-63900514D01*
X207246140Y-63900519D01*
X207337339Y-64083672D01*
X207414518Y-64185874D01*
X207414520Y-64185874D01*
X207848234Y-63752159D01*
X207879901Y-63807007D01*
X207972993Y-63900099D01*
X208027838Y-63931764D01*
X207592473Y-64367129D01*
X207611837Y-64384783D01*
X207611839Y-64384784D01*
X207785796Y-64492493D01*
X207785803Y-64492496D01*
X207976577Y-64566403D01*
X207976576Y-64566403D01*
X208177701Y-64604000D01*
X208382298Y-64604000D01*
X208520784Y-64578112D01*
X208591420Y-64585257D01*
X208646981Y-64629455D01*
X208669826Y-64696676D01*
X208652702Y-64765577D01*
X208633034Y-64791061D01*
X208594502Y-64829594D01*
X208532190Y-64863620D01*
X208505405Y-64866500D01*
X206237600Y-64866500D01*
X206115217Y-64890844D01*
X206115209Y-64890846D01*
X206081447Y-64904830D01*
X206081447Y-64904831D01*
X205999925Y-64938599D01*
X205896171Y-65007925D01*
X205896164Y-65007930D01*
X198822912Y-72081182D01*
X198760600Y-72115208D01*
X198707621Y-72115334D01*
X198595489Y-72091500D01*
X198595487Y-72091500D01*
X198404513Y-72091500D01*
X198217711Y-72131206D01*
X198043247Y-72208882D01*
X197888744Y-72321135D01*
X197760965Y-72463048D01*
X197760958Y-72463058D01*
X197665476Y-72628438D01*
X197665473Y-72628445D01*
X197606457Y-72810072D01*
X197586496Y-73000000D01*
X197606457Y-73189927D01*
X197628378Y-73257391D01*
X197665473Y-73371556D01*
X197665476Y-73371561D01*
X197760958Y-73536941D01*
X197760965Y-73536951D01*
X197888744Y-73678864D01*
X197888747Y-73678866D01*
X198043248Y-73791118D01*
X198217712Y-73868794D01*
X198266697Y-73879206D01*
X198329170Y-73912934D01*
X198363492Y-73975084D01*
X198366500Y-74002453D01*
X198366500Y-81585406D01*
X198346498Y-81653527D01*
X198329595Y-81674501D01*
X189274501Y-90729595D01*
X189212189Y-90763621D01*
X189185406Y-90766500D01*
X186714594Y-90766500D01*
X186646473Y-90746498D01*
X186625499Y-90729595D01*
X185903835Y-90007931D01*
X185903833Y-90007929D01*
X185800075Y-89938600D01*
X185684785Y-89890845D01*
X185611086Y-89876185D01*
X185562396Y-89866500D01*
X185562394Y-89866500D01*
X171907394Y-89866500D01*
X171782606Y-89866500D01*
X171782600Y-89866500D01*
X171669091Y-89889079D01*
X171644510Y-89891500D01*
X171449513Y-89891500D01*
X171262711Y-89931206D01*
X171088247Y-90008882D01*
X170933744Y-90121135D01*
X170805965Y-90263048D01*
X170805958Y-90263058D01*
X170710476Y-90428438D01*
X170710473Y-90428444D01*
X170695999Y-90472986D01*
X170651457Y-90610072D01*
X170631496Y-90800000D01*
X170651457Y-90989927D01*
X170674680Y-91061398D01*
X170710473Y-91171556D01*
X170805960Y-91336944D01*
X170879137Y-91418215D01*
X170909853Y-91482220D01*
X170911500Y-91502524D01*
X170911500Y-97699738D01*
X170891498Y-97767859D01*
X170837842Y-97814352D01*
X170767568Y-97824456D01*
X170732705Y-97812928D01*
X170732345Y-97813751D01*
X170727571Y-97811656D01*
X170514639Y-97738557D01*
X170514632Y-97738555D01*
X170338761Y-97709208D01*
X170274862Y-97678266D01*
X170237834Y-97617690D01*
X170233500Y-97584926D01*
X170233500Y-90114595D01*
X170253502Y-90046474D01*
X170270405Y-90025499D01*
X170825501Y-89470404D01*
X170887813Y-89436379D01*
X170914596Y-89433500D01*
X172162393Y-89433500D01*
X172162394Y-89433500D01*
X172163726Y-89433234D01*
X172275909Y-89410921D01*
X172300490Y-89408500D01*
X172499511Y-89408500D01*
X172524092Y-89410921D01*
X172637600Y-89433499D01*
X172637603Y-89433499D01*
X172637606Y-89433500D01*
X172762394Y-89433500D01*
X185928098Y-89433500D01*
X185996219Y-89453502D01*
X186017193Y-89470404D01*
X186777860Y-90231072D01*
X186881618Y-90300401D01*
X186963140Y-90334168D01*
X186996908Y-90348155D01*
X187119299Y-90372500D01*
X187119300Y-90372500D01*
X188800700Y-90372500D01*
X188800701Y-90372500D01*
X188923092Y-90348155D01*
X189038382Y-90300400D01*
X189142140Y-90231071D01*
X197692071Y-81681140D01*
X197761400Y-81577382D01*
X197809155Y-81462092D01*
X197833500Y-81339701D01*
X197833500Y-81214913D01*
X197833500Y-79402524D01*
X197853502Y-79334403D01*
X197865858Y-79318220D01*
X197939040Y-79236944D01*
X198034527Y-79071556D01*
X198093542Y-78889928D01*
X198113504Y-78700000D01*
X198093542Y-78510072D01*
X198034527Y-78328444D01*
X197939040Y-78163056D01*
X197865863Y-78081784D01*
X197835146Y-78017776D01*
X197833500Y-77997474D01*
X197833500Y-74537607D01*
X197833499Y-74537603D01*
X197809155Y-74415215D01*
X197761400Y-74299925D01*
X197692071Y-74196167D01*
X197603833Y-74107929D01*
X197170405Y-73674501D01*
X197136379Y-73612189D01*
X197133500Y-73585406D01*
X197133500Y-72614594D01*
X197153502Y-72546473D01*
X197170405Y-72525499D01*
X206700499Y-62995405D01*
X206762811Y-62961379D01*
X206789594Y-62958500D01*
X207119401Y-62958500D01*
X207187522Y-62978502D01*
G37*
%TD.AperFunction*%
%TA.AperFunction,Conductor*%
G36*
X118624688Y-64940792D02*
G01*
X118675991Y-64971896D01*
X122502877Y-68798782D01*
X122536903Y-68861094D01*
X122539092Y-68874706D01*
X122556457Y-69039927D01*
X122581482Y-69116944D01*
X122615473Y-69221556D01*
X122615476Y-69221561D01*
X122709896Y-69385102D01*
X122710960Y-69386944D01*
X122784137Y-69468215D01*
X122814853Y-69532220D01*
X122816500Y-69552524D01*
X122816500Y-72512396D01*
X122820698Y-72533499D01*
X122840845Y-72634785D01*
X122888600Y-72750075D01*
X122957929Y-72853833D01*
X124256167Y-74152071D01*
X124359925Y-74221400D01*
X124475215Y-74269155D01*
X124597606Y-74293500D01*
X124722393Y-74293500D01*
X125370000Y-74293500D01*
X125438121Y-74313502D01*
X125484614Y-74367158D01*
X125496000Y-74419500D01*
X125496000Y-74433000D01*
X126115500Y-74433000D01*
X126183621Y-74453002D01*
X126230114Y-74506658D01*
X126241500Y-74559000D01*
X126241500Y-74601309D01*
X126221498Y-74669430D01*
X126167842Y-74715923D01*
X126097568Y-74726027D01*
X126032988Y-74696533D01*
X126026405Y-74690404D01*
X126023001Y-74687000D01*
X125496001Y-74687000D01*
X125496001Y-74835022D01*
X125510737Y-74909105D01*
X125510737Y-74909107D01*
X125566875Y-74993124D01*
X125650893Y-75049262D01*
X125650894Y-75049263D01*
X125724980Y-75063999D01*
X126023000Y-75063999D01*
X126026405Y-75060595D01*
X126088717Y-75026569D01*
X126159532Y-75031634D01*
X126216368Y-75074181D01*
X126241179Y-75140701D01*
X126241500Y-75149690D01*
X126241500Y-75833629D01*
X126221498Y-75901750D01*
X126204595Y-75922724D01*
X119469095Y-82658224D01*
X119406783Y-82692250D01*
X119335968Y-82687185D01*
X119290905Y-82658224D01*
X118145405Y-81512724D01*
X118111379Y-81450412D01*
X118108500Y-81423629D01*
X118108500Y-65334496D01*
X118128502Y-65266375D01*
X118182158Y-65219882D01*
X118183207Y-65219409D01*
X118246752Y-65191118D01*
X118401253Y-65078866D01*
X118493262Y-64976678D01*
X118553705Y-64939441D01*
X118624688Y-64940792D01*
G37*
%TD.AperFunction*%
%TA.AperFunction,Conductor*%
G36*
X120153527Y-63253502D02*
G01*
X120174500Y-63270404D01*
X121570651Y-64666556D01*
X122952877Y-66048782D01*
X122986903Y-66111094D01*
X122989092Y-66124706D01*
X123006457Y-66289927D01*
X123019472Y-66329981D01*
X123065473Y-66471556D01*
X123065476Y-66471561D01*
X123160958Y-66636941D01*
X123160965Y-66636951D01*
X123288744Y-66778864D01*
X123288747Y-66778866D01*
X123443248Y-66891118D01*
X123617712Y-66968794D01*
X123804513Y-67008500D01*
X123860405Y-67008500D01*
X123928526Y-67028502D01*
X123949500Y-67045405D01*
X125379595Y-68475499D01*
X125413620Y-68537811D01*
X125416500Y-68564594D01*
X125416500Y-72065045D01*
X125396498Y-72133166D01*
X125391368Y-72140554D01*
X125299112Y-72263792D01*
X125299110Y-72263797D01*
X125248011Y-72400795D01*
X125248009Y-72400803D01*
X125241500Y-72461350D01*
X125241500Y-72900500D01*
X125221498Y-72968621D01*
X125167842Y-73015114D01*
X125115500Y-73026500D01*
X124974594Y-73026500D01*
X124906473Y-73006498D01*
X124885499Y-72989595D01*
X124120405Y-72224501D01*
X124086379Y-72162189D01*
X124083500Y-72135406D01*
X124083500Y-69552524D01*
X124103502Y-69484403D01*
X124115858Y-69468220D01*
X124189040Y-69386944D01*
X124284527Y-69221556D01*
X124343542Y-69039928D01*
X124363504Y-68850000D01*
X124343542Y-68660072D01*
X124284527Y-68478444D01*
X124189040Y-68313056D01*
X124189038Y-68313054D01*
X124189034Y-68313048D01*
X124061255Y-68171135D01*
X123906752Y-68058882D01*
X123732288Y-67981206D01*
X123545487Y-67941500D01*
X123489595Y-67941500D01*
X123421474Y-67921498D01*
X123400500Y-67904595D01*
X121179794Y-65683889D01*
X118944498Y-63448594D01*
X118910473Y-63386283D01*
X118915538Y-63315468D01*
X118958085Y-63258632D01*
X119024605Y-63233821D01*
X119033594Y-63233500D01*
X120085406Y-63233500D01*
X120153527Y-63253502D01*
G37*
%TD.AperFunction*%
%TA.AperFunction,Conductor*%
G36*
X87813600Y-62884599D02*
G01*
X87860093Y-62938255D01*
X87870197Y-63008529D01*
X87840703Y-63073109D01*
X87786391Y-63109770D01*
X87773767Y-63114103D01*
X87773764Y-63114105D01*
X87634463Y-63189491D01*
X87575764Y-63221257D01*
X87575762Y-63221258D01*
X87398100Y-63359538D01*
X87245617Y-63525176D01*
X87245613Y-63525181D01*
X87122477Y-63713656D01*
X87078029Y-63814987D01*
X87032348Y-63869336D01*
X86964535Y-63890359D01*
X86896121Y-63871382D01*
X86848828Y-63818431D01*
X86841452Y-63798854D01*
X86824866Y-63740559D01*
X86824863Y-63740552D01*
X86733663Y-63557399D01*
X86714467Y-63531979D01*
X86244413Y-63926401D01*
X86191103Y-63834065D01*
X86098011Y-63740973D01*
X86081561Y-63731476D01*
X86549608Y-63338738D01*
X86459165Y-63256287D01*
X86285207Y-63148578D01*
X86285200Y-63148575D01*
X86180692Y-63108088D01*
X86124397Y-63064829D01*
X86100427Y-62998001D01*
X86116391Y-62928822D01*
X86167222Y-62879257D01*
X86226209Y-62864597D01*
X87745479Y-62864597D01*
X87813600Y-62884599D01*
G37*
%TD.AperFunction*%
%TA.AperFunction,Conductor*%
G36*
X85423920Y-62884599D02*
G01*
X85470413Y-62938255D01*
X85480517Y-63008529D01*
X85451023Y-63073109D01*
X85401316Y-63108088D01*
X85296807Y-63148575D01*
X85296795Y-63148581D01*
X85183073Y-63218992D01*
X85576334Y-63687662D01*
X85483997Y-63740973D01*
X85390905Y-63834065D01*
X85381408Y-63850512D01*
X84986833Y-63380276D01*
X84971644Y-63394123D01*
X84971640Y-63394127D01*
X84848343Y-63557400D01*
X84848342Y-63557402D01*
X84815534Y-63623288D01*
X84767264Y-63675351D01*
X84698510Y-63693053D01*
X84631100Y-63670773D01*
X84586436Y-63615585D01*
X84580603Y-63598068D01*
X84549965Y-63477080D01*
X84459529Y-63270905D01*
X84436972Y-63236379D01*
X84336393Y-63082430D01*
X84336388Y-63082425D01*
X84330415Y-63075936D01*
X84298993Y-63012272D01*
X84306979Y-62941725D01*
X84351837Y-62886696D01*
X84419325Y-62864654D01*
X84423115Y-62864597D01*
X85355799Y-62864597D01*
X85423920Y-62884599D01*
G37*
%TD.AperFunction*%
%TA.AperFunction,Conductor*%
G36*
X112673206Y-60438502D02*
G01*
X112719699Y-60492158D01*
X112729803Y-60562432D01*
X112700309Y-60627012D01*
X112640583Y-60665396D01*
X112629667Y-60668079D01*
X112597174Y-60674542D01*
X112515215Y-60690845D01*
X112515213Y-60690845D01*
X112515212Y-60690846D01*
X112447675Y-60718821D01*
X112407091Y-60735632D01*
X112399923Y-60738601D01*
X112296171Y-60807926D01*
X112296164Y-60807931D01*
X111639501Y-61464595D01*
X111577189Y-61498621D01*
X111550406Y-61501500D01*
X110704500Y-61501500D01*
X110636379Y-61481498D01*
X110589886Y-61427842D01*
X110578500Y-61375500D01*
X110578499Y-60544500D01*
X110598501Y-60476379D01*
X110652157Y-60429886D01*
X110704499Y-60418500D01*
X112605085Y-60418500D01*
X112673206Y-60438502D01*
G37*
%TD.AperFunction*%
%TA.AperFunction,Conductor*%
G36*
X236198038Y-58430512D02*
G01*
X236216267Y-58430502D01*
X236223692Y-58430716D01*
X236523846Y-58448281D01*
X236538621Y-58450028D01*
X236830882Y-58502223D01*
X236845363Y-58505703D01*
X237129429Y-58592020D01*
X237143399Y-58597185D01*
X237415293Y-58716417D01*
X237428540Y-58723186D01*
X237503935Y-58767517D01*
X237684472Y-58873671D01*
X237696842Y-58881965D01*
X237933225Y-59061595D01*
X237944529Y-59071291D01*
X238158059Y-59277549D01*
X238168141Y-59288511D01*
X238355847Y-59518532D01*
X238364565Y-59530608D01*
X238523816Y-59781167D01*
X238531045Y-59794181D01*
X238659624Y-60061793D01*
X238665265Y-60075565D01*
X238675372Y-60105108D01*
X238761366Y-60356467D01*
X238765346Y-60370819D01*
X238827631Y-60661104D01*
X238829889Y-60675825D01*
X238857486Y-60971417D01*
X238857992Y-60986303D01*
X238850516Y-61283095D01*
X238849262Y-61297935D01*
X238806819Y-61591777D01*
X238803822Y-61606366D01*
X238727005Y-61893138D01*
X238722308Y-61907271D01*
X238612189Y-62182977D01*
X238605857Y-62196457D01*
X238463976Y-62457245D01*
X238456097Y-62469885D01*
X238284430Y-62712114D01*
X238275116Y-62723735D01*
X238076074Y-62944010D01*
X238065452Y-62954451D01*
X237838981Y-63152166D01*
X237833260Y-63156872D01*
X237819449Y-63167566D01*
X237818406Y-63168685D01*
X183078352Y-106509558D01*
X183066864Y-106517655D01*
X182975809Y-106574500D01*
X182950490Y-106586620D01*
X182766769Y-106650546D01*
X182739397Y-106656760D01*
X182695737Y-106661653D01*
X182632725Y-106668716D01*
X182618692Y-106669500D01*
X50803257Y-106669500D01*
X50796782Y-106669333D01*
X50629655Y-106660730D01*
X50465145Y-106652262D01*
X50452398Y-106650954D01*
X50127350Y-106600773D01*
X50114803Y-106598177D01*
X49796535Y-106515246D01*
X49784316Y-106511389D01*
X49476108Y-106396561D01*
X49464344Y-106391482D01*
X49169410Y-106245953D01*
X49158223Y-106239707D01*
X48879584Y-106064972D01*
X48869089Y-106057622D01*
X48609634Y-105855491D01*
X48599939Y-105847112D01*
X48362354Y-105619674D01*
X48353561Y-105610354D01*
X48140309Y-105359970D01*
X48132508Y-105349806D01*
X47945786Y-105079057D01*
X47939057Y-105068153D01*
X47822110Y-104855102D01*
X47780789Y-104779825D01*
X47775210Y-104768309D01*
X47647042Y-104465395D01*
X47642663Y-104453375D01*
X47640245Y-104445519D01*
X47596981Y-104304928D01*
X47545925Y-104139017D01*
X47542784Y-104126596D01*
X47535696Y-104091047D01*
X47478470Y-103804033D01*
X47476612Y-103791388D01*
X47445389Y-103463949D01*
X47444824Y-103451178D01*
X47447018Y-103122269D01*
X47447755Y-103109483D01*
X47450245Y-103086606D01*
X47483339Y-102782504D01*
X47485365Y-102769892D01*
X47553977Y-102448205D01*
X47557282Y-102435835D01*
X47581507Y-102360695D01*
X47658206Y-102122790D01*
X47662751Y-102110818D01*
X47786148Y-101829683D01*
X47787378Y-101827907D01*
X47796035Y-101807324D01*
X47799535Y-101799719D01*
X47803387Y-101792032D01*
X47805240Y-101785445D01*
X48056871Y-101187396D01*
X51131500Y-101187396D01*
X51134007Y-101200000D01*
X51155845Y-101309785D01*
X51203600Y-101425075D01*
X51272929Y-101528833D01*
X51272931Y-101528835D01*
X51559535Y-101815439D01*
X51588495Y-101860501D01*
X51639110Y-101996202D01*
X51639112Y-101996207D01*
X51726738Y-102113260D01*
X51785509Y-102157256D01*
X51828056Y-102214092D01*
X51836000Y-102258124D01*
X51836000Y-102373000D01*
X52455500Y-102373000D01*
X52523621Y-102393002D01*
X52570114Y-102446658D01*
X52581500Y-102499000D01*
X52581500Y-102541309D01*
X52561498Y-102609430D01*
X52507842Y-102655923D01*
X52437568Y-102666027D01*
X52372988Y-102636533D01*
X52366405Y-102630404D01*
X52363001Y-102627000D01*
X51836001Y-102627000D01*
X51836001Y-102775022D01*
X51850737Y-102849105D01*
X51850737Y-102849107D01*
X51906875Y-102933124D01*
X51990893Y-102989262D01*
X51990894Y-102989263D01*
X52064980Y-103003999D01*
X52362999Y-103003999D01*
X52378686Y-102988312D01*
X52440998Y-102954287D01*
X52511813Y-102959351D01*
X52568649Y-103001897D01*
X52585837Y-103033374D01*
X52639110Y-103176202D01*
X52639112Y-103176207D01*
X52726738Y-103293261D01*
X52843792Y-103380887D01*
X52843794Y-103380888D01*
X52843796Y-103380889D01*
X52886846Y-103396946D01*
X52980795Y-103431988D01*
X52980803Y-103431990D01*
X53041350Y-103438499D01*
X53041355Y-103438499D01*
X53041362Y-103438500D01*
X53041368Y-103438500D01*
X53638632Y-103438500D01*
X53638638Y-103438500D01*
X53638645Y-103438499D01*
X53638649Y-103438499D01*
X53699196Y-103431990D01*
X53699201Y-103431989D01*
X53699204Y-103431988D01*
X53801058Y-103393997D01*
X53871872Y-103388932D01*
X53896335Y-103396944D01*
X54057712Y-103468794D01*
X54244513Y-103508500D01*
X54435487Y-103508500D01*
X54622288Y-103468794D01*
X54796752Y-103391118D01*
X54808524Y-103382564D01*
X54875391Y-103358706D01*
X54882587Y-103358500D01*
X60374706Y-103358500D01*
X60479746Y-103337606D01*
X60521247Y-103329351D01*
X60659284Y-103272174D01*
X60783515Y-103189166D01*
X64537196Y-99435483D01*
X64599506Y-99401460D01*
X64670321Y-99406524D01*
X64727157Y-99449071D01*
X64748432Y-99493647D01*
X64749944Y-99499616D01*
X64750704Y-99502617D01*
X64841141Y-99708793D01*
X64964275Y-99897265D01*
X64964279Y-99897270D01*
X65116762Y-100062908D01*
X65137265Y-100078866D01*
X65294424Y-100201189D01*
X65492426Y-100308342D01*
X65492427Y-100308342D01*
X65492428Y-100308343D01*
X65530710Y-100321485D01*
X65603815Y-100346582D01*
X65661749Y-100387618D01*
X65688301Y-100453462D01*
X65675040Y-100523209D01*
X65626176Y-100574715D01*
X65608420Y-100583245D01*
X65545800Y-100607504D01*
X65545796Y-100607506D01*
X65371841Y-100715213D01*
X65371841Y-100715214D01*
X65352473Y-100732869D01*
X65787839Y-101168235D01*
X65732993Y-101199901D01*
X65639901Y-101292993D01*
X65608235Y-101347839D01*
X65174520Y-100914124D01*
X65174517Y-100914124D01*
X65097341Y-101016325D01*
X65097335Y-101016334D01*
X65006143Y-101199471D01*
X65006138Y-101199485D01*
X64950148Y-101396269D01*
X64931270Y-101600000D01*
X64950148Y-101803730D01*
X65006138Y-102000514D01*
X65006140Y-102000519D01*
X65097339Y-102183672D01*
X65174519Y-102285874D01*
X65608234Y-101852159D01*
X65639901Y-101907007D01*
X65732993Y-102000099D01*
X65787839Y-102031764D01*
X65352473Y-102467130D01*
X65371837Y-102484783D01*
X65371839Y-102484784D01*
X65545796Y-102592493D01*
X65545803Y-102592496D01*
X65736577Y-102666403D01*
X65736576Y-102666403D01*
X65937701Y-102704000D01*
X66142299Y-102704000D01*
X66343423Y-102666403D01*
X66534196Y-102592496D01*
X66534203Y-102592493D01*
X66708161Y-102484783D01*
X66727525Y-102467129D01*
X66292160Y-102031764D01*
X66347007Y-102000099D01*
X66440099Y-101907007D01*
X66471764Y-101852160D01*
X66905478Y-102285874D01*
X66905480Y-102285874D01*
X66982661Y-102183671D01*
X66982661Y-102183670D01*
X67059454Y-102029448D01*
X67107723Y-101977384D01*
X67176477Y-101959681D01*
X67243888Y-101981960D01*
X67288552Y-102037147D01*
X67290139Y-102041329D01*
X67352576Y-102183671D01*
X67377423Y-102240318D01*
X67381141Y-102248793D01*
X67504275Y-102437265D01*
X67504279Y-102437270D01*
X67656762Y-102602908D01*
X67687790Y-102627058D01*
X67834424Y-102741189D01*
X68032426Y-102848342D01*
X68032427Y-102848342D01*
X68032428Y-102848343D01*
X68126970Y-102880799D01*
X68245365Y-102921444D01*
X68467431Y-102958500D01*
X68467435Y-102958500D01*
X68692565Y-102958500D01*
X68692569Y-102958500D01*
X68914635Y-102921444D01*
X69127574Y-102848342D01*
X69325576Y-102741189D01*
X69503240Y-102602906D01*
X69655722Y-102437268D01*
X69744518Y-102301354D01*
X69798520Y-102255268D01*
X69868868Y-102245692D01*
X69933225Y-102275669D01*
X69955480Y-102301353D01*
X69988607Y-102352058D01*
X70044275Y-102437265D01*
X70044279Y-102437270D01*
X70196762Y-102602908D01*
X70227790Y-102627058D01*
X70374424Y-102741189D01*
X70572426Y-102848342D01*
X70572427Y-102848342D01*
X70572428Y-102848343D01*
X70666970Y-102880799D01*
X70785365Y-102921444D01*
X71007431Y-102958500D01*
X71007435Y-102958500D01*
X71232565Y-102958500D01*
X71232569Y-102958500D01*
X71454635Y-102921444D01*
X71454651Y-102921438D01*
X71457751Y-102920654D01*
X71459072Y-102920703D01*
X71459777Y-102920586D01*
X71459801Y-102920730D01*
X71528698Y-102923311D01*
X71577795Y-102953699D01*
X72127929Y-103503833D01*
X72216167Y-103592071D01*
X72319925Y-103661400D01*
X72435215Y-103709155D01*
X72557606Y-103733500D01*
X135823960Y-103733500D01*
X135892081Y-103753502D01*
X135924827Y-103783990D01*
X135925424Y-103784787D01*
X135946739Y-103813261D01*
X136063791Y-103900886D01*
X136063792Y-103900886D01*
X136063796Y-103900889D01*
X136105467Y-103916431D01*
X136162300Y-103958977D01*
X136187111Y-104025498D01*
X136186743Y-104047646D01*
X136186496Y-104049998D01*
X136186496Y-104050000D01*
X136190810Y-104091047D01*
X136191500Y-104104217D01*
X136191500Y-104139485D01*
X136199702Y-104180717D01*
X136201432Y-104192124D01*
X136206457Y-104239927D01*
X136206459Y-104239935D01*
X136217111Y-104272718D01*
X136220856Y-104287069D01*
X136226411Y-104314996D01*
X136226416Y-104315012D01*
X136245107Y-104360139D01*
X136248529Y-104369415D01*
X136265470Y-104421551D01*
X136265476Y-104421565D01*
X136279307Y-104445519D01*
X136286599Y-104460305D01*
X136294895Y-104480335D01*
X136294898Y-104480340D01*
X136325801Y-104526591D01*
X136330153Y-104533589D01*
X136360958Y-104586943D01*
X136360961Y-104586947D01*
X136374929Y-104602460D01*
X136386053Y-104616762D01*
X136394322Y-104629137D01*
X136438460Y-104673275D01*
X136442984Y-104678043D01*
X136488744Y-104728866D01*
X136500126Y-104737135D01*
X136515161Y-104749976D01*
X136520865Y-104755680D01*
X136578391Y-104794117D01*
X136582421Y-104796926D01*
X136643248Y-104841120D01*
X136643252Y-104841122D01*
X136649867Y-104844067D01*
X136668620Y-104854407D01*
X136669664Y-104855105D01*
X136739889Y-104884193D01*
X136742847Y-104885464D01*
X136774372Y-104899500D01*
X136817705Y-104918793D01*
X136817707Y-104918794D01*
X136817712Y-104918796D01*
X136818113Y-104918881D01*
X136828936Y-104922244D01*
X136829074Y-104921791D01*
X136835003Y-104923590D01*
X136865271Y-104929610D01*
X136916244Y-104939748D01*
X136917607Y-104940029D01*
X137004513Y-104958502D01*
X137004515Y-104958502D01*
X137202364Y-104958502D01*
X137202400Y-104958500D01*
X153579478Y-104958500D01*
X153579479Y-104958500D01*
X153755000Y-104923587D01*
X153920336Y-104855103D01*
X154069135Y-104755678D01*
X154829409Y-103995403D01*
X154891720Y-103961380D01*
X154918503Y-103958500D01*
X155052565Y-103958500D01*
X155052569Y-103958500D01*
X155274635Y-103921444D01*
X155487574Y-103848342D01*
X155685576Y-103741189D01*
X155863240Y-103602906D01*
X156015722Y-103437268D01*
X156138860Y-103248791D01*
X156229296Y-103042616D01*
X156284564Y-102824368D01*
X156303156Y-102600000D01*
X156284564Y-102375632D01*
X156284562Y-102375624D01*
X156229297Y-102157387D01*
X156229296Y-102157386D01*
X156229296Y-102157384D01*
X156138860Y-101951209D01*
X156114631Y-101914124D01*
X156015724Y-101762734D01*
X156015720Y-101762729D01*
X155899570Y-101636559D01*
X155863240Y-101597094D01*
X155863239Y-101597093D01*
X155863237Y-101597091D01*
X155775533Y-101528828D01*
X155685576Y-101458811D01*
X155487574Y-101351658D01*
X155487572Y-101351657D01*
X155487571Y-101351656D01*
X155274639Y-101278557D01*
X155274630Y-101278555D01*
X155230476Y-101271187D01*
X155052569Y-101241500D01*
X154827431Y-101241500D01*
X154680232Y-101266063D01*
X154605369Y-101278555D01*
X154605360Y-101278557D01*
X154392428Y-101351656D01*
X154392426Y-101351658D01*
X154194426Y-101458810D01*
X154194424Y-101458811D01*
X154016762Y-101597091D01*
X153864279Y-101762729D01*
X153864275Y-101762734D01*
X153741141Y-101951206D01*
X153648611Y-102162156D01*
X153647056Y-102161474D01*
X153610351Y-102213260D01*
X153544498Y-102239792D01*
X153474755Y-102226509D01*
X153423265Y-102177629D01*
X153419454Y-102170552D01*
X153342659Y-102016326D01*
X153265480Y-101914124D01*
X153265478Y-101914124D01*
X152831764Y-102347838D01*
X152800099Y-102292993D01*
X152707007Y-102199901D01*
X152652159Y-102168234D01*
X153087525Y-101732868D01*
X153068162Y-101715216D01*
X153068160Y-101715215D01*
X152894203Y-101607506D01*
X152894196Y-101607503D01*
X152703422Y-101533596D01*
X152703423Y-101533596D01*
X152502299Y-101496000D01*
X152297701Y-101496000D01*
X152096576Y-101533596D01*
X151905803Y-101607503D01*
X151905796Y-101607506D01*
X151731841Y-101715213D01*
X151731841Y-101715214D01*
X151712473Y-101732869D01*
X152147839Y-102168235D01*
X152092993Y-102199901D01*
X151999901Y-102292993D01*
X151968234Y-102347840D01*
X151534519Y-101914124D01*
X151534517Y-101914124D01*
X151457341Y-102016325D01*
X151457335Y-102016334D01*
X151380544Y-102170552D01*
X151332275Y-102222616D01*
X151263521Y-102240318D01*
X151196110Y-102218038D01*
X151151446Y-102162851D01*
X151149857Y-102158665D01*
X151149297Y-102157388D01*
X151149296Y-102157384D01*
X151058860Y-101951209D01*
X151034631Y-101914124D01*
X150935724Y-101762734D01*
X150935720Y-101762729D01*
X150819570Y-101636559D01*
X150783240Y-101597094D01*
X150783239Y-101597093D01*
X150783237Y-101597091D01*
X150695533Y-101528828D01*
X150605576Y-101458811D01*
X150407574Y-101351658D01*
X150407572Y-101351657D01*
X150407571Y-101351656D01*
X150194639Y-101278557D01*
X150194630Y-101278555D01*
X150150476Y-101271187D01*
X149972569Y-101241500D01*
X149747431Y-101241500D01*
X149620664Y-101262653D01*
X149525356Y-101278557D01*
X149522227Y-101279350D01*
X149520905Y-101279300D01*
X149520224Y-101279414D01*
X149520200Y-101279273D01*
X149451281Y-101276681D01*
X149402204Y-101246300D01*
X145963835Y-97807931D01*
X145963833Y-97807929D01*
X145860075Y-97738600D01*
X145744785Y-97690845D01*
X145671086Y-97676185D01*
X145622396Y-97666500D01*
X145622394Y-97666500D01*
X76814594Y-97666500D01*
X76746473Y-97646498D01*
X76725499Y-97629595D01*
X76547122Y-97451218D01*
X76513096Y-97388906D01*
X76510907Y-97375293D01*
X76505068Y-97319742D01*
X76493542Y-97210072D01*
X76434527Y-97028444D01*
X76339040Y-96863056D01*
X76339038Y-96863054D01*
X76339034Y-96863048D01*
X76211255Y-96721135D01*
X76056752Y-96608882D01*
X75882288Y-96531206D01*
X75695487Y-96491500D01*
X75504513Y-96491500D01*
X75500487Y-96491500D01*
X75475908Y-96489079D01*
X75423952Y-96478744D01*
X75362396Y-96466500D01*
X75362394Y-96466500D01*
X69562394Y-96466500D01*
X69437606Y-96466500D01*
X69437600Y-96466500D01*
X69324091Y-96489079D01*
X69299510Y-96491500D01*
X69104513Y-96491500D01*
X68917711Y-96531206D01*
X68743247Y-96608882D01*
X68588744Y-96721135D01*
X68460965Y-96863048D01*
X68460958Y-96863058D01*
X68365476Y-97028438D01*
X68365473Y-97028444D01*
X68360287Y-97044404D01*
X68306457Y-97210072D01*
X68286496Y-97400000D01*
X68306457Y-97589930D01*
X68307830Y-97596385D01*
X68305757Y-97596825D01*
X68307503Y-97657869D01*
X68270842Y-97718668D01*
X68226554Y-97745013D01*
X68032429Y-97811656D01*
X68032426Y-97811658D01*
X67834426Y-97918810D01*
X67834424Y-97918811D01*
X67656762Y-98057091D01*
X67504279Y-98222729D01*
X67415483Y-98358643D01*
X67361479Y-98404731D01*
X67291131Y-98414306D01*
X67226774Y-98384329D01*
X67204517Y-98358643D01*
X67115720Y-98222729D01*
X66963237Y-98057091D01*
X66879499Y-97991915D01*
X66785576Y-97918811D01*
X66587574Y-97811658D01*
X66587572Y-97811657D01*
X66587571Y-97811656D01*
X66460944Y-97768186D01*
X66403009Y-97727149D01*
X66376457Y-97661304D01*
X66389718Y-97591557D01*
X66412755Y-97559924D01*
X67777278Y-96195402D01*
X67839588Y-96161379D01*
X67866371Y-96158500D01*
X76033629Y-96158500D01*
X76101750Y-96178502D01*
X76122723Y-96195404D01*
X77016485Y-97089166D01*
X77140716Y-97172174D01*
X77278753Y-97229351D01*
X77350996Y-97243721D01*
X77425294Y-97258500D01*
X77425295Y-97258500D01*
X77574705Y-97258500D01*
X101282912Y-97258500D01*
X101331130Y-97268090D01*
X101455831Y-97319744D01*
X101650671Y-97358500D01*
X150780076Y-97358500D01*
X150848197Y-97378502D01*
X150869171Y-97395405D01*
X153357119Y-99883353D01*
X153522296Y-99993721D01*
X153705831Y-100069744D01*
X153900671Y-100108500D01*
X153900672Y-100108500D01*
X154099327Y-100108500D01*
X154099328Y-100108500D01*
X154294168Y-100069744D01*
X154477703Y-99993721D01*
X154642881Y-99883353D01*
X154783353Y-99742881D01*
X154893721Y-99577703D01*
X154969744Y-99394168D01*
X155008500Y-99199328D01*
X155008500Y-99000671D01*
X154969744Y-98805831D01*
X154893721Y-98622296D01*
X154783353Y-98457119D01*
X151892881Y-95566647D01*
X151727704Y-95456279D01*
X151692024Y-95441500D01*
X151544174Y-95380258D01*
X151544172Y-95380257D01*
X151544170Y-95380256D01*
X151544169Y-95380256D01*
X151446089Y-95360746D01*
X151349331Y-95341500D01*
X151349329Y-95341500D01*
X122234500Y-95341500D01*
X122166379Y-95321498D01*
X122119886Y-95267842D01*
X122108500Y-95215500D01*
X122108500Y-85440672D01*
X122108499Y-85440668D01*
X122069744Y-85245831D01*
X121993721Y-85062296D01*
X121883353Y-84897119D01*
X121742881Y-84756647D01*
X120718552Y-83732318D01*
X120684526Y-83670006D01*
X120689591Y-83599191D01*
X120718552Y-83554128D01*
X124106316Y-80166364D01*
X127589165Y-76683516D01*
X127650648Y-76591500D01*
X127672174Y-76559284D01*
X127729351Y-76421246D01*
X127731887Y-76408500D01*
X127758500Y-76274705D01*
X127758500Y-76125295D01*
X127758500Y-75722433D01*
X127778502Y-75654312D01*
X127832158Y-75607819D01*
X127902432Y-75597715D01*
X127910699Y-75599187D01*
X127954510Y-75608500D01*
X127954513Y-75608500D01*
X128145487Y-75608500D01*
X128332288Y-75568794D01*
X128506752Y-75491118D01*
X128661253Y-75378866D01*
X128772214Y-75255631D01*
X128832657Y-75218393D01*
X128903641Y-75219744D01*
X128954943Y-75250848D01*
X133296167Y-79592072D01*
X133399925Y-79661401D01*
X133506039Y-79705354D01*
X133551457Y-79737451D01*
X133588747Y-79778866D01*
X133743248Y-79891118D01*
X133917712Y-79968794D01*
X134104513Y-80008500D01*
X134295487Y-80008500D01*
X134482288Y-79968794D01*
X134656752Y-79891118D01*
X134811253Y-79778866D01*
X134814563Y-79775190D01*
X134875009Y-79737950D01*
X134908200Y-79733500D01*
X137585406Y-79733500D01*
X137653527Y-79753502D01*
X137674501Y-79770405D01*
X156929595Y-99025499D01*
X156963621Y-99087811D01*
X156966500Y-99114594D01*
X156966500Y-103537606D01*
X156966500Y-103662394D01*
X156990845Y-103784785D01*
X157038600Y-103900075D01*
X157107929Y-104003833D01*
X157647929Y-104543833D01*
X157736167Y-104632071D01*
X157839925Y-104701400D01*
X157955215Y-104749155D01*
X158077606Y-104773500D01*
X158390000Y-104773500D01*
X158458121Y-104793502D01*
X158504614Y-104847158D01*
X158516000Y-104899500D01*
X158516000Y-104913000D01*
X159125500Y-104913000D01*
X159193621Y-104933002D01*
X159240114Y-104986658D01*
X159251500Y-105039000D01*
X159251500Y-105071309D01*
X159231498Y-105139430D01*
X159177842Y-105185923D01*
X159107568Y-105196027D01*
X159044011Y-105167000D01*
X158516001Y-105167000D01*
X158516001Y-105315022D01*
X158530737Y-105389105D01*
X158530737Y-105389107D01*
X158586875Y-105473124D01*
X158670893Y-105529262D01*
X158670894Y-105529263D01*
X158744980Y-105543999D01*
X159042999Y-105543999D01*
X159058686Y-105528312D01*
X159120998Y-105494287D01*
X159191813Y-105499351D01*
X159248649Y-105541897D01*
X159265837Y-105573374D01*
X159319110Y-105716202D01*
X159319112Y-105716207D01*
X159406738Y-105833261D01*
X159523792Y-105920887D01*
X159523794Y-105920888D01*
X159523796Y-105920889D01*
X159582875Y-105942924D01*
X159660795Y-105971988D01*
X159660803Y-105971990D01*
X159721350Y-105978499D01*
X159721355Y-105978499D01*
X159721362Y-105978500D01*
X159721368Y-105978500D01*
X160318632Y-105978500D01*
X160318638Y-105978500D01*
X160318645Y-105978499D01*
X160318649Y-105978499D01*
X160379196Y-105971990D01*
X160379197Y-105971989D01*
X160379201Y-105971989D01*
X160516204Y-105920889D01*
X160531097Y-105909739D01*
X160597614Y-105884928D01*
X160657852Y-105895499D01*
X160687712Y-105908794D01*
X160874513Y-105948500D01*
X161065487Y-105948500D01*
X161252288Y-105908794D01*
X161252292Y-105908792D01*
X161252293Y-105908792D01*
X161258568Y-105906754D01*
X161258877Y-105907707D01*
X161302191Y-105898500D01*
X162634701Y-105898500D01*
X162634705Y-105898500D01*
X162634706Y-105898500D01*
X162707976Y-105883925D01*
X162781247Y-105869351D01*
X162919284Y-105812174D01*
X163043515Y-105729166D01*
X164989166Y-103783515D01*
X165072174Y-103659284D01*
X165082234Y-103634998D01*
X179005500Y-103634998D01*
X179035518Y-103863013D01*
X179035520Y-103863020D01*
X179095046Y-104085176D01*
X179183060Y-104297661D01*
X179183061Y-104297662D01*
X179183066Y-104297673D01*
X179298053Y-104496836D01*
X179298055Y-104496839D01*
X179298056Y-104496840D01*
X179438066Y-104679305D01*
X179438070Y-104679309D01*
X179438075Y-104679315D01*
X179600684Y-104841924D01*
X179600689Y-104841928D01*
X179600695Y-104841934D01*
X179752610Y-104958502D01*
X179783163Y-104981946D01*
X179982326Y-105096933D01*
X179982330Y-105096934D01*
X179982339Y-105096940D01*
X180194824Y-105184954D01*
X180416980Y-105244480D01*
X180416984Y-105244480D01*
X180416986Y-105244481D01*
X180475752Y-105252217D01*
X180645004Y-105274500D01*
X180645011Y-105274500D01*
X180874989Y-105274500D01*
X180874996Y-105274500D01*
X181081073Y-105247369D01*
X181103013Y-105244481D01*
X181103013Y-105244480D01*
X181103020Y-105244480D01*
X181325176Y-105184954D01*
X181537661Y-105096940D01*
X181736840Y-104981944D01*
X181919305Y-104841934D01*
X182081934Y-104679305D01*
X182221944Y-104496840D01*
X182336940Y-104297661D01*
X182424954Y-104085176D01*
X182484480Y-103863020D01*
X182514500Y-103634996D01*
X182514500Y-103405004D01*
X182490841Y-103225295D01*
X182484481Y-103176986D01*
X182484480Y-103176984D01*
X182484480Y-103176980D01*
X182424954Y-102954824D01*
X182336940Y-102742339D01*
X182336934Y-102742330D01*
X182336933Y-102742326D01*
X182221946Y-102543163D01*
X182221944Y-102543160D01*
X182081934Y-102360695D01*
X182081928Y-102360689D01*
X182081924Y-102360684D01*
X181919315Y-102198075D01*
X181919309Y-102198070D01*
X181919305Y-102198066D01*
X181736840Y-102058056D01*
X181736839Y-102058055D01*
X181736836Y-102058053D01*
X181537673Y-101943066D01*
X181537665Y-101943062D01*
X181537661Y-101943060D01*
X181325176Y-101855046D01*
X181136889Y-101804595D01*
X181103013Y-101795518D01*
X180874998Y-101765500D01*
X180874996Y-101765500D01*
X180645004Y-101765500D01*
X180645001Y-101765500D01*
X180416986Y-101795518D01*
X180243240Y-101842073D01*
X180194824Y-101855046D01*
X180004372Y-101933934D01*
X179982337Y-101943061D01*
X179982326Y-101943066D01*
X179783163Y-102058053D01*
X179600695Y-102198066D01*
X179600684Y-102198075D01*
X179438075Y-102360684D01*
X179438066Y-102360695D01*
X179298053Y-102543163D01*
X179183066Y-102742326D01*
X179183061Y-102742337D01*
X179183060Y-102742339D01*
X179149083Y-102824368D01*
X179095046Y-102954824D01*
X179035518Y-103176986D01*
X179005500Y-103405001D01*
X179005500Y-103634998D01*
X165082234Y-103634998D01*
X165129351Y-103521247D01*
X165158500Y-103374705D01*
X165158500Y-103225295D01*
X165158500Y-99587792D01*
X165175382Y-99524791D01*
X165206114Y-99471561D01*
X165206113Y-99471561D01*
X165206117Y-99471556D01*
X165265132Y-99289928D01*
X165285094Y-99100000D01*
X165265132Y-98910072D01*
X165206117Y-98728444D01*
X165179873Y-98682988D01*
X165175381Y-98675207D01*
X165158500Y-98612207D01*
X165158500Y-87966371D01*
X165178502Y-87898250D01*
X165195405Y-87877276D01*
X169877276Y-83195405D01*
X169939588Y-83161379D01*
X169966371Y-83158500D01*
X184452497Y-83158500D01*
X184520618Y-83178502D01*
X184567111Y-83232158D01*
X184577215Y-83302432D01*
X184547721Y-83367012D01*
X184541592Y-83373595D01*
X182660592Y-85254595D01*
X182598280Y-85288621D01*
X182571497Y-85291500D01*
X170210518Y-85291500D01*
X170034999Y-85326413D01*
X170034994Y-85326415D01*
X169869664Y-85394897D01*
X169720865Y-85494321D01*
X169720859Y-85494326D01*
X166934326Y-88280859D01*
X166934321Y-88280865D01*
X166834897Y-88429664D01*
X166786718Y-88545979D01*
X166786718Y-88545980D01*
X166766414Y-88594996D01*
X166766413Y-88594999D01*
X166766413Y-88595000D01*
X166757963Y-88637482D01*
X166731500Y-88770518D01*
X166731500Y-97991915D01*
X166711498Y-98060036D01*
X166698201Y-98077253D01*
X166564280Y-98222729D01*
X166564275Y-98222734D01*
X166441141Y-98411206D01*
X166350703Y-98617386D01*
X166350702Y-98617387D01*
X166295437Y-98835624D01*
X166295436Y-98835630D01*
X166295436Y-98835632D01*
X166276844Y-99060000D01*
X166293955Y-99266500D01*
X166295437Y-99284375D01*
X166350702Y-99502612D01*
X166350703Y-99502613D01*
X166350704Y-99502616D01*
X166428013Y-99678864D01*
X166441141Y-99708793D01*
X166564275Y-99897265D01*
X166564279Y-99897270D01*
X166716762Y-100062908D01*
X166737265Y-100078866D01*
X166894424Y-100201189D01*
X167092426Y-100308342D01*
X167092427Y-100308342D01*
X167092428Y-100308343D01*
X167130710Y-100321485D01*
X167203815Y-100346582D01*
X167261749Y-100387618D01*
X167288301Y-100453462D01*
X167275040Y-100523209D01*
X167226176Y-100574715D01*
X167208420Y-100583245D01*
X167145800Y-100607504D01*
X167145796Y-100607506D01*
X166971841Y-100715213D01*
X166971841Y-100715214D01*
X166952473Y-100732869D01*
X167387839Y-101168235D01*
X167332993Y-101199901D01*
X167239901Y-101292993D01*
X167208235Y-101347839D01*
X166774520Y-100914124D01*
X166774517Y-100914124D01*
X166697341Y-101016325D01*
X166697335Y-101016334D01*
X166606143Y-101199471D01*
X166606138Y-101199485D01*
X166550148Y-101396269D01*
X166531270Y-101600000D01*
X166550148Y-101803730D01*
X166606138Y-102000514D01*
X166606140Y-102000519D01*
X166697339Y-102183672D01*
X166774519Y-102285874D01*
X167208234Y-101852159D01*
X167239901Y-101907007D01*
X167332993Y-102000099D01*
X167387839Y-102031764D01*
X166952473Y-102467130D01*
X166971837Y-102484783D01*
X166971839Y-102484784D01*
X167145796Y-102592493D01*
X167145803Y-102592496D01*
X167336577Y-102666403D01*
X167336576Y-102666403D01*
X167537701Y-102704000D01*
X167742299Y-102704000D01*
X167943423Y-102666403D01*
X168134196Y-102592496D01*
X168134203Y-102592493D01*
X168308161Y-102484783D01*
X168327525Y-102467129D01*
X167892160Y-102031764D01*
X167947007Y-102000099D01*
X168040099Y-101907007D01*
X168071764Y-101852160D01*
X168505478Y-102285874D01*
X168505480Y-102285874D01*
X168582661Y-102183671D01*
X168582661Y-102183670D01*
X168659454Y-102029448D01*
X168707723Y-101977384D01*
X168776477Y-101959681D01*
X168843888Y-101981960D01*
X168888552Y-102037147D01*
X168890139Y-102041329D01*
X168952576Y-102183671D01*
X168977423Y-102240318D01*
X168981141Y-102248793D01*
X169104275Y-102437265D01*
X169104279Y-102437270D01*
X169256762Y-102602908D01*
X169287790Y-102627058D01*
X169434424Y-102741189D01*
X169632426Y-102848342D01*
X169632427Y-102848342D01*
X169632428Y-102848343D01*
X169726970Y-102880799D01*
X169845365Y-102921444D01*
X170067431Y-102958500D01*
X170067435Y-102958500D01*
X170292565Y-102958500D01*
X170292569Y-102958500D01*
X170514635Y-102921444D01*
X170727574Y-102848342D01*
X170925576Y-102741189D01*
X171103240Y-102602906D01*
X171255722Y-102437268D01*
X171344518Y-102301354D01*
X171398520Y-102255268D01*
X171468868Y-102245692D01*
X171533225Y-102275669D01*
X171555480Y-102301353D01*
X171588607Y-102352058D01*
X171644275Y-102437265D01*
X171644279Y-102437270D01*
X171796762Y-102602908D01*
X171827790Y-102627058D01*
X171974424Y-102741189D01*
X172172426Y-102848342D01*
X172172427Y-102848342D01*
X172172428Y-102848343D01*
X172266970Y-102880799D01*
X172385365Y-102921444D01*
X172607431Y-102958500D01*
X172607435Y-102958500D01*
X172832565Y-102958500D01*
X172832569Y-102958500D01*
X173054635Y-102921444D01*
X173267574Y-102848342D01*
X173465576Y-102741189D01*
X173643240Y-102602906D01*
X173795722Y-102437268D01*
X173918860Y-102248791D01*
X174009296Y-102042616D01*
X174064564Y-101824368D01*
X174083156Y-101600000D01*
X174064564Y-101375632D01*
X174036817Y-101266062D01*
X174039484Y-101195116D01*
X174069862Y-101146040D01*
X177453072Y-97762833D01*
X177522401Y-97659075D01*
X177556168Y-97577552D01*
X177570155Y-97543785D01*
X177594500Y-97421394D01*
X177594500Y-93102524D01*
X177614502Y-93034403D01*
X177626858Y-93018220D01*
X177700040Y-92936944D01*
X177795527Y-92771556D01*
X177854542Y-92589928D01*
X177874504Y-92400000D01*
X177854542Y-92210072D01*
X177795527Y-92028444D01*
X177700040Y-91863056D01*
X177700038Y-91863054D01*
X177700034Y-91863048D01*
X177572255Y-91721135D01*
X177417752Y-91608882D01*
X177243288Y-91531206D01*
X177056487Y-91491500D01*
X176865513Y-91491500D01*
X176678711Y-91531206D01*
X176504247Y-91608882D01*
X176349744Y-91721135D01*
X176221965Y-91863048D01*
X176221958Y-91863058D01*
X176126476Y-92028438D01*
X176126473Y-92028445D01*
X176067457Y-92210072D01*
X176047496Y-92400000D01*
X176067457Y-92589927D01*
X176092305Y-92666398D01*
X176126473Y-92771556D01*
X176221960Y-92936944D01*
X176295137Y-93018215D01*
X176325853Y-93082220D01*
X176327500Y-93102524D01*
X176327500Y-97044404D01*
X176307498Y-97112525D01*
X176290595Y-97133499D01*
X174293594Y-99130500D01*
X174231282Y-99164526D01*
X174160467Y-99159461D01*
X174103631Y-99116914D01*
X174078820Y-99050394D01*
X174078499Y-99041405D01*
X174078499Y-98649595D01*
X174098501Y-98581474D01*
X174115404Y-98560499D01*
X174424433Y-98251470D01*
X174792071Y-97883833D01*
X174861400Y-97780075D01*
X174909155Y-97664785D01*
X174921279Y-97603833D01*
X174933500Y-97542394D01*
X174933500Y-96902524D01*
X174953502Y-96834403D01*
X174965858Y-96818220D01*
X175039040Y-96736944D01*
X175134527Y-96571556D01*
X175193542Y-96389928D01*
X175213504Y-96200000D01*
X175193542Y-96010072D01*
X175134527Y-95828444D01*
X175039040Y-95663056D01*
X175039038Y-95663054D01*
X175039034Y-95663048D01*
X174911255Y-95521135D01*
X174756752Y-95408882D01*
X174582288Y-95331206D01*
X174395487Y-95291500D01*
X174204513Y-95291500D01*
X174017711Y-95331206D01*
X173843247Y-95408882D01*
X173688744Y-95521135D01*
X173560965Y-95663048D01*
X173560958Y-95663058D01*
X173465476Y-95828438D01*
X173465473Y-95828445D01*
X173406457Y-96010072D01*
X173386496Y-96200000D01*
X173406457Y-96389927D01*
X173413582Y-96411854D01*
X173465473Y-96571556D01*
X173465476Y-96571561D01*
X173551832Y-96721135D01*
X173560960Y-96736944D01*
X173634137Y-96818215D01*
X173664853Y-96882220D01*
X173666500Y-96902524D01*
X173666500Y-97165404D01*
X173646498Y-97233525D01*
X173629595Y-97254499D01*
X173219499Y-97664595D01*
X173157187Y-97698621D01*
X173130404Y-97701500D01*
X172304500Y-97701500D01*
X172236379Y-97681498D01*
X172189886Y-97627842D01*
X172178500Y-97575500D01*
X172178500Y-91502524D01*
X172198502Y-91434403D01*
X172210858Y-91418220D01*
X172284040Y-91336944D01*
X172365126Y-91196500D01*
X172416509Y-91147507D01*
X172474245Y-91133500D01*
X185185406Y-91133500D01*
X185253527Y-91153502D01*
X185274501Y-91170405D01*
X185907929Y-91803833D01*
X185996167Y-91892071D01*
X186099925Y-91961400D01*
X186215215Y-92009155D01*
X186337606Y-92033500D01*
X186337607Y-92033500D01*
X189562393Y-92033500D01*
X189562394Y-92033500D01*
X189684785Y-92009155D01*
X189800075Y-91961400D01*
X189903833Y-91892071D01*
X199492071Y-82303833D01*
X199561400Y-82200075D01*
X199609155Y-82084785D01*
X199633500Y-81962394D01*
X199633500Y-81837606D01*
X199633500Y-73437606D01*
X199609155Y-73315215D01*
X199600160Y-73293500D01*
X199574455Y-73231442D01*
X199566867Y-73160855D01*
X199598647Y-73097368D01*
X199601741Y-73094161D01*
X206525500Y-66170405D01*
X206587812Y-66136379D01*
X206614595Y-66133500D01*
X208882393Y-66133500D01*
X208882394Y-66133500D01*
X209004785Y-66109155D01*
X209120075Y-66061400D01*
X209223833Y-65992071D01*
X210362206Y-64853696D01*
X210424515Y-64819674D01*
X210480218Y-64820616D01*
X210480224Y-64820586D01*
X210480430Y-64820620D01*
X210482236Y-64820651D01*
X210485356Y-64821441D01*
X210485365Y-64821444D01*
X210707431Y-64858500D01*
X210707435Y-64858500D01*
X210932565Y-64858500D01*
X210932569Y-64858500D01*
X211154635Y-64821444D01*
X211367574Y-64748342D01*
X211565576Y-64641189D01*
X211743240Y-64502906D01*
X211895722Y-64337268D01*
X211984518Y-64201354D01*
X212038520Y-64155268D01*
X212108868Y-64145692D01*
X212173225Y-64175669D01*
X212195480Y-64201353D01*
X212228607Y-64252058D01*
X212284275Y-64337265D01*
X212284279Y-64337270D01*
X212346342Y-64404687D01*
X212432420Y-64498192D01*
X212436762Y-64502908D01*
X212485922Y-64541171D01*
X212614424Y-64641189D01*
X212812426Y-64748342D01*
X212812427Y-64748342D01*
X212812428Y-64748343D01*
X212924227Y-64786723D01*
X213025365Y-64821444D01*
X213247431Y-64858500D01*
X213247435Y-64858500D01*
X213472565Y-64858500D01*
X213472569Y-64858500D01*
X213694635Y-64821444D01*
X213907574Y-64748342D01*
X214105576Y-64641189D01*
X214283240Y-64502906D01*
X214435722Y-64337268D01*
X214558860Y-64148791D01*
X214649296Y-63942616D01*
X214704564Y-63724368D01*
X214723156Y-63500000D01*
X214704564Y-63275632D01*
X214672390Y-63148581D01*
X214649297Y-63057387D01*
X214649296Y-63057386D01*
X214649296Y-63057384D01*
X214558860Y-62851209D01*
X214546084Y-62831654D01*
X214435724Y-62662734D01*
X214435720Y-62662729D01*
X214283236Y-62497090D01*
X214248436Y-62470004D01*
X214206966Y-62412379D01*
X214203233Y-62341480D01*
X214238423Y-62279819D01*
X214276763Y-62256669D01*
X214276086Y-62255217D01*
X214282728Y-62252118D01*
X214282738Y-62252115D01*
X214433652Y-62159030D01*
X214559030Y-62033652D01*
X214652115Y-61882738D01*
X214707887Y-61714426D01*
X214718500Y-61610545D01*
X214718499Y-60960000D01*
X234714357Y-60960000D01*
X234732949Y-61184375D01*
X234734893Y-61207828D01*
X234795935Y-61448877D01*
X234795938Y-61448884D01*
X234895826Y-61676606D01*
X235031835Y-61884785D01*
X235200249Y-62067732D01*
X235200254Y-62067736D01*
X235200256Y-62067738D01*
X235370190Y-62200003D01*
X235396490Y-62220473D01*
X235396491Y-62220474D01*
X235615190Y-62338828D01*
X235615192Y-62338829D01*
X235673398Y-62358811D01*
X235850386Y-62419571D01*
X236095665Y-62460500D01*
X236095669Y-62460500D01*
X236344331Y-62460500D01*
X236344335Y-62460500D01*
X236589614Y-62419571D01*
X236824810Y-62338828D01*
X237043509Y-62220474D01*
X237239744Y-62067738D01*
X237250219Y-62056360D01*
X237408164Y-61884785D01*
X237461410Y-61803286D01*
X237544173Y-61676607D01*
X237644063Y-61448881D01*
X237705108Y-61207821D01*
X237725643Y-60960000D01*
X237705108Y-60712179D01*
X237699706Y-60690846D01*
X237644064Y-60471122D01*
X237644061Y-60471115D01*
X237625976Y-60429886D01*
X237593772Y-60356467D01*
X237544173Y-60243392D01*
X237408164Y-60035214D01*
X237239750Y-59852267D01*
X237122458Y-59760975D01*
X237043509Y-59699526D01*
X237043508Y-59699525D01*
X236824809Y-59581171D01*
X236824807Y-59581170D01*
X236589618Y-59500430D01*
X236589609Y-59500428D01*
X236540836Y-59492289D01*
X236344335Y-59459500D01*
X236095665Y-59459500D01*
X235931953Y-59486818D01*
X235850390Y-59500428D01*
X235850381Y-59500430D01*
X235615192Y-59581170D01*
X235615190Y-59581171D01*
X235396491Y-59699525D01*
X235396490Y-59699526D01*
X235200249Y-59852267D01*
X235031835Y-60035214D01*
X234895827Y-60243392D01*
X234895826Y-60243392D01*
X234795938Y-60471115D01*
X234795935Y-60471122D01*
X234734893Y-60712171D01*
X234734892Y-60712177D01*
X234734892Y-60712179D01*
X234714357Y-60960000D01*
X214718499Y-60960000D01*
X214718499Y-60309456D01*
X214716306Y-60287993D01*
X214707887Y-60205574D01*
X214679553Y-60120067D01*
X214652115Y-60037262D01*
X214559030Y-59886348D01*
X214559029Y-59886347D01*
X214559024Y-59886341D01*
X214433658Y-59760975D01*
X214433652Y-59760970D01*
X214282738Y-59667885D01*
X214188569Y-59636681D01*
X214114427Y-59612113D01*
X214114420Y-59612112D01*
X214010553Y-59601500D01*
X212709455Y-59601500D01*
X212605574Y-59612112D01*
X212437261Y-59667885D01*
X212286347Y-59760970D01*
X212286341Y-59760975D01*
X212160975Y-59886341D01*
X212160970Y-59886347D01*
X212143378Y-59914869D01*
X212069149Y-60035214D01*
X212067883Y-60037266D01*
X212064783Y-60043914D01*
X212062878Y-60043025D01*
X212028389Y-60092822D01*
X211962828Y-60120067D01*
X211892945Y-60107541D01*
X211856515Y-60080142D01*
X211743237Y-59957091D01*
X211661382Y-59893381D01*
X211565576Y-59818811D01*
X211367574Y-59711658D01*
X211367572Y-59711657D01*
X211367571Y-59711656D01*
X211154639Y-59638557D01*
X211154630Y-59638555D01*
X211110476Y-59631187D01*
X210932569Y-59601500D01*
X210707431Y-59601500D01*
X210559211Y-59626233D01*
X210485369Y-59638555D01*
X210485360Y-59638557D01*
X210272428Y-59711656D01*
X210272426Y-59711658D01*
X210074426Y-59818810D01*
X210074424Y-59818811D01*
X209896762Y-59957091D01*
X209744279Y-60122729D01*
X209655483Y-60258643D01*
X209601479Y-60304731D01*
X209531131Y-60314306D01*
X209466774Y-60284329D01*
X209444517Y-60258643D01*
X209355720Y-60122729D01*
X209203237Y-59957091D01*
X209121382Y-59893381D01*
X209025576Y-59818811D01*
X208827574Y-59711658D01*
X208827572Y-59711657D01*
X208827571Y-59711656D01*
X208614639Y-59638557D01*
X208614630Y-59638555D01*
X208570476Y-59631187D01*
X208392569Y-59601500D01*
X208167431Y-59601500D01*
X208019211Y-59626233D01*
X207945369Y-59638555D01*
X207945360Y-59638557D01*
X207732428Y-59711656D01*
X207732426Y-59711658D01*
X207534426Y-59818810D01*
X207534424Y-59818811D01*
X207356762Y-59957091D01*
X207307285Y-60010838D01*
X207246431Y-60047409D01*
X207214584Y-60051500D01*
X204250515Y-60051500D01*
X204221400Y-60057291D01*
X204221399Y-60057292D01*
X204129531Y-60075566D01*
X204075000Y-60086413D01*
X203909664Y-60154898D01*
X203777222Y-60243393D01*
X203760868Y-60254319D01*
X203760859Y-60254327D01*
X188194326Y-75820859D01*
X188194321Y-75820865D01*
X188094897Y-75969664D01*
X188046143Y-76087367D01*
X188026415Y-76134994D01*
X188026413Y-76134999D01*
X187991500Y-76310518D01*
X187991500Y-76957863D01*
X187971498Y-77025984D01*
X187917842Y-77072477D01*
X187865500Y-77083863D01*
X187125655Y-77083863D01*
X187065108Y-77090372D01*
X187065100Y-77090374D01*
X186928104Y-77141472D01*
X186925391Y-77142954D01*
X186921406Y-77143970D01*
X186919658Y-77144623D01*
X186919587Y-77144434D01*
X186865011Y-77158363D01*
X186851304Y-77158363D01*
X186842279Y-77167387D01*
X186831303Y-77204771D01*
X186814400Y-77225745D01*
X186813400Y-77226745D01*
X186751088Y-77260771D01*
X186680273Y-77255706D01*
X186635210Y-77226745D01*
X186634210Y-77225745D01*
X186600184Y-77163433D01*
X186599919Y-77160976D01*
X186597306Y-77158363D01*
X186583599Y-77158363D01*
X186529022Y-77144434D01*
X186528952Y-77144623D01*
X186527203Y-77143970D01*
X186523219Y-77142954D01*
X186520505Y-77141472D01*
X186383509Y-77090374D01*
X186383501Y-77090372D01*
X186322954Y-77083863D01*
X186322943Y-77083863D01*
X185425667Y-77083863D01*
X185425655Y-77083863D01*
X185365108Y-77090372D01*
X185365100Y-77090374D01*
X185228102Y-77141473D01*
X185228097Y-77141475D01*
X185171652Y-77183731D01*
X185105132Y-77208542D01*
X185096143Y-77208863D01*
X183565837Y-77208863D01*
X183497716Y-77188861D01*
X183472200Y-77167173D01*
X183468889Y-77163496D01*
X183314389Y-77051245D01*
X183139925Y-76973569D01*
X182953124Y-76933863D01*
X182762150Y-76933863D01*
X182575348Y-76973569D01*
X182400884Y-77051245D01*
X182246384Y-77163496D01*
X182243074Y-77167173D01*
X182182628Y-77204413D01*
X182149437Y-77208863D01*
X169095237Y-77208863D01*
X168972854Y-77233207D01*
X168972846Y-77233209D01*
X168939084Y-77247193D01*
X168939084Y-77247194D01*
X168918535Y-77255706D01*
X168857562Y-77280962D01*
X168753808Y-77350288D01*
X168753801Y-77350293D01*
X160396167Y-85707929D01*
X160307931Y-85796164D01*
X160307926Y-85796171D01*
X160240917Y-85896458D01*
X160238600Y-85899925D01*
X160226787Y-85928444D01*
X160190846Y-86015212D01*
X160166500Y-86137603D01*
X160166500Y-97029677D01*
X160146498Y-97097798D01*
X160092842Y-97144291D01*
X160022568Y-97154395D01*
X159957988Y-97124901D01*
X159919604Y-97065175D01*
X159916921Y-97054259D01*
X159909155Y-97015215D01*
X159861400Y-96899925D01*
X159792071Y-96796167D01*
X159703833Y-96707929D01*
X139053833Y-76057929D01*
X138950075Y-75988600D01*
X138834785Y-75940845D01*
X138761086Y-75926185D01*
X138712396Y-75916500D01*
X138712394Y-75916500D01*
X134958200Y-75916500D01*
X134890079Y-75896498D01*
X134864563Y-75874810D01*
X134861252Y-75871133D01*
X134706752Y-75758882D01*
X134532288Y-75681206D01*
X134345487Y-75641500D01*
X134289594Y-75641500D01*
X134221473Y-75621498D01*
X134200499Y-75604595D01*
X130863835Y-72267931D01*
X130863833Y-72267929D01*
X130760075Y-72198600D01*
X130644785Y-72150845D01*
X130567168Y-72135406D01*
X130522396Y-72126500D01*
X130522394Y-72126500D01*
X128628162Y-72126500D01*
X128560041Y-72106498D01*
X128552653Y-72101368D01*
X128496207Y-72059112D01*
X128496202Y-72059110D01*
X128359204Y-72008011D01*
X128359196Y-72008009D01*
X128298649Y-72001500D01*
X128298638Y-72001500D01*
X127401362Y-72001500D01*
X127401350Y-72001500D01*
X127340803Y-72008009D01*
X127340795Y-72008011D01*
X127203799Y-72059109D01*
X127201086Y-72060591D01*
X127197101Y-72061607D01*
X127195353Y-72062260D01*
X127195282Y-72062071D01*
X127140706Y-72076000D01*
X127126999Y-72076000D01*
X127117974Y-72085024D01*
X127106998Y-72122408D01*
X127090095Y-72143382D01*
X127089095Y-72144382D01*
X127026783Y-72178408D01*
X126955968Y-72173343D01*
X126910905Y-72144382D01*
X126909905Y-72143382D01*
X126875879Y-72081070D01*
X126875614Y-72078613D01*
X126873001Y-72076000D01*
X126859294Y-72076000D01*
X126804716Y-72062071D01*
X126804646Y-72062260D01*
X126802895Y-72061607D01*
X126798914Y-72060591D01*
X126796202Y-72059110D01*
X126765466Y-72047646D01*
X126708631Y-72005099D01*
X126683821Y-71938578D01*
X126683500Y-71929591D01*
X126683500Y-68187607D01*
X126683499Y-68187603D01*
X126659155Y-68065215D01*
X126645168Y-68031447D01*
X126611401Y-67949925D01*
X126542072Y-67846167D01*
X124847121Y-66151216D01*
X124813095Y-66088904D01*
X124810908Y-66075306D01*
X124793542Y-65910072D01*
X124734527Y-65728444D01*
X124639040Y-65563056D01*
X124639038Y-65563054D01*
X124639034Y-65563048D01*
X124511255Y-65421135D01*
X124356752Y-65308882D01*
X124182288Y-65231206D01*
X123995487Y-65191500D01*
X123939595Y-65191500D01*
X123871474Y-65171498D01*
X123850500Y-65154595D01*
X120844499Y-62148595D01*
X120810473Y-62086283D01*
X120815538Y-62015468D01*
X120858085Y-61958632D01*
X120924605Y-61933821D01*
X120933594Y-61933500D01*
X122385406Y-61933500D01*
X122453527Y-61953502D01*
X122474501Y-61970405D01*
X135107929Y-74603833D01*
X135196167Y-74692071D01*
X135299925Y-74761400D01*
X135415215Y-74809155D01*
X135537606Y-74833500D01*
X139385406Y-74833500D01*
X139453527Y-74853502D01*
X139474501Y-74870405D01*
X150352877Y-85748781D01*
X150386903Y-85811093D01*
X150389092Y-85824705D01*
X150406457Y-85989927D01*
X150411188Y-86004486D01*
X150465473Y-86171556D01*
X150465476Y-86171561D01*
X150560958Y-86336941D01*
X150560965Y-86336951D01*
X150688744Y-86478864D01*
X150712560Y-86496167D01*
X150843248Y-86591118D01*
X151017712Y-86668794D01*
X151204513Y-86708500D01*
X151395487Y-86708500D01*
X151582288Y-86668794D01*
X151756752Y-86591118D01*
X151911253Y-86478866D01*
X151912149Y-86477871D01*
X152039034Y-86336951D01*
X152039035Y-86336949D01*
X152039040Y-86336944D01*
X152134527Y-86171556D01*
X152193542Y-85989928D01*
X152213504Y-85800000D01*
X152193542Y-85610072D01*
X152134527Y-85428444D01*
X152039040Y-85263056D01*
X152039038Y-85263054D01*
X152039034Y-85263048D01*
X151911255Y-85121135D01*
X151756752Y-85008882D01*
X151582288Y-84931206D01*
X151395487Y-84891500D01*
X151339594Y-84891500D01*
X151271473Y-84871498D01*
X151250499Y-84854595D01*
X140103835Y-73707931D01*
X140103833Y-73707929D01*
X140000075Y-73638600D01*
X139884785Y-73590845D01*
X139811086Y-73576185D01*
X139762396Y-73566500D01*
X139762394Y-73566500D01*
X135914594Y-73566500D01*
X135846473Y-73546498D01*
X135825499Y-73529595D01*
X123103835Y-60807931D01*
X123103833Y-60807929D01*
X123000075Y-60738600D01*
X122884785Y-60690845D01*
X122794343Y-60672855D01*
X122770333Y-60668079D01*
X122707424Y-60635171D01*
X122672292Y-60573476D01*
X122676092Y-60502581D01*
X122717618Y-60444995D01*
X122783685Y-60419001D01*
X122794915Y-60418500D01*
X123870406Y-60418500D01*
X123938527Y-60438502D01*
X123959501Y-60455405D01*
X135807929Y-72303833D01*
X135896167Y-72392071D01*
X135999925Y-72461400D01*
X136115215Y-72509155D01*
X136237606Y-72533500D01*
X140385406Y-72533500D01*
X140453527Y-72553502D01*
X140474501Y-72570405D01*
X151552877Y-83648781D01*
X151586903Y-83711093D01*
X151589092Y-83724705D01*
X151606457Y-83889927D01*
X151615294Y-83917123D01*
X151665473Y-84071556D01*
X151665476Y-84071561D01*
X151760958Y-84236941D01*
X151760965Y-84236951D01*
X151888744Y-84378864D01*
X151888747Y-84378866D01*
X152043248Y-84491118D01*
X152217712Y-84568794D01*
X152404513Y-84608500D01*
X152595487Y-84608500D01*
X152782288Y-84568794D01*
X152956752Y-84491118D01*
X153111253Y-84378866D01*
X153111255Y-84378864D01*
X153239034Y-84236951D01*
X153239035Y-84236949D01*
X153239040Y-84236944D01*
X153334527Y-84071556D01*
X153393542Y-83889928D01*
X153413504Y-83700000D01*
X153393542Y-83510072D01*
X153334527Y-83328444D01*
X153239040Y-83163056D01*
X153239038Y-83163054D01*
X153239034Y-83163048D01*
X153111255Y-83021135D01*
X152956752Y-82908882D01*
X152782288Y-82831206D01*
X152595487Y-82791500D01*
X152539594Y-82791500D01*
X152471473Y-82771498D01*
X152450499Y-82754595D01*
X141103835Y-71407931D01*
X141103833Y-71407929D01*
X141000075Y-71338600D01*
X140884785Y-71290845D01*
X140811086Y-71276185D01*
X140762396Y-71266500D01*
X140762394Y-71266500D01*
X136614594Y-71266500D01*
X136546473Y-71246498D01*
X136525499Y-71229595D01*
X128699884Y-63403980D01*
X128665858Y-63341668D01*
X128670923Y-63270853D01*
X128713470Y-63214017D01*
X128770941Y-63191701D01*
X128770739Y-63190683D01*
X128776535Y-63189529D01*
X128776635Y-63189491D01*
X128776813Y-63189473D01*
X128966074Y-63132062D01*
X129140485Y-63038837D01*
X129140490Y-63038834D01*
X129194721Y-62994326D01*
X128758955Y-62558560D01*
X128825606Y-62520080D01*
X128900080Y-62445606D01*
X128938560Y-62378956D01*
X129374325Y-62814721D01*
X129418834Y-62760490D01*
X129418837Y-62760485D01*
X129512062Y-62586074D01*
X129569474Y-62396809D01*
X129588858Y-62200003D01*
X129588858Y-62200000D01*
X130716693Y-62200000D01*
X130735885Y-62419371D01*
X130749452Y-62470003D01*
X130792879Y-62632073D01*
X130792881Y-62632079D01*
X130878048Y-62814721D01*
X130885944Y-62831654D01*
X130968493Y-62949545D01*
X131012251Y-63012038D01*
X131012254Y-63012042D01*
X131167957Y-63167745D01*
X131167961Y-63167748D01*
X131167962Y-63167749D01*
X131348346Y-63294056D01*
X131547924Y-63387120D01*
X131760629Y-63444115D01*
X131980000Y-63463307D01*
X132199371Y-63444115D01*
X132412076Y-63387120D01*
X132611654Y-63294056D01*
X132792038Y-63167749D01*
X132947749Y-63012038D01*
X133074056Y-62831654D01*
X133167120Y-62632076D01*
X133224115Y-62419371D01*
X133243307Y-62200000D01*
X133224115Y-61980629D01*
X133167120Y-61767924D01*
X133074056Y-61568347D01*
X132947749Y-61387962D01*
X132792038Y-61232251D01*
X132611654Y-61105944D01*
X132611650Y-61105942D01*
X132412079Y-61012881D01*
X132412073Y-61012879D01*
X132312891Y-60986303D01*
X132199371Y-60955885D01*
X131980000Y-60936693D01*
X131760629Y-60955885D01*
X131547926Y-61012879D01*
X131547920Y-61012881D01*
X131348346Y-61105944D01*
X131167965Y-61232248D01*
X131167959Y-61232253D01*
X131012253Y-61387959D01*
X131012248Y-61387965D01*
X130885944Y-61568346D01*
X130792881Y-61767920D01*
X130792879Y-61767926D01*
X130748513Y-61933500D01*
X130735885Y-61980629D01*
X130716693Y-62200000D01*
X129588858Y-62200000D01*
X129588858Y-62199996D01*
X129569474Y-62003190D01*
X129512062Y-61813925D01*
X129418834Y-61639508D01*
X129374327Y-61585277D01*
X128938560Y-62021043D01*
X128900080Y-61954394D01*
X128825606Y-61879920D01*
X128758955Y-61841439D01*
X129194721Y-61405672D01*
X129140491Y-61361165D01*
X128966074Y-61267937D01*
X128776809Y-61210525D01*
X128580003Y-61191142D01*
X128579997Y-61191142D01*
X128383190Y-61210525D01*
X128193925Y-61267937D01*
X128019508Y-61361165D01*
X127965276Y-61405672D01*
X128401043Y-61841439D01*
X128334394Y-61879920D01*
X128259920Y-61954394D01*
X128221439Y-62021045D01*
X127785671Y-61585277D01*
X127741165Y-61639508D01*
X127647937Y-61813925D01*
X127590525Y-62003191D01*
X127590506Y-62003385D01*
X127590466Y-62003481D01*
X127589317Y-62009261D01*
X127588220Y-62009042D01*
X127563915Y-62069214D01*
X127505956Y-62110217D01*
X127435029Y-62113376D01*
X127376019Y-62080115D01*
X124588835Y-59292931D01*
X124588833Y-59292929D01*
X124485075Y-59223600D01*
X124369785Y-59175845D01*
X124296086Y-59161185D01*
X124247396Y-59151500D01*
X124247394Y-59151500D01*
X107917394Y-59151500D01*
X107792606Y-59151500D01*
X107792603Y-59151500D01*
X107719568Y-59166028D01*
X107670215Y-59175845D01*
X107670213Y-59175845D01*
X107670212Y-59175846D01*
X107554923Y-59223601D01*
X107451168Y-59292928D01*
X107451166Y-59292929D01*
X107137794Y-59606301D01*
X107075482Y-59640326D01*
X107019781Y-59639382D01*
X107019776Y-59639414D01*
X107019563Y-59639378D01*
X107017764Y-59639348D01*
X107014642Y-59638557D01*
X106969968Y-59631102D01*
X106792569Y-59601500D01*
X106567431Y-59601500D01*
X106440664Y-59622653D01*
X106345356Y-59638557D01*
X106342227Y-59639350D01*
X106340905Y-59639300D01*
X106340224Y-59639414D01*
X106340200Y-59639273D01*
X106271281Y-59636681D01*
X106222204Y-59606300D01*
X105908835Y-59292931D01*
X105908833Y-59292929D01*
X105805075Y-59223600D01*
X105689785Y-59175845D01*
X105616086Y-59161185D01*
X105567396Y-59151500D01*
X105567394Y-59151500D01*
X76277394Y-59151500D01*
X76152606Y-59151500D01*
X76152603Y-59151500D01*
X76079568Y-59166028D01*
X76030215Y-59175845D01*
X76030213Y-59175845D01*
X76030212Y-59175846D01*
X75914924Y-59223600D01*
X75811166Y-59292928D01*
X75811162Y-59292931D01*
X71696167Y-63407929D01*
X71607931Y-63496164D01*
X71607926Y-63496171D01*
X71538601Y-63599923D01*
X71496651Y-63701199D01*
X71490845Y-63715215D01*
X71484612Y-63746552D01*
X71466500Y-63837603D01*
X71466500Y-69597474D01*
X71446498Y-69665595D01*
X71434137Y-69681784D01*
X71360957Y-69763059D01*
X71265476Y-69928438D01*
X71265473Y-69928445D01*
X71206457Y-70110072D01*
X71186496Y-70300000D01*
X71206457Y-70489927D01*
X71228381Y-70557401D01*
X71265473Y-70671556D01*
X71272329Y-70683431D01*
X71360958Y-70836941D01*
X71360965Y-70836951D01*
X71488744Y-70978864D01*
X71488747Y-70978866D01*
X71643248Y-71091118D01*
X71817712Y-71168794D01*
X72004513Y-71208500D01*
X72195487Y-71208500D01*
X72382288Y-71168794D01*
X72556752Y-71091118D01*
X72711253Y-70978866D01*
X72839040Y-70836944D01*
X72934527Y-70671556D01*
X72993542Y-70489928D01*
X73013504Y-70300000D01*
X72993542Y-70110072D01*
X72934527Y-69928444D01*
X72839040Y-69763056D01*
X72765863Y-69681784D01*
X72735146Y-69617776D01*
X72733500Y-69597474D01*
X72733500Y-64214594D01*
X72753502Y-64146473D01*
X72770405Y-64125499D01*
X76440500Y-60455405D01*
X76502812Y-60421379D01*
X76529595Y-60418500D01*
X102713860Y-60418500D01*
X102781981Y-60438502D01*
X102828474Y-60492158D01*
X102838578Y-60562432D01*
X102836004Y-60575431D01*
X102795437Y-60735624D01*
X102795436Y-60735630D01*
X102795436Y-60735632D01*
X102776844Y-60960000D01*
X102788937Y-61105944D01*
X102795437Y-61184375D01*
X102850702Y-61402612D01*
X102850703Y-61402613D01*
X102850704Y-61402616D01*
X102858761Y-61420984D01*
X102867807Y-61491402D01*
X102837346Y-61555532D01*
X102777049Y-61593013D01*
X102743373Y-61597597D01*
X77230299Y-61597597D01*
X77157264Y-61612125D01*
X77107911Y-61621942D01*
X77107909Y-61621942D01*
X77107908Y-61621943D01*
X76992619Y-61669698D01*
X76888867Y-61739023D01*
X76888860Y-61739028D01*
X74107931Y-64519957D01*
X74107926Y-64519964D01*
X74049773Y-64606997D01*
X74038600Y-64623718D01*
X74036224Y-64629455D01*
X74006495Y-64701227D01*
X73990845Y-64739008D01*
X73987273Y-64756966D01*
X73966500Y-64861396D01*
X73966500Y-71097474D01*
X73946498Y-71165595D01*
X73934137Y-71181784D01*
X73860957Y-71263059D01*
X73765476Y-71428438D01*
X73765473Y-71428445D01*
X73706457Y-71610072D01*
X73686496Y-71800000D01*
X73706457Y-71989927D01*
X73735274Y-72078613D01*
X73765473Y-72171556D01*
X73786803Y-72208500D01*
X73860958Y-72336941D01*
X73860965Y-72336951D01*
X73988744Y-72478864D01*
X73988747Y-72478866D01*
X74143248Y-72591118D01*
X74317712Y-72668794D01*
X74504513Y-72708500D01*
X74695487Y-72708500D01*
X74882288Y-72668794D01*
X75056752Y-72591118D01*
X75211253Y-72478866D01*
X75225487Y-72463058D01*
X75339034Y-72336951D01*
X75339035Y-72336949D01*
X75339040Y-72336944D01*
X75434527Y-72171556D01*
X75493542Y-71989928D01*
X75513504Y-71800000D01*
X75493542Y-71610072D01*
X75434527Y-71428444D01*
X75360370Y-71300000D01*
X80386496Y-71300000D01*
X80406457Y-71489927D01*
X80423193Y-71541432D01*
X80465473Y-71671556D01*
X80465476Y-71671561D01*
X80560958Y-71836941D01*
X80560965Y-71836951D01*
X80688744Y-71978864D01*
X80717729Y-71999923D01*
X80843248Y-72091118D01*
X81017712Y-72168794D01*
X81204513Y-72208500D01*
X81395487Y-72208500D01*
X81582288Y-72168794D01*
X81756752Y-72091118D01*
X81911253Y-71978866D01*
X81914563Y-71975190D01*
X81975009Y-71937950D01*
X82008200Y-71933500D01*
X99462393Y-71933500D01*
X99462394Y-71933500D01*
X99584785Y-71909155D01*
X99700075Y-71861400D01*
X99803833Y-71792071D01*
X104885499Y-66710405D01*
X104947811Y-66676379D01*
X104974594Y-66673500D01*
X105091800Y-66673500D01*
X105159921Y-66693502D01*
X105185437Y-66715190D01*
X105188747Y-66718866D01*
X105343248Y-66831118D01*
X105517712Y-66908794D01*
X105704513Y-66948500D01*
X105895487Y-66948500D01*
X106082288Y-66908794D01*
X106256752Y-66831118D01*
X106411253Y-66718866D01*
X106414563Y-66715190D01*
X106539034Y-66576951D01*
X106539035Y-66576949D01*
X106539040Y-66576944D01*
X106634527Y-66411556D01*
X106693542Y-66229928D01*
X106713504Y-66040000D01*
X106693542Y-65850072D01*
X106634527Y-65668444D01*
X106539040Y-65503056D01*
X106539038Y-65503054D01*
X106539034Y-65503048D01*
X106411255Y-65361135D01*
X106256752Y-65248882D01*
X106082288Y-65171206D01*
X105895487Y-65131500D01*
X105704513Y-65131500D01*
X105517711Y-65171206D01*
X105343247Y-65248882D01*
X105188747Y-65361133D01*
X105185437Y-65364810D01*
X105124991Y-65402050D01*
X105091800Y-65406500D01*
X104597603Y-65406500D01*
X104524568Y-65421028D01*
X104475215Y-65430845D01*
X104475213Y-65430845D01*
X104475212Y-65430846D01*
X104411903Y-65457070D01*
X104382648Y-65469188D01*
X104359923Y-65478601D01*
X104256171Y-65547926D01*
X104256164Y-65547931D01*
X99174501Y-70629595D01*
X99112189Y-70663621D01*
X99085406Y-70666500D01*
X82008200Y-70666500D01*
X81940079Y-70646498D01*
X81914563Y-70624810D01*
X81911252Y-70621133D01*
X81756752Y-70508882D01*
X81582288Y-70431206D01*
X81395487Y-70391500D01*
X81204513Y-70391500D01*
X81017711Y-70431206D01*
X80843247Y-70508882D01*
X80688744Y-70621135D01*
X80560965Y-70763048D01*
X80560958Y-70763058D01*
X80469021Y-70922298D01*
X80465473Y-70928444D01*
X80450999Y-70972986D01*
X80406457Y-71110072D01*
X80386496Y-71300000D01*
X75360370Y-71300000D01*
X75339042Y-71263059D01*
X75339041Y-71263058D01*
X75339040Y-71263056D01*
X75265863Y-71181784D01*
X75235146Y-71117776D01*
X75233500Y-71097474D01*
X75233500Y-65238386D01*
X75253502Y-65170265D01*
X75270400Y-65149296D01*
X76581319Y-63838376D01*
X76643629Y-63804353D01*
X76714444Y-63809417D01*
X76771280Y-63851964D01*
X76796091Y-63918484D01*
X76795933Y-63938454D01*
X76768348Y-64253759D01*
X76768348Y-64253767D01*
X76769555Y-64314658D01*
X76769556Y-64314662D01*
X76808519Y-64455595D01*
X76808521Y-64455599D01*
X76884536Y-64578112D01*
X76885613Y-64579847D01*
X76994587Y-64677343D01*
X77126615Y-64740189D01*
X77186381Y-64751954D01*
X78976817Y-64908597D01*
X79037717Y-64907389D01*
X79158112Y-64874102D01*
X79178650Y-64868425D01*
X79178650Y-64868424D01*
X79178653Y-64868424D01*
X79302902Y-64791332D01*
X79400398Y-64682358D01*
X79452940Y-64571976D01*
X79500275Y-64519069D01*
X79568705Y-64500150D01*
X79636500Y-64521230D01*
X79659407Y-64540796D01*
X79751719Y-64641072D01*
X79802906Y-64696676D01*
X79807098Y-64701229D01*
X79857154Y-64740189D01*
X79984760Y-64839510D01*
X80182762Y-64946663D01*
X80182763Y-64946663D01*
X80182764Y-64946664D01*
X80291871Y-64984120D01*
X80395701Y-65019765D01*
X80617767Y-65056821D01*
X80617771Y-65056821D01*
X80842901Y-65056821D01*
X80842905Y-65056821D01*
X81064971Y-65019765D01*
X81277910Y-64946663D01*
X81475912Y-64839510D01*
X81653576Y-64701227D01*
X81806058Y-64535589D01*
X81823096Y-64509510D01*
X81877096Y-64463422D01*
X81947443Y-64453844D01*
X82011802Y-64483820D01*
X82043966Y-64527810D01*
X82061808Y-64568486D01*
X82184944Y-64756961D01*
X82184948Y-64756966D01*
X82296957Y-64878638D01*
X82324535Y-64908596D01*
X82337431Y-64922604D01*
X82375930Y-64952569D01*
X82515093Y-65060885D01*
X82713095Y-65168038D01*
X82713096Y-65168038D01*
X82713097Y-65168039D01*
X82786567Y-65193261D01*
X82926034Y-65241140D01*
X83148100Y-65278196D01*
X83148104Y-65278196D01*
X83373234Y-65278196D01*
X83373238Y-65278196D01*
X83595304Y-65241140D01*
X83808243Y-65168038D01*
X84006245Y-65060885D01*
X84183909Y-64922602D01*
X84336391Y-64756964D01*
X84339666Y-64751952D01*
X84388410Y-64677343D01*
X84459529Y-64568487D01*
X84503978Y-64467152D01*
X84549657Y-64412806D01*
X84617469Y-64391782D01*
X84685883Y-64410758D01*
X84733178Y-64463708D01*
X84740554Y-64483285D01*
X84757143Y-64541588D01*
X84757147Y-64541600D01*
X84848341Y-64724740D01*
X84848343Y-64724743D01*
X84867538Y-64750162D01*
X85337593Y-64355740D01*
X85390905Y-64448079D01*
X85483997Y-64541171D01*
X85500443Y-64550666D01*
X85032398Y-64943404D01*
X85122845Y-65025858D01*
X85296800Y-65133565D01*
X85296807Y-65133568D01*
X85487581Y-65207475D01*
X85487580Y-65207475D01*
X85688705Y-65245072D01*
X85893303Y-65245072D01*
X86094427Y-65207475D01*
X86285201Y-65133568D01*
X86285216Y-65133561D01*
X86398932Y-65063150D01*
X86398933Y-65063150D01*
X86005673Y-64594481D01*
X86098011Y-64541171D01*
X86191103Y-64448079D01*
X86200599Y-64431631D01*
X86595173Y-64901866D01*
X86610366Y-64888017D01*
X86733664Y-64724743D01*
X86733665Y-64724743D01*
X86766471Y-64658858D01*
X86814739Y-64606794D01*
X86883493Y-64589091D01*
X86950904Y-64611369D01*
X86995569Y-64666556D01*
X87001406Y-64684088D01*
X87032041Y-64805061D01*
X87059834Y-64868423D01*
X87092723Y-64943404D01*
X87122479Y-65011240D01*
X87245613Y-65199712D01*
X87245617Y-65199717D01*
X87342722Y-65305199D01*
X87392204Y-65358951D01*
X87398100Y-65365355D01*
X87409156Y-65373960D01*
X87575762Y-65503636D01*
X87773764Y-65610789D01*
X87773765Y-65610789D01*
X87773766Y-65610790D01*
X87885565Y-65649170D01*
X87986703Y-65683891D01*
X88208769Y-65720947D01*
X88208773Y-65720947D01*
X88433903Y-65720947D01*
X88433907Y-65720947D01*
X88655973Y-65683891D01*
X88868912Y-65610789D01*
X89066914Y-65503636D01*
X89244578Y-65365353D01*
X89397060Y-65199715D01*
X89414099Y-65173633D01*
X89468100Y-65127546D01*
X89538447Y-65117969D01*
X89602805Y-65147945D01*
X89634969Y-65191935D01*
X89652812Y-65232613D01*
X89775948Y-65421088D01*
X89775952Y-65421093D01*
X89928435Y-65586731D01*
X89959345Y-65610789D01*
X90106097Y-65725012D01*
X90304099Y-65832165D01*
X90304100Y-65832165D01*
X90304101Y-65832166D01*
X90356260Y-65850072D01*
X90517038Y-65905267D01*
X90739104Y-65942323D01*
X90739108Y-65942323D01*
X90964238Y-65942323D01*
X90964242Y-65942323D01*
X91186308Y-65905267D01*
X91399247Y-65832165D01*
X91597249Y-65725012D01*
X91774913Y-65586729D01*
X91927395Y-65421091D01*
X92050533Y-65232614D01*
X92094981Y-65131281D01*
X92140661Y-65076934D01*
X92208474Y-65055910D01*
X92276887Y-65074886D01*
X92324182Y-65127836D01*
X92331558Y-65147415D01*
X92348144Y-65205710D01*
X92348150Y-65205727D01*
X92439344Y-65388867D01*
X92439346Y-65388870D01*
X92458541Y-65414289D01*
X92928596Y-65019867D01*
X92981908Y-65112206D01*
X93075000Y-65205298D01*
X93091446Y-65214793D01*
X92623401Y-65607531D01*
X92713848Y-65689985D01*
X92887803Y-65797692D01*
X92887810Y-65797695D01*
X93078584Y-65871602D01*
X93078583Y-65871602D01*
X93279708Y-65909199D01*
X93484306Y-65909199D01*
X93685430Y-65871602D01*
X93876204Y-65797695D01*
X93876219Y-65797688D01*
X93989935Y-65727277D01*
X93989936Y-65727277D01*
X93596676Y-65258608D01*
X93689014Y-65205298D01*
X93782106Y-65112206D01*
X93791602Y-65095758D01*
X94186176Y-65565993D01*
X94201369Y-65552144D01*
X94324667Y-65388870D01*
X94324668Y-65388869D01*
X94357475Y-65322984D01*
X94405744Y-65270920D01*
X94474498Y-65253217D01*
X94541908Y-65275496D01*
X94586573Y-65330683D01*
X94592410Y-65348214D01*
X94623045Y-65469188D01*
X94627174Y-65478601D01*
X94683727Y-65607531D01*
X94713483Y-65675367D01*
X94836617Y-65863839D01*
X94836621Y-65863844D01*
X94989104Y-66029482D01*
X95002618Y-66040000D01*
X95166766Y-66167763D01*
X95364768Y-66274916D01*
X95364769Y-66274916D01*
X95364770Y-66274917D01*
X95435638Y-66299245D01*
X95497598Y-66320516D01*
X95545781Y-66350594D01*
X97124595Y-67929408D01*
X97158621Y-67991720D01*
X97161500Y-68018503D01*
X97161500Y-68525784D01*
X97160810Y-68538954D01*
X97156496Y-68579999D01*
X97160810Y-68621045D01*
X97161500Y-68634215D01*
X97161500Y-68669483D01*
X97169702Y-68710715D01*
X97171432Y-68722122D01*
X97176457Y-68769925D01*
X97176459Y-68769933D01*
X97187111Y-68802716D01*
X97190856Y-68817067D01*
X97196412Y-68844995D01*
X97196413Y-68845000D01*
X97215100Y-68890114D01*
X97218523Y-68899393D01*
X97235473Y-68951557D01*
X97249311Y-68975524D01*
X97256601Y-68990307D01*
X97264895Y-69010331D01*
X97264897Y-69010335D01*
X97264898Y-69010336D01*
X97295790Y-69056570D01*
X97295798Y-69056581D01*
X97300152Y-69063583D01*
X97330958Y-69116942D01*
X97330960Y-69116944D01*
X97344930Y-69132459D01*
X97356055Y-69146762D01*
X97364322Y-69159135D01*
X97408460Y-69203273D01*
X97412984Y-69208041D01*
X97458744Y-69258864D01*
X97458747Y-69258866D01*
X97470117Y-69267127D01*
X97470126Y-69267133D01*
X97485161Y-69279974D01*
X97490865Y-69285678D01*
X97548366Y-69324098D01*
X97552420Y-69326923D01*
X97613248Y-69371118D01*
X97619880Y-69374071D01*
X97638626Y-69384409D01*
X97639662Y-69385101D01*
X97639663Y-69385101D01*
X97639664Y-69385102D01*
X97709862Y-69414178D01*
X97712847Y-69415461D01*
X97787712Y-69448794D01*
X97788113Y-69448879D01*
X97798936Y-69452242D01*
X97799074Y-69451789D01*
X97805003Y-69453588D01*
X97835271Y-69459608D01*
X97886244Y-69469746D01*
X97887607Y-69470027D01*
X97974513Y-69488500D01*
X97974515Y-69488500D01*
X98165486Y-69488500D01*
X98165487Y-69488500D01*
X98252391Y-69470026D01*
X98253753Y-69469746D01*
X98335000Y-69453587D01*
X98335008Y-69453583D01*
X98340931Y-69451787D01*
X98341070Y-69452246D01*
X98351886Y-69448879D01*
X98352288Y-69448794D01*
X98427206Y-69415437D01*
X98430107Y-69414190D01*
X98500336Y-69385102D01*
X98501374Y-69384408D01*
X98520122Y-69374069D01*
X98526752Y-69371118D01*
X98587596Y-69326910D01*
X98591633Y-69324098D01*
X98649135Y-69285678D01*
X98654840Y-69279971D01*
X98669868Y-69267136D01*
X98681253Y-69258866D01*
X98727053Y-69207998D01*
X98731520Y-69203291D01*
X98775678Y-69159135D01*
X98783942Y-69146764D01*
X98795069Y-69132459D01*
X98809040Y-69116944D01*
X98839859Y-69063562D01*
X98844185Y-69056604D01*
X98875102Y-69010336D01*
X98883398Y-68990304D01*
X98890691Y-68975519D01*
X98904523Y-68951563D01*
X98904523Y-68951562D01*
X98904527Y-68951556D01*
X98921481Y-68899373D01*
X98924885Y-68890148D01*
X98943587Y-68845000D01*
X98949143Y-68817063D01*
X98952886Y-68802720D01*
X98963542Y-68769928D01*
X98968565Y-68722128D01*
X98970296Y-68710720D01*
X98970297Y-68710715D01*
X98978500Y-68669479D01*
X98978500Y-68634215D01*
X98979190Y-68621045D01*
X98983504Y-68580000D01*
X98979190Y-68538954D01*
X98978500Y-68525784D01*
X98978500Y-67500522D01*
X98978499Y-67500518D01*
X98943587Y-67325000D01*
X98875102Y-67159664D01*
X98775678Y-67010865D01*
X98649135Y-66884322D01*
X97258801Y-65493988D01*
X97224775Y-65431676D01*
X97225751Y-65373963D01*
X97256906Y-65250942D01*
X97275498Y-65026574D01*
X97256906Y-64802206D01*
X97245448Y-64756961D01*
X97201639Y-64583961D01*
X97201638Y-64583960D01*
X97201638Y-64583958D01*
X97111202Y-64377783D01*
X97091164Y-64347112D01*
X96988066Y-64189308D01*
X96988062Y-64189303D01*
X96835579Y-64023665D01*
X96738466Y-63948079D01*
X96657918Y-63885385D01*
X96459916Y-63778232D01*
X96459914Y-63778231D01*
X96459913Y-63778230D01*
X96246981Y-63705131D01*
X96246972Y-63705129D01*
X96188236Y-63695328D01*
X96024911Y-63668074D01*
X95799773Y-63668074D01*
X95651553Y-63692807D01*
X95577711Y-63705129D01*
X95577702Y-63705131D01*
X95364770Y-63778230D01*
X95364768Y-63778232D01*
X95316501Y-63804353D01*
X95166768Y-63885384D01*
X95166766Y-63885385D01*
X94989104Y-64023665D01*
X94836621Y-64189303D01*
X94836617Y-64189308D01*
X94713481Y-64377783D01*
X94669033Y-64479116D01*
X94623352Y-64533464D01*
X94555540Y-64554488D01*
X94487126Y-64535512D01*
X94439832Y-64482561D01*
X94432456Y-64462983D01*
X94415869Y-64404687D01*
X94415866Y-64404679D01*
X94324666Y-64221526D01*
X94305470Y-64196106D01*
X93835416Y-64590528D01*
X93782106Y-64498192D01*
X93689014Y-64405100D01*
X93672564Y-64395603D01*
X94140611Y-64002865D01*
X94050168Y-63920414D01*
X93876210Y-63812705D01*
X93876203Y-63812702D01*
X93685429Y-63738795D01*
X93685430Y-63738795D01*
X93484306Y-63701199D01*
X93279708Y-63701199D01*
X93078583Y-63738795D01*
X92887810Y-63812702D01*
X92887798Y-63812708D01*
X92774076Y-63883119D01*
X93167337Y-64351789D01*
X93075000Y-64405100D01*
X92981908Y-64498192D01*
X92972411Y-64514639D01*
X92577836Y-64044403D01*
X92562647Y-64058250D01*
X92562643Y-64058254D01*
X92439346Y-64221527D01*
X92439345Y-64221528D01*
X92406538Y-64287414D01*
X92358269Y-64339477D01*
X92289515Y-64357179D01*
X92222104Y-64334899D01*
X92177440Y-64279712D01*
X92171604Y-64262181D01*
X92140970Y-64141210D01*
X92140969Y-64141209D01*
X92140969Y-64141207D01*
X92050533Y-63935032D01*
X92018097Y-63885385D01*
X91927397Y-63746557D01*
X91927393Y-63746552D01*
X91786580Y-63593591D01*
X91774913Y-63580917D01*
X91774912Y-63580916D01*
X91774910Y-63580914D01*
X91670952Y-63500000D01*
X91597249Y-63442634D01*
X91399247Y-63335481D01*
X91399245Y-63335480D01*
X91399244Y-63335479D01*
X91186312Y-63262380D01*
X91186303Y-63262378D01*
X91142149Y-63255010D01*
X90964242Y-63225323D01*
X90739104Y-63225323D01*
X90590884Y-63250056D01*
X90517042Y-63262378D01*
X90517033Y-63262380D01*
X90304101Y-63335479D01*
X90304099Y-63335481D01*
X90107247Y-63442012D01*
X90106099Y-63442633D01*
X90106097Y-63442634D01*
X89928435Y-63580914D01*
X89775952Y-63746552D01*
X89775949Y-63746556D01*
X89758910Y-63772637D01*
X89704906Y-63818724D01*
X89634558Y-63828299D01*
X89570201Y-63798320D01*
X89538040Y-63754333D01*
X89520198Y-63713656D01*
X89466308Y-63631171D01*
X89397062Y-63525181D01*
X89397058Y-63525176D01*
X89276413Y-63394123D01*
X89244578Y-63359541D01*
X89244577Y-63359540D01*
X89244575Y-63359538D01*
X89136773Y-63275632D01*
X89066914Y-63221258D01*
X88868912Y-63114105D01*
X88868909Y-63114104D01*
X88868908Y-63114103D01*
X88856285Y-63109770D01*
X88798350Y-63068733D01*
X88771798Y-63002888D01*
X88785059Y-62933141D01*
X88833924Y-62881636D01*
X88897197Y-62864597D01*
X103019601Y-62864597D01*
X103087722Y-62884599D01*
X103134215Y-62938255D01*
X103144319Y-63008529D01*
X103132392Y-63046760D01*
X103106140Y-63099480D01*
X103106138Y-63099485D01*
X103050148Y-63296269D01*
X103031270Y-63500000D01*
X103050148Y-63703730D01*
X103106138Y-63900514D01*
X103106140Y-63900519D01*
X103197339Y-64083672D01*
X103274518Y-64185874D01*
X103274520Y-64185874D01*
X103708234Y-63752159D01*
X103739901Y-63807007D01*
X103832993Y-63900099D01*
X103887839Y-63931764D01*
X103452473Y-64367130D01*
X103471837Y-64384783D01*
X103471839Y-64384784D01*
X103645796Y-64492493D01*
X103645803Y-64492496D01*
X103836577Y-64566403D01*
X103836576Y-64566403D01*
X104037701Y-64604000D01*
X104242299Y-64604000D01*
X104443423Y-64566403D01*
X104634196Y-64492496D01*
X104634203Y-64492493D01*
X104808161Y-64384783D01*
X104827525Y-64367129D01*
X104392160Y-63931764D01*
X104447007Y-63900099D01*
X104540099Y-63807007D01*
X104571765Y-63752159D01*
X105005479Y-64185874D01*
X105005480Y-64185874D01*
X105082661Y-64083671D01*
X105082661Y-64083670D01*
X105159454Y-63929448D01*
X105207723Y-63877384D01*
X105276477Y-63859681D01*
X105343888Y-63881960D01*
X105388552Y-63937147D01*
X105390139Y-63941329D01*
X105481141Y-64148793D01*
X105604275Y-64337265D01*
X105604279Y-64337270D01*
X105666342Y-64404687D01*
X105752420Y-64498192D01*
X105756762Y-64502908D01*
X105805922Y-64541171D01*
X105934424Y-64641189D01*
X106132426Y-64748342D01*
X106132427Y-64748342D01*
X106132428Y-64748343D01*
X106244227Y-64786723D01*
X106345365Y-64821444D01*
X106567431Y-64858500D01*
X106567435Y-64858500D01*
X106792565Y-64858500D01*
X106792569Y-64858500D01*
X107014635Y-64821444D01*
X107227574Y-64748342D01*
X107425576Y-64641189D01*
X107603240Y-64502906D01*
X107755722Y-64337268D01*
X107844518Y-64201354D01*
X107898520Y-64155268D01*
X107968868Y-64145692D01*
X108033225Y-64175669D01*
X108055480Y-64201353D01*
X108088607Y-64252058D01*
X108144275Y-64337265D01*
X108144279Y-64337270D01*
X108206342Y-64404687D01*
X108292420Y-64498192D01*
X108296762Y-64502908D01*
X108345922Y-64541171D01*
X108474424Y-64641189D01*
X108672426Y-64748342D01*
X108672427Y-64748342D01*
X108672428Y-64748343D01*
X108784227Y-64786723D01*
X108885365Y-64821444D01*
X109107431Y-64858500D01*
X109107435Y-64858500D01*
X109332565Y-64858500D01*
X109332569Y-64858500D01*
X109554635Y-64821444D01*
X109767574Y-64748342D01*
X109965576Y-64641189D01*
X110143240Y-64502906D01*
X110295722Y-64337268D01*
X110418860Y-64148791D01*
X110509296Y-63942616D01*
X110564564Y-63724368D01*
X110583156Y-63500000D01*
X110564564Y-63275632D01*
X110532390Y-63148581D01*
X110509297Y-63057387D01*
X110509294Y-63057380D01*
X110502110Y-63041003D01*
X110460049Y-62945113D01*
X110451003Y-62874696D01*
X110481463Y-62810566D01*
X110541760Y-62773084D01*
X110575437Y-62768500D01*
X111927393Y-62768500D01*
X111927394Y-62768500D01*
X112049785Y-62744155D01*
X112165075Y-62696400D01*
X112268833Y-62627071D01*
X112925499Y-61970405D01*
X112987811Y-61936379D01*
X113014594Y-61933500D01*
X113666404Y-61933500D01*
X113734525Y-61953502D01*
X113781018Y-62007158D01*
X113791122Y-62077432D01*
X113761628Y-62142012D01*
X113755499Y-62148595D01*
X112496167Y-63407929D01*
X112407931Y-63496164D01*
X112407926Y-63496171D01*
X112338601Y-63599923D01*
X112296651Y-63701199D01*
X112290845Y-63715215D01*
X112284612Y-63746552D01*
X112266500Y-63837603D01*
X112266500Y-63837606D01*
X112266500Y-83537606D01*
X112266500Y-83662394D01*
X112290845Y-83784785D01*
X112338600Y-83900075D01*
X112407929Y-84003833D01*
X112407931Y-84003835D01*
X112579595Y-84175499D01*
X112613621Y-84237811D01*
X112616500Y-84264594D01*
X112616500Y-86535406D01*
X112596498Y-86603527D01*
X112579595Y-86624501D01*
X107769501Y-91434595D01*
X107707189Y-91468621D01*
X107680406Y-91471500D01*
X64932603Y-91471500D01*
X64810214Y-91495845D01*
X64810209Y-91495847D01*
X64779663Y-91508500D01*
X64694923Y-91543600D01*
X64591171Y-91612925D01*
X64591164Y-91612930D01*
X58149501Y-98054595D01*
X58087189Y-98088621D01*
X58060406Y-98091500D01*
X58004513Y-98091500D01*
X57817711Y-98131206D01*
X57643247Y-98208882D01*
X57488744Y-98321135D01*
X57360965Y-98463048D01*
X57360958Y-98463058D01*
X57265476Y-98628438D01*
X57265473Y-98628445D01*
X57206457Y-98810072D01*
X57189092Y-98975292D01*
X57162079Y-99040949D01*
X57152878Y-99051216D01*
X56449501Y-99754595D01*
X56387188Y-99788620D01*
X56360405Y-99791500D01*
X55708594Y-99791500D01*
X55640473Y-99771498D01*
X55593980Y-99717842D01*
X55583876Y-99647568D01*
X55613370Y-99582988D01*
X55619499Y-99576405D01*
X64025499Y-91170405D01*
X64087811Y-91136379D01*
X64114594Y-91133500D01*
X88862393Y-91133500D01*
X88862394Y-91133500D01*
X88984785Y-91109155D01*
X89100075Y-91061400D01*
X89203833Y-90992071D01*
X90050501Y-90145404D01*
X90112813Y-90111379D01*
X90139596Y-90108500D01*
X90195487Y-90108500D01*
X90382288Y-90068794D01*
X90556752Y-89991118D01*
X90711253Y-89878866D01*
X90720962Y-89868083D01*
X90839034Y-89736951D01*
X90839035Y-89736949D01*
X90839040Y-89736944D01*
X90934527Y-89571556D01*
X90993542Y-89389928D01*
X91013504Y-89200000D01*
X90993542Y-89010072D01*
X90934527Y-88828444D01*
X90839040Y-88663056D01*
X90839038Y-88663054D01*
X90839034Y-88663048D01*
X90711255Y-88521135D01*
X90556752Y-88408882D01*
X90382288Y-88331206D01*
X90195487Y-88291500D01*
X90004513Y-88291500D01*
X89817711Y-88331206D01*
X89643247Y-88408882D01*
X89488744Y-88521135D01*
X89360965Y-88663048D01*
X89360958Y-88663058D01*
X89265476Y-88828438D01*
X89265473Y-88828445D01*
X89206457Y-89010072D01*
X89189093Y-89175290D01*
X89162080Y-89240947D01*
X89152879Y-89251215D01*
X89007931Y-89396164D01*
X88704096Y-89700000D01*
X88574501Y-89829595D01*
X88512188Y-89863620D01*
X88485405Y-89866500D01*
X63737603Y-89866500D01*
X63664568Y-89881028D01*
X63615215Y-89890845D01*
X63615213Y-89890845D01*
X63615212Y-89890846D01*
X63499923Y-89938601D01*
X63396171Y-90007926D01*
X63396164Y-90007931D01*
X54549501Y-98854595D01*
X54487189Y-98888621D01*
X54460406Y-98891500D01*
X53771893Y-98891500D01*
X53703772Y-98871498D01*
X53657279Y-98817842D01*
X53647175Y-98747568D01*
X53676669Y-98682988D01*
X53682798Y-98676405D01*
X62788798Y-89570405D01*
X62851110Y-89536379D01*
X62877893Y-89533500D01*
X86462393Y-89533500D01*
X86462394Y-89533500D01*
X86463726Y-89533234D01*
X86575909Y-89510921D01*
X86600490Y-89508500D01*
X86795487Y-89508500D01*
X86982288Y-89468794D01*
X87156752Y-89391118D01*
X87311253Y-89278866D01*
X87336150Y-89251215D01*
X87439034Y-89136951D01*
X87439035Y-89136949D01*
X87439040Y-89136944D01*
X87534527Y-88971556D01*
X87593542Y-88789928D01*
X87613504Y-88600000D01*
X87593542Y-88410072D01*
X87534527Y-88228444D01*
X87439040Y-88063056D01*
X87439038Y-88063054D01*
X87439034Y-88063048D01*
X87311255Y-87921135D01*
X87156752Y-87808882D01*
X86982288Y-87731206D01*
X86795487Y-87691500D01*
X86604513Y-87691500D01*
X86417711Y-87731206D01*
X86243247Y-87808882D01*
X86088744Y-87921135D01*
X85960965Y-88063048D01*
X85960958Y-88063058D01*
X85879874Y-88203500D01*
X85828491Y-88252493D01*
X85770755Y-88266500D01*
X71635326Y-88266500D01*
X71567205Y-88246498D01*
X71520712Y-88192842D01*
X71510608Y-88122568D01*
X71540102Y-88057988D01*
X71564349Y-88036393D01*
X71566676Y-88034806D01*
X71566679Y-88034803D01*
X71617979Y-87987203D01*
X71617979Y-87987202D01*
X71260885Y-87630108D01*
X71284330Y-87613075D01*
X71423456Y-87473949D01*
X71440489Y-87450504D01*
X71797805Y-87807820D01*
X71797806Y-87807820D01*
X71923298Y-87650459D01*
X72054738Y-87422799D01*
X72054741Y-87422791D01*
X72150782Y-87178082D01*
X72150784Y-87178077D01*
X72209281Y-86921786D01*
X72228927Y-86659629D01*
X72209281Y-86397471D01*
X72150784Y-86141180D01*
X72150782Y-86141175D01*
X72054741Y-85896466D01*
X72054738Y-85896458D01*
X71923298Y-85668798D01*
X71797806Y-85511436D01*
X71797805Y-85511436D01*
X71440488Y-85868752D01*
X71423456Y-85845309D01*
X71284330Y-85706183D01*
X71260885Y-85689149D01*
X71617979Y-85332055D01*
X71617978Y-85332053D01*
X71566682Y-85284457D01*
X71566676Y-85284451D01*
X71349471Y-85136363D01*
X71349471Y-85136362D01*
X71112619Y-85022299D01*
X71112606Y-85022294D01*
X70861416Y-84944813D01*
X70861404Y-84944811D01*
X70601450Y-84905629D01*
X70338570Y-84905629D01*
X70078615Y-84944811D01*
X70078603Y-84944813D01*
X69827413Y-85022294D01*
X69827400Y-85022299D01*
X69590548Y-85136362D01*
X69590548Y-85136363D01*
X69373343Y-85284451D01*
X69373336Y-85284457D01*
X69322039Y-85332054D01*
X69679134Y-85689149D01*
X69655690Y-85706183D01*
X69516564Y-85845309D01*
X69499530Y-85868753D01*
X69142213Y-85511436D01*
X69142211Y-85511436D01*
X69016725Y-85668791D01*
X69016722Y-85668796D01*
X68885281Y-85896458D01*
X68885278Y-85896466D01*
X68789237Y-86141175D01*
X68789235Y-86141180D01*
X68730738Y-86397471D01*
X68711092Y-86659629D01*
X68730738Y-86921786D01*
X68789235Y-87178077D01*
X68789237Y-87178082D01*
X68885278Y-87422791D01*
X68885281Y-87422799D01*
X69016719Y-87650455D01*
X69016724Y-87650462D01*
X69142211Y-87807820D01*
X69142213Y-87807820D01*
X69499529Y-87450503D01*
X69516564Y-87473949D01*
X69655690Y-87613075D01*
X69679133Y-87630107D01*
X69322039Y-87987202D01*
X69373336Y-88034800D01*
X69373345Y-88034807D01*
X69375671Y-88036393D01*
X69376308Y-88037170D01*
X69377029Y-88037745D01*
X69376906Y-88037899D01*
X69420688Y-88091292D01*
X69428878Y-88161815D01*
X69397640Y-88225570D01*
X69336893Y-88262316D01*
X69304694Y-88266500D01*
X62500902Y-88266500D01*
X62428717Y-88280859D01*
X62378514Y-88290845D01*
X62378512Y-88290845D01*
X62378511Y-88290846D01*
X62337272Y-88307928D01*
X62267645Y-88336769D01*
X62263222Y-88338601D01*
X62159470Y-88407926D01*
X62159463Y-88407931D01*
X55048180Y-95519214D01*
X54985868Y-95553240D01*
X54915053Y-95548175D01*
X54858217Y-95505628D01*
X54833406Y-95439108D01*
X54837377Y-95397512D01*
X54896213Y-95177934D01*
X54926233Y-94949910D01*
X54926233Y-94719918D01*
X54896213Y-94491894D01*
X54836687Y-94269738D01*
X54748673Y-94057253D01*
X54748667Y-94057244D01*
X54748666Y-94057240D01*
X54633679Y-93858077D01*
X54633677Y-93858074D01*
X54493667Y-93675609D01*
X54493661Y-93675603D01*
X54493657Y-93675598D01*
X54331048Y-93512989D01*
X54331042Y-93512984D01*
X54331038Y-93512980D01*
X54148573Y-93372970D01*
X54148572Y-93372969D01*
X54148569Y-93372967D01*
X53949406Y-93257980D01*
X53949398Y-93257976D01*
X53949394Y-93257974D01*
X53736909Y-93169960D01*
X53514753Y-93110434D01*
X53514746Y-93110432D01*
X53286731Y-93080414D01*
X53286729Y-93080414D01*
X53056737Y-93080414D01*
X53056734Y-93080414D01*
X52828719Y-93110432D01*
X52606557Y-93169960D01*
X52394070Y-93257975D01*
X52394059Y-93257980D01*
X52194896Y-93372967D01*
X52012428Y-93512980D01*
X52012417Y-93512989D01*
X51849808Y-93675598D01*
X51849799Y-93675609D01*
X51709786Y-93858077D01*
X51594799Y-94057240D01*
X51594794Y-94057251D01*
X51506779Y-94269738D01*
X51447251Y-94491900D01*
X51417233Y-94719915D01*
X51417233Y-94949912D01*
X51447251Y-95177927D01*
X51447253Y-95177934D01*
X51506779Y-95400090D01*
X51594793Y-95612575D01*
X51594794Y-95612576D01*
X51594799Y-95612587D01*
X51709786Y-95811750D01*
X51709788Y-95811753D01*
X51709789Y-95811754D01*
X51849799Y-95994219D01*
X51849803Y-95994223D01*
X51849808Y-95994229D01*
X52012417Y-96156838D01*
X52012422Y-96156842D01*
X52012428Y-96156848D01*
X52194893Y-96296858D01*
X52194896Y-96296860D01*
X52394059Y-96411847D01*
X52394063Y-96411848D01*
X52394072Y-96411854D01*
X52606557Y-96499868D01*
X52828713Y-96559394D01*
X52828717Y-96559394D01*
X52828719Y-96559395D01*
X52887485Y-96567131D01*
X53056737Y-96589414D01*
X53056744Y-96589414D01*
X53286722Y-96589414D01*
X53286729Y-96589414D01*
X53492806Y-96562283D01*
X53514746Y-96559395D01*
X53514746Y-96559394D01*
X53514753Y-96559394D01*
X53734329Y-96500559D01*
X53805303Y-96502249D01*
X53864099Y-96542043D01*
X53892047Y-96607307D01*
X53880274Y-96677321D01*
X53856033Y-96711361D01*
X51361167Y-99206228D01*
X51272931Y-99294463D01*
X51272926Y-99294470D01*
X51206307Y-99394173D01*
X51203600Y-99398224D01*
X51202260Y-99401460D01*
X51173226Y-99471554D01*
X51155845Y-99513514D01*
X51151183Y-99536951D01*
X51131500Y-99635902D01*
X51131500Y-101187396D01*
X48056871Y-101187396D01*
X53226833Y-88900000D01*
X54374357Y-88900000D01*
X54393991Y-89136951D01*
X54394893Y-89147828D01*
X54455935Y-89388877D01*
X54455938Y-89388884D01*
X54555826Y-89616606D01*
X54691835Y-89824785D01*
X54860249Y-90007732D01*
X54860254Y-90007736D01*
X54860256Y-90007738D01*
X55042109Y-90149280D01*
X55056490Y-90160473D01*
X55056491Y-90160474D01*
X55275190Y-90278828D01*
X55275192Y-90278829D01*
X55382329Y-90315609D01*
X55510386Y-90359571D01*
X55755665Y-90400500D01*
X55755669Y-90400500D01*
X56004331Y-90400500D01*
X56004335Y-90400500D01*
X56249614Y-90359571D01*
X56484810Y-90278828D01*
X56703509Y-90160474D01*
X56899744Y-90007738D01*
X56922072Y-89983484D01*
X57068164Y-89824785D01*
X57111583Y-89758327D01*
X57204173Y-89616607D01*
X57304063Y-89388881D01*
X57365108Y-89147821D01*
X57385643Y-88900000D01*
X57365108Y-88652179D01*
X57337124Y-88541672D01*
X57304064Y-88411122D01*
X57304061Y-88411115D01*
X57303603Y-88410072D01*
X57204173Y-88183393D01*
X57201988Y-88180049D01*
X57068164Y-87975214D01*
X56899750Y-87792267D01*
X56892646Y-87786738D01*
X56703509Y-87639526D01*
X56703508Y-87639525D01*
X56484809Y-87521171D01*
X56484807Y-87521170D01*
X56249618Y-87440430D01*
X56249609Y-87440428D01*
X56200836Y-87432289D01*
X56004335Y-87399500D01*
X55755665Y-87399500D01*
X55591953Y-87426818D01*
X55510390Y-87440428D01*
X55510381Y-87440430D01*
X55275192Y-87521170D01*
X55275190Y-87521171D01*
X55056491Y-87639525D01*
X55056490Y-87639526D01*
X54860249Y-87792267D01*
X54691835Y-87975214D01*
X54555826Y-88183393D01*
X54455938Y-88411115D01*
X54455935Y-88411122D01*
X54394893Y-88652171D01*
X54394892Y-88652177D01*
X54394892Y-88652179D01*
X54374357Y-88900000D01*
X53226833Y-88900000D01*
X54320791Y-86300001D01*
X65026620Y-86300001D01*
X65030893Y-86343383D01*
X65031500Y-86355734D01*
X65031500Y-86399334D01*
X65040004Y-86442085D01*
X65041818Y-86454315D01*
X65046091Y-86497698D01*
X65046092Y-86497704D01*
X65058745Y-86539418D01*
X65061748Y-86551405D01*
X65068948Y-86587596D01*
X65070256Y-86594169D01*
X65086933Y-86634433D01*
X65086937Y-86634441D01*
X65091102Y-86646081D01*
X65103758Y-86687801D01*
X65103761Y-86687808D01*
X65124310Y-86726252D01*
X65129597Y-86737430D01*
X65146279Y-86777704D01*
X65146280Y-86777707D01*
X65170494Y-86813946D01*
X65176849Y-86824548D01*
X65197405Y-86863004D01*
X65225066Y-86896709D01*
X65232432Y-86906641D01*
X65236277Y-86912396D01*
X65256647Y-86942881D01*
X65287467Y-86973701D01*
X65295766Y-86982857D01*
X65323432Y-87016568D01*
X65357149Y-87044239D01*
X65366289Y-87052523D01*
X65397119Y-87083353D01*
X65397122Y-87083355D01*
X65433352Y-87107563D01*
X65443285Y-87114929D01*
X65476997Y-87142596D01*
X65515446Y-87163147D01*
X65526053Y-87169504D01*
X65538253Y-87177655D01*
X65562296Y-87193721D01*
X65602567Y-87210401D01*
X65613749Y-87215690D01*
X65652194Y-87236240D01*
X65652195Y-87236240D01*
X65652196Y-87236241D01*
X65652203Y-87236243D01*
X65693917Y-87248897D01*
X65705551Y-87253059D01*
X65745831Y-87269744D01*
X65788589Y-87278249D01*
X65800573Y-87281251D01*
X65812628Y-87284907D01*
X65842299Y-87293908D01*
X65885693Y-87298181D01*
X65897899Y-87299991D01*
X65940671Y-87308500D01*
X65984266Y-87308500D01*
X65996614Y-87309106D01*
X66011867Y-87310609D01*
X66039998Y-87313380D01*
X66040000Y-87313380D01*
X66040002Y-87313380D01*
X66068132Y-87310609D01*
X66083385Y-87309106D01*
X66095734Y-87308500D01*
X66139325Y-87308500D01*
X66139329Y-87308500D01*
X66182097Y-87299992D01*
X66194308Y-87298181D01*
X66237701Y-87293908D01*
X66279423Y-87281251D01*
X66291404Y-87278250D01*
X66334169Y-87269744D01*
X66374462Y-87253053D01*
X66386076Y-87248898D01*
X66427804Y-87236241D01*
X66466267Y-87215680D01*
X66477418Y-87210406D01*
X66517704Y-87193721D01*
X66553947Y-87169502D01*
X66564552Y-87163147D01*
X66603004Y-87142595D01*
X66636728Y-87114916D01*
X66646633Y-87107571D01*
X66682881Y-87083353D01*
X66713712Y-87052520D01*
X66722854Y-87044235D01*
X66756568Y-87016568D01*
X66784235Y-86982854D01*
X66792520Y-86973712D01*
X66823353Y-86942881D01*
X66847571Y-86906633D01*
X66854916Y-86896728D01*
X66882595Y-86863004D01*
X66903149Y-86824548D01*
X66909505Y-86813944D01*
X66933721Y-86777704D01*
X66950406Y-86737418D01*
X66955680Y-86726267D01*
X66976241Y-86687804D01*
X66988898Y-86646076D01*
X66993053Y-86634462D01*
X67009744Y-86594169D01*
X67018250Y-86551404D01*
X67021253Y-86539418D01*
X67033908Y-86497701D01*
X67038181Y-86454308D01*
X67039993Y-86442091D01*
X67048500Y-86399329D01*
X67048500Y-86355734D01*
X67049107Y-86343383D01*
X67053380Y-86300001D01*
X67053380Y-86299998D01*
X67049107Y-86256615D01*
X67048500Y-86244264D01*
X67048500Y-85729924D01*
X67068502Y-85661803D01*
X67085405Y-85640829D01*
X68380830Y-84345405D01*
X68443142Y-84311379D01*
X68469925Y-84308500D01*
X73030076Y-84308500D01*
X73098197Y-84328502D01*
X73119171Y-84345405D01*
X75516647Y-86742881D01*
X75657119Y-86883353D01*
X75822296Y-86993721D01*
X76005831Y-87069744D01*
X76200671Y-87108500D01*
X76200672Y-87108500D01*
X95299328Y-87108500D01*
X95299329Y-87108500D01*
X95494169Y-87069744D01*
X95677704Y-86993721D01*
X95842881Y-86883353D01*
X95983353Y-86742881D01*
X97083353Y-85642881D01*
X97193722Y-85477704D01*
X97269744Y-85294168D01*
X97271246Y-85286620D01*
X97271678Y-85284451D01*
X97308499Y-85099334D01*
X97308500Y-85099327D01*
X97308500Y-83900672D01*
X97308499Y-83900668D01*
X97269744Y-83705831D01*
X97193721Y-83522296D01*
X97083353Y-83357119D01*
X96942881Y-83216647D01*
X96777704Y-83106279D01*
X96621053Y-83041392D01*
X96594174Y-83030258D01*
X96594169Y-83030256D01*
X96399331Y-82991500D01*
X96399329Y-82991500D01*
X96200671Y-82991500D01*
X96200668Y-82991500D01*
X96005830Y-83030256D01*
X96005825Y-83030258D01*
X95822296Y-83106279D01*
X95657123Y-83216644D01*
X95657116Y-83216649D01*
X95516649Y-83357116D01*
X95516644Y-83357123D01*
X95406279Y-83522296D01*
X95330258Y-83705825D01*
X95330256Y-83705830D01*
X95291500Y-83900668D01*
X95291500Y-84530076D01*
X95271498Y-84598197D01*
X95254595Y-84619171D01*
X94819171Y-85054595D01*
X94756859Y-85088621D01*
X94730076Y-85091500D01*
X76769924Y-85091500D01*
X76701803Y-85071498D01*
X76680829Y-85054595D01*
X75526234Y-83900000D01*
X77086496Y-83900000D01*
X77106457Y-84089927D01*
X77134262Y-84175499D01*
X77165473Y-84271556D01*
X77165476Y-84271561D01*
X77260958Y-84436941D01*
X77260965Y-84436951D01*
X77388744Y-84578864D01*
X77441403Y-84617123D01*
X77543248Y-84691118D01*
X77717712Y-84768794D01*
X77904513Y-84808500D01*
X78095487Y-84808500D01*
X78282288Y-84768794D01*
X78456752Y-84691118D01*
X78611253Y-84578866D01*
X78620323Y-84568793D01*
X78659584Y-84525190D01*
X78720030Y-84487950D01*
X78753220Y-84483500D01*
X90791800Y-84483500D01*
X90859921Y-84503502D01*
X90885437Y-84525190D01*
X90888747Y-84528866D01*
X91043248Y-84641118D01*
X91217712Y-84718794D01*
X91404513Y-84758500D01*
X91595487Y-84758500D01*
X91782288Y-84718794D01*
X91956752Y-84641118D01*
X92111253Y-84528866D01*
X92134091Y-84503502D01*
X92239034Y-84386951D01*
X92239035Y-84386949D01*
X92239040Y-84386944D01*
X92334527Y-84221556D01*
X92393542Y-84039928D01*
X92413504Y-83850000D01*
X92393542Y-83660072D01*
X92334527Y-83478444D01*
X92239040Y-83313056D01*
X92239038Y-83313054D01*
X92239034Y-83313048D01*
X92111255Y-83171135D01*
X91956752Y-83058882D01*
X91782288Y-82981206D01*
X91595487Y-82941500D01*
X91404513Y-82941500D01*
X91217711Y-82981206D01*
X91043247Y-83058882D01*
X90888747Y-83171133D01*
X90885437Y-83174810D01*
X90824991Y-83212050D01*
X90791800Y-83216500D01*
X78645815Y-83216500D01*
X78577694Y-83196498D01*
X78571754Y-83192436D01*
X78456752Y-83108882D01*
X78282288Y-83031206D01*
X78095487Y-82991500D01*
X77904513Y-82991500D01*
X77717711Y-83031206D01*
X77543247Y-83108882D01*
X77388744Y-83221135D01*
X77260965Y-83363048D01*
X77260958Y-83363058D01*
X77165476Y-83528438D01*
X77165473Y-83528444D01*
X77159713Y-83546171D01*
X77106457Y-83710072D01*
X77086496Y-83900000D01*
X75526234Y-83900000D01*
X74142883Y-82516649D01*
X74142882Y-82516648D01*
X74142881Y-82516647D01*
X73977704Y-82406279D01*
X73912245Y-82379165D01*
X73794174Y-82330258D01*
X73794172Y-82330257D01*
X73794170Y-82330256D01*
X73794169Y-82330256D01*
X73696089Y-82310746D01*
X73599331Y-82291500D01*
X73599329Y-82291500D01*
X67900671Y-82291500D01*
X67900668Y-82291500D01*
X67705830Y-82330256D01*
X67705825Y-82330258D01*
X67637644Y-82358500D01*
X67522296Y-82406278D01*
X67357123Y-82516643D01*
X67357116Y-82516648D01*
X65397119Y-84476647D01*
X65256649Y-84617116D01*
X65256644Y-84617123D01*
X65146279Y-84782296D01*
X65070258Y-84965825D01*
X65070256Y-84965830D01*
X65031500Y-85160668D01*
X65031500Y-86244264D01*
X65030893Y-86256615D01*
X65026620Y-86299998D01*
X65026620Y-86300001D01*
X54320791Y-86300001D01*
X56235501Y-81749329D01*
X87391500Y-81749329D01*
X87430256Y-81944169D01*
X87506279Y-82127704D01*
X87616647Y-82292881D01*
X87757119Y-82433353D01*
X87922296Y-82543721D01*
X88105831Y-82619744D01*
X88300671Y-82658500D01*
X98380076Y-82658500D01*
X98448197Y-82678502D01*
X98469171Y-82695405D01*
X100714595Y-84940829D01*
X100748621Y-85003141D01*
X100751500Y-85029924D01*
X100751500Y-87540684D01*
X100731498Y-87608805D01*
X100677842Y-87655298D01*
X100669534Y-87658739D01*
X100561295Y-87699111D01*
X100561292Y-87699112D01*
X100444238Y-87786738D01*
X100356612Y-87903792D01*
X100356610Y-87903797D01*
X100305511Y-88040795D01*
X100305509Y-88040803D01*
X100299000Y-88101350D01*
X100299000Y-90198649D01*
X100305509Y-90259196D01*
X100305511Y-90259204D01*
X100356610Y-90396202D01*
X100356612Y-90396207D01*
X100444238Y-90513261D01*
X100561292Y-90600887D01*
X100561294Y-90600888D01*
X100561296Y-90600889D01*
X100619304Y-90622525D01*
X100698295Y-90651988D01*
X100698303Y-90651990D01*
X100758850Y-90658499D01*
X100758855Y-90658499D01*
X100758862Y-90658500D01*
X100758868Y-90658500D01*
X102761132Y-90658500D01*
X102761138Y-90658500D01*
X102761145Y-90658499D01*
X102761149Y-90658499D01*
X102821696Y-90651990D01*
X102821699Y-90651989D01*
X102821701Y-90651989D01*
X102958704Y-90600889D01*
X103075761Y-90513261D01*
X103163387Y-90396207D01*
X103163387Y-90396206D01*
X103163389Y-90396204D01*
X103214489Y-90259201D01*
X103217514Y-90231071D01*
X103220999Y-90198649D01*
X103221000Y-90198632D01*
X103221000Y-90128940D01*
X103241002Y-90060819D01*
X103294658Y-90014326D01*
X103364932Y-90004222D01*
X103429512Y-90033716D01*
X103436095Y-90039845D01*
X103514015Y-90117765D01*
X103667652Y-90229389D01*
X103836863Y-90315606D01*
X103836869Y-90315609D01*
X104017473Y-90374290D01*
X104017471Y-90374290D01*
X104173000Y-90398923D01*
X104173000Y-89685372D01*
X104227591Y-89700000D01*
X104372409Y-89700000D01*
X104427000Y-89685372D01*
X104427000Y-90398923D01*
X104582527Y-90374290D01*
X104763130Y-90315609D01*
X104763136Y-90315606D01*
X104932347Y-90229389D01*
X105085984Y-90117765D01*
X105220262Y-89983487D01*
X105220264Y-89983484D01*
X105323058Y-89842002D01*
X105379280Y-89798648D01*
X105450016Y-89792573D01*
X105512808Y-89825704D01*
X105537260Y-89858858D01*
X105590440Y-89963231D01*
X105725611Y-90149278D01*
X105725613Y-90149280D01*
X105725615Y-90149283D01*
X105888216Y-90311884D01*
X105888219Y-90311886D01*
X105888222Y-90311889D01*
X106074269Y-90447060D01*
X106279171Y-90551462D01*
X106497882Y-90622526D01*
X106725017Y-90658500D01*
X106725019Y-90658500D01*
X106954981Y-90658500D01*
X106954983Y-90658500D01*
X107182118Y-90622526D01*
X107400829Y-90551462D01*
X107605731Y-90447060D01*
X107791778Y-90311889D01*
X107954389Y-90149278D01*
X108089560Y-89963231D01*
X108193962Y-89758329D01*
X108265026Y-89539618D01*
X108301000Y-89312483D01*
X108301000Y-88987517D01*
X108265026Y-88760382D01*
X108193962Y-88541671D01*
X108193667Y-88541093D01*
X108126303Y-88408882D01*
X108089560Y-88336769D01*
X107954389Y-88150722D01*
X107954386Y-88150719D01*
X107954384Y-88150716D01*
X107791783Y-87988115D01*
X107791780Y-87988113D01*
X107791778Y-87988111D01*
X107605731Y-87852940D01*
X107537253Y-87818049D01*
X107400836Y-87748541D01*
X107400832Y-87748539D01*
X107400829Y-87748538D01*
X107278781Y-87708882D01*
X107182120Y-87677474D01*
X107063828Y-87658739D01*
X106954983Y-87641500D01*
X106725017Y-87641500D01*
X106637898Y-87655298D01*
X106497879Y-87677474D01*
X106340149Y-87728725D01*
X106279171Y-87748538D01*
X106279169Y-87748538D01*
X106279163Y-87748541D01*
X106074268Y-87852940D01*
X105888219Y-87988113D01*
X105888216Y-87988115D01*
X105725615Y-88150716D01*
X105725613Y-88150719D01*
X105590442Y-88336765D01*
X105537261Y-88441139D01*
X105488512Y-88492754D01*
X105419598Y-88509820D01*
X105352396Y-88486919D01*
X105323058Y-88457997D01*
X105220265Y-88316515D01*
X105085984Y-88182234D01*
X104932347Y-88070610D01*
X104763136Y-87984393D01*
X104763130Y-87984390D01*
X104582527Y-87925709D01*
X104427000Y-87901075D01*
X104427000Y-88614627D01*
X104372409Y-88600000D01*
X104227591Y-88600000D01*
X104173000Y-88614627D01*
X104173000Y-87901075D01*
X104017472Y-87925709D01*
X103836869Y-87984390D01*
X103836863Y-87984393D01*
X103667652Y-88070610D01*
X103514015Y-88182234D01*
X103514012Y-88182237D01*
X103436095Y-88260155D01*
X103373783Y-88294181D01*
X103302968Y-88289116D01*
X103246132Y-88246569D01*
X103221321Y-88180049D01*
X103221000Y-88171060D01*
X103221000Y-88101367D01*
X103220999Y-88101350D01*
X103214490Y-88040803D01*
X103214488Y-88040795D01*
X103167262Y-87914181D01*
X103163389Y-87903796D01*
X103163388Y-87903794D01*
X103163387Y-87903792D01*
X103075761Y-87786738D01*
X102958707Y-87699112D01*
X102958704Y-87699111D01*
X102850466Y-87658739D01*
X102793631Y-87616192D01*
X102768821Y-87549671D01*
X102768500Y-87540684D01*
X102768500Y-84460672D01*
X102768499Y-84460668D01*
X102729744Y-84265831D01*
X102653721Y-84082296D01*
X102543353Y-83917119D01*
X102402881Y-83776647D01*
X99492881Y-80866647D01*
X99327704Y-80756279D01*
X99265072Y-80730336D01*
X99170390Y-80691117D01*
X99144172Y-80680257D01*
X99144170Y-80680256D01*
X99144169Y-80680256D01*
X99046089Y-80660746D01*
X98949331Y-80641500D01*
X98949329Y-80641500D01*
X88300671Y-80641500D01*
X88300668Y-80641500D01*
X88105830Y-80680256D01*
X88105825Y-80680258D01*
X87922296Y-80756279D01*
X87757123Y-80866644D01*
X87757116Y-80866649D01*
X87616649Y-81007116D01*
X87616644Y-81007123D01*
X87506279Y-81172296D01*
X87430258Y-81355825D01*
X87430256Y-81355830D01*
X87391500Y-81550668D01*
X87391500Y-81550671D01*
X87391500Y-81749329D01*
X56235501Y-81749329D01*
X57091503Y-79714877D01*
X64410348Y-79714877D01*
X64429994Y-79977034D01*
X64488491Y-80233325D01*
X64488493Y-80233330D01*
X64584534Y-80478039D01*
X64584537Y-80478047D01*
X64715975Y-80705703D01*
X64715980Y-80705710D01*
X64841467Y-80863068D01*
X64841469Y-80863068D01*
X65198785Y-80505751D01*
X65215820Y-80529197D01*
X65354946Y-80668323D01*
X65378390Y-80685356D01*
X65021296Y-81042450D01*
X65072592Y-81090048D01*
X65072599Y-81090054D01*
X65289804Y-81238142D01*
X65289804Y-81238143D01*
X65526656Y-81352206D01*
X65526669Y-81352211D01*
X65777859Y-81429692D01*
X65777871Y-81429694D01*
X66037826Y-81468877D01*
X66300706Y-81468877D01*
X66560660Y-81429694D01*
X66560672Y-81429692D01*
X66811862Y-81352211D01*
X66811875Y-81352206D01*
X67048727Y-81238143D01*
X67048727Y-81238142D01*
X67265934Y-81090052D01*
X67265935Y-81090051D01*
X67317235Y-81042451D01*
X67317235Y-81042450D01*
X66960141Y-80685356D01*
X66983586Y-80668323D01*
X67122712Y-80529197D01*
X67139745Y-80505752D01*
X67497061Y-80863068D01*
X67497062Y-80863068D01*
X67622554Y-80705707D01*
X67668211Y-80626627D01*
X67719593Y-80577634D01*
X67789307Y-80564197D01*
X67855218Y-80590584D01*
X67886449Y-80626627D01*
X67915552Y-80677035D01*
X67918306Y-80682066D01*
X67959156Y-80760902D01*
X67982297Y-80793685D01*
X67988477Y-80803346D01*
X68005674Y-80833132D01*
X68059945Y-80903860D01*
X68062900Y-80907874D01*
X68117609Y-80985379D01*
X68117610Y-80985380D01*
X68140840Y-81010253D01*
X68148717Y-81019551D01*
X68165947Y-81042005D01*
X68165955Y-81042015D01*
X68233301Y-81109361D01*
X68236263Y-81112426D01*
X68305152Y-81186188D01*
X68305160Y-81186195D01*
X68326838Y-81203832D01*
X68336408Y-81212468D01*
X68352128Y-81228188D01*
X68432532Y-81289883D01*
X68435295Y-81292067D01*
X68518290Y-81359590D01*
X68518292Y-81359591D01*
X68518297Y-81359595D01*
X68536973Y-81370952D01*
X68536978Y-81370955D01*
X68548212Y-81378648D01*
X68561009Y-81388467D01*
X68653996Y-81442152D01*
X68656424Y-81443591D01*
X68709420Y-81475819D01*
X68753068Y-81502362D01*
X68767525Y-81508641D01*
X68780337Y-81515096D01*
X68789014Y-81520106D01*
X68789023Y-81520111D01*
X68893862Y-81563537D01*
X68895815Y-81564366D01*
X69005086Y-81611829D01*
X69005089Y-81611830D01*
X69014407Y-81614441D01*
X69028628Y-81619359D01*
X69032264Y-81620865D01*
X69032269Y-81620867D01*
X69147841Y-81651833D01*
X69149042Y-81652163D01*
X69269670Y-81685962D01*
X69273209Y-81686448D01*
X69282504Y-81688326D01*
X69282529Y-81688204D01*
X69286577Y-81689008D01*
X69286586Y-81689011D01*
X69411286Y-81705427D01*
X69411690Y-81705481D01*
X69541881Y-81723377D01*
X69541888Y-81723377D01*
X69816644Y-81723377D01*
X69816651Y-81723377D01*
X69946920Y-81705470D01*
X69947186Y-81705434D01*
X70071946Y-81689011D01*
X70071948Y-81689010D01*
X70071951Y-81689010D01*
X70075999Y-81688205D01*
X70076023Y-81688326D01*
X70085326Y-81686447D01*
X70088862Y-81685962D01*
X70209528Y-81652151D01*
X70210687Y-81651834D01*
X70276753Y-81634132D01*
X70326253Y-81620870D01*
X70326255Y-81620869D01*
X70326263Y-81620867D01*
X70329909Y-81619356D01*
X70344138Y-81614436D01*
X70353443Y-81611830D01*
X70462792Y-81564332D01*
X70464657Y-81563541D01*
X70569509Y-81520111D01*
X70578199Y-81515092D01*
X70590999Y-81508643D01*
X70605466Y-81502361D01*
X70702099Y-81443595D01*
X70704515Y-81442163D01*
X70797523Y-81388467D01*
X70810319Y-81378647D01*
X70821558Y-81370952D01*
X70840235Y-81359595D01*
X70923242Y-81292062D01*
X70926029Y-81289860D01*
X71006404Y-81228188D01*
X71022128Y-81212462D01*
X71031697Y-81203827D01*
X71053377Y-81186191D01*
X71122282Y-81112410D01*
X71125215Y-81109375D01*
X71192577Y-81042015D01*
X71209814Y-81019550D01*
X71217686Y-81010259D01*
X71221678Y-81005984D01*
X71240923Y-80985379D01*
X71295630Y-80907873D01*
X71298601Y-80903839D01*
X71352856Y-80833134D01*
X71370068Y-80803319D01*
X71376234Y-80793685D01*
X71399377Y-80760900D01*
X71440233Y-80682048D01*
X71442956Y-80677074D01*
X71484500Y-80605120D01*
X71500002Y-80567692D01*
X71504529Y-80557963D01*
X71525789Y-80516935D01*
X71553492Y-80438981D01*
X71555778Y-80433037D01*
X71585256Y-80361874D01*
X71597312Y-80316878D01*
X71600288Y-80307312D01*
X71617804Y-80258030D01*
X71633398Y-80182985D01*
X71635043Y-80176062D01*
X71653400Y-80107557D01*
X71660271Y-80055361D01*
X71661829Y-80046166D01*
X71673708Y-79989007D01*
X71673797Y-79987714D01*
X71678521Y-79918632D01*
X71679303Y-79910797D01*
X71680725Y-79900000D01*
X75886496Y-79900000D01*
X75906457Y-80089927D01*
X75931294Y-80166364D01*
X75965473Y-80271556D01*
X75965476Y-80271561D01*
X76060958Y-80436941D01*
X76060965Y-80436951D01*
X76188744Y-80578864D01*
X76188747Y-80578866D01*
X76343248Y-80691118D01*
X76517712Y-80768794D01*
X76704513Y-80808500D01*
X76895487Y-80808500D01*
X77082288Y-80768794D01*
X77256752Y-80691118D01*
X77411253Y-80578866D01*
X77414563Y-80575190D01*
X77475009Y-80537950D01*
X77508200Y-80533500D01*
X81862393Y-80533500D01*
X81862394Y-80533500D01*
X81984785Y-80509155D01*
X82100075Y-80461400D01*
X82203833Y-80392071D01*
X83195904Y-79400000D01*
X88736496Y-79400000D01*
X88756457Y-79589927D01*
X88786526Y-79682470D01*
X88815473Y-79771556D01*
X88819879Y-79779188D01*
X88910958Y-79936941D01*
X88910965Y-79936951D01*
X89038744Y-80078864D01*
X89038747Y-80078866D01*
X89193248Y-80191118D01*
X89367712Y-80268794D01*
X89554513Y-80308500D01*
X89745487Y-80308500D01*
X89932288Y-80268794D01*
X90106752Y-80191118D01*
X90118524Y-80182564D01*
X90185391Y-80158706D01*
X90192587Y-80158500D01*
X103833629Y-80158500D01*
X103901750Y-80178502D01*
X103922724Y-80195405D01*
X110179874Y-86452555D01*
X110210612Y-86502713D01*
X110219902Y-86531305D01*
X110265473Y-86671556D01*
X110265476Y-86671561D01*
X110360958Y-86836941D01*
X110360965Y-86836951D01*
X110488744Y-86978864D01*
X110509192Y-86993720D01*
X110643248Y-87091118D01*
X110817712Y-87168794D01*
X111004513Y-87208500D01*
X111195487Y-87208500D01*
X111382288Y-87168794D01*
X111556752Y-87091118D01*
X111711253Y-86978866D01*
X111771105Y-86912394D01*
X111839034Y-86836951D01*
X111839035Y-86836949D01*
X111839040Y-86836944D01*
X111934527Y-86671556D01*
X111993542Y-86489928D01*
X112013504Y-86300000D01*
X111993542Y-86110072D01*
X111934527Y-85928444D01*
X111839040Y-85763056D01*
X111839038Y-85763054D01*
X111839034Y-85763048D01*
X111711255Y-85621135D01*
X111556752Y-85508882D01*
X111382288Y-85431206D01*
X111319227Y-85417801D01*
X111256754Y-85384072D01*
X111256331Y-85383650D01*
X104683519Y-78810838D01*
X104683515Y-78810834D01*
X104559284Y-78727826D01*
X104421247Y-78670649D01*
X104347976Y-78656074D01*
X104347975Y-78656073D01*
X104274711Y-78641500D01*
X104274706Y-78641500D01*
X90192587Y-78641500D01*
X90124466Y-78621498D01*
X90118524Y-78617435D01*
X90106754Y-78608883D01*
X90104611Y-78607929D01*
X89932288Y-78531206D01*
X89745487Y-78491500D01*
X89554513Y-78491500D01*
X89367711Y-78531206D01*
X89193247Y-78608882D01*
X89038744Y-78721135D01*
X88910965Y-78863048D01*
X88910958Y-78863058D01*
X88815476Y-79028438D01*
X88815473Y-79028445D01*
X88756457Y-79210072D01*
X88736496Y-79400000D01*
X83195904Y-79400000D01*
X84525499Y-78070405D01*
X84587811Y-78036379D01*
X84614594Y-78033500D01*
X91191800Y-78033500D01*
X91259921Y-78053502D01*
X91285437Y-78075190D01*
X91288747Y-78078866D01*
X91443248Y-78191118D01*
X91617712Y-78268794D01*
X91804513Y-78308500D01*
X91995487Y-78308500D01*
X92182288Y-78268794D01*
X92356752Y-78191118D01*
X92511253Y-78078866D01*
X92514563Y-78075190D01*
X92639034Y-77936951D01*
X92639035Y-77936949D01*
X92639040Y-77936944D01*
X92734527Y-77771556D01*
X92793542Y-77589928D01*
X92813504Y-77400000D01*
X92793542Y-77210072D01*
X92734527Y-77028444D01*
X92639040Y-76863056D01*
X92639038Y-76863054D01*
X92639034Y-76863048D01*
X92511255Y-76721135D01*
X92356752Y-76608882D01*
X92182288Y-76531206D01*
X91995487Y-76491500D01*
X91804513Y-76491500D01*
X91617711Y-76531206D01*
X91443247Y-76608882D01*
X91288747Y-76721133D01*
X91285437Y-76724810D01*
X91224991Y-76762050D01*
X91191800Y-76766500D01*
X84237603Y-76766500D01*
X84164568Y-76781028D01*
X84115215Y-76790845D01*
X84115213Y-76790845D01*
X84115212Y-76790846D01*
X83999923Y-76838601D01*
X83896171Y-76907926D01*
X83896164Y-76907931D01*
X81574501Y-79229595D01*
X81512189Y-79263621D01*
X81485406Y-79266500D01*
X77508200Y-79266500D01*
X77440079Y-79246498D01*
X77414563Y-79224810D01*
X77411252Y-79221133D01*
X77256752Y-79108882D01*
X77082288Y-79031206D01*
X76895487Y-78991500D01*
X76704513Y-78991500D01*
X76517711Y-79031206D01*
X76343247Y-79108882D01*
X76188744Y-79221135D01*
X76060965Y-79363048D01*
X76060958Y-79363058D01*
X75965476Y-79528438D01*
X75965473Y-79528445D01*
X75906457Y-79710072D01*
X75886496Y-79900000D01*
X71680725Y-79900000D01*
X71687766Y-79846521D01*
X71687766Y-79787787D01*
X71688060Y-79779188D01*
X71692459Y-79714879D01*
X71692459Y-79714874D01*
X71688060Y-79650565D01*
X71687766Y-79641966D01*
X71687766Y-78734500D01*
X71707768Y-78666379D01*
X71761424Y-78619886D01*
X71813766Y-78608500D01*
X81099328Y-78608500D01*
X81099329Y-78608500D01*
X81294169Y-78569744D01*
X81477704Y-78493721D01*
X81642881Y-78383353D01*
X81783353Y-78242881D01*
X83980829Y-76045405D01*
X84043141Y-76011379D01*
X84069924Y-76008500D01*
X100899328Y-76008500D01*
X100899329Y-76008500D01*
X101094169Y-75969744D01*
X101277704Y-75893721D01*
X101442881Y-75783353D01*
X101583353Y-75642881D01*
X101583352Y-75642881D01*
X101642866Y-75583367D01*
X101642865Y-75583367D01*
X105073713Y-72152520D01*
X105082854Y-72144235D01*
X105116568Y-72116568D01*
X105144231Y-72082859D01*
X105152516Y-72073717D01*
X105183354Y-72042881D01*
X105185552Y-72039591D01*
X105207574Y-72006633D01*
X105214942Y-71996698D01*
X105220499Y-71989927D01*
X105242595Y-71963004D01*
X105263152Y-71924542D01*
X105269499Y-71913954D01*
X105293722Y-71877704D01*
X105310406Y-71837422D01*
X105315688Y-71826254D01*
X105336241Y-71787804D01*
X105348896Y-71746084D01*
X105353063Y-71734440D01*
X105369742Y-71694173D01*
X105369742Y-71694172D01*
X105369744Y-71694168D01*
X105378248Y-71651408D01*
X105381251Y-71639422D01*
X105393908Y-71597701D01*
X105394270Y-71594016D01*
X105398182Y-71554307D01*
X105399997Y-71542070D01*
X105400695Y-71538563D01*
X105408500Y-71499329D01*
X105408500Y-71455734D01*
X105409107Y-71443383D01*
X105413380Y-71400001D01*
X105413380Y-71399998D01*
X105409107Y-71356615D01*
X105408500Y-71344264D01*
X105408500Y-71300674D01*
X105408500Y-71300671D01*
X105399991Y-71257899D01*
X105398181Y-71245693D01*
X105393908Y-71202299D01*
X105384907Y-71172628D01*
X105381251Y-71160573D01*
X105378247Y-71148581D01*
X105377702Y-71145841D01*
X105369744Y-71105831D01*
X105353061Y-71065555D01*
X105348896Y-71053915D01*
X105336241Y-71012196D01*
X105315684Y-70973737D01*
X105310405Y-70962573D01*
X105293723Y-70922298D01*
X105293722Y-70922296D01*
X105269501Y-70886047D01*
X105263144Y-70875441D01*
X105242594Y-70836995D01*
X105214938Y-70803296D01*
X105207572Y-70793363D01*
X105183358Y-70757123D01*
X105183354Y-70757119D01*
X105152522Y-70726287D01*
X105144227Y-70717135D01*
X105116568Y-70683432D01*
X105116565Y-70683429D01*
X105082862Y-70655770D01*
X105073709Y-70647474D01*
X105042881Y-70616646D01*
X105006623Y-70592418D01*
X104996699Y-70585058D01*
X104963004Y-70557405D01*
X104924548Y-70536849D01*
X104913950Y-70530496D01*
X104893505Y-70516836D01*
X104877703Y-70506277D01*
X104877698Y-70506275D01*
X104837430Y-70489595D01*
X104826257Y-70484311D01*
X104787811Y-70463762D01*
X104787806Y-70463760D01*
X104787804Y-70463759D01*
X104746073Y-70451099D01*
X104734455Y-70446942D01*
X104694169Y-70430256D01*
X104694165Y-70430255D01*
X104651405Y-70421748D01*
X104639418Y-70418745D01*
X104597704Y-70406092D01*
X104597698Y-70406091D01*
X104554315Y-70401818D01*
X104542085Y-70400004D01*
X104499334Y-70391500D01*
X104499329Y-70391500D01*
X104455734Y-70391500D01*
X104443385Y-70390893D01*
X104428132Y-70389390D01*
X104400002Y-70386620D01*
X104399998Y-70386620D01*
X104371867Y-70389390D01*
X104356614Y-70390893D01*
X104344266Y-70391500D01*
X104300663Y-70391500D01*
X104257913Y-70400004D01*
X104245684Y-70401818D01*
X104202305Y-70406090D01*
X104160575Y-70418748D01*
X104148588Y-70421750D01*
X104105838Y-70430254D01*
X104105829Y-70430257D01*
X104065554Y-70446938D01*
X104053921Y-70451100D01*
X104012198Y-70463757D01*
X104012196Y-70463758D01*
X103973748Y-70484308D01*
X103962577Y-70489592D01*
X103922296Y-70506277D01*
X103886047Y-70530498D01*
X103875445Y-70536852D01*
X103837001Y-70557401D01*
X103836989Y-70557409D01*
X103803293Y-70585062D01*
X103793367Y-70592424D01*
X103757121Y-70616644D01*
X103757115Y-70616649D01*
X103726289Y-70647474D01*
X103717132Y-70655773D01*
X103683431Y-70683431D01*
X103655769Y-70717137D01*
X103647467Y-70726296D01*
X100419171Y-73954595D01*
X100356859Y-73988620D01*
X100330076Y-73991500D01*
X83500668Y-73991500D01*
X83305830Y-74030256D01*
X83305825Y-74030258D01*
X83122296Y-74106279D01*
X82957123Y-74216644D01*
X82957116Y-74216649D01*
X80619171Y-76554595D01*
X80556859Y-76588621D01*
X80530076Y-76591500D01*
X71685193Y-76591500D01*
X71617072Y-76571498D01*
X71572312Y-76521482D01*
X71555800Y-76488187D01*
X71514153Y-76436376D01*
X71437834Y-76341432D01*
X71427947Y-76333485D01*
X71387386Y-76275219D01*
X71384764Y-76204270D01*
X71420916Y-76143168D01*
X71484364Y-76111310D01*
X71506889Y-76109280D01*
X79986613Y-76109280D01*
X79986614Y-76109280D01*
X80109005Y-76084935D01*
X80224295Y-76037180D01*
X80328053Y-75967851D01*
X82625500Y-73670405D01*
X82687812Y-73636379D01*
X82714595Y-73633500D01*
X99962393Y-73633500D01*
X99962394Y-73633500D01*
X100084785Y-73609155D01*
X100200075Y-73561400D01*
X100303833Y-73492071D01*
X105025499Y-68770405D01*
X105087811Y-68736379D01*
X105114594Y-68733500D01*
X108991800Y-68733500D01*
X109059921Y-68753502D01*
X109085437Y-68775190D01*
X109088747Y-68778866D01*
X109243248Y-68891118D01*
X109417712Y-68968794D01*
X109604513Y-69008500D01*
X109795487Y-69008500D01*
X109982288Y-68968794D01*
X110156752Y-68891118D01*
X110311253Y-68778866D01*
X110314563Y-68775190D01*
X110439034Y-68636951D01*
X110439035Y-68636949D01*
X110439040Y-68636944D01*
X110534527Y-68471556D01*
X110593542Y-68289928D01*
X110613504Y-68100000D01*
X110593542Y-67910072D01*
X110534527Y-67728444D01*
X110439040Y-67563056D01*
X110439038Y-67563054D01*
X110439034Y-67563048D01*
X110311255Y-67421135D01*
X110156752Y-67308882D01*
X109982288Y-67231206D01*
X109795487Y-67191500D01*
X109604513Y-67191500D01*
X109417711Y-67231206D01*
X109243247Y-67308882D01*
X109088747Y-67421133D01*
X109085437Y-67424810D01*
X109024991Y-67462050D01*
X108991800Y-67466500D01*
X104737603Y-67466500D01*
X104664568Y-67481028D01*
X104615215Y-67490845D01*
X104615213Y-67490845D01*
X104615212Y-67490846D01*
X104499923Y-67538601D01*
X104396171Y-67607926D01*
X104396164Y-67607931D01*
X99674501Y-72329595D01*
X99612189Y-72363621D01*
X99585406Y-72366500D01*
X82337603Y-72366500D01*
X82215215Y-72390845D01*
X82215211Y-72390846D01*
X82202364Y-72396167D01*
X82191175Y-72400803D01*
X82099923Y-72438600D01*
X81996167Y-72507927D01*
X81996161Y-72507932D01*
X79698721Y-74805375D01*
X79636409Y-74839400D01*
X79609626Y-74842280D01*
X70581298Y-74842280D01*
X70513177Y-74822278D01*
X70507237Y-74818216D01*
X70356752Y-74708882D01*
X70182288Y-74631206D01*
X69995487Y-74591500D01*
X69804513Y-74591500D01*
X69617711Y-74631206D01*
X69443247Y-74708882D01*
X69288744Y-74821135D01*
X69160965Y-74963048D01*
X69160958Y-74963058D01*
X69065476Y-75128438D01*
X69065473Y-75128444D01*
X69058570Y-75149690D01*
X69006457Y-75310072D01*
X68986496Y-75500000D01*
X69006457Y-75689927D01*
X69028863Y-75758882D01*
X69065473Y-75871556D01*
X69065473Y-75871557D01*
X69065474Y-75871558D01*
X69083339Y-75902501D01*
X69100076Y-75971496D01*
X69076855Y-76038588D01*
X69021048Y-76082475D01*
X68974219Y-76091500D01*
X68461129Y-76091500D01*
X68418861Y-76094366D01*
X68418858Y-76094366D01*
X68294492Y-76125295D01*
X68236134Y-76139808D01*
X68106159Y-76204270D01*
X68067450Y-76223468D01*
X67920695Y-76341434D01*
X67844378Y-76436376D01*
X67786110Y-76476938D01*
X67715162Y-76479559D01*
X67682034Y-76465888D01*
X67556771Y-76391807D01*
X67408485Y-76348726D01*
X67373845Y-76346000D01*
X66296266Y-76346000D01*
X66296266Y-77601000D01*
X66276264Y-77669121D01*
X66222608Y-77715614D01*
X66170266Y-77727000D01*
X64415267Y-77727000D01*
X64415267Y-78304569D01*
X64417992Y-78339218D01*
X64461073Y-78487505D01*
X64539670Y-78620404D01*
X64539675Y-78620411D01*
X64621014Y-78701750D01*
X64655040Y-78764062D01*
X64649975Y-78834877D01*
X64641038Y-78853845D01*
X64584537Y-78951706D01*
X64584534Y-78951714D01*
X64488493Y-79196423D01*
X64488491Y-79196428D01*
X64429994Y-79452719D01*
X64410348Y-79714877D01*
X57091503Y-79714877D01*
X58034780Y-77473000D01*
X64415266Y-77473000D01*
X66042266Y-77473000D01*
X66042266Y-76346000D01*
X64964696Y-76346000D01*
X64930047Y-76348726D01*
X64781760Y-76391807D01*
X64648861Y-76470404D01*
X64648854Y-76470409D01*
X64539675Y-76579588D01*
X64539670Y-76579595D01*
X64461073Y-76712494D01*
X64417992Y-76860780D01*
X64415266Y-76895420D01*
X64415266Y-77473000D01*
X58034780Y-77473000D01*
X59698801Y-73518137D01*
X64160766Y-73518137D01*
X64163632Y-73560404D01*
X64163632Y-73560407D01*
X64181810Y-73633500D01*
X64209074Y-73743132D01*
X64292733Y-73911814D01*
X64410698Y-74058568D01*
X64557452Y-74176533D01*
X64726134Y-74260192D01*
X64908857Y-74305633D01*
X64919427Y-74306349D01*
X64951129Y-74308500D01*
X64951138Y-74308500D01*
X66215996Y-74308500D01*
X66267245Y-74319393D01*
X66378202Y-74368794D01*
X66565003Y-74408500D01*
X66755977Y-74408500D01*
X66942778Y-74368794D01*
X67053735Y-74319393D01*
X67104984Y-74308500D01*
X67387403Y-74308500D01*
X67414574Y-74306656D01*
X67429675Y-74305633D01*
X67612398Y-74260192D01*
X67781080Y-74176533D01*
X67845325Y-74124890D01*
X67910950Y-74097802D01*
X67980803Y-74110493D01*
X68003207Y-74124891D01*
X68067447Y-74176530D01*
X68067450Y-74176531D01*
X68067452Y-74176533D01*
X68236134Y-74260192D01*
X68418857Y-74305633D01*
X68429427Y-74306349D01*
X68461129Y-74308500D01*
X68461138Y-74308500D01*
X70897403Y-74308500D01*
X70924574Y-74306656D01*
X70939675Y-74305633D01*
X71122398Y-74260192D01*
X71291080Y-74176533D01*
X71437834Y-74058568D01*
X71555799Y-73911814D01*
X71639458Y-73743132D01*
X71684899Y-73560409D01*
X71686490Y-73536944D01*
X71687766Y-73518137D01*
X71687766Y-72081862D01*
X71684899Y-72039595D01*
X71684899Y-72039592D01*
X71677045Y-72008009D01*
X71639458Y-71856868D01*
X71555799Y-71688186D01*
X71437834Y-71541432D01*
X71291080Y-71423467D01*
X71122398Y-71339808D01*
X70939675Y-71294367D01*
X70939671Y-71294366D01*
X70897403Y-71291500D01*
X70897394Y-71291500D01*
X68461138Y-71291500D01*
X68461129Y-71291500D01*
X68418861Y-71294366D01*
X68418858Y-71294366D01*
X68281576Y-71328507D01*
X68236134Y-71339808D01*
X68067452Y-71423467D01*
X68067448Y-71423469D01*
X68003206Y-71475109D01*
X67937581Y-71502198D01*
X67867728Y-71489506D01*
X67845326Y-71475109D01*
X67781083Y-71423469D01*
X67781081Y-71423468D01*
X67781080Y-71423467D01*
X67612398Y-71339808D01*
X67429675Y-71294367D01*
X67429671Y-71294366D01*
X67387403Y-71291500D01*
X67387394Y-71291500D01*
X64951138Y-71291500D01*
X64951129Y-71291500D01*
X64908861Y-71294366D01*
X64908858Y-71294366D01*
X64771576Y-71328507D01*
X64726134Y-71339808D01*
X64557452Y-71423467D01*
X64557450Y-71423468D01*
X64410698Y-71541432D01*
X64292734Y-71688184D01*
X64292733Y-71688185D01*
X64292733Y-71688186D01*
X64209074Y-71856868D01*
X64207947Y-71861400D01*
X64163632Y-72039592D01*
X64163632Y-72039595D01*
X64160766Y-72081862D01*
X64160766Y-73518137D01*
X59698801Y-73518137D01*
X65831275Y-58943148D01*
X65836553Y-58932139D01*
X65869409Y-58871419D01*
X65883141Y-58851074D01*
X65991808Y-58719785D01*
X66009252Y-58702471D01*
X66141335Y-58594790D01*
X66161808Y-58581191D01*
X66312290Y-58501205D01*
X66335015Y-58491843D01*
X66498157Y-58442602D01*
X66522268Y-58437829D01*
X66568630Y-58433284D01*
X66590910Y-58431101D01*
X66603201Y-58430500D01*
X236197951Y-58430500D01*
X236198038Y-58430512D01*
G37*
%TD.AperFunction*%
%TD*%
M02*
