%TF.GenerationSoftware,KiCad,Pcbnew,8.0.1*%
%TF.CreationDate,2024-04-07T13:01:20-05:00*%
%TF.ProjectId,badge,62616467-652e-46b6-9963-61645f706362,rev?*%
%TF.SameCoordinates,Original*%
%TF.FileFunction,Soldermask,Bot*%
%TF.FilePolarity,Negative*%
%FSLAX46Y46*%
G04 Gerber Fmt 4.6, Leading zero omitted, Abs format (unit mm)*
G04 Created by KiCad (PCBNEW 8.0.1) date 2024-04-07 13:01:20*
%MOMM*%
%LPD*%
G01*
G04 APERTURE LIST*
G04 Aperture macros list*
%AMRoundRect*
0 Rectangle with rounded corners*
0 $1 Rounding radius*
0 $2 $3 $4 $5 $6 $7 $8 $9 X,Y pos of 4 corners*
0 Add a 4 corners polygon primitive as box body*
4,1,4,$2,$3,$4,$5,$6,$7,$8,$9,$2,$3,0*
0 Add four circle primitives for the rounded corners*
1,1,$1+$1,$2,$3*
1,1,$1+$1,$4,$5*
1,1,$1+$1,$6,$7*
1,1,$1+$1,$8,$9*
0 Add four rect primitives between the rounded corners*
20,1,$1+$1,$2,$3,$4,$5,0*
20,1,$1+$1,$4,$5,$6,$7,0*
20,1,$1+$1,$6,$7,$8,$9,0*
20,1,$1+$1,$8,$9,$2,$3,0*%
%AMRotRect*
0 Rectangle, with rotation*
0 The origin of the aperture is its center*
0 $1 length*
0 $2 width*
0 $3 Rotation angle, in degrees counterclockwise*
0 Add horizontal line*
21,1,$1,$2,0,0,$3*%
G04 Aperture macros list end*
%ADD10RoundRect,0.250000X-0.600000X0.600000X-0.600000X-0.600000X0.600000X-0.600000X0.600000X0.600000X0*%
%ADD11C,1.700000*%
%ADD12C,3.000000*%
%ADD13R,1.700000X1.700000*%
%ADD14RotRect,1.700000X1.700000X355.000000*%
%ADD15RoundRect,0.249999X1.075001X-0.450001X1.075001X0.450001X-1.075001X0.450001X-1.075001X-0.450001X0*%
%ADD16RoundRect,0.249999X-1.075001X0.450001X-1.075001X-0.450001X1.075001X-0.450001X1.075001X0.450001X0*%
%ADD17R,1.500000X1.500000*%
%ADD18RoundRect,0.250000X0.650000X-0.412500X0.650000X0.412500X-0.650000X0.412500X-0.650000X-0.412500X0*%
%ADD19R,1.800000X1.800000*%
%ADD20C,1.800000*%
%ADD21RoundRect,0.250000X0.412500X0.650000X-0.412500X0.650000X-0.412500X-0.650000X0.412500X-0.650000X0*%
%ADD22RoundRect,0.775000X0.775000X0.775000X-0.775000X0.775000X-0.775000X-0.775000X0.775000X-0.775000X0*%
%ADD23C,1.500000*%
%ADD24RoundRect,0.250000X-1.500000X0.250000X-1.500000X-0.250000X1.500000X-0.250000X1.500000X0.250000X0*%
%ADD25RoundRect,0.250001X-1.449999X0.499999X-1.449999X-0.499999X1.449999X-0.499999X1.449999X0.499999X0*%
%ADD26RoundRect,0.300000X0.650000X-0.300000X0.650000X0.300000X-0.650000X0.300000X-0.650000X-0.300000X0*%
%ADD27RoundRect,1.250000X1.250000X1.250000X-1.250000X1.250000X-1.250000X-1.250000X1.250000X-1.250000X0*%
%ADD28RoundRect,0.249999X-0.450001X-1.075001X0.450001X-1.075001X0.450001X1.075001X-0.450001X1.075001X0*%
%ADD29RoundRect,0.300000X-0.650000X0.300000X-0.650000X-0.300000X0.650000X-0.300000X0.650000X0.300000X0*%
%ADD30R,2.000000X1.905000*%
%ADD31O,2.000000X1.905000*%
%ADD32R,1.800000X1.100000*%
%ADD33RoundRect,0.100000X0.637500X0.100000X-0.637500X0.100000X-0.637500X-0.100000X0.637500X-0.100000X0*%
%ADD34RoundRect,0.375000X-0.375000X1.625000X-0.375000X-1.625000X0.375000X-1.625000X0.375000X1.625000X0*%
%ADD35RoundRect,0.249999X0.450001X1.075001X-0.450001X1.075001X-0.450001X-1.075001X0.450001X-1.075001X0*%
G04 APERTURE END LIST*
D10*
%TO.C,J1*%
X213360000Y-60960000D03*
D11*
X213360000Y-63500000D03*
X210820000Y-60960000D03*
X210820000Y-63500000D03*
X208280000Y-60960000D03*
X208280000Y-63500000D03*
%TD*%
D10*
%TO.C,J1*%
X109220000Y-60960000D03*
D11*
X109220000Y-63500000D03*
X106680000Y-60960000D03*
X106680000Y-63500000D03*
X104140000Y-60960000D03*
X104140000Y-63500000D03*
%TD*%
D12*
%TO.C,U2*%
X114960000Y-136020000D03*
X180760000Y-103520000D03*
X180760000Y-136020000D03*
D13*
X137160000Y-102600000D03*
D11*
X139700000Y-102600000D03*
X142240000Y-102600000D03*
X144780000Y-102600000D03*
X147320000Y-102600000D03*
X149860000Y-102600000D03*
X152400000Y-102600000D03*
X154940000Y-102600000D03*
%TD*%
D10*
%TO.C,J1*%
X172720000Y-99060000D03*
D11*
X172720000Y-101600000D03*
X170180000Y-99060000D03*
X170180000Y-101600000D03*
X167640000Y-99060000D03*
X167640000Y-101600000D03*
%TD*%
D10*
%TO.C,J1*%
X71120000Y-99060000D03*
D11*
X71120000Y-101600000D03*
X68580000Y-99060000D03*
X68580000Y-101600000D03*
X66040000Y-99060000D03*
X66040000Y-101600000D03*
%TD*%
D12*
%TO.C,U2*%
X56004294Y-62458587D03*
X53171733Y-94834914D03*
D14*
X78200000Y-63476945D03*
D11*
X80730336Y-63698321D03*
X83260669Y-63919696D03*
X85791004Y-64141072D03*
X88321338Y-64362447D03*
X90851673Y-64583823D03*
X93382007Y-64805199D03*
X95912342Y-65026574D03*
%TD*%
D15*
%TO.C,R3*%
X127000000Y-72507064D03*
X127000000Y-67707064D03*
%TD*%
D16*
%TO.C,R11*%
X119380000Y-89040000D03*
X119380000Y-93840000D03*
%TD*%
D17*
%TO.C,TP17*%
X111650000Y-85800000D03*
%TD*%
%TO.C,TP4*%
X88100000Y-81900000D03*
%TD*%
%TO.C,TP7*%
X58100000Y-99100000D03*
%TD*%
%TO.C,TP9*%
X123600000Y-66400000D03*
%TD*%
D18*
%TO.C,C41*%
X96350000Y-83305000D03*
X96350000Y-80180000D03*
%TD*%
D16*
%TO.C,R41*%
X83100000Y-92900000D03*
X83100000Y-97700000D03*
%TD*%
D19*
%TO.C,D6*%
X117000000Y-88975000D03*
D20*
X117000000Y-86435000D03*
%TD*%
D17*
%TO.C,TP15*%
X86800000Y-91800000D03*
%TD*%
D21*
%TO.C,C1*%
X54902500Y-102600000D03*
X51777500Y-102600000D03*
%TD*%
%TO.C,C4*%
X161582500Y-104340000D03*
X158457500Y-104340000D03*
%TD*%
D17*
%TO.C,TP11*%
X134620000Y-76200000D03*
%TD*%
D22*
%TO.C,REF\u002A\u002A*%
X69679266Y-79714877D03*
%TD*%
D23*
%TO.C,R2*%
X131980000Y-62200000D03*
X128580000Y-62200000D03*
%TD*%
D17*
%TO.C,TP10*%
X123600000Y-69200000D03*
%TD*%
%TO.C,TP18*%
X139700000Y-103800000D03*
%TD*%
D24*
%TO.C,BT1*%
X107124214Y-75200000D03*
X107124214Y-77200000D03*
D25*
X112874214Y-72850000D03*
X112874214Y-79550000D03*
%TD*%
D21*
%TO.C,C2*%
X118402500Y-63850000D03*
X115277500Y-63850000D03*
%TD*%
D26*
%TO.C,SW1*%
X102620000Y-73580000D03*
X102620000Y-71080000D03*
X102620000Y-68580000D03*
X96520000Y-73580000D03*
X96520000Y-71080000D03*
X96520000Y-68580000D03*
%TD*%
D17*
%TO.C,TP5*%
X90100000Y-88900000D03*
%TD*%
%TO.C,TP3*%
X94500000Y-82000000D03*
%TD*%
D21*
%TO.C,C3*%
X128562500Y-75260000D03*
X125437500Y-75260000D03*
%TD*%
D17*
%TO.C,TP12*%
X134600000Y-79100000D03*
%TD*%
%TO.C,TP6*%
X86700000Y-88900000D03*
%TD*%
%TO.C,TP2*%
X105900000Y-70500000D03*
%TD*%
D27*
%TO.C,REF\u002A\u002A*%
X70470010Y-86659629D03*
%TD*%
D28*
%TO.C,R4*%
X193040000Y-73660000D03*
X197840000Y-73660000D03*
%TD*%
D17*
%TO.C,TP13*%
X182800000Y-77400000D03*
%TD*%
%TO.C,TP20*%
X137200000Y-101100000D03*
%TD*%
D29*
%TO.C,SW3*%
X123950000Y-88940000D03*
X123950000Y-91440000D03*
X123950000Y-93940000D03*
X130050000Y-88940000D03*
X130050000Y-91440000D03*
X130050000Y-93940000D03*
%TD*%
D17*
%TO.C,TP8*%
X58100000Y-102000000D03*
%TD*%
D30*
%TO.C,U3*%
X107400000Y-87980000D03*
D31*
X107400000Y-85440000D03*
X107400000Y-82900000D03*
%TD*%
D18*
%TO.C,C5*%
X190600000Y-79712500D03*
X190600000Y-76587500D03*
%TD*%
D32*
%TO.C,SW2*%
X127560000Y-60610000D03*
X121360000Y-60610000D03*
X127560000Y-64310000D03*
X121360000Y-64310000D03*
%TD*%
D17*
%TO.C,TP14*%
X182800000Y-80400000D03*
%TD*%
D33*
%TO.C,U4*%
X94132500Y-83310000D03*
X94132500Y-83960000D03*
X94132500Y-84610000D03*
X94132500Y-85260000D03*
X94132500Y-85910000D03*
X94132500Y-86560000D03*
X94132500Y-87210000D03*
X88407500Y-87210000D03*
X88407500Y-86560000D03*
X88407500Y-85910000D03*
X88407500Y-85260000D03*
X88407500Y-84610000D03*
X88407500Y-83960000D03*
X88407500Y-83310000D03*
%TD*%
D18*
%TO.C,C42*%
X86190000Y-83305000D03*
X86190000Y-80180000D03*
%TD*%
D34*
%TO.C,U1*%
X61580490Y-75475780D03*
X64120490Y-75475780D03*
X66660490Y-75475780D03*
X69200490Y-75475780D03*
X71740490Y-75475780D03*
X74280490Y-75475780D03*
X76820490Y-75475780D03*
X76820490Y-92640340D03*
X74280490Y-92640340D03*
X71740490Y-92640340D03*
X69200490Y-92640340D03*
X66660490Y-92640340D03*
X64120490Y-92640340D03*
X61580490Y-92640340D03*
D12*
X69679266Y-79714877D03*
X66169266Y-79714877D03*
X70470010Y-86659629D03*
%TD*%
D22*
%TO.C,REF\u002A\u002A*%
X66169266Y-79714877D03*
%TD*%
D15*
%TO.C,R1*%
X131400000Y-72507064D03*
X131400000Y-67707064D03*
%TD*%
D17*
%TO.C,TP1*%
X111760000Y-63500000D03*
%TD*%
D28*
%TO.C,R5*%
X193040000Y-78700000D03*
X197840000Y-78700000D03*
%TD*%
D35*
%TO.C,R7*%
X197840000Y-83820000D03*
X193040000Y-83820000D03*
%TD*%
M02*
